<svg width="48" height="32" viewBox="0 0 48 32" fill="none" xmlns="http://www.w3.org/2000/svg">
<g clip-path="url(#clip0_11_1293)">
<path d="M16 31.7239H0.827625C0.370594 31.7239 0 31.3533 0 30.8963V1.10326C0 0.646228 0.370594 0.275635 0.827625 0.275635H16V31.7239Z" fill="#41479B"/>
<path d="M32.0007 0.275879H16.0004V31.7243H32.0007V0.275879Z" fill="#FFE15A"/>
<path d="M47.1724 31.7239H32V0.275635H47.1724C47.6294 0.275635 48 0.646228 48 1.10326V30.8963C48 31.3534 47.6294 31.7239 47.1724 31.7239Z" fill="#FF4B55"/>
<path d="M29.627 18.6896C29.627 18.4494 29.4323 18.2546 29.192 18.2546C29.1399 18.2546 29.0905 18.2652 29.0441 18.2821C28.8289 18.0907 28.4388 17.6157 28.8302 16.9449C28.8831 16.986 28.9488 17.0115 29.021 17.0115C29.1936 17.0115 29.3334 16.8717 29.3334 16.6992C29.3334 16.5628 29.2455 16.4481 29.1237 16.4054C29.4454 16.2414 29.9041 15.8931 29.8805 15.2418C29.8468 14.3182 29.0903 13.8084 28.6261 14.0122C28.6278 13.9992 28.63 13.9865 28.63 13.9732C28.63 13.803 28.4921 13.6651 28.322 13.6651C28.2174 13.6651 28.1253 13.7175 28.0697 13.7972C28.0508 13.7049 28.053 13.5334 28.2677 13.3481C28.6664 13.0037 29.1195 12.1791 28.2949 11.5992C27.8382 11.2781 26.9654 11.1242 26.6729 11.563C26.5461 11.7532 26.6478 12.0266 26.7926 12.088C26.5593 12.2181 26.1166 12.4134 25.7668 12.2607C25.2684 12.0433 25.5563 11.6114 25.6672 11.418C25.862 11.0782 25.7397 10.5209 25.0872 10.5209C24.6522 10.5209 24.4348 10.9559 23.9999 10.9559C23.565 10.9559 23.3475 10.5209 22.9126 10.5209C22.2602 10.5209 22.1379 11.0782 22.3327 11.418C22.4436 11.6113 22.7314 12.0432 22.233 12.2607C21.8832 12.4135 21.4406 12.2181 21.2072 12.088C21.3519 12.0267 21.4538 11.7533 21.3269 11.563C21.0345 11.1243 20.1616 11.2781 19.7049 11.5992C18.8803 12.1791 19.3335 13.0036 19.7321 13.3481C19.9468 13.5334 19.9491 13.705 19.9301 13.7972C19.8744 13.7175 19.7824 13.6651 19.6779 13.6651C19.5077 13.6651 19.3698 13.803 19.3698 13.9732C19.3698 13.9865 19.372 13.9993 19.3737 14.0122C18.9096 13.8083 18.1529 14.3182 18.1194 15.2418C18.0956 15.893 18.5544 16.2413 18.8761 16.4054C18.7543 16.4482 18.6665 16.5628 18.6665 16.6992C18.6665 16.8717 18.8064 17.0115 18.9789 17.0115C19.051 17.0115 19.1167 16.9861 19.1696 16.9449C19.561 17.6157 19.171 18.0907 18.9557 18.2821C18.9094 18.2652 18.86 18.2546 18.8079 18.2546C18.5677 18.2546 18.3729 18.4493 18.3729 18.6896C18.3729 18.915 18.5451 19.0983 18.7649 19.1202C18.4651 19.4282 18.1961 20.107 18.7807 20.878C19.4195 21.7207 20.9418 21.6527 21.6758 21.6799C22.1411 21.6972 22.4912 21.9381 22.6855 22.1124C22.5613 22.189 22.4777 22.3251 22.4777 22.4817C22.4777 22.7014 22.6411 22.8811 22.8527 22.9107C22.9296 23.0337 23.065 23.1161 23.2208 23.1161C23.3948 23.1161 23.5437 23.0132 23.6134 22.8655C23.8431 23.0547 24.0001 23.1342 24.0001 23.1342C24.0001 23.1342 24.1571 23.0548 24.3868 22.8655C24.4564 23.0131 24.6054 23.1161 24.7794 23.1161C24.9352 23.1161 25.0706 23.0337 25.1475 22.9107C25.3591 22.8811 25.5225 22.7014 25.5225 22.4817C25.5225 22.325 25.4389 22.1889 25.3147 22.1124C25.5089 21.9381 25.859 21.6971 26.3244 21.6799C27.0584 21.6527 28.5807 21.7207 29.2195 20.878C29.804 20.107 29.5351 19.4281 29.2353 19.1202C29.4548 19.0982 29.627 18.915 29.627 18.6896Z" fill="#DCBE82"/>
<path d="M20.0854 13.103V19.4099C20.0854 20.1305 20.6695 20.7148 21.3903 20.7148H23.1301C23.7825 20.7148 24 21.1498 24 21.1498C24 21.1498 24.2174 20.7148 24.8699 20.7148H26.6097C27.3304 20.7148 27.9146 20.1306 27.9146 19.4099V13.103C27.9146 12.9829 27.8173 12.8856 27.6972 12.8856H20.303C20.1827 12.8856 20.0854 12.9829 20.0854 13.103Z" fill="#D2AA73"/>
<path d="M23.7822 13.3204H20.5201V16.5825H23.7822V13.3204Z" fill="#FF4B55"/>
<path d="M23.7827 20.2798C21.981 20.2798 20.5206 18.8194 20.5206 17.0177H23.7827V20.2798Z" fill="#FF4B55"/>
<path d="M24.2177 20.2798V17.0177H27.4798C27.4797 18.8192 26.0192 20.2798 24.2177 20.2798Z" fill="#FFE15A"/>
<path d="M24.6837 13.3204H24.2177V16.5825H24.6837V13.3204Z" fill="#FFE15A"/>
<path d="M25.1494 13.3204H24.6834V16.5825H25.1494V13.3204Z" fill="#FF4B55"/>
<path d="M25.6156 13.3204H25.1496V16.5825H25.6156V13.3204Z" fill="#FFE15A"/>
<path d="M26.0821 13.3204H25.616V16.5825H26.0821V13.3204Z" fill="#FF4B55"/>
<path d="M26.5471 13.3204H26.0811V16.5825H26.5471V13.3204Z" fill="#FFE15A"/>
<path d="M27.479 13.3204H27.013V16.5825H27.479V13.3204Z" fill="#FFE15A"/>
<path d="M27.014 13.3204H26.548V16.5825H27.014V13.3204Z" fill="#FF4B55"/>
<path d="M21.97 17.0179H21.6075V20.2801H21.97V17.0179Z" fill="#FF4B55"/>
<path d="M22.3327 17.0179H21.9702V20.28H22.3327V17.0179Z" fill="#FFE15A"/>
<path d="M23.0585 17.0179H22.696V20.28H23.0585V17.0179Z" fill="#FFE15A"/>
<path d="M22.6947 17.0179H22.3322V20.28H22.6947V17.0179Z" fill="#FF4B55"/>
<path d="M23.7821 17.0179H23.4196V20.28H23.7821V17.0179Z" fill="#FFE15A"/>
<path d="M23.4201 17.0179H23.0576V20.28H23.4201V17.0179Z" fill="#FF4B55"/>
<path d="M20.883 20.1139V17.0177H20.5206V19.4099C20.5206 19.7003 20.6643 19.9558 20.883 20.1139Z" fill="#FFE15A"/>
<path d="M21.2454 20.2652V17.0176H20.8829V20.1138C20.9885 20.1901 21.1114 20.2426 21.2454 20.2652Z" fill="#FF4B55"/>
<path d="M21.2452 17.0177V20.2653C21.2925 20.2733 21.3404 20.2799 21.3902 20.2799H21.6076V17.0178H21.2452V17.0177Z" fill="#FFE15A"/>
<path d="M21.0064 16.3975C20.9902 16.3975 20.9737 16.3929 20.9592 16.3834C20.7454 16.2418 20.7329 16.0944 20.7445 16.0192C20.7602 15.9176 20.8357 15.8333 20.9371 15.8043C21.0335 15.7772 21.1296 15.8057 21.1945 15.8811C21.3295 16.0381 21.4689 16.0998 21.5863 16.0564C21.6792 16.022 21.7346 15.9304 21.7346 15.862C21.7346 15.8147 21.7729 15.7763 21.8203 15.7763C21.8678 15.7763 21.906 15.8146 21.906 15.862C21.906 16.0118 21.7967 16.1612 21.6459 16.217C21.5358 16.2577 21.3142 16.2828 21.0647 15.9929C21.0379 15.9619 21.0064 15.9629 20.9841 15.9691C20.9537 15.9778 20.92 16.0048 20.9138 16.0452C20.9047 16.1043 20.9557 16.1753 21.0537 16.2403C21.0933 16.2663 21.104 16.3196 21.0779 16.3591C21.0614 16.3838 21.0342 16.3975 21.0064 16.3975Z" fill="white"/>
<path d="M23.3063 16.3975C23.2785 16.3975 23.2512 16.384 23.2348 16.3593C23.2088 16.3197 23.2196 16.2666 23.259 16.2405C23.357 16.1756 23.408 16.1045 23.3989 16.0454C23.3926 16.005 23.3591 15.978 23.3287 15.9693C23.3064 15.9631 23.2748 15.9621 23.2481 15.9931C22.9985 16.2833 22.7769 16.2581 22.6668 16.2173C22.5161 16.1614 22.4067 16.012 22.4067 15.8622C22.4067 15.8149 22.445 15.7766 22.4924 15.7766C22.5398 15.7766 22.5781 15.8148 22.5781 15.8622C22.5781 15.9307 22.6335 16.0222 22.7264 16.0567C22.8438 16.1003 22.9833 16.0383 23.1182 15.8814C23.1832 15.8055 23.2794 15.7773 23.3757 15.8046C23.4769 15.8335 23.5526 15.9178 23.5682 16.0195C23.5798 16.0946 23.5674 16.242 23.3535 16.3836C23.339 16.3928 23.3225 16.3975 23.3063 16.3975Z" fill="white"/>
<path d="M20.9596 16.4991C20.9415 16.4991 20.9233 16.4933 20.9078 16.4817C20.8701 16.4529 20.8629 16.3993 20.8915 16.3616L22.7537 13.9129C22.7715 13.8808 22.7783 13.8363 22.786 13.785C22.8003 13.6888 22.8183 13.5691 22.9651 13.4808C23.0608 13.4234 23.1744 13.425 23.2693 13.4856C23.3742 13.5526 23.4359 13.6773 23.4232 13.7959C23.4155 13.868 23.3734 13.9995 23.1783 14.0718C23.1337 14.0884 23.0846 14.0655 23.0683 14.0213C23.0518 13.977 23.0744 13.9276 23.1187 13.9113C23.1756 13.8902 23.2451 13.8499 23.2528 13.7777C23.2587 13.7229 23.2275 13.6624 23.177 13.63C23.1488 13.6119 23.1044 13.5964 23.0533 13.6277C22.9756 13.6744 22.9679 13.7255 22.9552 13.8104C22.9462 13.8705 22.936 13.9385 22.8958 14.0078L21.0277 16.4653C21.0111 16.4874 20.9855 16.4991 20.9596 16.4991Z" fill="#FFE15A"/>
<path d="M22.1637 13.8057L21.307 14.8337L21.6497 15.8618H22.6777L23.0204 14.8337L22.1637 13.8057Z" fill="#FFE15A"/>
<path d="M22.1631 13.672L21.21 14.8157L21.5873 15.9476H22.7387L23.116 14.8157L22.1631 13.672ZM21.4027 14.8521L22.0774 14.0425V15.7762H21.7107L21.4027 14.8521ZM22.6153 15.7763H22.2487V14.0426L22.9234 14.8522L22.6153 15.7763Z" fill="white"/>
<path d="M26.6778 18.0475L26.6907 17.8575C26.6907 17.8575 26.8593 17.7366 26.7771 17.6243C26.6951 17.5119 26.6 17.4903 26.4012 17.5163C26.2025 17.5422 25.8914 17.5379 25.7576 17.5464C25.6236 17.5552 25.5545 17.6285 25.3428 17.5681L25.399 17.4384C25.399 17.4384 25.2997 17.4472 25.2391 17.4773C25.2061 17.4939 25.1268 17.3866 25.0491 17.4039C24.9716 17.4211 24.8936 17.581 24.7725 17.6632L24.8373 17.7928C24.8373 17.7928 24.9107 17.7582 24.967 17.7971C25.0231 17.836 25.0404 17.8619 25.1355 17.8619L25.1961 17.8879C25.1961 17.8879 25.1744 18.0261 25.2652 18.0909C25.2652 18.0909 25.1615 18.2249 25.1744 18.2464C25.1874 18.268 25.2737 18.4322 25.3084 18.5272L25.3862 18.3803C25.3862 18.3803 25.2695 18.2766 25.2911 18.2635C25.3128 18.2506 25.3904 18.2334 25.3775 18.1988C25.3646 18.1642 25.4381 18.2031 25.5201 18.216C25.5201 18.216 25.5244 18.3457 25.5417 18.3629C25.5591 18.3802 25.585 18.4493 25.5806 18.5228C25.5763 18.5962 25.5116 18.6178 25.5116 18.6178L25.6283 18.6524C25.6283 18.6524 25.6585 18.6092 25.6801 18.6135C25.6801 18.6135 25.6714 18.2549 25.719 18.1988C25.719 18.1988 25.9998 18.2549 26.1294 18.1858C26.1294 18.1858 26.146 18.2067 26.1783 18.2266C26.1654 18.2567 26.1544 18.2867 26.1593 18.2955C26.1702 18.3151 26.2048 18.3129 26.2135 18.2912C26.2167 18.283 26.2218 18.2663 26.2269 18.2489C26.2425 18.2541 26.2597 18.2581 26.2793 18.2601C26.2774 18.2874 26.2772 18.3125 26.2835 18.3183C26.2998 18.3334 26.3322 18.3205 26.3337 18.2972C26.3342 18.2896 26.3338 18.2753 26.3335 18.2599C26.3558 18.258 26.3796 18.2541 26.4058 18.2463L26.2589 18.4883L26.1855 18.5184L26.2806 18.566L26.3669 18.5314C26.3669 18.5314 26.449 18.324 26.5829 18.2635C26.5829 18.2635 26.6737 18.4795 26.5613 18.5963L26.6606 18.6524L26.7081 18.553C26.7081 18.553 26.6908 18.3587 26.7556 18.2333L26.6778 18.0475Z" fill="#FF4B55"/>
<path d="M25.0506 17.4302C25.0506 17.4302 25.0072 17.3891 24.9964 17.3349C24.9855 17.2807 24.9725 17.2568 24.9247 17.2417C24.9247 17.2417 24.955 17.2764 24.9508 17.3306C24.9465 17.3848 24.9508 17.4585 24.9811 17.4824L25.0506 17.4302Z" fill="#4173CD"/>
<path d="M25.4278 17.5832C25.4278 17.5832 25.3689 17.7836 25.1956 17.8879L25.1352 17.8619C25.1352 17.8619 25.3202 17.7039 25.3426 17.5681L25.4278 17.5832Z" fill="#4173CD"/>
<path d="M25.1331 17.4779C25.1269 17.4715 25.209 17.4476 25.1894 17.3826C25.1698 17.3175 25.1698 17.2698 25.209 17.2395C25.209 17.2395 25.2133 17.2937 25.2437 17.3284C25.274 17.3631 25.2914 17.4498 25.2416 17.4997C25.2416 17.4997 25.1916 17.5387 25.1331 17.4779Z" fill="#4173CD"/>
<path d="M25.1422 18.0692C25.1319 18.0641 25.1275 18.0514 25.1327 18.0411L25.1588 17.9879C25.1741 17.9567 25.164 17.9178 25.1339 17.9005C25.1008 17.8815 25.0592 17.8946 25.0427 17.9283L25.0155 17.9836C25.0104 17.9939 24.9978 17.9983 24.9875 17.9931L24.9712 18.0263C24.9712 18.0263 24.9952 18.0381 25.0242 18.0524L25.0236 18.0536C25.0169 18.067 25.0225 18.0833 25.0359 18.0899C25.0493 18.0965 25.0657 18.0909 25.0722 18.0775L25.0729 18.0763C25.1019 18.0905 25.1259 18.1024 25.1259 18.1024L25.1422 18.0692Z" fill="#4173CD"/>
<path d="M25.3522 18.4342L25.4171 18.4472L25.3629 18.6142L25.3081 18.5271L25.3522 18.4342Z" fill="#4173CD"/>
<path d="M25.511 18.6179L25.4713 18.688H25.6273L25.6276 18.6525L25.511 18.6179Z" fill="#4173CD"/>
<path d="M26.2801 18.566V18.6077H26.1029L26.1886 18.522L26.2801 18.566Z" fill="#4173CD"/>
<path d="M26.5607 18.5962L26.4733 18.6838H26.6574L26.6601 18.6524L26.5607 18.5962Z" fill="#4173CD"/>
<path d="M26.6778 19.4011L26.6907 19.211C26.6907 19.211 26.8593 19.0901 26.7771 18.9778C26.6951 18.8655 26.6 18.8438 26.4012 18.8698C26.2025 18.8957 25.8914 18.8914 25.7576 18.9C25.6236 18.9087 25.5545 18.982 25.3428 18.9216L25.399 18.792C25.399 18.792 25.2997 18.8007 25.2391 18.8309C25.2061 18.8475 25.1268 18.7401 25.0491 18.7575C24.9716 18.7746 24.8936 18.9346 24.7725 19.0167L24.8373 19.1463C24.8373 19.1463 24.9107 19.1117 24.967 19.1506C25.0231 19.1896 25.0404 19.2154 25.1355 19.2154L25.1961 19.2414C25.1961 19.2414 25.1744 19.3796 25.2652 19.4445C25.2652 19.4445 25.1615 19.5784 25.1744 19.5999C25.1874 19.6216 25.2737 19.7857 25.3084 19.8807L25.3862 19.7338C25.3862 19.7338 25.2695 19.6301 25.2911 19.6171C25.3128 19.6041 25.3904 19.5869 25.3775 19.5523C25.3646 19.5177 25.4381 19.5566 25.5201 19.5695C25.5201 19.5695 25.5244 19.6992 25.5417 19.7164C25.5591 19.7337 25.585 19.8028 25.5806 19.8763C25.5763 19.9497 25.5116 19.9713 25.5116 19.9713L25.6283 20.0059C25.6283 20.0059 25.6585 19.9627 25.6801 19.967C25.6801 19.967 25.6714 19.6084 25.719 19.5523C25.719 19.5523 25.9998 19.6084 26.1294 19.5393C26.1294 19.5393 26.146 19.5602 26.1783 19.5801C26.1654 19.6102 26.1544 19.6402 26.1593 19.649C26.1702 19.6686 26.2048 19.6664 26.2135 19.6447C26.2167 19.6366 26.2218 19.6198 26.2269 19.6024C26.2425 19.6076 26.2597 19.6116 26.2793 19.6136C26.2774 19.6409 26.2772 19.666 26.2835 19.6718C26.2998 19.6869 26.3322 19.6741 26.3337 19.6507C26.3342 19.6431 26.3338 19.6288 26.3335 19.6134C26.3558 19.6115 26.3796 19.6076 26.4058 19.5998L26.2589 19.8418L26.1855 19.872L26.2806 19.9195L26.3669 19.8849C26.3669 19.8849 26.449 19.6775 26.5829 19.6171C26.5829 19.6171 26.6737 19.8331 26.5613 19.9498L26.6606 20.0059L26.7081 19.9066C26.7081 19.9066 26.6908 19.7122 26.7556 19.5869L26.6778 19.4011Z" fill="#FF4B55"/>
<path d="M25.0506 18.7839C25.0506 18.7839 25.0072 18.7428 24.9964 18.6886C24.9855 18.6344 24.9725 18.6105 24.9247 18.5954C24.9247 18.5954 24.955 18.6301 24.9508 18.6843C24.9465 18.7385 24.9508 18.8122 24.9811 18.8361L25.0506 18.7839Z" fill="#4173CD"/>
<path d="M25.4278 18.9368C25.4278 18.9368 25.3688 19.1373 25.1955 19.2415L25.135 19.2156C25.135 19.2156 25.3199 19.0575 25.3424 18.9218L25.4278 18.9368Z" fill="#4173CD"/>
<path d="M25.1331 18.8316C25.1269 18.8252 25.209 18.8013 25.1894 18.7363C25.1698 18.6712 25.1698 18.6235 25.209 18.5932C25.209 18.5932 25.2133 18.6474 25.2437 18.6821C25.274 18.7168 25.2914 18.8035 25.2416 18.8534C25.2416 18.8534 25.1916 18.8923 25.1331 18.8316Z" fill="#4173CD"/>
<path d="M25.1422 19.4229C25.1319 19.4178 25.1275 19.4051 25.1327 19.3948L25.1588 19.3416C25.1741 19.3104 25.164 19.2715 25.1339 19.2542C25.1008 19.2352 25.0592 19.2483 25.0427 19.282L25.0155 19.3373C25.0104 19.3476 24.9978 19.352 24.9875 19.3468L24.9712 19.38C24.9712 19.38 24.9952 19.3918 25.0242 19.4061L25.0236 19.4073C25.0169 19.4207 25.0225 19.437 25.0359 19.4436C25.0493 19.4502 25.0657 19.4446 25.0722 19.4312L25.0729 19.43C25.1019 19.4442 25.1259 19.4561 25.1259 19.4561L25.1422 19.4229Z" fill="#4173CD"/>
<path d="M25.3522 19.788L25.4171 19.801L25.3629 19.968L25.3081 19.8809L25.3522 19.788Z" fill="#4173CD"/>
<path d="M25.511 19.9716L25.4713 20.0417H25.6273L25.6276 20.0061L25.511 19.9716Z" fill="#4173CD"/>
<path d="M26.2801 19.9197V19.9614H26.1029L26.1886 19.8757L26.2801 19.9197Z" fill="#4173CD"/>
<path d="M26.5607 19.9499L26.4733 20.0375H26.6574L26.6601 20.006L26.5607 19.9499Z" fill="#4173CD"/>
</g>
<defs>
<clipPath id="clip0_11_1293">
<rect width="48" height="32" fill="white"/>
</clipPath>
</defs>
</svg>
