<svg width="48" height="32" viewBox="0 0 48 32" fill="none" xmlns="http://www.w3.org/2000/svg">
<g clip-path="url(#clip0_11_2569)">
<path d="M16 31.7239H0.827625C0.370594 31.7239 0 31.3533 0 30.8963V1.10326C0 0.646228 0.370594 0.275635 0.827625 0.275635H16V31.7239Z" fill="#464655"/>
<path d="M32.0007 0.275986H16.0004V31.7244H32.0007V0.275986Z" fill="#FF4B55"/>
<path d="M47.1724 31.7239H32V0.275635H47.1724C47.6294 0.275635 48 0.646228 48 1.10326V30.8963C48 31.3534 47.6294 31.7239 47.1724 31.7239Z" fill="#73AF00"/>
<path d="M26.1594 17.6224H21.8398L22.0798 17.1424H25.9194L26.1594 17.6224Z" fill="white"/>
<path d="M26.1594 13.7826H21.8398L22.0798 14.2626H25.9194L26.1594 13.7826Z" fill="white"/>
<path d="M25.1997 14.0227H22.7999L23.2799 13.5428H24.7198L25.1997 14.0227Z" fill="white"/>
<path d="M22.7999 16.4225H22.08V16.9025H22.7999V16.4225Z" fill="white"/>
<path d="M22.7999 15.7025H22.08V16.1825H22.7999V15.7025Z" fill="white"/>
<path d="M22.7999 14.5025H22.08V14.9825H22.7999V14.5025Z" fill="white"/>
<path d="M22.7999 15.2225H22.08V15.4625H22.7999V15.2225Z" fill="white"/>
<path d="M25.9196 16.4225H25.1997V16.9025H25.9196V16.4225Z" fill="white"/>
<path d="M25.9196 15.7025H25.1997V16.1825H25.9196V15.7025Z" fill="white"/>
<path d="M25.9196 14.5025H25.1997V14.9825H25.9196V14.5025Z" fill="white"/>
<path d="M25.9196 15.2225H25.1997V15.4625H25.9196V15.2225Z" fill="white"/>
<path d="M22.7999 12.5825H22.3199V13.5424H22.7999V12.5825Z" fill="white"/>
<path d="M22.8 12.3428H22.32V12.1028C22.32 11.9702 22.4275 11.8628 22.56 11.8628C22.6926 11.8628 22.8 11.9702 22.8 12.1028V12.3428Z" fill="white"/>
<path d="M25.6797 12.5825H25.1997V13.5424H25.6797V12.5825Z" fill="white"/>
<path d="M25.6795 12.3428H25.1995V12.1028C25.1995 11.9702 25.3069 11.8628 25.4395 11.8628C25.5721 11.8628 25.6795 11.9702 25.6795 12.1028V12.3428Z" fill="white"/>
<path d="M23.9997 14.5027C23.4695 14.5027 23.0398 14.9324 23.0398 15.4626V16.9025H24.9596V15.4626C24.9596 14.9324 24.5299 14.5027 23.9997 14.5027Z" fill="white"/>
<path d="M22.4112 16.0144L21.1046 14.4901C21.113 14.4655 21.1203 14.4402 21.1203 14.4127C21.1203 14.2801 21.0128 14.1727 20.8803 14.1727C20.7477 14.1727 20.6403 14.2801 20.6403 14.4127C20.6403 14.5452 20.7477 14.6527 20.8803 14.6527C20.8947 14.6527 20.9073 14.6469 20.9209 14.6445L21.0561 14.8023L20.4003 16.3326L21.1202 17.0525L21.7418 15.6022L22.229 16.1706L22.4112 16.0144ZM21.2437 16.5157L20.6693 15.9413L20.9284 15.3365L21.5028 15.9109L21.2437 16.5157Z" fill="white"/>
<path d="M25.7766 16.1705L26.2638 15.6021L26.8855 17.0524L27.6054 16.3325L26.9495 14.8022L27.0847 14.6444C27.0985 14.6469 27.111 14.6526 27.1254 14.6526C27.258 14.6526 27.3654 14.5451 27.3654 14.4126C27.3654 14.28 27.258 14.1726 27.1254 14.1726C26.9928 14.1726 26.8854 14.28 26.8854 14.4126C26.8854 14.4401 26.8925 14.4655 26.9011 14.49L25.5945 16.0143L25.7766 16.1705ZM26.5027 15.911L27.0771 15.3366L27.3362 15.9413L26.7618 16.5158L26.5027 15.911Z" fill="white"/>
<path d="M24.2714 12.1446C24.196 12.1224 24.1287 12.0813 24.0861 12.0153C24.0577 11.9711 24.0288 11.921 23.9998 11.8629C23.9708 11.921 23.9418 11.9711 23.9134 12.0153C23.8708 12.0814 23.8036 12.1225 23.7282 12.1446C23.3306 12.2617 23.0399 12.6273 23.0399 13.0627C23.0399 13.1461 23.0539 13.2256 23.0738 13.3027H24.9257C24.9457 13.2256 24.9597 13.1461 24.9597 13.0627C24.9596 12.6273 24.669 12.2617 24.2714 12.1446Z" fill="white"/>
<path d="M18.5002 15.6743C18.488 15.5251 18.4801 15.3749 18.4801 15.2225C18.4801 14.9143 18.5081 14.6111 18.5576 14.3136C18.6268 14.3615 18.6992 14.4142 18.7745 14.4734C18.7394 14.7195 18.72 14.9694 18.72 15.2225C18.72 15.3999 18.7291 15.5753 18.7463 15.7483L19.2536 15.9006C19.2219 15.6784 19.1999 15.4532 19.1999 15.2225C19.1999 15.1078 19.2068 14.9944 19.2159 14.8815C19.4808 15.1753 19.6899 15.5302 19.6899 15.9225C19.6899 15.9325 20.4599 14.7826 19.06 13.5127L19.0499 14.0526L18.2437 14.0442C18.171 14.0434 18.1071 14.095 18.0944 14.1665C18.0331 14.5114 18.0001 14.8641 18.0001 15.2225C18.0001 15.3244 18.0029 15.4257 18.0078 15.5264L18.5002 15.6743Z" fill="white"/>
<path d="M20.6296 10.8528C20.7345 10.7719 20.7538 10.6212 20.6728 10.5162C20.5916 10.4112 20.441 10.3923 20.3361 10.4731C19.25 11.3119 18.5047 12.4642 18.1819 13.7551L18.6766 13.7614C18.9879 12.619 19.6614 11.6006 20.6296 10.8528Z" fill="white"/>
<path d="M20.3083 11.4513C19.7864 11.9624 19.3914 12.564 19.1226 13.2175C19.271 13.3394 19.3926 13.4626 19.4935 13.5851C19.7354 12.9189 20.1206 12.3072 20.6442 11.7944C20.7389 11.7016 20.7405 11.5497 20.6478 11.4552C20.5547 11.3602 20.403 11.3585 20.3083 11.4513Z" fill="white"/>
<path d="M19.4742 18.3688C19.1183 17.8581 18.8463 17.2855 18.6775 16.6704L18.9565 16.773C19.1308 17.3343 19.3952 17.8563 19.7339 18.3214L20.2636 18.2244C19.9645 17.8527 19.7187 17.4365 19.5392 16.9871L19.8523 17.1021C20.031 17.4945 20.2597 17.8552 20.5324 18.1753L21.0836 18.0743C20.8668 17.8531 20.6773 17.604 20.514 17.3353L20.1947 16.6967C20.096 16.4994 19.9204 16.3517 19.7092 16.2884L18.9538 16.0613L18.7791 16.0089L18.5277 15.9333L18.0275 15.783L17.7605 15.7027L17.9257 16.1985C17.962 16.3073 18.0354 16.3982 18.1308 16.4578C18.2836 17.183 18.5668 17.8605 18.9558 18.464L19.4742 18.3688Z" fill="white"/>
<path d="M28.9491 14.0526L28.9391 13.5127C27.5392 14.7826 28.3091 15.9325 28.3091 15.9225C28.3091 15.5302 28.5182 15.1753 28.7831 14.8815C28.7922 14.9944 28.7991 15.1079 28.7991 15.2225C28.7991 15.4533 28.7771 15.6785 28.7455 15.9006L29.2527 15.7483C29.2699 15.5753 29.279 15.4 29.279 15.2225C29.279 14.9693 29.2597 14.7194 29.2244 14.4734C29.2997 14.4143 29.3723 14.3615 29.4414 14.3136C29.491 14.611 29.5188 14.9144 29.5188 15.2225C29.5188 15.3748 29.5109 15.5251 29.4987 15.6743L29.991 15.5264C29.9961 15.4257 29.9987 15.3244 29.9987 15.2225C29.9987 14.8641 29.9656 14.5114 29.9044 14.1665C29.8916 14.0949 29.8277 14.0434 29.7551 14.0442L28.9491 14.0526Z" fill="white"/>
<path d="M29.3228 13.7615L29.8175 13.7551C29.4946 12.4643 28.7494 11.3119 27.6633 10.4731C27.5584 10.3922 27.4079 10.4113 27.3266 10.5163C27.2456 10.6213 27.2649 10.772 27.3698 10.8528C28.338 11.6006 29.0115 12.619 29.3228 13.7615Z" fill="white"/>
<path d="M28.8769 13.2175C28.608 12.564 28.2131 11.9624 27.6912 11.4513C27.5965 11.3585 27.4448 11.3602 27.3519 11.4551C27.2591 11.5497 27.2607 11.7016 27.3554 11.7943C27.879 12.3071 28.2643 12.9187 28.5061 13.5851C28.6069 13.4626 28.7284 13.3394 28.8769 13.2175Z" fill="white"/>
<path d="M29.972 15.7827L29.4718 15.933L29.2204 16.0086L29.0457 16.061L28.2903 16.2881C28.079 16.3515 27.9034 16.4992 27.8048 16.6964L27.4855 17.335C27.3223 17.6037 27.1326 17.8528 26.9159 18.074L27.467 18.175C27.7398 17.8549 27.9686 17.4943 28.1472 17.1018L28.4603 16.9868C28.2807 17.4362 28.0349 17.8525 27.7359 18.2241L28.2656 18.3211C28.6044 17.8559 28.8687 17.334 29.043 16.7727L29.322 16.6701C29.1531 17.2852 28.8812 17.8579 28.5253 18.3685L29.0436 18.4634C29.4327 17.8597 29.7158 17.1823 29.8686 16.4572C29.9641 16.3975 30.0375 16.3066 30.0738 16.1979L30.239 15.7021L29.972 15.7827Z" fill="white"/>
<path d="M26.5009 18.4359L26.4886 18.4469C25.7904 18.9858 24.9233 19.3021 24.0001 19.3021C23.0768 19.3021 22.2097 18.9858 21.5116 18.4469L21.4992 18.4359C21.4085 18.3363 21.2723 18.2916 21.1403 18.3183L18.7206 18.8222L19.2575 19.2928C19.4012 19.4187 19.5857 19.4774 19.7691 19.4666C20.2012 19.8969 20.6975 20.2627 21.2432 20.5468L21.086 20.837C21.9529 21.3083 22.9458 21.5764 24.0001 21.5764C25.0544 21.5764 26.0472 21.3083 26.9142 20.837L26.757 20.5468C27.3027 20.2627 27.7989 19.8968 28.231 19.4666C28.4145 19.4774 28.5991 19.4186 28.7427 19.2928L29.2796 18.8222L26.8599 18.3183C26.7278 18.2916 26.5915 18.3364 26.5009 18.4359ZM21.4725 20.1232C21.0375 19.8968 20.6392 19.611 20.2808 19.2822L20.5138 19.1711C20.8392 19.4591 21.1971 19.7113 21.5861 19.9132L21.4725 20.1232ZM27.7189 19.2824C27.3606 19.6111 26.9623 19.8968 26.5273 20.1233L26.4136 19.9134C26.8025 19.7116 27.1604 19.4594 27.4859 19.1714L27.7189 19.2824ZM23.9999 20.022C22.8569 20.022 21.8096 19.6164 20.985 18.9464L21.2244 18.8322C22.003 19.4319 22.9705 19.782 23.9997 19.782C25.0289 19.782 25.9965 19.4319 26.775 18.8322L27.0144 18.9464C26.1904 19.6166 25.1429 20.022 23.9999 20.022Z" fill="white"/>
<path d="M21.3665 18.0958C21.4696 18.183 21.5764 18.2655 21.6878 18.3421H26.3117C26.4231 18.2654 26.53 18.183 26.633 18.0958L26.3996 17.8623H21.6002L21.3665 18.0958Z" fill="white"/>
</g>
<defs>
<clipPath id="clip0_11_2569">
<rect width="48" height="32" fill="white"/>
</clipPath>
</defs>
</svg>
