<svg width="48" height="32" viewBox="0 0 48 32" fill="none" xmlns="http://www.w3.org/2000/svg">
<g clip-path="url(#clip0_11_1800)">
<path d="M47.1723 0.275848H0.827623C0.370593 0.275848 0 0.646441 0 1.10347V30.8964C0 31.3534 0.370593 31.724 0.827623 31.724H47.1724C47.6294 31.724 48 31.3534 48 30.8964V1.10347C47.9999 0.646441 47.6293 0.275848 47.1723 0.275848Z" fill="#464655"/>
<path d="M23.9997 1.93097L25.0492 7.41365L28.1168 2.74997L26.9883 8.2169L31.6072 5.08209L28.4725 9.70105L33.9394 8.57249L29.2756 11.6402L34.7583 12.6896L29.2756 13.739L33.9394 16.8067L28.4725 15.6782L31.6072 20.297L26.9883 17.1623L28.1168 22.6293L25.0492 17.9656L23.9997 23.4481L22.9503 17.9656L19.8825 22.6293L21.0112 17.1623L16.3922 20.297L19.527 15.6782L14.0601 16.8067L18.7238 13.739L13.2411 12.6896L18.7238 11.6402L14.0601 8.57249L19.527 9.70105L16.3922 5.08209L21.0112 8.2169L19.8825 2.74997L22.9503 7.41365L23.9997 1.93097Z" fill="#FFE15A"/>
<path d="M0 1.10439V30.8973C0 31.3544 0.370593 31.725 0.827623 31.725H24L0.215437 0.559235C0.0853123 0.705391 0 0.893265 0 1.10439Z" fill="#FF4B55"/>
<path d="M23.9998 31.724H47.1721C47.6292 31.724 47.9998 31.3535 47.9998 30.8964V1.10348C47.9998 0.892351 47.9145 0.704477 47.7843 0.558228L23.9998 31.724Z" fill="#FF4B55"/>
<path d="M14.5265 19.3102H33.4738L38.5263 12.6896H9.47382L14.5265 19.3102Z" fill="#4173CD"/>
<path d="M14.5265 19.3103L24.0001 31.7241L33.4738 19.3103H14.5265Z" fill="white"/>
</g>
<defs>
<clipPath id="clip0_11_1800">
<rect width="48" height="32" fill="white"/>
</clipPath>
</defs>
</svg>
