<svg width="48" height="32" viewBox="0 0 48 32" fill="none" xmlns="http://www.w3.org/2000/svg">
<g clip-path="url(#clip0_11_1081)">
<path d="M47.1723 31.7242H0.827623C0.370593 31.7242 0 31.3536 0 30.8966V1.10362C0 0.646594 0.370593 0.276001 0.827623 0.276001H47.1724C47.6294 0.276001 48 0.646594 48 1.10362V30.8966C47.9999 31.3537 47.6293 31.7242 47.1723 31.7242Z" fill="#41479B"/>
<path d="M23.1723 0.276001H21.7349L14.0689 5.29846V0.276001H9.93101V5.29846L2.26509 0.276001H0.827623C0.370593 0.276001 0 0.646594 0 1.10362V1.76006L6.57702 6.06908H0V10.207H6.57702L0 14.5161V15.1725C0 15.6295 0.370593 16.0001 0.827623 16.0001H2.26509L9.93101 10.9776V16.0001H14.0689V10.9776L21.7348 16.0001H23.1722C23.6293 16.0001 23.9999 15.6295 23.9999 15.1725V14.516L17.4229 10.207H23.9999V6.06908H17.4228L23.9999 1.76006V1.10362C23.9999 0.646594 23.6295 0.276001 23.1723 0.276001Z" fill="white"/>
<path d="M23.9999 6.89671H13.2413V0.276001H10.7585V6.89671H0V9.37939H10.7585V16.0001H13.2413V9.37939H23.9999V6.89671Z" fill="#FF4B55"/>
<path d="M9.10339 6.06909L0.394405 0.415894C0.162656 0.562612 0 0.808986 0 1.10364V1.14658L7.58333 6.06909H9.10339Z" fill="#FF4B55"/>
<path d="M15.5892 6.06908L23.8742 0.691032C23.7302 0.447376 23.4761 0.276001 23.1725 0.276001H22.9935L14.0691 6.06908H15.5892Z" fill="#FF4B55"/>
<path d="M8.38813 10.2071L0.118927 15.5748C0.26152 15.8244 0.51952 16.0002 0.827582 16.0002H0.983675L9.90819 10.2071H8.38813Z" fill="#FF4B55"/>
<path d="M23.9867 15.2377L16.2368 10.2072H14.7169L23.5174 15.9198C23.7812 15.7974 23.9619 15.541 23.9867 15.2377Z" fill="#FF4B55"/>
<path d="M30.807 10.0621C30.6961 11.5412 30.2371 20.9414 36.201 23.0663C42.1672 20.9408 41.7062 11.5411 41.595 10.0621C40.8724 10.3453 38.2567 11.2038 36.201 9.74078C34.1456 11.2037 31.5301 10.3457 30.807 10.0621Z" fill="white"/>
<path d="M39.1314 11.9586C38.8044 11.7044 38.199 12.1766 37.5207 12.1282C36.8918 12.0833 36.1167 11.4464 35.1091 11.721C34.8308 11.4647 34.9655 10.8689 34.9655 10.8689C34.266 11.3211 34.2159 11.94 34.2599 12.2757C33.7611 12.9348 33.7948 13.9405 33.8878 14.2475C34.0088 14.6471 34.2389 14.6955 34.2753 15.1435C34.3116 15.5915 34.4812 15.4341 34.4812 15.4341C34.8314 15.2377 34.8824 14.8671 35.0296 14.2608C35.5987 14.3334 35.9706 13.8237 35.9706 13.8237C35.5973 13.9408 35.3618 13.735 35.2334 13.5538C35.2535 13.4939 35.2695 13.4387 35.2925 13.3757C35.7163 12.2131 37.7444 12.5328 37.9324 12.8549C38.2715 13.4361 38.7195 13.6541 38.7195 13.6541C38.7195 13.0481 38.2715 12.5159 38.2715 12.5159C38.9497 12.3946 39.1314 11.9586 39.1314 11.9586ZM34.2513 14.4531C34.1844 14.4531 34.1302 14.399 34.1302 14.3321C34.1302 14.2653 34.1844 14.2111 34.2513 14.2111C34.3182 14.2111 34.3724 14.2653 34.3724 14.3321C34.3724 14.399 34.3182 14.4531 34.2513 14.4531Z" fill="#FFA028"/>
<path d="M37.1344 19.3975C37.5292 19.2725 37.484 18.506 37.9085 17.9751C38.3024 17.4827 39.2666 17.2058 39.6122 16.2203C39.9812 16.1365 40.3953 16.5854 40.3953 16.5854C40.4198 15.7528 39.9385 15.3605 39.6371 15.2062C39.3773 14.4215 38.5301 13.8786 38.2245 13.7811C37.8267 13.6541 37.6564 13.8161 37.2667 13.5918C36.8771 13.3676 36.9106 13.5965 36.9106 13.5965C36.8736 13.9964 37.1498 14.2485 37.5657 14.7139C37.183 15.1412 37.3918 15.7368 37.3918 15.7368C37.5071 15.3628 37.8102 15.2858 38.0324 15.2829C38.0704 15.3333 38.1067 15.3779 38.1455 15.4326C38.8625 16.4411 37.4486 17.9299 37.0766 17.9019C36.4055 17.8513 35.9719 18.0967 35.9719 18.0967C36.4709 18.4405 37.1634 18.3735 37.1634 18.3735C36.8784 19.0006 37.1344 19.3975 37.1344 19.3975ZM37.8488 13.9635C37.8868 13.9085 37.9622 13.8945 38.0172 13.9325C38.0722 13.9705 38.0862 14.0458 38.0482 14.1009C38.0103 14.1559 37.9349 14.1699 37.8799 14.1319C37.8247 14.0939 37.8109 14.0187 37.8488 13.9635Z" fill="#FFA028"/>
<path d="M31.7954 14.0149C31.7426 14.4257 32.4571 14.7071 32.76 15.3158C33.041 15.8801 32.8864 16.8715 33.635 17.5996C33.5558 17.9696 32.9742 18.1564 32.9742 18.1564C33.7191 18.529 34.2776 18.2575 34.5444 18.049C35.3655 18.1436 36.2145 17.6034 36.4316 17.3673C36.7142 17.06 36.6389 16.8371 37.0063 16.5781C37.3737 16.3191 37.152 16.2531 37.152 16.2531C36.8048 16.0512 36.4599 16.1958 35.8627 16.3771C35.636 15.8501 35.008 15.7889 35.008 15.7889C35.2987 16.051 35.241 16.3583 35.1502 16.561C35.0884 16.5741 35.0326 16.5883 34.9668 16.6007C33.7502 16.8265 32.9947 14.9175 33.1767 14.5919C33.5049 14.0045 33.4648 13.5078 33.4648 13.5078C32.9429 13.8158 32.7122 14.4722 32.7122 14.4722C32.2633 13.9497 31.7954 14.0149 31.7954 14.0149ZM36.4241 16.9498C36.4582 17.0075 36.4391 17.0817 36.3814 17.1157C36.3237 17.1497 36.2496 17.1306 36.2156 17.0729C36.1815 17.0153 36.2006 16.9411 36.2583 16.9071C36.3159 16.873 36.3902 16.8922 36.4241 16.9498Z" fill="#FFA028"/>
<path d="M36.201 23.3742L36.1533 23.3578C29.4376 21.0217 30.5229 9.94811 30.5345 9.83627L30.5555 9.63621L30.7391 9.71936C30.7708 9.7338 33.8864 11.1157 36.1139 9.44458L36.2009 9.37933L36.288 9.44458C38.5187 11.1179 41.6317 9.73352 41.6627 9.71936L41.8464 9.63593L41.8674 9.83627C41.8792 9.94811 42.9643 21.0217 36.2486 23.3578L36.201 23.3742ZM30.8071 10.062C30.6961 11.5412 30.2371 20.9413 36.201 23.0662C42.1672 20.9407 41.7062 11.541 41.595 10.062C40.8724 10.3452 38.2567 11.2038 36.201 9.74074C34.1456 11.2036 31.5301 10.3456 30.8071 10.062Z" fill="#CDCE0C"/>
<path d="M32.4604 19.7329C33.275 21.2101 34.4642 22.4476 36.2008 23.0663C37.9379 22.4474 39.1275 21.21 39.9421 19.7329H32.4604Z" fill="#82AFFF"/>
</g>
<defs>
<clipPath id="clip0_11_1081">
<rect width="48" height="32" fill="white"/>
</clipPath>
</defs>
</svg>
