<svg width="48" height="32" viewBox="0 0 48 32" fill="none" xmlns="http://www.w3.org/2000/svg">
<g clip-path="url(#clip0_11_2456)">
<path d="M47.1723 31.724H0.827623C0.370593 31.724 0 31.3534 0 30.8964V1.10347C0 0.646441 0.370593 0.275848 0.827623 0.275848H47.1724C47.6294 0.275848 48 0.646441 48 1.10347V30.8964C47.9999 31.3535 47.6293 31.724 47.1723 31.724Z" fill="#FF4B55"/>
<path d="M33.0515 19.9181C32.5989 19.6336 32.3274 20.0862 32.3274 20.0862L31.0084 20.2413L31.6678 19.6853C32.1462 19.7241 32.2109 19.5819 32.3402 19.3879C32.4695 19.1939 33.0126 19.2845 33.0126 19.2845C32.9349 18.6897 32.1849 19.0259 32.1849 19.0259C31.5772 18.9612 31.4738 19.4526 31.4738 19.4526L30.5298 20.1767L28.4524 19.5612C28.6678 19.3238 28.837 19.0899 28.8617 18.9482C28.903 18.7104 27.3273 18.3103 26.8445 17.8103C26.3618 17.3102 26.1894 16.5172 26.4135 16.3103C26.6376 16.1034 26.8273 16.6895 27.0686 17.1723C27.31 17.6551 27.7584 18.0344 28.0514 17.793C28.3445 17.5517 27.7411 17.1897 27.4652 16.6724C27.1894 16.1551 27.6721 15.9654 27.8963 16.0171C28.1204 16.0689 28.2583 17.1379 28.7929 17.6895C29.3273 18.2413 29.8101 18.1378 29.8618 17.793C29.9136 17.4481 28.9797 17.0233 28.79 16.7301C28.6003 16.437 28.5514 15.8619 28.8618 15.8447C29.1721 15.8275 30.31 17.5234 31.2757 18.1724C32.3274 18.8792 33.1721 18.0516 33.0343 17.7068C32.8964 17.3619 32.2584 17.4999 31.5171 17.3101C30.7757 17.1205 30.0171 16.1205 29.7929 15.5688C29.5688 15.0171 29.7541 15.0171 29.8835 15.0689C30.0128 15.1206 30.5042 15.8447 31.4482 16.4008C32.3921 16.9568 33.0516 16.4266 33.1292 16.2974C33.2068 16.1681 33.505 15.5876 32.5344 15.7241C31.431 15.8792 30.8016 15.2241 30.349 14.875C29.8964 14.5259 29.7154 14.0474 29.9223 13.8534C30.1292 13.6594 30.8102 14.5344 31.8446 14.8103C32.7949 15.0636 33.1809 14.6551 33.1549 14.2801C33.129 13.9051 32.9092 14.0603 31.8359 13.9569C30.7627 13.8535 30.0127 12.8448 29.9739 12.7801C29.935 12.7155 29.948 12.3534 30.4911 12.7025C31.0342 13.0516 32.004 13.2586 32.573 13.2327C33.1419 13.2068 33.2583 12.4439 32.9868 12.3146C32.7153 12.1853 32.6506 12.3793 32.0299 12.5086C31.4092 12.6378 30.2454 12.0043 29.9609 11.7068C29.6764 11.4093 29.9868 11.2155 30.129 11.2412C30.2712 11.267 31.2023 11.8102 32.0299 11.7843C32.8575 11.7585 33.2066 10.9955 33.1808 10.7627C33.1549 10.53 32.9221 10.336 32.573 10.5688C32.2239 10.8016 31.7583 11.0731 30.9825 10.9438C30.2066 10.8145 29.8446 10.2972 29.9481 10.1033C30.0515 9.90934 30.8015 10.2455 31.9912 10.1162C33.1809 9.98697 33.2325 8.9395 33.1162 8.73259C32.9998 8.52569 32.7153 8.59038 32.3144 8.96537C31.9135 9.34037 31.1377 9.418 30.53 9.418C29.9222 9.418 29.9093 9.12062 29.9998 8.91372C30.0904 8.70681 30.7369 8.75856 31.642 8.47403C32.5472 8.1896 33.0644 7.46538 33.2067 7.01285C33.349 6.56032 32.9998 6.2111 32.8576 6.2111C32.7154 6.2111 32.8059 6.00419 32.1852 6.89641C31.5645 7.78863 29.9352 8.13775 29.9352 8.13775C29.8189 7.91791 29.6379 7.84038 29.6379 7.84038C28.5387 8.06022 27.2129 9.00925 27.2129 9.00925C27.2129 9.00925 27.4466 9.75887 27.1546 10.3431C26.7786 11.0952 25.4897 10.6254 25.8402 9.43769C26.1321 8.44863 27.2617 7.85069 28.216 7.74353C29.1701 7.63647 29.2188 7.27619 29.2188 7.27619C29.2188 7.27619 28.2168 7.60244 28.1989 7.1546C28.4058 7.1966 28.7108 7.21488 29.2285 7.16903C29.9978 7.10097 30.4262 6.55563 30.0854 6.43882C29.7446 6.322 29.8907 6.67253 29.3065 6.94516C28.8897 7.1396 28.4524 7.05203 28.2335 6.98556C28.4357 6.544 29.287 6.76985 29.287 6.76985C29.2967 6.00063 28.276 6.27578 28.276 6.27578C27.8278 5.31016 25.2071 6.43094 25.2071 6.43094L25.8278 6.93091C24.3105 7.77569 24.0001 9.37909 24.0001 9.37909C24.0001 9.37909 23.6898 7.77569 22.1725 6.93081L22.7932 6.43085C22.7932 6.43085 20.1724 5.31007 19.7242 6.27569C19.7242 6.27569 18.7034 6.00063 18.7133 6.76975C18.7133 6.76975 19.5645 6.54391 19.7668 6.98547C19.5479 7.05203 19.1106 7.1395 18.6939 6.94507C18.1097 6.67235 18.2558 6.322 17.9149 6.43872C17.5741 6.55554 18.0026 7.10078 18.7718 7.16894C19.2896 7.21478 19.5945 7.1966 19.8014 7.1545C19.7835 7.60235 18.7815 7.2761 18.7815 7.2761C18.7815 7.2761 18.8303 7.63628 19.7844 7.74344C20.7386 7.85059 21.8682 8.44853 22.1601 9.43759C22.5105 10.6254 21.2218 11.095 20.8457 10.343C20.5536 9.75887 20.7874 9.00916 20.7874 9.00916C20.7874 9.00916 19.4616 8.06013 18.3625 7.84028C18.3625 7.84028 18.1814 7.91791 18.0651 8.13766C18.0651 8.13766 16.4358 7.78853 15.8151 6.89632C15.1944 6.0041 15.285 6.211 15.1427 6.211C15.0005 6.211 14.6514 6.56013 14.7936 7.01275C14.9358 7.46538 15.453 8.1895 16.3583 8.47394C17.2635 8.75837 17.91 8.70672 18.0005 8.91362C18.0911 9.12053 18.0781 9.4179 17.4704 9.4179C16.8626 9.4179 16.0867 9.34028 15.6859 8.96528C15.285 8.59028 15.0006 8.52559 14.8842 8.7325C14.7678 8.93941 14.8195 9.98678 16.0092 10.1162C17.1989 10.2454 17.9489 9.90925 18.0523 10.1032C18.1557 10.2972 17.7936 10.8144 17.0178 10.9437C16.2419 11.073 15.7765 10.8015 15.4274 10.5687C15.0782 10.3359 14.8455 10.5299 14.8196 10.7627C14.7937 10.9954 15.1428 11.7584 15.9704 11.7842C16.7981 11.8101 17.7291 11.267 17.8713 11.2412C18.0135 11.2153 18.3239 11.4092 18.0394 11.7066C17.755 12.004 16.5912 12.6376 15.9704 12.5084C15.3497 12.3791 15.2851 12.1851 15.0135 12.3144C14.742 12.4437 14.8584 13.2066 15.4274 13.2325C15.9963 13.2584 16.9662 13.0515 17.5093 12.7023C18.0524 12.3532 18.0653 12.7153 18.0265 12.78C17.9877 12.8446 17.2377 13.8532 16.1644 13.9567C15.0912 14.0601 14.8713 13.905 14.8455 14.28C14.8196 14.655 15.2055 15.0635 16.1558 14.8101C17.1902 14.5342 17.8714 13.6592 18.0782 13.8532C18.2851 14.0472 18.1041 14.5256 17.6515 14.8748C17.1989 15.2239 16.5695 15.879 15.4662 15.7239C14.4955 15.5875 14.7938 16.1679 14.8713 16.2972C14.9489 16.4265 15.6084 16.9566 16.5524 16.4006C17.4963 15.8446 17.9877 15.1204 18.117 15.0687C18.2463 15.0169 18.4318 15.0169 18.2076 15.5686C17.9834 16.1204 17.2248 17.1204 16.4834 17.31C15.7421 17.4997 15.1041 17.3617 14.9662 17.7066C14.8283 18.0514 15.6731 18.879 16.7249 18.1721C17.6905 17.5231 18.8283 15.8272 19.1387 15.8445C19.449 15.8616 19.4001 16.4368 19.2105 16.7298C19.0208 17.023 18.0869 17.4479 18.1387 17.7927C18.1904 18.1375 18.6731 18.2409 19.2076 17.6893C19.7421 17.1375 19.88 16.0685 20.1043 16.0169C20.3283 15.9651 20.8111 16.1549 20.5352 16.6721C20.2594 17.1893 19.6559 17.5514 19.9491 17.7928C20.2422 18.0341 20.6905 17.6549 20.9319 17.172C21.1732 16.6892 21.3628 16.1031 21.587 16.31C21.8112 16.5169 21.6387 17.31 21.1559 17.81C20.6732 18.31 19.0973 18.7101 19.1387 18.948C19.1634 19.0896 19.3325 19.3234 19.548 19.5609L17.4706 20.1764L16.5267 19.4522C16.5267 19.4522 16.4233 18.9609 15.8155 19.0255C15.8155 19.0255 15.0655 18.6893 14.9879 19.2841C14.9879 19.2841 15.531 19.1936 15.6602 19.3875C15.7895 19.5815 15.8542 19.7237 16.3326 19.6849L16.9919 20.241L15.673 20.0859C15.673 20.0859 15.4014 19.6333 14.9489 19.9178C14.9489 19.9178 14.3799 19.7368 14.2377 20.2799C14.2377 20.2799 14.729 20.1893 14.8584 20.254C14.8584 20.254 15.0524 20.6937 15.6731 20.435L16.9791 20.4997L16.242 20.8618C16.242 20.8618 15.311 20.5644 15.3498 21.3402C15.3498 21.3402 15.0782 21.6505 15.324 21.9609C15.324 21.9609 15.3757 21.6247 15.6213 21.4825C15.6213 21.4825 16.0997 21.6764 16.4101 21.1075L17.3541 20.5385L18.2851 20.9911C18.2851 20.9911 18.2593 21.4954 18.9446 21.2885C18.9446 21.2885 19.1773 21.4437 19.2419 21.6506C19.2419 21.6506 19.5393 21.3273 19.0609 20.9523C19.0609 20.9523 18.9446 20.5126 18.3756 20.6807L17.8454 20.4091L19.8072 19.827C20.1468 20.1505 20.5133 20.4157 20.6415 20.3713C20.8947 20.2836 21.0895 20.0208 21.2646 19.6508C21.4398 19.2808 22.2285 17.9956 22.618 18.0055C23.0074 18.0152 23.1827 18.3267 23.0853 18.8818C22.988 19.4367 22.229 20.4998 21.7376 20.7196C21.2462 20.9395 21.1686 21.0429 20.716 21.0041C20.2633 20.9653 20.1082 21.1592 20.2117 21.4179C20.3151 21.6765 20.8243 21.841 21.3238 21.6507C21.8668 21.4438 22.0737 21.1593 22.2807 21.3274C22.4876 21.4955 22.0608 22.1033 21.4789 22.2843C20.897 22.4653 20.4573 22.349 20.5479 22.7111C20.6384 23.0731 21.2591 23.099 21.6599 22.8662C22.0608 22.6334 22.5133 21.9869 22.6298 22.1938C22.7461 22.4008 22.6686 22.9309 22.2807 23.2154C21.8927 23.4999 21.4514 23.3325 21.3626 23.5904C21.2333 23.9654 21.6858 24.2112 22.0349 24.0688C22.3841 23.9266 22.7849 23.4869 22.966 23.099C23.147 22.7111 23.4832 23.0473 23.3798 23.4093C23.2764 23.7714 23.3625 24.0688 22.6211 24.6377L24.0004 26.7583L25.3797 24.6376C24.6384 24.0687 24.7246 23.7713 24.621 23.4092C24.5176 23.0472 24.8538 22.711 25.0348 23.0989C25.2159 23.4868 25.6167 23.9265 25.9659 24.0688C26.315 24.211 26.7676 23.9653 26.6382 23.5903C26.5494 23.3324 26.1081 23.4998 25.7201 23.2153C25.3322 22.9309 25.2546 22.4007 25.371 22.1938C25.4874 21.9868 25.94 22.6334 26.3409 22.8661C26.7417 23.0989 27.3625 23.073 27.4529 22.711C27.5434 22.3489 27.1038 22.4653 26.5219 22.2842C25.94 22.1032 25.5132 21.4954 25.7201 21.3273C25.9271 21.1592 26.134 21.4437 26.6771 21.6506C27.1766 21.8409 27.6857 21.6764 27.7891 21.4178C27.8925 21.1591 27.7374 20.9652 27.2848 21.004C26.8322 21.0428 26.7547 20.9393 26.2632 20.7195C25.7718 20.4998 25.0129 19.4367 24.9155 18.8817C24.8181 18.3267 24.9934 18.015 25.3828 18.0054C25.7723 17.9955 26.5609 19.2807 26.7362 19.6507C26.9114 20.0207 27.1061 20.2836 27.3593 20.3713C27.4876 20.4157 27.8542 20.1505 28.1936 19.827L30.1554 20.4091L29.6252 20.6807C29.0562 20.5126 28.9399 20.9523 28.9399 20.9523C28.4615 21.3273 28.7589 21.6506 28.7589 21.6506C28.8235 21.4437 29.0562 21.2885 29.0562 21.2885C29.7415 21.4954 29.7157 20.9911 29.7157 20.9911L30.6467 20.5385L31.5907 21.1075C31.901 21.6764 32.3795 21.4825 32.3795 21.4825C32.6252 21.6247 32.6769 21.9609 32.6769 21.9609C32.9226 21.6506 32.651 21.3402 32.651 21.3402C32.6898 20.5644 31.7588 20.8619 31.7588 20.8619L31.0213 20.5L32.3274 20.4353C32.9481 20.6939 33.142 20.2543 33.142 20.2543C33.2713 20.1896 33.7628 20.2801 33.7628 20.2801C33.6204 19.737 33.0515 19.9181 33.0515 19.9181Z" fill="#464655"/>
</g>
<defs>
<clipPath id="clip0_11_2456">
<rect width="48" height="32" fill="white"/>
</clipPath>
</defs>
</svg>
