<svg width="48" height="32" viewBox="0 0 48 32" fill="none" xmlns="http://www.w3.org/2000/svg">
<g clip-path="url(#clip0_11_2670)">
<path d="M47.9999 16H0V1.10349C0 0.646456 0.370593 0.275864 0.827623 0.275864H47.1724C47.6294 0.275864 48 0.646456 48 1.10349L47.9999 16Z" fill="#FF4B55"/>
<path d="M0 16H47.9999V30.8964C47.9999 31.3535 47.6293 31.7241 47.1723 31.7241H0.827623C0.370593 31.7241 0 31.3535 0 30.8964V16Z" fill="#464655"/>
<path d="M22.1158 9.08988L22.6816 10.7864L24.47 10.8003C24.6086 10.8013 24.666 10.9782 24.5546 11.0604L23.1159 12.1228L23.6553 13.8279C23.6971 13.96 23.5467 14.0692 23.434 13.9888L21.979 12.9488L20.524 13.9888C20.4112 14.0694 20.2608 13.96 20.3026 13.8279L20.8421 12.1228L19.4034 11.0604C19.292 10.9781 19.3494 10.8013 19.488 10.8003L21.2763 10.7864L21.8422 9.08988C21.8861 8.95854 22.072 8.95854 22.1158 9.08988Z" fill="#FFE15A"/>
<path d="M29.7644 23.4947C29.7644 23.4947 19.5264 15.7712 19.2241 15.5173C18.757 15.125 18.3965 14.4311 18.3792 13.5862C18.3792 13.5862 17.2751 14.7172 17.4913 15.888C17.7414 17.2414 18.5172 17.7242 19.5173 18.3793C20.22 18.8397 25.8067 22.3632 29.068 24.4186L29.7644 23.4947Z" fill="#FFE15A"/>
<path d="M32.8274 25.7585C32.694 25.6632 31.6217 24.8707 30.134 23.7684L29.5941 24.7502C30.6864 25.4384 31.4137 25.8965 31.4137 25.8965C31.4137 25.8965 31.5171 27.2413 32.6034 27.0171C32.9949 26.9363 33.3102 26.1034 32.8274 25.7585Z" fill="#FFE15A"/>
<path d="M23.9871 22.1924C23.2131 22.4648 22.3842 22.6206 21.5171 22.6206C19.3195 22.6206 17.3504 21.6632 15.9871 20.1493L14.7751 21.2401C15.1813 21.6912 15.6151 22.1164 16.104 22.4792L15.8627 22.8972L17.6545 23.9317L17.8916 23.5207C18.7011 23.8728 19.5713 24.1097 20.4827 24.2129V24.6895H22.5517V24.2129C23.4631 24.1097 24.3333 23.8728 25.1427 23.5207L25.3799 23.9317L26.092 23.5206C25.3966 23.0821 24.6843 22.6328 23.9871 22.1924Z" fill="#FFE15A"/>
<path d="M30.5578 14.1379C30.4546 13.2264 30.2177 12.3562 29.8656 11.5469L30.2766 11.3097L29.2421 9.51788L28.8241 9.75919C28.289 9.03816 27.6514 8.40057 26.9303 7.86544L27.1716 7.44741L25.3798 6.41298L25.1426 6.82388C24.4712 6.53185 23.7563 6.32448 23.0124 6.20148L22.7405 7.8331C26.2707 8.41782 28.9655 11.4764 28.9655 15.1724C28.9655 17.1625 28.1801 18.9659 26.9084 20.3021C27.3483 20.6343 27.7849 20.9639 28.2165 21.2898C28.4256 21.0608 28.6387 20.8354 28.8242 20.5856L29.2422 20.8269L30.2766 19.0352L29.8657 18.798C30.2178 17.9885 30.4547 17.1184 30.5579 16.207H31.0343V14.1381H30.5577L30.5578 14.1379Z" fill="#FFE15A"/>
</g>
<defs>
<clipPath id="clip0_11_2670">
<rect width="48" height="32" fill="white"/>
</clipPath>
</defs>
</svg>
