<svg width="48" height="32" viewBox="0 0 48 32" fill="none" xmlns="http://www.w3.org/2000/svg">
<g clip-path="url(#clip0_11_4047)">
<path d="M47.9999 10.7588H0V1.10359C0 0.646563 0.370593 0.27597 0.827623 0.27597H47.1724C47.6294 0.27597 48 0.646563 48 1.10359L47.9999 10.7588Z" fill="#82AFFF"/>
<path d="M47.1723 31.7244H0.827623C0.370593 31.7244 0 31.3538 0 30.8968V21.2417H47.9999V30.8968C47.9999 31.3539 47.6293 31.7244 47.1723 31.7244Z" fill="#82AFFF"/>
<path d="M47.9999 10.7587H0V21.2408H47.9999V10.7587Z" fill="white"/>
<path d="M28.1378 15.7933H25.158C25.2136 15.7511 25.2576 15.7096 25.2973 15.6704C25.3701 15.5992 25.4279 15.5427 25.5814 15.4796C25.7357 15.4149 25.8165 15.4142 25.9188 15.4126C26.042 15.4117 26.1815 15.4094 26.4094 15.3156C26.6369 15.221 26.7363 15.1239 26.8241 15.0383C26.8968 14.9672 26.9547 14.9106 27.1085 14.8467C27.2616 14.7829 27.3421 14.782 27.4438 14.7813C27.5667 14.7796 27.7061 14.7781 27.934 14.6835L27.7748 14.3019C27.6217 14.3658 27.5411 14.3666 27.4394 14.3674C27.3165 14.3691 27.1772 14.3706 26.9497 14.4644C26.7222 14.559 26.6228 14.656 26.535 14.7416C26.4623 14.8128 26.4044 14.8693 26.251 14.9324C26.0967 14.9971 26.0158 14.9978 25.9136 14.9994C25.7904 15.0003 25.6509 15.0026 25.423 15.0972C25.1955 15.191 25.0961 15.2888 25.0083 15.3744C24.9367 15.4441 24.8775 15.4999 24.7303 15.5621L27.0721 13.2205L26.7795 12.9279L24.6716 15.0357C24.6808 14.9668 24.6834 14.9055 24.6839 14.8499C24.6852 14.7472 24.686 14.6672 24.7498 14.5129C24.8137 14.3586 24.8702 14.3011 24.9415 14.2284C25.0279 14.1403 25.1253 14.0402 25.2198 13.8123C25.3139 13.5844 25.3156 13.4453 25.3168 13.3225C25.3181 13.2207 25.3189 13.1398 25.3823 12.9863C25.4461 12.8328 25.5023 12.7754 25.5734 12.7026C25.6595 12.6145 25.7568 12.5151 25.8511 12.288L25.4689 12.1297C25.4051 12.2832 25.3489 12.3406 25.2778 12.4133C25.1917 12.5015 25.0944 12.6009 25.0001 12.828C24.9059 13.0559 24.9043 13.1949 24.903 13.3177C24.9018 13.4196 24.901 13.5005 24.8376 13.6539C24.7738 13.8082 24.7172 13.8657 24.646 13.9384C24.5595 14.0265 24.4621 14.1266 24.3676 14.3545C24.2735 14.5824 24.2718 14.7223 24.2703 14.8451C24.2695 14.9448 24.2667 15.0253 24.2069 15.1732V11.8622H23.7931V14.8418C23.7509 14.7866 23.7095 14.7427 23.6707 14.703C23.5993 14.6302 23.543 14.572 23.4791 14.4186C23.4152 14.2642 23.414 14.1834 23.4128 14.0807C23.4116 13.9578 23.41 13.818 23.3155 13.5901C23.2214 13.363 23.1239 13.2636 23.0378 13.1754C22.9666 13.1027 22.9106 13.0453 22.8466 12.8917C22.7833 12.7382 22.7824 12.6574 22.7812 12.5556C22.78 12.4326 22.7784 12.2937 22.6842 12.0666L22.302 12.2249C22.3653 12.3785 22.3662 12.4585 22.3674 12.5602C22.3686 12.6831 22.3702 12.8221 22.4644 13.05C22.5585 13.2771 22.656 13.3764 22.7421 13.4646C22.8133 13.5374 22.8693 13.5948 22.9333 13.7483C22.9971 13.9026 22.9983 13.9835 22.9995 14.0862C23.0008 14.2091 23.0024 14.3489 23.0969 14.5768C23.191 14.8047 23.2885 14.9041 23.3745 14.9922C23.4447 15.0635 23.5002 15.123 23.5624 15.2699L21.2204 12.9281L20.9278 13.2207L23.2662 15.5588C23.1379 15.5006 23.076 15.4471 23.0088 15.3818C22.9204 15.2954 22.8206 15.1976 22.5918 15.103C22.3639 15.0093 22.2245 15.0068 22.1012 15.0052C21.9986 15.0044 21.9179 15.0029 21.7622 14.9382C21.6066 14.8744 21.5485 14.8178 21.4745 14.7459C21.3861 14.6602 21.2858 14.5626 21.0567 14.4671C20.8279 14.3725 20.688 14.3709 20.5645 14.3693C20.4615 14.3676 20.3803 14.3661 20.2246 14.3015L20.0663 14.6845C20.2951 14.7791 20.4349 14.7807 20.5585 14.7823C20.6615 14.784 20.7427 14.7855 20.8983 14.8502C21.0543 14.914 21.1125 14.9706 21.1864 15.0425C21.2748 15.1289 21.3751 15.2258 21.6038 15.3205C21.8325 15.4159 21.9724 15.4176 22.0956 15.4191C22.1983 15.4208 22.279 15.4215 22.4339 15.4862C22.5886 15.55 22.6465 15.6066 22.7196 15.6778C22.7572 15.7146 22.7992 15.7536 22.85 15.7934H19.8617V16.2072H23.1668C23.0362 16.2569 22.9545 16.2632 22.8609 16.2646C22.7377 16.2654 22.5982 16.2678 22.3699 16.3616C22.1416 16.4562 22.0413 16.5539 21.9529 16.6397C21.8793 16.7116 21.8216 16.7681 21.6668 16.832C21.5112 16.8966 21.43 16.8982 21.327 16.8998C21.2033 16.9015 21.0635 16.903 20.8348 16.9976C20.6056 17.093 20.5054 17.1899 20.4169 17.2764C20.343 17.3483 20.2848 17.4049 20.1292 17.4687L20.2876 17.8518C20.5163 17.7564 20.6165 17.6595 20.7049 17.573C20.7789 17.501 20.837 17.4445 20.993 17.3807C21.1486 17.316 21.2298 17.3144 21.3329 17.3128C21.4565 17.3111 21.5963 17.3096 21.8255 17.2142C22.0534 17.1196 22.1533 17.0225 22.2417 16.9361C22.3148 16.865 22.373 16.8084 22.5283 16.7445C22.6826 16.6798 22.7639 16.679 22.8661 16.6775C22.9184 16.6772 22.9774 16.6737 23.0413 16.6658L20.9273 18.7795L21.2199 19.0721L23.5572 16.7352C23.4996 16.8629 23.4464 16.9245 23.381 16.9919C23.2949 17.08 23.1976 17.1801 23.1029 17.408C23.0083 17.636 23.0063 17.7767 23.0052 17.8994C23.0035 18.002 23.0028 18.0828 22.9384 18.238C22.8742 18.394 22.8172 18.4521 22.7457 18.5257C22.6592 18.6139 22.5618 18.7148 22.4669 18.9436C22.3719 19.1723 22.3702 19.3122 22.3687 19.4358C22.367 19.5384 22.3659 19.62 22.3017 19.7751L22.6839 19.9335C22.7789 19.7047 22.7805 19.5649 22.782 19.4413C22.7837 19.3386 22.7849 19.2571 22.8491 19.1019C22.9133 18.9459 22.9703 18.8878 23.0418 18.8142C23.1283 18.7261 23.2257 18.6251 23.3206 18.3964C23.4152 18.1685 23.4173 18.0277 23.4184 17.905C23.4201 17.8024 23.4208 17.7216 23.4852 17.5664C23.549 17.4112 23.6055 17.3538 23.6771 17.2803C23.7138 17.2426 23.7529 17.2005 23.7927 17.1495V20.138H24.2065V16.8332C24.2558 16.9635 24.2621 17.045 24.2635 17.1389C24.2647 17.2618 24.2667 17.4016 24.3613 17.6295C24.4554 17.8582 24.5532 17.9585 24.6393 18.0465C24.7108 18.1201 24.7674 18.1782 24.8316 18.3334C24.8958 18.4885 24.897 18.5702 24.8986 18.6727C24.9003 18.7964 24.9018 18.9362 24.9968 19.1649C25.0918 19.3937 25.1891 19.4947 25.2756 19.5828C25.347 19.6564 25.404 19.7145 25.4683 19.8705L25.8506 19.7121C25.7556 19.4834 25.6583 19.3823 25.5717 19.2943C25.5003 19.2207 25.4433 19.1626 25.379 19.0066C25.3148 18.8514 25.3136 18.7698 25.312 18.6672C25.3103 18.5435 25.3088 18.4038 25.2138 18.175C25.1192 17.9463 25.0219 17.846 24.9358 17.758C24.8643 17.6844 24.8077 17.6263 24.7435 17.4711C24.6793 17.3168 24.6784 17.236 24.6767 17.1333C24.6762 17.081 24.6728 17.022 24.6649 16.9581L26.7792 19.0722L27.0717 18.7796L24.9641 16.6723C25.0325 16.6814 25.0938 16.6841 25.149 16.6849C25.2512 16.6857 25.3318 16.6866 25.4861 16.7503C25.6404 16.815 25.6982 16.8707 25.7713 16.9426C25.8595 17.0283 25.9592 17.126 26.1872 17.2206C26.4147 17.3144 26.5542 17.316 26.677 17.3168C26.7788 17.3185 26.8592 17.3192 27.0128 17.3831C27.1663 17.4461 27.2237 17.5027 27.2965 17.5739C27.3846 17.6596 27.4841 17.7573 27.7115 17.852L27.8698 17.4689C27.7163 17.4059 27.6589 17.3493 27.5861 17.2781C27.498 17.1924 27.3986 17.0947 27.1711 17C26.9437 16.9063 26.8042 16.9047 26.6814 16.9039C26.5796 16.9022 26.4991 16.9015 26.3456 16.8376C26.1912 16.7737 26.1334 16.718 26.0603 16.646C25.9722 16.5603 25.8724 16.4626 25.6444 16.3687C25.4165 16.2734 25.2771 16.2717 25.1538 16.271C25.0535 16.2693 24.9722 16.2674 24.8234 16.2071H28.1375V15.7933H28.1378Z" fill="#F09146"/>
<path d="M24 18.069C25.1427 18.069 26.0691 17.1426 26.0691 15.9999C26.0691 14.8572 25.1427 13.9308 24 13.9308C22.8573 13.9308 21.931 14.8572 21.931 15.9999C21.931 17.1426 22.8573 18.069 24 18.069Z" fill="#FFE15A"/>
</g>
<defs>
<clipPath id="clip0_11_4047">
<rect width="48" height="32" fill="white"/>
</clipPath>
</defs>
</svg>
