<svg width="48" height="32" viewBox="0 0 48 32" fill="none" xmlns="http://www.w3.org/2000/svg">
<g clip-path="url(#clip0_11_1100)">
<path d="M47.1723 31.7242H0.827623C0.370593 31.7242 0 31.3536 0 30.8966V1.10362C0 0.646594 0.370593 0.276001 0.827623 0.276001H47.1724C47.6294 0.276001 48 0.646594 48 1.10362V30.8966C47.9999 31.3537 47.6293 31.7242 47.1723 31.7242Z" fill="#41479B"/>
<path d="M47.9999 30.8965V29.9824L5.31683 16L47.9999 2.01772V1.10356C47.9999 0.804315 47.8328 0.554097 47.5948 0.408691L0 16L47.5948 31.5914C47.8328 31.4461 47.9999 31.1959 47.9999 30.8965Z" fill="#FF4B55"/>
<path d="M5.31694 16L48 29.9823V2.01764L5.31694 16Z" fill="white"/>
<path d="M42.947 11.927C42.947 11.927 45.7809 12.0471 46.0451 11.8309C46.3093 11.6148 46.3573 10.1738 45.4208 9.95771C44.4842 9.74162 41.9384 11.1345 41.9384 11.1345L42.947 11.927Z" fill="#FFF5DC"/>
<path d="M37.3992 14.1606C37.3992 14.1606 37.3672 14.2406 37.3512 14.5929C37.3352 14.9451 37.3992 15.8577 38.5041 16.258L38.248 17.3307L39.4167 18.0352C39.4167 18.0352 40.2814 16.7543 40.3294 15.6815C40.3773 14.6089 37.3992 14.1606 37.3992 14.1606Z" fill="#D27D69"/>
<path d="M33.8929 13.4399L34.3492 12.9837C34.3492 12.9837 33.415 13.5536 33.0603 13.0397C32.596 12.3674 33.2204 11.6628 33.8689 11.3505C34.5173 11.0384 35.8142 11.2785 35.8142 11.2785L36.6307 13.3679L34.1571 14.929L33.8929 13.4399Z" fill="#D27D69"/>
<path d="M41.5541 9.45346L43.7637 9.18927C43.7637 9.18927 43.1154 10.1259 41.8424 10.8224C41.8424 10.8224 43.1634 10.8224 43.5475 11.2787C43.9318 11.735 43.1633 12.1673 42.8752 12.3114C42.587 12.4555 40.0893 13.9925 40.0893 13.9925L37.8558 13.7284L41.5541 9.45346Z" fill="#D27D69"/>
<path d="M43.1953 7.75623C43.1953 7.75623 43.6755 6.63545 43.6595 5.85095L42.0424 6.97173C42.0424 6.97173 42.4107 6.79567 42.2826 6.15517L36.999 9.0211L35.9263 10.9264L39.1925 11.9351L43.1953 7.75623Z" fill="#D27D69"/>
<path d="M39.2125 16.4903L38.6601 17.3669C38.6601 17.3669 37.6754 17.1509 37.3392 17.3909C37.003 17.6311 36.967 18.5318 37.5553 18.6038C37.5553 18.6038 37.9635 18.856 38.2036 18.6518C38.2036 18.6518 38.6959 18.8439 38.78 18.5317C38.8641 18.2195 38.756 17.9553 38.756 17.9553H39.1042L39.7166 16.8626L39.2125 16.4903Z" fill="#FFE15A"/>
<path d="M34.2771 14.5929C34.2771 14.5929 35.8142 13.8244 35.8142 12.6716C35.8142 11.5187 34.3892 11.4547 33.2364 11.839C33.2364 11.839 32.548 11.2947 33.1244 10.7502C33.9145 10.0039 37.3513 8.44468 37.3513 8.44468L36.967 10.366C36.967 10.366 38.3359 11.0865 38.8883 10.7503C39.3525 10.4677 43.8837 6.90765 43.8837 6.90765C43.8837 6.90765 43.4994 8.82896 40.8096 10.7503L40.5246 12.1754C40.462 12.4885 40.2584 12.7551 39.9727 12.8978L38.8883 13.4399C38.8883 13.4399 41.9624 13.8242 41.9624 14.2084C41.9624 14.5926 41.1939 16.514 39.6569 17.2825L38.8883 16.514L39.2726 15.3612C39.2726 15.3612 38.1197 14.9769 37.3513 14.5926C37.3513 14.5926 36.1984 14.9769 35.43 14.9769C34.6615 14.9769 34.2771 14.5929 34.2771 14.5929Z" fill="#B95546"/>
<path d="M31.9716 16.5142V15.7158C31.9716 15.489 32.0617 15.2713 32.2222 15.1109L33.893 13.4401L34.2773 14.2085H35.8143L35.43 14.5928V14.9771L33.5087 16.1299L31.9716 16.5142Z" fill="#FFF5DC"/>
<path d="M32.7401 16.13H31.9716C31.9716 16.13 31.2031 17.2828 31.9716 17.2828C31.9716 17.2828 33.1244 16.5143 33.5086 16.13C33.5086 16.13 33.5086 15.7458 32.7401 16.13Z" fill="#FFE15A"/>
<path d="M42.1134 17.8347H36.8013C36.7575 17.7875 36.6963 17.7571 36.6269 17.7571C36.6269 17.7571 35.6964 17.3714 35.564 17.3714H35.455C35.3227 17.3714 35.2154 17.4786 35.2154 17.611V17.8347H34.001V17.611C34.001 17.4787 33.8938 17.3714 33.7614 17.3714H33.6524C33.5201 17.3714 33.4128 17.4786 33.4128 17.611V17.615C32.8924 17.5939 31.7796 17.5275 31.2032 17.3354L28.1291 18.1039L31.2032 18.8724C31.7795 18.6803 32.8922 18.6139 33.4128 18.5927V18.5967C33.4128 18.729 33.52 18.8363 33.6524 18.8363H33.7614C33.8937 18.8363 34.001 18.7291 34.001 18.5967V18.373H35.2154V18.5967C35.2154 18.729 35.3226 18.8363 35.455 18.8363H35.564C35.6963 18.8363 36.6269 18.4506 36.6269 18.4506C36.6963 18.4506 36.7576 18.4203 36.8013 18.373H42.1134C42.2622 18.373 42.3827 18.2524 42.3827 18.1038C42.3827 17.9552 42.2621 17.8347 42.1134 17.8347Z" fill="#FFE15A"/>
<path d="M41.8823 18.8679C41.5621 18.8038 37.8956 19.4443 37.8956 19.4443C37.8956 19.4443 37.6714 19.2201 38.3438 18.5956L38.0237 18.5156C38.0237 18.5156 37.3192 19.0119 37.0309 19.0759C36.7828 19.131 36.2283 19.4007 36.1091 19.7606L33.8767 20.1327L33.9247 20.3248L36.1145 20.0681C36.2189 20.4044 36.5631 20.4731 36.8067 20.3728C36.8067 20.3728 37.127 20.5008 37.4151 20.2767C37.4151 20.2767 37.9915 20.3728 38.0235 19.8444L42.0422 19.2359C42.0423 19.2362 42.2025 18.9319 41.8823 18.8679Z" fill="#FFE15A"/>
<path d="M39.6088 21.5738C39.6088 21.5738 39.3046 21.974 38.5521 21.6218C37.7997 21.2696 36.919 21.6539 36.4387 21.5418C35.9584 21.4296 35.2378 21.1415 34.5655 21.3977C33.8931 21.6538 33.5248 21.6379 33.6689 21.3176C33.8129 20.9975 33.893 20.7573 33.6689 20.6452L33.925 20.325L33.877 20.1329C33.877 20.1329 32.5961 19.6366 31.7316 20.325C30.8669 21.0134 31.1233 22.5826 32.5642 22.6946C32.5642 22.6946 33.0125 23.255 34.1173 23.0948C34.1173 23.0948 34.8377 23.5911 36.0705 23.367C36.0705 23.367 36.1185 23.5111 36.9192 23.447C37.7198 23.383 38.6163 23.4791 38.4562 24.0234C38.4562 24.0234 39.0486 23.9114 38.6964 23.367C38.6964 23.367 39.4008 23.3349 39.8812 23.7513C39.8812 23.7513 39.9132 23.271 39.4489 23.0147C39.4489 23.0147 40.2335 22.7425 40.6658 23.0147C40.6658 23.0147 40.3776 22.4063 39.609 22.4863C39.609 22.4863 40.1694 22.038 40.4256 22.1501C40.4256 22.1501 40.1854 21.8619 39.4809 22.1501C39.4808 22.1502 39.9291 21.878 39.6088 21.5738Z" fill="#FFE15A"/>
</g>
<defs>
<clipPath id="clip0_11_1100">
<rect width="48" height="32" fill="white"/>
</clipPath>
</defs>
</svg>
