<svg width="48" height="32" viewBox="0 0 48 32" fill="none" xmlns="http://www.w3.org/2000/svg">
<g clip-path="url(#clip0_11_4587)">
<path d="M47.1723 31.7243H0.827623C0.370593 31.7243 0 31.3537 0 30.8967V1.10362C0 0.646594 0.370593 0.276001 0.827623 0.276001H47.1724C47.6294 0.276001 48 0.646594 48 1.10362V30.8967C47.9999 31.3538 47.6293 31.7243 47.1723 31.7243Z" fill="#41479B"/>
<path d="M23.1723 0.276062H21.7348L14.0688 5.29861V0.276062H9.93092V5.29861L2.265 0.276062H0.827623C0.370593 0.276062 0 0.646561 0 1.10359V1.76003L6.57702 6.06905H0V10.207H6.57702L0 14.5161V15.1725C0 15.6296 0.370593 16.0002 0.827623 16.0002H2.26518L9.93111 10.9776V16.0002H14.069V10.9776L21.7349 16.0002H23.1724C23.6295 16.0002 24 15.6296 24 15.1725V14.5161L17.423 10.2071H24V6.06915H17.4229L24 1.76012V1.10369C24 0.646562 23.6294 0.276062 23.1723 0.276062Z" fill="white"/>
<path d="M24 6.89677H13.2413V0.276062H10.7586V6.89677H0V9.37945H10.7586V16.0002H13.2413V9.37945H24V6.89677Z" fill="#FF4B55"/>
<path d="M9.10339 6.06898L0.394405 0.415771C0.162656 0.562396 0 0.808864 0 1.10343V1.14636L7.58333 6.06898H9.10339Z" fill="#FF4B55"/>
<path d="M15.5891 6.06914L23.8742 0.691092C23.7302 0.447437 23.4761 0.276062 23.1725 0.276062H22.9935L14.0691 6.06914H15.5891Z" fill="#FF4B55"/>
<path d="M8.38813 10.2069L0.118927 15.5747C0.26152 15.8242 0.51952 16 0.827582 16H0.983675L9.90828 10.2069H8.38813Z" fill="#FF4B55"/>
<path d="M23.9868 15.2373L16.2369 10.2069H14.7169L23.5175 15.9196C23.7812 15.7972 23.962 15.5408 23.9868 15.2373Z" fill="#FF4B55"/>
<path d="M12.2506 20.5119L12.8752 22.5741L14.8771 21.7768C15.0479 21.7087 15.2031 21.9035 15.0989 22.0549L13.876 23.829L15.7475 24.8969C15.9071 24.988 15.8517 25.2308 15.6683 25.2437L13.5187 25.3937L13.8507 27.5228C13.879 27.7045 13.6546 27.8126 13.5303 27.6771L12.0726 26.0901L10.615 27.6771C10.4907 27.8125 10.2663 27.7044 10.2946 27.5228L10.6266 25.3937L8.47696 25.2437C8.29359 25.2308 8.23818 24.988 8.39784 24.8969L10.2693 23.829L9.0464 22.0549C8.94215 21.9035 9.0974 21.7087 9.26821 21.7768L11.2701 22.5741L11.8947 20.5119C11.9482 20.336 12.1973 20.336 12.2506 20.5119Z" fill="white"/>
<path d="M36.87 5.84945L37.1751 6.85679L38.1529 6.46736C38.2363 6.43417 38.3122 6.52923 38.2612 6.6032L37.6639 7.46992L38.5781 7.99164C38.6561 8.03607 38.629 8.15476 38.5394 8.16095L37.4894 8.23426L37.6515 9.27423C37.6653 9.36301 37.5557 9.41579 37.4949 9.3496L36.7829 8.57439L36.0709 9.3496C36.0101 9.4157 35.9005 9.36292 35.9143 9.27423L36.0764 8.23426L35.0264 8.16095C34.9368 8.15476 34.9097 8.03607 34.9877 7.99164L35.9018 7.46992L35.3045 6.6032C35.2535 6.52923 35.3295 6.43417 35.4128 6.46736L36.3906 6.85679L36.6958 5.84945C36.7222 5.76348 36.844 5.76348 36.87 5.84945Z" fill="white"/>
<path d="M30.066 13.5815L30.3712 14.5888L31.349 14.1994C31.4323 14.1662 31.5083 14.2613 31.4573 14.3352L30.86 15.202L31.7741 15.7237C31.8521 15.7681 31.825 15.8868 31.7354 15.893L30.6854 15.9663L30.8475 17.0063C30.8614 17.095 30.7517 17.1478 30.691 17.0816L29.9789 16.3064L29.2669 17.0816C29.2061 17.1477 29.0965 17.0949 29.1103 17.0063L29.2724 15.9663L28.2224 15.893C28.1328 15.8868 28.1057 15.7681 28.1837 15.7237L29.0979 15.202L28.5006 14.3352C28.4496 14.2613 28.5255 14.1662 28.6089 14.1994L29.5867 14.5888L29.8918 13.5815C29.9183 13.4955 30.0399 13.4955 30.066 13.5815Z" fill="white"/>
<path d="M43.3072 10.2711L43.6123 11.2785L44.5901 10.889C44.6735 10.8559 44.7494 10.9509 44.6984 11.0249L44.1011 11.8916L45.0153 12.4133C45.0933 12.4578 45.0662 12.5765 44.9766 12.5826L43.9266 12.656L44.0887 13.6959C44.1025 13.7847 43.9928 13.8375 43.9322 13.7713L43.2202 12.9961L42.5081 13.7713C42.4474 13.8374 42.3378 13.7846 42.3516 13.6959L42.5137 12.656L41.4637 12.5826C41.374 12.5765 41.3469 12.4578 41.4249 12.4133L42.3391 11.8916L41.7418 11.0249C41.6908 10.9509 41.7668 10.8559 41.8501 10.889L42.8279 11.2785L43.1331 10.2711C43.1594 10.1852 43.2811 10.1852 43.3072 10.2711Z" fill="white"/>
<path d="M36.87 23.5124L37.1751 24.5197L38.1529 24.1302C38.2363 24.097 38.3122 24.192 38.2612 24.266L37.6639 25.1327L38.5781 25.6544C38.6561 25.6989 38.629 25.8176 38.5394 25.8238L37.4894 25.8971L37.6515 26.937C37.6653 27.0258 37.5557 27.0786 37.4949 27.0124L36.7829 26.2372L36.0709 27.0124C36.0101 27.0785 35.9005 27.0257 35.9143 26.937L36.0764 25.8971L35.0264 25.8238C34.9368 25.8176 34.9097 25.6989 34.9877 25.6544L35.9018 25.1327L35.3045 24.266C35.2535 24.192 35.3295 24.097 35.4128 24.1302L36.3906 24.5197L36.6958 23.5124C36.7222 23.4264 36.844 23.4264 36.87 23.5124Z" fill="white"/>
<path d="M39.2309 15.3917L38.9859 16.1264L38.2117 16.1324C38.1115 16.1332 38.0698 16.2611 38.1505 16.3206L38.7734 16.7806L38.5398 17.5189C38.5096 17.6145 38.6184 17.6936 38.6999 17.6353L39.3299 17.185L39.9599 17.6353C40.0415 17.6936 40.1502 17.6144 40.12 17.5189L39.8864 16.7806L40.5093 16.3206C40.59 16.261 40.5484 16.1332 40.4482 16.1324L39.6739 16.1264L39.4289 15.3917C39.3971 15.2966 39.2626 15.2966 39.2309 15.3917Z" fill="white"/>
</g>
<defs>
<clipPath id="clip0_11_4587">
<rect width="48" height="32" fill="white"/>
</clipPath>
</defs>
</svg>
