<svg width="48" height="32" viewBox="0 0 48 32" fill="none" xmlns="http://www.w3.org/2000/svg">
<g clip-path="url(#clip0_11_1253)">
<path d="M47.1723 31.7242H0.827623C0.370593 31.7242 0 31.3536 0 30.8966V1.10362C0 0.646594 0.370593 0.276001 0.827623 0.276001H47.1724C47.6294 0.276001 48 0.646594 48 1.10362V30.8966C47.9999 31.3537 47.6293 31.7242 47.1723 31.7242Z" fill="#4173CD"/>
<path d="M47.9999 21.7927H0V23.4479H47.9999V21.7927Z" fill="#FFE15A"/>
<path d="M47.9999 25.103H0V26.7581H47.9999V25.103Z" fill="#FFE15A"/>
<path d="M6.11568 8.49453L3.03619 7.44294L6.11568 6.39144L7.16727 3.31232L8.21877 6.39144L11.2983 7.44294L8.21877 8.49453L7.16727 11.5737L6.11568 8.49453Z" fill="#FF4B55"/>
<path d="M7.16716 3.8656L8.07785 6.53232L10.7446 7.443L8.07785 8.35369L7.16716 11.0204L6.25647 8.35369L3.58976 7.443L6.25647 6.53232L7.16716 3.8656ZM7.16716 2.75861L6.82854 3.74992L5.97466 6.2505L3.47417 7.10438L2.48286 7.443L3.47417 7.78144L5.97466 8.63531L6.82854 11.1358L7.16716 12.1271L7.50578 11.1358L8.35966 8.63531L10.8602 7.78144L11.8515 7.443L10.8602 7.10457L8.35966 6.25069L7.50578 3.7502L7.16716 2.75861Z" fill="white"/>
</g>
<defs>
<clipPath id="clip0_11_1253">
<rect width="48" height="32" fill="white"/>
</clipPath>
</defs>
</svg>
