<svg width="48" height="32" viewBox="0 0 48 32" fill="none" xmlns="http://www.w3.org/2000/svg">
<g clip-path="url(#clip0_11_3132)">
<path d="M0 21.2413H47.9999V30.8965C47.9999 31.3535 47.6293 31.7241 47.1723 31.7241H0.827623C0.370593 31.7241 0 31.3535 0 30.8965V21.2413Z" fill="#73AF00"/>
<path d="M0.827623 0.27597H47.1724C47.6294 0.27597 48 0.646563 48 1.10359V10.7587H0V1.10359C0 0.646563 0.370593 0.27597 0.827623 0.27597Z" fill="#82AFFF"/>
<path d="M47.9999 10.7583H0V21.2405H47.9999V10.7583Z" fill="#FF4B55"/>
<path d="M25.1285 19.432C23.2714 19.432 21.7647 17.9253 21.7647 16.0665C21.7647 14.211 23.2714 12.7011 25.1285 12.7011C25.8196 12.7011 26.4568 12.9135 26.9878 13.2733C27.0691 13.3284 27.1619 13.2214 27.0938 13.1506C26.3001 12.3255 25.1768 11.822 23.9315 11.8646C21.7917 11.9376 20.0204 13.653 19.8836 15.7897C19.727 18.2369 21.6648 20.2707 24.0775 20.2707C25.2659 20.2707 26.334 19.7739 27.0968 18.9795C27.1641 18.9094 27.0711 18.8041 26.9907 18.8587C26.4591 19.2192 25.8208 19.432 25.1285 19.432Z" fill="white"/>
<path d="M28.0734 13.9947L28.4224 14.976L29.3631 14.5289C29.434 14.4951 29.508 14.5691 29.4742 14.64L29.0271 15.5807L30.0084 15.9297C30.0824 15.956 30.0824 16.0606 30.0084 16.0868L29.0271 16.4359L29.4742 17.3766C29.508 17.4474 29.434 17.5214 29.3631 17.4877L28.4224 17.0406L28.0734 18.0218C28.0472 18.0958 27.9425 18.0958 27.9163 18.0218L27.5673 17.0406L26.6266 17.4877C26.5557 17.5214 26.4817 17.4474 26.5155 17.3766L26.9626 16.4359L25.9813 16.0868C25.9073 16.0606 25.9073 15.956 25.9813 15.9297L26.9626 15.5807L26.5155 14.64C26.4817 14.5691 26.5557 14.4951 26.6266 14.5289L27.5673 14.976L27.9163 13.9947C27.9426 13.9208 28.0472 13.9208 28.0734 13.9947Z" fill="white"/>
</g>
<defs>
<clipPath id="clip0_11_3132">
<rect width="48" height="32" fill="white"/>
</clipPath>
</defs>
</svg>
