<svg width="48" height="32" viewBox="0 0 48 32" fill="none" xmlns="http://www.w3.org/2000/svg">
<g clip-path="url(#clip0_11_2959)">
<path d="M47.1723 31.7242H0.827623C0.370593 31.7242 0 31.3536 0 30.8965V1.10359C0 0.646563 0.370593 0.27597 0.827623 0.27597H47.1724C47.6294 0.27597 48 0.646563 48 1.10359V30.8965C47.9999 31.3537 47.6293 31.7242 47.1723 31.7242Z" fill="#41479B"/>
<path d="M41.379 0.27597V31.7242L9.93087 0.27597H41.379Z" fill="#FFE15A"/>
<path d="M19.4394 11.9854L19.9164 13.4155L21.4238 13.4272C21.5406 13.4281 21.589 13.5771 21.4951 13.6465L20.2823 14.5421L20.7371 15.9793C20.7724 16.0906 20.6455 16.1828 20.5505 16.1149L19.324 15.2382L18.0976 16.1149C18.0026 16.1828 17.8758 16.0907 17.9109 15.9793L18.3657 14.5421L17.153 13.6465C17.059 13.5771 17.1074 13.4281 17.2242 13.4272L18.7316 13.4155L19.2086 11.9854C19.2457 11.8747 19.4024 11.8747 19.4394 11.9854Z" fill="white"/>
<path d="M15.9913 8.53718L16.4683 9.96724L17.9757 9.97895C18.0926 9.97989 18.1409 10.129 18.047 10.1982L16.8342 11.0938L17.289 12.5311C17.3243 12.6424 17.1974 12.7345 17.1024 12.6667L15.8759 11.79L14.6495 12.6667C14.5545 12.7346 14.4277 12.6425 14.4628 12.5311L14.9176 11.0938L13.7049 10.1982C13.6109 10.1289 13.6593 9.97989 13.7761 9.97895L15.2835 9.96724L15.7605 8.53718C15.7976 8.42637 15.9544 8.42637 15.9913 8.53718Z" fill="white"/>
<path d="M12.5429 5.08886L13.0199 6.51892L14.5273 6.53064C14.6441 6.53158 14.6925 6.68055 14.5985 6.74992L13.3858 7.64551L13.8406 9.08279C13.8758 9.19407 13.749 9.28623 13.6539 9.21836L12.4275 8.3417L11.2011 9.21836C11.1061 9.28632 10.9793 9.19417 11.0144 9.08279L11.4692 7.64551L10.2564 6.74992C10.1625 6.68055 10.2109 6.53158 10.3277 6.53064L11.8351 6.51892L12.3121 5.08886C12.3492 4.97805 12.506 4.97805 12.5429 5.08886Z" fill="white"/>
<path d="M9.09483 1.64065L9.57183 3.07071L11.0792 3.08243C11.196 3.08337 11.2444 3.23234 11.1505 3.30171L9.93783 4.19721L10.3926 5.63449C10.4279 5.74577 10.301 5.83793 10.206 5.77005L8.97952 4.8934L7.75308 5.77005C7.65811 5.83793 7.53127 5.74586 7.56643 5.63449L8.02121 4.19721L6.80846 3.30171C6.71452 3.23234 6.7629 3.08337 6.87971 3.08243L8.38711 3.07071L8.86411 1.64065C8.90114 1.52984 9.0578 1.52984 9.09483 1.64065Z" fill="white"/>
<path d="M33.2325 25.7783L33.7095 27.2084L35.2169 27.2201C35.3337 27.2211 35.3821 27.37 35.2881 27.4394L34.0754 28.335L34.5302 29.7723C34.5654 29.8836 34.4386 29.9758 34.3436 29.9078L33.1172 29.0312L31.8908 29.9078C31.7958 29.9758 31.6689 29.8837 31.7041 29.7723L32.1589 28.335L30.9461 27.4394C30.8522 27.37 30.9006 27.2211 31.0174 27.2201L32.5248 27.2084L33.0018 25.7783C33.0388 25.6675 33.1956 25.6675 33.2325 25.7783Z" fill="white"/>
<path d="M29.7841 22.3302L30.2611 23.7603L31.7685 23.772C31.8853 23.7729 31.9337 23.9219 31.8397 23.9913L30.627 24.8869L31.0818 26.3242C31.117 26.4354 30.9902 26.5277 30.8952 26.4597L29.6688 25.5831L28.4423 26.4597C28.3474 26.5276 28.2205 26.4355 28.2557 26.3242L28.7105 24.8869L27.4977 23.9913C27.4038 23.9219 27.4521 23.7729 27.569 23.772L29.0764 23.7603L29.5534 22.3302C29.5904 22.2194 29.7471 22.2194 29.7841 22.3302Z" fill="white"/>
<path d="M26.3359 18.882L26.8129 20.3121L28.3203 20.3238C28.4371 20.3248 28.4855 20.4737 28.3915 20.5431L27.1788 21.4387L27.6335 22.876C27.6688 22.9873 27.542 23.0795 27.4469 23.0114L26.2205 22.1348L24.994 23.0114C24.899 23.0793 24.7722 22.9873 24.8074 22.876L25.2621 21.4387L24.0494 20.5431C23.9555 20.4737 24.0038 20.3248 24.1206 20.3238L25.628 20.3121L26.105 18.882C26.1423 18.7713 26.2989 18.7713 26.3359 18.882Z" fill="white"/>
<path d="M22.8879 15.4337L23.3649 16.8638L24.8722 16.8755C24.9891 16.8764 25.0374 17.0254 24.9435 17.0948L23.7308 17.9904L24.1855 19.4276C24.2208 19.5389 24.0939 19.6312 23.9989 19.5632L22.7725 18.6865L21.546 19.5632C21.4511 19.6311 21.3242 19.539 21.3594 19.4276L21.8141 17.9904L20.6014 17.0948C20.5075 17.0254 20.5558 16.8764 20.6727 16.8755L22.18 16.8638L22.657 15.4337C22.6942 15.3229 22.8509 15.3229 22.8879 15.4337Z" fill="white"/>
<path d="M3.93238 0.27597L4.57269 0.748844L4.11791 2.18612C4.08276 2.2974 4.20951 2.38956 4.30457 2.32178L5.53091 1.44512L6.75734 2.32178C6.85231 2.38965 6.97916 2.29759 6.94391 2.18612L6.48922 0.748844L7.12981 0.27597H3.93238Z" fill="white"/>
<path d="M38.665 30.6687L37.1576 30.6569L36.6806 29.2269C36.6437 29.1161 36.487 29.1161 36.45 29.2269L35.9731 30.6569L34.4657 30.6687C34.3489 30.6696 34.3005 30.8187 34.3945 30.8879L35.5272 31.7243H37.6039L38.7366 30.8879C38.8301 30.8186 38.7818 30.6695 38.665 30.6687Z" fill="white"/>
</g>
<defs>
<clipPath id="clip0_11_2959">
<rect width="48" height="32" fill="white"/>
</clipPath>
</defs>
</svg>
