<svg width="48" height="32" viewBox="0 0 48 32" fill="none" xmlns="http://www.w3.org/2000/svg">
<g clip-path="url(#clip0_11_2088)">
<path d="M16 31.7238H0.827625C0.370594 31.7238 0 31.3532 0 30.8962V1.1032C0 0.646167 0.370594 0.275574 0.827625 0.275574H16V31.7238Z" fill="#41479B"/>
<path d="M32.0007 0.27597H16.0004V31.7244H32.0007V0.27597Z" fill="#FFE15A"/>
<path d="M47.1724 31.7238H32V0.275574H47.1724C47.6294 0.275574 48 0.646167 48 1.1032V30.8962C48 31.3533 47.6294 31.7238 47.1724 31.7238Z" fill="#41479B"/>
<path d="M30.6207 11.43C30.6207 11.43 28.3178 11.43 26.5907 13.1571H27.742C27.742 13.1571 26.6266 15.1721 26.0509 18.6264L24.8635 18.4325V13.14L26.0149 13.5169L24 8.55145L21.985 13.5169L23.1364 13.133V18.4324L21.949 18.6263C21.3733 15.1721 20.2579 13.157 20.2579 13.157H21.4092C19.6821 11.43 17.3793 11.43 17.3793 11.43C20.2578 14.8842 20.2578 20.6414 20.2578 20.6414L23.1363 20.1616V24.0957H24.8634V20.1616L27.7419 20.6414C27.7421 20.6415 27.7421 14.8844 30.6207 11.43Z" fill="#464655"/>
</g>
<defs>
<clipPath id="clip0_11_2088">
<rect width="48" height="32" fill="white"/>
</clipPath>
</defs>
</svg>
