<svg width="48" height="32" viewBox="0 0 48 32" fill="none" xmlns="http://www.w3.org/2000/svg">
<g clip-path="url(#clip0_11_3314)">
<path d="M47.1723 31.7242H0.827623C0.370593 31.7242 0 31.3536 0 30.8965V1.10359C0 0.646563 0.370593 0.27597 0.827623 0.27597H47.1724C47.6294 0.27597 48 0.646563 48 1.10359V30.8965C47.9999 31.3537 47.6293 31.7242 47.1723 31.7242Z" fill="#73AF00"/>
<path d="M20.6897 26.7587C26.6316 26.7587 31.4484 21.9419 31.4484 16C31.4484 10.0581 26.6316 5.24124 20.6897 5.24124C14.7478 5.24124 9.93097 10.0581 9.93097 16C9.93097 21.9419 14.7478 26.7587 20.6897 26.7587Z" fill="#FF4B55"/>
</g>
<defs>
<clipPath id="clip0_11_3314">
<rect width="48" height="32" fill="white"/>
</clipPath>
</defs>
</svg>
