<svg width="48" height="32" viewBox="0 0 48 32" fill="none" xmlns="http://www.w3.org/2000/svg">
<g clip-path="url(#clip0_11_2180)">
<path d="M47.9999 15.9999H0V1.10347C0 0.646441 0.370593 0.275848 0.827623 0.275848H47.1724C47.6294 0.275848 48 0.646441 48 1.10347L47.9999 15.9999Z" fill="#FF4B55"/>
<path d="M0 15.9999H47.9999V30.8964C47.9999 31.3534 47.6293 31.724 47.1723 31.724H0.827623C0.370593 31.724 0 31.3534 0 30.8964V15.9999Z" fill="#73AF00"/>
<path d="M24.2519 11.4865L25.293 14.6083L28.5839 14.6339C28.8389 14.6359 28.9445 14.9612 28.7395 15.1127L26.0922 17.0677L27.0849 20.2054C27.1618 20.4485 26.885 20.6496 26.6776 20.5013L24.0002 18.5875L21.3229 20.5013C21.1156 20.6495 20.8387 20.4484 20.9157 20.2054L21.9084 17.0677L19.2611 15.1127C19.056 14.9613 19.1617 14.6359 19.4167 14.6339L22.7075 14.6083L23.7487 11.4865C23.8291 11.2446 24.1712 11.2446 24.2519 11.4865Z" fill="#FFE15A"/>
</g>
<defs>
<clipPath id="clip0_11_2180">
<rect width="48" height="32" fill="white"/>
</clipPath>
</defs>
</svg>
