<svg width="48" height="32" viewBox="0 0 48 32" fill="none" xmlns="http://www.w3.org/2000/svg">
<g clip-path="url(#clip0_11_3109)">
<path d="M19.8621 31.7242H0.827625C0.370594 31.7242 0 31.3536 0 30.8966V1.10361C0 0.646579 0.370594 0.275986 0.827625 0.275986H19.8621V31.7242Z" fill="white"/>
<path d="M13.2414 0.276079L19.8621 2.24155L13.2414 4.20702L19.8621 6.17249L13.2414 8.13795L19.8621 10.1034L13.2414 12.0689L19.8621 14.0344L13.2414 15.9998L19.8621 17.9653L13.2414 19.9308L19.8621 21.8962L13.2414 23.8617L19.8621 25.8272L13.2414 27.7926L19.8621 29.7581L13.2414 31.7236H47.1723C47.6293 31.7236 47.9999 31.353 47.9999 30.896V1.10361C47.9999 0.646579 47.6293 0.275986 47.1723 0.275986H13.2414V0.276079Z" fill="#FF4B55"/>
</g>
<defs>
<clipPath id="clip0_11_3109">
<rect width="48" height="32" fill="white"/>
</clipPath>
</defs>
</svg>
