<svg width="48" height="32" viewBox="0 0 48 32" fill="none" xmlns="http://www.w3.org/2000/svg">
<g clip-path="url(#clip0_11_1586)">
<path d="M47.1723 0.271118H0.827623C0.370593 0.271118 0 0.641712 0 1.09874V30.8917C0 31.3487 0.370593 31.7193 0.827623 31.7193H47.1724C47.6294 31.7193 48 31.3487 48 30.8917V1.09874C47.9999 0.641712 47.6293 0.271118 47.1723 0.271118Z" fill="#73AF00"/>
<path d="M3.77483 0.271118L23.9998 13.522L44.2248 0.271118H3.77483Z" fill="#FF4B55"/>
<path d="M44.2248 31.7288L23.9998 18.478L3.77483 31.7288H44.2248Z" fill="#FF4B55"/>
<path d="M47.9999 1.09874C47.9999 0.641711 47.6293 0.271118 47.1723 0.271118H44.225L28.8464 10.3467C27.5433 9.2276 25.8525 8.54707 24 8.54707C22.1475 8.54707 20.4566 9.22751 19.1535 10.3467L3.77493 0.271118H0.827623C0.370593 0.271118 0 0.641711 0 1.09874V2.74443L16.8804 13.8039C16.6674 14.4968 16.5516 15.2326 16.5516 15.9952C16.5516 16.758 16.6674 17.4935 16.8804 18.1865L0 29.2461V30.8918C0 31.3488 0.370593 31.7194 0.827623 31.7194H3.77493L19.1534 21.6439C20.4565 22.763 22.1474 23.4436 23.9999 23.4436C25.8524 23.4436 27.5432 22.7632 28.8464 21.6439L44.2248 31.7194H47.1721C47.6291 31.7194 47.9997 31.3488 47.9997 30.8918V29.2461L31.1194 18.1866C31.3324 17.4937 31.4482 16.758 31.4482 15.9953C31.4482 15.2326 31.3324 14.497 31.1194 13.804L47.9998 2.74452L47.9999 1.09874Z" fill="white"/>
<path d="M23.4636 13.6136L22.3415 13.6426L22.9274 12.6849L22.3415 11.7272L23.4636 11.7563L23.9998 10.7696L24.5361 11.7563L25.6583 11.7272L25.0723 12.6849L25.6583 13.6426L24.5361 13.6136L23.9998 14.6003L23.4636 13.6136Z" fill="#FF4B55"/>
<path d="M23.9999 11.0298L24.4633 11.8821L25.4333 11.8573L24.9268 12.6849L25.4333 13.5125L24.4633 13.4877L23.9999 14.3401L23.5365 13.4877L22.5666 13.5125L23.073 12.6849L22.5666 11.8573L23.5365 11.8821L23.9999 11.0298ZM23.9999 10.51L23.7818 10.9112L23.3909 11.6301L22.5728 11.6091L22.1164 11.5974L22.3547 11.987L22.7819 12.685L22.3547 13.383L22.1164 13.7726L22.5728 13.7609L23.3909 13.7399L23.7818 14.4588L23.9999 14.86L24.2181 14.4588L24.6089 13.7399L25.427 13.7609L25.8835 13.7726L25.6452 13.383L25.218 12.685L25.6452 11.987L25.8835 11.5974L25.427 11.6091L24.6089 11.6301L24.2181 10.9112L23.9999 10.51Z" fill="#73AF00"/>
<path d="M20.3817 19.0988L19.2596 19.1279L19.8455 18.1702L19.2596 17.2125L20.3817 17.2416L20.918 16.2548L21.4542 17.2416L22.5763 17.2125L21.9904 18.1702L22.5763 19.1279L21.4542 19.0988L20.918 20.0855L20.3817 19.0988Z" fill="#FF4B55"/>
<path d="M20.9181 16.515L21.3815 17.3674L22.3514 17.3426L21.845 18.1702L22.3514 18.9978L21.3815 18.973L20.9181 19.8253L20.4547 18.973L19.4847 18.9978L19.9912 18.1702L19.4847 17.3426L20.4547 17.3674L20.9181 16.515ZM20.9181 15.9952L20.6999 16.3963L20.3091 17.1153L19.491 17.0943L19.0345 17.0826L19.2728 17.4722L19.7 18.1702L19.2728 18.8681L19.0345 19.2578L19.491 19.246L20.3091 19.225L20.6999 19.944L20.9181 20.3452L21.1362 19.944L21.5271 19.225L22.3451 19.246L22.8017 19.2578L22.5634 18.8681L22.1362 18.1702L22.5634 17.4722L22.8017 17.0826L22.3451 17.0943L21.5271 17.1153L21.1362 16.3963L20.9181 15.9952Z" fill="#73AF00"/>
<path d="M26.5456 19.0988L25.4234 19.1279L26.0093 18.1702L25.4234 17.2125L26.5456 17.2416L27.0817 16.2548L27.6181 17.2416L28.7402 17.2125L28.1543 18.1702L28.7402 19.1279L27.6181 19.0988L27.0817 20.0855L26.5456 19.0988Z" fill="#FF4B55"/>
<path d="M27.0818 16.515L27.5452 17.3674L28.5151 17.3426L28.0087 18.1702L28.5151 18.9978L27.5452 18.973L27.0818 19.8253L26.6184 18.973L25.6484 18.9978L26.1549 18.1702L25.6484 17.3426L26.6184 17.3674L27.0818 16.515ZM27.0818 15.9952L26.8636 16.3963L26.4728 17.1153L25.6547 17.0943L25.1982 17.0826L25.4365 17.4722L25.8637 18.1702L25.4365 18.8681L25.1982 19.2578L25.6547 19.246L26.4728 19.225L26.8636 19.944L27.0818 20.3452L27.2999 19.944L27.6908 19.225L28.5088 19.246L28.9654 19.2578L28.7271 18.8681L28.2999 18.1702L28.7271 17.4722L28.9654 17.0826L28.5088 17.0943L27.6908 17.1153L27.2999 16.3963L27.0818 15.9952Z" fill="#73AF00"/>
</g>
<defs>
<clipPath id="clip0_11_1586">
<rect width="48" height="32" fill="white"/>
</clipPath>
</defs>
</svg>
