<svg width="48" height="32" viewBox="0 0 48 32" fill="none" xmlns="http://www.w3.org/2000/svg">
<g clip-path="url(#clip0_11_2008)">
<path d="M47.1723 31.724H0.827623C0.370593 31.724 0 31.3534 0 30.8964V1.10347C0 0.646441 0.370593 0.275848 0.827623 0.275848H47.1724C47.6294 0.275848 48 0.646441 48 1.10347V30.8964C47.9999 31.3535 47.6293 31.724 47.1723 31.724Z" fill="#FF4B55"/>
<path d="M23.1723 15.9999H0.827623C0.370593 15.9999 0 15.6293 0 15.1723V1.10347C0 0.646441 0.370593 0.275848 0.827623 0.275848H23.1723C23.6294 0.275848 24 0.646441 24 1.10347V15.1724C23.9999 15.6295 23.6295 15.9999 23.1723 15.9999Z" fill="#41479B"/>
<path d="M23.1723 0.275848H21.7349L14.0689 5.29831V0.275848H9.93101V5.29831L2.26509 0.275848H0.827623C0.370593 0.275848 0 0.646441 0 1.10347V1.75991L6.57702 6.06893H0V10.2069H6.57702L0 14.516V15.1723C0 15.6293 0.370593 15.9999 0.827623 15.9999H2.26509L9.93101 10.9775V15.9999H14.0689V10.9775L21.7348 15.9999H23.1722C23.6293 15.9999 23.9999 15.6293 23.9999 15.1723V14.5159L17.4229 10.2069H23.9999V6.06893H17.4228L23.9999 1.75991V1.10347C23.9999 0.646441 23.6295 0.275848 23.1723 0.275848Z" fill="white"/>
<path d="M23.9999 6.89655H13.2413V0.275848H10.7585V6.89655H0V9.37924H10.7585V15.9999H13.2413V9.37924H23.9999V6.89655Z" fill="#FF4B55"/>
<path d="M9.10339 6.06891L0.394405 0.41571C0.162656 0.562429 0 0.808803 0 1.10346V1.1464L7.58333 6.06891H9.10339Z" fill="#FF4B55"/>
<path d="M15.5891 6.06893L23.8742 0.690879C23.7302 0.447223 23.4761 0.275848 23.1725 0.275848H22.9935L14.0691 6.06893H15.5891Z" fill="#FF4B55"/>
<path d="M8.38813 10.2068L0.118931 15.5746C0.261524 15.8242 0.519524 15.9999 0.827586 15.9999H0.983679L9.90819 10.2068H8.38813Z" fill="#FF4B55"/>
<path d="M23.9867 15.2375L16.2368 10.2069H14.7169L23.5174 15.9195C23.7812 15.7971 23.9619 15.5407 23.9867 15.2375Z" fill="#FF4B55"/>
<path d="M30.0885 8.31519C29.9253 8.31519 29.7929 8.44747 29.7929 8.61078V19.5467C29.7929 20.4334 30.384 23.389 35.9998 24.2757C41.6156 23.389 42.2067 20.4334 42.2067 19.5467V8.61087C42.2067 8.44765 42.0745 8.31528 41.9111 8.31528L30.0885 8.31519Z" fill="white"/>
<path d="M35.9996 24.2758C40.6875 23.5357 41.8731 21.3546 42.1373 20.1379H29.862C30.1261 21.3545 31.3117 23.5357 35.9996 24.2758Z" fill="#73AF00"/>
<path d="M39.8423 14.5222C39.8423 14.5222 40.1379 14.2266 39.8423 13.6355L36 13.4636L32.1576 13.6355C31.862 14.2266 32.1576 14.5222 32.1576 14.5222C31.862 14.8178 31.862 15.1133 31.862 15.1133H32.4531L33.0935 16.1724L35.9999 17.7733L38.9063 16.1724L39.5467 15.1133H40.1378C40.1379 15.1133 40.1379 14.8178 39.8423 14.5222Z" fill="#82AFFF"/>
<path d="M38.9066 16.1724C38.9066 16.1724 38.7218 15.766 38.2292 15.8153C38.2292 15.8153 37.9583 15.4582 37.5026 15.5566C37.5026 15.5566 36.973 15.2487 36.6652 15.8153C36.6652 15.8153 35.6861 15.7157 35.6338 16.4613C35.6338 16.4613 37.1577 18.7586 37.1948 18.7832C37.2317 18.8079 39.0175 18.7955 39.0175 18.7955L39.8426 17.8851L39.0297 16.7142L38.9066 16.1724Z" fill="white"/>
<path d="M36.0368 16.899C36.0368 16.899 34.7439 14.787 34.5589 14.6083C34.3803 14.4359 34.0293 14.2759 33.6721 14.5714C33.6721 14.5714 32.6007 14.4852 32.7484 15.298L33.0563 16.5296C33.0563 16.5296 32.7853 17.3794 32.6621 17.4656C32.539 17.5518 32.0833 17.7858 32.0833 17.7858L32.342 18.8079L35.7902 18.6355L36.0368 16.899Z" fill="#F0C850"/>
<path d="M37.5269 15.9753L37.5228 15.9771L37.4275 15.752C37.4198 15.7338 37.4052 15.7193 37.3868 15.7121C37.3685 15.7049 37.3481 15.7052 37.3297 15.7132L36.6883 15.9961L35.9253 14.7472C35.9592 14.7181 35.9739 14.6706 35.958 14.6263C35.9373 14.5686 35.8739 14.5386 35.8162 14.5591L35.6462 14.6199L35.5311 14.28C35.518 14.2413 35.4763 14.2211 35.4375 14.2336C35.3988 14.2468 35.378 14.2887 35.3912 14.3274L35.507 14.67L35.3253 14.7351C35.2676 14.7559 35.2376 14.8193 35.2583 14.8768C35.2744 14.9221 35.3172 14.9505 35.3627 14.9505C35.369 14.9505 35.3756 14.9483 35.3821 14.9472L35.6335 16.4616L35.4713 16.533C35.436 16.5487 35.4184 16.589 35.4316 16.6253L35.5235 16.8815C35.5258 16.9246 35.5256 16.9973 35.5109 17.0894L34.4791 15.3195C34.5224 15.2924 34.544 15.2397 34.5261 15.1898C34.5053 15.1321 34.4424 15.1018 34.3844 15.1226L34.2143 15.1835L34.0993 14.8435C34.0863 14.8048 34.0443 14.7841 34.0056 14.7971C33.9669 14.8103 33.9462 14.8523 33.9593 14.891L34.0752 15.2335L33.8934 15.2986C33.8358 15.3194 33.8058 15.3829 33.8265 15.4403C33.8413 15.4817 33.8789 15.5061 33.9198 15.5105L34.3676 18.3055C34.3098 18.3298 34.253 18.3545 34.1894 18.3771C34.1894 18.3771 33.98 19.3747 34.1402 19.424C34.3003 19.4732 35.9505 19.9781 35.9505 19.9781C35.9505 19.9781 38.2288 18.8944 38.2781 18.8698C38.3273 18.8451 38.4259 18.1309 38.4259 18.1309L37.5269 15.9753ZM37.3871 16.0354L37.1963 16.1173L37.1331 15.9614L37.3205 15.8787L37.3871 16.0354ZM36.234 16.3579L36.3908 16.2888L36.4511 16.4374L36.2851 16.5087L36.234 16.3579ZM36.1487 16.5671L35.9633 16.6468L35.905 16.503L36.0983 16.4178L36.1487 16.5671ZM36.5867 16.3791L36.5259 16.2292L36.6935 16.1553L36.7549 16.307L36.5867 16.3791ZM36.8286 16.0957L36.9979 16.021L37.0607 16.1756L36.8906 16.2487L36.8286 16.0957ZM35.7876 14.805L36.5519 16.0562L36.1865 16.2172L35.7173 14.8301L35.7876 14.805ZM35.5238 14.8995L35.578 14.8801L36.0507 16.2773L35.7729 16.3998L35.5238 14.8995ZM35.7698 16.5627L35.8277 16.7053L35.6453 16.7836L35.5939 16.6403L35.7698 16.5627ZM34.34 15.3741L35.4592 17.294C35.4029 17.4568 35.2966 17.6458 35.1102 17.8313L34.2855 15.3935L34.34 15.3741ZM34.0638 15.4731L34.1464 15.4434L34.991 17.9402C34.863 18.0464 34.7037 18.1491 34.5077 18.2431L34.0638 15.4731Z" fill="#965032"/>
<path d="M40.1103 13.1875C40.0318 13.0629 39.7799 13.1163 39.7799 13.1163C39.7799 13.1163 39.708 12.9725 39.518 12.9586C39.3279 12.9447 39.293 13.114 39.293 13.114C39.293 13.114 39.2574 13.0875 39.0481 13.0937C38.8387 13.0999 38.8819 13.4447 38.8819 13.4447C38.8819 13.4447 38.8018 13.4447 38.5309 13.3585C38.2599 13.2723 38.0814 13.3339 38.0814 13.3339C38.0691 13.1922 37.9953 13.0876 37.9953 13.0876C37.7675 13.18 37.5889 13.0753 37.5458 12.9953C37.5027 12.9152 37.6136 12.7921 37.6136 12.6874C37.6136 12.5827 37.4689 12.5874 37.4181 12.495C37.3672 12.4027 37.4181 12.3519 37.552 12.2919C37.686 12.2319 37.8107 12.0101 37.7274 11.83C37.6442 11.65 37.4042 11.6822 37.4042 11.6822C37.4873 11.6961 37.5565 11.8531 37.4227 11.8854C37.2889 11.9176 37.1688 11.4281 37.1688 11.4281C37.4781 11.636 37.7046 11.5113 37.7691 11.3311C37.8338 11.1509 37.6629 11.0263 37.6629 11.0263C37.529 11.2434 37.2981 11.0541 37.4228 10.9155C37.5475 10.777 37.5582 10.5446 37.5582 10.5446C37.2811 10.6801 37.1088 10.5076 37.1088 10.5076C37.4721 10.2552 37.3674 9.89796 37.3674 9.89796C37.2321 9.83637 36.9426 9.88568 36.9426 9.88568C37.0042 9.76249 36.9918 9.54077 36.9918 9.54077C36.8378 9.51612 36.6654 9.61465 36.6654 9.61465C36.7147 9.44233 36.6469 9.14055 36.6469 9.14055C36.5361 9.15912 36.3267 9.22062 36.3267 9.22062C36.2406 9.02355 36.0004 8.90656 36.0004 8.90656C36.0004 8.90656 35.7603 9.02355 35.674 9.22062C35.674 9.22062 35.4647 9.15902 35.3539 9.14055C35.3539 9.14055 35.2861 9.44233 35.3353 9.61465C35.3353 9.61465 35.1629 9.51621 35.009 9.54077C35.009 9.54077 34.9967 9.76249 35.0582 9.88568C35.0582 9.88568 34.7688 9.83646 34.6333 9.89796C34.6333 9.89796 34.5286 10.2551 34.892 10.5076C34.892 10.5076 34.7196 10.68 34.4425 10.5446C34.4425 10.5446 34.4533 10.777 34.5779 10.9155C34.7026 11.0541 34.4717 11.2435 34.3378 11.0263C34.3378 11.0263 34.1669 11.151 34.2316 11.3311C34.2963 11.5112 34.5226 11.6359 34.832 11.4281C34.832 11.4281 34.7119 11.9177 34.578 11.8854C34.4441 11.8531 34.5133 11.6961 34.5966 11.6822C34.5966 11.6822 34.3565 11.6499 34.2733 11.83C34.1902 12.0101 34.3149 12.2319 34.4487 12.2919C34.5827 12.3519 34.6335 12.4027 34.5827 12.495C34.5319 12.5874 34.3871 12.5828 34.3871 12.6874C34.3871 12.7921 34.4979 12.9152 34.4549 12.9953C34.4118 13.0753 34.2332 13.18 34.0055 13.0876C34.0055 13.0876 33.9316 13.1923 33.9193 13.3339C33.9193 13.3339 33.7407 13.2723 33.4699 13.3585C33.1989 13.4447 33.1189 13.4447 33.1189 13.4447C33.1189 13.4447 33.162 13.0999 32.9527 13.0937C32.7433 13.0875 32.7077 13.114 32.7077 13.114C32.7077 13.114 32.6729 12.9447 32.4828 12.9586C32.2928 12.9726 32.2209 13.1163 32.2209 13.1163C32.2209 13.1163 31.9689 13.063 31.8905 13.1875C31.812 13.3122 31.8027 13.5016 31.9505 13.5802C32.0983 13.6587 32.4908 13.9866 32.4908 13.9866L33.0449 14.2267L34.9846 13.3676L36.0006 13.6355L37.0165 13.3676L38.9562 14.2267L39.5104 13.9866C39.5104 13.9866 39.903 13.6586 40.0506 13.5802C40.198 13.5015 40.1888 13.3121 40.1103 13.1875Z" fill="#FF4B55"/>
<path d="M35.395 10.0574C35.395 10.0574 35.4159 10.3183 35.8018 10.2487C35.8017 10.2487 35.7914 9.97747 35.395 10.0574Z" fill="white"/>
<path d="M33.967 20.3596C33.967 20.3596 33.6899 20.3504 33.4036 20.5628C33.1173 20.7752 32.991 20.6244 32.7047 20.6244C32.4184 20.6244 32.3506 20.9231 32.3506 20.9231C32.3506 20.9231 31.7965 21.0616 32.0182 21.468C32.1584 21.7251 32.3534 21.7197 32.4783 21.681C32.472 21.8537 32.5113 22.0435 32.7109 22.0777C33.0897 22.1424 33.2559 21.9391 33.1727 21.6251C33.1727 21.6251 33.2189 21.9483 33.4683 21.9391C33.7177 21.9299 33.884 21.7913 33.8563 21.4588C33.8285 21.1264 34.272 21.3296 34.6136 20.84L33.967 20.3596Z" fill="#FF4B55"/>
<path d="M32.3474 21.548C32.3474 21.548 32.175 21.7758 32.2244 21.9974C32.2244 21.9974 31.855 21.8804 32.052 21.3323C32.0519 21.3324 32.3044 21.2647 32.3474 21.548Z" fill="#82AFFF"/>
<path d="M32.9279 21.8466C32.9279 21.8466 32.8263 22.133 32.9649 22.3869C32.9649 22.3869 32.5031 22.3731 32.5955 21.805C32.5955 21.805 32.7433 21.6527 32.9279 21.8466Z" fill="#82AFFF"/>
<path d="M33.3898 21.8189C33.3898 21.8189 33.4729 22.059 33.3898 22.29C33.3898 22.29 33.7685 22.2669 33.7039 21.7219C33.7038 21.7219 33.5006 21.6481 33.3898 21.8189Z" fill="#82AFFF"/>
<path d="M33.0525 16.2956C33.0175 16.0108 31.2329 15.843 31.3437 17.3425C31.3437 17.3425 31.1457 17.3388 31.0484 17.5231C30.9511 17.7074 30.7424 17.6622 30.6797 17.5961C30.6797 17.5961 30.6936 17.93 31.1074 17.916C31.1074 17.916 30.9765 18.0191 30.995 18.1699C31.0136 18.3206 31.1224 18.5107 31.1156 18.6405C31.1087 18.7703 30.9857 18.9512 30.9857 18.9512C30.9857 18.9512 31.3034 18.8423 31.3242 18.6151C31.3451 18.3879 31.2941 18.1978 31.3566 18.0819C31.3566 18.0819 31.3265 18.2419 31.4679 18.4436C31.6093 18.6454 31.6162 18.891 31.5583 19.044C31.5583 19.044 31.9106 18.8701 31.8434 18.534C31.7761 18.1979 31.7042 18.228 31.7367 18.0402C31.7367 18.0402 32.103 18.4134 32.0404 18.7311C32.0404 18.7311 32.1575 18.5908 32.1471 18.3266C32.1367 18.0624 31.9532 17.8846 31.9532 17.8846C31.9532 17.8846 33.1725 17.2747 33.0525 16.2956Z" fill="#FF4B55"/>
<path d="M38.0329 20.3596C38.0329 20.3596 38.3101 20.3504 38.5963 20.5628C38.8826 20.7752 39.0089 20.6244 39.2952 20.6244C39.5815 20.6244 39.6493 20.9231 39.6493 20.9231C39.6493 20.9231 40.2034 21.0616 39.9817 21.468C39.8415 21.7251 39.6464 21.7197 39.5216 21.681C39.5279 21.8537 39.4886 22.0435 39.289 22.0777C38.9102 22.1424 38.744 21.9391 38.8272 21.6251C38.8272 21.6251 38.781 21.9483 38.5316 21.9391C38.2822 21.9299 38.1159 21.7913 38.1436 21.4588C38.1714 21.1264 37.728 21.3296 37.3863 20.84L38.0329 20.3596Z" fill="#FF4B55"/>
<path d="M39.6526 21.548C39.6526 21.548 39.825 21.7758 39.7757 21.9974C39.7757 21.9974 40.145 21.8804 39.9481 21.3323C39.9481 21.3324 39.6956 21.2647 39.6526 21.548Z" fill="#82AFFF"/>
<path d="M39.072 21.8466C39.072 21.8466 39.1736 22.133 39.0351 22.3869C39.0351 22.3869 39.4969 22.3731 39.4045 21.805C39.4047 21.805 39.2568 21.6527 39.072 21.8466Z" fill="#82AFFF"/>
<path d="M38.6104 21.8189C38.6104 21.8189 38.5273 22.059 38.6104 22.29C38.6104 22.29 38.2317 22.2669 38.2964 21.7219C38.2963 21.7219 38.4996 21.6481 38.6104 21.8189Z" fill="#82AFFF"/>
<path d="M38.9476 16.2956C38.9825 16.0108 40.7672 15.843 40.6563 17.3425C40.6563 17.3425 40.8543 17.3388 40.9516 17.5231C41.049 17.7074 41.2576 17.6622 41.3203 17.5961C41.3203 17.5961 41.3064 17.93 40.8926 17.916C40.8926 17.916 41.0236 18.0191 41.005 18.1699C40.9864 18.3206 40.8774 18.5107 40.8844 18.6405C40.8914 18.7703 41.0143 18.9512 41.0143 18.9512C41.0143 18.9512 40.6967 18.8423 40.6758 18.6151C40.6549 18.3879 40.7059 18.1978 40.6434 18.0819C40.6434 18.0819 40.6735 18.2419 40.5321 18.4436C40.3907 18.6454 40.3838 18.891 40.4417 19.044C40.4417 19.044 40.0894 18.8701 40.1567 18.534C40.2239 18.1979 40.2958 18.228 40.2633 18.0402C40.2633 18.0402 39.8971 18.4134 39.9596 18.7311C39.9596 18.7311 39.8425 18.5908 39.8529 18.3266C39.8633 18.0624 40.0468 17.8846 40.0468 17.8846C40.0468 17.8846 38.8275 17.2747 38.9476 16.2956Z" fill="#FF4B55"/>
<path d="M39.6775 13.7399C39.6096 13.6943 39.5178 13.7133 39.4726 13.7818C39.3792 13.9229 39.256 14.0055 39.0963 14.0341C38.5675 14.1259 37.8051 13.6052 37.5837 13.4424C37.2628 13.2065 36.8664 13.1655 36.6032 13.3276C36.4982 13.3624 36.1772 13.4635 36 13.4635C35.8228 13.4635 35.5018 13.3623 35.3968 13.3276C35.1337 13.1655 34.7372 13.2065 34.4164 13.4424C34.1951 13.6052 33.4326 14.1258 32.9038 14.0341C32.744 14.0055 32.6209 13.923 32.5274 13.7818C32.4823 13.7135 32.3905 13.6945 32.3226 13.7399C32.2545 13.7849 32.2359 13.8768 32.2809 13.9446C32.4194 14.1542 32.6115 14.282 32.8519 14.3249C32.9127 14.3359 32.9747 14.3408 33.0379 14.3408C33.6019 14.3408 34.2401 13.9384 34.5912 13.6807C34.8523 13.489 35.1449 13.4893 35.2768 13.6004C35.31 13.6286 35.3479 13.6732 35.3388 13.7254C35.3339 13.754 35.3151 13.7797 35.2838 13.8013C35.2914 13.756 35.2776 13.7078 35.2426 13.6726C35.1849 13.6149 35.0914 13.6149 35.0337 13.6726C34.9585 13.7474 34.9503 13.8688 35.0136 13.9676C35.0773 14.0666 35.2144 14.139 35.3773 14.0787C35.4601 14.0479 35.5263 13.9889 35.5722 13.9167C35.7968 13.8514 36.0001 13.8509 36.0001 13.8509C36.0001 13.8509 36.2035 13.8513 36.4281 13.9167C36.4739 13.9889 36.5401 14.0479 36.6229 14.0787C36.7858 14.139 36.9229 14.0666 36.9867 13.9676C37.0499 13.8689 37.0418 13.7474 36.9666 13.6726C36.9089 13.6149 36.8154 13.6149 36.7576 13.6726C36.7227 13.7078 36.709 13.756 36.7165 13.8013C36.6852 13.7797 36.6664 13.754 36.6614 13.7254C36.6523 13.6732 36.6902 13.6286 36.7235 13.6004C36.8553 13.4893 37.1479 13.489 37.4091 13.6807C37.7602 13.9385 38.3984 14.3408 38.9624 14.3408C39.0255 14.3408 39.0876 14.3359 39.1484 14.3249C39.3887 14.2819 39.5808 14.154 39.7194 13.9446C39.7642 13.8768 39.7456 13.7849 39.6775 13.7399Z" fill="#FFE15A"/>
<path d="M32.2341 13.9031C32.2341 13.9031 32.2098 13.5728 32.1993 13.465C32.1888 13.3572 31.9872 13.2773 31.9106 13.3851C31.8341 13.4929 31.8134 13.6911 32.2341 13.9031Z" fill="#82AFFF"/>
<path d="M32.3055 13.7971C32.3055 13.7971 32.5965 13.5615 32.5595 13.4369C32.5226 13.3122 32.4441 13.2476 32.3471 13.2846C32.2499 13.3215 32.2039 13.5477 32.3055 13.7971Z" fill="#82AFFF"/>
<path d="M32.8735 13.6123C32.9154 13.5705 32.929 13.3676 32.8135 13.3445C32.6981 13.3214 32.5457 13.5015 32.5549 13.7232C32.5549 13.7231 32.795 13.6909 32.8735 13.6123Z" fill="#82AFFF"/>
<path d="M32.7532 13.7278C32.6193 13.7707 32.49 13.8848 32.49 13.8848C32.49 13.8848 32.7301 14.0603 32.8964 14.0049C33.0627 13.9496 32.9842 13.6539 32.7532 13.7278Z" fill="#82AFFF"/>
<path d="M36.6051 10.0574C36.6051 10.0574 36.5842 10.3183 36.1982 10.2487C36.1982 10.2487 36.2087 9.97747 36.6051 10.0574Z" fill="white"/>
<path d="M39.7658 13.9031C39.7658 13.9031 39.7901 13.5728 39.8006 13.465C39.811 13.3572 40.0127 13.2773 40.0892 13.3851C40.1657 13.4929 40.1866 13.6911 39.7658 13.9031Z" fill="#82AFFF"/>
<path d="M39.6947 13.7971C39.6947 13.7971 39.4037 13.5615 39.4408 13.4369C39.4777 13.3122 39.5562 13.2476 39.6532 13.2846C39.7502 13.3215 39.7963 13.5477 39.6947 13.7971Z" fill="#82AFFF"/>
<path d="M39.1266 13.6123C39.0848 13.5705 39.0712 13.3676 39.1866 13.3445C39.302 13.3214 39.4544 13.5015 39.4452 13.7232C39.4451 13.7231 39.205 13.6909 39.1266 13.6123Z" fill="#82AFFF"/>
<path d="M39.2467 13.7278C39.3807 13.7707 39.5099 13.8848 39.5099 13.8848C39.5099 13.8848 39.2698 14.0603 39.1035 14.0049C38.9371 13.9496 39.0158 13.6539 39.2467 13.7278Z" fill="#82AFFF"/>
<path d="M35.8472 10.672L35.9644 10.7892C35.9841 10.8088 36.0161 10.8088 36.0357 10.7892L36.1528 10.672C36.1846 10.6402 36.1621 10.5859 36.1171 10.5859H35.8827C35.8379 10.5859 35.8155 10.6402 35.8472 10.672Z" fill="#464655"/>
<path d="M35.7859 11.1526C35.699 11.1526 35.6238 11.1215 35.5727 11.0639C35.5198 11.0041 35.4974 10.9219 35.5107 10.8382C35.5155 10.8101 35.5436 10.7932 35.57 10.7954C35.5982 10.8001 35.6173 10.8266 35.6128 10.8549C35.6044 10.9077 35.6179 10.9587 35.65 10.9951C35.6832 11.0323 35.7339 11.0497 35.7962 11.0488C35.9261 11.0437 35.9479 10.9166 35.9488 10.9115L35.9482 10.6796C35.9482 10.6511 35.9712 10.628 35.9998 10.628C36.0284 10.628 36.0515 10.6511 36.0515 10.6796V10.9196C36.0389 11.0024 35.9712 11.1453 35.8002 11.1522C35.7956 11.1526 35.7907 11.1526 35.7859 11.1526Z" fill="#464655"/>
<path d="M36.2143 11.1526C36.2095 11.1526 36.2046 11.1526 36.1996 11.1523C36.0286 11.1454 35.9609 11.0025 35.9489 10.9277L35.9483 10.6797C35.9483 10.6511 35.9713 10.6281 35.9999 10.6281C36.0285 10.6281 36.0516 10.6511 36.0516 10.6797V10.9196C36.0534 10.9248 36.0776 11.044 36.2036 11.0489C36.2676 11.05 36.3164 11.0331 36.3497 10.9952C36.3819 10.9588 36.3955 10.9078 36.3869 10.855C36.3825 10.8267 36.4016 10.8001 36.4298 10.7955C36.4568 10.7921 36.4845 10.81 36.489 10.8383C36.5024 10.922 36.4799 11.0042 36.4272 11.064C36.3763 11.1215 36.3012 11.1526 36.2143 11.1526Z" fill="#464655"/>
<path d="M37.7733 18.6601C37.7733 18.6601 37.4039 18.069 36.9728 18.463C36.5418 18.8572 36.3817 19.3375 35.8891 19.3004C35.6188 19.2802 35.4807 19.1567 35.409 19.0488C35.5399 18.9411 35.6327 18.7775 35.532 18.5368C35.3103 18.0072 34.4976 18.1675 34.2758 18.7462C34.2758 18.7462 34.5345 17.8964 33.6354 18.1797C33.6354 18.1797 33.5246 17.5886 33.0074 17.7487C32.7262 17.8358 32.6221 18.0088 32.5835 18.1498C32.4746 18.1245 32.3348 18.1253 32.2069 18.229L32.8596 19.99L33.8448 20.0023L34.0665 20.3348L35.3596 21.1476L35.5936 21.6402H36.4064C36.4064 21.6402 36.468 21.1353 36.8991 20.9875C37.3301 20.8397 38.032 20.5318 38.106 20.2609C38.1799 19.99 38.1799 19.99 38.1799 19.99L38.968 20.0022C39.0542 19.9406 39.6331 18.9924 39.6331 18.9924L39.9018 17.7711C39.7534 17.7498 38.0559 17.5296 37.7733 18.6601Z" fill="white"/>
<path d="M39.9036 17.761L39.9014 17.7713C39.9082 17.7722 39.916 17.7734 39.916 17.7734L39.9036 17.761Z" fill="white"/>
<path d="M34.5397 20.5483C34.2204 20.4196 34.1064 20.2392 34.0669 20.1431C34.0303 20.0543 34.0375 19.9913 34.0475 19.9682C34.0679 19.9211 34.0925 19.8911 34.1155 19.8853C34.1372 19.8802 34.1645 19.8925 34.1695 19.8956C34.1798 19.9074 34.1854 19.9449 34.1754 19.9542C34.116 20.0102 34.1133 20.1037 34.1691 20.1632C34.2253 20.2226 34.3185 20.2253 34.3781 20.1695C34.4389 20.1124 34.4737 20.0324 34.4761 19.9444C34.4789 19.8501 34.4443 19.7559 34.384 19.6924C34.3234 19.6283 34.1992 19.57 34.0669 19.5937C34.0396 19.5984 34.0088 19.6096 33.9774 19.6248C33.9981 19.42 33.9192 19.3152 33.8613 19.2729C33.7639 19.2022 33.6252 19.2006 33.5085 19.2689C33.3891 19.339 33.3246 19.4618 33.3404 19.5888C33.3505 19.6699 33.4318 19.7184 33.5111 19.7075C33.5921 19.6976 33.6558 19.614 33.6458 19.5332C33.6626 19.5179 33.6846 19.5128 33.6839 19.5092C33.6842 19.5095 33.7037 19.5418 33.6801 19.6461C33.6433 19.8094 33.557 19.9099 33.4233 19.9451C33.2569 19.9911 33.0437 19.9209 32.9177 19.7826C32.7425 19.5897 32.3757 18.5665 32.1576 17.885C33.0924 17.4416 33.2073 16.705 33.1895 16.2946C33.1625 15.6694 32.7885 15.0297 32.3725 14.8978C32.2088 14.8462 31.9637 14.8355 31.7857 14.9273C31.685 14.9799 31.615 15.0603 31.5835 15.1604C31.5193 15.3647 31.6478 15.5336 31.8016 15.5888C31.9608 15.6459 32.1215 15.5771 32.1832 15.4251C32.2139 15.3494 32.1804 15.2629 32.1049 15.2322C32.0288 15.2008 31.9461 15.2377 31.9156 15.313C31.9094 15.3164 31.8889 15.3087 31.8736 15.2914C31.8625 15.2786 31.8602 15.2663 31.8656 15.2493C31.8705 15.2336 31.8816 15.2106 31.9223 15.1895C32.0189 15.139 32.1803 15.1467 32.2835 15.1794C32.5215 15.2546 32.869 15.7203 32.8943 16.3071C32.9094 16.6578 32.803 17.3006 31.9205 17.6669C31.8497 17.6964 31.8132 17.7746 31.8361 17.8477C31.8937 18.0321 32.4078 19.6609 32.699 19.9809C32.8556 20.1533 33.0923 20.2534 33.3187 20.2534C33.38 20.2534 33.4407 20.2462 33.4987 20.2308C33.5975 20.2046 33.6799 20.1537 33.7516 20.0898C33.7587 20.144 33.7713 20.1995 33.7941 20.255C33.8512 20.3941 34.0098 20.6528 34.4523 20.8311C35.3473 21.1901 35.4323 21.4302 35.4274 21.5171C35.4247 21.5648 35.3974 21.5895 35.3752 21.602C35.3656 21.6075 35.356 21.6109 35.3478 21.6129C35.3808 21.5677 35.3868 21.5056 35.3577 21.4533C35.3178 21.382 35.228 21.3565 35.1567 21.3964C35.0561 21.4526 34.986 21.5852 35.0461 21.73C35.0929 21.8426 35.2027 21.9108 35.3295 21.9108C35.3498 21.9108 35.3706 21.909 35.3916 21.9053C35.5757 21.8741 35.7116 21.7214 35.7225 21.5341C35.7478 21.0862 35.0721 20.7621 34.5397 20.5483Z" fill="#FFE15A"/>
<path d="M37.46 20.5483C37.7793 20.4196 37.8933 20.2392 37.9328 20.1431C37.9695 20.0543 37.9623 19.9913 37.9522 19.9682C37.9319 19.9211 37.9072 19.8911 37.8842 19.8853C37.8626 19.8802 37.8352 19.8925 37.8302 19.8956C37.8199 19.9074 37.8144 19.9449 37.8243 19.9542C37.8839 20.0102 37.8865 20.1037 37.8306 20.1632C37.7745 20.2226 37.6813 20.2253 37.6217 20.1695C37.5609 20.1124 37.526 20.0324 37.5237 19.9444C37.521 19.8501 37.5555 19.7559 37.6157 19.6924C37.6763 19.6283 37.8005 19.57 37.9329 19.5937C37.9602 19.5984 37.9909 19.6096 38.0223 19.6248C38.0016 19.42 38.0806 19.3152 38.1385 19.2729C38.2359 19.2022 38.3746 19.2006 38.4913 19.2689C38.6106 19.339 38.6751 19.4618 38.6594 19.5888C38.6492 19.6699 38.568 19.7184 38.4887 19.7075C38.4077 19.6976 38.344 19.614 38.3539 19.5332C38.3372 19.5179 38.3151 19.5128 38.3159 19.5092C38.3156 19.5095 38.2961 19.5418 38.3196 19.6461C38.3565 19.8094 38.4428 19.9099 38.5765 19.9451C38.7429 19.9911 38.9561 19.9209 39.0821 19.7826C39.2573 19.5897 39.6241 18.5665 39.8421 17.885C38.9073 17.4416 38.7925 16.705 38.8102 16.2946C38.8372 15.6694 39.2113 15.0297 39.6272 14.8978C39.7909 14.8462 40.0361 14.8355 40.214 14.9273C40.3148 14.9799 40.3847 15.0603 40.4162 15.1604C40.4805 15.3647 40.3519 15.5336 40.1982 15.5888C40.039 15.6459 39.8783 15.5771 39.8165 15.4251C39.7859 15.3494 39.8193 15.2629 39.8949 15.2322C39.9709 15.2008 40.0537 15.2377 40.0842 15.313C40.0904 15.3164 40.1109 15.3087 40.1262 15.2914C40.1372 15.2786 40.1396 15.2663 40.1342 15.2493C40.1293 15.2336 40.1181 15.2106 40.0774 15.1895C39.9809 15.139 39.8194 15.1467 39.7163 15.1794C39.4783 15.2546 39.1307 15.7203 39.1054 16.3071C39.0903 16.6578 39.1967 17.3006 40.0793 17.6669C40.1501 17.6964 40.1866 17.7746 40.1637 17.8477C40.106 18.0321 39.592 19.6609 39.3008 19.9809C39.1442 20.1533 38.9074 20.2534 38.681 20.2534C38.6197 20.2534 38.5591 20.2462 38.501 20.2308C38.4023 20.2046 38.3199 20.1537 38.2482 20.0898C38.2411 20.144 38.2285 20.1995 38.2056 20.255C38.1485 20.3941 37.99 20.6528 37.5475 20.8311C36.6525 21.1901 36.5674 21.4302 36.5723 21.5171C36.5751 21.5648 36.6023 21.5895 36.6245 21.602C36.6342 21.6075 36.6437 21.6109 36.6519 21.6129C36.6189 21.5677 36.6129 21.5056 36.6421 21.4533C36.6819 21.382 36.7717 21.3565 36.8431 21.3964C36.9437 21.4526 37.0138 21.5852 36.9537 21.73C36.9068 21.8426 36.797 21.9108 36.6703 21.9108C36.6499 21.9108 36.6291 21.909 36.6081 21.9053C36.4241 21.8741 36.2882 21.7214 36.2773 21.5341C36.2519 21.0862 36.9276 20.7621 37.46 20.5483Z" fill="#FFE15A"/>
</g>
<defs>
<clipPath id="clip0_11_2008">
<rect width="48" height="32" fill="white"/>
</clipPath>
</defs>
</svg>
