<svg width="48" height="32" viewBox="0 0 48 32" fill="none" xmlns="http://www.w3.org/2000/svg">
<g clip-path="url(#clip0_11_2698)">
<path d="M47.1723 31.7241H0.827623C0.370593 31.7241 0 31.3535 0 30.8964V1.10349C0 0.646456 0.370593 0.275864 0.827623 0.275864H47.1724C47.6294 0.275864 48 0.646456 48 1.10349V30.8964C47.9999 31.3536 47.6293 31.7241 47.1723 31.7241Z" fill="#FFE15A"/>
<path d="M0 1.1035V6.06896L47.9999 25.931V20.1379L0.372937 0.430283C0.153281 0.57897 0 0.818126 0 1.1035Z" fill="white"/>
<path d="M0 11.8621L47.6269 31.5697C47.8465 31.4209 47.9998 31.1817 47.9998 30.8965V25.931L0 6.06897V11.8621Z" fill="#464655"/>
<path d="M28.6486 14.5306L28.6492 14.5071C28.6492 14.5071 28.6383 14.3938 28.6175 14.1811C28.6113 14.0748 28.5868 13.9453 28.5545 13.7944C28.5296 13.6422 28.4814 13.4719 28.4195 13.2841C28.2952 12.9112 28.1039 12.4661 27.7735 12.0351C27.7336 11.9819 27.6863 11.9293 27.6428 11.8763C27.8302 11.6614 28.013 11.4115 28.1855 11.1099C28.1855 11.1099 27.2405 11.1532 26.1791 10.6901C25.8288 10.5077 25.4482 10.3579 25.0309 10.2599L24.8329 9.46798C24.7905 9.29867 24.6382 9.17979 24.4638 9.17979H24.19V8.79935H25.5218L25.1414 8.03829L25.5218 7.27723H24.19V6.8967H23.8094V9.17979H23.5356C23.361 9.17979 23.2088 9.29867 23.1666 9.46798L22.9729 10.2428C22.7158 10.2976 22.4598 10.367 22.2112 10.4727C22.0079 10.5541 21.8112 10.6561 21.6192 10.7703C20.643 11.145 19.8139 11.11 19.8139 11.11C19.9862 11.4114 20.1687 11.6613 20.356 11.876C20.3181 11.9222 20.276 11.9636 20.2392 12.011C19.98 12.3631 19.773 12.7589 19.615 13.1792C19.4647 13.5873 19.3793 14.1052 19.3507 14.4839L19.35 14.85C19.3461 14.9649 19.3593 15.0788 19.3714 15.1931C19.3864 15.4234 19.4373 15.6483 19.4853 15.8748C19.604 16.3208 19.7776 16.7548 20.0143 17.1532C20.4881 17.9513 21.2107 18.5805 22.021 18.9706C22.4396 19.155 22.8351 19.2955 23.3069 19.3625C23.5582 19.4093 23.7148 19.4086 23.901 19.4248L23.9348 19.4272L23.9518 19.4284L24.007 19.4298L24.0862 19.4266L24.2441 19.4194C24.3489 19.4124 24.4537 19.4137 24.5564 19.3984C25.3844 19.3076 26.1307 18.9857 26.7135 18.5676C27.2961 18.1422 27.7146 17.6233 28.0013 17.1287C28.2925 16.6336 28.4427 16.1545 28.5353 15.7621C28.5796 15.5661 28.6125 15.3871 28.6245 15.2187C28.6433 15.052 28.6543 14.9155 28.6493 14.8263C28.649 14.6334 28.6486 14.5306 28.6486 14.5306ZM21.7328 17.2123C21.4685 17.0062 21.2295 16.7606 21.0116 16.4897C20.8019 16.2123 20.6344 15.8993 20.5028 15.5666C20.3788 15.241 20.3106 14.8496 20.277 14.5306C20.2677 14.0878 20.2884 13.7858 20.373 13.4083C20.4651 13.0497 20.5996 12.6987 20.7866 12.3749C20.7975 12.3561 20.8122 12.3402 20.8234 12.3217C21.6884 12.9975 22.6017 12.9494 23.2386 12.6214V13.3656C23.4487 13.3656 23.6191 13.7915 23.6191 14.3169C23.6191 14.8423 23.4487 15.2682 23.2386 15.2682V15.6486C23.9524 16.6001 23.6249 17.403 23.1863 17.8711C22.9873 17.8278 22.7808 17.7697 22.5876 17.6937C22.2881 17.5773 22.0036 17.4094 21.7328 17.2123ZM27.7219 14.4878C27.7212 14.4934 27.7111 14.5912 27.6918 14.7777C27.686 14.8817 27.663 14.9801 27.6365 15.0891C27.6175 15.1991 27.5773 15.3322 27.5256 15.4832C27.4226 15.7788 27.2676 16.1319 26.9982 16.4702C26.7349 16.8094 26.3796 17.1445 25.9365 17.4067C25.5996 17.6067 25.2036 17.742 24.7851 17.8381C24.3614 17.3658 24.063 16.5792 24.761 15.6487V15.2683C24.5509 15.2683 24.3805 14.8424 24.3805 14.317C24.3805 13.7916 24.5509 13.3657 24.761 13.3657V12.6215C25.3986 12.9499 26.3134 12.9978 27.1793 12.3196C27.1941 12.3445 27.2122 12.3698 27.2262 12.3946C27.4565 12.7969 27.5703 13.1839 27.6416 13.499C27.6756 13.6581 27.7007 13.8001 27.7066 13.9262C27.7197 14.0509 27.7293 14.1565 27.7238 14.2434C27.7225 14.3909 27.722 14.4656 27.7219 14.4878Z" fill="#FF4B55"/>
<path d="M23.9998 20.215C22.5948 20.215 21.3204 19.6677 20.3692 18.7782C20.1945 18.615 19.9183 18.6348 19.7626 18.8163L18.3056 20.5162C18.1507 20.697 18.2791 20.9761 18.517 20.9761H19.4334L20.655 21.587C20.8267 21.6728 21.0354 21.6173 21.1419 21.4577L21.5351 20.8678C22.295 21.1814 23.1267 21.3566 23.9998 21.3566C24.8728 21.3566 25.7045 21.1814 26.4644 20.8678L26.8576 21.4577C26.964 21.6174 27.1727 21.6727 27.3445 21.587L28.5661 20.9761H29.4825C29.7205 20.9761 29.8489 20.697 29.6939 20.5162L28.2369 18.8163C28.0812 18.6347 27.805 18.615 27.6303 18.7782C26.6794 19.6677 25.4051 20.215 23.9998 20.215Z" fill="#FF4B55"/>
<path d="M18.6725 18.6929H16.7699L17.1503 15.2681C17.1503 15.2681 15.8184 14.6021 15.9579 12.6472C15.9749 12.4095 16.1759 12.2238 16.4142 12.2238H16.739C16.9632 12.2238 17.1512 12.3864 17.1883 12.6076C17.2684 13.0848 17.5175 13.8683 18.2919 14.1265L18.6725 18.6929Z" fill="#FF4B55"/>
<path d="M29.3271 18.6929H31.2298L30.8493 15.2681C30.8493 15.2681 32.1812 14.6021 32.0417 12.6472C32.0248 12.4095 31.8238 12.2238 31.5855 12.2238H31.2607C31.0365 12.2238 30.8485 12.3864 30.8114 12.6076C30.7313 13.0848 30.4822 13.8683 29.7077 14.1265L29.3271 18.6929Z" fill="#FF4B55"/>
<path d="M18.8627 19.0734H16.5796C16.4745 19.0734 16.3894 18.9883 16.3894 18.8832C16.3894 18.7781 16.4745 18.6929 16.5796 18.6929H18.8627C18.9678 18.6929 19.0529 18.7781 19.0529 18.8832C19.0529 18.9882 18.9677 19.0734 18.8627 19.0734Z" fill="#FFE15A"/>
<path d="M31.4201 19.0734H29.137C29.0319 19.0734 28.9468 18.9883 28.9468 18.8832C28.9468 18.7781 29.0319 18.6929 29.137 18.6929H31.4201C31.5252 18.6929 31.6103 18.7781 31.6103 18.8832C31.6103 18.9882 31.5252 19.0734 31.4201 19.0734Z" fill="#FFE15A"/>
</g>
<defs>
<clipPath id="clip0_11_2698">
<rect width="48" height="32" fill="white"/>
</clipPath>
</defs>
</svg>
