<svg width="48" height="32" viewBox="0 0 48 32" fill="none" xmlns="http://www.w3.org/2000/svg">
<g clip-path="url(#clip0_11_3327)">
<path d="M0 21.2413H47.9999V30.8965C47.9999 31.3535 47.6293 31.7241 47.1723 31.7241H0.827623C0.370593 31.7241 0 31.3535 0 30.8965V21.2413Z" fill="#73AF00"/>
<path d="M0.827623 0.27597H47.1724C47.6294 0.27597 48 0.646563 48 1.10359V10.7587H0V1.10359C0 0.646563 0.370593 0.27597 0.827623 0.27597Z" fill="#FF4B55"/>
<path d="M47.9999 10.7583H0V21.2405H47.9999V10.7583Z" fill="#FFE15A"/>
<path d="M22.931 11.3083C22.931 11.3083 22.9097 11.335 22.8698 11.3849C22.8365 11.4311 22.7865 11.5019 22.732 11.5962C22.6246 11.7836 22.512 12.0742 22.5089 12.4205C22.5077 12.5893 22.5426 12.7944 22.6002 12.9574C22.6626 13.1374 22.7662 13.3095 22.8972 13.4633C23.0283 13.6184 23.2035 13.738 23.391 13.8264C23.4839 13.8735 23.5859 13.9006 23.687 13.9255C23.7372 13.9408 23.7906 13.9416 23.8421 13.9517C23.868 13.9566 23.8948 13.9544 23.9209 13.9565L23.9605 13.9583L23.9803 13.9593L23.9901 13.9599L23.9951 13.9601L23.9975 13.9602C23.9895 13.9605 24.0188 13.9599 23.9803 13.9609C24.0444 13.9571 24.1222 13.9567 24.1751 13.9502C24.2212 13.9394 24.26 13.9413 24.3129 13.9256C24.4141 13.9007 24.516 13.8736 24.6089 13.8265C24.7963 13.7381 24.9716 13.6185 25.1027 13.4634C25.2337 13.3096 25.3373 13.1375 25.3997 12.9575C25.4595 12.7744 25.4915 12.5992 25.491 12.4197C25.4881 12.0749 25.3754 11.7834 25.268 11.5961C25.2138 11.5022 25.1637 11.4309 25.1279 11.3828C25.0908 11.3354 25.071 11.31 25.071 11.31L25.0661 11.3037C25.0304 11.2582 25.0384 11.1925 25.084 11.1567C25.12 11.1286 25.1687 11.1278 25.205 11.151C25.205 11.151 25.2356 11.1706 25.2929 11.2073C25.347 11.248 25.431 11.3054 25.5215 11.3984C25.7031 11.5782 25.9388 11.8985 26.0238 12.3639C26.0659 12.5866 26.0705 12.8561 26.0125 13.1209C25.9562 13.3885 25.8421 13.6651 25.6579 13.9072C25.477 14.1504 25.2339 14.3654 24.9449 14.5105C24.8023 14.5865 24.6471 14.6417 24.4879 14.6801C24.4116 14.7025 24.3148 14.7118 24.2285 14.7254C24.1477 14.7343 24.0902 14.7345 24.0198 14.7395L23.9925 14.7396L23.9848 14.7392L23.9694 14.7385L23.9386 14.7369L23.877 14.7336C23.8361 14.7303 23.7949 14.7309 23.7543 14.7238C23.6734 14.7096 23.5911 14.7029 23.5122 14.6801C23.353 14.6418 23.1977 14.5865 23.0552 14.5105C22.7662 14.3654 22.5231 14.1503 22.3422 13.9072C22.158 13.665 22.044 13.3884 21.9876 13.1209C21.9274 12.8359 21.9349 12.5963 21.9764 12.363C22.0612 11.8991 22.2971 11.5777 22.4786 11.3982C22.5687 11.3056 22.653 11.2476 22.7095 11.205C22.7639 11.1709 22.7929 11.1526 22.7929 11.1526C22.8422 11.1217 22.9073 11.1365 22.9382 11.1858C22.9626 11.225 22.9582 11.2742 22.931 11.3083Z" fill="#73AF00"/>
<path d="M23.7918 19.5499V20.8597C23.7918 20.9904 23.6339 21.0558 23.5415 20.9635L23.4694 20.8914C23.4095 20.8315 23.3759 20.7503 23.3759 20.6656V19.5499H23.7918Z" fill="#FF4B55"/>
<path d="M23.168 19.342V20.2927C23.168 20.3498 23.1907 20.4047 23.2311 20.4451L23.376 20.5899V19.342H23.168Z" fill="#FFE15A"/>
<path d="M22.9599 19.342V19.8522C22.9599 19.925 22.9889 19.9949 23.0402 20.0463L23.1678 20.1739V19.342H22.9599Z" fill="#73AF00"/>
<path d="M24.2081 19.5499V20.8597C24.2081 20.9904 24.3661 21.0558 24.4584 20.9635L24.5305 20.8914C24.5904 20.8315 24.6241 20.7503 24.6241 20.6656V19.5499H24.2081Z" fill="#FF4B55"/>
<path d="M24.832 19.342V20.2927C24.832 20.3498 24.8093 20.4047 24.7689 20.4451L24.6241 20.5899V19.342H24.832Z" fill="#FFE15A"/>
<path d="M25.0398 19.342V19.8522C25.0398 19.925 25.0108 19.9949 24.9595 20.0463L24.8319 20.1739V19.342H25.0398Z" fill="#73AF00"/>
<path d="M25.0396 15.5982L27.3274 13.9343V17.356C27.3274 18.338 26.5314 19.1339 25.5495 19.1339C25.2164 19.1339 24.8898 19.0402 24.6073 18.8637L23.3759 18.094V15.5693L25.0396 15.5982Z" fill="#FF4B55"/>
<path d="M26.4959 14.5396V16.9403C26.4959 17.9222 25.6999 18.7182 24.718 18.7182C24.5704 18.7182 24.4249 18.6969 24.283 18.661L23.3762 18.0942V15.5695L25.04 15.5983L26.4959 14.5396Z" fill="#FFE15A"/>
<path d="M25.872 14.9932V16.543C25.872 17.5249 25.076 18.3208 24.0941 18.3208C23.9465 18.3208 23.8009 18.2995 23.6591 18.2636L23.3762 18.0868V15.5694L25.04 15.5982L25.872 14.9932Z" fill="#73AF00"/>
<path d="M27.4523 13.56L28.3675 13.1025L27.7018 13.9344H27.3275L27.4523 13.56Z" fill="white"/>
<path d="M26.2875 16.638L28.5753 14.9742V18.3958C28.5753 19.3778 27.7793 20.1737 26.7974 20.1737C26.4642 20.1737 26.1377 20.08 25.8551 19.9035L24.6237 19.1338V16.6093L26.2875 16.638Z" fill="#FF4B55"/>
<path d="M27.1199 16.0331V17.5829C27.1199 18.5649 26.3238 19.3608 25.342 19.3608C25.1943 19.3608 25.0488 19.3395 24.907 19.3036L24.6241 19.1268V16.6093L26.2879 16.6382L27.1199 16.0331Z" fill="#73AF00"/>
<path d="M28.7002 14.5998L29.6153 14.1422L28.9497 14.9742H28.5754L28.7002 14.5998Z" fill="white"/>
<path d="M25.6637 16.2221L27.9515 14.5582V17.9799C27.9515 18.9618 27.1555 19.7577 26.1736 19.7577C25.8405 19.7577 25.5139 19.6641 25.2314 19.4875L24 18.7179V16.1932L25.6637 16.2221Z" fill="#FF4B55"/>
<path d="M27.1196 15.1634V17.5641C27.1196 18.546 26.3236 19.3419 25.3418 19.3419C25.1941 19.3419 25.0486 19.3207 24.9068 19.2847L23.9998 18.718V16.1933L25.6637 16.2222L27.1196 15.1634Z" fill="#FFE15A"/>
<path d="M26.4956 15.6172V17.167C26.4956 18.1489 25.6996 18.9448 24.7178 18.9448C24.5701 18.9448 24.4246 18.9235 24.2828 18.8876L23.9998 18.7109V16.1935L25.6637 16.2223L26.4956 15.6172Z" fill="#73AF00"/>
<path d="M28.0765 14.1839L28.9916 13.7263L28.326 14.5582H27.9517L28.0765 14.1839Z" fill="white"/>
<path d="M22.9602 15.5982L20.6724 13.9343V17.356C20.6724 18.338 21.4684 19.1339 22.4503 19.1339C22.7835 19.1339 23.11 19.0402 23.3926 18.8637L24.624 18.094V15.5693L22.9602 15.5982Z" fill="#FF4B55"/>
<path d="M21.5042 14.5396V16.9403C21.5042 17.9222 22.3002 18.7182 23.2821 18.7182C23.4297 18.7182 23.5752 18.6969 23.7171 18.661L24.6239 18.0942V15.5695L22.9601 15.5983L21.5042 14.5396Z" fill="#FFE15A"/>
<path d="M22.128 14.9932V16.543C22.128 17.5249 22.924 18.3208 23.9058 18.3208C24.0535 18.3208 24.1991 18.2995 24.3408 18.2636L24.6238 18.0868V15.5694L22.9599 15.5982L22.128 14.9932Z" fill="#73AF00"/>
<path d="M20.5473 13.56L19.6322 13.1025L20.2979 13.9344H20.6721L20.5473 13.56Z" fill="white"/>
<path d="M21.7123 16.638L19.4245 14.9742V18.3958C19.4245 19.3778 20.2206 20.1737 21.2024 20.1737C21.5356 20.1737 21.8621 20.08 22.1447 19.9035L23.3761 19.1338V16.6093L21.7123 16.638Z" fill="#FF4B55"/>
<path d="M20.8801 16.0331V17.5829C20.8801 18.5649 21.6761 19.3608 22.658 19.3608C22.8056 19.3608 22.9511 19.3395 23.093 19.3036L23.3759 19.1268V16.6093L21.7121 16.6382L20.8801 16.0331Z" fill="#73AF00"/>
<path d="M19.2995 14.5998L18.3844 14.1422L19.05 14.9742H19.4242L19.2995 14.5998Z" fill="white"/>
<path d="M22.336 16.2221L20.0482 14.5582V17.9799C20.0482 18.9618 20.8442 19.7577 21.8261 19.7577C22.1593 19.7577 22.4858 19.6641 22.7683 19.4875L23.9997 18.7179V16.1932L22.336 16.2221Z" fill="#FF4B55"/>
<path d="M20.8801 15.1634V17.5641C20.8801 18.546 21.6762 19.3419 22.658 19.3419C22.8057 19.3419 22.9512 19.3207 23.093 19.2847L23.9998 18.7179V16.1932L22.336 16.2221L20.8801 15.1634Z" fill="#FFE15A"/>
<path d="M21.5042 15.6172V17.167C21.5042 18.1489 22.3002 18.9448 23.2821 18.9448C23.4297 18.9448 23.5752 18.9235 23.7171 18.8876L24 18.7108V16.1934L22.3361 16.2222L21.5042 15.6172Z" fill="#73AF00"/>
<path d="M21.2761 19.3144L21.0019 19.0402C20.8357 18.874 20.8401 18.603 21.0118 18.4423L25.5509 14.177L26.1392 14.7653L21.874 19.3044C21.7134 19.4763 21.4424 19.4808 21.2761 19.3144Z" fill="#FFBE5A"/>
<path d="M21.1397 19.3853C21.2545 19.3853 21.3476 19.2922 21.3476 19.1774C21.3476 19.0625 21.2545 18.9694 21.1397 18.9694C21.0248 18.9694 20.9317 19.0625 20.9317 19.1774C20.9317 19.2922 21.0248 19.3853 21.1397 19.3853Z" fill="#FFBE5A"/>
<path d="M25.9926 14.3247C25.8302 14.1622 25.6327 14.0964 25.5515 14.1776C25.4703 14.2588 25.5362 14.4563 25.6986 14.6187C25.861 14.7811 26.0585 14.8469 26.1397 14.7657C26.2209 14.6845 26.155 14.4871 25.9926 14.3247Z" fill="white"/>
<path d="M26.7234 19.3144L26.9976 19.0402C27.1638 18.874 27.1594 18.603 26.9877 18.4423L22.4486 14.177L21.8603 14.7653L26.1255 19.3044C26.2862 19.4763 26.5572 19.4808 26.7234 19.3144Z" fill="#FFBE5A"/>
<path d="M26.8603 19.3853C26.9751 19.3853 27.0682 19.2922 27.0682 19.1774C27.0682 19.0625 26.9751 18.9694 26.8603 18.9694C26.7454 18.9694 26.6523 19.0625 26.6523 19.1774C26.6523 19.2922 26.7454 19.3853 26.8603 19.3853Z" fill="#FFBE5A"/>
<path d="M22.3022 14.6189C22.4647 14.4565 22.5305 14.2591 22.4493 14.1779C22.3681 14.0966 22.1706 14.1625 22.0082 14.3249C21.8458 14.4873 21.7799 14.6848 21.8611 14.766C21.9423 14.8472 22.1398 14.7813 22.3022 14.6189Z" fill="white"/>
<path d="M24.0001 19.1346C25.0158 19.1346 25.8391 18.1568 25.8391 16.9508C25.8391 15.7447 25.0158 14.7669 24.0001 14.7669C22.9845 14.7669 22.1611 15.7447 22.1611 16.9508C22.1611 18.1568 22.9845 19.1346 24.0001 19.1346Z" fill="#FFBE5A"/>
<path d="M23.9997 14.9742L24.0974 15.3979L24.3211 15.0251L24.283 15.4582L24.611 15.1728L24.4409 15.5729L24.8411 15.4029L24.5556 15.7309L24.9887 15.6928L24.616 15.9165L25.0396 16.0141L24.616 16.1117L24.9887 16.3355L24.5556 16.2974L24.8411 16.6253L24.4409 16.4553L24.611 16.8554L24.283 16.5701L24.3211 17.0031L24.0974 16.6303L23.9997 17.054L23.9022 16.6303L23.6784 17.0031L23.7165 16.5701L23.3885 16.8554L23.5585 16.4553L23.1585 16.6253L23.4438 16.2974L23.0108 16.3355L23.3835 16.1117L22.9599 16.0141L23.3835 15.9165L23.0108 15.6928L23.4438 15.7309L23.1585 15.4029L23.5585 15.5729L23.3885 15.1728L23.7165 15.4582L23.6784 15.0251L23.9022 15.3979L23.9997 14.9742Z" fill="#FF4B55"/>
<path d="M26.3005 16.9111C26.3005 16.9111 25.6115 17.093 25.1631 16.7161C24.6647 16.2971 24.291 16.0993 24.1309 16.025C24.0761 15.9996 24.0148 15.9996 23.9598 16.0249C23.8451 16.0779 23.6339 16.1877 23.4472 16.3521C23.1742 16.5927 22.3358 17.0671 22.1669 17.0671V18.101L23.4862 19.2444L25.0461 19.1988L26.3005 16.9111Z" fill="#73AF00"/>
<path d="M24 19.6539C22.6811 19.6539 21.6082 18.441 21.6082 16.9502C21.6082 15.4594 22.681 14.2464 24 14.2464C25.319 14.2464 26.3918 15.4594 26.3918 16.9502C26.3918 18.441 25.3189 19.6539 24 19.6539ZM24 14.8703C23.0252 14.8703 22.2322 15.8034 22.2322 16.9502C22.2322 18.0969 23.0252 19.03 24 19.03C24.9748 19.03 25.7678 18.0969 25.7678 16.9502C25.7678 15.8034 24.9748 14.8703 24 14.8703Z" fill="#3CC8FF"/>
<path d="M23.6416 19.0888L23.6874 19.2261L23.8323 19.2273C23.851 19.2274 23.8587 19.2514 23.8437 19.2624L23.7273 19.3485L23.771 19.4866C23.7767 19.5045 23.7563 19.5193 23.741 19.5083L23.6231 19.4241L23.5053 19.5083C23.4901 19.5192 23.4697 19.5044 23.4753 19.4866L23.519 19.3485L23.4025 19.2624C23.3874 19.2513 23.3952 19.2274 23.414 19.2273L23.5588 19.2261L23.6047 19.0888C23.6106 19.071 23.6357 19.071 23.6416 19.0888Z" fill="#FFBE5A"/>
<path d="M22.9915 18.8094L23.0373 18.9467L23.1822 18.9479C23.2009 18.948 23.2086 18.972 23.1936 18.983L23.0772 19.0691L23.1209 19.2072C23.1266 19.2251 23.1062 19.2399 23.0909 19.2289L22.973 19.1447L22.8552 19.2289C22.84 19.2398 22.8196 19.225 22.8252 19.2072L22.8689 19.0691L22.7524 18.983C22.7373 18.9719 22.7451 18.948 22.7639 18.9479L22.9087 18.9467L22.9546 18.8094C22.9605 18.7916 22.9856 18.7916 22.9915 18.8094Z" fill="#FFBE5A"/>
<path d="M22.4693 18.3347L22.5151 18.4721L22.66 18.4732C22.6787 18.4733 22.6864 18.4973 22.6714 18.5084L22.555 18.5944L22.5986 18.7325C22.6044 18.7504 22.5839 18.7652 22.5686 18.7542L22.4508 18.6701L22.333 18.7542C22.3178 18.7651 22.2973 18.7503 22.303 18.7325L22.3466 18.5944L22.2302 18.5084C22.2151 18.4972 22.2229 18.4733 22.2416 18.4732L22.3865 18.4721L22.4323 18.3347C22.4382 18.3169 22.4634 18.3169 22.4693 18.3347Z" fill="#FFBE5A"/>
<path d="M22.1135 17.7032L22.1593 17.8405L22.3042 17.8417C22.3229 17.8418 22.3306 17.8658 22.3156 17.8768L22.1992 17.9629L22.2429 18.101C22.2486 18.1189 22.2282 18.1337 22.2129 18.1227L22.095 18.0385L21.9772 18.1227C21.962 18.1336 21.9416 18.1188 21.9472 18.101L21.9909 17.9629L21.8744 17.8768C21.8594 17.8657 21.8671 17.8418 21.8859 17.8417L22.0307 17.8405L22.0766 17.7032C22.0825 17.6854 22.1076 17.6854 22.1135 17.7032Z" fill="#FFBE5A"/>
<path d="M21.9562 16.969L22.002 17.1063L22.1469 17.1074C22.1656 17.1075 22.1733 17.1315 22.1583 17.1426L22.0419 17.2287L22.0856 17.3667C22.0913 17.3846 22.0708 17.3995 22.0556 17.3885L21.9377 17.3043L21.8199 17.3885C21.8047 17.3994 21.7843 17.3846 21.7899 17.3667L21.8336 17.2287L21.7171 17.1426C21.702 17.1314 21.7098 17.1075 21.7286 17.1074L21.8734 17.1063L21.9193 16.969C21.9251 16.9512 21.9503 16.9512 21.9562 16.969Z" fill="#FFBE5A"/>
<path d="M24.3576 19.0888L24.3117 19.2261L24.1669 19.2273C24.1481 19.2274 24.1403 19.2514 24.1554 19.2624L24.2719 19.3485L24.2282 19.4866C24.2225 19.5045 24.2429 19.5193 24.2582 19.5083L24.376 19.4241L24.4939 19.5083C24.5091 19.5192 24.5295 19.5044 24.5239 19.4866L24.4802 19.3485L24.5966 19.2624C24.6117 19.2513 24.6039 19.2274 24.5852 19.2273L24.4403 19.2261L24.3945 19.0888C24.3886 19.071 24.3635 19.071 24.3576 19.0888Z" fill="#FFBE5A"/>
<path d="M25.0076 18.8094L24.9618 18.9467L24.8169 18.9479C24.7982 18.948 24.7905 18.972 24.8055 18.983L24.9219 19.0691L24.8782 19.2072C24.8725 19.2251 24.893 19.2399 24.9082 19.2289L25.0261 19.1447L25.1439 19.2289C25.1591 19.2398 25.1795 19.225 25.1739 19.2072L25.1302 19.0691L25.2467 18.983C25.2618 18.9719 25.254 18.948 25.2352 18.9479L25.0904 18.9467L25.0445 18.8094C25.0386 18.7916 25.0135 18.7916 25.0076 18.8094Z" fill="#FFBE5A"/>
<path d="M25.5299 18.3347L25.484 18.4721L25.3392 18.4732C25.3204 18.4733 25.3127 18.4973 25.3277 18.5084L25.4442 18.5944L25.4005 18.7325C25.3948 18.7504 25.4152 18.7652 25.4305 18.7542L25.5483 18.6701L25.6662 18.7542C25.6814 18.7651 25.7018 18.7503 25.6962 18.7325L25.6525 18.5944L25.7689 18.5084C25.784 18.4972 25.7762 18.4733 25.7575 18.4732L25.6126 18.4721L25.5668 18.3347C25.561 18.3169 25.5358 18.3169 25.5299 18.3347Z" fill="#FFBE5A"/>
<path d="M25.8856 17.7032L25.8398 17.8405L25.6949 17.8417C25.6762 17.8418 25.6685 17.8658 25.6835 17.8768L25.7999 17.9629L25.7562 18.101C25.7505 18.1189 25.7709 18.1337 25.7862 18.1227L25.9041 18.0385L26.0219 18.1227C26.0371 18.1336 26.0575 18.1188 26.0519 18.101L26.0082 17.9629L26.1247 17.8768C26.1398 17.8657 26.132 17.8418 26.1132 17.8417L25.9684 17.8405L25.9225 17.7032C25.9166 17.6854 25.8915 17.6854 25.8856 17.7032Z" fill="#FFBE5A"/>
<path d="M26.0429 16.969L25.9971 17.1063L25.8522 17.1074C25.8335 17.1075 25.8258 17.1315 25.8408 17.1426L25.9572 17.2287L25.9135 17.3667C25.9078 17.3846 25.9283 17.3995 25.9435 17.3885L26.0614 17.3043L26.1792 17.3885C26.1944 17.3994 26.2149 17.3846 26.2092 17.3667L26.1655 17.2287L26.282 17.1426C26.2971 17.1314 26.2893 17.1075 26.2705 17.1074L26.1257 17.1063L26.0799 16.969C26.074 16.9512 26.0489 16.9512 26.0429 16.969Z" fill="#FFBE5A"/>
<path d="M23.0961 18.2834L23.1652 18.614H23.195V18.3884C23.195 18.3884 23.2442 18.5458 23.3137 18.614H23.37C23.3431 18.5794 23.2947 18.5077 23.2947 18.4334C23.2947 18.3311 23.3761 18.3171 23.3761 18.2077H23.4458V18.6139H23.4866L23.5622 18.2519C23.5622 18.2519 23.6244 18.4784 23.7416 18.6139H23.7937C23.7561 18.5587 23.678 18.4162 23.6924 18.2008C23.6924 18.2008 23.804 18.1449 23.804 17.9938V17.7787C23.804 17.7385 23.8368 17.7058 23.877 17.7058H23.9271C23.9271 17.7058 23.8525 17.561 23.7727 17.54V17.4493L23.7126 17.5401C23.6553 17.5525 23.6214 17.6055 23.6214 17.6624V17.7933C23.6214 17.8335 23.5888 17.8663 23.5485 17.8663H23.2878C23.2106 17.8663 23.0869 17.9434 23.0869 18.0423C23.0869 18.1412 23.1611 18.2061 23.1611 18.2061L23.0961 18.2834Z" fill="white"/>
<path d="M24.2643 17.9541H24.2404C24.0514 17.9644 23.9459 18.0887 23.9459 18.0887L24.1376 18.2804V18.6412H24.367V18.2804L24.5587 18.0887C24.5588 18.0886 24.4533 17.9644 24.2643 17.9541Z" fill="#FFBE5A"/>
<path d="M24.7371 17.364H24.6678V18.6421H24.7371V17.364Z" fill="white"/>
<path d="M24.7043 17.3541L24.3305 17.8059C24.3305 17.8059 24.2818 17.5881 24.4996 17.3737L24.0186 17.4615C24.0186 17.4615 24.1649 17.1885 24.5483 17.2177L24.1551 16.8895C24.1551 16.8895 24.4931 16.8701 24.6653 17.1235C24.6653 17.1235 24.7627 16.8311 25.0357 16.818L24.8104 17.1603C24.8104 17.1603 25.0357 17.0455 25.3477 17.1463L24.883 17.2698C24.883 17.2698 25.143 17.2958 25.2502 17.676L24.8473 17.3999C24.8473 17.3999 24.9708 17.5461 24.9253 17.832L24.7043 17.3541Z" fill="white"/>
<path d="M19.9236 14.1839L19.0085 13.7263L19.6741 14.5582H20.0484L19.9236 14.1839Z" fill="white"/>
<path d="M24.6505 13.6542L27.1196 12.8944L25.8088 12.403C25.5754 12.3153 25.328 12.2706 25.0786 12.2706H24.8318C24.7169 12.2706 24.6238 12.3637 24.6238 12.4786V12.6865H23.9997H23.3758V12.4786C23.3758 12.3637 23.2827 12.2706 23.1679 12.2706H22.9211C22.6717 12.2706 22.4243 12.3155 22.1908 12.403L20.8801 12.8944L23.3492 13.6542C23.472 13.692 23.5315 13.831 23.4741 13.946L23.1679 14.5583H24.8318L24.5256 13.946C24.4681 13.8311 24.5276 13.692 24.6505 13.6542Z" fill="#825546"/>
<path d="M24 13.3098C24.2297 13.3098 24.4159 13.1236 24.4159 12.894C24.4159 12.6643 24.2297 12.4781 24 12.4781C23.7703 12.4781 23.5841 12.6643 23.5841 12.894C23.5841 13.1236 23.7703 13.3098 24 13.3098Z" fill="white"/>
<path d="M24.2079 12.8945C24.2079 13.0093 24.1148 13.1024 24 13.1024H23.168L23.5231 12.7474C23.5621 12.7084 23.6149 12.6865 23.6702 12.6865H23.9999C24.1148 12.6866 24.2079 12.7796 24.2079 12.8945Z" fill="#FFBE5A"/>
</g>
<defs>
<clipPath id="clip0_11_3327">
<rect width="48" height="32" fill="white"/>
</clipPath>
</defs>
</svg>
