<svg width="48" height="32" viewBox="0 0 48 32" fill="none" xmlns="http://www.w3.org/2000/svg">
<g clip-path="url(#clip0_11_4882)">
<path d="M47.1723 31.7238H0.827623C0.370593 31.7238 0 31.3532 0 30.8962V1.10314C0 0.646105 0.370593 0.275513 0.827623 0.275513H47.1724C47.6294 0.275513 48 0.646105 48 1.10314V30.8962C47.9999 31.3533 47.6293 31.7238 47.1723 31.7238Z" fill="#73AF00"/>
<path d="M23.5697 4.67595L6.12695 15.2932C5.59717 15.6156 5.59717 16.3845 6.12695 16.707L23.5697 27.3244C23.8339 27.4853 24.1659 27.4853 24.4303 27.3244L41.8731 16.7071C42.4029 16.3847 42.4029 15.6158 41.8731 15.2933L24.4303 4.67595C24.166 4.51508 23.8339 4.51508 23.5697 4.67595Z" fill="#FFE15A"/>
<path d="M24.0001 22.6208C27.6565 22.6208 30.6207 19.6567 30.6207 16.0002C30.6207 12.3437 27.6565 9.37958 24.0001 9.37958C20.3436 9.37958 17.3795 12.3437 17.3795 16.0002C17.3795 19.6567 20.3436 22.6208 24.0001 22.6208Z" fill="#41479B"/>
<path d="M18.3189 12.613C18.0065 13.1359 17.7653 13.7042 17.6059 14.3077C21.2761 14.0315 26.7055 15.0582 30.1611 18.4114C30.3867 17.8357 30.5355 17.2224 30.5914 16.5812C27.0232 13.5781 22.0902 12.5102 18.3189 12.613Z" fill="white"/>
<path d="M24.2744 18.2592L24.4506 18.7877L25.0078 18.792C25.0799 18.7926 25.1098 18.8846 25.0518 18.9275L24.6036 19.2585L24.7717 19.7897C24.7935 19.8585 24.7151 19.9154 24.6565 19.8734L24.2032 19.5494L23.7499 19.8734C23.6913 19.9154 23.613 19.8585 23.6347 19.7897L23.8028 19.2585L23.3546 18.9275C23.2966 18.8846 23.3265 18.7926 23.3986 18.792L23.9557 18.7877L24.132 18.2592C24.1548 18.1907 24.2515 18.1907 24.2744 18.2592Z" fill="white"/>
<path d="M26.4396 19.6263L26.5155 19.8537L26.7553 19.8556C26.7863 19.8558 26.7993 19.8954 26.7742 19.9139L26.5813 20.0563L26.6536 20.285C26.6629 20.3146 26.6293 20.3391 26.604 20.321L26.4089 20.1816L26.2138 20.321C26.1886 20.3391 26.1548 20.3146 26.1642 20.285L26.2365 20.0563L26.0436 19.9139C26.0186 19.8955 26.0315 19.8559 26.0625 19.8556L26.3023 19.8537L26.3781 19.6263C26.3881 19.5967 26.4298 19.5967 26.4396 19.6263Z" fill="white"/>
<path d="M23.3378 17.2555L23.4136 17.4829L23.6534 17.4848C23.6845 17.485 23.6974 17.5246 23.6724 17.5431L23.4794 17.6855L23.5517 17.9142C23.5611 17.9438 23.5274 17.9683 23.5021 17.9502L23.307 17.8108L23.1119 17.9502C23.0867 17.9683 23.053 17.9438 23.0623 17.9142L23.1346 17.6855L22.9417 17.5431C22.9167 17.5247 22.9296 17.4851 22.9606 17.4848L23.2004 17.4829L23.2763 17.2555C23.2862 17.226 23.3279 17.226 23.3378 17.2555Z" fill="white"/>
<path d="M19.1371 16.9791L19.213 17.2066L19.4528 17.2084C19.4838 17.2086 19.4967 17.2483 19.4717 17.2667L19.2788 17.4092L19.3511 17.6378C19.3604 17.6674 19.3268 17.6919 19.3015 17.6738L19.1064 17.5344L18.9113 17.6738C18.8861 17.6919 18.8523 17.6674 18.8617 17.6378L18.934 17.4092L18.741 17.2667C18.7161 17.2484 18.7289 17.2087 18.76 17.2084L18.9998 17.2066L19.0756 16.9791C19.0857 16.9497 19.1273 16.9497 19.1371 16.9791Z" fill="white"/>
<path d="M22.6513 19.5481L22.7272 19.7755L22.967 19.7774C22.998 19.7776 23.011 19.8172 22.9859 19.8357L22.793 19.9781L22.8653 20.2068C22.8747 20.2364 22.841 20.2608 22.8157 20.2428L22.6206 20.1033L22.4255 20.2428C22.4003 20.2608 22.3665 20.2364 22.3759 20.2068L22.4482 19.9781L22.2553 19.8357C22.2303 19.8173 22.2432 19.7777 22.2742 19.7774L22.514 19.7755L22.5898 19.5481C22.5999 19.5187 22.6416 19.5187 22.6513 19.5481Z" fill="white"/>
<path d="M20.7177 16.8205L20.7798 17.0065L20.9759 17.0081C21.0012 17.0083 21.0118 17.0407 20.9915 17.0558L20.8337 17.1723L20.8929 17.3592C20.9006 17.3834 20.873 17.4034 20.8523 17.3886L20.6927 17.2746L20.5331 17.3886C20.5124 17.4034 20.485 17.3834 20.4926 17.3592L20.5517 17.1723L20.3939 17.0558C20.3736 17.0407 20.384 17.0083 20.4095 17.0081L20.6056 17.0065L20.6677 16.8205C20.6756 16.7964 20.7097 16.7964 20.7177 16.8205Z" fill="white"/>
<path d="M26.608 12.9805L26.6856 13.2132L26.9308 13.215C26.9626 13.2152 26.9757 13.2558 26.9501 13.2747L26.7529 13.4203L26.8269 13.6542C26.8365 13.6845 26.8019 13.7096 26.7761 13.6911L26.5766 13.5484L26.377 13.6911C26.3511 13.7096 26.3167 13.6844 26.3262 13.6542L26.4002 13.4203L26.203 13.2747C26.1774 13.2558 26.1906 13.2153 26.2223 13.215L26.4675 13.2132L26.5451 12.9805C26.5553 12.9503 26.5979 12.9503 26.608 12.9805Z" fill="white"/>
<path d="M19.4073 15.6823L19.4694 15.8683L19.6655 15.8699C19.6908 15.8701 19.7014 15.9025 19.6811 15.9176L19.5233 16.0341L19.5824 16.221C19.5901 16.2452 19.5626 16.2653 19.5418 16.2504L19.3823 16.1364L19.2227 16.2504C19.202 16.2653 19.1745 16.2452 19.1821 16.221L19.2413 16.0341L19.0835 15.9176C19.0632 15.9025 19.0736 15.8702 19.0991 15.8699L19.2952 15.8683L19.3573 15.6823C19.3652 15.6582 19.3993 15.6582 19.4073 15.6823Z" fill="white"/>
<path d="M20.3545 18.3044L20.4484 18.5862L20.7454 18.5884C20.7838 18.5887 20.7998 18.6378 20.7688 18.6606L20.5299 18.8371L20.6195 19.1202C20.6311 19.1569 20.5894 19.1872 20.5581 19.1648L20.3164 18.9921L20.0747 19.1648C20.0435 19.1871 20.0017 19.1569 20.0133 19.1202L20.1029 18.8371L19.864 18.6606C19.833 18.6378 19.849 18.5887 19.8874 18.5884L20.1844 18.5862L20.2783 18.3044C20.2908 18.268 20.3424 18.268 20.3545 18.3044Z" fill="white"/>
<path d="M27.647 19.6852L27.7061 19.8625L27.8929 19.8639C27.9171 19.8641 27.9271 19.8949 27.9077 19.9093L27.7575 20.0203L27.8138 20.1984C27.8211 20.2214 27.7949 20.2405 27.7751 20.2264L27.6231 20.1178L27.4711 20.2264C27.4514 20.2405 27.4251 20.2214 27.4323 20.1984L27.4887 20.0203L27.3384 19.9093C27.319 19.8949 27.329 19.8641 27.3532 19.8639L27.5401 19.8625L27.5991 19.6852C27.6069 19.6622 27.6394 19.6622 27.647 19.6852Z" fill="white"/>
<path d="M28.3009 18.3323L28.3767 18.5598L28.6165 18.5616C28.6475 18.5618 28.6605 18.6015 28.6355 18.62L28.4425 18.7624L28.5148 18.991C28.5242 19.0206 28.4905 19.0451 28.4652 19.027L28.2701 18.8876L28.075 19.027C28.0498 19.0451 28.016 19.0206 28.0254 18.991L28.0977 18.7624L27.9048 18.62C27.8798 18.6016 27.8927 18.5619 27.9237 18.5616L28.1635 18.5598L28.2394 18.3323C28.2493 18.3028 28.291 18.3028 28.3009 18.3323Z" fill="white"/>
</g>
<defs>
<clipPath id="clip0_11_4882">
<rect width="48" height="32" fill="white"/>
</clipPath>
</defs>
</svg>
