<svg width="48" height="32" viewBox="0 0 48 32" fill="none" xmlns="http://www.w3.org/2000/svg">
<g clip-path="url(#clip0_11_2710)">
<path d="M47.9999 10.7587H0V1.10349C0 0.646456 0.370593 0.275864 0.827623 0.275864H47.1724C47.6294 0.275864 48 0.646456 48 1.10349L47.9999 10.7587Z" fill="#82AFFF"/>
<path d="M47.1723 31.7242H0.827623C0.370593 31.7242 0 31.3536 0 30.8966V21.2415H47.9999V30.8966C47.9999 31.3537 47.6293 31.7242 47.1723 31.7242Z" fill="#82AFFF"/>
<path d="M47.9999 10.7584H0V21.2406H47.9999V10.7584Z" fill="#FFE15A"/>
<path d="M0.305249 31.5241L19.3216 16.4289C19.5977 16.2098 19.5977 15.7903 19.3216 15.571L0.305249 0.476013C0.122906 0.627794 0 0.847731 0 1.10348V30.8965C0 31.1524 0.122906 31.3723 0.305249 31.5241Z" fill="#464655"/>
</g>
<defs>
<clipPath id="clip0_11_2710">
<rect width="48" height="32" fill="white"/>
</clipPath>
</defs>
</svg>
