<svg width="48" height="32" viewBox="0 0 48 32" fill="none" xmlns="http://www.w3.org/2000/svg">
<g clip-path="url(#clip0_11_1213)">
<path d="M47.1723 0.276001H0.827623C0.370593 0.276001 0 0.646594 0 1.10362V30.8966C0 31.3536 0.370593 31.7242 0.827623 31.7242H47.1724C47.6294 31.7242 48 31.3536 48 30.8966V1.10362C47.9999 0.646594 47.6293 0.276001 47.1723 0.276001Z" fill="#FF6E55"/>
<path d="M0.305249 31.5242L47.6946 0.476063C47.5511 0.35672 47.3735 0.276001 47.1723 0.276001H0.827623C0.370593 0.276001 0 0.646594 0 1.10362V30.8966C0 31.1524 0.122906 31.3724 0.305249 31.5242Z" fill="#FFE15A"/>
<path d="M26.3924 8.69002C25.9765 8.77908 25.3231 8.55634 25.3231 8.55634C25.4578 8.78818 25.8178 8.94427 26.1424 9.04252C25.8803 9.06868 25.5813 9.08349 25.2488 9.07618C23.9122 9.04637 23.2886 9.92264 23.2886 9.92264C23.7638 9.62555 24.2538 9.62555 24.9815 9.72961C25.7092 9.83358 27.2536 9.37327 27.2536 9.37327L27.3873 8.77927C27.3873 8.77918 26.8082 8.60096 26.3924 8.69002Z" fill="#FFF5DC"/>
<path d="M27.7662 5.90558C27.7662 5.90558 28.4572 6.05202 29.1586 6.45448C29.1164 6.47661 29.076 6.5037 29.0375 6.53548C28.8109 6.4228 28.537 6.33158 28.1819 6.29539C28.1819 6.29539 28.5495 6.39101 28.9026 6.66758C28.8112 6.7753 28.7359 6.89783 28.6778 7.00676C27.9009 6.1737 27.0607 6.72973 27.0607 6.72973C28.103 6.65051 28.3489 7.32017 28.4076 7.64361C28.2057 7.5087 28.0156 7.39751 27.8373 7.30704C27.8634 7.28745 27.8766 7.26983 27.9073 7.24967C27.9073 7.24967 27.8421 7.2523 27.7515 7.2658C26.4214 6.62652 25.7688 7.1308 25.7688 7.1308C26.3595 7.05861 26.9054 7.21217 27.3385 7.40342C27.1482 7.51301 27.0193 7.70604 27.1256 8.03417C26.3797 7.8312 25.4422 7.63123 24.9817 7.75451C24.15 7.97726 24.4174 8.74948 24.4174 8.74948C24.4174 8.74948 24.4323 8.22973 24.9966 8.11086C25.419 8.02189 27.5211 8.69004 27.5211 8.69004L28.2041 8.36332L27.922 8.12567C27.922 8.12567 27.3798 7.90798 27.6123 7.53392C28.0011 7.7412 28.2486 7.94736 28.2486 7.94736L28.4158 7.70314C28.424 7.76633 28.4269 7.81376 28.4269 7.81376L28.9021 7.60592L29.006 7.45733C29.0477 7.23195 29.1165 7.07164 29.1957 6.95164C29.3331 7.12442 29.4469 7.3378 29.5036 7.60198L29.9343 7.64661C29.9343 7.64661 29.8643 7.14879 29.3825 6.75289C29.4252 6.72251 29.4674 6.6973 29.5089 6.68051C29.8263 6.90823 30.1222 7.19295 30.3277 7.55014L31.1222 7.53898C31.1223 7.53917 29.8155 6.0838 27.7662 5.90558Z" fill="#FFF5DC"/>
<path d="M35.3477 13.9172C35.8972 13.9172 36.3426 13.4717 36.3426 12.9222C36.3426 12.3727 35.8972 11.9272 35.3477 11.9272C34.7981 11.9272 34.3527 12.3727 34.3527 12.9222C34.3527 13.4717 34.7981 13.9172 35.3477 13.9172Z" fill="#FFF5DC"/>
<path d="M33.0243 22.6317C33.7615 22.6317 34.3591 22.034 34.3591 21.2968C34.3591 20.5597 33.7615 19.962 33.0243 19.962C32.2871 19.962 31.6895 20.5597 31.6895 21.2968C31.6895 22.034 32.2871 22.6317 33.0243 22.6317Z" fill="#FFF5DC"/>
<path d="M22.8487 21.7079C23.4329 21.7079 23.9066 21.2342 23.9066 20.6499C23.9066 20.0656 23.4329 19.592 22.8487 19.592C22.2644 19.592 21.7907 20.0656 21.7907 20.6499C21.7907 21.2342 22.2644 21.7079 22.8487 21.7079Z" fill="#FFF5DC"/>
<path d="M20.415 26.8956C21.0896 26.8956 21.6365 26.3487 21.6365 25.6741C21.6365 24.9994 21.0896 24.4525 20.415 24.4525C19.7403 24.4525 19.1934 24.9994 19.1934 25.6741C19.1934 26.3487 19.7403 26.8956 20.415 26.8956Z" fill="#FFF5DC"/>
<path d="M32.0504 10.3237C32.0504 10.3237 34.3381 11.139 34.8905 11.4152C35.6702 11.805 36.8953 10.6689 37.7529 11.5488C37.7529 11.5488 37.6043 10.9623 36.8916 10.9177C36.8916 10.9177 36.9065 10.3385 36.2382 10.3683C36.2382 10.3683 36.7283 10.7247 36.4462 10.9773C36.4462 10.9773 36.2531 10.5466 35.7036 10.6209C35.7036 10.6209 36.1194 10.7842 36.0155 11.0367C36.0155 11.0367 35.3547 11.3559 35.0577 11.1481C34.7607 10.9401 32.4144 9.67413 31.6718 9.64441L32.0504 10.3237Z" fill="#FFF5DC"/>
<path d="M31.4635 11.0364C31.4635 11.0364 31.9536 11.1812 32.6664 11.9274C32.9967 12.2732 33.8469 12.295 33.7133 11.6266C33.5797 10.9584 31.9313 10.5463 31.7531 10.5463C31.575 10.5463 31.4635 11.0364 31.4635 11.0364Z" fill="white"/>
<path d="M35.0351 9.56616L34.0995 9.87807C34.0995 9.87807 34.2035 10.5129 33.6689 10.7914C33.3396 10.9629 33.1195 11.4076 33.1342 11.7343C33.1342 11.7343 33.4461 11.3036 33.8915 11.0661C33.9964 11.0101 34.0932 10.9611 34.1813 10.9113C34.1636 11.1339 34.1589 11.3677 34.1886 11.571C34.2777 12.1798 34.0846 12.3878 34.0846 12.3878C34.0846 12.3878 34.6045 11.9868 34.5449 11.3334C34.5221 11.0824 34.5632 10.9045 34.6272 10.7695C34.6732 11.2245 34.9161 11.4375 34.9161 11.4375C34.7379 11.0812 35.1091 10.6949 35.2577 10.3831C35.4064 10.071 35.0351 9.56616 35.0351 9.56616Z" fill="#FFF5DC"/>
<path d="M37.4001 8.27426C37.0318 8.149 36.6762 8.37447 36.4645 8.56385C36.3744 8.64447 36.1371 8.68544 35.8942 8.70747C36.0563 8.59272 36.229 8.45726 36.3199 8.34119C36.5203 8.08507 36.8879 8.04044 37.1997 7.94022C37.5116 7.84001 37.6453 7.43904 37.6453 7.43904C37.6453 7.43904 37.4782 7.6841 37.0104 7.66179C36.5426 7.63947 36.3867 7.61716 36.0748 7.95138C35.9789 8.05413 35.8447 8.13354 35.7054 8.19738C35.7084 8.05141 35.7211 7.86569 35.7629 7.73979C35.8409 7.50588 36.1972 7.3166 36.2196 6.84879C36.2418 6.38097 36.2642 6.4256 36.5315 6.14707C36.7987 5.86863 36.8767 5.34513 36.7987 5.51219C36.7207 5.67926 36.3644 5.87979 36.0636 6.15822C35.7629 6.43666 35.9746 6.74847 35.8186 6.99354C35.6627 7.2386 35.2952 7.29429 35.2728 7.75085C35.2506 8.20751 34.9275 8.47479 34.9275 8.47479C34.9275 8.47479 34.1367 8.90913 35.0834 9.25451C36.0302 9.59979 36.796 8.63922 37.2664 8.66426C38.3133 8.71994 38.5917 8.37466 38.5917 8.37466C38.4137 8.37457 37.957 8.46363 37.4001 8.27426Z" fill="#FFF5DC"/>
<path d="M25.9173 15.6104C25.8579 15.5657 24.8333 14.4372 24.4916 14.2738L24.5659 14.556C24.5659 14.556 24.3431 14.5411 23.9422 14.051C23.5412 13.561 23.2442 13.4273 23.2442 13.4273C23.2442 13.4273 23.5264 13.8729 23.5115 14.155C23.5115 14.155 22.9026 14.1104 22.2492 14.4223C22.2492 14.4223 21.9522 13.8431 21.6998 13.7392C21.6998 13.7392 21.7889 14.3481 21.5811 14.4965C21.3731 14.6451 23.5413 15.6697 23.8383 15.6994C24.1353 15.7291 25.9173 15.6104 25.9173 15.6104Z" fill="#FFF5DC"/>
<path d="M27.2686 13.3976C27.2475 13.3924 27.1379 13.4694 26.9965 13.5704C26.9341 13.2098 26.8083 12.4807 26.8083 12.4472C26.8083 12.4026 25.7984 10.9919 25.7687 10.9325C25.7681 10.9314 25.7648 10.9314 25.7641 10.9304C25.8621 10.6932 25.9678 10.2894 25.3677 10.6058C24.5509 11.0365 24.2242 12.0314 24.2242 12.0314C24.4104 11.8372 24.7354 11.6888 24.9947 11.5925C25 11.7136 25.001 11.8574 24.8331 12.1057C24.4914 12.6105 24.6845 12.8036 24.6845 12.8036C24.9517 12.3433 25.5457 12.2987 25.5457 12.2987C25.4567 12.8482 25.7685 13.16 25.7685 13.16L26.0209 12.863C25.9897 13.2881 26.2173 13.7443 26.3587 13.984C26.3029 14.011 26.2519 14.0317 26.214 14.0361C25.9614 14.0659 25.5606 14.2588 25.5606 14.2588C25.5606 14.2588 25.8856 14.1895 26.0701 14.332C26.2545 14.4746 26.5481 14.5837 26.7074 14.5501C26.7074 14.5501 26.6318 14.9359 26.7157 15.0784C26.7157 15.0784 26.506 15.0195 26.2628 15.028C26.0196 15.0365 25.8426 14.8677 25.8426 14.8677C25.8426 14.8677 26.2882 15.5062 26.6149 15.6398C26.9415 15.7735 27.5059 15.2835 27.5059 15.2835C27.5059 15.2835 27.328 13.4123 27.2686 13.3976Z" fill="#FFF5DC"/>
<path d="M19.591 22.7088C19.591 22.7088 19.3088 22.7385 19.0416 23.1395L18.9229 22.7237C18.9229 22.7237 18.5961 22.9614 18.2398 22.8128C18.2398 22.8128 18.5665 22.7385 18.6259 22.4415C18.6852 22.1445 18.8041 22.1148 18.8041 22.1148C18.8041 22.1148 18.5813 21.8772 18.3438 21.8921C18.3438 21.8921 18.9971 21.5504 19.3536 21.8772C19.7097 22.2039 19.591 22.7088 19.591 22.7088Z" fill="#FFF5DC"/>
<path d="M27.4467 19.4267C27.4467 19.4267 27.1646 19.4565 26.8974 19.8574L26.7786 19.4415C26.7786 19.4415 26.4519 19.6792 26.0955 19.5306C26.0955 19.5306 26.4222 19.4564 26.4816 19.1594C26.5409 18.8624 26.6598 18.8326 26.6598 18.8326C26.6598 18.8326 26.4371 18.595 26.1995 18.6099C26.1995 18.6099 26.8528 18.2683 27.2094 18.595C27.5656 18.9218 27.4467 19.4267 27.4467 19.4267Z" fill="#FFF5DC"/>
<path d="M32.2635 15.202C32.2635 15.202 32.1257 15.4501 32.3005 15.8992L31.8918 15.7575C31.8918 15.7575 31.8987 16.1615 31.5724 16.3678C31.5724 16.3678 31.6993 16.0578 31.4903 15.8385C31.2813 15.6192 31.3252 15.5049 31.3252 15.5049C31.3252 15.5049 31.0028 15.5508 30.8784 15.7539C30.8784 15.7539 30.9741 15.0228 31.4462 14.9187C31.9184 14.8148 32.2635 15.202 32.2635 15.202Z" fill="#FFF5DC"/>
<path d="M33.6936 20.2206L33.981 20.392C33.8974 20.3201 33.7981 20.2662 33.6936 20.2206Z" fill="#FF6E55"/>
<path d="M17.4825 21.6544C17.4825 21.6544 16.1608 23.5107 14.6461 23.9116L15.1807 23.2286C15.1807 23.2286 14.4679 23.8523 13.666 23.9859L14.6313 22.8721C14.6313 22.8721 12.478 24.877 9.71586 25.2928C9.71586 25.2928 11.8543 23.9414 12.285 23.4661C12.285 23.4661 11.2454 23.882 10.3099 23.8968C10.3099 23.8968 12.9978 22.8572 13.4433 22.4415C13.4433 22.4415 12.374 22.6792 11.7058 22.4564C11.7058 22.4564 14.0224 21.7882 14.3491 21.8773C14.3491 21.8773 13.0125 21.3426 12.2106 21.402C12.2106 21.402 13.5769 21.0753 15.1658 21.402L14.8242 21.0308C14.8242 21.0308 15.7301 20.7931 16.6211 20.7338C17.5121 20.6744 17.0667 20.6001 17.0667 20.6001L17.1707 20.3031C17.1707 20.3031 16.5915 20.3773 16.1164 20.3031C16.1164 20.3031 17.542 19.5012 17.943 19.1448C18.3439 18.7885 18.0767 18.9518 18.0767 18.9518C18.0767 18.9518 17.3341 19.2042 17.0668 19.2488C17.0668 19.2488 17.735 18.4766 17.943 17.9716C17.943 17.9716 17.3341 18.2093 16.8143 17.9716C16.8143 17.9716 17.438 17.7934 17.7499 17.4816C18.0618 17.1697 18.5222 16.3938 18.5222 16.3938L17.9875 16.6277C17.9875 16.6277 18.4553 15.8258 18.8674 15.6254C18.8674 15.6254 18.1657 15.681 17.9431 15.514C17.9431 15.514 18.6893 15.3358 18.9121 15.1576C19.1348 14.9794 19.6249 14.5116 20.126 14.6898C20.126 14.6898 20.8277 14.0438 20.5938 13.6206C20.5938 13.6206 21.0505 13.654 21.2844 13.9325C21.5183 14.2109 21.8858 14.4449 21.8858 14.4449L19.9775 15.9373L18.5223 20.6596L17.4825 21.6544Z" fill="#FFF5DC"/>
<path d="M36.1788 12.744C36.7284 13.635 36.0451 13.7241 36.0451 13.7241C35.9411 12.8777 35.2284 12.9817 35.2284 12.9817L35.4214 13.6055C34.2334 13.754 34.3225 12.5659 34.3225 12.5659C34.1442 12.7145 33.8472 13.3232 33.8472 13.3232C33.8472 13.3232 30.6396 14.3924 28.4714 11.2145C28.4714 11.2145 28.4121 10.6501 28.5903 10.3827L27.2537 9.37292L25.5311 9.61058C25.5311 9.61058 24.848 11.1549 25.6797 12.1055C26.5113 13.0558 27.4914 14.3924 27.3132 15.0161C27.2075 15.3859 26.8932 15.5363 26.4567 15.5049C26.1568 15.4833 25.7995 15.3757 25.4125 15.1943C24.462 14.7487 22.1454 13.7985 20.4822 14.5706C18.819 15.3428 18.6385 16.679 18.314 17.7189C18.0268 18.6394 17.3894 20.9893 12.8485 23.1333C12.6316 23.2356 12.7419 23.5653 12.9747 23.5075C14.9431 23.0181 17.6266 22.2027 18.455 21.2385L19.1233 21.2607L18.8782 22.2854C18.8782 22.2854 19.747 22.5527 19.8806 23.8224C19.8806 23.8224 18.3585 24.2382 19.2197 25.5451C19.2197 25.5451 19.3534 24.5946 20.4077 24.5501C20.4077 24.5501 20.6454 24.862 21.165 24.9064C21.165 24.9064 21.4323 25.3372 21.2987 25.6936C21.2987 25.6936 22.353 25.3668 21.462 24.1045C21.462 24.1045 22.457 23.8669 22.5907 25.1144C22.5907 25.1144 23.2293 23.0947 20.9498 23.2432C20.9498 23.2432 20.9498 22.8869 20.3484 22.2409C20.3484 22.2409 20.2 21.8769 20.3484 21.3721C20.3931 21.2201 20.4335 21.0624 20.4673 20.9017C20.5911 20.9704 20.7815 21.0516 21.0314 21.0604C21.0314 21.0604 21.4027 21.6692 22.5016 21.5652C22.5016 21.5652 21.6997 21.194 21.7739 20.4812C21.8482 19.7683 22.7838 19.3822 23.1848 19.6643C23.1848 19.6643 23.0808 18.7287 21.6255 19.3376C21.6255 19.3376 21.6255 18.6396 22.3978 18.5952C22.3978 18.5952 21.1504 17.6448 20.8681 19.4565L20.3519 19.5855C20.0998 18.8864 19.7803 17.2632 21.1949 16.672C22.6873 16.0483 24.2466 17.4517 27.0087 17.5853C27.0087 17.5853 26.7415 19.2114 27.6325 19.6124C28.5235 20.0134 30.7064 20.3921 30.7064 20.3921C30.6842 22.7384 32.3919 22.4265 32.3919 22.4265C31.563 21.9298 31.563 20.9822 32.0746 20.4287C32.7718 19.6744 33.9808 20.3919 33.9808 20.3919C33.9638 19.2499 32.3621 19.4266 32.3621 19.4266C32.6145 18.6842 33.6095 18.4909 33.6095 18.4909C32.2285 17.9861 31.085 19.4786 31.085 19.4786L28.746 18.8104C28.746 18.8104 28.657 18.3425 29.2138 17.7189C29.7707 17.0953 30.2385 16.0482 30.0826 14.9345C30.0826 14.9345 30.7286 14.4815 31.5305 14.9271C32.3324 15.3727 34.055 14.3925 34.055 14.3925C34.7976 15.3428 36.5647 15.1647 36.8022 14.0213C37.0402 12.8777 36.1788 12.744 36.1788 12.744Z" fill="white"/>
<path d="M33.7284 10.0117C33.2867 9.75403 32.4958 9.53653 32.2285 10.1305C31.9613 10.7245 31.6643 11.3185 30.7435 11.2888C29.8228 11.2591 29.4069 12.0461 28.7684 11.8235C28.7684 11.8235 29.3624 11.6304 29.4813 11.3482C29.6001 11.0661 30.0753 10.5463 30.0753 10.5463L30.0159 10.0117C30.0159 10.0117 28.917 10.0709 28.5903 10.3828C28.2636 10.6947 27.031 10.1156 27.031 10.1156L27.1796 8.82366C27.1796 8.82366 28.13 7.36837 29.4518 7.47234C30.7734 7.57631 30.9962 7.23469 31.6347 7.27931C32.2733 7.32394 32.6 7.97728 33.283 8.12578C33.9661 8.27437 35.3323 7.99209 35.5105 8.40797C35.6887 8.82375 35.1689 8.98716 35.0353 9.56625C34.9016 10.1453 34.6194 10.5316 33.7284 10.0117Z" fill="white"/>
<path d="M29.8676 9.64038C29.8676 9.64038 29.2289 10.0711 28.6944 9.89275C28.1597 9.71454 27.6845 9.77397 27.1351 9.9521C27.1351 9.9521 28.145 9.83332 28.5608 10.2194C28.9766 10.6054 30.031 10.3531 30.1052 10.1897L29.8676 9.64038Z" fill="#FFF5DC"/>
<path d="M30.1944 10.6353C30.1944 10.6353 29.5707 11.0809 28.9471 10.9621C28.3234 10.8433 27.7591 11.0957 27.7591 11.0957C27.7591 11.0957 28.2194 10.5908 28.8431 10.68C29.4668 10.769 29.6895 10.1602 29.6895 10.1602L30.1054 10.1899L30.1944 10.6353Z" fill="#FFF5DC"/>
<path d="M30.6994 10.9179C31.1588 10.9179 31.5312 10.5455 31.5312 10.0861C31.5312 9.62678 31.1588 9.25439 30.6994 9.25439C30.2401 9.25439 29.8677 9.62678 29.8677 10.0861C29.8677 10.5455 30.2401 10.9179 30.6994 10.9179Z" fill="#FFF5DC"/>
<path d="M30.2091 9.46223C30.2091 9.46223 29.8824 9.04645 29.0657 9.20986C28.2489 9.37317 28.0558 9.07617 28.0558 9.07617C28.0558 9.07617 28.4419 9.67017 29.0508 9.59592C29.6597 9.52167 29.912 9.93755 29.912 9.93755L30.2091 9.46223Z" fill="#FFF5DC"/>
<path d="M32.9567 8.42241C33.0301 8.32125 33.1225 8.22478 33.2487 8.15138C33.3231 8.10806 33.3997 8.08069 33.4755 8.05819C33.4924 7.94541 33.4758 7.82382 33.4115 7.71338C33.2712 7.47244 32.9793 7.38094 32.7596 7.509C32.5399 7.63697 32.4756 7.93603 32.6159 8.17697C32.6948 8.31216 32.8219 8.39363 32.9567 8.42241Z" fill="#FFF5DC"/>
<path d="M32.2273 9.37905C32.2691 9.2612 32.3304 9.1427 32.4306 9.03639C32.4897 8.97376 32.5554 8.92595 32.6217 8.88283C32.606 8.76995 32.5557 8.65792 32.4627 8.57017C32.2599 8.37883 31.954 8.37358 31.7796 8.55845C31.605 8.74333 31.628 9.04839 31.8309 9.23973C31.9449 9.34755 32.0899 9.38973 32.2273 9.37905Z" fill="#FFF5DC"/>
</g>
<defs>
<clipPath id="clip0_11_1213">
<rect width="48" height="32" fill="white"/>
</clipPath>
</defs>
</svg>
