<svg width="48" height="32" viewBox="0 0 48 32" fill="none" xmlns="http://www.w3.org/2000/svg">
<g clip-path="url(#clip0_11_3012)">
<path d="M47.1724 31.7241H0.827625C0.370594 31.7241 0 31.3535 0 30.8965V23.4482H48V30.8965C48 31.3536 47.6294 31.7241 47.1724 31.7241Z" fill="#73AF00"/>
<path d="M47.1724 0.275986H0.827625C0.370594 0.275986 0 0.646579 0 1.10361V23.4484H48V1.10361C48 0.646579 47.6294 0.275986 47.1724 0.275986Z" fill="#FF4B55"/>
<path d="M6.62072 31.7242H0.827625C0.370594 31.7242 0 31.3536 0 30.8966V1.10361C0 0.646579 0.370594 0.275986 0.827625 0.275986H6.62072V31.7242Z" fill="white"/>
<path d="M0.828094 30.3496H1.12078V29.5293H0.828094V30.3496ZM3.16416 30.3496H3.45694V29.5293H3.16416V30.3496ZM5.50172 30.3496H5.79309V29.5293H5.50172V30.3496ZM1.99763 28.1503H2.28741V27.4666H1.99763V28.1503ZM4.33509 28.1503H4.62647V27.4666H4.33509V28.1503ZM0.828094 26.367H1.12078V25.5466H0.828094V26.367ZM3.16416 26.367H3.45694V25.5466H3.16416V26.367ZM5.50172 26.367H5.79309V25.5466H5.50172V26.367ZM1.41506 27.4666H1.70484V26.7769H1.99763V26.0933H2.28741V26.7769H2.58169V27.4666H2.87147V28.1503H2.58169V28.8397H2.28741V29.5291H1.99763V28.8397H1.70484V28.1503H1.41506V27.4666ZM3.75122 27.4666H4.04391V26.7769H4.33519V26.0933H4.62656V26.7769H4.91784V27.4666H5.21053V28.1503H4.91784V28.8397H4.62656V29.5291H4.33519V28.8397H4.04391V28.1503H3.75122V27.4666ZM4.33509 24.7203V25.404H4.041V26.0934H3.75122V26.777H3.45694V27.4667H3.16416V26.777H2.87138V26.0934H2.58159V25.404H2.28731V24.7203H1.99753V25.404H1.70475V26.0934H1.41497V26.777H1.12069V27.4667H0.828094V28.1504H1.12078V28.8398H1.41506V29.5292H1.70484V30.2129H1.99763V30.8966H2.29041V30.2129H2.58169V29.5292H2.87147V28.8398H3.16425V28.1504H3.45703V28.8398H3.75131V29.5292H4.044V30.2129H4.33528V30.8966H4.62666V30.2129H4.91794V29.5292H5.21063V28.8398H5.50341V28.1504H5.79319V27.4667H5.50181V26.777H5.21063V26.0934H4.91794V25.404H4.62666V24.7203H4.33509ZM5.05884 24.0369H5.20453V23.7635H5.35163V24.0369H5.49872V24.3102H5.35163V24.5896H5.20453V24.3102H5.05884V24.0369ZM5.05884 23.0797V23.4841H4.91475V23.9001H4.76766V24.4471H4.91475V24.8571H5.05884V25.2672H5.49881V24.8571H5.6445V24.4471H5.78859V23.9001H5.6445V23.4841H5.49881V23.0797H5.05884ZM1.12078 24.0308H1.26788V23.7575H1.41497V24.0308H1.55756V24.3102H1.41497V24.5836H1.26788V24.3102H1.12078V24.0308ZM1.12078 23.0737V23.484H0.975094V23.894H0.828094V24.4469H0.975094V24.8569H1.12078V25.267H1.55766V24.8569H1.70475V24.4469H1.84753V23.894H1.70475V23.484H1.55766V23.0737H1.12078ZM2.72719 24.0308H2.87128V23.7575H3.01997V24.0308H3.16406V24.3102H3.01997V24.5836H2.87128V24.3102H2.72719V24.0308ZM3.45694 24.0308H3.60403V23.7575H3.75113V24.0308H3.89522V24.3102H3.75113V24.5836H3.60403V24.3102H3.45694V24.0308ZM3.45694 23.0737V23.484H3.16416V23.0737H2.72728V23.484H2.58159V23.894H2.4345V24.4469H2.58159V24.8569H2.72728V25.267H3.16416V24.8569H3.45694V25.267H3.89531V24.8569H4.04391V24.4469H4.18669V23.894H4.04391V23.484H3.89531V23.0737H3.45694ZM0.828094 22.7943H1.12078V21.9741H0.828094V22.7943ZM3.16416 22.7943H3.45694V21.9741H3.16416V22.7943ZM5.50172 22.7943H5.79309V21.9741H5.50172V22.7943ZM0.828094 19.3644H1.12078V18.8176H0.828094V19.3644ZM5.50172 19.3644H5.79309V18.8176H5.50172V19.3644ZM3.16416 17.4444H3.45694V16.7608H3.16416V17.4444ZM0.828094 15.5899V16V16.0059V16.416H1.12078V16.0059V16V15.5899H0.828094ZM2.43441 15.5899V16V16.0059V16.416H2.72719V16.0059V16V15.5899H2.43441ZM3.89531 15.5899V16V16.0059V16.416H4.18659V16.0059V16V15.5899H3.89531ZM5.50172 15.5899V16V16.0059V16.416H5.79309V16.0059V16V15.5899H5.50172ZM3.60403 15.1085V15.3819H3.45694V15.5899H3.16416V15.3819H3.02006V15.1085H2.72728V15.5186H2.87138V15.7266H3.02006V16V16.0059V16.2735H2.87138V16.4815H2.72728V16.8916H3.02006V16.6183H3.16416V16.4161H3.45694V16.6183H3.60403V16.8916H3.89531V16.4815H3.75122V16.2735H3.60413V16.0059V16V15.7266H3.75122V15.5186H3.89531V15.1085H3.60403ZM3.16416 15.245H3.45694V14.5614H3.16416V15.245ZM0.828094 13.1882H1.12078V12.6415H0.828094V13.1882ZM5.50172 13.1882H5.79309V12.6415H5.50172V13.1882ZM0.828094 10.0319H1.12078V9.20574H0.828094V10.0319ZM3.16416 10.0319H3.45694V9.20574H3.16416V10.0319ZM5.50172 10.0319H5.79309V9.20574H5.50172V10.0319ZM1.99763 16.0119V15.9941V15.7265H2.28741V15.2509H2.58169V14.6981H3.02006V14.0503H3.16416V13.7352H3.31134H3.45694V14.0443H3.60403V14.6982H4.04381V14.9716V15.2509H4.33509V15.7265H4.62647V16V16.2734H4.33509V16.7608H4.04381V17.0341V17.3075H3.60403V17.9555H3.45694V18.2646H3.31134H3.16416V17.9555H3.02006V17.3075H2.58169V16.7606H2.28741V16.2732H1.99763V16.0119ZM4.33509 8.37943V9.06887H4.041V9.75249H3.75122V10.4422H3.45694V10.989V11.1257H3.16416V10.4421H2.87138V9.7524H2.58159V9.06877H2.28731V8.37934H1.99753V9.06877H1.70475V9.7524H1.41197V10.4421H1.12069V10.9889V11.1256H0.828094V11.8151H1.12078V12.5045H1.41206V13.1882H1.70484V13.8719H1.99763V13.1882H2.28741V12.5045H2.58169V11.8151H2.28741V10.9888H2.58169V11.1256V11.5416H2.87147V12.6414H3.02016V13.319L2.58178 13.3249V13.8719H2.2875V14.2819H1.99772V14.9714H1.70494V14.2819H1.41216V13.8719H1.12088V13.4616H0.828094V14.698H1.12078V15.2508H1.41206V15.7264H1.70484V16V16.0059V16.2735H1.41206V16.7609H1.12078V17.3078H0.828094V18.5442H1.12078V18.128H1.41206V17.718H1.70484V17.0343H1.99763V17.718H2.28741V18.128H2.58169V18.6809L3.02006 18.6868V19.3644H2.87138V20.4642H2.58159V20.8742V21.017H2.28731V20.1848H2.58159V19.5012H2.28731V18.8176H1.99753V18.1278H1.70475V18.8176H1.41197V19.5012H1.12069V20.1848H0.828094V20.8742H1.12078V21.017V21.5579H1.41506V22.2476H1.70484V22.937H1.99763V23.6206H2.28741V22.937H2.58169V22.2476H2.87147V21.5579H3.16425V20.8742H3.45703V21.017V21.5579H3.75131V22.2476H4.044V22.937H4.33528V23.6206H4.62666V22.937H4.91794V22.2476H5.21063V21.5579H5.50181V20.8742H5.79309V20.1848H5.50172V19.5012H5.21053V18.8176H4.91784V18.1278H4.62656V18.8176H4.33519V19.5012H4.04109V20.1848H4.33519V20.8742V21.017H4.04109V20.8742V20.4642H3.75131V19.3644H3.70959H3.60422V18.6808H3.70959H3.78844H3.89541H4.044V18.1279H4.33528V17.7179H4.62666V17.0342H4.91794V17.7179H5.21063V18.1279H5.50341V18.5441H5.79319V17.3077H5.50331V16.7608H5.21053V16.2734H4.91784V16.0059V16V15.7266H5.21053V15.251H5.50331V14.6982H5.79319V13.4618H5.50331V13.8721H5.21053V14.2821H4.91784V14.9716H4.62656V14.2821H4.33519V13.8721H4.04391V13.3251H3.89531H3.78834H3.7095H3.60413V12.6415H3.7095H3.75122V11.5417H4.041V11.1256V10.9889H4.33509V11.1256V11.8151H4.041V12.5045H4.33509V13.1882H4.62647V13.8719H4.91775V13.1882H5.21044V12.5045H5.50163V11.8151H5.79319V11.1256H5.50181V10.442H5.21063V9.75231H4.91794V9.06868H4.62666V8.37924H4.33509V8.37943ZM1.12078 7.69581H1.26506V7.42243H1.41506V7.69581H1.55766V7.96918H1.41506V8.24856H1.26506V7.96918H1.12078V7.69581ZM1.12078 7.14296H0.975094V7.55902H0.828094V8.10596H0.975094V8.52202H1.12078V8.93227H1.55766V8.52202H1.70475V8.10596H1.84753V7.55902H1.70475V7.14296H1.55766V6.73881H1.12078V7.14296ZM2.72719 7.69581H2.87128V7.42243H3.01997V7.69581H3.16406V7.96918H3.01997V8.24856H2.87128V7.96918H2.72719V7.69581ZM3.45694 7.69581H3.60403V7.42243H3.75113V7.69581H3.89522V7.96918H3.75113V8.24856H3.60403V7.96918H3.45694V7.69581ZM2.72719 7.14296H2.5815V7.55902H2.43441V8.10596H2.5815V8.52202H2.72719V8.93227H3.16406V8.52202H3.45684V8.93227H3.89522V8.52202H4.04381V8.10596H4.18659V7.55902H4.04381V7.14296H3.89522V6.73881H3.45684V7.14296H3.16406V6.73881H2.72719V7.14296ZM5.05884 7.6899H5.20453V7.42234H5.35163V7.6899H5.49872V7.96927H5.35163V8.24256H5.20453V7.96927H5.05884V7.6899ZM5.05884 6.7329V7.14296H4.91475V7.55902H4.76766V8.10596H4.91475V8.51602H5.05884V8.92627H5.49881V8.51602H5.6445V8.10596H5.78859V7.55902H5.6445V7.14296H5.49881V6.7329H5.05884ZM0.828094 6.45943H1.12078V5.63912H0.828094V6.45943ZM3.16416 6.45943H3.45694V5.63912H3.16416V6.45943ZM5.50172 6.45943H5.79309V5.63912H5.50172V6.45943ZM1.99763 4.53943H2.28741V3.84971H1.99763V4.53943ZM4.33509 4.53943H4.62647V3.84971H4.33509V4.53943ZM0.828094 2.47674H1.12078V1.65643H0.828094V2.47674ZM3.16416 2.47674H3.45694V1.65643H3.16416V2.47674ZM5.50172 2.47674H5.79309V1.65643H5.50172V2.47674ZM1.41506 3.84981H1.70484V3.16618H1.99763V2.47674H2.28741V3.16618H2.58169V3.84981H2.87147V4.53952H2.58169V5.22315H2.28741V5.91259H1.99763V5.22315H1.70484V4.53952H1.41506V3.84981ZM3.75122 3.84981H4.04391V3.16618H4.33519V2.47674H4.62656V3.16618H4.91784V3.84981H5.21053V4.53952H4.91784V5.22315H4.62656V5.91259H4.33519V5.22315H4.04391V4.53952H3.75122V3.84981ZM4.33509 1.10349V1.79321H4.04381V2.47684H3.75113V3.16627H3.45684V3.8499H3.16406V3.16627H2.87128V2.47684H2.5815V1.79321H2.29031V1.10349H1.99753V1.79321H1.70475V2.47684H1.41497V3.16627H1.12069V3.8499H0.828094V4.53962H1.12078V5.22324H1.41506V5.91268H1.70484V6.60212H1.99763V7.28574H2.28741V6.60212H2.58169V5.91268H2.87147V5.22324H3.16425V4.53962H3.45703V5.22324H3.75131V5.91268H4.04109V6.60212H4.33519V7.28574H4.62656V6.60212H4.91784V5.91268H5.21053V5.22324H5.50172V4.53962H5.79309V3.8499H5.50322V3.16627H5.21044V2.47684H4.91775V1.79321H4.62647V1.10349H4.33509Z" fill="#FF4B55"/>
</g>
<defs>
<clipPath id="clip0_11_3012">
<rect width="48" height="32" fill="white"/>
</clipPath>
</defs>
</svg>
