<svg width="48" height="32" viewBox="0 0 48 32" fill="none" xmlns="http://www.w3.org/2000/svg">
<g clip-path="url(#clip0_11_1821)">
<path d="M47.9999 3.58615H0V1.10347C0 0.646441 0.370593 0.275848 0.827623 0.275848H47.1724C47.6294 0.275848 48 0.646441 48 1.10347L47.9999 3.58615Z" fill="#FF4B55"/>
<path d="M0 28.4137H47.9999V30.8965C47.9999 31.3535 47.6293 31.7241 47.1723 31.7241H0.827623C0.370593 31.7241 0 31.3535 0 30.8965V28.4137Z" fill="#FF4B55"/>
<path d="M47.9999 3.58655H0V28.4143H47.9999V3.58655Z" fill="#41479B"/>
<path d="M24 26.7587C29.9419 26.7587 34.7587 21.9419 34.7587 16C34.7587 10.0581 29.9419 5.24124 24 5.24124C18.0581 5.24124 13.2412 10.0581 13.2412 16C13.2412 21.9419 18.0581 26.7587 24 26.7587Z" fill="white"/>
<path d="M21.9353 21.6572L20.2755 21.9339C20.0664 21.9687 19.8759 21.8075 19.8759 21.5952V20.9708H21.9352L21.9353 21.6572Z" fill="#82AFFF"/>
<path d="M26.0542 21.6572L27.7139 21.9339C27.9231 21.9687 28.1136 21.8075 28.1136 21.5952V20.9708H26.0543V21.6572H26.0542Z" fill="#82AFFF"/>
<path d="M23.6518 10.492H23.5084C23.3361 10.492 23.1813 10.3961 23.1041 10.2422L22.8502 9.73439L23.0805 9.61908L23.3344 10.1269C23.3675 10.1933 23.4343 10.2345 23.5084 10.2345H23.6518V10.492Z" fill="#965032"/>
<path d="M21.4189 10.8124L20.9934 9.96136L20.7631 10.0765L21.1886 10.9275L21.4189 10.8124Z" fill="#965032"/>
<path d="M24.4669 14.4495L23.7636 13.7463C23.6108 13.5935 23.523 13.382 23.523 13.1657V12.929C23.523 12.8422 23.5024 12.755 23.4636 12.6773L23.2883 12.3267C23.2517 12.2536 23.1782 12.208 23.0963 12.208H22.491C22.311 12.208 22.1493 12.108 22.0688 11.9472L21.8205 11.4504L22.0507 11.3351L22.2991 11.8318C22.3357 11.9049 22.4092 11.9505 22.491 11.9505H23.0963C23.2763 11.9505 23.4381 12.0505 23.5185 12.2113L23.6938 12.562C23.7505 12.6756 23.7805 12.8023 23.7805 12.929V13.1657C23.7805 13.3141 23.8407 13.4593 23.9456 13.5639L24.2096 13.828V12.6287C24.2096 12.3036 24.0977 11.9848 23.8945 11.7308C23.6551 11.4311 23.5232 11.0554 23.5232 10.672V9.67682H23.7805V10.672C23.7805 10.9971 23.8925 11.3158 24.0956 11.5699C24.3352 11.8696 24.467 12.2453 24.467 12.6287V14.4495H24.4669Z" fill="#965032"/>
<path d="M23.8546 13.7838H23.4725C23.2368 13.7838 23.0235 13.6354 22.9414 13.4148L22.8447 13.154L23.086 13.0642L23.1827 13.325C23.2275 13.4457 23.3439 13.5264 23.4725 13.5264H23.8546V13.7838Z" fill="#965032"/>
<path d="M25.1435 9.38565L24.9078 9.28174L23.459 12.5672L23.6946 12.6711L25.1435 9.38565Z" fill="#965032"/>
<path d="M25.4966 12.2081H24.2524V11.9507H25.2392V10.7066H25.4966V12.2081Z" fill="#965032"/>
<path d="M23.1369 13.4523H22.1073C21.8229 13.4523 21.5924 13.2219 21.5924 12.9374C21.5924 12.6531 21.8228 12.4225 22.1073 12.4225H23.137C23.4213 12.4225 23.6519 12.653 23.6519 12.9374C23.6518 13.2219 23.4212 13.4523 23.1369 13.4523Z" fill="#73AF00"/>
<path d="M25.5396 13.4523H24.5098C24.2255 13.4523 23.995 13.2219 23.995 12.9374C23.995 12.6531 24.2254 12.4225 24.5098 12.4225H25.5396C25.8239 12.4225 26.0545 12.653 26.0545 12.9374C26.0545 13.2219 25.8238 13.4523 25.5396 13.4523Z" fill="#73AF00"/>
<path d="M26.569 12.4227H25.1961C24.9118 12.4227 24.6813 12.1922 24.6813 11.9078C24.6813 11.6234 24.9117 11.3929 25.1961 11.3929H26.569C26.8534 11.3929 27.0839 11.6234 27.0839 11.9078C27.0838 12.1921 26.8534 12.4227 26.569 12.4227Z" fill="#73AF00"/>
<path d="M26.9125 11.0498H24.5098C24.2255 11.0498 23.995 10.8193 23.995 10.5349C23.995 10.2505 24.2254 10.02 24.5098 10.02H26.9125C27.1968 10.02 27.4273 10.2505 27.4273 10.5349C27.4273 10.8191 27.1968 11.0498 26.9125 11.0498Z" fill="#73AF00"/>
<path d="M25.5395 9.67681H24.853C24.5687 9.67681 24.3382 9.44638 24.3382 9.16194C24.3382 8.8776 24.5686 8.64706 24.853 8.64706H25.5395C25.8238 8.64706 26.0543 8.8775 26.0543 9.16194C26.0543 9.44628 25.8237 9.67681 25.5395 9.67681Z" fill="#73AF00"/>
<path d="M21.0777 10.3632H20.7344C20.4501 10.3632 20.2196 10.1328 20.2196 9.84837C20.2196 9.56403 20.45 9.3335 20.7344 9.3335H21.0777C21.362 9.3335 21.5925 9.56393 21.5925 9.84837C21.5924 10.1328 21.3619 10.3632 21.0777 10.3632Z" fill="#73AF00"/>
<path d="M23.4801 10.02H22.4504C22.166 10.02 21.9355 9.78961 21.9355 9.50517C21.9355 9.22083 22.1659 8.9903 22.4504 8.9903H23.4801C23.7645 8.9903 23.995 9.22073 23.995 9.50517C23.9948 9.78961 23.7644 10.02 23.4801 10.02Z" fill="#73AF00"/>
<path d="M23.1368 11.7361H21.0775C20.7932 11.7361 20.5627 11.5057 20.5627 11.2212C20.5627 10.9369 20.7931 10.7064 21.0775 10.7064H23.1368C23.4212 10.7064 23.6517 10.9368 23.6517 11.2212C23.6517 11.5057 23.4212 11.7361 23.1368 11.7361Z" fill="#73AF00"/>
<path d="M29.1432 18.9113H18.8464C18.4673 18.9113 18.16 19.2187 18.16 19.5978C18.16 19.9769 18.4673 20.2842 18.8464 20.2842H21.5922C21.5922 20.6633 21.8996 20.9707 22.2787 20.9707H25.711C26.0901 20.9707 26.3974 20.6633 26.3974 20.2842H29.1432C29.5224 20.2842 29.8297 19.9769 29.8297 19.5978C29.8297 19.2188 29.5224 18.9113 29.1432 18.9113Z" fill="#73AF00"/>
<path d="M30.8378 12.8191C30.8121 12.7676 30.6783 12.8288 30.5947 12.7978C29.5578 12.4124 28.1656 11.7102 27.2557 11.2315L27.073 10.9423L25.3482 10.104C25.2384 10.0507 25.1061 10.0918 25.0458 10.1978L24.9608 10.3472C24.8959 10.4613 24.9388 10.6064 25.0551 10.667L26.6974 11.5214L27.1615 11.4871L28.9653 12.4145C28.9653 12.4145 30.1909 13.0414 30.2561 13.0874C30.3212 13.1335 30.3586 13.3914 30.4801 13.3698C30.5673 13.3544 30.9488 13.0422 30.8378 12.8191Z" fill="#BE7855"/>
<path d="M19.4613 19.4262C19.4613 19.4262 19.5757 19.934 19.4684 19.9912C19.3612 20.0483 18.7891 20.0483 18.8035 19.9268C18.8177 19.8053 18.8965 19.3763 18.8965 19.3763L19.4613 19.4262Z" fill="#FFBE3C"/>
<path d="M20.4121 19.1544C20.4121 19.1544 20.3191 19.5334 20.5051 19.5477C20.691 19.562 21.7421 19.5549 21.7708 19.5264C21.7995 19.4979 21.8351 19.4262 21.8351 19.4262L20.8626 19.1544H20.4121Z" fill="#FFBE3C"/>
<path d="M19.3455 14.428C19.3455 14.428 19.0898 15.0358 18.9968 17.1417C18.9721 17.702 19.0398 17.5707 18.7609 19.3727L19.0918 19.5455C19.1882 19.5957 19.3039 19.5922 19.3969 19.5357L19.719 19.3405C19.719 19.3405 19.5617 17.3242 20.0765 16.1657C20.0765 16.1657 20.3483 16.6663 20.3483 17.038C20.3483 17.4098 20.3341 19.1975 20.3341 19.1975C20.3341 19.1975 20.9347 19.2976 21.2064 19.269C21.2064 19.269 21.0348 15.3898 20.8632 14.4763L19.3455 14.428Z" fill="#EAF3F5"/>
<path d="M19.3935 14.1706C19.3935 14.1706 19.2916 14.2457 19.3452 14.428C19.3452 14.428 20.1282 14.7658 20.863 14.4762C20.863 14.4762 20.9434 14.3582 20.8416 14.2135L19.3935 14.1706Z" fill="#965032"/>
<path d="M18.3459 12.3116C17.9003 12.4772 17.2233 12.8907 17.2662 13.2197C17.3091 13.5487 17.5422 13.4684 17.6149 13.3876C17.6877 13.3068 17.8964 13.0477 17.9616 13.0017C18.0269 12.9556 19.0807 12.4145 19.0807 12.4145L21.8712 10.9798C21.8712 10.9798 21.8926 10.8403 21.7263 10.7277C21.7263 10.7277 20.0192 11.6894 18.3459 12.3116Z" fill="#965032"/>
<path d="M19.6615 10.6955L19.6454 10.8135C19.6454 10.8135 19.6024 11.5697 19.8492 11.7735C19.8492 11.7735 19.9028 11.929 19.817 12.0041C19.7312 12.0793 18.8839 12.5082 18.8839 12.5082C18.8839 12.5082 18.664 12.9641 18.6693 13.2215C18.6693 13.2215 18.4602 13.1411 18.4816 13.0391C18.503 12.9372 18.6265 12.6691 18.5889 12.5404C18.5513 12.4117 18.4119 12.4493 18.4119 12.4493C18.4119 12.4493 18.3421 12.5244 18.4548 12.5726L18.4172 12.7334L17.9613 13.0016L18.0632 13.1248C18.0632 13.1248 18.0686 14.0687 18.6263 14.192C18.6263 14.192 18.9212 14.2134 19.2699 13.5484C19.2699 13.5484 19.4576 13.8808 19.3932 14.1705C19.3932 14.1705 20.0045 14.503 20.8411 14.2135L20.8519 13.6343C20.8519 13.6343 20.9806 14.5245 21.4203 14.4386C21.4203 14.4386 22.6385 13.9697 22.4356 13.7915C21.9637 13.3767 21.3938 13.7273 21.3938 13.7273C21.3661 13.1248 21.3158 12.3456 21.2379 12.2613C21.1092 12.1219 20.7123 12.197 20.6337 12.0182C20.555 11.8394 20.5765 11.5249 20.6623 11.1601C20.7481 10.7954 20.3119 10.538 20.3119 10.538L19.6615 10.6955Z" fill="#FFBE3C"/>
<path d="M19.6454 10.8134C19.6454 10.8134 20.0834 10.9242 20.4266 10.7884L20.5768 11.1602H20.6626C20.6626 11.1602 20.8694 10.4721 20.5948 10.4802C20.5948 10.4802 20.5938 10.2568 20.1143 10.2661C19.7024 10.2742 19.5597 10.5417 19.6454 10.8134Z" fill="#464655"/>
<path d="M28.5851 19.4262C28.5851 19.4262 28.4707 19.934 28.5779 19.9912C28.6852 20.0483 29.2572 20.0483 29.2429 19.9268C29.2286 19.8053 29.1499 19.3763 29.1499 19.3763L28.5851 19.4262Z" fill="#965032"/>
<path d="M27.6339 19.1544C27.6339 19.1544 27.7269 19.5334 27.5409 19.5477C27.355 19.562 26.3039 19.5549 26.2752 19.5264C26.2465 19.4978 26.2109 19.4262 26.2109 19.4262L27.1834 19.1544H27.6339Z" fill="#965032"/>
<path d="M28.7012 14.428C28.7012 14.428 28.9569 15.0358 29.0499 17.1417C29.0746 17.702 29.0069 17.5707 29.2858 19.3727L28.9549 19.5455C28.8585 19.5957 28.7428 19.5922 28.6498 19.5357L28.3277 19.3405C28.3277 19.3405 28.485 17.3242 27.9702 16.1657C27.9702 16.1657 27.6984 16.6663 27.6984 17.038C27.6984 17.4098 27.7126 19.1975 27.7126 19.1975C27.7126 19.1975 27.112 19.2976 26.8403 19.269C26.8403 19.269 27.0119 15.3898 27.1835 14.4763L28.7012 14.428Z" fill="#EAF3F5"/>
<path d="M28.6528 14.1706C28.6528 14.1706 28.7547 14.2457 28.7011 14.428C28.7011 14.428 27.9181 14.7658 27.1834 14.4762C27.1834 14.4762 27.1029 14.3582 27.2047 14.2135L28.6528 14.1706Z" fill="#BE7855"/>
<path d="M28.3846 10.6955L28.4007 10.8135C28.4007 10.8135 28.4436 11.5697 28.1969 11.7735C28.1969 11.7735 28.1433 11.929 28.2291 12.0041C28.3148 12.0793 29.1621 12.5082 29.1621 12.5082C29.1621 12.5082 29.382 12.9641 29.3767 13.2215C29.3767 13.2215 29.5859 13.1411 29.5644 13.0391C29.543 12.9372 29.4196 12.6691 29.4572 12.5404C29.4948 12.4117 29.6342 12.4493 29.6342 12.4493C29.6342 12.4493 29.7039 12.5244 29.5912 12.5726L29.6288 12.7334L30.0847 13.0016L29.9828 13.1248C29.9828 13.1248 29.9775 14.0687 29.4198 14.192C29.4198 14.192 29.1248 14.2134 28.7762 13.5484C28.7762 13.5484 28.5885 13.8808 28.6529 14.1705C28.6529 14.1705 28.0416 14.503 27.2049 14.2135L27.1942 13.6343C27.1942 13.6343 27.0654 14.5245 26.6257 14.4386C26.6257 14.4386 25.4076 13.9697 25.6104 13.7915C26.0824 13.3767 26.6523 13.7273 26.6523 13.7273C26.6799 13.1248 26.7303 12.3456 26.8082 12.2613C26.9369 12.1219 27.3337 12.197 27.4124 12.0182C27.4912 11.8394 27.4696 11.5249 27.3838 11.1601C27.298 10.7954 27.7342 10.538 27.7342 10.538L28.3846 10.6955Z" fill="#965032"/>
<path d="M28.401 10.8134C28.401 10.8134 27.963 10.9242 27.6198 10.7884L27.4696 11.1602H27.3838C27.3838 11.1602 27.177 10.4721 27.4516 10.4802C27.4516 10.4802 27.4526 10.2568 27.932 10.2661C28.344 10.2742 28.4869 10.5417 28.401 10.8134Z" fill="#464655"/>
<path d="M21.0432 11.1C21.0074 11.0129 21.0674 10.989 21.0674 10.989C21.0674 10.989 21.5014 10.7508 21.552 10.7548C21.6354 10.7616 21.7378 10.9082 21.7378 11.0335C21.7378 11.1586 21.9008 11.4836 22.236 11.5644C22.236 11.5644 21.8177 12.1328 21.2371 12.0552C21.2371 12.055 21.276 11.6661 21.0432 11.1Z" fill="#EAF3F5"/>
<path d="M21.6517 13.763C21.5231 13.763 21.4188 13.8742 21.4188 14.0113V16.852C21.4188 17.5384 21.7407 19.941 23.993 20.6274C26.2453 19.9409 26.5672 17.5383 26.5672 16.852V14.0113C26.5672 13.8742 26.4629 13.763 26.3343 13.763H21.6517Z" fill="#82AFFF"/>
<path d="M26.5673 16.8521V14.0114C26.5673 13.8743 26.463 13.7631 26.3344 13.7631H23.9931V16.1657L26.2557 18.4284C26.5062 17.7671 26.5673 17.149 26.5673 16.8521Z" fill="#FFE15A"/>
<path d="M21.4188 16.8521V14.0114C21.4188 13.8743 21.5231 13.7631 21.6517 13.7631H23.993V16.1657L21.7303 18.4284C21.4798 17.7671 21.4188 17.149 21.4188 16.8521Z" fill="#EAF3F5"/>
<path d="M22.4749 18.3548L23.0705 18.9847H24.7295L25.0811 18.5339L24.6766 18.6957H23.3359L22.4749 18.3548Z" fill="#8C5A28"/>
<path d="M23.1164 17.542L23.0255 18.4588L22.6117 18.3009C22.6117 18.3009 22.8021 17.8589 23.1164 17.542Z" fill="white"/>
<path d="M23.9938 17.1784H23.9326V18.7394H23.9938V17.1784Z" fill="#8C5A28"/>
<path d="M24.56 17.3106H24.4989V18.7398H24.56V17.3106Z" fill="#8C5A28"/>
<path d="M23.4301 17.3106H23.369V18.7398H23.4301V17.3106Z" fill="#8C5A28"/>
<path d="M24.1699 18.5918H23.7571C23.7291 18.5918 23.7063 18.569 23.7063 18.541V18.3131C23.7063 18.2851 23.7291 18.2623 23.7571 18.2623H24.1699C24.1979 18.2623 24.2207 18.2851 24.2207 18.3131V18.541C24.2206 18.569 24.1979 18.5918 24.1699 18.5918Z" fill="white"/>
<path d="M24.1699 18.1526H23.7571C23.7291 18.1526 23.7063 18.1298 23.7063 18.1017V17.8739C23.7063 17.8459 23.7291 17.8231 23.7571 17.8231H24.1699C24.1979 17.8231 24.2207 17.8459 24.2207 17.8739V18.1017C24.2206 18.1298 24.1979 18.1526 24.1699 18.1526Z" fill="white"/>
<path d="M24.1699 17.748H23.7571C23.7291 17.748 23.7063 17.7252 23.7063 17.6972V17.4694C23.7063 17.4414 23.7291 17.4186 23.7571 17.4186H24.1699C24.1979 17.4186 24.2207 17.4414 24.2207 17.4694V17.6972C24.2206 17.7252 24.1979 17.748 24.1699 17.748Z" fill="white"/>
<path d="M24.7012 18.5918H24.3579C24.3298 18.5918 24.3071 18.569 24.3071 18.541V18.3131C24.3071 18.2851 24.3298 18.2623 24.3579 18.2623H24.7012C24.7292 18.2623 24.752 18.2851 24.752 18.3131V18.541C24.7519 18.569 24.7292 18.5918 24.7012 18.5918Z" fill="white"/>
<path d="M24.7012 18.1873H24.3579C24.3298 18.1873 24.3071 18.1645 24.3071 18.1365V17.9604C24.3071 17.9323 24.3298 17.9095 24.3579 17.9095H24.7012C24.7292 17.9095 24.752 17.9323 24.752 17.9604V18.1365C24.7519 18.1646 24.7292 18.1873 24.7012 18.1873Z" fill="white"/>
<path d="M24.7012 17.7865H24.3579C24.3298 17.7865 24.3071 17.7638 24.3071 17.7357V17.6041C24.3071 17.5761 24.3298 17.5533 24.3579 17.5533H24.7012C24.7292 17.5533 24.752 17.5761 24.752 17.6041V17.7357C24.7519 17.7638 24.7292 17.7865 24.7012 17.7865Z" fill="white"/>
<path d="M23.5711 18.5918H23.2278C23.1998 18.5918 23.177 18.569 23.177 18.541V18.3131C23.177 18.2851 23.1998 18.2623 23.2278 18.2623H23.5711C23.5991 18.2623 23.6219 18.2851 23.6219 18.3131V18.541C23.6219 18.569 23.5991 18.5918 23.5711 18.5918Z" fill="white"/>
<path d="M23.5711 18.1873H23.2278C23.1998 18.1873 23.177 18.1645 23.177 18.1365V17.9604C23.177 17.9323 23.1998 17.9095 23.2278 17.9095H23.5711C23.5991 17.9095 23.6219 17.9323 23.6219 17.9604V18.1365C23.6219 18.1646 23.5991 18.1873 23.5711 18.1873Z" fill="white"/>
<path d="M23.5711 17.7865H23.2278C23.1998 17.7865 23.177 17.7638 23.177 17.7357V17.6041C23.177 17.5761 23.1998 17.5533 23.2278 17.5533H23.5711C23.5991 17.5533 23.6219 17.5761 23.6219 17.6041V17.7357C23.6219 17.7638 23.5991 17.7865 23.5711 17.7865Z" fill="white"/>
<path d="M24.4985 17.3109V17.4956L24.2267 17.4016L24.4985 17.3109Z" fill="#FF4B55"/>
<path d="M23.3694 17.3109V17.4956L23.0976 17.4016L23.3694 17.3109Z" fill="#FF4B55"/>
<path d="M23.9349 17.1782V17.3629L23.663 17.2688L23.9349 17.1782Z" fill="#FF4B55"/>
<path d="M26.036 18.9113H21.95C22.0108 19.0271 22.0776 19.1417 22.1524 19.2546H25.8334C25.9085 19.1418 25.9751 19.0271 26.036 18.9113Z" fill="#4173CD"/>
<path d="M25.8334 19.2547H22.1523C22.3149 19.4994 22.5142 19.7318 22.7531 19.9411H25.2325C25.4716 19.7318 25.6708 19.4993 25.8334 19.2547Z" fill="#73AF00"/>
<path d="M22.753 19.9411C23.0824 20.2298 23.4867 20.4732 23.9928 20.6275C24.4989 20.4733 24.9031 20.2297 25.2325 19.9411H22.753Z" fill="#FFE15A"/>
<path d="M23.552 16.3673C23.552 16.3673 23.5269 16.3761 23.4999 16.373C23.479 16.364 23.4362 16.3627 23.462 16.2834C23.4745 16.2441 23.5008 16.1886 23.4818 16.1743C23.4664 16.1564 23.4497 16.1371 23.4318 16.1165C23.3961 16.0752 23.356 16.0286 23.312 15.9777C23.2218 15.8784 23.1149 15.7641 22.9902 15.6515C22.9281 15.5951 22.8639 15.5366 22.7984 15.4774C22.7307 15.4204 22.6683 15.3565 22.5946 15.3034C22.5529 15.2815 22.4999 15.2705 22.4536 15.2533C22.4084 15.2351 22.38 15.2007 22.3469 15.1716C22.2821 15.1118 22.2185 15.0529 22.1568 14.9959C22.0316 14.8838 21.9216 14.7726 21.8276 14.677C21.7363 14.5857 21.6626 14.5065 21.6106 14.4487C21.561 14.3936 21.5642 14.3099 21.6175 14.2586L21.7699 14.1115C21.8231 14.0601 21.907 14.0599 21.9601 14.1114C22.016 14.1654 22.0927 14.242 22.1804 14.3364C22.2726 14.4338 22.3798 14.5477 22.4874 14.6768C22.5421 14.7405 22.5985 14.8063 22.6561 14.8731C22.684 14.9072 22.7173 14.9367 22.734 14.9825C22.7496 15.0294 22.7587 15.0827 22.779 15.1252C22.8295 15.2007 22.891 15.2654 22.9457 15.3352C23.0026 15.4025 23.0586 15.4689 23.1128 15.533C23.2209 15.6616 23.3312 15.7724 23.4274 15.8661C23.4766 15.9118 23.5217 15.9536 23.5617 15.9908C23.5817 16.0093 23.6005 16.0267 23.6178 16.0428C23.6315 16.0624 23.6878 16.038 23.7275 16.027C23.8076 16.004 23.8075 16.0468 23.8157 16.068C23.8178 16.0951 23.8081 16.12 23.8081 16.12L23.552 16.3673Z" fill="#BE7855"/>
<path d="M21.8712 16.6376C21.8448 16.6376 21.818 16.6295 21.795 16.6125C21.7379 16.5703 21.7256 16.4897 21.7679 16.4325L22.9907 14.7736C23.0328 14.7166 23.1128 14.7039 23.1707 14.7465C23.2278 14.7887 23.24 14.8692 23.1978 14.9265L21.975 16.5854C21.9497 16.6194 21.9107 16.6376 21.8712 16.6376Z" fill="#965032"/>
<path d="M22.8506 14.664L23.4871 15.0859L23.7587 14.7069L23.1652 14.2278L22.8506 14.664Z" fill="white"/>
<path d="M24.5417 14.5009L26.1726 16.512C26.1726 16.512 26.4018 16.5224 26.3706 16.3401L24.6824 14.3602L24.5417 14.5009Z" fill="#965032"/>
<path d="M24.1771 14.777C24.1771 14.777 24.6357 14.6936 24.8284 14.407L25.0889 14.7144C25.0889 14.7144 24.6617 15.0166 24.62 15.3448C24.62 15.3449 24.271 15.2512 24.1771 14.777Z" fill="#EAF3F5"/>
<path d="M25.9384 14.579C25.9084 14.579 25.8796 14.5628 25.8646 14.5344C25.8182 14.4464 25.8103 14.367 25.8408 14.298C25.8837 14.2013 25.9844 14.1729 25.9957 14.17C26.0411 14.1599 26.0857 14.1857 26.0973 14.2299C26.1087 14.2742 26.0823 14.3196 26.0383 14.3312C26.029 14.3341 26.0016 14.3462 25.993 14.3661C25.9848 14.3857 25.9917 14.4179 26.0122 14.4569C26.0337 14.4976 26.0181 14.548 25.9772 14.5696C25.9648 14.5761 25.9515 14.579 25.9384 14.579Z" fill="#965032"/>
<path d="M24.5986 15.8199C24.5986 15.7899 24.5823 15.7611 24.5539 15.7461C24.466 15.6997 24.3866 15.6917 24.3176 15.7223C24.2208 15.7651 24.1925 15.8659 24.1896 15.8771C24.1795 15.9225 24.2053 15.9671 24.2495 15.9788C24.2938 15.9901 24.3391 15.9638 24.3508 15.9197C24.3537 15.9104 24.3658 15.883 24.3856 15.8744C24.4052 15.8663 24.4375 15.8731 24.4765 15.8936C24.5172 15.9152 24.5676 15.8995 24.5892 15.8587C24.5956 15.8462 24.5986 15.833 24.5986 15.8199Z" fill="#965032"/>
<path d="M25.9937 14.3915L24.4585 15.899L24.8197 16.3019L26.3203 14.7875L25.9937 14.3915Z" fill="#EAF3F5"/>
<path d="M18.1957 12.2186C18.2985 12.1947 18.3887 12.3329 18.2958 12.4332C18.2028 12.5333 17.9342 12.7141 17.8525 12.6978C17.7095 12.669 17.6094 12.3543 18.1957 12.2186Z" fill="#FFBE3C"/>
<path d="M29.8446 12.3633C29.7492 12.3395 29.6656 12.4777 29.7518 12.5779C29.8379 12.678 30.087 12.8589 30.1629 12.8426C30.2954 12.8138 30.3883 12.4991 29.8446 12.3633Z" fill="#965032"/>
<path d="M26.3341 13.763C26.4627 13.763 26.5669 13.8742 26.5669 14.0113V16.852C26.5669 17.5384 26.2451 19.941 23.9928 20.6274C21.7404 19.9409 21.4186 17.5383 21.4186 16.852V14.0113C21.4186 13.8742 21.5228 13.763 21.6514 13.763H26.3341ZM26.3341 13.5913H21.6515C21.4285 13.5913 21.2471 13.7797 21.2471 14.0113V16.852C21.2471 17.0159 21.2692 17.8812 21.7058 18.8126C22.17 19.8027 22.9436 20.487 23.943 20.7917L23.993 20.8069L24.0431 20.7917C25.0425 20.4871 25.8161 19.8027 26.2802 18.8126C26.7168 17.8813 26.739 17.016 26.739 16.852V14.0113C26.7385 13.7799 26.5571 13.5913 26.3341 13.5913Z" fill="#464655"/>
<path d="M28.1134 20.6678C27.3841 20.4233 26.6016 20.536 25.8636 21.0284C24.9204 21.6572 24.2952 21.6572 23.9946 21.6572C23.694 21.6572 23.0688 21.6572 22.1256 21.0284C21.3878 20.5364 20.605 20.4234 19.8758 20.6677V21.4034C20.3354 21.1837 20.9831 21.0918 21.7448 21.5994C22.861 22.3435 23.6554 22.3435 23.9946 22.3435C24.3338 22.3435 25.1282 22.3435 26.2444 21.5994C27.0061 21.0913 27.6538 21.1835 28.1134 21.4033V20.6678Z" fill="#EAF3F5"/>
<path d="M23.9949 24.5747C19.1689 24.5747 15.2427 20.6483 15.2427 15.8225C15.2427 10.9966 19.169 7.07028 23.9949 7.07028C28.8207 7.07028 32.7471 10.9966 32.7471 15.8225C32.7471 20.6483 28.8208 24.5747 23.9949 24.5747ZM23.9949 7.41341C19.3581 7.41341 15.5858 11.1855 15.5858 15.8225C15.5858 20.4594 19.3581 24.2316 23.9949 24.2316C28.6317 24.2316 32.404 20.4594 32.404 15.8225C32.404 11.1855 28.6317 7.41341 23.9949 7.41341Z" fill="#965032"/>
<path d="M14.4203 16.5518C14.4203 16.5518 14.3845 15.4792 15.4142 15.4792C15.4142 15.4792 15.4356 15.9011 15.0639 16.087C14.7632 16.2373 14.4203 16.5518 14.4203 16.5518Z" fill="#73AF00"/>
<path d="M16.4083 16.5518C16.4083 16.5518 16.4441 15.4792 15.4143 15.4792C15.4143 15.4792 15.3929 15.9011 15.7647 16.087C16.0654 16.2373 16.4083 16.5518 16.4083 16.5518Z" fill="#73AF00"/>
<path d="M33.5624 15.4792C33.5624 15.4792 33.5982 16.5518 32.5685 16.5518C32.5685 16.5518 32.5471 16.1299 32.9188 15.944C33.2195 15.7936 33.5624 15.4792 33.5624 15.4792Z" fill="#73AF00"/>
<path d="M31.5742 15.4792C31.5742 15.4792 31.5384 16.5518 32.5681 16.5518C32.5681 16.5518 32.5895 16.1299 32.2178 15.944C31.9169 15.7936 31.5742 15.4792 31.5742 15.4792Z" fill="#73AF00"/>
<path d="M24.5276 25.5865C24.5276 25.5865 23.455 25.6223 23.455 24.5925C23.455 24.5925 23.8769 24.5711 24.0628 24.9429C24.2131 25.2435 24.5276 25.5865 24.5276 25.5865Z" fill="#73AF00"/>
<path d="M24.5276 23.5984C24.5276 23.5984 23.455 23.5626 23.455 24.5923C23.455 24.5923 23.8769 24.6137 24.0628 24.242C24.2131 23.9413 24.5276 23.5984 24.5276 23.5984Z" fill="#73AF00"/>
<path d="M23.4551 6.44452C23.4551 6.44452 24.5277 6.40871 24.5277 7.43845C24.5277 7.43845 24.1058 7.45983 23.9199 7.08811C23.7694 6.78736 23.4551 6.44452 23.4551 6.44452Z" fill="#73AF00"/>
<path d="M23.4551 8.43255C23.4551 8.43255 24.5277 8.46836 24.5277 7.43861C24.5277 7.43861 24.1058 7.41724 23.9199 7.78896C23.7694 8.08961 23.4551 8.43255 23.4551 8.43255Z" fill="#73AF00"/>
<path d="M17.6027 23.1624C17.6027 23.1624 16.819 22.4292 17.5471 21.7012C17.5471 21.7012 17.8605 21.9843 17.7291 22.3786C17.623 22.6975 17.6027 23.1624 17.6027 23.1624Z" fill="#73AF00"/>
<path d="M19.0085 21.7567C19.0085 21.7567 18.2754 20.9729 17.5473 21.701C17.5473 21.701 17.8305 22.0144 18.2248 21.8831C18.5436 21.7767 19.0085 21.7567 19.0085 21.7567Z" fill="#73AF00"/>
<path d="M30.3799 8.86862C30.3799 8.86862 31.1637 9.60174 30.4356 10.3298C30.4356 10.3298 30.1222 10.0467 30.2536 9.65237C30.3598 9.33343 30.3799 8.86862 30.3799 8.86862Z" fill="#73AF00"/>
<path d="M28.9738 10.2743C28.9738 10.2743 29.7069 11.058 30.435 10.33C30.435 10.33 30.1519 10.0166 29.7575 10.1479C29.4387 10.2541 28.9738 10.2743 28.9738 10.2743Z" fill="#73AF00"/>
<path d="M31.1381 22.4039C31.1381 22.4039 30.405 23.1876 29.6769 22.4596C29.6769 22.4596 29.9601 22.1462 30.3544 22.2776C30.6733 22.3839 31.1381 22.4039 31.1381 22.4039Z" fill="#73AF00"/>
<path d="M29.7324 20.9982C29.7324 20.9982 28.9487 21.7313 29.6768 22.4594C29.6768 22.4594 29.9902 22.1762 29.8588 21.7819C29.7525 21.463 29.7324 20.9982 29.7324 20.9982Z" fill="#73AF00"/>
<path d="M16.8443 9.62694C16.8443 9.62694 17.5775 8.8432 18.3055 9.57125C18.3055 9.57125 18.0224 9.88465 17.6281 9.75331C17.3091 9.647 16.8443 9.62694 16.8443 9.62694Z" fill="#73AF00"/>
<path d="M18.2501 11.0327C18.2501 11.0327 19.0339 10.2996 18.3058 9.57153C18.3058 9.57153 17.9924 9.85466 18.1237 10.249C18.2301 10.5679 18.2501 11.0327 18.2501 11.0327Z" fill="#73AF00"/>
<path d="M15.3541 20.1736C15.3541 20.1736 14.9106 19.1963 15.8619 18.8023C15.8619 18.8023 16.0431 19.1838 15.7708 19.4979C15.5505 19.7518 15.3541 20.1736 15.3541 20.1736Z" fill="#73AF00"/>
<path d="M17.1909 19.4129C17.1909 19.4129 16.8135 18.4082 15.8622 18.8022C15.8622 18.8022 16.0038 19.2002 16.4185 19.2297C16.7536 19.2535 17.1909 19.4129 17.1909 19.4129Z" fill="#73AF00"/>
<path d="M32.6286 11.8573C32.6286 11.8573 33.072 12.8345 32.1208 13.2285C32.1208 13.2285 31.9396 12.847 32.2119 12.5329C32.4321 12.279 32.6286 11.8573 32.6286 11.8573Z" fill="#73AF00"/>
<path d="M30.7915 12.6181C30.7915 12.6181 31.1688 13.6228 32.1202 13.2287C32.1202 13.2287 31.9786 12.8308 31.5639 12.8013C31.2287 12.7775 30.7915 12.6181 30.7915 12.6181Z" fill="#73AF00"/>
<path d="M28.1492 24.6527C28.1492 24.6527 27.1719 25.0961 26.7779 24.1449C26.7779 24.1449 27.1593 23.9636 27.4735 24.236C27.7275 24.4562 28.1492 24.6527 28.1492 24.6527Z" fill="#73AF00"/>
<path d="M27.3887 22.8159C27.3887 22.8159 26.3841 23.1933 26.7781 24.1447C26.7781 24.1447 27.176 24.003 27.2055 23.5884C27.2294 23.253 27.3887 22.8159 27.3887 22.8159Z" fill="#73AF00"/>
<path d="M19.8331 7.37816C19.8331 7.37816 20.8103 6.93472 21.2043 7.88601C21.2043 7.88601 20.8228 8.06723 20.5087 7.79488C20.2548 7.57466 19.8331 7.37816 19.8331 7.37816Z" fill="#73AF00"/>
<path d="M20.5941 9.21501C20.5941 9.21501 21.5987 8.83766 21.2047 7.88629C21.2047 7.88629 20.8067 8.02795 20.7773 8.4426C20.7534 8.77785 20.5941 9.21501 20.5941 9.21501Z" fill="#73AF00"/>
<path d="M20.8242 25.0632C20.8242 25.0632 19.8196 24.6858 20.2136 23.7344C20.2136 23.7344 20.6116 23.8761 20.641 24.2907C20.6648 24.626 20.8242 25.0632 20.8242 25.0632Z" fill="#73AF00"/>
<path d="M21.5847 23.2264C21.5847 23.2264 20.6075 22.7829 20.2134 23.7342C20.2134 23.7342 20.595 23.9155 20.909 23.6431C21.1629 23.4229 21.5847 23.2264 21.5847 23.2264Z" fill="#73AF00"/>
<path d="M27.1586 6.96783C27.1586 6.96783 28.1632 7.34518 27.7691 8.29655C27.7691 8.29655 27.3712 8.15489 27.3417 7.74024C27.3178 7.4049 27.1586 6.96783 27.1586 6.96783Z" fill="#73AF00"/>
<path d="M26.3975 8.80458C26.3975 8.80458 27.3748 9.24801 27.7688 8.29675C27.7688 8.29675 27.3873 8.11553 27.0732 8.38787C26.8193 8.60808 26.3975 8.80458 26.3975 8.80458Z" fill="#73AF00"/>
<path d="M33.0388 19.1827C33.0388 19.1827 32.6615 20.1873 31.7101 19.7933C31.7101 19.7933 31.8517 19.3953 32.2664 19.3659C32.6017 19.342 33.0388 19.1827 33.0388 19.1827Z" fill="#73AF00"/>
<path d="M31.2021 18.4219C31.2021 18.4219 30.7586 19.3991 31.7099 19.7932C31.7099 19.7932 31.8912 19.4117 31.6188 19.0975C31.3985 18.8436 31.2021 18.4219 31.2021 18.4219Z" fill="#73AF00"/>
<path d="M14.9437 12.8482C14.9437 12.8482 15.321 11.8436 16.2724 12.2376C16.2724 12.2376 16.1308 12.6356 15.7161 12.665C15.3808 12.689 14.9437 12.8482 14.9437 12.8482Z" fill="#73AF00"/>
<path d="M16.7804 13.6091C16.7804 13.6091 17.2238 12.6318 16.2725 12.2378C16.2725 12.2378 16.0913 12.6194 16.3637 12.9334C16.584 13.1873 16.7804 13.6091 16.7804 13.6091Z" fill="#73AF00"/>
<path d="M14.7089 18.4087C14.7089 18.4087 14.4646 17.3636 15.4745 17.1627C15.4745 17.1627 15.5778 17.5723 15.2494 17.8271C14.9839 18.0333 14.7089 18.4087 14.7089 18.4087Z" fill="#73AF00"/>
<path d="M16.6587 18.0209C16.6587 18.0209 16.4845 16.9618 15.4746 17.1627C15.4746 17.1627 15.5359 17.5807 15.9368 17.6906C16.2611 17.7793 16.6587 18.0209 16.6587 18.0209Z" fill="#73AF00"/>
<path d="M33.2736 13.6222C33.2736 13.6222 33.5179 14.6672 32.5079 14.8681C32.5079 14.8681 32.4046 14.4585 32.733 14.2037C32.9986 13.9976 33.2736 13.6222 33.2736 13.6222Z" fill="#73AF00"/>
<path d="M31.3238 14.0101C31.3238 14.0101 31.498 15.0691 32.5079 14.8682C32.5079 14.8682 32.4467 14.4503 32.0457 14.3404C31.7215 14.2516 31.3238 14.0101 31.3238 14.0101Z" fill="#73AF00"/>
<path d="M26.3845 25.298C26.3845 25.298 25.3394 25.5423 25.1385 24.5323C25.1385 24.5323 25.5481 24.429 25.8029 24.7574C26.0092 25.023 26.3845 25.298 26.3845 25.298Z" fill="#73AF00"/>
<path d="M25.9967 23.3481C25.9967 23.3481 24.9377 23.5222 25.1386 24.5321C25.1386 24.5321 25.5565 24.4709 25.6664 24.0699C25.7552 23.7457 25.9967 23.3481 25.9967 23.3481Z" fill="#73AF00"/>
<path d="M21.5983 6.73297C21.5983 6.73297 22.6433 6.48866 22.8442 7.49863C22.8442 7.49863 22.4346 7.60194 22.1798 7.27354C21.9736 7.00794 21.5983 6.73297 21.5983 6.73297Z" fill="#73AF00"/>
<path d="M21.986 8.6829C21.986 8.6829 23.045 8.50871 22.8441 7.49884C22.8441 7.49884 22.4261 7.56006 22.3162 7.96103C22.2275 8.28521 21.986 8.6829 21.986 8.6829Z" fill="#73AF00"/>
<path d="M19.1197 24.2713C19.1197 24.2713 18.208 23.7052 18.7801 22.849C18.7801 22.849 19.1428 23.0656 19.0908 23.478C19.0488 23.8117 19.1197 24.2713 19.1197 24.2713Z" fill="#73AF00"/>
<path d="M20.2242 22.6184C20.2242 22.6184 19.3522 21.9927 18.7801 22.8488C18.7801 22.8488 19.119 23.101 19.4802 22.8951C19.7722 22.7288 20.2242 22.6184 20.2242 22.6184Z" fill="#73AF00"/>
<path d="M28.8626 7.75955C28.8626 7.75955 29.7743 8.32571 29.2023 9.18183C29.2023 9.18183 28.8396 8.96527 28.8916 8.55286C28.9336 8.21939 28.8626 7.75955 28.8626 7.75955Z" fill="#73AF00"/>
<path d="M27.7584 9.41254C27.7584 9.41254 28.6304 10.0382 29.2024 9.18211C29.2024 9.18211 28.8635 8.92992 28.5024 9.13579C28.2104 9.3021 27.7584 9.41254 27.7584 9.41254Z" fill="#73AF00"/>
<path d="M32.2471 20.887C32.2471 20.887 31.6809 21.7986 30.8248 21.2266C30.8248 21.2266 31.0413 20.8639 31.4538 20.9159C31.7872 20.9579 32.2471 20.887 32.2471 20.887Z" fill="#73AF00"/>
<path d="M30.5943 19.7824C30.5943 19.7824 29.9686 20.6544 30.8248 21.2264C30.8248 21.2264 31.0769 20.8875 30.8711 20.5264C30.7047 20.2343 30.5943 19.7824 30.5943 19.7824Z" fill="#73AF00"/>
<path d="M15.7353 11.144C15.7353 11.144 16.3015 10.2323 17.1576 10.8044C17.1576 10.8044 16.9411 11.1671 16.5286 11.115C16.1952 11.073 15.7353 11.144 15.7353 11.144Z" fill="#73AF00"/>
<path d="M17.3883 12.2486C17.3883 12.2486 18.014 11.3766 17.1579 10.8045C17.1579 10.8045 16.9057 11.1434 17.1116 11.5046C17.2779 11.7966 17.3883 12.2486 17.3883 12.2486Z" fill="#73AF00"/>
<path d="M16.3312 21.7788C16.3312 21.7788 15.7055 20.9068 16.5616 20.3347C16.5616 20.3347 16.8138 20.6737 16.6079 21.0348C16.4415 21.3268 16.3312 21.7788 16.3312 21.7788Z" fill="#73AF00"/>
<path d="M17.9842 20.6743C17.9842 20.6743 17.4181 19.7625 16.5619 20.3346C16.5619 20.3346 16.7785 20.6973 17.1909 20.6453C17.5244 20.6033 17.9842 20.6743 17.9842 20.6743Z" fill="#73AF00"/>
<path d="M31.6515 10.2522C31.6515 10.2522 32.2772 11.1241 31.421 11.6962C31.421 11.6962 31.1689 11.3573 31.3747 10.9962C31.541 10.7041 31.6515 10.2522 31.6515 10.2522Z" fill="#73AF00"/>
<path d="M29.9984 11.3567C29.9984 11.3567 30.5646 12.2684 31.4207 11.6964C31.4207 11.6964 31.2041 11.3337 30.7917 11.3857C30.4583 11.4277 29.9984 11.3567 29.9984 11.3567Z" fill="#73AF00"/>
<path d="M29.7546 23.6755C29.7546 23.6755 28.8827 24.3012 28.3106 23.445C28.3106 23.445 28.6495 23.1928 29.0106 23.3987C29.3027 23.5651 29.7546 23.6755 29.7546 23.6755Z" fill="#73AF00"/>
<path d="M28.65 22.0225C28.65 22.0225 27.7383 22.5886 28.3104 23.4447C28.3104 23.4447 28.6731 23.2282 28.6212 22.8158C28.5791 22.4823 28.65 22.0225 28.65 22.0225Z" fill="#73AF00"/>
<path d="M18.228 8.35542C18.228 8.35542 19.0999 7.72973 19.672 8.58587C19.672 8.58587 19.3331 8.83806 18.972 8.63218C18.6799 8.46586 18.228 8.35542 18.228 8.35542Z" fill="#73AF00"/>
<path d="M19.3326 10.0085C19.3326 10.0085 20.2444 9.44237 19.6723 8.58624C19.6723 8.58624 19.3096 8.8028 19.3616 9.21521C19.4036 9.54868 19.3326 10.0085 19.3326 10.0085Z" fill="#73AF00"/>
<path d="M22.65 25.5071C22.65 25.5071 21.591 25.333 21.7919 24.3231C21.7919 24.3231 22.2098 24.3843 22.3197 24.7853C22.4084 25.1095 22.65 25.5071 22.65 25.5071Z" fill="#73AF00"/>
<path d="M23.0378 23.5573C23.0378 23.5573 21.9928 23.313 21.7919 24.3229C21.7919 24.3229 22.2014 24.4262 22.4563 24.0978C22.6624 23.8322 23.0378 23.5573 23.0378 23.5573Z" fill="#73AF00"/>
<path d="M25.3326 6.52374C25.3326 6.52374 26.3916 6.69793 26.1907 7.7078C26.1907 7.7078 25.7728 7.64658 25.6629 7.24562C25.5742 6.92143 25.3326 6.52374 25.3326 6.52374Z" fill="#73AF00"/>
<path d="M24.9445 8.47363C24.9445 8.47363 25.9896 8.71795 26.1905 7.70797C26.1905 7.70797 25.7809 7.60466 25.5261 7.93307C25.3199 8.19866 24.9445 8.47363 24.9445 8.47363Z" fill="#73AF00"/>
<path d="M33.4831 17.3567C33.4831 17.3567 33.3089 18.4157 32.299 18.2148C32.299 18.2148 32.3602 17.7969 32.7612 17.687C33.0855 17.5982 33.4831 17.3567 33.4831 17.3567Z" fill="#73AF00"/>
<path d="M31.5331 16.9689C31.5331 16.9689 31.2888 18.0139 32.2987 18.2148C32.2987 18.2148 32.402 17.8052 32.0736 17.5504C31.8079 17.3442 31.5331 16.9689 31.5331 16.9689Z" fill="#73AF00"/>
<path d="M14.4994 14.6743C14.4994 14.6743 14.6736 13.6152 15.6835 13.8162C15.6835 13.8162 15.6223 14.2341 15.2213 14.344C14.8971 14.4328 14.4994 14.6743 14.4994 14.6743Z" fill="#73AF00"/>
<path d="M16.4494 15.0621C16.4494 15.0621 16.6938 14.0171 15.6838 13.8162C15.6838 13.8162 15.5805 14.2258 15.9089 14.4806C16.1745 14.6868 16.4494 15.0621 16.4494 15.0621Z" fill="#73AF00"/>
</g>
<defs>
<clipPath id="clip0_11_1821">
<rect width="48" height="32" fill="white"/>
</clipPath>
</defs>
</svg>
