<svg width="48" height="32" viewBox="0 0 48 32" fill="none" xmlns="http://www.w3.org/2000/svg">
<g clip-path="url(#clip0_11_4691)">
<path d="M47.1723 31.7239H0.827623C0.370593 31.7239 0 31.3533 0 30.8963V1.10326C0 0.646227 0.370593 0.275635 0.827623 0.275635H47.1724C47.6294 0.275635 48 0.646227 48 1.10326V30.8963C47.9999 31.3534 47.6293 31.7239 47.1723 31.7239Z" fill="white"/>
<path d="M37.2414 0.276184H10.7589V31.7246H37.2414V0.276184Z" fill="white"/>
<path d="M0.827623 0.275757C0.370593 0.275757 0 0.646256 0 1.10329V30.8963C0 31.3534 0.370593 31.7239 0.827623 31.7239H10.7586V0.275757H0.827623Z" fill="#FF4B55"/>
<path d="M47.1721 0.275757H37.2411V31.7239H47.1721C47.6291 31.7239 47.9997 31.3534 47.9997 30.8963V1.10329C47.9997 0.646256 47.6291 0.275757 47.1721 0.275757Z" fill="#FF4B55"/>
<path d="M29.0222 19.6335L33.9331 16.8273L32.8062 16.2639C32.4902 16.1058 32.3093 15.7646 32.356 15.4142L32.7227 12.6653L30.6436 13.2702C30.1843 13.4039 29.7077 13.1213 29.6044 12.6543L29.4053 11.7543L27.4531 14.039C27.1825 14.3557 26.6669 14.1138 26.7375 13.7032L27.5712 8.8556L26.2948 9.20472C25.922 9.30672 25.5282 9.13704 25.3465 8.79598L24.0024 6.27682V6.27307L24.0014 6.27495L24.0004 6.27307V6.27682L22.6563 8.79598C22.4743 9.13694 22.0806 9.30663 21.7078 9.20472L20.4313 8.8556L21.265 13.7032C21.3356 14.1137 20.8199 14.3556 20.5493 14.039L18.5971 11.7543L18.398 12.6543C18.2947 13.1214 17.8181 13.4038 17.3588 13.2702L15.2797 12.6653L15.6464 15.4142C15.6931 15.7645 15.5122 16.1058 15.1962 16.2639L14.0693 16.8273L18.9802 19.6336C19.4889 19.9243 19.7118 20.5408 19.5066 21.0895L19.0868 22.2123L23.2947 21.8531C23.5276 21.8332 23.7258 22.0207 23.719 22.2542L23.5864 26.7584H24.414L24.2814 22.2541C24.2745 22.0204 24.4727 21.833 24.7056 21.8529L28.9155 22.2123L28.4957 21.0895C28.2907 20.5407 28.5135 19.9241 29.0222 19.6335Z" fill="#FF4B55"/>
</g>
<defs>
<clipPath id="clip0_11_4691">
<rect width="48" height="32" fill="white"/>
</clipPath>
</defs>
</svg>
