<svg width="48" height="32" viewBox="0 0 48 32" fill="none" xmlns="http://www.w3.org/2000/svg">
<g clip-path="url(#clip0_11_4821)">
<path d="M47.1723 31.7238H0.827623C0.370593 31.7238 0 31.3532 0 30.8962V1.10314C0 0.646105 0.370593 0.275513 0.827623 0.275513H47.1724C47.6294 0.275513 48 0.646105 48 1.10314V30.8962C47.9999 31.3533 47.6293 31.7238 47.1723 31.7238Z" fill="#82AFFF"/>
<path d="M47.1723 0.275635H44.7999L0 23.448V25.1031L47.6593 0.45179C47.5211 0.348384 47.3582 0.275635 47.1723 0.275635Z" fill="#FFE15A"/>
<path d="M0.827576 31.7237H3.19992L47.9999 8.55139V6.89624L0.340546 31.5476C0.478733 31.651 0.64167 31.7237 0.827576 31.7237Z" fill="#FFE15A"/>
<path d="M47.6593 0.451904L0 25.1032V30.8963C0 31.1675 0.139031 31.3968 0.340593 31.5477L47.9999 6.89645V1.10328C47.9999 0.83206 47.8609 0.602842 47.6593 0.451904Z" fill="#FF4B55"/>
<path d="M8.68312 3.52936L9.87543 7.10451L13.6441 7.13367C13.8548 7.13535 13.9422 7.40423 13.7727 7.52948L10.7409 9.76832L11.8777 13.3616C11.9413 13.5625 11.7125 13.7287 11.5411 13.6062L8.47499 11.4146L5.4089 13.6062C5.23753 13.7288 5.00869 13.5625 5.07225 13.3616L6.20906 9.76832L3.17728 7.52948C3.00769 7.40432 3.09516 7.13535 3.30591 7.13367L7.07456 7.10451L8.26687 3.52936C8.33371 3.32949 8.61637 3.32949 8.68312 3.52936Z" fill="#FFE15A"/>
</g>
<defs>
<clipPath id="clip0_11_4821">
<rect width="48" height="32" fill="white"/>
</clipPath>
</defs>
</svg>
