<svg width="48" height="32" viewBox="0 0 48 32" fill="none" xmlns="http://www.w3.org/2000/svg">
<g clip-path="url(#clip0_11_1180)">
<path d="M47.1723 31.7239H0.827623C0.370593 31.7239 0 31.3533 0 30.8962V23.8618H47.9999V30.8962C47.9999 31.3535 47.6293 31.7239 47.1723 31.7239Z" fill="#FFE15A"/>
<path d="M47.9999 15.9996H0V23.8615H47.9999V15.9996Z" fill="#73AF00"/>
<path d="M47.9999 8.13782H0V15.9997H47.9999V8.13782Z" fill="white"/>
<path d="M47.9999 8.13767H0V1.10326C0 0.646227 0.370593 0.275635 0.827623 0.275635H47.1724C47.6294 0.275635 48 0.646227 48 1.10326L47.9999 8.13767Z" fill="#41479B"/>
<path d="M27.9308 0.275879H20.069V31.7243H27.9308V0.275879Z" fill="#FF4B55"/>
<path d="M7.17196 1.33466L7.86252 3.40531L10.0452 3.42228C10.2143 3.42359 10.2844 3.63941 10.1483 3.73991L8.3924 5.03647L9.05071 7.11752C9.10171 7.27868 8.91815 7.41218 8.78062 7.31374L7.0049 6.04456L5.22919 7.31374C5.09156 7.41209 4.90809 7.27868 4.95909 7.11752L5.6174 5.03647L3.86175 3.73991C3.72572 3.6395 3.79585 3.42369 3.96488 3.42228L6.14756 3.40531L6.83812 1.33466C6.89156 1.17425 7.11843 1.17425 7.17196 1.33466Z" fill="#FFE15A"/>
</g>
<defs>
<clipPath id="clip0_11_1180">
<rect width="48" height="32" fill="white"/>
</clipPath>
</defs>
</svg>
