<svg width="48" height="32" viewBox="0 0 48 32" fill="none" xmlns="http://www.w3.org/2000/svg">
<g clip-path="url(#clip0_11_3554)">
<path d="M47.1725 0.275986H33.9311L0.25351 31.4893C0.402478 31.6336 0.603853 31.7242 0.827634 31.7242H14.069L47.7467 0.510923C47.5977 0.366548 47.3963 0.275986 47.1725 0.275986Z" fill="#FFE15A"/>
<path d="M33.931 0.275986H0.827625C0.370594 0.275986 0 0.646485 0 1.10352V30.8966C0 31.1299 0.0981563 31.3388 0.253406 31.4893L33.931 0.275986Z" fill="#73AF00"/>
<path d="M47.7465 0.510834L14.0689 31.7241H47.1723C47.6293 31.7241 47.9999 31.3536 47.9999 30.8965V1.10343C47.9999 0.870084 47.9017 0.661209 47.7465 0.510834Z" fill="#FF4B55"/>
</g>
<defs>
<clipPath id="clip0_11_3554">
<rect width="48" height="32" fill="white"/>
</clipPath>
</defs>
</svg>
