<svg width="48" height="32" viewBox="0 0 48 32" fill="none" xmlns="http://www.w3.org/2000/svg">
<g clip-path="url(#clip0_11_4098)">
<path d="M47.1723 31.7243H0.827623C0.370593 31.7243 0 31.3537 0 30.8966V1.10359C0 0.646563 0.370593 0.27597 0.827623 0.27597H47.1724C47.6294 0.27597 48 0.646563 48 1.10359V30.8966C47.9999 31.3538 47.6293 31.7243 47.1723 31.7243Z" fill="#FF4B55"/>
<path d="M33.1034 12.6899H27.3103V6.89684C27.3103 6.43981 26.9398 6.06921 26.4827 6.06921H21.5172C21.0601 6.06921 20.6895 6.43981 20.6895 6.89684V12.6899H14.8965C14.4394 12.6899 14.0688 13.0605 14.0688 13.5175V18.4831C14.0688 18.9401 14.4394 19.3107 14.8965 19.3107H20.6895V25.1038C20.6895 25.5608 21.0601 25.9314 21.5172 25.9314H26.4827C26.9398 25.9314 27.3103 25.5608 27.3103 25.1038V19.3105H33.1034C33.5605 19.3105 33.931 18.9399 33.931 18.4829V13.5174C33.931 13.0604 33.5605 12.6899 33.1034 12.6899Z" fill="white"/>
</g>
<defs>
<clipPath id="clip0_11_4098">
<rect width="48" height="32" fill="white"/>
</clipPath>
</defs>
</svg>
