<svg width="48" height="32" viewBox="0 0 48 32" fill="none" xmlns="http://www.w3.org/2000/svg">
<g clip-path="url(#clip0_11_1025)">
<path d="M47.1723 31.7242H0.827623C0.370593 31.7242 0 31.3536 0 30.8966V1.10362C0 0.646594 0.370593 0.276001 0.827623 0.276001H47.1724C47.6294 0.276001 48 0.646594 48 1.10362V30.8966C47.9999 31.3537 47.6293 31.7242 47.1723 31.7242Z" fill="#41479B"/>
<path d="M23.1723 0.276001H21.7349L14.0689 5.29846V0.276001H9.93101V5.29846L2.26509 0.276001H0.827623C0.370593 0.276001 0 0.646594 0 1.10362V1.76006L6.57702 6.06908H0V10.207H6.57702L0 14.5161V15.1725C0 15.6295 0.370593 16.0001 0.827623 16.0001H2.26509L9.93101 10.9776V16.0001H14.0689V10.9776L21.7348 16.0001H23.1722C23.6293 16.0001 23.9999 15.6295 23.9999 15.1725V14.516L17.4229 10.207H23.9999V6.06908H17.4228L23.9999 1.76006V1.10362C23.9999 0.646594 23.6295 0.276001 23.1723 0.276001Z" fill="white"/>
<path d="M23.9999 6.89671H13.2413V0.276001H10.7585V6.89671H0V9.37939H10.7585V16.0001H13.2413V9.37939H23.9999V6.89671Z" fill="#FF4B55"/>
<path d="M9.10339 6.06909L0.394405 0.415894C0.162656 0.562612 0 0.808986 0 1.10364V1.14658L7.58333 6.06909H9.10339Z" fill="#FF4B55"/>
<path d="M15.5891 6.06908L23.8742 0.691032C23.7302 0.447376 23.4761 0.276001 23.1725 0.276001H22.9935L14.0691 6.06908H15.5891Z" fill="#FF4B55"/>
<path d="M8.38813 10.2071L0.118931 15.5748C0.261524 15.8244 0.519524 16.0002 0.827586 16.0002H0.983679L9.90819 10.2071H8.38813Z" fill="#FF4B55"/>
<path d="M23.9867 15.2377L16.2368 10.2072H14.7169L23.5174 15.9198C23.7812 15.7974 23.9619 15.541 23.9867 15.2377Z" fill="#FF4B55"/>
<path d="M35.3555 6.07302L35.6589 6.98314L36.6183 6.99055C36.6925 6.9912 36.7234 7.08589 36.6636 7.13014L35.8918 7.70005L36.1811 8.61477C36.2035 8.68564 36.1229 8.74433 36.0624 8.70102L35.2818 8.14311L34.5012 8.70102C34.4407 8.74424 34.3601 8.68564 34.3824 8.61477L34.6718 7.70005L33.9 7.13014C33.8402 7.08599 33.871 6.99111 33.9453 6.99055L34.9046 6.98314L35.2081 6.07302C35.2323 6.00252 35.332 6.00252 35.3555 6.07302Z" fill="white"/>
<path d="M31.2764 7.1926L31.9239 7.9006L32.8032 7.51726C32.8714 7.48754 32.9381 7.5616 32.9014 7.62629L32.4281 8.46076L33.0645 9.17869C33.1138 9.23438 33.0639 9.32072 32.9912 9.30582L32.0513 9.11363L31.5652 9.94069C31.5275 10.0047 31.43 9.984 31.4215 9.91013L31.3138 8.95688L30.377 8.75016C30.3043 8.73413 30.294 8.63494 30.3617 8.60419L31.2351 8.20716L31.1422 7.25232C31.1351 7.17826 31.2263 7.13766 31.2764 7.1926Z" fill="white"/>
<path d="M28.005 9.87413L28.8844 10.2575L29.5318 9.54947C29.582 9.49463 29.6731 9.53522 29.6659 9.60919L29.573 10.564L30.4464 10.9611C30.514 10.9918 30.5035 11.091 30.4311 11.107L29.4942 11.3138L29.3865 12.267C29.3782 12.3409 29.2806 12.3616 29.2429 12.2976L28.7568 11.4705L27.8168 11.6627C27.744 11.6776 27.6941 11.5913 27.7435 11.5356L28.3799 10.8176L27.9067 9.98316C27.8701 9.91857 27.9368 9.8445 28.005 9.87413Z" fill="white"/>
<path d="M26.1073 13.6547L27.0666 13.6473L27.3702 12.7372C27.3936 12.6666 27.4933 12.6666 27.517 12.7372L27.8204 13.6473L28.7798 13.6547C28.854 13.6554 28.8849 13.7501 28.8251 13.7943L28.0533 14.3642L28.3426 15.279C28.365 15.3498 28.2844 15.4085 28.2238 15.3652L27.4433 14.8073L26.6627 15.3652C26.6022 15.4084 26.5216 15.3498 26.5439 15.279L26.8332 14.3642L26.0615 13.7943C26.0022 13.7501 26.033 13.6552 26.1073 13.6547Z" fill="white"/>
<path d="M25.9113 17.8802L26.7847 17.4832L26.6918 16.5283C26.6845 16.4544 26.7757 16.4139 26.8258 16.4686L27.4733 17.1766L28.3526 16.7933C28.4208 16.7636 28.4875 16.8376 28.4508 16.9023L27.9775 17.7369L28.6139 18.4548C28.6632 18.5105 28.6133 18.5968 28.5406 18.5819L27.6007 18.3897L27.1146 19.2168C27.0769 19.2808 26.9794 19.2601 26.9709 19.1862L26.8632 18.233L25.9264 18.0263C25.854 18.0102 25.8436 17.911 25.9113 17.8802Z" fill="white"/>
<path d="M27.451 21.8202L28.0874 21.1023L27.6141 20.2678C27.5775 20.2031 27.6442 20.1291 27.7123 20.1588L28.5916 20.5421L29.2391 19.8341C29.2892 19.7793 29.3804 19.8199 29.3731 19.8939L29.2802 20.8487L30.1536 21.2457C30.2213 21.2765 30.2108 21.3757 30.1383 21.3917L29.2015 21.5984L29.0938 22.5517C29.0854 22.6256 28.9878 22.6463 28.9501 22.5823L28.464 21.7552L27.5241 21.9474C27.4515 21.9622 27.4017 21.8759 27.451 21.8202Z" fill="white"/>
<path d="M30.46 24.7932L30.7493 23.8785L29.9776 23.3086C29.9178 23.2644 29.9486 23.1695 30.0228 23.169L30.9822 23.1616L31.2857 22.2514C31.3092 22.1808 31.4089 22.1808 31.4326 22.2514L31.736 23.1616L32.6954 23.169C32.7696 23.1696 32.8005 23.2643 32.7406 23.3086L31.9689 23.8785L32.2582 24.7932C32.2806 24.864 32.2 24.9227 32.1394 24.8794L31.3589 24.3215L30.5783 24.8794C30.5184 24.9226 30.4377 24.864 30.46 24.7932Z" fill="white"/>
<path d="M34.4179 26.2853L34.3102 25.3321L33.3734 25.1253C33.3007 25.1093 33.2904 25.0101 33.3581 24.9794L34.2315 24.5823L34.1386 23.6275C34.1314 23.5535 34.2225 23.5129 34.2726 23.5678L34.9201 24.2758L35.7994 23.8924C35.8676 23.8627 35.9343 23.9368 35.8976 24.0015L35.4243 24.8359L36.0607 25.5539C36.11 25.6096 36.0602 25.6959 35.9874 25.681L35.0475 25.4888L34.5614 26.3159C34.5237 26.3799 34.4262 26.3592 34.4179 26.2853Z" fill="white"/>
<path d="M38.6408 26.0386L38.1547 25.2116L37.2148 25.4038C37.1419 25.4187 37.0921 25.3323 37.1415 25.2766L37.7778 24.5587L37.3046 23.7242C37.2679 23.6596 37.3347 23.5855 37.4027 23.6152L38.2821 23.9986L38.9295 23.2906C38.9797 23.2357 39.0708 23.2763 39.0636 23.3503L38.9707 24.3051L39.8441 24.7022C39.9118 24.7329 39.9013 24.8321 39.8288 24.8481L38.892 25.0548L38.7842 26.0081C38.7761 26.082 38.6785 26.1027 38.6408 26.0386Z" fill="white"/>
<path d="M42.3983 24.0957L41.6178 23.5378L40.8372 24.0957C40.7767 24.1389 40.6961 24.0803 40.7184 24.0094L41.0078 23.0947L40.236 22.5248C40.1762 22.4806 40.207 22.3858 40.2813 22.3852L41.2406 22.3778L41.5442 21.4677C41.5676 21.3971 41.6674 21.3971 41.691 21.4677L41.9945 22.3778L42.9538 22.3852C43.0281 22.3859 43.0589 22.4806 42.9991 22.5248L42.2273 23.0947L42.5167 24.0094C42.5394 24.0802 42.4587 24.1389 42.3983 24.0957Z" fill="white"/>
<path d="M45.0405 20.7923L44.1005 20.6001L43.6145 21.4272C43.5768 21.4912 43.4793 21.4705 43.4708 21.3966L43.3631 20.4433L42.4263 20.2366C42.3536 20.2206 42.3433 20.1214 42.411 20.0907L43.2844 19.6936L43.1915 18.7388C43.1842 18.6648 43.2754 18.6243 43.3255 18.6791L43.973 19.3871L44.8523 19.0037C44.9205 18.974 44.9872 19.0481 44.9505 19.1128L44.4772 19.9472L45.1136 20.6652C45.1632 20.7208 45.1133 20.8072 45.0405 20.7923Z" fill="white"/>
<path d="M46.1109 16.6998L45.1741 16.9065L45.0664 17.8598C45.058 17.9336 44.9604 17.9544 44.9228 17.8903L44.4367 17.0633L43.4967 17.2555C43.4239 17.2704 43.374 17.184 43.4234 17.1283L44.0598 16.4104L43.5865 15.5758C43.5499 15.5111 43.6166 15.4371 43.6847 15.4668L44.5641 15.8501L45.2115 15.1421C45.2617 15.0873 45.3528 15.1279 45.3456 15.2018L45.2527 16.1567L46.126 16.5537C46.1939 16.5846 46.1835 16.6839 46.1109 16.6998Z" fill="white"/>
<path d="M45.4241 12.526L44.6523 13.0959L44.9416 14.0106C44.964 14.0815 44.8834 14.1402 44.8228 14.0968L44.0423 13.5389L43.2617 14.0968C43.2012 14.1401 43.1206 14.0815 43.1429 14.0106L43.4322 13.0959L42.6605 12.526C42.6007 12.4818 42.6315 12.3869 42.7058 12.3864L43.6651 12.379L43.9687 11.4688C43.9921 11.3982 44.0919 11.3982 44.1155 11.4688L44.419 12.379L45.3783 12.3864C45.453 12.3869 45.4839 12.4818 45.4241 12.526Z" fill="white"/>
<path d="M43.0991 8.9921L42.6258 9.82666L43.2622 10.5446C43.3115 10.6003 43.2617 10.6866 43.1889 10.6717L42.249 10.4795L41.7629 11.3066C41.7252 11.3706 41.6277 11.3499 41.6193 11.276L41.5115 10.3228L40.5747 10.1161C40.502 10.1 40.4917 10.0008 40.5594 9.9701L41.4328 9.57307L41.3399 8.61823C41.3327 8.54426 41.4238 8.50366 41.4739 8.55851L42.1214 9.26651L43.0008 8.88316C43.069 8.85344 43.1358 8.92751 43.0991 8.9921Z" fill="white"/>
<path d="M39.5375 6.70975L39.4446 7.66459L40.318 8.06162C40.3857 8.09237 40.3752 8.19156 40.3027 8.20759L39.3659 8.4143L39.2582 9.36755C39.2498 9.44143 39.1522 9.46215 39.1146 9.39812L38.6285 8.57105L37.6885 8.76324C37.6157 8.77815 37.5658 8.6918 37.6152 8.63612L38.2516 7.91818L37.7783 7.08362C37.7417 7.01893 37.8084 6.94487 37.8765 6.97459L38.7559 7.35793L39.4033 6.64993C39.4536 6.59518 39.5448 6.63578 39.5375 6.70975Z" fill="white"/>
<path d="M35.3555 6.07302L35.6589 6.98314L36.6183 6.99055C36.6925 6.9912 36.7234 7.08589 36.6636 7.13014L35.8918 7.70005L36.1811 8.61477C36.2035 8.68564 36.1229 8.74433 36.0624 8.70102L35.2818 8.14311L34.5012 8.70102C34.4407 8.74424 34.3601 8.68564 34.3824 8.61477L34.6718 7.70005L33.9 7.13014C33.8402 7.08599 33.871 6.99111 33.9453 6.99055L34.9046 6.98314L35.2081 6.07302C35.2323 6.00252 35.332 6.00252 35.3555 6.07302Z" fill="white"/>
</g>
<defs>
<clipPath id="clip0_11_1025">
<rect width="48" height="32" fill="white"/>
</clipPath>
</defs>
</svg>
