<svg width="48" height="32" viewBox="0 0 48 32" fill="none" xmlns="http://www.w3.org/2000/svg">
<g clip-path="url(#clip0_11_2954)">
<path d="M47.9999 16H0V1.10348C0 0.646449 0.370593 0.275856 0.827623 0.275856H47.1724C47.6294 0.275856 48 0.646449 48 1.10348L47.9999 16Z" fill="white"/>
<path d="M1.65515 16.0001V15.1724H0V16.0001V16.8277V30.8966C0 31.3537 0.370593 31.7243 0.827623 31.7243H47.1724C47.6294 31.7243 48 31.3537 48 30.8966V16.0001H1.65515Z" fill="#FF4B55"/>
<path d="M14.8966 16H0.827623C0.370593 16 0 15.6295 0 15.1724V1.10348C0 0.646449 0.370593 0.275856 0.827623 0.275856H14.8966C15.3536 0.275856 15.7242 0.646449 15.7242 1.10348V15.1724C15.7241 15.6295 15.3536 16 14.8966 16Z" fill="#41479B"/>
<path d="M8.1808 4.60815L8.9698 6.97383L11.4635 6.99314C11.7864 6.99558 11.9203 7.4077 11.6605 7.59942L9.65445 9.08076L10.4066 11.4584C10.5039 11.7663 10.1535 12.0209 9.89079 11.8332L7.86205 10.3831L5.83321 11.8333C5.57052 12.021 5.22008 11.7663 5.3174 11.4585L6.06955 9.08086L4.06349 7.59952C3.80371 7.4077 3.93759 6.99567 4.26046 6.99324L6.75421 6.97392L7.5432 4.60824C7.64539 4.30187 8.0787 4.30187 8.1808 4.60815Z" fill="white"/>
</g>
<defs>
<clipPath id="clip0_11_2954">
<rect width="48" height="32" fill="white"/>
</clipPath>
</defs>
</svg>
