<svg width="48" height="32" viewBox="0 0 48 32" fill="none" xmlns="http://www.w3.org/2000/svg">
<g clip-path="url(#clip0_11_2539)">
<path d="M16 31.7238H0.827625C0.370594 31.7238 0 31.3532 0 30.8962V1.1032C0 0.646167 0.370594 0.275574 0.827625 0.275574H16V31.7238Z" fill="#73AF00"/>
<path d="M32.0007 0.276001H16.0004V31.7244H32.0007V0.276001Z" fill="#FF4B55"/>
<path d="M47.1723 31.7238H31.9999V0.275574H47.1723C47.6294 0.275574 48 0.646167 48 1.1032V30.8962C48 31.3533 47.6294 31.7238 47.1723 31.7238Z" fill="#FFE15A"/>
<path d="M24.172 12.9663L24.883 15.0983L27.1303 15.1157C27.3044 15.117 27.3766 15.3392 27.2365 15.4427L25.4287 16.7777L26.1066 18.9204C26.1592 19.0864 25.9702 19.2237 25.8284 19.1224L24.0001 17.8157L22.1718 19.1225C22.0301 19.2238 21.8411 19.0864 21.8936 18.9205L22.5715 16.7777L20.7637 15.4427C20.6236 15.3393 20.6958 15.1171 20.8699 15.1157L23.1172 15.0984L23.8282 12.9664C23.8834 12.8012 24.1169 12.8012 24.172 12.9663Z" fill="#FFE15A"/>
</g>
<defs>
<clipPath id="clip0_11_2539">
<rect width="48" height="32" fill="white"/>
</clipPath>
</defs>
</svg>
