<svg width="48" height="32" viewBox="0 0 48 32" fill="none" xmlns="http://www.w3.org/2000/svg">
<g clip-path="url(#clip0_11_1168)">
<path d="M47.1723 31.7243H0.827623C0.370593 31.7243 0 31.3537 0 30.8967V1.10362C0 0.646594 0.370593 0.276001 0.827623 0.276001H47.1724C47.6294 0.276001 48 0.646594 48 1.10362V30.8967C47.9999 31.3538 47.6293 31.7243 47.1723 31.7243Z" fill="#FF4B55"/>
<path d="M7.96932 5.19371L8.75831 7.55939L11.2521 7.57871C11.5749 7.58115 11.7088 7.99327 11.449 8.18499L9.44297 9.66633L10.1951 12.044C10.2924 12.3519 9.942 12.6064 9.67931 12.4187L7.65057 10.9685L5.62182 12.4186C5.35913 12.6064 5.0087 12.3517 5.10601 12.0439L5.85816 9.66624L3.8521 8.18499C3.59232 7.99318 3.7262 7.58115 4.04907 7.57871L6.54282 7.55939L7.33182 5.19371C7.434 4.88733 7.86722 4.88733 7.96932 5.19371Z" fill="#FFE15A"/>
<path d="M17.0249 5.77662L17.5907 6.54818L18.5037 6.26262C18.6219 6.22568 18.7192 6.3605 18.6468 6.4609L18.0878 7.23725L18.6415 8.01734C18.7133 8.11831 18.6151 8.25247 18.4972 8.21469L17.586 7.92303L17.0152 8.69075C16.9413 8.79012 16.7833 8.73818 16.7829 8.61443L16.7786 7.65772L15.8721 7.352C15.7548 7.31234 15.7553 7.14622 15.8729 7.1074L16.7814 6.80778L16.792 5.85115C16.7934 5.7275 16.9517 5.67678 17.0249 5.77662Z" fill="#FFE15A"/>
<path d="M13.5804 3.47693L14.5315 3.58024L14.9372 2.7139C14.9898 2.60177 15.1548 2.62099 15.1801 2.74221L15.3757 3.67858L16.325 3.79671C16.4479 3.81199 16.4806 3.97493 16.3731 4.03652L15.5429 4.51183L15.724 5.4512C15.7474 5.57289 15.6026 5.65427 15.5108 5.57111L14.8021 4.92846L13.9648 5.39083C13.8564 5.45074 13.734 5.33805 13.7849 5.22508L14.177 4.35246L13.4784 3.69883C13.388 3.61465 13.4573 3.46362 13.5804 3.47693Z" fill="#FFE15A"/>
<path d="M15.0836 12.7481L14.5179 13.5197L13.6048 13.2341C13.4866 13.1972 13.3894 13.332 13.4618 13.4324L14.0207 14.2088L13.467 14.9888C13.3953 15.0898 13.4935 15.224 13.6114 15.1862L14.5226 14.8945L15.0934 15.6622C15.1673 15.7616 15.3252 15.7097 15.3257 15.5859L15.3299 14.6292L16.2365 14.3235C16.3539 14.2838 16.3533 14.1177 16.2356 14.0789L15.3272 13.7793L15.3165 12.8227C15.315 12.6991 15.1569 12.6482 15.0836 12.7481Z" fill="#FFE15A"/>
<path d="M18.5282 10.587L17.5771 10.6904L17.1713 9.82401C17.1187 9.71188 16.9537 9.7311 16.9284 9.85232L16.7328 10.7887L15.7835 10.9068C15.6606 10.9221 15.6278 11.085 15.7354 11.1466L16.5655 11.6219L16.3845 12.5613C16.3611 12.683 16.5059 12.7644 16.5977 12.6812L17.3063 12.0386L18.1437 12.5009C18.2521 12.5608 18.3744 12.4482 18.3236 12.3352L17.9315 11.4626L18.6301 10.8089C18.7207 10.7248 18.6515 10.5737 18.5282 10.587Z" fill="#FFE15A"/>
</g>
<defs>
<clipPath id="clip0_11_1168">
<rect width="48" height="32" fill="white"/>
</clipPath>
</defs>
</svg>
