<svg width="48" height="32" viewBox="0 0 48 32" fill="none" xmlns="http://www.w3.org/2000/svg">
<g clip-path="url(#clip0_11_3484)">
<path d="M47.9999 11.034H0V20.9649H47.9999V11.034Z" fill="#FF4B55"/>
<path d="M0.827623 0.27597H47.1724C47.6294 0.27597 48 0.646563 48 1.10359V5.65534H0V1.10359C0 0.646563 0.370593 0.27597 0.827623 0.27597Z" fill="#41479B"/>
<path d="M47.9999 5.65569H0V11.035H47.9999V5.65569Z" fill="white"/>
<path d="M47.1723 31.724H0.827623C0.370593 31.724 0 31.3535 0 30.8964V26.3447H47.9999V30.8964C47.9999 31.3535 47.6293 31.724 47.1723 31.724Z" fill="#41479B"/>
<path d="M47.9999 20.9648H0V26.3441H47.9999V20.9648Z" fill="white"/>
<path d="M12.974 20.138C15.1118 20.138 16.8449 18.2853 16.8449 15.9999C16.8449 13.7144 15.1118 11.8617 12.974 11.8617C10.8361 11.8617 9.10303 13.7144 9.10303 15.9999C9.10303 18.2853 10.8361 20.138 12.974 20.138Z" fill="white"/>
<path d="M14.9762 14.3988H10.9717V16.401H14.9762V14.3988Z" fill="#3CC8FF"/>
<path d="M11.5062 15.5367L11.552 15.9783L11.7318 15.5725L11.6388 16.0066L11.9354 15.6761L11.7127 16.0603L12.0969 15.8377L11.7665 16.1343L12.2006 16.0412L11.7947 16.2211L12.2364 16.2669L11.7947 16.3126L12.2006 16.4925L11.7665 16.3995L12.0969 16.6961L11.7127 16.4733L11.9354 16.8576L11.6388 16.5271L11.7318 16.9613L11.552 16.5554L11.5062 16.997L11.4605 16.5554L11.2806 16.9613L11.3736 16.5271L11.077 16.8576L11.2996 16.4733L10.9154 16.6961L11.246 16.3995L10.8117 16.4925L11.2177 16.3126L10.776 16.2669L11.2177 16.2211L10.8117 16.0412L11.246 16.1343L10.9154 15.8377L11.2996 16.0603L11.077 15.6761L11.3736 16.0066L11.2806 15.5725L11.4605 15.9783L11.5062 15.5367Z" fill="#FFE15A"/>
<path d="M13.7753 19.2037H12.1735L10.7052 18.0023V16.267H15.3771V18.0023L13.7753 19.2037Z" fill="#41479B"/>
<path d="M14.576 15.7331H14.5759C14.5755 15.6965 14.5459 15.6671 14.5092 15.6671C14.4726 15.6671 14.4431 15.6965 14.4426 15.7331H14.4424C14.4424 15.9648 14.3081 16.2852 14.1435 16.5147C13.9136 16.2244 13.8272 15.8879 13.7946 15.6759C13.779 15.5749 13.6698 15.5188 13.5783 15.5645C13.5342 15.5866 13.5045 15.6296 13.497 15.6783C13.3948 16.3329 13.0862 16.6111 12.8863 16.7254C12.5872 16.4362 12.4885 15.9681 12.4561 15.6914C12.4434 15.5838 12.3283 15.5221 12.2314 15.5704C12.1941 15.5891 12.1664 15.6228 12.1534 15.6624C11.7347 16.9386 10.5714 17.068 10.5714 17.068V17.4684H15.2432V17.335V17.2016V17.0682V16.9348V16.8014C14.7095 16.6674 14.576 15.7331 14.576 15.7331Z" fill="#73AF00"/>
<path d="M15.2435 14.5317C14.7096 14.2647 14.7096 13.9978 14.7096 13.9978C14.7096 13.9978 14.0422 13.7308 13.5083 13.7308C13.5083 13.7308 13.6417 13.4638 13.3749 13.4638C13.1079 13.4638 12.9744 13.4638 12.9744 13.4638C12.9744 13.4638 12.841 13.4638 12.574 13.4638C12.307 13.4638 12.4406 13.7308 12.4406 13.7308C11.9067 13.7308 11.2393 13.9978 11.2393 13.9978C11.2393 13.9978 11.2393 14.2648 10.7054 14.5317C10.1715 14.7987 10.1715 15.3994 10.1715 15.3994C10.1715 15.51 10.2612 15.5996 10.3717 15.5996C10.4823 15.5996 10.5718 15.5098 10.5718 15.3994C10.5718 15.3765 10.5671 15.3551 10.5601 15.3346L10.5718 15.3326L11.9066 14.3983H12.9745H14.0424L15.3773 15.3326L15.389 15.3346C15.3819 15.355 15.3773 15.3766 15.3773 15.3994C15.3773 15.51 15.467 15.5996 15.5774 15.5996C15.6878 15.5996 15.7776 15.5098 15.7776 15.3994C15.7774 15.3993 15.7774 14.7986 15.2435 14.5317Z" fill="#F0AA00"/>
<path d="M15.6442 16.1336C15.5108 16.1336 15.1103 16.1336 15.1103 15.7332C15.1103 15.3328 15.6442 15.3328 15.6442 15.3328L14.8433 15.0658C14.5763 16.0001 15.1103 16.0001 15.1103 17.2015C15.1103 18.2777 13.909 18.9368 13.5085 18.9368C13.1081 18.9368 12.9746 19.2038 12.9746 19.2038C12.9746 19.2038 12.8412 18.9368 12.4407 18.9368C12.0403 18.9368 10.8389 18.2777 10.8389 17.2015C10.8389 16.0002 11.3728 16.0002 11.1059 15.0658L10.3049 15.3328C10.3049 15.3328 10.8389 15.3328 10.8389 15.7332C10.8389 16.1336 10.4384 16.1336 10.3049 16.1336C10.1714 16.1336 9.63754 16.1336 9.63754 16.801C9.63754 17.4684 10.3049 18.2694 11.2394 18.8033C12.1737 19.3372 11.7733 19.8712 12.9746 19.8712C14.1759 19.8712 13.7755 19.3373 14.7098 18.8033C15.6441 18.2694 16.3116 17.4684 16.3116 16.801C16.3116 16.1336 15.7776 16.1336 15.6442 16.1336Z" fill="#F0AA00"/>
<path d="M12.7075 14.0442L12.3846 13.8991C12.331 13.875 12.2715 13.8694 12.2143 13.8827C12.0062 13.9308 11.4899 14.0889 11.1057 14.5317L11.5061 14.6651L12.7075 14.0442Z" fill="#73AF00"/>
<path d="M13.2416 14.0442L13.5645 13.8991C13.6181 13.875 13.6775 13.8694 13.7347 13.8827C13.9428 13.9308 14.4591 14.0889 14.8434 14.5317L14.443 14.6651L13.2416 14.0442Z" fill="#73AF00"/>
<path d="M13.0214 14.1312L13.2648 13.8878C13.2778 13.8748 13.2778 13.8537 13.2648 13.8407C13.2518 13.8277 13.2307 13.8277 13.2177 13.8407L12.9743 14.0841L12.7309 13.8407C12.7179 13.8277 12.6968 13.8277 12.6838 13.8407C12.6707 13.8537 12.6707 13.8748 12.6838 13.8878L12.9271 14.1312L12.6838 14.3746C12.6707 14.3876 12.6707 14.4087 12.6838 14.4218C12.6903 14.4283 12.6988 14.4316 12.7074 14.4316C12.7158 14.4316 12.7244 14.4283 12.731 14.4218L12.9744 14.1784L13.2177 14.4218C13.2243 14.4283 13.2328 14.4316 13.2414 14.4316C13.25 14.4316 13.2584 14.4283 13.265 14.4218C13.278 14.4087 13.278 14.3876 13.265 14.3746L13.0214 14.1312Z" fill="#73AF00"/>
<path d="M15.6441 15.3326C15.6441 15.1056 15.4295 15.0074 15.2437 14.9648V14.859C14.9924 14.8354 14.8521 14.7411 14.6085 14.5751C14.5147 14.511 14.4083 14.4387 14.2797 14.3605C13.8104 14.0754 13.4497 14.0342 13.2415 14.0442V14.2647H12.7075V14.0442C12.4993 14.0342 12.1386 14.0754 11.6693 14.3605C11.5408 14.4386 11.4343 14.511 11.3405 14.5751C11.0968 14.741 10.9567 14.8354 10.7053 14.859V14.9648C10.5194 15.0073 10.3049 15.1055 10.3049 15.3326L10.7053 15.1992V15.2601C11.0842 15.2321 11.3007 15.0868 11.566 14.9062C11.6559 14.845 11.7577 14.7755 11.8771 14.703C12.182 14.5178 12.4189 14.4604 12.574 14.4469V14.6653H13.375V14.4469C13.5301 14.4605 13.767 14.5178 14.0719 14.703C14.1915 14.7757 14.2932 14.845 14.383 14.9062C14.6482 15.0868 14.8648 15.2322 15.2437 15.2601V15.1992L15.6441 15.3326Z" fill="white"/>
<path d="M14.5759 13.2285V13.0634H14.2041C14.2691 13.0076 14.309 12.942 14.309 12.8632C14.309 12.4944 13.47 12.396 12.9742 12.396C12.4785 12.396 11.6394 12.4944 11.6394 12.8632C11.6394 12.942 11.6793 13.0076 11.7443 13.0634H11.3725V13.2285C11.0457 13.3015 10.7786 13.4768 10.7645 13.4863L10.9126 13.7084C10.9162 13.7059 11.2835 13.4638 11.6394 13.4638V13.3304H14.309V13.4638C14.665 13.4638 15.0322 13.7058 15.0359 13.7084L15.1839 13.4863C15.1699 13.4768 14.9027 13.3015 14.5759 13.2285ZM13.5081 13.0264V12.9251C13.5081 12.8597 13.4467 12.8118 13.3833 12.8277L12.9742 12.93L12.5651 12.8277C12.5017 12.8118 12.4403 12.8597 12.4403 12.9251V13.0264C12.1404 12.9824 11.9631 12.909 11.9147 12.8632C11.9869 12.7946 12.3407 12.663 12.9741 12.663C13.6076 12.663 13.9613 12.7948 14.0335 12.8632C13.9853 12.909 13.8079 12.9823 13.5081 13.0264Z" fill="#3CC8FF"/>
<path d="M12.991 14.7155L13.0248 14.8169L13.1317 14.8177C13.1456 14.8178 13.1513 14.8355 13.1401 14.8437L13.0542 14.9072L13.0864 15.0091C13.0906 15.0223 13.0756 15.0332 13.0643 15.0252L12.9773 14.963L12.8903 15.0252C12.8791 15.0332 12.8641 15.0223 12.8682 15.0091L12.9004 14.9072L12.8145 14.8437C12.8033 14.8355 12.8091 14.8178 12.8229 14.8177L12.9298 14.8169L12.9636 14.7155C12.968 14.7023 12.9865 14.7023 12.991 14.7155Z" fill="white"/>
<path d="M12.4675 14.7498L12.5118 14.8471L12.6182 14.8368C12.6319 14.8355 12.6394 14.8524 12.6293 14.8617L12.5505 14.9339L12.5932 15.0319C12.5988 15.0446 12.585 15.057 12.573 15.0502L12.48 14.9975L12.4 15.0684C12.3897 15.0776 12.3736 15.0683 12.3763 15.0547L12.3977 14.9499L12.3055 14.8958C12.2936 14.8888 12.2974 14.8707 12.3112 14.8691L12.4174 14.8571L12.4404 14.7528C12.4432 14.7391 12.4618 14.7371 12.4675 14.7498Z" fill="white"/>
<path d="M11.9302 14.8927L11.9945 14.9781L12.0961 14.9449C12.1092 14.9406 12.1203 14.9556 12.1123 14.9668L12.051 15.0544L12.114 15.1408C12.1222 15.1519 12.1114 15.167 12.0982 15.163L11.996 15.1317L11.9333 15.2183C11.9252 15.2294 11.9074 15.2239 11.9072 15.2101L11.9053 15.1033L11.8036 15.0703C11.7905 15.0661 11.7903 15.0475 11.8034 15.0431L11.9045 15.0083L11.9043 14.9014C11.9042 14.8876 11.9219 14.8816 11.9302 14.8927Z" fill="white"/>
<path d="M11.3918 15.1198L11.4668 15.1959L11.5631 15.1496C11.5756 15.1436 11.5885 15.1569 11.5821 15.1693L11.5329 15.2642L11.6068 15.3414C11.6163 15.3515 11.6077 15.3678 11.594 15.3656L11.4885 15.3482L11.4377 15.4423C11.4312 15.4545 11.4129 15.4513 11.4108 15.4376L11.3949 15.3319L11.2897 15.3128C11.276 15.3103 11.2735 15.2918 11.2859 15.2857L11.3815 15.2378L11.3672 15.1319C11.3654 15.1181 11.382 15.11 11.3918 15.1198Z" fill="white"/>
<path d="M13.4867 14.7498L13.4425 14.8471L13.3361 14.8368C13.3223 14.8355 13.3148 14.8524 13.3249 14.8617L13.4038 14.9339L13.361 15.0319C13.3554 15.0446 13.3693 15.057 13.3813 15.0502L13.4743 14.9975L13.5542 15.0684C13.5646 15.0776 13.5807 15.0683 13.578 15.0547L13.5566 14.9499L13.6487 14.8958C13.6606 14.8888 13.6568 14.8707 13.643 14.8691L13.5368 14.8571L13.5138 14.7528C13.5109 14.7391 13.4924 14.7371 13.4867 14.7498Z" fill="white"/>
<path d="M14.0241 14.8927L13.9598 14.9781L13.8582 14.9449C13.845 14.9406 13.834 14.9556 13.8419 14.9668L13.9033 15.0544L13.8403 15.1408C13.8321 15.1519 13.8429 15.167 13.8561 15.163L13.9583 15.1317L14.021 15.2183C14.0291 15.2294 14.0469 15.2239 14.0471 15.2101L14.0489 15.1033L14.1507 15.0703C14.1638 15.0661 14.164 15.0475 14.1508 15.0431L14.0498 15.0083L14.05 14.9014C14.0501 14.8876 14.0324 14.8816 14.0241 14.8927Z" fill="white"/>
<path d="M14.5627 15.1198L14.4877 15.1959L14.3915 15.1496C14.3789 15.1436 14.3661 15.1569 14.3724 15.1693L14.4216 15.2642L14.3478 15.3414C14.3382 15.3515 14.3468 15.3678 14.3605 15.3656L14.4661 15.3482L14.5168 15.4423C14.5234 15.4545 14.5416 15.4513 14.5437 15.4376L14.5596 15.3319L14.6648 15.3128C14.6785 15.3103 14.681 15.2918 14.6687 15.2857L14.573 15.2378L14.5873 15.1319C14.5891 15.1181 14.5724 15.11 14.5627 15.1198Z" fill="white"/>
<path d="M12.0524 17.9188L12.7324 18.3734H13.5541L13.9338 18.0481L13.6418 18.1649H12.674L12.0524 17.9188Z" fill="#8C5A28"/>
<path d="M12.5157 17.3322L12.4501 17.994L12.1514 17.88C12.1514 17.8799 12.2888 17.5609 12.5157 17.3322Z" fill="white"/>
<path d="M13.1483 17.0697H13.1041V18.1966H13.1483V17.0697Z" fill="#8C5A28"/>
<path d="M13.5571 17.1653H13.513V18.1975H13.5571V17.1653Z" fill="#8C5A28"/>
<path d="M12.7424 17.1653H12.6982V18.1975H12.7424V17.1653Z" fill="#8C5A28"/>
<path d="M13.2621 18.0899H12.9923C12.9643 18.0899 12.9415 18.0672 12.9415 18.0391V17.9029C12.9415 17.8749 12.9643 17.8521 12.9923 17.8521H13.2621C13.2901 17.8521 13.3129 17.8749 13.3129 17.9029V18.0391C13.3129 18.0672 13.2901 18.0899 13.2621 18.0899Z" fill="white"/>
<path d="M13.2621 17.7727H12.9923C12.9643 17.7727 12.9415 17.7499 12.9415 17.7219V17.5857C12.9415 17.5576 12.9643 17.5349 12.9923 17.5349H13.2621C13.2901 17.5349 13.3129 17.5576 13.3129 17.5857V17.7219C13.3129 17.75 13.2901 17.7727 13.2621 17.7727Z" fill="white"/>
<path d="M13.2621 17.4808H12.9923C12.9643 17.4808 12.9415 17.458 12.9415 17.43V17.2938C12.9415 17.2657 12.9643 17.243 12.9923 17.243H13.2621C13.2901 17.243 13.3129 17.2657 13.3129 17.2938V17.43C13.3129 17.458 13.2901 17.4808 13.2621 17.4808Z" fill="white"/>
<path d="M13.6454 18.0899H13.4257C13.3977 18.0899 13.3749 18.0672 13.3749 18.0391V17.9029C13.3749 17.8749 13.3977 17.8521 13.4257 17.8521H13.6454C13.6734 17.8521 13.6962 17.8749 13.6962 17.9029V18.0391C13.6962 18.0672 13.6734 18.0899 13.6454 18.0899Z" fill="white"/>
<path d="M13.6454 17.798H13.4257C13.3977 17.798 13.3749 17.7752 13.3749 17.7471V17.6482C13.3749 17.6202 13.3977 17.5974 13.4257 17.5974H13.6454C13.6734 17.5974 13.6962 17.6202 13.6962 17.6482V17.7471C13.6962 17.7752 13.6734 17.798 13.6454 17.798Z" fill="white"/>
<path d="M13.6454 17.5088H13.4257C13.3977 17.5088 13.3749 17.486 13.3749 17.458V17.3912C13.3749 17.3632 13.3977 17.3404 13.4257 17.3404H13.6454C13.6734 17.3404 13.6962 17.3632 13.6962 17.3912V17.458C13.6962 17.486 13.6734 17.5088 13.6454 17.5088Z" fill="white"/>
<path d="M12.83 18.0899H12.6104C12.5824 18.0899 12.5596 18.0672 12.5596 18.0391V17.9029C12.5596 17.8749 12.5824 17.8521 12.6104 17.8521H12.83C12.8581 17.8521 12.8809 17.8749 12.8809 17.9029V18.0391C12.8808 18.0672 12.8581 18.0899 12.83 18.0899Z" fill="white"/>
<path d="M12.83 17.798H12.6104C12.5824 17.798 12.5596 17.7752 12.5596 17.7471V17.6482C12.5596 17.6202 12.5824 17.5974 12.6104 17.5974H12.83C12.8581 17.5974 12.8809 17.6202 12.8809 17.6482V17.7471C12.8808 17.7752 12.8581 17.798 12.83 17.798Z" fill="white"/>
<path d="M12.83 17.5088H12.6104C12.5824 17.5088 12.5596 17.486 12.5596 17.458V17.3912C12.5596 17.3632 12.5824 17.3404 12.6104 17.3404H12.83C12.8581 17.3404 12.8809 17.3632 12.8809 17.3912V17.458C12.8808 17.486 12.8581 17.5088 12.83 17.5088Z" fill="white"/>
<path d="M12.742 17.1653V17.2987L12.9382 17.2308L12.742 17.1653Z" fill="white"/>
<path d="M13.5572 17.1653V17.2987L13.7534 17.2308L13.5572 17.1653Z" fill="white"/>
<path d="M13.1488 17.0696V17.2029L13.3451 17.1349L13.1488 17.0696Z" fill="white"/>
<path d="M12.6276 16.1688L12.8637 16.3267H13.1493L13.2812 16.2137L13.1797 16.2542H12.8435L12.6276 16.1688Z" fill="#8C5A28"/>
<path d="M12.7882 15.9649L12.7655 16.1949L12.6617 16.1552C12.6616 16.1552 12.7094 16.0444 12.7882 15.9649Z" fill="white"/>
<path d="M13.0082 15.8735H12.9929V16.2651H13.0082V15.8735Z" fill="#8C5A28"/>
<path d="M13.1496 15.9071H13.1343V16.2655H13.1496V15.9071Z" fill="#8C5A28"/>
<path d="M12.8664 15.9071H12.8512V16.2655H12.8664V15.9071Z" fill="#8C5A28"/>
<path d="M13.0477 16.2281H12.9539C12.9442 16.2281 12.9362 16.2203 12.9362 16.2104V16.1632C12.9362 16.1534 12.9441 16.1455 12.9539 16.1455H13.0477C13.0574 16.1455 13.0654 16.1533 13.0654 16.1632V16.2104C13.0654 16.2203 13.0575 16.2281 13.0477 16.2281Z" fill="white"/>
<path d="M13.0477 16.1179H12.9539C12.9442 16.1179 12.9362 16.11 12.9362 16.1002V16.0529C12.9362 16.0432 12.9441 16.0352 12.9539 16.0352H13.0477C13.0574 16.0352 13.0654 16.0431 13.0654 16.0529V16.1002C13.0654 16.1099 13.0575 16.1179 13.0477 16.1179Z" fill="white"/>
<path d="M13.0477 16.0165H12.9539C12.9442 16.0165 12.9362 16.0087 12.9362 15.9988V15.9516C12.9362 15.9418 12.9441 15.9338 12.9539 15.9338H13.0477C13.0574 15.9338 13.0654 15.9417 13.0654 15.9516V15.9988C13.0654 16.0087 13.0575 16.0165 13.0477 16.0165Z" fill="white"/>
<path d="M13.1806 16.2281H13.1043C13.0945 16.2281 13.0866 16.2203 13.0866 16.2104V16.1632C13.0866 16.1534 13.0945 16.1455 13.1043 16.1455H13.1806C13.1904 16.1455 13.1983 16.1533 13.1983 16.1632V16.2104C13.1982 16.2203 13.1903 16.2281 13.1806 16.2281Z" fill="white"/>
<path d="M13.1806 16.1267H13.1043C13.0945 16.1267 13.0866 16.1188 13.0866 16.109V16.0747C13.0866 16.0649 13.0945 16.0569 13.1043 16.0569H13.1806C13.1904 16.0569 13.1983 16.0648 13.1983 16.0747V16.109C13.1982 16.1189 13.1903 16.1267 13.1806 16.1267Z" fill="white"/>
<path d="M13.1806 16.0262H13.1043C13.0945 16.0262 13.0866 16.0183 13.0866 16.0085V15.9853C13.0866 15.9756 13.0945 15.9676 13.1043 15.9676H13.1806C13.1904 15.9676 13.1983 15.9755 13.1983 15.9853V16.0085C13.1982 16.0184 13.1903 16.0262 13.1806 16.0262Z" fill="white"/>
<path d="M12.8972 16.2281H12.8208C12.8111 16.2281 12.8031 16.2203 12.8031 16.2104V16.1632C12.8031 16.1534 12.811 16.1455 12.8208 16.1455H12.8972C12.9069 16.1455 12.9149 16.1533 12.9149 16.1632V16.2104C12.9148 16.2203 12.9069 16.2281 12.8972 16.2281Z" fill="white"/>
<path d="M12.8972 16.1267H12.8208C12.8111 16.1267 12.8031 16.1188 12.8031 16.109V16.0747C12.8031 16.0649 12.811 16.0569 12.8208 16.0569H12.8972C12.9069 16.0569 12.9149 16.0648 12.9149 16.0747V16.109C12.9148 16.1189 12.9069 16.1267 12.8972 16.1267Z" fill="white"/>
<path d="M12.8972 16.0262H12.8208C12.8111 16.0262 12.8031 16.0183 12.8031 16.0085V15.9853C12.8031 15.9756 12.811 15.9676 12.8208 15.9676H12.8972C12.9069 15.9676 12.9149 15.9755 12.9149 15.9853V16.0085C12.9148 16.0184 12.9069 16.0262 12.8972 16.0262Z" fill="white"/>
<path d="M12.8669 15.9069V15.9532L12.9351 15.9297L12.8669 15.9069Z" fill="white"/>
<path d="M13.1501 15.9069V15.9532L13.2182 15.9297L13.1501 15.9069Z" fill="white"/>
<path d="M13.0084 15.8737V15.9199L13.0765 15.8963L13.0084 15.8737Z" fill="white"/>
<path d="M12.4602 15.466H12.287C12.2245 15.466 12.1733 15.4149 12.1733 15.3523C12.1733 15.2899 12.2244 15.2387 12.287 15.2387H12.4602C12.5227 15.2387 12.5738 15.2898 12.5738 15.3523C12.5739 15.4149 12.5227 15.466 12.4602 15.466Z" fill="white"/>
<path d="M13.7778 15.466H13.6635C13.6008 15.466 13.5499 15.415 13.5499 15.3523C13.5499 15.2896 13.6008 15.2387 13.6635 15.2387H13.7778C13.8405 15.2387 13.8914 15.2896 13.8914 15.3523C13.8913 15.415 13.8404 15.466 13.7778 15.466Z" fill="white"/>
<path d="M14.5895 15.6369H14.4888C14.4529 15.6369 14.4238 15.6078 14.4238 15.5719V15.5611C14.4238 15.5252 14.4529 15.4962 14.4888 15.4962H14.5895C14.6254 15.4962 14.6544 15.5252 14.6544 15.5611V15.5719C14.6544 15.6078 14.6254 15.6369 14.5895 15.6369Z" fill="white"/>
</g>
<defs>
<clipPath id="clip0_11_3484">
<rect width="48" height="32" fill="white"/>
</clipPath>
</defs>
</svg>
