<svg width="48" height="32" viewBox="0 0 48 32" fill="none" xmlns="http://www.w3.org/2000/svg">
<g clip-path="url(#clip0_11_3416)">
<path d="M47.9999 6.56565H0V1.10359C0 0.646563 0.370593 0.27597 0.827623 0.27597H47.1724C47.6294 0.27597 48 0.646563 48 1.10359L47.9999 6.56565Z" fill="#41479B"/>
<path d="M47.1723 31.7242H0.827623C0.370593 31.7242 0 31.3536 0 30.8966V25.4346H47.9999V30.8966C47.9999 31.3537 47.6293 31.7242 47.1723 31.7242Z" fill="#41479B"/>
<path d="M47.9999 6.5658H0V12.8555H47.9999V6.5658Z" fill="white"/>
<path d="M47.9999 12.8556H0V19.1453H47.9999V12.8556Z" fill="#41479B"/>
<path d="M47.9999 19.1452H0V25.4349H47.9999V19.1452Z" fill="white"/>
<path d="M0.310312 31.5275L24.2542 16.3631C24.5205 16.1944 24.5205 15.8058 24.2542 15.637L0.310312 0.472412C0.125156 0.624193 0 0.845348 0 1.10344V30.8964C0 31.1545 0.12525 31.3756 0.310312 31.5275Z" fill="#FF4B55"/>
<path d="M8.29929 12.01L9.14904 14.5577L11.8347 14.5786C12.0427 14.5802 12.129 14.8457 11.9616 14.9693L9.80116 16.5647L10.6113 19.1253C10.6741 19.3237 10.4481 19.4878 10.2789 19.3667L8.09398 17.8051L5.90904 19.3668C5.73983 19.4879 5.51389 19.3237 5.5767 19.1254L6.38679 16.5649L4.22624 14.9695C4.05889 14.8458 4.14514 14.5803 4.35317 14.5787L7.03882 14.5579L7.88857 12.0102C7.95429 11.8127 8.23348 11.8127 8.29929 12.01Z" fill="white"/>
</g>
<defs>
<clipPath id="clip0_11_3416">
<rect width="48" height="32" fill="white"/>
</clipPath>
</defs>
</svg>
