<svg width="48" height="32" viewBox="0 0 48 32" fill="none" xmlns="http://www.w3.org/2000/svg">
<g clip-path="url(#clip0_11_1193)">
<path d="M47.1723 31.7242H0.827623C0.370593 31.7242 0 31.3536 0 30.8966V1.10362C0 0.646594 0.370593 0.276001 0.827623 0.276001H47.1724C47.6294 0.276001 48 0.646594 48 1.10362V30.8966C47.9999 31.3537 47.6293 31.7242 47.1723 31.7242Z" fill="#41479B"/>
<path d="M47.9999 18.4825H0V20.6894H47.9999V18.4825Z" fill="white"/>
<path d="M47.9999 22.8971H0V25.104H47.9999V22.8971Z" fill="white"/>
<path d="M47.9999 20.6893H0V22.8961H47.9999V20.6893Z" fill="#FF4B55"/>
<path d="M15.9047 13.9998L16.1586 14.7609L16.9608 14.767C17.023 14.7676 17.0487 14.8468 16.9988 14.8838L16.3534 15.3604L16.5954 16.1253C16.6141 16.1845 16.5466 16.2336 16.4961 16.1974L15.8433 15.7308L15.1905 16.1974C15.1399 16.2335 15.0725 16.1845 15.0913 16.1253L15.3332 15.3604L14.6879 14.8838C14.6379 14.8468 14.6637 14.7675 14.7258 14.767L15.528 14.7609L15.7819 13.9998C15.8016 13.9408 15.8851 13.9408 15.9047 13.9998Z" fill="#FFE15A"/>
<path d="M15.9047 27.374L16.1586 28.1351L16.9608 28.1413C17.023 28.1418 17.0487 28.221 16.9988 28.258L16.3534 28.7346L16.5954 29.4995C16.6141 29.5587 16.5466 29.6078 16.4961 29.5716L15.8433 29.105L15.1905 29.5716C15.1399 29.6077 15.0725 29.5587 15.0913 29.4995L15.3332 28.7346L14.6879 28.258C14.6379 28.221 14.6637 28.1417 14.7258 28.1413L15.528 28.1351L15.7819 27.374C15.8016 27.315 15.8851 27.315 15.9047 27.374Z" fill="#FFE15A"/>
<path d="M11.5633 28.1212L12.2084 27.6442L12.8685 28.1002C12.9196 28.1355 12.9863 28.0854 12.9667 28.0265L12.7124 27.2655L13.3501 26.7786C13.3995 26.7408 13.3724 26.6619 13.3102 26.6625L12.508 26.6691L12.242 25.9122C12.2213 25.8535 12.138 25.8549 12.1192 25.9142L11.8777 26.6793L11.0756 26.6984C11.0135 26.6998 10.989 26.7796 11.0396 26.8157L11.6926 27.2818L11.4629 28.0505C11.4451 28.1103 11.5132 28.1583 11.5633 28.1212Z" fill="#FFE15A"/>
<path d="M12.8535 17.2489L12.1984 16.7857L11.5481 17.2555C11.4978 17.2919 11.43 17.2433 11.4484 17.1838L11.6866 16.4177L11.0388 15.9444C10.9886 15.9077 11.0139 15.8283 11.0761 15.8275L11.8783 15.8172L12.1283 15.055C12.1476 14.9959 12.2311 14.9955 12.251 15.0543L12.5088 15.8141L13.3111 15.8163C13.3732 15.8165 13.3994 15.8956 13.3495 15.9327L12.7065 16.4125L12.9524 17.1763C12.9715 17.2353 12.9043 17.2847 12.8535 17.2489Z" fill="#FFE15A"/>
<path d="M18.8955 17.2587L19.5406 16.7817L20.2007 17.2377C20.2518 17.273 20.3185 17.2229 20.2989 17.164L20.0446 16.403L20.6823 15.9161C20.7317 15.8783 20.7046 15.7994 20.6424 15.8L19.8402 15.8067L19.5742 15.0497C19.5535 14.991 19.4702 14.9924 19.4515 15.0517L19.2099 15.8168L18.4078 15.8359C18.3457 15.8373 18.3212 15.9171 18.3718 15.9532L19.0248 16.4193L18.7951 17.1881C18.7773 17.2477 18.8456 17.2958 18.8955 17.2587Z" fill="#FFE15A"/>
<path d="M20.1858 28.1114L19.5308 27.6482L18.8804 28.1181C18.8301 28.1544 18.7623 28.1058 18.7808 28.0463L19.0189 27.2802L18.3711 26.8069C18.3209 26.7702 18.3462 26.6908 18.4084 26.6899L19.2106 26.6797L19.4606 25.9174C19.4799 25.8584 19.5634 25.858 19.5833 25.9168L19.8411 26.6766L20.6434 26.6788C20.7055 26.679 20.7317 26.7581 20.6818 26.7952L20.0388 27.275L20.2847 28.0388C20.3037 28.0981 20.2365 28.1474 20.1858 28.1114Z" fill="#FFE15A"/>
<path d="M10.6038 23.437L9.80154 23.4423L9.53679 22.6849C9.51635 22.6263 9.43292 22.6275 9.41407 22.6867L9.17117 23.4514L8.36904 23.4693C8.30688 23.4706 8.28223 23.5503 8.33285 23.5865L8.98507 24.0538L8.75407 24.8221C8.73617 24.8815 8.80432 24.9297 8.85438 24.8928L9.50032 24.4169L10.1597 24.874C10.2108 24.9093 10.2775 24.8594 10.2579 24.8004L10.0049 24.0391L10.6433 23.5533C10.6928 23.5155 10.6659 23.4365 10.6038 23.437Z" fill="#FFE15A"/>
<path d="M8.36922 19.3132L9.17135 19.2981L9.41669 18.5343C9.43572 18.4751 9.51907 18.4742 9.53941 18.533L9.80172 19.2911L10.604 19.2884C10.6662 19.2882 10.6929 19.3672 10.6432 19.4046L10.0032 19.8884L10.2538 20.6506C10.2732 20.7096 10.2063 20.7594 10.1553 20.7238L9.4975 20.2646L8.85007 20.7384C8.79991 20.7752 8.73194 20.7268 8.74994 20.6674L8.98338 19.8997L8.33266 19.4304C8.28222 19.394 8.30716 19.3144 8.36922 19.3132Z" fill="#FFE15A"/>
<path d="M23.3154 19.2838L22.5132 19.289L22.2485 18.5317C22.228 18.473 22.1446 18.4742 22.1257 18.5335L21.8828 19.2982L21.0807 19.316C21.0186 19.3173 20.9939 19.3971 21.0445 19.4333L21.6967 19.9006L21.4657 20.6688C21.4478 20.7283 21.516 20.7765 21.5661 20.7396L22.212 20.2637L22.8713 20.7209C22.9224 20.7562 22.9892 20.7062 22.9696 20.6473L22.7166 19.8859L23.3551 19.4001C23.4045 19.3623 23.3776 19.2833 23.3154 19.2838Z" fill="#FFE15A"/>
<path d="M21.081 23.4666L21.8831 23.4515L22.1285 22.6876C22.1475 22.6284 22.2309 22.6275 22.2512 22.6863L22.5135 23.4444L23.3158 23.4417C23.378 23.4415 23.4047 23.5206 23.355 23.558L22.715 24.0417L22.9656 24.8039C22.985 24.863 22.9181 24.9127 22.8671 24.8771L22.2093 24.4179L21.5619 24.8917C21.5117 24.9285 21.4437 24.8801 21.4617 24.8207L21.6952 24.0531L21.0444 23.5837C20.994 23.5474 21.0189 23.4679 21.081 23.4666Z" fill="#FFE15A"/>
</g>
<defs>
<clipPath id="clip0_11_1193">
<rect width="48" height="32" fill="white"/>
</clipPath>
</defs>
</svg>
