<svg width="48" height="32" viewBox="0 0 48 32" fill="none" xmlns="http://www.w3.org/2000/svg">
<g clip-path="url(#clip0_11_2664)">
<path d="M47.1723 31.7241H0.827623C0.370593 31.7241 0 31.3536 0 30.8965V1.10349C0 0.646456 0.370593 0.275864 0.827623 0.275864H47.1724C47.6294 0.275864 48 0.646456 48 1.10349V30.8965C47.9999 31.3536 47.6293 31.7241 47.1723 31.7241Z" fill="#41479B"/>
<path d="M47.9999 21.7928H0V25.9309H47.9999V21.7928Z" fill="#FFE15A"/>
<path d="M11.1509 8.01895L10.3368 10.4596L7.76407 10.4796C7.51732 10.4815 7.41504 10.7964 7.61351 10.9429L9.68322 12.4712L8.90716 14.9242C8.83282 15.1594 9.10057 15.354 9.30129 15.2105L11.3944 13.7144L13.4876 15.2105C13.6883 15.3539 13.9562 15.1594 13.8817 14.9242L13.1057 12.4712L15.1754 10.9429C15.3739 10.7963 15.2716 10.4816 15.0248 10.4796L12.452 10.4596L11.638 8.01895C11.56 7.78486 11.229 7.78486 11.1509 8.01895Z" fill="white"/>
<path d="M5.28676 3.51497L4.81567 4.92768L3.32654 4.93931C3.18376 4.94043 3.12451 5.12259 3.23945 5.20743L4.43739 6.09205L3.98823 7.51189C3.9452 7.64802 4.10017 7.7607 4.21632 7.67764L5.42776 6.81168L6.6392 7.67764C6.75535 7.7607 6.91041 7.64802 6.86729 7.51189L6.41813 6.09205L7.61607 5.20743C7.73091 5.12259 7.67176 4.94034 7.52898 4.93931L6.03985 4.92768L5.56876 3.51497C5.52357 3.3795 5.33195 3.3795 5.28676 3.51497Z" fill="white"/>
</g>
<defs>
<clipPath id="clip0_11_2664">
<rect width="48" height="32" fill="white"/>
</clipPath>
</defs>
</svg>
