<svg width="48" height="32" viewBox="0 0 48 32" fill="none" xmlns="http://www.w3.org/2000/svg">
<g clip-path="url(#clip0_11_5040)">
<g clip-path="url(#clip1_11_5040)">
<path d="M48 0H0V32H48V0Z" fill="white"/>
<path d="M24.6987 27.0262C24.6916 27.0232 24.6853 27.0187 24.6802 27.0131L24.6735 27.0069C24.6439 26.9792 24.6157 26.9499 24.5891 26.9192C24.5181 26.8385 24.4228 26.7204 24.339 26.616C24.1729 26.4089 24.0356 26.2305 24.0097 26.1969L23.9674 26.1419L23.5532 26.0142L23.2507 25.8732L23.4123 25.6915L23.9674 25.9292L24.3817 26.0142L25.1477 26.5776L25.1471 26.5781C25.1456 26.5793 25.0357 26.6708 24.9265 26.7701C24.8778 26.8143 24.8164 26.8714 24.7731 26.9185C24.7552 26.9376 24.7386 26.958 24.7235 26.9793C24.7144 26.9944 24.7061 27.0101 24.6987 27.0262V27.0262ZM21.8539 26.1718C21.4802 26.1684 21.114 26.066 20.7928 25.8749H20.7924V25.8745C20.8315 25.8093 20.8838 25.753 20.9459 25.7092C21.0494 25.6332 21.2362 25.5423 21.5379 25.5412H21.5442C21.9015 25.5412 22.3388 25.6627 22.8441 25.9023C22.5445 26.0803 22.2023 26.1734 21.8539 26.1718L21.8544 26.1724L21.8539 26.1718ZM20.2875 25.8246C20.2236 25.8259 20.1622 25.8 20.1184 25.7535C20.0806 25.7096 20.0546 25.6567 20.0427 25.6C20.0256 25.5263 20.0193 25.4505 20.024 25.3751C20.0503 25.3637 20.0786 25.3573 20.1073 25.3562H20.1132C20.2472 25.3562 20.3527 25.4724 20.3979 25.5875C20.4226 25.6384 20.4278 25.6966 20.4125 25.7511C20.3898 25.7987 20.3404 25.8276 20.2877 25.8241L20.2875 25.8246ZM23.0437 25.5052C22.1179 25.3729 21.7255 25.0382 21.5593 24.7807C21.4541 24.6245 21.4046 24.4374 21.4188 24.2495V24.2488H21.4195C21.466 24.2381 21.5136 24.2328 21.5613 24.2332C21.8076 24.2332 22.4376 24.3571 23.044 25.5047L23.0443 25.5055L23.0433 25.5049L23.0437 25.5052ZM21.1461 25.3217C20.7506 25.3217 20.4495 25.2534 20.2511 25.119C20.1667 25.065 20.0988 24.9889 20.0545 24.899C20.0384 24.8649 20.0277 24.8285 20.0228 24.7911C20.1546 24.7377 20.2948 24.7079 20.437 24.7031C20.4574 24.7022 20.478 24.7016 20.4996 24.7015C20.8053 24.7015 21.2701 24.8013 21.7607 25.2765L21.7612 25.2769H21.7606C21.5568 25.3051 21.3514 25.32 21.1457 25.3217L21.1461 25.3217ZM19.2309 25.2481C18.8139 25.2481 18.2409 25.1207 17.8836 24.7635L17.8832 24.763H17.8843C18.1559 24.6989 18.4332 24.662 18.7122 24.6531C18.7382 24.6524 18.7644 24.6521 18.7908 24.652C19.1819 24.652 19.4812 24.7279 19.6805 24.8774C19.7362 24.9108 19.7776 24.9637 19.7967 25.0258C19.8011 25.0716 19.7793 25.116 19.7404 25.1405C19.6506 25.2083 19.4901 25.2444 19.2633 25.248L19.2313 25.2491L19.2309 25.2481ZM17.8795 24.5548C17.8283 24.5549 17.7798 24.532 17.7473 24.4925C17.7172 24.453 17.6969 24.4069 17.6882 24.358C17.6746 24.2936 17.6693 24.2278 17.6726 24.1621V24.1611C17.693 24.1517 17.7152 24.1467 17.7376 24.1464C17.7899 24.1484 17.8394 24.1705 17.8756 24.2082C17.916 24.2478 17.9468 24.296 17.9657 24.3493C17.9845 24.3937 17.988 24.4432 17.9753 24.4898C17.9597 24.5291 17.9216 24.5548 17.8793 24.5543L17.8795 24.5548ZM21.0011 24.4844C20.9372 24.4856 20.8758 24.4598 20.832 24.4133C20.7942 24.3693 20.7681 24.3165 20.7562 24.2598C20.7391 24.1861 20.7328 24.1103 20.7374 24.0349C20.7638 24.0235 20.7921 24.0171 20.8208 24.016H20.8267C20.9606 24.016 21.0662 24.1322 21.1114 24.2473C21.1361 24.2982 21.1413 24.3564 21.126 24.4109C21.1034 24.4585 21.0539 24.4875 21.0012 24.4839L21.0011 24.4844ZM19.4805 24.4214C18.6412 24.3919 18.2059 24.1533 17.9881 23.9583C17.8949 23.8767 17.8182 23.7781 17.7619 23.6678C17.741 23.6264 17.7248 23.5828 17.7135 23.5378L17.7146 23.5373C17.7818 23.517 17.8516 23.5066 17.9218 23.5064H17.9414C18.2245 23.5064 18.8007 23.6253 19.4802 24.4213V24.4218L19.4805 24.4214ZM20.392 24.3366C19.7168 24.2338 19.3342 23.9439 19.1322 23.7188C19.0075 23.5849 18.9127 23.426 18.8541 23.2527C18.9224 23.2371 18.9921 23.2287 19.0621 23.2277C19.0712 23.2277 19.0805 23.2274 19.0901 23.2274C19.0996 23.2274 19.1096 23.2274 19.1196 23.2277C19.4592 23.2351 20.0761 23.389 20.3918 24.3363H20.3924L20.392 24.3366ZM16.9253 24.0124C16.7104 24.0131 16.4962 23.9874 16.2875 23.936C15.9339 23.8476 15.7822 23.7126 15.7173 23.6149C15.6893 23.5744 15.6706 23.5283 15.6623 23.4797C15.6594 23.4608 15.6588 23.4416 15.6606 23.4225L15.6623 23.4219C15.8449 23.3766 16.0322 23.3528 16.2204 23.3511C16.2331 23.3511 16.246 23.3508 16.259 23.3508C16.4124 23.3505 16.5654 23.3653 16.7158 23.395C17.057 23.4663 17.361 23.6584 17.572 23.9358V23.9363H17.5713C17.3597 23.988 17.1426 24.0135 16.9249 24.012L16.9253 24.0124ZM18.4928 23.4428C18.4292 23.4445 18.3677 23.4193 18.3236 23.3734C18.2857 23.329 18.2596 23.2756 18.2479 23.2183C18.2308 23.1453 18.2245 23.0701 18.2292 22.9951C18.2555 22.9837 18.2838 22.9773 18.3125 22.9763H18.3185C18.4521 22.9763 18.5578 23.0925 18.6032 23.2076C18.6274 23.2581 18.632 23.3157 18.6162 23.3694C18.5945 23.4173 18.5454 23.4467 18.493 23.443L18.4928 23.4428ZM17.3141 23.2812C17.0897 23.2176 16.875 23.1239 16.6759 23.0025C16.3802 22.8205 16.0185 22.4985 15.9744 21.9982H15.9751C15.9976 21.9934 16.0204 21.9907 16.0433 21.99C16.0486 21.99 16.0549 21.9897 16.0611 21.9897C16.1494 21.9897 16.3302 22.0146 16.549 22.1808C16.8274 22.3931 17.0844 22.7632 17.3143 23.2822L17.3141 23.2812ZM18.0837 23.2529C17.9006 23.1697 17.7305 23.0604 17.5787 22.9284C17.1865 22.5908 16.8808 22.1642 16.6872 21.6842C16.7355 21.6615 16.7878 21.6485 16.8411 21.6459C16.8465 21.6455 16.8518 21.6454 16.8574 21.6454C16.8654 21.6454 16.8737 21.6454 16.8821 21.6459C17.0107 21.6495 17.2066 21.7029 17.4237 21.9372C17.6731 22.2064 17.8957 22.6487 18.085 23.2519L18.0856 23.2536L18.084 23.2531L18.0837 23.2529ZM16.0896 23.1948C15.8325 23.1948 15.7445 23.0553 15.7186 22.9953C15.6927 22.9328 15.6826 22.8649 15.689 22.7976V22.7965C15.7309 22.7861 15.7739 22.7805 15.817 22.7798H15.8258C15.9939 22.7757 16.154 22.8517 16.257 22.9846C16.2706 23.0048 16.3123 23.075 16.2778 23.1298C16.25 23.173 16.1871 23.1948 16.0895 23.1948L16.0896 23.1948ZM15.52 22.4763C15.3209 22.4768 15.122 22.4598 14.9258 22.4255C14.6968 22.3839 14.567 22.1892 14.4985 22.0332C14.4524 21.9266 14.4201 21.8145 14.4025 21.6997H14.4031C15.1115 21.7205 15.446 21.9275 15.6019 22.0974C15.6985 22.1979 15.7587 22.3279 15.7729 22.4666H15.7724C15.7714 22.4666 15.6716 22.4762 15.5196 22.4762L15.52 22.4763ZM16.2576 21.7392C16.2566 21.7381 16.1757 21.6379 16.0958 21.5138C16.0119 21.3834 15.9344 21.2471 15.9344 21.1359C15.9344 21.0284 15.9091 20.8018 15.894 20.6763C15.8749 20.5171 15.8556 20.3808 15.854 20.3692H15.8547C15.8726 20.3758 16.2978 20.5353 16.2978 20.9341C16.2978 21.3329 16.2584 21.7348 16.258 21.7388V21.7394H16.2575L16.2576 21.7392ZM15.7067 21.7014C15.7022 21.7014 15.6978 21.701 15.6933 21.7003C15.5677 21.6793 15.3467 21.5833 15.1028 21.4433C14.8317 21.2879 14.6116 21.1214 14.483 20.9745C14.3657 20.8405 14.2964 20.6301 14.2761 20.3491C14.2671 20.2218 14.2687 20.094 14.2807 19.967C14.3034 19.9597 14.3271 19.9561 14.3509 19.9564C14.445 19.9579 14.5454 20.0003 14.681 20.0937C14.8045 20.1816 14.9203 20.28 15.0271 20.3877C15.1627 20.5224 15.2908 20.6643 15.4111 20.8129L15.4128 20.815C15.4269 20.8403 15.5481 21.0588 15.6425 21.2714C15.6897 21.3693 15.7259 21.472 15.7505 21.5779C15.7597 21.6088 15.7597 21.6419 15.7505 21.6728C15.7465 21.6829 15.7393 21.6913 15.7299 21.6967C15.7225 21.6999 15.7145 21.7016 15.7065 21.7015L15.7067 21.7014Z" fill="#4E5B31"/>
<path d="M38.7804 5.54493L38.6548 5.59495L38.6056 5.61458L38.4534 5.60621L38.3108 5.67463L38.058 5.84738L38.0468 5.85538L37.9526 5.87997L37.8651 5.84221L37.8154 5.86482L37.7983 5.96722L37.751 6.04077L37.6927 6.08167L37.491 6.10231L37.3208 6.19005L37.0995 6.13079L36.9967 6.17106L36.778 6.36797L36.6663 6.42087L36.6272 6.41863L36.4791 6.41101L36.4165 6.43149L36.3231 6.52178L36.1463 6.53554L36.0912 6.57367L36.0049 6.74754L35.9114 6.84397L35.858 6.85527L35.8001 6.83394L35.7565 6.84162L35.7368 6.95287L35.6945 6.99949L35.5761 7.04023L35.4816 7.11901L35.3986 7.16167L35.2874 7.1589H35.2619L35.1512 7.22002L34.9432 7.23826L34.8565 7.32087L34.8375 7.33853L34.797 7.36295L34.7309 7.40242L34.7149 7.41223L34.6349 7.39799L34.5416 7.43495L34.5038 7.37687L34.4392 7.41565L34.3539 7.41933L34.2472 7.37191L34.166 7.33575L34.1067 7.34434L34.086 7.44781L34.084 7.45879L34.0216 7.54183L33.9051 7.61239L33.8891 7.63303L33.7565 7.80413L33.5047 8.06898L33.2917 8.17714L33.071 8.24429L32.9163 8.37122L32.511 8.57213L31.8713 8.89069L31.7404 8.93261L31.5527 8.96258L31.2179 9.08589L30.9225 9.17501L30.906 9.18002L30.8474 9.19773L30.4308 9.32375L30.237 9.30327L30.1221 9.34498L29.8232 9.31181L29.6152 9.31591L29.4836 9.34327L29.2363 9.46189L28.8189 9.66253L28.681 9.78871L28.4662 9.90071L28.2147 9.98034L28.2153 9.87469L28.2138 9.87021L28.1266 9.89778L28.0636 9.91767L27.8596 9.94914H27.7461L27.6756 9.92866L27.665 9.93234L27.248 10.0694L26.783 10.1143L26.5503 10.1889L26.3764 10.1862L26.2677 10.2185L26.0544 10.2446L25.9783 10.2242L25.9611 10.2195L25.3344 10.2467L25.0479 10.2144L24.9112 10.2455L24.6818 10.1683L24.3475 10.1296L24.2693 10.1062L24.0933 10.054L24.0138 10.0998L23.9543 10.1062L23.8121 10.0546L23.7609 10.0533L23.6435 10.096L23.576 10.0786L23.5132 10.0286L23.3659 10.0067L23.2762 9.93127L22.7749 9.99773L22.6388 9.95773L22.1826 9.82482L22.11 9.8285L22.0194 9.89629L21.8835 9.94583L21.7655 9.9765L21.6049 9.98183L21.4182 9.93287L21.2259 9.83965L21.1548 9.82274L20.9962 9.83874L20.9476 9.84311L20.6561 9.68674L20.2805 9.45207L20.0257 9.32941L19.93 9.31389L19.9172 9.35938L19.9646 9.50871L19.9806 9.65666L19.9758 9.79335L19.9732 9.878L19.997 9.95399L20.089 10.056L20.1273 10.1584L20.1554 10.4402L20.155 10.7262L20.1103 11.1822L20.0952 11.2515L20.0419 11.4878L19.9931 11.7048L19.804 12.2826L19.7521 12.3542L19.6245 12.4412L19.3355 12.6379L19.1227 12.7606L19.0554 12.7884L18.8826 12.8015L18.775 12.7962L18.641 12.7236L18.5094 12.6897L18.337 12.5658L18.145 12.5261L17.9348 12.4046L17.8801 12.3388L17.7657 12.3282L17.6069 12.2806V12.2803L17.5486 12.2628L17.5084 12.2511L17.3057 12.2458L17.1169 12.1586L17.0175 12.1346L16.8817 12.1278L16.7395 12.1938L16.6674 12.2274L16.5764 12.1912L16.5105 12.1953L16.4358 12.3081L16.4267 12.3254L16.3753 12.3526L16.3113 12.3516L16.2612 12.3503L16.207 12.374L16.134 12.4056L16.0696 12.4337L16.0381 12.4473L16.0376 12.4468L16.0182 12.4507L15.9838 12.4567L15.9412 12.4648L15.866 12.4209L15.826 12.3973L15.7589 12.3836L15.7228 12.4097L15.7157 12.5324L15.6828 12.6059L15.5782 12.6984L15.4719 12.792L15.3978 12.9011L15.2018 13.3486L15.0791 13.5291L15.041 13.5712L14.912 13.7131L14.7981 13.8015L14.5356 14.0049L14.2871 14.0978L14.0731 14.1415L13.969 14.1419L13.7717 14.1157L13.5945 14.0613L13.3998 13.9396L13.1865 13.768L12.8774 13.4627L12.8337 13.4364L12.8246 13.4304L12.7273 13.3681L12.655 13.37L12.6268 13.4166L12.6113 13.484L12.5982 13.5437L12.5628 13.8833L12.5654 13.903L12.5841 14.0428L12.8187 14.3708L12.8911 14.545L12.903 14.5649L12.9515 14.6463L12.9883 14.7083L12.992 14.7146L13.072 14.9539L13.0156 15.0891L13.0441 15.1798L12.9729 15.2351L12.9598 15.3132L13.1705 15.5774L13.2165 15.6939L13.1651 15.8554L13.0832 15.9446L13.0603 15.9689L13.0718 16.0372L13.1688 16.1244L13.3335 16.2711L13.4214 16.489L13.4882 16.5476L13.5659 16.5311L13.6091 16.5641L13.6746 16.563L13.739 16.6274L13.7807 16.6476L13.8466 16.6804L13.8987 16.7483L13.9102 16.9569L14.0074 17.2161L14.0089 17.3566L14.0094 17.3766L14.0699 17.4804L14.0889 17.5625L14.0569 17.7795L14.134 17.8491L14.2175 17.8321L14.2715 17.8406L14.3582 17.9128L14.4633 18.0728L14.566 18.0578L14.6312 18.0892L14.9458 18.3737L15.0172 18.4097L15.0212 18.412L15.0725 18.4377L15.1365 18.5022L15.2355 18.4364L15.2465 18.4353L15.3541 18.4258L15.4014 18.4578L15.4921 18.5191L15.6112 18.5176L15.8695 18.5968L15.9826 18.6257L16.2098 18.767L16.3064 18.8267L16.3636 18.8731L16.4395 18.9351L16.5913 19.0003L16.7214 19.0315L16.7919 19.0482L16.8452 19.0687L16.8466 19.0654H16.8473L16.846 19.0688L17.1278 19.1767L17.2805 19.2123L17.4217 19.2643L17.5245 19.3016L17.5999 19.3028L17.7066 19.2131L17.8099 19.2072L17.8957 19.2285L17.9794 19.2145L18.112 19.1328L18.1378 19.0945L18.2318 19.0497L18.5488 19.0104L18.6414 19.0404L18.8793 18.937L19.0387 18.9813L19.1797 18.9313L19.488 18.9998L19.5699 19.0574L19.6614 19.1622L19.6726 19.1627L19.7746 19.1647L19.732 19.2356L19.8665 19.3768L19.9881 19.5606L19.9963 19.5848L20.0846 19.8442L20.1504 19.9361L20.1963 20.0644L20.1986 20.148L20.1271 20.2025L20.1154 20.2336L20.1113 20.2451L20.1258 20.2801L20.1528 20.2654L20.2042 20.2369L20.2667 20.2272L20.3769 20.239L20.4496 20.2466L20.5645 20.1896L20.6406 20.1517L20.7629 20.2043L20.8973 20.2028L20.9537 20.228L21.1137 20.3004L21.1953 20.3081L21.2254 20.2883L21.2446 20.2426L21.2347 20.1893L21.1733 20.119L21.0384 19.9623L20.9831 19.8817L20.941 19.7651L20.928 19.616L20.9187 19.5155L20.9355 19.3834L20.9717 19.3362L20.9984 19.2313H20.9989L21.0058 19.2038L21.0808 19.1043L21.2794 18.9767L21.4927 18.7856L21.6613 18.6744L21.8352 18.5991L21.8398 18.5778L21.8592 18.5856L22.3014 18.4352L22.3088 18.4344L22.5057 18.4001L23.8347 18.4937L23.884 18.4788V18.4785L23.9283 18.3542L23.9521 18.3312L23.9681 18.3161L24.1142 18.2518L24.1826 18.242L24.3722 18.2889L24.4499 18.308L24.5742 18.2383L24.6625 18.2398L24.8447 18.1403L24.9573 18.1431L25 18.126L25.2193 17.9684L25.4305 17.9079L25.4854 17.8786L25.5048 17.868L25.7213 17.7536L25.8589 17.648L25.9776 17.5849L26.1076 17.5513L26.4479 17.5274L26.5163 17.4134L26.6627 17.3938L26.751 17.2941L26.8524 17.253L26.9249 17.1486L26.9856 17.061L27.0705 17.0119L27.3425 16.9948L27.6649 17.0348L27.7075 17.0089L27.7804 16.7489L27.8567 16.7001L28.062 16.4008L28.0627 16.2918V16.2007L28.0965 16.071L28.0736 15.8368L28.1008 15.5996L28.2284 15.2983L28.3409 15.1768L28.5223 15.0541L28.6145 15.0139L28.7451 14.992V14.992L28.7643 14.9888L28.7976 14.9831L29.2473 14.9769C29.2536 14.9722 29.4109 14.9746 29.4109 14.9746L29.5609 14.9726L29.9404 15.04L29.9674 15.0447L30.0954 15.0863L30.2433 15.2013L30.4 15.3543L30.4294 15.3828L30.5307 15.4255L30.5614 15.4389L30.6452 15.4255L30.7645 15.3634L30.8545 15.2873L30.9772 15.2202L30.9802 15.216L31.0492 15.1121L31.0513 15.1099L31.0528 15.1103V15.1097H31.0516L31.0789 15.0684L31.3161 14.976L31.595 14.96L31.6264 14.943L31.6438 14.9337L31.7175 14.8471L31.7866 14.8466L31.9538 14.9071L32.0711 14.8837L32.1644 14.921L32.237 14.9124L32.3738 14.8964L32.5207 14.9998L32.6063 15.0104L32.908 15.187L32.9237 15.1895L32.9318 15.191L32.9491 15.1939L32.9849 15.1832L33.0382 15.1678L33.0452 15.1657L33.052 15.1751L33.0863 15.2234L33.1333 15.2302L33.189 15.1559L33.1668 15.1222L33.1585 15.1099L33.0507 15.088L32.9539 14.9226L33.046 14.8234L32.9015 14.646L32.8775 14.6166L32.8693 14.6041L32.8193 14.5282L32.5662 14.1424L32.2365 13.8792L32.121 13.7868L32.1203 13.7863L32.0799 13.7543L31.9039 13.5752L31.7781 13.4082L31.7616 13.3723L31.7356 13.3156L31.6603 13.1515L31.529 13.0502L31.422 12.9333L31.4167 12.9264L31.1959 12.6264L31.1596 12.5761L31.1074 12.5459L30.9972 12.5452L30.9866 12.5345L30.9804 12.5281L30.9841 12.5241L31.037 12.4716L31.0959 12.4568L31.1213 12.3987L31.0089 12.0734L31.0081 12.062L30.9997 11.958L31.0914 11.4857L31.1031 11.4282L31.2593 11.1104L31.356 11.0312L31.4616 10.8236L31.5523 10.6909L31.6389 10.6065L31.6541 10.5976L31.8106 10.5028L31.942 10.4843L32.0673 10.4667L32.2859 10.5341L32.4939 10.53L32.5345 10.5257L32.6289 10.5151L32.7842 10.4662L32.8575 10.4209L32.8955 10.3626L32.9748 10.0967L33.0003 10.012L33.0492 9.92007L33.3322 9.59431L33.5461 9.39645L34.0271 9.04375L34.2626 8.90301L34.3828 8.83117L35.4562 8.35405L35.7351 8.07138L35.8804 7.92429L36.1376 7.75175L36.4384 7.6285L36.6973 7.42359L36.7538 7.35245L36.8251 7.12311L36.8844 7.10877L36.9378 6.99282L36.953 6.95986L37.1643 6.81095L37.1882 6.79906L38.0089 6.38786L38.1281 6.40423L38.1921 6.30861L38.4309 6.26855L38.4748 6.26109L38.5335 6.2317L38.5836 6.14637V6.12951L38.5905 5.90162L38.6415 5.84002L38.6692 5.68983L38.6954 5.65517L38.7228 5.61911L38.7904 5.57159L38.7787 5.54327L38.7804 5.54493Z" fill="#D57800"/>
</g>
</g>
<defs>
<clipPath id="clip0_11_5040">
<rect width="48" height="32" fill="white"/>
</clipPath>
<clipPath id="clip1_11_5040">
<rect width="48" height="32" rx="1" fill="white"/>
</clipPath>
</defs>
</svg>
