<svg width="48" height="32" viewBox="0 0 48 32" fill="none" xmlns="http://www.w3.org/2000/svg">
<g clip-path="url(#clip0_11_3323)">
<path d="M0.30525 31.5241L24 16.0001L0.30525 0.476021C0.122906 0.627802 0 0.847739 0 1.10349V30.8966C0 31.1524 0.122906 31.3724 0.30525 31.5241Z" fill="#41479B"/>
<path d="M0.305161 31.5241C0.448598 31.6435 0.626254 31.7241 0.827441 31.7241H47.1723C47.6293 31.7241 47.9999 31.3535 47.9999 30.8965V16H23.9999L0.305161 31.5241Z" fill="#FF4B55"/>
<path d="M0.305161 0.476048C0.448598 0.356611 0.626254 0.275986 0.827441 0.275986H47.1723C47.6293 0.275986 47.9999 0.646579 47.9999 1.10361V16.0001H23.9999L0.305161 0.476048Z" fill="white"/>
</g>
<defs>
<clipPath id="clip0_11_3323">
<rect width="48" height="32" fill="white"/>
</clipPath>
</defs>
</svg>
