<svg width="48" height="32" viewBox="0 0 48 32" fill="none" xmlns="http://www.w3.org/2000/svg">
<g clip-path="url(#clip0_11_1662)">
<path d="M0.30525 31.524L24 16L0.30525 0.475922C0.122906 0.627703 0 0.84764 0 1.10339V30.8965C0 31.1523 0.122906 31.3723 0.30525 31.524Z" fill="white"/>
<path d="M0.305161 31.5241C0.448598 31.6435 0.626254 31.7241 0.827441 31.7241H47.1723C47.6293 31.7241 47.9999 31.3535 47.9999 30.8965V16H23.9999L0.305161 31.5241Z" fill="#73AF00"/>
<path d="M0.305161 0.475942C0.448598 0.356504 0.626254 0.275879 0.827441 0.275879H47.1723C47.6293 0.275879 47.9999 0.646472 47.9999 1.1035V16H23.9999L0.305161 0.475942Z" fill="#82AFFF"/>
<path d="M8.60302 12.2627L7.76489 14.7757L5.1158 14.7964C4.97058 14.7975 4.9104 14.9829 5.02712 15.0692L7.15824 16.643L6.35921 19.1688C6.31543 19.3073 6.47311 19.4218 6.59124 19.3373L8.74646 17.7969L10.9017 19.3373C11.0198 19.4217 11.1775 19.3072 11.1337 19.1688L10.3347 16.643L12.4655 15.0691C12.5823 14.9828 12.5221 14.7974 12.3768 14.7963L9.72774 14.7756L8.88961 12.2626C8.84386 12.1249 8.64896 12.1249 8.60302 12.2627Z" fill="#FF4B55"/>
</g>
<defs>
<clipPath id="clip0_11_1662">
<rect width="48" height="32" fill="white"/>
</clipPath>
</defs>
</svg>
