<svg width="48" height="32" viewBox="0 0 48 32" fill="none" xmlns="http://www.w3.org/2000/svg">
<g clip-path="url(#clip0_11_3816)">
<path d="M47.1723 31.7238H0.827623C0.370593 31.7238 0 31.3532 0 30.8962V1.10326C0 0.646227 0.370593 0.275635 0.827623 0.275635H47.1724C47.6294 0.275635 48 0.646227 48 1.10326V30.8962C47.9999 31.3534 47.6293 31.7238 47.1723 31.7238Z" fill="#73AF00"/>
<path d="M47.9999 12.6894H0V14.8962H47.9999V12.6894Z" fill="#FFE15A"/>
<path d="M47.9999 14.8962H0V17.1031H47.9999V14.8962Z" fill="#464655"/>
<path d="M47.9999 17.103H0V19.3099H47.9999V17.103Z" fill="white"/>
<path d="M22.8966 0.276093H20.6897V31.7245H22.8966V0.276093Z" fill="#FFE15A"/>
<path d="M25.1034 0.276093H22.8965V31.7245H25.1034V0.276093Z" fill="#464655"/>
<path d="M27.3102 0.276093H25.1034V31.7245H27.3102V0.276093Z" fill="white"/>
<path d="M23.9997 24.2761C28.5706 24.2761 32.276 20.5707 32.276 15.9999C32.276 11.429 28.5706 7.72363 23.9997 7.72363C19.4289 7.72363 15.7235 11.429 15.7235 15.9999C15.7235 20.5707 19.4289 24.2761 23.9997 24.2761Z" fill="#FF4B55"/>
<path d="M23.2895 17.4232C23.2895 17.4232 23.1929 18.0997 23.8501 19.1048H25.1259L24.8359 17.8871L23.2895 17.4232Z" fill="#73AF00"/>
<path d="M23.1992 12.8939C23.1992 12.8939 21.1118 16.3088 24.1786 18.3447L24.5007 16.4118L24.7068 13.9119L24.3847 12.8423L23.1992 12.8939Z" fill="#A561CD"/>
<path d="M23.1991 12.8938C23.1991 12.8938 22.9605 13.291 22.7629 13.8887C23.0316 14.1696 23.7661 14.5176 24.6693 14.3649L24.7067 13.9118L24.3845 12.8422L23.1991 12.8938Z" fill="#73AF00"/>
<path d="M22.7999 12.4043C22.7999 12.4043 22.8256 11.7213 23.4958 11.7213C24.3335 11.7213 25.0164 11.9146 26.0988 14.1568C26.0988 14.1568 25.1361 15.1018 24.5267 13.7959C24.3463 13.4093 24.2818 12.9455 24.2818 12.9455C24.2818 12.9455 23.5344 13.2032 23.019 12.9068L22.7999 12.4043Z" fill="#A561CD"/>
<path d="M23.1348 12.7261L22.9802 12.3138C22.9802 12.3138 22.1168 12.172 22.4776 13.2158C22.4776 13.2158 22.5033 13.0097 22.7224 13.0355C22.9416 13.0612 23.1735 12.8936 23.1348 12.7261Z" fill="#FFE15A"/>
<path d="M24.5778 16.6439C24.5778 16.6439 23.6695 17.3557 24.1785 19.0278C24.4491 19.9169 25.5315 20.893 25.5315 20.893C25.5315 20.893 26.3336 18.7958 26.0727 17.984C25.9191 17.5062 24.5778 16.6439 24.5778 16.6439Z" fill="#73AF00"/>
<path d="M26.3046 19.3371C26.3046 19.3371 23.9594 17.1014 23.8047 15.3424C23.65 13.5835 24.6643 13.8627 24.8485 13.9765C25.2866 14.2471 26.3948 15.3811 26.3046 19.3371Z" fill="#73AF00"/>
<path d="M26.0138 19.8489H22.1309C22.0501 19.8489 21.9848 19.7836 21.9848 19.7029V19.4151C21.9848 19.3344 22.0501 19.269 22.1309 19.269H26.0138C26.0945 19.269 26.1599 19.3344 26.1599 19.4151V19.7029C26.1598 19.7835 26.0944 19.8489 26.0138 19.8489Z" fill="#B34900"/>
<path d="M25.0677 19.2981C24.9325 19.3542 24.6617 19.4238 24.7294 19.6653C24.7813 19.8503 25.1354 19.8295 25.0677 20.0422C25.0219 20.186 24.3028 20.1992 24.0239 20.1582C23.8531 20.1331 23.4826 20.0325 23.5342 19.6073C23.5858 19.1821 23.7404 19.1167 23.9338 19.0403C24.1255 18.9646 24.9641 18.9814 25.0871 19.0854C25.1498 19.1386 25.1701 19.2556 25.0677 19.2981Z" fill="#FFE15A"/>
<path d="M24.0759 8.60642L24.2643 9.17126L24.8596 9.17595C24.9366 9.17661 24.9686 9.27495 24.9066 9.3207L24.4277 9.67442L24.6073 10.2421C24.6305 10.3155 24.5469 10.3763 24.4842 10.3315L23.9998 9.98529L23.5155 10.3315C23.4528 10.3763 23.3691 10.3156 23.3924 10.2421L23.572 9.67442L23.093 9.3207C23.0311 9.27486 23.0631 9.17651 23.1401 9.17595L23.7354 9.17126L23.9238 8.60642C23.948 8.53329 24.0514 8.53329 24.0759 8.60642Z" fill="#73AF00"/>
<path d="M24.0759 21.8113L24.2643 22.3762L24.8596 22.3809C24.9366 22.3815 24.9686 22.4799 24.9066 22.5256L24.4277 22.8793L24.6073 23.447C24.6305 23.5204 24.5469 23.5813 24.4842 23.5364L23.9998 23.1902L23.5155 23.5364C23.4528 23.5813 23.3691 23.5205 23.3924 23.447L23.572 22.8793L23.093 22.5256C23.0311 22.4798 23.0631 22.3814 23.1401 22.3809L23.7354 22.3762L23.9238 21.8113C23.948 21.7382 24.0514 21.7382 24.0759 21.8113Z" fill="#73AF00"/>
<path d="M24.0759 8.60642L24.2643 9.17126L24.8596 9.17595C24.9366 9.17661 24.9686 9.27495 24.9066 9.3207L24.4277 9.67442L24.6073 10.2421C24.6305 10.3155 24.5469 10.3763 24.4842 10.3315L23.9998 9.98529L23.5155 10.3315C23.4528 10.3763 23.3691 10.3156 23.3924 10.2421L23.572 9.67442L23.093 9.3207C23.0311 9.27486 23.0631 9.17651 23.1401 9.17595L23.7354 9.17126L23.9238 8.60642C23.948 8.53329 24.0514 8.53329 24.0759 8.60642Z" fill="#73AF00"/>
<path d="M24.0759 21.8113L24.2643 22.3762L24.8596 22.3809C24.9366 22.3815 24.9686 22.4799 24.9066 22.5256L24.4277 22.8793L24.6073 23.447C24.6305 23.5204 24.5469 23.5813 24.4842 23.5364L23.9998 23.1902L23.5155 23.5364C23.4528 23.5813 23.3691 23.5205 23.3924 23.447L23.572 22.8793L23.093 22.5256C23.0311 22.4798 23.0631 22.3814 23.1401 22.3809L23.7354 22.3762L23.9238 21.8113C23.948 21.7382 24.0514 21.7382 24.0759 21.8113Z" fill="#73AF00"/>
<path d="M19.4749 9.9616L19.6399 10.5337L19.1521 10.8749C19.0889 10.9191 19.1183 11.0183 19.1954 11.0208L19.7904 11.0407L19.9643 11.6101C19.9869 11.6839 20.0902 11.6864 20.1165 11.614L20.3192 11.0543L20.9146 11.0649C20.9916 11.0663 21.0261 10.9689 20.9653 10.9215L20.4955 10.5557L20.6895 9.99263C20.7146 9.91979 20.6325 9.85679 20.5686 9.90001L20.0756 10.2338L19.6003 9.87535C19.5387 9.82885 19.4535 9.88754 19.4749 9.9616Z" fill="#73AF00"/>
<path d="M26.961 20.8398L27.126 21.4118L26.6381 21.7531C26.5749 21.7972 26.6043 21.8964 26.6814 21.899L27.2764 21.9188L27.4503 22.4883C27.4729 22.5621 27.5762 22.5646 27.6025 22.4922L27.8053 21.9324L28.4006 21.9431C28.4776 21.9444 28.5121 21.847 28.4513 21.7997L27.9815 21.4339L28.1756 20.871C28.2007 20.7981 28.1186 20.7351 28.0547 20.7784L27.5617 21.1121L27.0864 20.7537C27.0249 20.7071 26.9397 20.7658 26.961 20.8398Z" fill="#73AF00"/>
<path d="M16.6768 13.7526L17.1521 14.111L16.9668 14.6768C16.9428 14.7501 17.0259 14.8117 17.0891 14.7676L17.5769 14.4262L18.0579 14.7772C18.1201 14.8226 18.2045 14.7628 18.1819 14.689L18.008 14.1197L18.4904 13.7708C18.5529 13.7257 18.5218 13.6269 18.4448 13.6256L17.8495 13.615L17.6668 13.0483C17.643 12.975 17.5397 12.974 17.5146 13.0467L17.3206 13.6096L16.7253 13.6083C16.6482 13.608 16.6153 13.7061 16.6768 13.7526Z" fill="#73AF00"/>
<path d="M29.194 17.9581L29.6693 18.3165L29.484 18.8824C29.46 18.9556 29.5431 19.0173 29.6063 18.9731L30.0942 18.6318L30.5751 18.9828C30.6373 19.0281 30.7217 18.9682 30.6991 18.8945L30.5252 18.3252L31.0077 17.9764C31.0701 17.9312 31.0391 17.8324 30.962 17.8311L30.3667 17.8205L30.184 17.2538C30.1603 17.1805 30.0569 17.1795 30.0318 17.2522L29.8379 17.8151L29.2426 17.8138C29.1655 17.8136 29.1325 17.9117 29.194 17.9581Z" fill="#73AF00"/>
<path d="M28.2104 9.96149L28.0454 10.5336L28.5333 10.8748C28.5965 10.919 28.5671 11.0182 28.49 11.0207L27.895 11.0406L27.7211 11.61C27.6985 11.6838 27.5952 11.6863 27.5689 11.6139L27.3661 11.0542L26.7708 11.0648C26.6938 11.0662 26.6593 10.9687 26.7201 10.9214L27.1899 10.5556L26.9958 9.99271C26.9707 9.91987 27.0528 9.85687 27.1167 9.90009L27.6097 10.2338L28.085 9.87543C28.1466 9.82874 28.2318 9.88743 28.2104 9.96149Z" fill="#73AF00"/>
<path d="M20.7247 20.8398L20.5597 21.4118L21.0476 21.7531C21.1108 21.7972 21.0814 21.8964 21.0043 21.899L20.4093 21.9188L20.2354 22.4883C20.2128 22.5621 20.1095 22.5646 20.0832 22.4922L19.8804 21.9324L19.2851 21.9431C19.208 21.9444 19.1735 21.847 19.2344 21.7997L19.7042 21.4339L19.5101 20.871C19.485 20.7981 19.5671 20.7351 19.631 20.7784L20.124 21.1121L20.5993 20.7537C20.6609 20.7071 20.7461 20.7658 20.7247 20.8398Z" fill="#73AF00"/>
<path d="M31.0088 13.7526L30.5335 14.111L30.7187 14.6768C30.7427 14.7501 30.6596 14.8117 30.5965 14.7676L30.1086 14.4262L29.6277 14.7772C29.5654 14.8226 29.481 14.7628 29.5036 14.689L29.6775 14.1197L29.1951 13.7708C29.1327 13.7257 29.1637 13.6269 29.2408 13.6256L29.8361 13.615L30.0188 13.0483C30.0425 12.975 30.1458 12.974 30.1709 13.0467L30.3649 13.6096L30.9602 13.6083C31.0374 13.608 31.0704 13.7061 31.0088 13.7526Z" fill="#73AF00"/>
<path d="M18.4917 17.9581L18.0163 18.3165L18.2016 18.8824C18.2256 18.9556 18.1425 19.0173 18.0793 18.9731L17.5915 18.6318L17.1105 18.9828C17.0483 19.0281 16.9639 18.9682 16.9865 18.8945L17.1604 18.3252L16.678 17.9764C16.6155 17.9312 16.6466 17.8324 16.7236 17.8311L17.3189 17.8205L17.5017 17.2538C17.5254 17.1805 17.6287 17.1795 17.6538 17.2522L17.8478 17.8151L18.4431 17.8138C18.5203 17.8136 18.5532 17.9117 18.4917 17.9581Z" fill="#73AF00"/>
</g>
<defs>
<clipPath id="clip0_11_3816">
<rect width="48" height="32" fill="white"/>
</clipPath>
</defs>
</svg>
