<svg width="48" height="32" viewBox="0 0 48 32" fill="none" xmlns="http://www.w3.org/2000/svg">
<g clip-path="url(#clip0_11_1357)">
<path d="M47.1723 31.7242H0.827623C0.370593 31.7242 0 31.3536 0 30.8965V1.1035C0 0.646472 0.370593 0.275879 0.827623 0.275879H47.1724C47.6294 0.275879 48 0.646472 48 1.1035V30.8965C47.9999 31.3537 47.6293 31.7242 47.1723 31.7242Z" fill="white"/>
<path d="M19.862 12.6898H0.827623C0.370593 12.6898 0 12.3192 0 11.8621V1.1035C0 0.646471 0.370593 0.275879 0.827623 0.275879H19.862C20.3191 0.275879 20.6896 0.646471 20.6896 1.1035V11.8621C20.6896 12.3192 20.3191 12.6898 19.862 12.6898Z" fill="#41479B"/>
<path d="M47.1722 31.7242H28.1378C27.6808 31.7242 27.3102 31.3536 27.3102 30.8965V20.138C27.3102 19.681 27.6808 19.3104 28.1378 19.3104H47.1722C47.6293 19.3104 47.9999 19.681 47.9999 20.138V30.8966C47.9999 31.3537 47.6293 31.7242 47.1722 31.7242Z" fill="#41479B"/>
<path d="M47.1722 12.6898H28.1378C27.6808 12.6898 27.3102 12.3192 27.3102 11.8621V1.1035C27.3102 0.646471 27.6808 0.275879 28.1378 0.275879H47.1722C47.6293 0.275879 47.9999 0.646471 47.9999 1.1035V11.8621C47.9999 12.3192 47.6293 12.6898 47.1722 12.6898Z" fill="#FF4B55"/>
<path d="M19.862 31.7242H0.827623C0.370593 31.7242 0 31.3536 0 30.8965V20.138C0 19.681 0.370593 19.3104 0.827623 19.3104H19.862C20.3191 19.3104 20.6896 19.681 20.6896 20.138V30.8966C20.6896 31.3537 20.3191 31.7242 19.862 31.7242Z" fill="#FF4B55"/>
<path d="M23.5247 18.3599C23.5247 18.3599 24.0192 18.5409 23.9547 19.1616L24.1545 19.1579C24.1545 19.1579 24.0284 18.4406 23.9242 18.3546C23.8199 18.2687 23.5247 18.3599 23.5247 18.3599Z" fill="#64B496"/>
<path d="M24.0204 18.264C23.8106 18.264 23.4441 18.2638 23.0586 18.1597C23.1446 18.0703 23.2633 17.8901 23.2633 17.5759C23.2633 17.0839 22.9243 17.3978 22.9243 17.3978C22.9243 17.3978 22.7014 17.5854 22.8362 18.0869C22.7048 18.0367 22.5744 17.972 22.45 17.8891C22.5274 17.792 22.6817 17.5657 22.7713 17.2068C22.7713 17.2068 22.2064 17.0952 22.0519 17.5206C21.9572 17.4005 21.8762 17.2654 21.8086 17.1159C21.9538 17.1177 22.1564 17.0219 22.1564 16.4689C22.1564 16.4689 21.7875 16.4696 21.689 16.7895C21.6502 16.6558 21.6206 16.5124 21.5989 16.3609C21.7462 16.4037 22.127 16.4343 22.127 15.6079C22.127 15.6079 21.6698 15.6088 21.5639 16.0138C21.5581 15.9102 21.5559 15.8031 21.5569 15.6927C21.7789 15.5766 22.0853 15.321 22.0535 14.7964C22.0535 14.7964 21.8426 14.8442 21.6493 15.0063C21.6874 14.8075 21.6716 14.5164 21.3667 14.2735C21.3667 14.2735 21.0865 14.7694 21.4958 15.1721C21.4601 15.2222 21.4291 15.2791 21.4035 15.3424C21.3115 15.2024 21.1641 15.0722 20.9265 14.993C20.9265 14.993 20.8172 15.6572 21.4374 15.9351C21.4521 16.323 21.5127 16.6658 21.617 16.9638C21.4393 16.8074 21.2956 16.5919 21.2956 16.5919C21.2956 15.8539 20.6906 15.8353 20.6906 15.8353C20.5777 16.6776 21.2005 16.7116 21.2005 16.7116L21.5416 17.0838C20.8036 16.9608 20.8036 17.5758 20.8036 17.5758C21.2956 17.6988 21.5416 17.4528 21.5416 17.4528L21.8077 17.5896C21.3357 17.6034 21.1726 18.0678 21.1726 18.0678C21.7658 18.1667 22.1995 18.0272 22.3469 17.9687C22.9443 18.3864 23.6806 18.3869 24.0206 18.3869V18.264H24.0204Z" fill="#64B496"/>
<path d="M23.9786 18.264C24.1883 18.264 24.5549 18.2638 24.9404 18.1597C24.8544 18.0703 24.7356 17.8901 24.7356 17.5759C24.7356 17.0839 25.0746 17.3978 25.0746 17.3978C25.0746 17.3978 25.2976 17.5854 25.1628 18.0869C25.2942 18.0367 25.4246 17.972 25.5489 17.8891C25.4716 17.792 25.3173 17.5657 25.2276 17.2068C25.2276 17.2068 25.7926 17.0952 25.9471 17.5206C26.0418 17.4005 26.1228 17.2654 26.1904 17.1159C26.0451 17.1177 25.8425 17.0219 25.8425 16.4689C25.8425 16.4689 26.2114 16.4696 26.3102 16.7895C26.349 16.6558 26.3785 16.5124 26.4003 16.3609C26.253 16.4037 25.8722 16.4343 25.8722 15.6079C25.8722 15.6079 26.3294 15.6088 26.4352 16.0138C26.441 15.9102 26.4433 15.8031 26.4423 15.6927C26.2203 15.5766 25.9139 15.321 25.9457 14.7964C25.9457 14.7964 26.1565 14.8442 26.3498 15.0063C26.3118 14.8075 26.3275 14.5164 26.6325 14.2735C26.6325 14.2735 26.9127 14.7694 26.5034 15.1721C26.539 15.2222 26.57 15.2791 26.5956 15.3424C26.6876 15.2024 26.8351 15.0722 27.0726 14.993C27.0726 14.993 27.1819 15.6572 26.5618 15.9351C26.5471 16.323 26.4864 16.6658 26.3822 16.9638C26.5598 16.8074 26.7035 16.5919 26.7035 16.5919C26.7035 15.8539 27.3085 15.8353 27.3085 15.8353C27.4215 16.6776 26.7986 16.7116 26.7986 16.7116L26.4575 17.0838C27.1955 16.9608 27.1955 17.5758 27.1955 17.5758C26.7035 17.6988 26.4575 17.4528 26.4575 17.4528L26.1915 17.5896C26.6634 17.6034 26.8265 18.0678 26.8265 18.0678C26.2334 18.1667 25.7997 18.0272 25.6522 17.9687C25.0549 18.3864 24.3185 18.3869 23.9786 18.3869V18.264Z" fill="#64B496"/>
<path d="M21.9246 12.902C21.492 13.1793 21.1107 13.5322 20.8035 13.9489C20.9355 14.0463 21.0675 14.1437 21.1995 14.241C21.4707 13.8732 21.8071 13.5618 22.1887 13.317L21.9246 12.902Z" fill="#41479B"/>
<path d="M24.0013 16.1H25.7232V17.084C25.7232 17.3558 25.503 17.576 25.2312 17.576H24.4932C24.2911 17.576 24.1133 17.6748 24.0012 17.8253L24.0013 16.1Z" fill="#FF6B71"/>
<path d="M24.3703 14.993V13.64H26.2153L25.7233 14.132V15.485H24.3703V14.993Z" fill="#5F64B9"/>
<path d="M25.723 15.4844H25.108V16.0994H25.723V15.4844Z" fill="white"/>
<path d="M24.0013 16.1H22.2794V17.084C22.2794 17.3558 22.4996 17.576 22.7714 17.576H23.5094C23.7115 17.576 23.8893 17.6748 24.0014 17.8253L24.0013 16.1Z" fill="#FF6B71"/>
<path d="M23.6938 17.6056C23.8165 17.6448 23.9224 17.7212 23.9985 17.8219H24.0042C24.0803 17.7211 24.1861 17.6449 24.3089 17.6056V16.5919H23.6938L23.6938 17.6056Z" fill="white"/>
<path d="M23.6324 14.993V13.64H21.7874L22.2794 14.132V15.485H23.6324V14.993Z" fill="#5F64B9"/>
<path d="M22.8947 15.4844H22.2797V16.0994H22.8947V15.4844Z" fill="white"/>
<path d="M22.8943 14.255V14.624L23.2633 14.87V14.624L22.8943 14.255Z" fill="#41479B"/>
<path d="M23.2633 14.624V14.993L23.7553 15.239V15.116L23.2633 14.624Z" fill="white"/>
<path d="M25.1083 14.255V14.624L24.7393 14.87V14.624L25.1083 14.255Z" fill="#41479B"/>
<path d="M24.7393 14.624V14.993L24.2473 15.239V15.116L24.7393 14.624Z" fill="white"/>
<path d="M24.7437 16.9609H23.2597C22.9224 16.9609 22.6489 16.6855 22.6489 16.3459V14.4436L24.0106 15.3619L25.3543 14.4436V16.3459C25.3543 16.6856 25.081 16.9609 24.7437 16.9609Z" fill="#FF4B55"/>
<path d="M23.1403 14.747L22.6483 14.378V15.731L23.1403 15.977V14.747Z" fill="#41479B"/>
<path d="M24.8623 14.747L25.3543 14.378V15.731L24.8623 15.977V14.747Z" fill="#41479B"/>
<path d="M24.739 15.9775H23.263V16.5926H24.739V15.9775Z" fill="#41479B"/>
<path d="M23.2633 14.87L24.0012 15.239L24.7392 14.87V15.977H23.2633V14.87Z" fill="#FF4B55"/>
<path d="M24.5549 14.9862V16.223C24.5549 16.3247 24.4721 16.4074 24.3705 16.4074H23.6325C23.5307 16.4074 23.4481 16.3246 23.4481 16.223V14.9913L23.0791 14.7442V16.223C23.0791 16.5281 23.3273 16.7764 23.6325 16.7764H24.3705C24.6756 16.7764 24.9239 16.5281 24.9239 16.223V14.7358L24.5549 14.9862Z" fill="white"/>
<path d="M24.6836 15.8454C24.4764 15.864 24.2432 15.8849 24.0013 15.9691C23.7594 15.8849 23.5261 15.864 23.319 15.8454C22.9723 15.8143 22.7666 15.784 22.6488 15.5748V15.9298C22.8297 16.0474 23.0587 16.069 23.2969 16.0904C23.5108 16.1097 23.7318 16.1294 23.9578 16.215L24.0014 16.2314L24.0449 16.215C24.2708 16.1294 24.4919 16.1098 24.7058 16.0904C24.9442 16.0691 25.1736 16.0478 25.3544 15.93V15.574C25.2366 15.784 25.0307 15.8143 24.6836 15.8454Z" fill="white"/>
<path d="M24.2472 14.6855H24.0628V14.501H23.9398V14.6855H23.7553V14.8085H23.9398V15.362H24.0628V14.8085H24.2472V14.6855Z" fill="#FFE15A"/>
<path d="M22.8564 14.1274L22.7889 14.1949L23.8697 15.2757L23.9372 15.2082L22.8564 14.1274Z" fill="#464655"/>
<path d="M22.6197 13.9582L22.7548 14.2284L22.8899 14.0933L22.6197 13.9582Z" fill="#FFE15A"/>
<path d="M23.1045 13.9523L23.0273 14.0085L23.9274 15.2441L24.0046 15.1879L23.1045 13.9523Z" fill="#464655"/>
<path d="M22.8962 13.7484L22.9878 14.0363L23.1422 13.9238L22.8962 13.7484Z" fill="#FFE15A"/>
<path d="M22.6416 14.353L22.5869 14.4313L23.8401 15.3063L23.8948 15.2281L22.6416 14.353Z" fill="#464655"/>
<path d="M22.3791 14.2289L22.5593 14.4712L22.6687 14.3147L22.3791 14.2289Z" fill="#FFE15A"/>
<path d="M24.0653 15.2075L24.1328 15.275L25.2136 14.1942L25.1461 14.1267L24.0653 15.2075Z" fill="#464655"/>
<path d="M25.3823 13.9582L25.2472 14.2284L25.1121 14.0933L25.3823 13.9582Z" fill="#FFE15A"/>
<path d="M23.9984 15.1868L24.0757 15.243L24.9757 14.0075L24.8984 13.9512L23.9984 15.1868Z" fill="#464655"/>
<path d="M25.1057 13.7484L25.0141 14.0363L24.8598 13.9238L25.1057 13.7484Z" fill="#FFE15A"/>
<path d="M24.1091 15.2294L24.1637 15.3076L25.4169 14.4326L25.3623 14.3543L24.1091 15.2294Z" fill="#464655"/>
<path d="M25.6231 14.2289L25.4428 14.4712L25.3334 14.3147L25.6231 14.2289Z" fill="#FFE15A"/>
<path d="M23.939 17.5409C23.939 17.5409 23.4633 17.03 23.5557 16.5611C23.6298 16.1839 23.8549 15.7681 24.0311 15.667C24.0311 15.667 24.2802 15.6516 24.2177 15.868C24.1553 16.0844 24.0792 16.1401 24.1015 16.3534C24.1398 16.7226 24.1993 17.1601 23.939 17.5409Z" fill="white"/>
<path d="M24.0832 15.6698C24.0534 15.6658 24.0308 15.6671 24.0308 15.6671C23.8547 15.7683 23.6296 16.1841 23.5554 16.5612C23.5134 16.7745 23.5893 16.996 23.6841 17.1746C23.6241 16.4014 23.8498 16.1271 24.0832 15.6698Z" fill="#41479B"/>
<path d="M24.1013 16.3537C24.0791 16.1404 24.1551 16.0846 24.2176 15.8682C24.2613 15.7168 24.1526 15.679 24.0833 15.6699C24.0833 15.6699 23.9245 16.0347 23.9143 16.2795C23.9053 16.4949 23.9604 17.3711 23.939 17.5412C24.1994 17.1601 24.1398 16.7227 24.1013 16.3537Z" fill="#FF4B55"/>
<path d="M23.7785 15.8521C23.8776 15.7555 24.0169 15.7123 24.1534 15.7357C24.0888 15.5275 24.0241 15.3193 23.9594 15.1109C23.8231 15.0876 23.6837 15.1308 23.5845 15.2274C23.6491 15.4357 23.7138 15.6439 23.7785 15.8521Z" fill="#F5F0F0"/>
<path d="M24.1536 15.7358C24.2527 15.6391 24.392 15.5959 24.5285 15.6194C24.4638 15.4111 24.3992 15.2029 24.3345 14.9946C24.1982 14.9713 24.0588 15.0145 23.9596 15.1111C24.0242 15.3193 24.0888 15.5275 24.1536 15.7358Z" fill="white"/>
<path d="M23.4396 13.0332C22.7719 13.0178 22.1124 13.182 21.5299 13.5085C21.4497 13.3654 21.3695 13.2224 21.2892 13.0794C21.9486 12.7097 22.6951 12.5238 23.4509 12.5413C23.4471 12.7053 23.4432 12.8692 23.4396 13.0332Z" fill="#5F64B9"/>
<path d="M26.078 12.902C26.5106 13.1793 26.8919 13.5322 27.1991 13.9489C27.0671 14.0463 26.9351 14.1437 26.8031 14.241C26.532 13.8732 26.1955 13.5618 25.8139 13.317L26.078 12.902Z" fill="#41479B"/>
<path d="M24.5632 13.0332C25.2309 13.0178 25.8903 13.182 26.4729 13.5085C26.5531 13.3654 26.6333 13.2224 26.7136 13.0794C26.0542 12.7097 25.3077 12.5238 24.5519 12.5413C24.5557 12.7053 24.5596 12.8692 24.5632 13.0332Z" fill="#5F64B9"/>
<path d="M24.9852 12.9021C24.3411 12.7259 23.6614 12.7259 23.0173 12.9021C22.9741 12.744 22.9307 12.5858 22.8875 12.4276C23.6166 12.2282 24.3859 12.2282 25.1151 12.4276C25.0719 12.5857 25.0286 12.7439 24.9852 12.9021Z" fill="#41479B"/>
<path d="M22.3529 18.4147C21.822 18.5534 21.303 18.7404 20.8033 18.9758C20.8732 19.1241 20.9432 19.2725 21.013 19.4209C21.4952 19.1936 21.9964 19.0143 22.5093 18.8825L22.3529 18.4147Z" fill="#FF6B71"/>
<path d="M25.6496 18.4147C26.1805 18.5534 26.6995 18.7404 27.1992 18.9758C27.1293 19.1241 27.0593 19.2725 26.9895 19.4209C26.5073 19.1936 26.0061 19.0143 25.4932 18.8825L25.6496 18.4147Z" fill="#FF6B71"/>
<path d="M25.98 18.7952C24.6863 18.4846 23.3377 18.4846 22.0441 18.7952C22.0058 18.6356 21.9675 18.4763 21.9292 18.3169C23.2982 17.9882 24.7258 17.9882 26.0948 18.3169C26.0567 18.4763 26.0183 18.6358 25.98 18.7952Z" fill="#FF4B55"/>
<path d="M24.0014 18.9289L23.6622 19.0138C23.5846 19.0332 23.5094 18.9745 23.5094 18.8945V18.7176C23.5094 18.6376 23.5846 18.5789 23.6622 18.5984L24.0014 18.6832V18.9289Z" fill="#FF4B55"/>
<path d="M24.0014 18.6829L24.3405 18.5981C24.4182 18.5787 24.4934 18.6374 24.4934 18.7173V18.8942C24.4934 18.9742 24.4182 19.033 24.3405 19.0135L24.0014 18.9287V18.6829Z" fill="#FF4B55"/>
<path d="M24.0278 18.929H23.975C23.9217 18.929 23.8784 18.8857 23.8784 18.8323V18.7795C23.8784 18.7262 23.9216 18.6829 23.975 18.6829H24.0278C24.0811 18.6829 24.1245 18.7261 24.1245 18.7795V18.8323C24.1244 18.8857 24.0811 18.929 24.0278 18.929Z" fill="#FF6B71"/>
</g>
<defs>
<clipPath id="clip0_11_1357">
<rect width="48" height="32" fill="white"/>
</clipPath>
</defs>
</svg>
