<svg width="48" height="32" viewBox="0 0 48 32" fill="none" xmlns="http://www.w3.org/2000/svg">
<g clip-path="url(#clip0_11_3298)">
<path d="M23.9999 31.7241H0.827625C0.370594 31.7241 0 31.3535 0 30.8965V1.1035C0 0.646465 0.370594 0.275871 0.827625 0.275871H24V31.7241H23.9999Z" fill="#73AF00"/>
<path d="M23.9999 0.275986H47.1723C47.6293 0.275986 47.9999 0.646579 47.9999 1.10361V30.8966C47.9999 31.3536 47.6293 31.7242 47.1723 31.7242H23.9999V0.275986Z" fill="white"/>
<path d="M27.9943 12.9912L26.5594 14.8682L24.3191 14.1183C24.1938 14.0763 24.0872 14.218 24.1622 14.3267L25.504 16.2713L24.0984 18.1703C24.0197 18.2764 24.1216 18.4216 24.2482 18.3838L26.5123 17.7086L27.884 19.6323C27.9607 19.7399 28.1302 19.6878 28.1334 19.5558L28.1909 17.1939L30.4442 16.4838C30.5702 16.444 30.5731 16.2668 30.4485 16.2229L28.22 15.4383L28.2409 13.0758C28.2422 12.9438 28.0744 12.8863 27.9943 12.9912Z" fill="#FF4B55"/>
<path d="M25.4873 21.6839C22.3506 21.6839 19.8061 19.1394 19.8061 15.9998C19.8061 12.8659 22.3506 10.3157 25.4873 10.3157C26.6543 10.3157 27.7306 10.6747 28.6275 11.2821C28.7648 11.3751 28.9216 11.1947 28.8066 11.0751C27.4661 9.68143 25.5689 8.83131 23.4655 8.90312C19.8517 9.0264 16.86 11.9239 16.6291 15.5325C16.3645 19.6658 19.6374 23.1007 23.7123 23.1007C25.7195 23.1007 27.5234 22.2615 28.8116 20.9199C28.9254 20.8013 28.7683 20.6236 28.6324 20.7158C27.7344 21.3245 26.6564 21.6839 25.4873 21.6839Z" fill="#FF4B55"/>
</g>
<defs>
<clipPath id="clip0_11_3298">
<rect width="48" height="32" fill="white"/>
</clipPath>
</defs>
</svg>
