<svg width="48" height="32" viewBox="0 0 48 32" fill="none" xmlns="http://www.w3.org/2000/svg">
<g clip-path="url(#clip0_11_2490)">
<path d="M47.9999 23.8621H0V30.8965C0 31.3535 0.370593 31.7241 0.827623 31.7241H47.1724C47.6294 31.7241 48 31.3535 48 30.8965L47.9999 23.8621Z" fill="#FF4B55"/>
<path d="M47.9999 16H0V1.10347C0 0.646441 0.370593 0.275848 0.827623 0.275848H47.1724C47.6294 0.275848 48 0.646441 48 1.10347L47.9999 16Z" fill="#FFE15A"/>
<path d="M47.9999 16.0001H0V23.8619H47.9999V16.0001Z" fill="#41479B"/>
<path d="M23.1363 16.4644L29.1813 11.283V18.7818C29.1813 20.0456 28.1567 21.07 26.893 21.07C26.3277 21.07 25.7824 20.8608 25.3622 20.4827L23.1363 18.4794V16.4644Z" fill="#FFE15A"/>
<path d="M26.3249 19.4129L24.5756 17.8385V15.2308L27.742 12.5168V14.4125V18.7819C27.742 19.25 27.3611 19.6309 26.893 19.6309C26.6829 19.6309 26.4811 19.5534 26.3249 19.4129Z" fill="#FF4B55"/>
<path d="M25.4391 14.4907V17.4548L26.8783 18.7543V14.3945V13.2571L27.742 12.5169V14.4126V18.782C27.742 19.2501 27.3611 19.631 26.893 19.631C26.6829 19.631 26.4811 19.5537 26.3249 19.413L24.5756 17.8386V15.2309L25.4391 14.4907Z" fill="#41479B"/>
<path d="M24.8636 16.4644L18.8186 11.283V18.7818C18.8186 20.0456 19.8432 21.07 21.1069 21.07C21.6722 21.07 22.2175 20.8608 22.6377 20.4827L24.8636 18.4794V16.4644Z" fill="#FFE15A"/>
<path d="M21.6749 19.4129L23.4242 17.8385V15.2308L20.2578 12.5168V14.4125V18.7819C20.2578 19.25 20.6387 19.6309 21.1068 19.6309C21.3169 19.6309 21.5187 19.5534 21.6749 19.4129Z" fill="#FF4B55"/>
<path d="M22.5607 14.4907V17.4548L21.1215 18.7543V14.3945V13.2571L20.2578 12.5169V14.4126V18.782C20.2578 19.2501 20.6387 19.631 21.1068 19.631C21.3169 19.631 21.5187 19.5537 21.6749 19.413L23.4242 17.8386V15.2309L22.5607 14.4907Z" fill="#41479B"/>
<path d="M29.3866 11.3088H28.9728V13.7884H29.3866V11.3088Z" fill="#41479B"/>
<path d="M19.0243 11.3088H18.6105V13.7884H19.0243V11.3088Z" fill="#41479B"/>
<path d="M23.1364 10.1317C23.1364 10.1317 23.7121 7.397 21.6972 7.75681C19.6822 8.11662 19.6822 8.69225 17.3793 9.84378C17.3793 9.84378 19.97 10.4195 21.1215 10.1317C21.1215 10.1317 21.9851 11.283 22.8486 11.5709H23.7122L23.1364 10.1317Z" fill="#5A4646"/>
<path d="M24.8637 10.1317C24.8637 10.1317 24.288 7.397 26.303 7.75681C28.318 8.11662 28.318 8.69225 30.6208 9.84378C30.6208 9.84378 28.0301 10.4195 26.8787 10.1317C26.8787 10.1317 26.0151 11.283 25.1516 11.5709H24.2879L24.8637 10.1317Z" fill="#5A4646"/>
<path d="M24.8635 11.5709H23.1364V10.121C23.1364 9.64991 23.5182 9.26807 23.9893 9.26807H24.0106C24.4817 9.26807 24.8635 9.64991 24.8635 10.121V11.5709Z" fill="#5A4646"/>
<path d="M24.0001 10.707C24.318 10.707 24.5758 10.4493 24.5758 10.1313C24.5758 9.81333 24.318 9.55557 24.0001 9.55557C23.6821 9.55557 23.4243 9.81333 23.4243 10.1313C23.4243 10.4493 23.6821 10.707 24.0001 10.707Z" fill="#E6E1CD"/>
<path d="M22.7644 9.75988L23.8468 10.3379C23.9377 10.3865 24.0495 10.3698 24.1222 10.297C24.2135 10.2057 24.2135 10.0577 24.1222 9.96632L23.4239 9.26807H23.256C22.9845 9.26807 22.7644 9.48819 22.7644 9.75988Z" fill="#FFD0AF"/>
<path d="M23.1399 9.84381H22.2728L22.6522 9.39962C22.7235 9.31628 22.8276 9.26819 22.9374 9.26819H23.4241V9.55956C23.4241 9.7165 23.2968 9.84381 23.1399 9.84381Z" fill="#FFAF94"/>
<path d="M26.4551 11.5717C26.2608 11.3412 26.2194 11.0357 26.3141 10.771C26.591 10.7226 26.8851 10.8151 27.0793 11.0457C27.2452 11.2427 27.2933 11.4931 27.2465 11.7275C27.3041 11.8252 27.3744 11.9508 27.4517 12.0991C27.4556 12.078 27.4547 12.0571 27.4607 12.036C27.5286 11.7973 27.7179 11.6284 27.9422 11.5712C28.1027 11.7379 28.1749 11.9812 28.1071 12.2198C28.0487 12.4251 27.8982 12.5739 27.7152 12.6492C27.7875 12.8151 27.859 12.9939 27.9258 13.1827C27.9297 13.1716 27.93 13.1603 27.9345 13.1494C28.0282 12.9196 28.235 12.7726 28.4642 12.7404C28.6053 12.9237 28.6503 13.1735 28.5567 13.4033C28.4747 13.6043 28.3045 13.7368 28.1101 13.7896C28.2102 14.1846 28.2765 14.6036 28.2765 15.0255H27.9886C27.9886 14.6578 27.9321 14.2896 27.8469 13.9373C27.6693 13.9946 27.4708 13.9823 27.2989 13.8772C27.0893 13.7487 26.9787 13.523 26.9838 13.2938C27.1858 13.185 27.4371 13.181 27.6468 13.3095C27.6543 13.3141 27.6594 13.3208 27.6667 13.3257C27.605 13.1485 27.5394 12.9804 27.472 12.8228C27.2992 12.9044 27.0959 12.917 26.9093 12.8294C26.6868 12.7248 26.552 12.5126 26.5319 12.2843C26.7199 12.1543 26.9685 12.1229 27.1903 12.2261C27.1111 12.0738 27.0395 11.9462 26.9835 11.8509C26.7852 11.8281 26.5942 11.7368 26.4551 11.5717Z" fill="#8CB400"/>
<path d="M21.5451 11.5717C21.7394 11.3412 21.7808 11.0357 21.6861 10.771C21.4092 10.7226 21.1151 10.8151 20.9209 11.0457C20.755 11.2427 20.7069 11.4931 20.7537 11.7275C20.6961 11.8252 20.6258 11.9508 20.5485 12.0991C20.5446 12.078 20.5455 12.0571 20.5395 12.036C20.4716 11.7973 20.2823 11.6284 20.0581 11.5712C19.8975 11.7379 19.8253 11.9812 19.8932 12.2198C19.9515 12.4251 20.102 12.5739 20.285 12.6492C20.2128 12.8151 20.1412 12.9939 20.0744 13.1827C20.0705 13.1716 20.0703 13.1603 20.0658 13.1494C19.972 12.9196 19.7652 12.7726 19.5361 12.7404C19.3949 12.9237 19.3499 13.1735 19.4436 13.4033C19.5257 13.6043 19.6958 13.7368 19.8903 13.7896C19.7901 14.1846 19.7239 14.6036 19.7239 15.0255H20.0118C20.0118 14.6578 20.0682 14.2896 20.1534 13.9373C20.3311 13.9946 20.5295 13.9823 20.7014 13.8772C20.9111 13.7487 21.0216 13.523 21.0165 13.2938C20.8145 13.185 20.5632 13.181 20.3536 13.3095C20.346 13.3141 20.3409 13.3208 20.3336 13.3257C20.3953 13.1485 20.4609 12.9804 20.5283 12.8228C20.7011 12.9044 20.9044 12.917 21.091 12.8294C21.3136 12.7248 21.4483 12.5126 21.4684 12.2843C21.2804 12.1543 21.0319 12.1229 20.81 12.2261C20.8893 12.0738 20.9608 11.9462 21.0169 11.8509C21.215 11.8281 21.406 11.7368 21.5451 11.5717Z" fill="#8CB400"/>
<path d="M24 17.9037L17.955 12.7224V20.2211C17.955 21.485 18.9795 22.5094 20.2432 22.5094C20.8085 22.5094 21.3539 22.3001 21.7741 21.922L24 19.9188V17.9037Z" fill="#FFE15A"/>
<path d="M20.8112 20.8522L22.5605 19.2777V16.6701L19.3941 13.956V15.8517V20.2211C19.3941 20.6892 19.775 21.0701 20.2431 21.0701C20.4533 21.0701 20.655 20.9928 20.8112 20.8522Z" fill="#FF4B55"/>
<path d="M21.697 15.93V18.894L20.2578 20.1936V15.8338V14.6964L19.3941 13.9561V15.8519V20.2213C19.3941 20.6894 19.775 21.0703 20.2431 21.0703C20.4532 21.0703 20.655 20.9929 20.8112 20.8523L22.5605 19.2779V16.6702L21.697 15.93Z" fill="#41479B"/>
<path d="M23.9999 17.9037L30.0449 12.7224V20.2211C30.0449 21.485 29.0203 22.5094 27.7567 22.5094C27.1914 22.5094 26.646 22.3001 26.2258 21.922L23.9999 19.9188V17.9037Z" fill="#FFE15A"/>
<path d="M27.1886 20.8522L25.4393 19.2777V16.6701L28.6057 13.956V15.8517V20.2211C28.6057 20.6892 28.2248 21.0701 27.7567 21.0701C27.5464 21.0701 27.3448 20.9928 27.1886 20.8522Z" fill="#FF4B55"/>
<path d="M26.3028 15.93V18.894L27.742 20.1936V15.8338V14.6964L28.6057 13.9561V15.8519V20.2213C28.6057 20.6894 28.2248 21.0703 27.7567 21.0703C27.5466 21.0703 27.3448 20.9929 27.1886 20.8523L25.4393 19.2779V16.6702L26.3028 15.93Z" fill="#41479B"/>
<path d="M24 20.2066C25.5898 20.2066 26.8786 18.2734 26.8786 15.8885C26.8786 13.5037 25.5898 11.5704 24 11.5704C22.4102 11.5704 21.1214 13.5037 21.1214 15.8885C21.1214 18.2734 22.4102 20.2066 24 20.2066Z" fill="#69C3FF"/>
<path d="M21.4091 17.0402H26.5905L26.8784 15.8888L25.5665 16.1075C25.3034 16.1514 25.0342 16.0764 24.8316 15.9028L23.3425 14.6264C23.2095 14.5123 23.0399 14.4496 22.8646 14.4496C22.6699 14.4496 22.4831 14.5269 22.3455 14.6646L21.4091 15.601V17.0402Z" fill="#009B64"/>
<path d="M23.7271 15.6954L24.2215 15.3794L23.3427 14.6262C23.2097 14.5122 23.0401 14.4494 22.8649 14.4494C22.6702 14.4494 22.4833 14.5268 22.3457 14.6645L21.4093 15.6009V15.8888L22.8486 15.6009L23.103 15.7281C23.3025 15.8278 23.5394 15.8153 23.7271 15.6954Z" fill="white"/>
<path d="M21.4091 17.0402L21.6969 18.7673L23.1361 20.2066H23.9998L25.1511 19.9188L26.3026 18.7673L26.5905 17.0402H21.4091Z" fill="#5AA0E6"/>
<path d="M23.9999 20.4944C22.2539 20.4944 20.8335 18.4283 20.8335 15.8887C20.8335 13.3491 22.2539 11.2829 23.9999 11.2829C25.7459 11.2829 27.1663 13.3491 27.1663 15.8887C27.1663 18.4283 25.7459 20.4944 23.9999 20.4944ZM23.9999 11.8588C22.5715 11.8588 21.4092 13.6667 21.4092 15.8889C21.4092 18.111 22.5714 19.9189 23.9999 19.9189C25.4283 19.9189 26.5905 18.111 26.5905 15.8889C26.5905 13.6667 25.4282 11.8588 23.9999 11.8588Z" fill="#FFC88C"/>
<path d="M21.9691 20.1808C21.7278 19.8476 21.3685 19.6309 20.9617 19.6309C20.5548 19.6309 20.1955 19.8476 19.9542 20.1808C20.3658 20.2949 20.7025 20.629 20.862 21.0694C20.9262 21.2468 20.9618 21.4414 20.9618 21.646C20.9617 20.9339 21.3919 20.3408 21.9691 20.1808Z" fill="#E1E1E1"/>
<path d="M21.1903 21.0889C21.1903 21.0889 21.1678 21.4727 20.971 21.6526L20.9627 21.6459C20.7659 21.466 20.7434 21.0822 20.7434 21.0822L21.1903 21.0889Z" fill="#E1E1E1"/>
<path d="M27.6 21.214H20.4C20.3214 21.214 20.2578 21.1504 20.2578 21.0719V21.0683C20.2578 20.9898 20.3215 20.9262 20.4 20.9262H27.6C27.6785 20.9262 27.7421 20.9899 27.7421 21.0683V21.0719C27.7421 21.1504 27.6785 21.214 27.6 21.214Z" fill="#966446"/>
<path d="M25.4465 21.6459H22.5537C22.2396 21.6459 21.985 21.3912 21.985 21.0772V21.063C21.985 20.7489 22.2396 20.4943 22.5537 20.4943H25.4465C25.7605 20.4943 26.0151 20.7489 26.0151 21.063V21.0772C26.0151 21.3912 25.7604 21.6459 25.4465 21.6459Z" fill="#BE915A"/>
<path d="M21.4093 20.9262H20.4019C20.3225 20.9262 20.258 20.9906 20.258 21.0701C20.258 21.1496 20.3224 21.214 20.4019 21.214H21.4093V20.9262Z" fill="#B9B9B9"/>
<path d="M24.0002 21.6458V24.2759L22.8488 23.9487L23.4245 21.6458H24.0002Z" fill="#FF4B55"/>
<path d="M23.7122 21.6458L23.1365 23.6609L21.9851 23.373L22.8488 21.6458H23.7122Z" fill="#41479B"/>
<path d="M22.5607 21.6458L21.6971 22.7972L22.5607 23.0851L23.1363 21.6458H22.5607Z" fill="#FFE15A"/>
<path d="M23.9999 21.6458V24.2759L25.1513 23.9487L24.5757 21.6458H23.9999Z" fill="#FF4B55"/>
<path d="M24.2881 21.6458L24.8638 23.6609L26.0151 23.373L25.1515 21.6458H24.2881Z" fill="#41479B"/>
<path d="M25.4393 21.6458L26.3029 22.7972L25.4393 23.0851L24.8636 21.6458H25.4393Z" fill="#FFE15A"/>
<path d="M18.162 15.2015L17.7482 14.7845V12.7221H18.162V15.2015Z" fill="#41479B"/>
<path d="M30.248 14.7845L29.8342 15.2015V12.7221H30.248V14.7845Z" fill="#41479B"/>
</g>
<defs>
<clipPath id="clip0_11_2490">
<rect width="48" height="32" fill="white"/>
</clipPath>
</defs>
</svg>
