<svg width="48" height="32" viewBox="0 0 48 32" fill="none" xmlns="http://www.w3.org/2000/svg">
<g clip-path="url(#clip0_11_3558)">
<path d="M47.9999 10.7588H0V1.10359C0 0.646563 0.370593 0.27597 0.827623 0.27597H47.1724C47.6294 0.27597 48 0.646563 48 1.10359L47.9999 10.7588Z" fill="#FF4B55"/>
<path d="M47.1723 31.7242H0.827623C0.370593 31.7242 0 31.3536 0 30.8966V21.2415H47.9999V30.8966C47.9999 31.3537 47.6293 31.7242 47.1723 31.7242Z" fill="#464655"/>
<path d="M47.9999 10.7584H0V21.2406H47.9999V10.7584Z" fill="white"/>
<path d="M26.6424 14.366C26.6424 13.9556 26.2403 13.6658 25.851 13.7956L25.1194 14.0394L24.9418 12.9666C24.8355 12.3266 24.2871 11.8622 23.6381 11.8622H22.9538L22.2381 12.7431H23.1858L22.9206 14.0529L22.1488 13.7957C21.7594 13.6658 21.3574 13.9557 21.3574 14.3661V18.8168L22.4227 17.7516L21.9208 19.2573H21.3575V20.1381H26.6425V19.2573H26.0792L25.5773 17.7516L26.6426 18.8168V14.366H26.6424ZM23.5596 19.2571H22.8496L23.3378 17.9531L23.5596 18.2363V19.2571ZM24.4403 19.2571V18.2363L24.6621 17.9531L25.1504 19.2571H24.4403ZM24 17.6606C24 17.6606 22.6374 16.7385 22.6925 15.0182C22.6925 15.0182 23.5321 14.8806 24 14.1373C24.4679 14.8805 25.3075 15.0182 25.3075 15.0182C25.3625 16.7386 24 17.6606 24 17.6606Z" fill="#F0C727"/>
</g>
<defs>
<clipPath id="clip0_11_3558">
<rect width="48" height="32" fill="white"/>
</clipPath>
</defs>
</svg>
