<svg width="48" height="32" viewBox="0 0 48 32" fill="none" xmlns="http://www.w3.org/2000/svg">
<g clip-path="url(#clip0_11_1634)">
<path d="M47.9999 15.9999H0V1.10338C0 0.646349 0.370593 0.275757 0.827623 0.275757H47.1724C47.6294 0.275757 48 0.646349 48 1.10338L47.9999 15.9999Z" fill="#73AF00"/>
<path d="M0 15.9999H47.9999V30.8965C47.9999 31.3535 47.6293 31.7241 47.1723 31.7241H0.827623C0.370593 31.7241 0 31.3535 0 30.8965V15.9999Z" fill="#4173CD"/>
<path d="M0 1.10335V30.8964C0 31.1956 0.16725 31.446 0.405093 31.5913L47.9999 15.9999L0.405093 0.408569C0.167156 0.553882 0 0.804099 0 1.10335Z" fill="#FF4B55"/>
<path d="M17.7009 20.724C17.7009 20.724 20.0317 19.874 20.6898 17.3238C20.6898 17.3238 19.6751 18.6401 18.9622 19.024C18.9622 19.024 20.5252 16.9399 20.1961 14.9108C20.1961 14.9108 20.0041 15.7335 19.6202 16.0625C19.6202 16.0625 20.3058 13.1284 19.4282 11.8945C19.4282 11.8945 19.4556 12.9365 19.0718 13.9786C19.0718 13.9786 19.218 10.6787 17.719 9.8379C17.719 9.8379 18.304 10.8799 18.0571 11.7573C18.0571 11.7573 17.6458 9.89265 15.7354 9.15231C15.7354 9.15231 15.6165 9.28937 15.644 9.70075C15.644 9.70075 15.123 9.07 13.8342 9.09747C13.8342 9.09747 13.8615 9.56359 14.1906 10.0023C14.1906 10.0023 13.6696 10.2766 13.3406 10.1943C13.3406 10.1943 13.8615 10.7702 15.6987 10.7153C15.6987 10.7153 15.4519 10.9347 14.9584 10.9895C14.9584 10.9895 15.709 11.3342 16.4483 11.4008C17.4629 11.4921 17.8651 12.0864 18.057 12.8267C18.057 12.8267 17.2618 12.3606 16.9601 11.8944C16.9601 11.8944 16.9053 12.6896 18.4135 14.2252L17.6456 13.8962C17.6456 13.8962 18.1392 15.3221 18.7425 16.9399L18.1118 16.2543C18.1118 16.2543 17.9747 17.4061 17.8649 19.545L17.4262 18.5303C17.4262 18.5303 16.6584 21.0531 15.4793 21.4644C14.5562 21.7864 13.5353 22.0068 13.1341 22.0877C13.0965 20.6763 13.6969 20.3675 13.6969 20.3675C14.7663 20.4224 15.0132 19.2433 15.0132 19.2433C14.7938 19.4626 14.3824 19.4626 14.3824 19.4626C15.0131 18.8045 15.0132 17.8723 15.0132 17.8723C14.6292 18.6126 14.026 18.7223 14.026 18.7223L14.0808 17.982C12.9655 18.7931 13.0451 19.743 13.0635 19.8823C13.0384 19.7047 12.8397 18.3154 12.7372 17.982C12.6275 17.6255 12.8742 16.9126 13.2582 17.0221C14.5008 17.3772 14.7938 16.4738 14.7938 16.4738C14.1357 16.7755 13.7517 16.556 13.7517 16.556C14.6018 15.7334 14.2453 14.9656 14.2453 14.9656C13.9711 15.7608 13.2033 15.898 13.2033 15.898L13.1759 15.0206C12.8195 15.2126 12.4903 16.0626 12.4903 16.0626C12.4903 16.0626 12.4081 15.377 12.6548 14.7737C12.9016 14.1705 13.5322 14.4721 13.5322 14.4721C14.6564 14.6914 15.013 13.622 15.013 13.622L14.2726 13.7317C15.0953 13.1284 14.8485 12.388 14.8485 12.388C14.6565 12.8541 13.9711 12.9364 13.9711 12.9364L14.3002 12.059C13.5872 12.059 13.1759 12.9914 13.1759 12.9914L13.1211 12.0865C13.4502 10.9074 12.6823 10.3863 12.6823 10.3863C12.5179 10.6057 12.6001 11.0719 12.6001 11.0719C11.9145 10.4687 11.3936 11.1816 11.3936 11.1816C11.9145 11.7301 12.4082 11.6752 12.4082 11.6752C12.2438 11.7849 11.6404 11.8397 11.6404 11.8397C12.326 12.4156 12.7098 12.3058 12.7098 12.3058C13.0389 13.7043 12.1614 14.335 12.1614 14.335C11.9969 13.293 11.3662 12.7994 11.3662 12.7994L11.3936 13.485C10.9823 13.2381 10.6532 12.4978 10.6532 12.4978C10.379 13.5398 11.1193 14.4447 11.1193 14.4447L10.4338 14.3898C11.037 15.7884 11.9967 15.3496 11.9967 15.3496C11.9145 16.3368 12.2436 17.9547 12.2436 17.9547C12.1065 17.7902 10.6532 16.4191 10.6532 16.4191C10.5984 16.9674 11.1193 17.6804 11.1193 17.6804C10.8451 17.6255 10.0499 17.0222 10.0499 17.0222C10.1322 17.8996 11.2839 18.4756 11.2839 18.4756C10.8451 18.5304 9.995 18.0368 9.995 18.0368C10.4886 20.1482 12.2983 19.2159 12.2983 19.2159L12.4372 22.0719C12.0549 21.9801 11.2189 21.767 10.3514 21.4645C9.17235 21.0532 8.40454 18.5304 8.40454 18.5304L7.96579 19.5451C7.8561 17.4061 7.71895 16.2544 7.71895 16.2544L7.0882 16.94C7.69148 15.3222 8.18507 13.8962 8.18507 13.8962L7.41726 14.2253C8.92597 12.6895 8.87104 11.8943 8.87104 11.8943C8.56935 12.3604 7.77416 12.8267 7.77416 12.8267C7.96616 12.0863 8.56935 11.3185 9.30979 11.2637C10.0502 11.2088 10.8728 10.9894 10.8728 10.9894C10.3792 10.9346 10.1324 10.7152 10.1324 10.7152C12.2713 10.5232 12.4906 9.9474 12.4906 9.9474C12.1616 10.0296 11.1469 9.92003 11.1469 9.92003C11.9969 9.4539 13.3955 9.01516 13.3955 9.01516C11.6679 8.71347 10.1872 9.70075 10.1872 9.70075C10.434 9.23462 10.8728 8.71356 10.8728 8.71356C8.76135 9.6459 7.77407 11.7573 7.77407 11.7573C7.52723 10.8799 8.11223 9.83781 8.11223 9.83781C6.61317 10.6787 6.75942 13.9785 6.75942 13.9785C6.37551 12.9364 6.40298 11.8944 6.40298 11.8944C5.52557 13.1283 6.21098 16.0624 6.21098 16.0624C5.82707 15.7334 5.63507 14.9107 5.63507 14.9107C5.30601 16.9399 6.86901 19.0239 6.86901 19.0239C6.15604 18.64 5.14139 17.3237 5.14139 17.3237C5.79951 19.8739 8.13032 20.724 8.13032 20.724C6.84145 20.2304 6.2931 20.6417 6.2931 20.6417C7.19798 20.8337 8.07548 21.3821 8.78844 21.903C9.50141 22.424 10.4612 22.5338 11.3113 22.6434C11.6624 22.6887 11.9534 22.7477 12.1788 22.8017C11.7142 23.0291 11.3936 23.505 11.3936 24.0571H14.1906C14.1906 23.5259 13.8943 23.0638 13.4579 22.827C13.7388 22.767 14.113 22.6958 14.5197 22.6433C15.3697 22.5336 16.2578 22.308 17.0425 21.903C17.8925 21.4642 18.6328 20.8335 19.5378 20.6416C19.5381 20.6418 18.9895 20.2306 17.7009 20.724Z" fill="#FFE15A"/>
</g>
<defs>
<clipPath id="clip0_11_1634">
<rect width="48" height="32" fill="white"/>
</clipPath>
</defs>
</svg>
