<svg width="48" height="32" viewBox="0 0 48 32" fill="none" xmlns="http://www.w3.org/2000/svg">
<g clip-path="url(#clip0_11_2844)">
<path d="M0.827623 31.7243H47.1724C47.6294 31.7243 48 31.3537 48 30.8966V1.10359C48 0.646563 47.6294 0.27597 47.1724 0.27597H0.827623C0.370593 0.276064 0 0.646563 0 1.10359V30.8966C0 31.3538 0.370593 31.7243 0.827623 31.7243Z" fill="#C8414B"/>
<path d="M47.9999 6.89705H0V25.1042H47.9999V6.89705Z" fill="#FFD250"/>
<path d="M20.2758 16.0002L20.9775 12.8426C21.0422 12.5518 20.8209 12.2759 20.5229 12.2759H20.0287C19.7308 12.2759 19.5096 12.5518 19.5741 12.8426L20.2758 16.0002Z" fill="#C8414B"/>
<path d="M21.1036 14.3444H19.4484V21.3784H21.1036V14.3444Z" fill="white"/>
<path d="M21.5168 13.5176H19.034V14.3452H21.5168V13.5176Z" fill="#FAB446"/>
<path d="M21.5176 16.0001H17.3795V16.8277H21.5176V16.0001Z" fill="#C8414B"/>
<path d="M21.5172 19.3106L19.0345 18.483V17.6554L21.5172 18.483V19.3106Z" fill="#C8414B"/>
<path d="M7.86207 16.0002L8.56379 12.8426C8.62847 12.5518 8.40713 12.2759 8.10919 12.2759H7.61494C7.3171 12.2759 7.09585 12.5518 7.16035 12.8426L7.86207 16.0002Z" fill="#C8414B"/>
<path d="M10.7587 13.5172C10.3017 13.5172 9.93109 13.8878 9.93109 14.3448V19.7241C9.93109 20.7296 10.8695 22.6207 14.069 22.6207C17.2685 22.6207 18.207 20.7297 18.207 19.7241V14.3448C18.207 13.8878 17.8364 13.5172 17.3793 13.5172H10.7587Z" fill="white"/>
<path d="M14.069 17.6551H9.93109V14.3448C9.93109 13.8878 10.3017 13.5172 10.7587 13.5172H14.069V17.6551Z" fill="#C8414B"/>
<path d="M14.0691 17.6552H18.207V19.7242C18.207 20.8669 17.2808 21.7931 16.138 21.7931C14.9953 21.7931 14.0691 20.8669 14.0691 19.7242V17.6552Z" fill="#C8414B"/>
<path d="M9.93109 17.6552H14.069V19.7242C14.069 20.8669 13.1428 21.7931 12.0001 21.7931C10.8573 21.7931 9.93109 20.8669 9.93109 19.7242V17.6552Z" fill="#FAB446"/>
<path d="M13.2412 21.37V17.6552H12.4136V21.7514C12.7215 21.689 12.9997 21.5527 13.2412 21.37Z" fill="#C8414B"/>
<path d="M11.5861 21.7514V17.6552H10.7585V21.37C11.0002 21.5527 11.2783 21.689 11.5861 21.7514Z" fill="#C8414B"/>
<path d="M13.2415 16.0001H10.7587V16.8277H13.2415V16.0001Z" fill="#FFB441"/>
<path d="M13.2415 14.3444H10.7587V15.172H13.2415V14.3444Z" fill="#FAB446"/>
<path d="M12.8274 14.8366H11.1722V16.3358H12.8274V14.8366Z" fill="#FAB446"/>
<path d="M8.68918 14.3444H7.03403V21.3784H8.68918V14.3444Z" fill="white"/>
<path d="M9.10329 20.966H6.62051V21.7937H9.10329V20.966Z" fill="#FAB446"/>
<path d="M9.10329 13.5176H6.62051V14.3452H9.10329V13.5176Z" fill="#FAB446"/>
<path d="M9.51752 21.7928H6.20721V22.6204H9.51752V21.7928Z" fill="#5064AA"/>
<path d="M21.9312 20.966H19.4484V21.7937H21.9312V20.966Z" fill="#FAB446"/>
<path d="M21.9308 21.7928H18.6205V22.6204H21.9308V21.7928Z" fill="#5064AA"/>
<path d="M16.552 12.6898H11.5865V13.5174H16.552V12.6898Z" fill="#FAB446"/>
<path d="M14.4833 10.2073H13.6557V12.6901H14.4833V10.2073Z" fill="#FFB441"/>
<path d="M13.2413 11.4483C12.5567 11.4483 12 10.8914 12 10.2069C12 9.52236 12.5568 8.96558 13.2413 8.96558C13.9259 8.96558 14.4827 9.52246 14.4827 10.2069C14.4827 10.8914 13.9259 11.4483 13.2413 11.4483ZM13.2413 9.79311C13.013 9.79311 12.8275 9.97855 12.8275 10.2069C12.8275 10.4352 13.0129 10.6207 13.2413 10.6207C13.4697 10.6207 13.6551 10.4353 13.6551 10.2069C13.6551 9.97864 13.4697 9.79311 13.2413 9.79311Z" fill="white"/>
<path d="M14.8966 11.4483C14.212 11.4483 13.6552 10.8914 13.6552 10.2069C13.6552 9.52236 14.2121 8.96558 14.8966 8.96558C15.5811 8.96558 16.1379 9.52246 16.1379 10.2069C16.1379 10.8914 15.581 11.4483 14.8966 11.4483ZM14.8966 9.79311C14.6683 9.79311 14.4828 9.97855 14.4828 10.2069C14.4828 10.4352 14.6682 10.6207 14.8966 10.6207C15.1248 10.6207 15.3104 10.4353 15.3104 10.2069C15.3103 9.97864 15.1248 9.79311 14.8966 9.79311Z" fill="white"/>
<path d="M16.5517 12.276C15.8671 12.276 15.3103 11.7191 15.3103 11.0347C15.3103 10.3501 15.8672 9.79332 16.5517 9.79332C17.2363 9.79332 17.793 10.3502 17.793 11.0347C17.793 11.7191 17.2362 12.276 16.5517 12.276ZM16.5517 10.6208C16.3234 10.6208 16.1379 10.8063 16.1379 11.0347C16.1379 11.2629 16.3233 11.4485 16.5517 11.4485C16.78 11.4485 16.9655 11.263 16.9655 11.0347C16.9655 10.8063 16.78 10.6208 16.5517 10.6208Z" fill="white"/>
<path d="M11.5862 12.276C10.9016 12.276 10.3448 11.7191 10.3448 11.0347C10.3448 10.3501 10.9017 9.79332 11.5862 9.79332C12.2708 9.79332 12.8275 10.3502 12.8275 11.0347C12.8276 11.7191 12.2708 12.276 11.5862 12.276ZM11.5862 10.6208C11.3579 10.6208 11.1724 10.8063 11.1724 11.0347C11.1724 11.2629 11.3578 11.4485 11.5862 11.4485C11.8146 11.4485 12 11.2629 12 11.0346C12 10.8063 11.8146 10.6208 11.5862 10.6208Z" fill="white"/>
<path d="M16.5517 19.3105V19.7243C16.5517 19.9525 16.3661 20.1381 16.1379 20.1381C15.9097 20.1381 15.7241 19.9525 15.7241 19.7243V19.3105H16.5517ZM17.3792 18.4829H14.8965V19.7243C14.8965 20.4088 15.4533 20.9656 16.1378 20.9656C16.8224 20.9656 17.3792 20.4087 17.3792 19.7243V18.4829H17.3792Z" fill="#FAB446"/>
<path d="M16.1378 16.8277C15.6808 16.8277 15.3102 16.4571 15.3102 16.0001V15.1725C15.3102 14.7154 15.6808 14.3448 16.1378 14.3448C16.5949 14.3448 16.9655 14.7154 16.9655 15.1725V16.0001C16.9655 16.4571 16.5949 16.8277 16.1378 16.8277Z" fill="#FFA0D2"/>
<path d="M14.0689 18.8962C14.7545 18.8962 15.3103 18.3404 15.3103 17.6548C15.3103 16.9692 14.7545 16.4135 14.0689 16.4135C13.3834 16.4135 12.8276 16.9692 12.8276 17.6548C12.8276 18.3404 13.3834 18.8962 14.0689 18.8962Z" fill="#5064AA"/>
<path d="M14.4833 8.5516H13.6557V11.0344H14.4833V8.5516Z" fill="#FAB446"/>
<path d="M11.5861 12.6897L10.7585 11.8621L11.2433 11.3773C11.9926 10.628 13.0091 10.207 14.0689 10.207C15.1287 10.207 16.1451 10.628 16.8945 11.3773L17.3793 11.8621L16.5517 12.6897H11.5861Z" fill="#C8414B"/>
<path d="M14.069 12.2757C14.2976 12.2757 14.4828 12.0905 14.4828 11.8619C14.4828 11.6334 14.2976 11.4481 14.069 11.4481C13.8405 11.4481 13.6552 11.6334 13.6552 11.8619C13.6552 12.0905 13.8405 12.2757 14.069 12.2757Z" fill="#FFD250"/>
<path d="M12.4133 12.2757C12.6419 12.2757 12.8271 12.0905 12.8271 11.8619C12.8271 11.6334 12.6419 11.4481 12.4133 11.4481C12.1848 11.4481 11.9995 11.6334 11.9995 11.8619C11.9995 12.0905 12.1848 12.2757 12.4133 12.2757Z" fill="#FFD250"/>
<path d="M15.7236 12.2757C15.9521 12.2757 16.1374 12.0905 16.1374 11.8619C16.1374 11.6334 15.9521 11.4481 15.7236 11.4481C15.495 11.4481 15.3098 11.6334 15.3098 11.8619C15.3098 12.0905 15.495 12.2757 15.7236 12.2757Z" fill="#FFD250"/>
<path d="M10.7586 16.0001H6.62051V16.8277H10.7586V16.0001Z" fill="#C8414B"/>
<path d="M6.62064 19.3104L9.10332 18.4828V17.6552L6.62064 18.4828V19.3104Z" fill="#C8414B"/>
</g>
<defs>
<clipPath id="clip0_11_2844">
<rect width="48" height="32" fill="white"/>
</clipPath>
</defs>
</svg>
