<svg width="48" height="32" viewBox="0 0 48 32" fill="none" xmlns="http://www.w3.org/2000/svg">
<g clip-path="url(#clip0_11_5032)">
<path d="M47.9999 10.7583H0V1.10314C0 0.646105 0.370593 0.275513 0.827623 0.275513H47.1724C47.6294 0.275513 48 0.646105 48 1.10314L47.9999 10.7583Z" fill="#73AF00"/>
<path d="M47.1723 31.724H0.827623C0.370593 31.724 0 31.3534 0 30.8964V21.2413H47.9999V30.8964C47.9999 31.3535 47.6293 31.724 47.1723 31.724Z" fill="#FF4B55"/>
<path d="M47.9999 10.7587H0V21.2408H47.9999V10.7587Z" fill="#FFE15A"/>
<path d="M33.9321 16.009C33.9321 21.4864 29.4851 25.9413 23.9998 25.9413C18.5145 25.9413 14.0675 21.4864 14.0675 16.009C14.0675 10.5158 18.5145 6.06879 23.9998 6.06879C29.4851 6.06879 33.9321 10.5158 33.9321 16.009Z" fill="#4173CD"/>
<path d="M16.4457 13.5121H22.2165L23.5224 9.49332L23.8692 10.5713L21.9728 16.4134L21.4078 16.0013L21.9986 14.1861H17.3574L16.4457 13.5121ZM19.329 22.3982L21.1126 16.9129L17.6943 14.4237H18.8218L23.79 18.0306L23.2253 18.4427L21.6776 17.317L20.2408 21.7403L19.329 22.3982ZM28.6708 22.3982L24 19.0057L20.5836 21.4867L20.9324 20.4246L25.8967 16.8098L26.1087 17.4756L24.5649 18.5933L28.3202 21.3282L28.6708 22.3982ZM31.5542 13.5121L26.8872 16.9128L28.1933 20.9318L27.2817 20.2658L25.3871 14.4236H26.0807L26.6712 16.2469L30.4286 13.512H31.5541V13.5121H31.5542ZM24 8.02679L25.7836 13.5121H30.0106L29.097 14.1861H22.9576L23.1737 13.5121H25.0879L23.6512 9.09686L24 8.02679Z" fill="#F2DD30"/>
<path d="M24.1662 23.9523H23.8353V19.6481H24.1662V23.9523ZM31.5046 18.6094L27.4123 17.2857L27.5155 16.9766L31.6097 18.3003L31.5046 18.6094ZM16.4931 18.6094L16.39 18.3003L20.4861 16.9766L20.5874 17.2857L16.4931 18.6094ZM26.2769 13.1557L26.0072 12.9656L28.538 9.4856L28.8016 9.67591L26.2769 13.1557ZM21.7288 13.1557L19.194 9.67591L19.4617 9.4856L21.9904 12.9656L21.7288 13.1557Z" fill="#F2DD30"/>
</g>
<defs>
<clipPath id="clip0_11_5032">
<rect width="48" height="32" fill="white"/>
</clipPath>
</defs>
</svg>
