<svg width="48" height="32" viewBox="0 0 48 32" fill="none" xmlns="http://www.w3.org/2000/svg">
<g clip-path="url(#clip0_11_3063)">
<path d="M47.1723 31.7243H0.827623C0.370593 31.7243 0 31.3537 0 30.8966V1.10359C0 0.646563 0.370593 0.27597 0.827623 0.27597H47.1724C47.6294 0.27597 48 0.646563 48 1.10359V30.8966C47.9999 31.3538 47.6293 31.7243 47.1723 31.7243Z" fill="#82AFFF"/>
<path d="M23.1723 16.0002H0.827623C0.370593 16.0002 0 15.6296 0 15.1725V1.10359C0 0.646563 0.370593 0.27597 0.827623 0.27597H23.1724C23.6295 0.27597 24 0.646563 24 1.10359V15.1725C24 15.6296 23.6294 16.0002 23.1723 16.0002Z" fill="#41479B"/>
<path d="M23.1723 0.275864H21.7348L14.0688 5.29842V0.275864H9.93092V5.29842L2.265 0.275864H0.827623C0.370593 0.275864 0 0.646363 0 1.10339V1.75983L6.57702 6.06885H0V10.2068H6.57702L0 14.5159V15.1723C0 15.6294 0.370593 16 0.827623 16H2.26518L9.93111 10.9774V16H14.069V10.9774L21.7349 16H23.1724C23.6295 16 24 15.6294 24 15.1723V14.5159L17.423 10.2069H24V6.06895H17.4229L24 1.75992V1.10349C24 0.646363 23.6294 0.275864 23.1723 0.275864Z" fill="white"/>
<path d="M24 6.89657H13.2413V0.275864H10.7586V6.89657H0V9.37925H10.7586V16H13.2413V9.37925H24V6.89657Z" fill="#FF4B55"/>
<path d="M9.10339 6.06899L0.394405 0.415787C0.162656 0.562411 0 0.80888 0 1.10344V1.14638L7.58333 6.06899H9.10339Z" fill="#FF4B55"/>
<path d="M15.5889 6.06894L23.874 0.690894C23.73 0.447238 23.4759 0.275864 23.1722 0.275864H22.9933L14.0688 6.06894H15.5889Z" fill="#FF4B55"/>
<path d="M8.38813 10.207L0.118927 15.5747C0.26152 15.8243 0.51952 16 0.827582 16H0.983675L9.90828 10.207H8.38813Z" fill="#FF4B55"/>
<path d="M23.9868 15.2374L16.2369 10.207H14.7169L23.5175 15.9196C23.7812 15.7973 23.962 15.5408 23.9868 15.2374Z" fill="#FF4B55"/>
<path d="M30.1907 9.30797V18.3884C30.1907 22.071 35.3636 23.9636 35.994 24.1805C36.6237 23.9636 41.7973 22.0679 41.7973 18.3884V9.30797H30.1907Z" fill="white"/>
<path d="M42.0019 13.4725V9.10296H29.9857V13.4725H35.1746V17.5689H29.9857V19.2076H35.1746V24.1232L35.9938 24.3963L36.813 24.1232V19.2076H42.0019V17.5689H36.813V13.4725H42.0019Z" fill="#FF4B55"/>
<path d="M31.3331 12.452C31.7107 12.452 32.0168 12.1459 32.0168 11.7683C32.0168 11.3907 31.7107 11.0846 31.3331 11.0846C30.9555 11.0846 30.6494 11.3907 30.6494 11.7683C30.6494 12.1459 30.9555 12.452 31.3331 12.452Z" fill="white"/>
<path d="M32.6466 10.8436C32.4278 10.7233 32.034 10.4006 31.8755 10.4553C31.7168 10.5101 31.6814 10.6222 31.4595 10.6393C31.2433 10.6559 30.9019 10.8669 31.0442 11.1007C31.2291 11.405 31.8081 11.1684 31.8464 11.0261C31.8464 11.0261 31.9886 11.0488 32.1081 11.0203C32.1081 11.0203 32.346 11.3522 32.6413 11.3304C32.9366 11.3084 33.0734 10.9421 33.0079 10.9421C32.9423 10.9421 32.6466 10.8436 32.6466 10.8436Z" fill="#FFE15A"/>
<path d="M33.5547 12.2932C33.5054 12.3834 33.1307 12.7038 32.5045 12.8511C32.3651 12.8839 32.3896 13.048 32.2501 12.9659C32.1107 12.8839 31.725 12.8182 31.3804 12.8019C31.0358 12.7855 31.0015 12.4662 31.0604 12.3507C31.1351 12.2039 31.6853 12.1145 31.7837 12.295C31.8821 12.4755 31.9559 12.4378 32.2009 12.4901C32.3527 12.5225 32.3568 12.5967 32.3568 12.5967C32.3568 12.5967 32.6358 12.3177 32.8738 12.2357C33.1117 12.1537 33.3168 11.9731 33.3578 11.9731C33.3988 11.9731 33.6121 12.0305 33.6121 12.0305L33.5547 12.2932Z" fill="#FFE15A"/>
<path d="M34.4652 11.3249C34.8262 11.4562 35.8928 11.4151 37.0332 11.0459C38.1736 10.6768 38.5019 10.6111 39.0598 10.8162C39.6177 11.0212 39.8592 10.3732 39.4928 10.2636C38.9174 10.0914 37.1375 11.1255 35.8487 10.5452C35.8487 10.5452 35.8107 10.7013 35.8517 10.7751C35.8517 10.7751 34.9164 10.8079 35.1379 9.83986C35.1379 9.83986 35.2016 10.1933 35.6438 10.1527C36.4802 10.0759 36.5997 10.6648 38.3705 10.1188C39.3537 9.81567 40.1176 9.96445 40.1243 10.4428C40.1325 11.0187 39.3386 11.1525 39.3386 11.1525C39.3386 11.1525 39.6476 11.7843 40.2712 11.5053C40.8948 11.2263 40.9276 11.7076 40.9823 11.8719C41.0371 12.036 41.1409 12.1947 41.2776 12.211C41.2776 12.211 41.3761 12.5063 41.3378 12.5446C41.2996 12.5829 41.0425 12.9057 40.7854 12.9057C40.5284 12.9057 39.9705 12.9057 39.9705 12.9057C39.9705 12.9057 39.8227 12.5391 40.1073 12.5338C40.3916 12.5283 40.7363 12.5065 40.6925 12.3532C40.6488 12.2001 40.4245 12.1289 40.4299 11.9594C40.4299 11.9594 39.7681 12.4407 39.3579 11.8718L39.3469 12.1398C39.3469 12.1398 38.8491 12.0468 38.6688 11.6475C38.6688 11.6475 38.718 12.0961 38.2914 12.0304C38.2914 12.0304 38.379 12.1617 38.5266 12.2547C38.6744 12.3477 38.5211 12.55 38.2368 12.7196C37.9524 12.8892 37.0772 13.3815 36.6779 12.8782C36.2786 12.375 36.7655 12.0851 36.8857 12.1179C37.006 12.1507 37.3506 12.6812 37.5859 12.6102C37.8211 12.5391 37.9359 12.2984 37.739 12.1508C37.542 12.0032 37.3946 11.8635 37.5187 11.7145C37.6895 11.5096 38.3188 11.571 38.2969 11.4344C38.275 11.2976 37.6897 11.3359 37.3069 11.7187C36.924 12.1016 35.2612 12.9823 34.5993 12.4244C33.9375 11.8664 34.4652 11.3249 34.4652 11.3249Z" fill="#FFE15A"/>
<path d="M34.252 11.0789C34.252 11.0789 34.7525 11.5712 35.5976 11.7271C35.5976 11.7271 35.4417 11.9651 34.9905 11.8994C34.9905 11.8994 35.1711 12.0553 35.2942 12.3178C35.2942 12.3178 35.007 12.3835 34.7526 12.244C34.7526 12.244 34.7854 12.4572 34.9085 12.6297C34.9085 12.6297 34.5721 12.6297 34.2848 12.3753L34.17 12.7034C34.17 12.7034 33.9731 12.5722 33.85 12.3177C33.85 12.3177 33.6203 12.4983 33.3907 12.4983C33.3907 12.4983 33.4727 12.2522 33.4727 12.1126C33.4727 12.1126 33.1446 12.3095 32.8737 12.2357C32.8737 12.2357 32.8819 11.8911 32.9722 11.7927C32.9722 11.7927 32.7589 11.8173 32.6194 11.7434C32.6194 11.7434 32.7014 11.5547 32.7425 11.4316C32.7425 11.4316 32.5127 11.4398 32.3733 11.3085C32.3733 11.3085 32.8164 11.1362 32.9149 10.9722L34.252 11.0789Z" fill="#FFD25A"/>
<path d="M33.4452 9.70049C33.5436 9.75524 33.7023 9.87552 33.768 10.0778C33.768 10.0778 33.9485 9.81524 34.2603 9.76602C34.2603 9.76602 34.397 9.91911 34.3587 10.3184C34.3587 10.3184 34.7033 10.22 34.8893 10.4004C34.8893 10.4004 34.5228 10.4825 34.3533 10.7887C34.3533 10.7887 34.2874 11.1017 34.4024 11.2877C34.4024 11.2877 34.2744 11.3047 34.1454 11.2483C34.1454 11.2483 34.0798 11.5601 34.1454 11.6585C34.1454 11.6585 33.9649 11.6366 33.8664 11.4453C33.8664 11.4453 33.7187 11.6695 33.7296 11.8063C33.7296 11.8063 33.5328 11.6915 33.5218 11.522C33.5218 11.522 33.385 11.779 33.2374 11.801C33.2374 11.801 33.221 11.4399 33.1554 11.3031C33.1554 11.3031 33.0296 11.4399 32.8655 11.4344C32.8655 11.4344 32.8655 11.1554 33.0023 11.0241C33.0023 11.0241 32.7725 11.0952 32.6467 10.8436C32.6467 10.8436 33.0241 10.9529 33.1171 10.7233C33.2101 10.4935 33.2374 10.4225 33.3687 10.2966C33.4999 10.1709 33.4452 9.70049 33.4452 9.70049Z" fill="#FFBE5A"/>
<path d="M34.2519 10.7588C34.2519 10.7588 33.7841 11.653 33.3576 11.3824C32.8903 11.0857 33.4724 10.3896 33.5463 10.3158C33.5462 10.3157 33.8908 10.406 34.2519 10.7588Z" fill="#FFE15A"/>
<path d="M32.5653 15.3392C32.5653 15.3392 32.5163 14.697 32.1681 14.5116C31.8407 14.3374 31.6473 14.2503 31.6098 14.027C31.6098 14.027 31.8942 14.1577 32.1949 14.2394C32.4666 14.3132 32.7317 14.773 32.6512 15.2902L32.5653 15.3392Z" fill="#5ABEA0"/>
<path d="M31.4662 15.8674L31.5104 15.949L31.5426 16.1246L31.4782 16.3329C31.4782 16.3329 31.734 16.4346 31.7923 16.782C31.8322 17.0204 31.9372 17.072 32.0016 17.0229C32.066 16.9739 32.105 16.916 32.0378 16.6553C31.9519 16.3226 31.7197 16.0061 31.7197 16.0061L31.5386 15.7285L31.4662 15.8674Z" fill="#B46446"/>
<path d="M31.7197 16.0062C31.4863 15.7041 30.85 15.0752 30.7294 15.9326C30.7294 15.9326 30.48 15.2102 30.9468 15.2384C31.4862 15.2712 31.7197 16.0062 31.7197 16.0062Z" fill="#5ABEA0"/>
<path d="M31.5103 15.9491C31.309 15.7285 31.2445 15.5652 31.1399 15.1569C31.0352 14.7486 31.003 14.626 30.8822 14.6342C30.7613 14.6423 30.689 14.773 30.689 15.0343C30.689 15.0343 30.3347 14.7157 30.5762 14.4626C30.8178 14.2095 31.3572 14.3483 31.3895 14.7975C31.4216 15.2466 31.4137 15.5488 31.5746 15.9246L31.5103 15.9491Z" fill="#5ABEA0"/>
<path d="M31.5667 15.7531C31.5667 15.7531 31.14 14.8139 32.3398 14.3074C32.3398 14.3074 31.2769 14.0216 31.4058 15.5325L31.5667 15.7531Z" fill="#5ABEA0"/>
<path d="M31.7038 16.0878C31.7038 16.0878 30.8019 15.7448 30.8825 16.5779C30.8825 16.5779 31.0355 16.1858 31.4783 16.3329L31.7038 16.0878Z" fill="#5ABEA0"/>
<path d="M32.7262 15.7584C32.7262 16.002 32.822 16.709 32.686 16.7983C32.6175 16.8432 32.4242 16.8065 32.4403 16.635C32.4565 16.4635 32.533 15.6304 32.533 15.4263C32.533 15.2221 32.7262 15.7584 32.7262 15.7584Z" fill="#B46446"/>
<path d="M32.152 16.3248C32.3077 16.1669 32.356 15.8076 32.3023 15.3284C32.3023 15.3284 32.6244 15.5516 32.7264 15.7586C32.7264 15.7586 32.8284 15.2848 32.4956 15.1596C32.1628 15.0343 31.9856 15.1052 31.9265 15.2575C31.8675 15.41 32.0283 15.5805 32.0984 15.8292C32.1627 16.058 32.152 16.3248 32.152 16.3248Z" fill="#5ABEA0"/>
<path d="M32.7049 15.6332C32.7049 15.6332 32.7586 15.3828 32.9357 15.2793C32.9357 15.2793 33.3008 15.5353 33.2738 15.8783C33.2738 15.8783 33.3705 15.4101 33.1719 15.225C32.9732 15.0399 32.7477 14.9909 32.635 15.1542C32.5223 15.3174 32.7049 15.6332 32.7049 15.6332Z" fill="#5ABEA0"/>
<path d="M32.7909 15.1542C32.7909 15.1542 32.9037 14.4844 33.1881 14.3374C33.4725 14.1904 33.9988 14.0543 34.0309 14.0216C34.0309 14.0216 33.4029 14.0543 33.3009 14.0543C33.1989 14.0543 32.6352 14.4626 32.6352 15.0671C32.6352 15.6714 32.6889 15.2577 32.705 15.2521C32.721 15.2468 32.7909 15.1542 32.7909 15.1542Z" fill="#5ABEA0"/>
<path d="M33.0525 16.925C33.1169 17.0598 33.2699 17.0923 33.3021 17.023C33.3343 16.9536 33.4792 16.4227 33.4792 16.4227L33.2739 16.3247L33.0525 16.925Z" fill="#B46446"/>
<path d="M34.2562 14.6967C34.5085 14.5497 34.675 14.9854 34.675 14.9854C34.675 14.4725 34.5139 14.3103 34.1113 14.5062C33.9901 14.5653 33.9013 14.689 33.836 14.8324C33.6322 14.2467 33.1827 14.2557 33.1827 14.2557L33.0807 14.3265C33.4487 14.3973 33.6596 14.8384 33.7487 15.079C33.7007 15.2546 33.6774 15.4248 33.6675 15.5222C33.4262 15.7722 33.2739 16.3246 33.2739 16.3246C33.2739 16.3246 33.4471 16.4267 33.4792 16.4226C33.4792 16.4226 33.592 16.0755 33.7329 16.0837C33.8738 16.0918 34.0389 16.3165 34.0429 16.4594C34.0429 16.4594 34.2523 16.0347 34.0027 15.8714C33.909 15.8101 33.834 15.7868 33.7734 15.7856L33.9585 15.5774C34.2604 15.6346 34.4698 15.9205 34.4698 15.9205C34.4759 15.4101 34.2505 15.3104 34.0128 15.3532C34.0553 15.1477 34.1488 14.7594 34.2562 14.6967Z" fill="#5ABEA0"/>
<path d="M39.2269 15.4037C39.2269 15.8318 39.2269 16.7811 39.2269 16.8511C39.2269 16.9211 38.9203 17.1935 38.9203 17.1935H39.7353C39.7353 17.1935 39.4735 16.8899 39.4735 16.8511C39.4735 16.8123 39.5334 15.5125 39.5334 15.5125L39.2269 15.4037Z" fill="#B46446"/>
<path d="M39.2791 15.5514C39.0848 15.5359 38.5464 15.9795 38.3894 16.6565C38.3894 16.6565 37.9108 15.8782 39.1072 15.2323C39.1072 15.2323 38.5763 15.0766 37.7688 15.9171C37.7252 15.9625 37.6866 14.6487 39.1371 14.9988C39.1371 14.9988 38.5838 14.1972 37.4473 14.8277C37.4473 14.8277 38.2024 13.4735 39.3165 14.6876C39.3165 14.6876 39.3239 13.6369 39.3315 13.7459C39.3391 13.8548 39.4213 14.3372 39.4213 14.3372L39.6381 13.956L39.4662 14.7342C39.4662 14.7342 40.4606 13.4112 41.3055 14.7888C41.3055 14.7888 40.2138 14.3374 39.6905 14.8432C39.6905 14.8432 40.8121 14.5397 40.7223 15.8393C40.7223 15.8393 40.2812 15.0689 39.5634 15.17C39.5634 15.17 40.4084 15.5591 40.1391 16.6098C40.139 16.6099 39.6299 15.5794 39.2791 15.5514Z" fill="#5ABEA0"/>
<path d="M32.139 20.2283C32.0974 20.172 32.0391 20.1449 31.9819 20.1377C32.0039 20.0618 32.0186 20.0271 32.0127 19.9718C32.0301 19.9761 32.0468 19.984 32.0647 19.9861L32.0724 19.9237C32.0061 19.9157 31.9337 19.8859 31.8593 19.8405C31.9052 19.8013 31.9384 19.7409 31.9384 19.6669C31.9384 19.5866 31.9015 19.5193 31.8491 19.4811C31.7968 19.5194 31.7599 19.5867 31.7599 19.6669C31.7599 19.7272 31.7846 19.7756 31.817 19.8143C31.7894 19.7952 31.7615 19.773 31.7334 19.7492C31.7262 19.6998 31.7073 19.65 31.6634 19.6101C31.604 19.556 31.5295 19.5379 31.4659 19.5509C31.4589 19.6153 31.4838 19.6878 31.5432 19.742C31.589 19.7838 31.643 19.7981 31.6949 19.7992C31.7067 19.8092 31.7191 19.8193 31.7321 19.8295C31.6965 19.8252 31.6581 19.8288 31.6198 19.8428C31.5442 19.8704 31.4937 19.9279 31.4757 19.9902C31.5296 20.0263 31.6054 20.038 31.6808 20.0104C31.7467 19.9864 31.7891 19.9381 31.812 19.8853C31.8561 19.9135 31.9046 19.937 31.9548 19.9559L31.9468 19.9569C31.9451 20.0022 31.9481 20.0208 31.9256 20.105C31.8749 20.0721 31.8078 20.0573 31.7368 20.0782C31.6597 20.1009 31.6056 20.1553 31.5837 20.2163C31.6353 20.2557 31.7101 20.2722 31.7872 20.2494C31.8452 20.2323 31.8845 20.1951 31.9125 20.1528C31.9019 20.1848 31.8886 20.2178 31.8737 20.2515C31.8284 20.2724 31.7859 20.3046 31.7599 20.358C31.7248 20.4302 31.7285 20.5069 31.7589 20.5642C31.8228 20.5528 31.8853 20.5083 31.9205 20.4361C31.9476 20.3804 31.9462 20.3246 31.9325 20.2745C31.9388 20.2604 31.9449 20.2456 31.9511 20.2303C31.957 20.2656 31.9714 20.3014 31.9956 20.3342C32.0433 20.3989 32.1127 20.4312 32.1776 20.4309C32.1969 20.369 32.1867 20.293 32.139 20.2283Z" fill="#5ABEA0"/>
<path d="M31.7693 20.0267C32.0423 20.0267 32.3993 20.0163 32.3887 20.2891C32.3783 20.562 32.0738 21.4859 32.7771 21.7693C33.4804 22.0528 33.5644 22.0108 33.5644 22.0108L33.8793 22.7351L34.6456 22.4622L33.9107 21.8743C33.9107 21.8743 33.8477 21.4753 33.6693 21.2023C33.6693 21.2023 34.1207 20.9713 34.2782 20.7719L33.9633 20.7509C33.9633 20.7509 34.3727 20.4885 34.5616 20.1946L34.3412 20.2156C34.3412 20.2156 34.5931 19.9636 34.6561 19.6697C34.6561 19.6697 34.2467 20.0791 33.8268 20.1316C33.8268 20.1316 34.0052 19.6697 34.0472 19.4913C34.0472 19.4913 33.7323 19.6907 33.5119 19.7747C33.2915 19.8587 32.945 19.8691 33.1025 20.583C33.1025 20.583 32.9135 20.4256 32.7981 20.0896C32.6827 19.7537 32.6407 19.6277 32.4832 19.6277C32.226 19.6277 32.1263 19.8587 32.1263 19.8587L31.7693 20.0267Z" fill="#FFECDE"/>
<path d="M39.5173 20.1616C39.6117 20.0357 39.8007 19.6422 39.9659 19.7445C40.1312 19.8468 40.3516 20.0986 40.4853 19.9806C40.619 19.8625 40.627 19.713 40.4223 19.6422C40.2176 19.5715 39.9895 19.4533 39.8479 19.5006C39.7062 19.5477 39.2735 19.9964 39.2735 19.9964L39.5173 20.1616Z" fill="#B46446"/>
<path d="M38.2975 20.5002C38.2897 20.3191 38.4118 19.5333 38.9035 19.6345C39.1711 19.6896 39.3027 19.9732 39.6512 20.1066C40.021 20.2483 40.2572 20.3348 40.1863 20.5787C40.1154 20.8227 39.9816 21.1139 39.6747 21.1847C39.3678 21.2557 38.2975 20.5002 38.2975 20.5002Z" fill="#FFE15A"/>
<path d="M37.9751 21.1478C37.8702 21.1688 37.4819 21.7355 37.9437 22.3126C37.9437 22.3126 38.5103 22.5434 38.9615 22.1867C39.4127 21.83 39.0769 21.6516 39.0769 21.6516L37.9751 21.1478Z" fill="#5ABEA0"/>
<path d="M38.0144 21.2712C37.9672 21.2003 37.9751 21.1479 37.9751 21.1479C37.9751 21.1479 37.9515 20.3347 38.2899 20.319C38.6283 20.3032 39.848 21.1059 39.848 21.2397C39.848 21.3734 39.4545 21.759 39.124 21.8377C38.7936 21.9164 38.0144 21.2712 38.0144 21.2712Z" fill="#5ABEA0"/>
<path d="M37.1803 23.2387C37.1803 23.2387 38.2552 22.7558 38.0532 22.3629C37.9074 22.0794 37.5797 22.261 37.5279 22.4775C37.4631 22.7476 37.253 23.124 37.1803 23.2387Z" fill="#B46446"/>
<path d="M35.9939 24.6113L35.9317 24.5915C35.8694 24.5715 34.3854 24.0936 32.8771 23.0994C30.8516 21.7646 29.7809 20.1353 29.7809 18.3883V8.89818H42.2068V18.3883C42.2068 20.1354 41.1361 21.7646 39.1106 23.0994C37.6023 24.0936 36.1184 24.5715 36.0559 24.5915L35.9939 24.6113ZM30.1906 9.30786V18.3883C30.1906 22.0709 35.3635 23.9635 35.9939 24.1803C36.6236 23.9635 41.7972 22.0678 41.7972 18.3883V9.30786H30.1906Z" fill="#464655"/>
</g>
<defs>
<clipPath id="clip0_11_3063">
<rect width="48" height="32" fill="white"/>
</clipPath>
</defs>
</svg>
