<svg width="48" height="32" viewBox="0 0 48 32" fill="none" xmlns="http://www.w3.org/2000/svg">
<g clip-path="url(#clip0_11_4244)">
<path d="M47.1723 31.7242H0.827623C0.370593 31.7242 0 31.3536 0 30.8966V1.10362C0 0.646594 0.370593 0.276001 0.827623 0.276001H47.1724C47.6294 0.276001 48 0.646594 48 1.10362V30.8966C47.9999 31.3537 47.6293 31.7242 47.1723 31.7242Z" fill="#41479B"/>
<path d="M23.1723 0.276001H21.7349L14.0689 5.29846V0.276001H9.93101V5.29846L2.26509 0.276001H0.827623C0.370593 0.276001 0 0.646594 0 1.10362V1.76006L6.57702 6.06908H0V10.207H6.57702L0 14.5161V15.1725C0 15.6295 0.370593 16.0001 0.827623 16.0001H2.26509L9.93101 10.9776V16.0001H14.0689V10.9776L21.7348 16.0001H23.1722C23.6293 16.0001 23.9999 15.6295 23.9999 15.1725V14.516L17.4229 10.207H23.9999V6.06908H17.4228L23.9999 1.76006V1.10362C23.9999 0.646594 23.6295 0.276001 23.1723 0.276001Z" fill="white"/>
<path d="M23.9999 6.89671H13.2413V0.276001H10.7585V6.89671H0V9.37939H10.7585V16.0001H13.2413V9.37939H23.9999V6.89671Z" fill="#FF4B55"/>
<path d="M9.10339 6.06891L0.394405 0.41571C0.162656 0.562429 0 0.808803 0 1.10346V1.1464L7.58333 6.06891H9.10339Z" fill="#FF4B55"/>
<path d="M15.5892 6.06908L23.8742 0.691032C23.7302 0.447376 23.4761 0.276001 23.1725 0.276001H22.9935L14.0691 6.06908H15.5892Z" fill="#FF4B55"/>
<path d="M8.38813 10.2068L0.118927 15.5746C0.26152 15.8242 0.51952 15.9999 0.827582 15.9999H0.983675L9.90819 10.2068H8.38813Z" fill="#FF4B55"/>
<path d="M23.9867 15.2375L16.2368 10.207H14.7169L23.5174 15.9195C23.7812 15.7972 23.9619 15.5408 23.9867 15.2375Z" fill="#FF4B55"/>
<path d="M31.0036 25.0367L30.6152 24.1303L30.8093 24.5835L30.6129 24.1314C30.6948 24.0953 32.6173 23.2182 32.6173 20.6389H33.6034C33.6034 23.8851 31.1098 24.9911 31.0036 25.0367Z" fill="#E67346"/>
<path d="M31.3894 22.8311L30.6921 22.1339C32.0252 20.8009 32.7179 20.4352 32.7925 20.3978L33.2336 21.2799L33.013 20.8388L33.2374 21.278C33.2311 21.2813 32.6067 21.6138 31.3894 22.8311Z" fill="#EB7D4B"/>
<path d="M41.137 25.0367L41.5254 24.1303L41.3312 24.5835L41.5276 24.1314C41.4458 24.0953 39.5232 23.2182 39.5232 20.6389H38.5371C38.5371 23.8851 41.0307 24.9911 41.137 25.0367Z" fill="#E67346"/>
<path d="M40.7513 22.8311L41.4485 22.1339C40.1155 20.8009 39.4228 20.4352 39.3481 20.3978L38.907 21.2799L39.1276 20.8388L38.9033 21.278C38.9095 21.2813 39.5339 21.6138 40.7513 22.8311Z" fill="#EB7D4B"/>
<path d="M36.069 7.81885H30.8096C30.8096 7.81885 30.8096 14.0645 30.8096 15.7081C30.8096 17.3516 31.1383 21.625 36.069 23.2685C40.9998 21.6249 41.3285 17.3516 41.3285 15.7081C41.3285 14.0645 41.3285 7.81885 41.3285 7.81885H36.069Z" fill="#4173CD"/>
<path d="M38.3699 9.79101H35.5439C35.2453 9.79101 34.9557 9.68938 34.7225 9.50292L33.6192 8.62017C33.5026 8.52698 33.3578 8.47607 33.2085 8.47607H33.1104C32.7473 8.47607 32.453 8.77035 32.453 9.13345H31.96C31.6878 9.13345 31.467 9.35423 31.467 9.62648C31.467 9.89873 31.6878 10.1195 31.96 10.1195H32.453C32.6346 10.1195 32.7818 10.2667 32.7818 10.4483V12.0919C32.7818 12.7039 33.2018 13.2137 33.768 13.3603V14.3929H34.4254L34.6719 13.4068H37.7126L38.0414 13.7355V14.3929H38.3702V13.4068H38.6989V14.3929H39.0277V13.3156C39.2235 13.2017 39.3565 12.9922 39.3565 12.7494V10.7771C39.356 10.2326 38.9146 9.79101 38.3699 9.79101Z" fill="#C8C8C8"/>
<path d="M32.4529 14.0645L33.1104 16.0367H39.0274L39.6847 14.0645H32.4529Z" fill="#73AF00"/>
<path d="M39.5709 15.3793C38.6945 15.3793 38.6945 16.0367 37.8181 16.0367C36.942 16.0367 36.942 15.3793 36.0658 15.3793C35.1898 15.3793 35.1898 16.0367 34.3137 16.0367C33.4375 16.0367 33.4375 15.3793 32.5611 15.3793C31.6867 15.3793 31.6844 16.0337 30.8138 16.0365C30.8244 16.4027 30.8557 16.8505 30.9366 17.3455C31.6858 17.2843 31.7303 16.6943 32.5612 16.6943C33.4375 16.6943 33.4375 17.3516 34.3138 17.3516C35.1898 17.3516 35.1898 16.6943 36.0659 16.6943C36.942 16.6943 36.942 17.3516 37.8182 17.3516C38.6946 17.3516 38.6946 16.6943 39.571 16.6943C40.4041 16.6943 40.4479 17.2855 41.2008 17.3456C41.2816 16.8507 41.313 16.4028 41.3236 16.0366C40.4488 16.0351 40.4477 15.3793 39.5709 15.3793Z" fill="white"/>
<path d="M39.5708 16.6943C38.6944 16.6943 38.6944 17.3517 37.818 17.3517C36.9419 17.3517 36.9419 16.6943 36.0657 16.6943C35.1897 16.6943 35.1897 17.3517 34.3136 17.3517C33.4374 17.3517 33.4374 16.6943 32.561 16.6943C31.7301 16.6943 31.6857 17.2844 30.9364 17.3456C31.0007 17.7396 31.0974 18.1633 31.2387 18.5988C31.7182 18.4313 31.8582 18.0091 32.5609 18.0091C33.4372 18.0091 33.4372 18.6665 34.3136 18.6665C35.1896 18.6665 35.1896 18.0091 36.0656 18.0091C36.9417 18.0091 36.9417 18.6665 37.8179 18.6665C38.6943 18.6665 38.6943 18.0091 39.5707 18.0091C40.2759 18.0091 40.4154 18.433 40.8978 18.5998C41.0394 18.164 41.136 17.7399 41.2005 17.3457C40.4478 17.2855 40.404 16.6943 39.5708 16.6943Z" fill="#4173CD"/>
<path d="M39.5711 18.0089C38.6948 18.0089 38.6948 18.6662 37.8184 18.6662C36.9423 18.6662 36.9423 18.0089 36.0661 18.0089C35.1901 18.0089 35.1901 18.6662 34.314 18.6662C33.4378 18.6662 33.4378 18.0089 32.5614 18.0089C31.8586 18.0089 31.7187 18.431 31.2392 18.5985C31.3526 18.9477 31.4961 19.3042 31.6756 19.6595C31.8979 19.4928 32.1169 19.3237 32.5614 19.3237C33.4377 19.3237 33.4377 19.9811 34.314 19.9811C35.19 19.9811 35.19 19.3237 36.0661 19.3237C36.9422 19.3237 36.9422 19.9811 37.8184 19.9811C38.6948 19.9811 38.6948 19.3237 39.5711 19.3237C40.0181 19.3237 40.2376 19.4941 40.4612 19.6616C40.6411 19.3059 40.7848 18.949 40.8983 18.5996C40.4158 18.4328 40.2765 18.0089 39.5711 18.0089Z" fill="white"/>
<path d="M39.5709 19.3239C38.6945 19.3239 38.6945 19.9813 37.8182 19.9813C36.9421 19.9813 36.9421 19.3239 36.0659 19.3239C35.1899 19.3239 35.1899 19.9813 34.3138 19.9813C33.4375 19.9813 33.4375 19.3239 32.5611 19.3239C32.1168 19.3239 31.8976 19.4929 31.6754 19.6597C31.8465 19.9983 32.051 20.3353 32.2953 20.6633C32.3748 20.6483 32.4617 20.6389 32.5611 20.6389C33.4374 20.6389 33.4374 21.2963 34.3138 21.2963C35.1898 21.2963 35.1898 20.6389 36.0659 20.6389C36.942 20.6389 36.942 21.2963 37.8182 21.2963C38.6945 21.2963 38.6945 20.6389 39.5709 20.6389C39.6722 20.6389 39.7608 20.6485 39.8416 20.664C40.0856 20.3365 40.29 20 40.461 19.6619C40.2375 19.4944 40.018 19.3239 39.5709 19.3239Z" fill="#4173CD"/>
<path d="M39.8417 20.6638C39.7611 20.6484 39.6725 20.6388 39.5711 20.6388C38.6947 20.6388 38.6947 21.2962 37.8183 21.2962C36.9422 21.2962 36.9422 20.6388 36.0661 20.6388C35.1901 20.6388 35.1901 21.2962 34.314 21.2962C33.4377 21.2962 33.4377 20.6388 32.5613 20.6388C32.4619 20.6388 32.375 20.6482 32.2955 20.6632C32.8283 21.3783 33.5509 22.0489 34.5289 22.5944C35.1949 22.4962 35.269 21.9536 36.0659 21.9536C36.8646 21.9536 36.9372 22.4985 37.6073 22.595C38.5859 22.0496 39.3088 21.3791 39.8417 20.6638Z" fill="white"/>
<path d="M36.2331 15.3795H35.9043V20.9679H36.2331V15.3795Z" fill="#FF965A"/>
<path d="M37.0546 16.201H35.0822V16.5298H37.0546V16.201Z" fill="#FF965A"/>
<path d="M37.0546 18.1733H35.0822V18.5021H37.0546V18.1733Z" fill="#FF965A"/>
<path d="M37.0546 16.5287H35.0822V17.829H37.0546V16.5287Z" fill="#FFE15A"/>
<path d="M35.9046 15.3793V16.0368L34.9185 15.7081L35.9046 15.3793Z" fill="#FF4B55"/>
<path d="M38.4251 15.3795H38.0963V19.2419H38.4251V15.3795Z" fill="#FF965A"/>
<path d="M39.2466 16.201H37.2741V16.5298H39.2466V16.201Z" fill="#FF965A"/>
<path d="M39.2466 18.1733H37.2741V18.5021H39.2466V18.1733Z" fill="#FF965A"/>
<path d="M39.2466 16.5287H37.2741V17.829H39.2466V16.5287Z" fill="#FFE15A"/>
<path d="M38.096 15.3793V16.0368L37.1099 15.7081L38.096 15.3793Z" fill="#FF4B55"/>
<path d="M34.0281 15.3795H33.6993V19.2143H34.0281V15.3795Z" fill="#FF965A"/>
<path d="M34.8504 16.201H32.8779V16.5298H34.8504V16.201Z" fill="#FF965A"/>
<path d="M34.8504 18.1733H32.8779V18.5021H34.8504V18.1733Z" fill="#FF965A"/>
<path d="M34.8504 16.5287H32.8779V17.829H34.8504V16.5287Z" fill="#FFE15A"/>
<path d="M33.6995 15.3793V16.0368L32.7133 15.7081L33.6995 15.3793Z" fill="#FF4B55"/>
<path d="M37.7122 18.9952C37.7122 19.9014 36.9749 20.6388 36.0686 20.6388C35.1623 20.6388 34.425 19.9015 34.425 18.9952H34.0962H33.7702L31.5439 18.4924L31.4714 18.8131L32.4527 19.0348V19.3239L33.1762 19.6132C33.4613 20.9486 34.6493 21.9535 36.0685 21.9535C37.4736 21.9535 38.6507 20.9679 38.9508 19.6525H40.013V18.6663L37.7122 18.9952Z" fill="#FF965A"/>
<path d="M41.3284 7.81874C41.3284 7.81874 41.3284 14.0644 41.3284 15.708C41.3284 17.3515 40.9996 21.6249 36.0689 23.2684C31.1381 21.6248 30.8094 17.3515 30.8094 15.708C30.8094 14.0644 30.8094 7.81874 30.8094 7.81874H36.0689H41.3284ZM41.657 7.49005H41.3282H36.0688H30.8093H30.4805V7.81883V15.7081C30.4805 19.6058 32.4283 22.4015 35.9648 23.5804L36.0688 23.6151L36.1727 23.5804C39.7094 22.4015 41.657 19.6057 41.657 15.7081V7.81883V7.49005Z" fill="white"/>
<path d="M36.0689 24.9122C33.6495 24.9122 31.4057 24.1017 30.067 22.744L31.0031 21.8208C32.1001 22.933 33.994 23.5973 36.069 23.5973C38.1441 23.5973 40.0379 22.9331 41.135 21.8208L42.0711 22.744C40.7322 24.1016 38.4884 24.9122 36.0689 24.9122Z" fill="#FF965A"/>
</g>
<defs>
<clipPath id="clip0_11_4244">
<rect width="48" height="32" fill="white"/>
</clipPath>
</defs>
</svg>
