<svg width="48" height="32" viewBox="0 0 48 32" fill="none" xmlns="http://www.w3.org/2000/svg">
<g clip-path="url(#clip0_11_1350)">
<path d="M47.1723 31.7242H0.827623C0.370593 31.7242 0 31.3536 0 30.8965V1.1035C0 0.646472 0.370593 0.275879 0.827623 0.275879H47.1724C47.6294 0.275879 48 0.646472 48 1.1035V30.8965C47.9999 31.3537 47.6293 31.7242 47.1723 31.7242Z" fill="#82AFFF"/>
<path d="M23.891 4.80339L23.2534 6.71514L21.2383 6.73079C21.1278 6.73164 21.082 6.87264 21.1709 6.93836L22.792 8.13545L22.1841 10.0568C22.1508 10.162 22.2708 10.2493 22.3606 10.185L24 9.01313L25.6396 10.185C25.7295 10.2492 25.8494 10.1621 25.816 10.0568L25.2081 8.13545L26.8292 6.93836C26.9181 6.87273 26.8723 6.73173 26.7618 6.73079L24.7467 6.71514L24.1091 4.80339C24.0742 4.69867 23.9259 4.69867 23.891 4.80339Z" fill="white"/>
<path d="M23.891 21.8718L23.2534 23.7835L21.2383 23.7992C21.1278 23.8 21.082 23.941 21.1709 24.0067L22.792 25.2038L22.1841 27.1251C22.1508 27.2304 22.2708 27.3177 22.3606 27.2534L24 26.0815L25.6396 27.2534C25.7295 27.3176 25.8494 27.2305 25.816 27.1251L25.2081 25.2038L26.8292 24.0067C26.9181 23.9411 26.8723 23.8001 26.7618 23.7992L24.7467 23.7835L24.1091 21.8718C24.0742 21.7669 23.9259 21.7669 23.891 21.8718Z" fill="white"/>
<path d="M35.1967 15.8909L33.2849 15.2533L33.2693 13.2382C33.2684 13.1278 33.1274 13.0819 33.0617 13.1708L31.8646 14.7919L29.9433 14.184C29.838 14.1508 29.7508 14.2707 29.8151 14.3605L30.9869 15.9999L29.8151 17.6395C29.7508 17.7294 29.8379 17.8493 29.9433 17.8159L31.8646 17.208L33.0617 18.8291C33.1273 18.918 33.2683 18.8722 33.2693 18.7617L33.2849 16.7466L35.1967 16.109C35.3014 16.0741 35.3014 15.9258 35.1967 15.8909Z" fill="white"/>
<path d="M12.8034 15.8909L14.7151 15.2533L14.7308 13.2382C14.7316 13.1278 14.8726 13.0819 14.9383 13.1708L16.1354 14.7919L18.0567 14.184C18.162 14.1508 18.2493 14.2707 18.185 14.3605L17.0131 16L18.185 17.6395C18.2492 17.7295 18.1621 17.8494 18.0567 17.816L16.1354 17.2081L14.9383 18.8292C14.8727 18.9181 14.7317 18.8723 14.7308 18.7618L14.7151 16.7467L12.8034 16.1091C12.6986 16.0741 12.6986 15.9258 12.8034 15.8909Z" fill="white"/>
</g>
<defs>
<clipPath id="clip0_11_1350">
<rect width="48" height="32" fill="white"/>
</clipPath>
</defs>
</svg>
