<svg width="48" height="32" viewBox="0 0 48 32" fill="none" xmlns="http://www.w3.org/2000/svg">
<g clip-path="url(#clip0_2751_28073)">
<g clip-path="url(#clip1_2751_28073)">
<path d="M48 0.000244141H0V31.9998H48V0.000244141Z" fill="black"/>
<g clip-path="url(#clip2_2751_28073)">
<path d="M17.0496 7.04924C16.6207 7.18987 16.3043 7.5801 16.2445 8.04065L16.2234 8.22346L16.0336 8.24807C15.6398 8.29729 15.2566 8.57502 15.0949 8.9301C14.9789 9.17619 14.9859 9.59104 15.109 9.84768C15.225 10.0903 15.4183 10.2836 15.668 10.4102C15.9914 10.5719 16.1918 10.6035 16.8316 10.6L17.4187 10.593L18.0937 11.2715L18.7723 11.95L18.6422 12.2699C18.368 12.9414 18.2836 13.525 18.3152 14.4883C18.3398 15.1914 18.4207 15.7188 18.6105 16.4219C18.7336 16.8789 18.7371 16.9035 18.6949 17.1531C18.6457 17.4766 18.5648 17.6664 18.3539 17.9442C18.0797 18.3133 17.9883 18.5594 17.9812 18.9461C17.9742 19.4031 18.1394 19.716 18.5051 19.9516L18.7301 20.0922L18.0691 20.7567L17.4082 21.4176L16.9863 21.393C15.9914 21.3403 15.3762 21.5899 15.109 22.1524C15.0351 22.3106 15.0176 22.3949 15.0176 22.627C15.0211 22.8625 15.0351 22.9399 15.1195 23.1086C15.2883 23.4496 15.6855 23.7309 16.0019 23.7344C16.0793 23.7344 16.1637 23.7485 16.1883 23.766C16.2129 23.7801 16.248 23.8891 16.2656 24.0051C16.3183 24.3953 16.5504 24.7153 16.8914 24.884C17.1726 25.0211 17.5664 25.0246 17.8476 24.891C18.4101 24.6239 18.6598 24.0086 18.6035 23.0137L18.5824 22.5918L19.616 21.5582C20.7726 20.4051 20.6637 20.4684 20.7937 20.8867C20.8816 21.1785 20.9625 21.611 21.0117 22.0821C21.0644 22.5672 21.1629 22.7852 21.3773 22.8871C21.8414 23.1121 21.9996 22.866 22.1191 21.7199C22.1402 21.5477 22.1578 21.509 22.2246 21.4774C22.4039 21.3965 22.4883 21.5969 22.4883 22.1031C22.4883 22.4617 22.5515 22.6973 22.6816 22.8203C22.7836 22.9188 23.0508 22.968 23.1668 22.9117C23.3285 22.8309 23.4586 22.4196 23.5254 21.7586C23.5535 21.516 23.6449 21.3754 23.7433 21.4352C23.8101 21.4774 23.8277 21.5371 23.9086 22.0504C23.9719 22.4442 24.0738 22.743 24.2004 22.8906C24.2742 22.9821 24.3129 22.9961 24.4605 22.9961C24.6012 22.9961 24.6504 22.9785 24.7558 22.8871C24.907 22.7535 24.9703 22.5496 24.9984 22.0926C25.0301 21.6672 25.118 21.4176 25.2375 21.4141C25.3078 21.4141 25.3746 21.6602 25.4062 22.0539C25.4519 22.5918 25.4906 22.736 25.6172 22.8625C25.7508 22.9926 25.9336 22.9961 26.1023 22.8696C26.3308 22.6938 26.5277 22.1172 26.5312 21.625C26.5312 21.1399 26.6648 20.6617 26.8547 20.4473C27.0551 20.2153 26.9918 20.1696 28.2609 21.4352L29.4176 22.5918L29.3965 23.0137C29.3402 24.0086 29.5898 24.6239 30.1523 24.891C30.4336 25.0246 30.8273 25.0211 31.1086 24.884C31.4496 24.7153 31.6746 24.4024 31.7379 24.0051C31.759 23.8856 31.7765 23.7871 31.7801 23.7801C31.7871 23.7766 31.8855 23.759 32.0051 23.7379C32.4023 23.6746 32.7117 23.4531 32.8805 23.1086C32.9648 22.9399 32.9789 22.8625 32.9824 22.627C32.9824 22.3949 32.9648 22.3106 32.891 22.1524C32.6238 21.5899 32.0051 21.3403 31.0172 21.3965L30.5988 21.4211L29.85 20.6723L29.1012 19.9235L29.2101 19.7863C29.4351 19.5051 29.516 18.9496 29.3965 18.5383C29.3402 18.3485 29.1609 18.011 29.0133 17.8176C28.8199 17.5645 28.7988 16.5168 28.9676 15.7891C29.1117 15.1844 29.1433 14.8891 29.1433 14.2774C29.1433 13.6199 29.1012 13.2684 28.957 12.7129L28.8551 12.3262L29.7199 11.4578L30.5848 10.593L31.1683 10.5965C31.8082 10.6035 32.0086 10.5719 32.332 10.4102C32.5816 10.2836 32.775 10.0903 32.891 9.84768C32.9648 9.68948 32.9824 9.6051 32.9824 9.37307C32.9789 9.13752 32.9648 9.06018 32.8805 8.89143C32.7117 8.54338 32.3531 8.29377 31.9594 8.24455C31.7625 8.21994 31.7344 8.1883 31.7344 7.9633C31.7344 7.8051 31.541 7.44651 31.3758 7.29885C31.1473 7.09143 30.9539 7.0176 30.6269 7.0176C30.3949 7.0176 30.3105 7.03518 30.1523 7.109C29.5898 7.37619 29.3402 7.99143 29.3965 8.98635L29.4176 9.40823L28.7215 10.1043L28.0219 10.8004L27.723 10.5086C26.7281 9.5383 25.3992 9.07424 23.6203 9.07424C22.1121 9.07424 20.8465 9.50666 19.9676 10.3188L19.7215 10.5473L19.1519 9.97424L18.5789 9.40119L18.6035 8.98283C18.6598 7.99846 18.4101 7.37268 17.8512 7.11252C17.6226 7.00705 17.2676 6.97893 17.0496 7.04924ZM21.648 15.8524C22.1648 15.9965 22.6043 16.3516 22.8152 16.7981C22.9172 17.016 22.9277 17.0688 22.9277 17.3711C22.9277 17.6699 22.9172 17.7262 22.8258 17.916C22.3476 18.8934 20.8887 19.0656 20.0133 18.25C19.1414 17.4344 19.4789 16.1793 20.6601 15.8418C20.8992 15.7715 21.3773 15.7785 21.648 15.8524ZM26.7457 15.8524C27.5859 16.0844 28.0324 16.8156 27.8004 17.575C27.5754 18.3133 26.7351 18.8406 25.8984 18.7633C25.4519 18.7246 25.0723 18.5489 24.8015 18.2571C24.5941 18.0356 24.5062 17.8598 24.457 17.5715C24.3269 16.8297 24.9 16.0703 25.7578 15.8453C26.032 15.7715 26.468 15.775 26.7457 15.8524ZM23.9683 18.2395C24.3726 18.6613 24.5273 18.9461 24.5273 19.2731C24.5273 19.5613 24.4113 19.7582 24.1863 19.8531C24.0562 19.9094 23.9297 19.8742 23.7996 19.7547L23.7187 19.6809L23.6414 19.7547C23.5219 19.8637 23.3883 19.9024 23.2617 19.8672C23.114 19.825 23.0613 19.7758 22.9734 19.6106C22.8328 19.3293 22.8961 18.9567 23.1527 18.5946C23.2758 18.4188 23.6695 18.0039 23.7117 18.0039C23.7293 18.0039 23.8453 18.1094 23.9683 18.2395Z" fill="white"/>
</g>
</g>
</g>
<defs>
<clipPath id="clip0_2751_28073">
<rect width="48" height="32" fill="white"/>
</clipPath>
<clipPath id="clip1_2751_28073">
<rect width="48" height="32" rx="1" fill="white"/>
</clipPath>
<clipPath id="clip2_2751_28073">
<rect width="18" height="18" fill="white" transform="translate(15 7)"/>
</clipPath>
</defs>
</svg>
