<svg width="48" height="32" viewBox="0 0 48 32" fill="none" xmlns="http://www.w3.org/2000/svg">
<g clip-path="url(#clip0_11_4132)">
<path d="M47.1723 31.7242H0.827623C0.370593 31.7242 0 31.3536 0 30.8966V1.10362C0 0.646594 0.370593 0.276001 0.827623 0.276001H47.1724C47.6294 0.276001 48 0.646594 48 1.10362V30.8966C47.9999 31.3537 47.6293 31.7242 47.1723 31.7242Z" fill="#FF4B55"/>
<path d="M43.0344 5.24127V26.7584H4.9656V5.24127H43.0344Z" fill="#FFE15A"/>
<path d="M4.9656 5.24127L24 15.9998L4.9656 26.7584V5.24127Z" fill="#73AF00"/>
<path d="M43.0342 5.24127L23.9998 15.9998L43.0342 26.7584V5.24127Z" fill="#73AF00"/>
<path d="M24 19.3103C25.8282 19.3103 27.3103 17.8282 27.3103 16C27.3103 14.1718 25.8282 12.6897 24 12.6897C22.1718 12.6897 20.6897 14.1718 20.6897 16C20.6897 17.8282 22.1718 19.3103 24 19.3103Z" fill="#FF4B55"/>
<path d="M24.2093 13.5745L24.727 15.1268L26.3633 15.1396C26.5752 15.1413 26.6631 15.4115 26.4926 15.5374L25.1763 16.5095L25.67 18.0697C25.7339 18.2717 25.5039 18.4388 25.3314 18.3156L24.0001 17.364L22.6689 18.3156C22.4966 18.4388 22.2666 18.2717 22.3304 18.0697L22.8241 16.5095L21.5078 15.5374C21.3373 15.4115 21.4252 15.1413 21.6371 15.1396L23.2734 15.1268L23.7911 13.5745C23.8579 13.3735 24.1422 13.3735 24.2093 13.5745Z" fill="#FFE15A"/>
<path d="M24.1235 1.37402L24.4294 2.29118L25.3963 2.29858C25.5214 2.29952 25.5734 2.45937 25.4726 2.53362L24.6947 3.10793L24.9864 4.02977C25.0242 4.14911 24.8882 4.24783 24.7864 4.17499L24 3.61305L23.2133 4.17527C23.1115 4.24811 22.9756 4.1493 23.0133 4.03005L23.305 3.10821L22.5271 2.5339C22.4265 2.45955 22.4783 2.2998 22.6035 2.29887L23.5703 2.29146L23.8762 1.37431C23.9159 1.25524 24.0839 1.25524 24.1235 1.37402Z" fill="#FFE15A"/>
<path d="M35.0112 1.37412L35.3171 2.29128L36.284 2.29868C36.4091 2.29962 36.4611 2.45946 36.3603 2.53371L35.5824 3.10803L35.8741 4.02987C35.9119 4.14921 35.7759 4.24793 35.6741 4.17509L34.8875 3.61287L34.1008 4.17509C33.999 4.24793 33.8631 4.14912 33.9008 4.02987L34.1925 3.10803L33.4147 2.53371C33.314 2.45937 33.3658 2.29962 33.491 2.29868L34.4578 2.29128L34.7637 1.37412C34.8037 1.25534 34.9716 1.25534 35.0112 1.37412Z" fill="#FFE15A"/>
<path d="M13.2357 1.37412L13.5416 2.29128L14.5085 2.29868C14.6336 2.29962 14.6856 2.45946 14.5848 2.53371L13.8069 3.10803L14.0986 4.02987C14.1364 4.14921 14.0004 4.24793 13.8986 4.17509L13.112 3.61287L12.3253 4.17509C12.2235 4.24793 12.0876 4.14912 12.1254 4.02987L12.417 3.10803L11.6392 2.53371C11.5385 2.45937 11.5903 2.29962 11.7155 2.29868L12.6823 2.29128L12.9882 1.37412C13.0282 1.25534 13.1962 1.25534 13.2357 1.37412Z" fill="#FFE15A"/>
<path d="M24.1235 27.8117L24.4294 28.7289L25.3963 28.7363C25.5214 28.7372 25.5734 28.897 25.4726 28.9713L24.6947 29.5456L24.9864 30.4674C25.0242 30.5868 24.8882 30.6855 24.7864 30.6127L24 30.0507L23.2133 30.6129C23.1115 30.6858 22.9756 30.587 23.0133 30.4677L23.305 29.5459L22.5271 28.9716C22.4265 28.8972 22.4783 28.7375 22.6035 28.7365L23.5703 28.7291L23.8762 27.812C23.9159 27.693 24.0839 27.693 24.1235 27.8117Z" fill="#FFE15A"/>
<path d="M35.0112 27.8114L35.3171 28.7285L36.284 28.7359C36.4091 28.7369 36.4611 28.8967 36.3603 28.971L35.5824 29.5453L35.8741 30.4671C35.9119 30.5864 35.7759 30.6852 35.6741 30.6123L34.8875 30.0501L34.1008 30.6123C33.999 30.6852 33.8631 30.5863 33.9008 30.4671L34.1925 29.5453L33.4147 28.971C33.314 28.8966 33.3658 28.7369 33.491 28.7359L34.4578 28.7285L34.7637 27.8114C34.8037 27.6927 34.9716 27.6927 35.0112 27.8114Z" fill="#FFE15A"/>
<path d="M13.2357 27.8114L13.5416 28.7285L14.5085 28.7359C14.6336 28.7369 14.6856 28.8967 14.5848 28.971L13.8069 29.5453L14.0986 30.4671C14.1364 30.5864 14.0004 30.6852 13.8986 30.6123L13.112 30.0501L12.3253 30.6123C12.2235 30.6852 12.0876 30.5863 12.1254 30.4671L12.417 29.5453L11.6392 28.971C11.5385 28.8966 11.5903 28.7369 11.7155 28.7359L12.6823 28.7285L12.9882 27.8114C13.0282 27.6927 13.1962 27.6927 13.2357 27.8114Z" fill="#FFE15A"/>
<path d="M11.0689 13.9308H8.99998V15.9998C8.99998 17.1425 9.92623 18.0688 11.0689 18.0688C12.2117 18.0688 13.1379 17.1425 13.1379 15.9998C13.1379 14.8571 12.2116 13.9308 11.0689 13.9308Z" fill="#FFE15A"/>
<path d="M13.138 18.0689L12.0007 17.8484L11.0691 15.9999L12.9175 16.9317L13.138 18.0689Z" fill="#FF4B55"/>
</g>
<defs>
<clipPath id="clip0_11_4132">
<rect width="48" height="32" fill="white"/>
</clipPath>
</defs>
</svg>
