<svg width="48" height="32" viewBox="0 0 48 32" fill="none" xmlns="http://www.w3.org/2000/svg">
<g clip-path="url(#clip0_11_4899)">
<path d="M47.1723 31.7238H0.827623C0.370593 31.7238 0 31.3532 0 30.8962V1.10314C0 0.646105 0.370593 0.275513 0.827623 0.275513H47.1724C47.6294 0.275513 48 0.646105 48 1.10314V30.8962C47.9999 31.3533 47.6293 31.7238 47.1723 31.7238Z" fill="white"/>
<path d="M47.9999 13.517H26.4827V0.275635H21.5172V13.517H0V18.4825H21.5172V31.7238H26.4827V18.4825H47.9999V13.517Z" fill="#FF4B55"/>
<path d="M14.0688 5.76573C13.249 5.84814 12.446 5.93073 11.6418 6.01342C11.7245 5.20914 11.807 4.40608 11.8895 3.58643C11.1378 3.68364 10.3792 3.68364 9.62746 3.58643C9.70986 4.40608 9.79246 5.20924 9.87524 6.01342C9.07096 5.93083 8.2678 5.84823 7.44824 5.76573C7.54546 6.51742 7.54546 7.27604 7.44824 8.02773C8.26799 7.94532 9.07105 7.86273 9.87524 7.78004C9.79255 8.58432 9.70996 9.38738 9.62746 10.207C10.3792 10.1098 11.1378 10.1098 11.8895 10.207C11.8071 9.38738 11.7245 8.58423 11.6418 7.78004C12.446 7.86264 13.2491 7.94523 14.0688 8.02773C13.9716 7.27604 13.9716 6.51733 14.0688 5.76573Z" fill="#FF4B55"/>
<path d="M40.5516 5.76573C39.7318 5.84814 38.9288 5.93073 38.1246 6.01342C38.2073 5.20914 38.2898 4.40608 38.3724 3.58643C37.6206 3.68364 36.8621 3.68364 36.1103 3.58643C36.1927 4.40608 36.2753 5.20924 36.3581 6.01342C35.5538 5.93083 34.7506 5.84823 33.9311 5.76573C34.0283 6.51742 34.0283 7.27604 33.9311 8.02773C34.7508 7.94532 35.5539 7.86273 36.3581 7.78004C36.2754 8.58432 36.1928 9.38738 36.1103 10.207C36.8621 10.1098 37.6206 10.1098 38.3724 10.207C38.29 9.38738 38.2073 8.58423 38.1246 7.78004C38.9289 7.86264 39.7319 7.94523 40.5516 8.02773C40.4545 7.27604 40.4545 6.51733 40.5516 5.76573Z" fill="#FF4B55"/>
<path d="M14.0688 23.9725C13.249 24.0549 12.446 24.1375 11.6418 24.2201C11.7245 23.4159 11.807 22.6128 11.8895 21.7932C11.1378 21.8904 10.3792 21.8904 9.62746 21.7932C9.70986 22.6128 9.79246 23.416 9.87524 24.2201C9.07096 24.1376 8.2678 24.055 7.44824 23.9725C7.54546 24.7241 7.54546 25.4828 7.44824 26.2345C8.26799 26.1521 9.07105 26.0695 9.87524 25.9868C9.79255 26.791 9.70996 27.5941 9.62746 28.4138C10.3792 28.3165 11.1378 28.3165 11.8895 28.4138C11.8071 27.5941 11.7245 26.791 11.6418 25.9868C12.446 26.0694 13.2491 26.152 14.0688 26.2345C13.9716 25.4829 13.9716 24.7241 14.0688 23.9725Z" fill="#FF4B55"/>
<path d="M40.5516 23.9725C39.7318 24.0549 38.9288 24.1375 38.1246 24.2201C38.2073 23.4159 38.2898 22.6128 38.3724 21.7932C37.6206 21.8904 36.8621 21.8904 36.1103 21.7932C36.1927 22.6128 36.2753 23.416 36.3581 24.2201C35.5538 24.1376 34.7506 24.055 33.9311 23.9725C34.0283 24.7241 34.0283 25.4828 33.9311 26.2345C34.7508 26.1521 35.5539 26.0695 36.3581 25.9868C36.2754 26.791 36.1928 27.5941 36.1103 28.4138C36.8621 28.3165 37.6206 28.3165 38.3724 28.4138C38.29 27.5941 38.2073 26.791 38.1246 25.9868C38.9289 26.0694 39.7319 26.152 40.5516 26.2345C40.4545 25.4829 40.4545 24.7241 40.5516 23.9725Z" fill="#FF4B55"/>
</g>
<defs>
<clipPath id="clip0_11_4899">
<rect width="48" height="32" fill="white"/>
</clipPath>
</defs>
</svg>
