<svg width="48" height="32" viewBox="0 0 48 32" fill="none" xmlns="http://www.w3.org/2000/svg">
<g clip-path="url(#clip0_11_1545)">
<path d="M47.9999 10.7587H0V1.1035C0 0.646471 0.370593 0.275879 0.827623 0.275879H47.1724C47.6294 0.275879 48 0.646471 48 1.1035L47.9999 10.7587Z" fill="#FF4B55"/>
<path d="M47.1723 31.7242H0.827623C0.370593 31.7242 0 31.3536 0 30.8966V21.2415H47.9999V30.8966C47.9999 31.3537 47.6293 31.7242 47.1723 31.7242Z" fill="#73AF00"/>
<path d="M47.9999 10.7584H0V21.2406H47.9999V10.7584Z" fill="#FFE15A"/>
<path d="M24.3491 12.054L25.2128 14.6437L27.9426 14.6648C28.2959 14.6676 28.4426 15.1186 28.1583 15.3286L25.9623 16.9503L26.7857 19.5531C26.8924 19.89 26.5087 20.1688 26.2211 19.9632L24.0001 18.3756L21.7792 19.963C21.4918 20.1686 21.108 19.8898 21.2145 19.5529L22.0379 16.9501L19.8419 15.3284C19.5577 15.1184 19.7041 14.6675 20.0577 14.6647L22.7875 14.6435L23.6512 12.0538C23.763 11.7188 24.2372 11.7188 24.3491 12.054Z" fill="#464655"/>
</g>
<defs>
<clipPath id="clip0_11_1545">
<rect width="48" height="32" fill="white"/>
</clipPath>
</defs>
</svg>
