<svg width="48" height="32" viewBox="0 0 48 32" fill="none" xmlns="http://www.w3.org/2000/svg">
<g clip-path="url(#clip0_11_4202)">
<path d="M47.1723 31.7242H0.827623C0.370593 31.7242 0 31.3536 0 30.8966V1.10362C0 0.646594 0.370593 0.276001 0.827623 0.276001H47.1724C47.6294 0.276001 48 0.646594 48 1.10362V30.8966C47.9999 31.3537 47.6293 31.7242 47.1723 31.7242Z" fill="white"/>
<path d="M47.1723 31.7242H0.827623C0.370593 31.7242 0 31.3536 0 30.8966V20.9656H47.9999V30.8966C47.9999 31.3537 47.6293 31.7242 47.1723 31.7242Z" fill="#FF4B55"/>
<path d="M33.1033 11.8622V10.2071H31.4482V6.06916H32.2757V4.414H27.3103V6.06916H28.1378V10.2071H25.6551V4.414H26.4826V2.75885H21.5172V4.414H22.3447V10.2071H19.862V6.06916H20.6896V4.414H15.7241V6.06916H16.5516V10.2071H14.8965V11.8622H15.7241V18.4829H14.8965V20.1381H33.1033V18.4829H32.2757V11.8622H33.1033Z" fill="#FF4B55"/>
<path d="M25.6554 19.3101H22.345V15.9998C22.345 15.0856 23.086 14.3446 24.0002 14.3446C24.9144 14.3446 25.6554 15.0856 25.6554 15.9998V19.3101Z" fill="#464655"/>
<path d="M23.9999 7.724C23.5429 7.724 23.1723 8.09459 23.1723 8.55162V11.0344H24.8275V8.55162C24.8276 8.09459 24.457 7.724 23.9999 7.724Z" fill="#464655"/>
<path d="M29.7931 8.55151C29.336 8.55151 28.9654 8.92211 28.9654 9.37914V11.0343H30.6206V9.37914C30.6207 8.92201 30.2503 8.55151 29.7931 8.55151Z" fill="#464655"/>
<path d="M18.2068 8.55151C17.7498 8.55151 17.3792 8.92211 17.3792 9.37914V11.0343H19.0344V9.37914C19.0345 8.92201 18.6639 8.55151 18.2068 8.55151Z" fill="#464655"/>
<path d="M30.6205 19.3104H27.3102V16.8276C27.3102 15.9135 28.0512 15.1725 28.9654 15.1725C29.8795 15.1725 30.6205 15.9135 30.6205 16.8276V19.3104Z" fill="#464655"/>
<path d="M20.6896 19.3104H17.3793V16.8276C17.3793 15.9135 18.1203 15.1725 19.0345 15.1725C19.9486 15.1725 20.6896 15.9135 20.6896 16.8276V19.3104Z" fill="#464655"/>
<path d="M26.2756 22.2067C26.2756 22.0685 26.2065 21.9391 26.0914 21.8624L24.4135 20.744V20.3936L25.8399 19.6804C26.0445 19.5782 26.1272 19.3296 26.025 19.1252C25.9223 18.9204 25.6747 18.838 25.4698 18.9401L23.9997 19.6752L22.5296 18.9402C22.3259 18.8381 22.0766 18.9205 21.9745 19.1253C21.8723 19.3299 21.955 19.5783 22.1595 19.6805L23.5859 20.3936V20.744L21.9081 21.8626C21.793 21.9393 21.7239 22.0686 21.7239 22.2068C21.7239 22.3449 21.793 22.4743 21.9081 22.551L23.5859 23.6696V27.1723H21.9308V27.806C21.9308 28.0347 22.1158 28.2198 22.3446 28.2198C22.5029 28.2198 22.6407 28.1309 22.7103 27.9999H23.586V28.8276H22.7031C22.6316 28.7039 22.4979 28.6206 22.3447 28.6206C22.1159 28.6206 21.9309 28.8057 21.9309 29.0345V29.6552H23.586V30.069C23.586 30.2977 23.7711 30.4828 23.9998 30.4828C24.2286 30.4828 24.4136 30.2977 24.4136 30.069V29.6552V27.1724V23.6697L26.0915 22.5511C26.2065 22.4741 26.2756 22.3449 26.2756 22.2067ZM23.9997 22.9507L22.8836 22.2067L23.9997 21.4628L25.1158 22.2067L23.9997 22.9507Z" fill="#FFE15A"/>
</g>
<defs>
<clipPath id="clip0_11_4202">
<rect width="48" height="32" fill="white"/>
</clipPath>
</defs>
</svg>
