<svg width="48" height="32" viewBox="0 0 48 32" fill="none" xmlns="http://www.w3.org/2000/svg">
<g clip-path="url(#clip0_11_2609)">
<path d="M47.9999 15.9999H0V1.10336C0 0.646334 0.370593 0.275742 0.827623 0.275742H47.1724C47.6294 0.275742 48 0.646334 48 1.10336L47.9999 15.9999Z" fill="white"/>
<path d="M0 16H47.9999V30.8965C47.9999 31.3535 47.6293 31.7241 47.1723 31.7241H0.827623C0.370593 31.7241 0 31.3535 0 30.8965V16Z" fill="#FF4B55"/>
<path d="M16.5517 5.24135C10.6099 5.24135 5.79311 10.0582 5.79311 16H27.3103C27.3103 10.0582 22.4936 5.24135 16.5517 5.24135Z" fill="#FF4B55"/>
<path d="M16.5517 26.7586C22.4936 26.7586 27.3104 21.9417 27.3104 16H5.79311C5.79311 21.9418 10.61 26.7586 16.5517 26.7586Z" fill="white"/>
</g>
<defs>
<clipPath id="clip0_11_2609">
<rect width="48" height="32" fill="white"/>
</clipPath>
</defs>
</svg>
