<svg width="48" height="32" viewBox="0 0 48 32" fill="none" xmlns="http://www.w3.org/2000/svg">
<g clip-path="url(#clip0_11_3860)">
<path d="M47.9999 10.7588H0V1.10359C0 0.646563 0.370593 0.27597 0.827623 0.27597H47.1724C47.6294 0.27597 48 0.646563 48 1.10359L47.9999 10.7588Z" fill="#73AF00"/>
<path d="M47.1723 31.724H0.827623C0.370593 31.724 0 31.3534 0 30.8963V21.2412H47.9999V30.8963C47.9999 31.3535 47.6293 31.724 47.1723 31.724Z" fill="#FF4B55"/>
<path d="M47.9999 10.7587H0V21.2408H47.9999V10.7587Z" fill="white"/>
<path d="M12.0089 16.513C12.2463 16.2123 12.2463 15.788 12.0089 15.4873L0.218906 0.553284C0.0862498 0.700096 0 0.89022 0 1.10359V30.8966C0 31.11 0.0862498 31.3002 0.218906 31.4469L12.0089 16.513Z" fill="#4173CD"/>
<path d="M23.8013 16.7403C23.8013 16.7605 23.7947 18.706 23.2971 19.6631H24.6952C24.1976 18.7061 24.191 16.7605 24.191 16.7403C24.191 16.07 24.8858 15.5373 24.8929 15.532L24.6588 15.2206C24.6406 15.2343 24.409 15.4118 24.1911 15.7V15.1816H23.8014V15.7C23.5835 15.4118 23.3521 15.2342 23.3338 15.2206L23.0997 15.532C23.1067 15.5373 23.8013 16.0699 23.8013 16.7403Z" fill="#B46446"/>
<path d="M25.9448 14.4021C25.9329 14.4021 25.9219 14.4052 25.9101 14.4059C25.8307 14.1774 25.6157 14.0124 25.3601 14.0124C25.268 14.0124 25.182 14.0356 25.1045 14.0736C25.0219 13.9218 24.8631 13.8176 24.6782 13.8176C24.625 13.8176 24.5749 13.8283 24.527 13.8439C24.4233 13.5993 24.1811 13.4279 23.8989 13.4279C23.5519 13.4279 23.2687 13.6879 23.2257 14.0231C23.1908 14.0176 23.1558 14.0124 23.1195 14.0124C22.7428 14.0124 22.4375 14.3177 22.4375 14.6944C22.4375 14.7387 22.4425 14.7817 22.4505 14.8236C22.2779 14.8804 22.1422 15.0138 22.0826 15.185C22.0709 15.184 22.0597 15.1814 22.0478 15.1814C21.8325 15.1814 21.6581 15.356 21.6581 15.5712C21.6581 15.7864 21.8326 15.9609 22.0478 15.9609C22.1472 15.9609 22.237 15.9225 22.3058 15.8611C22.399 15.924 22.5114 15.9609 22.6324 15.9609C22.7395 15.9609 22.8384 15.93 22.9246 15.8798C23.0109 15.9299 23.1099 15.9609 23.2168 15.9609C23.5397 15.9609 23.8015 15.6991 23.8015 15.3763C23.8015 15.3515 23.7971 15.3281 23.7942 15.3042C23.885 15.3489 23.9857 15.3763 24.0939 15.3763C24.2294 15.3763 24.3549 15.3356 24.461 15.2674C24.5606 15.4476 24.7502 15.5711 24.9707 15.5711C25.0181 15.5711 25.0636 15.5639 25.1077 15.5533C25.2149 15.6822 25.3745 15.766 25.5552 15.766C25.7299 15.766 25.885 15.6879 25.992 15.5664C26.2924 15.5421 26.5296 15.2933 26.5296 14.9865C26.5293 14.6639 26.2676 14.4021 25.9448 14.4021Z" fill="#73AF00"/>
<path d="M25.3602 14.8892C25.3602 14.869 25.3644 14.8498 25.3662 14.83C25.262 14.9264 25.1238 14.9867 24.9705 14.9867C24.7669 14.9867 24.5881 14.8825 24.4834 14.7246C24.3787 14.8825 24.1998 14.9867 23.9963 14.9867C23.8397 14.9867 23.6984 14.9244 23.5934 14.8241C23.5327 15.1386 23.2567 15.3763 22.9245 15.3763C22.8908 15.3763 22.8585 15.3712 22.8262 15.3664C22.8263 15.3698 22.8272 15.373 22.8272 15.3763C22.8272 15.6311 22.6632 15.8455 22.4358 15.9256C22.4974 15.9476 22.5631 15.9609 22.6324 15.9609C22.7394 15.9609 22.8384 15.93 22.9246 15.8798C23.0109 15.9299 23.1099 15.9609 23.2168 15.9609C23.5397 15.9609 23.8014 15.6991 23.8014 15.3762C23.8014 15.3515 23.7971 15.328 23.7942 15.3041C23.885 15.3489 23.9857 15.3762 24.0939 15.3762C24.2294 15.3762 24.3548 15.3355 24.461 15.2674C24.5606 15.4476 24.7502 15.571 24.9707 15.571C25.018 15.571 25.0636 15.5639 25.1077 15.5532C25.2149 15.6821 25.3745 15.766 25.5551 15.766C25.7298 15.766 25.8848 15.6879 25.9919 15.5664L25.9931 15.5662C25.6398 15.5405 25.3602 15.249 25.3602 14.8892Z" fill="#5FA000"/>
<path d="M23.9963 20.9053C23.965 20.9053 23.9372 20.8854 23.927 20.8559C23.9196 20.834 23.7362 20.321 23.0221 20.321H22.0478C21.4702 20.321 21.0005 19.8511 21.0005 19.2737V12.8436C21.0005 12.8033 21.0333 12.7706 21.0736 12.7706H27.114C27.1543 12.7706 27.187 12.8033 27.187 12.8436V19.2737C27.187 19.8513 26.7171 20.321 26.1397 20.321H24.9706C24.2522 20.321 24.0674 20.8501 24.0657 20.8556C24.0557 20.8855 24.0279 20.9054 23.9965 20.9054L23.9963 20.9053ZM21.1465 12.9164V19.2735C21.1465 19.7704 21.5508 20.1747 22.0477 20.1747H23.022C23.6003 20.1747 23.8802 20.4853 23.9962 20.6719C24.1122 20.4851 24.3921 20.1747 24.9705 20.1747H26.1396C26.6366 20.1747 27.0408 19.7704 27.0408 19.2735V12.9164H21.1465Z" fill="#464655"/>
<path d="M23.2482 11.1059L23.4335 11.4023L23.7827 11.4144L23.6185 11.7229L23.7827 12.0314L23.4335 12.0435L23.2482 12.34L23.0631 12.0435L22.7139 12.0314L22.878 11.7229L22.7139 11.4144L23.0631 11.4023L23.2482 11.1059Z" fill="#FFE15A"/>
<path d="M21.6024 11.3745L21.8517 11.6194L22.1941 11.5496L22.1065 11.8879L22.3382 12.1496L22.0014 12.2429L21.8907 12.5743L21.6414 12.3294L21.2991 12.3992L21.3865 12.0609L21.155 11.7992L21.4917 11.7059L21.6024 11.3745Z" fill="#FFE15A"/>
<path d="M20.0229 11.842L20.3191 12.0274L20.6384 11.8853L20.626 12.2345L20.9086 12.44L20.6 12.6039L20.5634 12.9514L20.2671 12.766L19.9479 12.9081L19.9603 12.5589L19.6776 12.3534L19.9862 12.1895L20.0229 11.842Z" fill="#FFE15A"/>
<path d="M24.7516 11.1059L24.5664 11.4023L24.2172 11.4144L24.3813 11.7229L24.2172 12.0314L24.5664 12.0435L24.7516 12.34L24.9367 12.0435L25.2859 12.0314L25.1218 11.7229L25.2859 11.4144L24.9367 11.4023L24.7516 11.1059Z" fill="#FFE15A"/>
<path d="M26.3976 11.3745L26.1483 11.6194L25.8059 11.5496L25.8935 11.8879L25.6618 12.1496L25.9986 12.2429L26.1093 12.5743L26.3586 12.3294L26.7009 12.3992L26.6135 12.0609L26.845 11.7992L26.5083 11.7059L26.3976 11.3745Z" fill="#FFE15A"/>
<path d="M27.9769 11.842L27.6807 12.0274L27.3614 11.8853L27.3738 12.2345L27.0912 12.44L27.3998 12.6039L27.4364 12.9514L27.7327 12.766L28.0519 12.9081L28.0395 12.5589L28.3222 12.3534L28.0136 12.1895L27.9769 11.842Z" fill="#FFE15A"/>
</g>
<defs>
<clipPath id="clip0_11_3860">
<rect width="48" height="32" fill="white"/>
</clipPath>
</defs>
</svg>
