<svg width="48" height="32" viewBox="0 0 48 32" fill="none" xmlns="http://www.w3.org/2000/svg">
<g clip-path="url(#clip0_11_3707)">
<path d="M47.9999 3.77058H0V7.26465H47.9999V3.77058Z" fill="white"/>
<path d="M47.9999 10.7587H0V14.2527H47.9999V10.7587Z" fill="white"/>
<path d="M47.9999 17.7479H0V21.2419H47.9999V17.7479Z" fill="white"/>
<path d="M47.9999 21.2415H0V24.7355H47.9999V21.2415Z" fill="#41479B"/>
<path d="M47.9999 24.7355H0V28.2296H47.9999V24.7355Z" fill="white"/>
<path d="M0.827623 31.7244H47.1724C47.6294 31.7244 48 31.3538 48 30.8968V28.2301H0V30.8968C0 31.3539 0.370593 31.7244 0.827623 31.7244Z" fill="#41479B"/>
<path d="M47.9999 3.77031V1.10359C47.9999 0.646563 47.6293 0.27597 47.1723 0.27597H0.827623C0.370593 0.276064 0 0.646563 0 1.10359V7.26455V10.7587V17.7473H47.9999V14.253H16.5517V10.7588H47.9999V7.26455H16.5517V3.77031H47.9999Z" fill="#41479B"/>
<path d="M16.5517 7.26458H10.023V0.276093H6.52874V7.26458H0V10.7588H6.52874V17.7473H10.023V10.7588H16.5517V7.26458Z" fill="white"/>
</g>
<defs>
<clipPath id="clip0_11_3707">
<rect width="48" height="32" fill="white"/>
</clipPath>
</defs>
</svg>
