<svg width="48" height="32" viewBox="0 0 48 32" fill="none" xmlns="http://www.w3.org/2000/svg">
<g clip-path="url(#clip0_11_2383)">
<path d="M16 31.7239H0.827625C0.370594 31.7239 0 31.3533 0 30.8962V1.10314C0 0.646106 0.370594 0.275513 0.827625 0.275513H16V31.7239Z" fill="#82AFFF"/>
<path d="M32.0007 0.276001H16.0004V31.7244H32.0007V0.276001Z" fill="white"/>
<path d="M47.1724 31.7238H32V0.275574H47.1724C47.6294 0.275574 48 0.646167 48 1.1032V30.8963C48 31.3534 47.6294 31.7238 47.1724 31.7238Z" fill="#82AFFF"/>
<path d="M23.7913 11.885L23.3167 12.1224L23.7533 12.3026L23.7913 11.885Z" fill="#FFC855"/>
<path d="M24 20.6548C21.3623 20.6548 19.2166 18.5088 19.2166 15.8713C19.2166 14.2328 20.0413 12.7262 21.4226 11.8411L21.5454 12.0329C20.2297 12.876 19.4444 14.311 19.4444 15.8713C19.4444 18.3834 21.4881 20.427 24.0001 20.427L24 20.6548Z" fill="#73AF00"/>
<path d="M21.2625 20.9531C21.4447 20.9903 21.7259 20.9422 22.0146 20.8077C22.3035 20.6731 22.521 20.4888 22.6098 20.3254C22.4276 20.2883 22.1464 20.3363 21.8577 20.4708C21.569 20.6055 21.3513 20.7897 21.2625 20.9531Z" fill="#73AF00"/>
<path d="M22.6099 20.3254C22.6471 20.1432 22.599 19.862 22.4645 19.5733C22.3299 19.2844 22.1456 19.0669 21.9822 18.9781C21.9451 19.1603 21.9931 19.4415 22.1276 19.7302C22.2621 20.0188 22.4464 20.2365 22.6099 20.3254Z" fill="#73AF00"/>
<path d="M20.3095 20.3682C20.4844 20.4318 20.7695 20.4254 21.0749 20.3348C21.3802 20.2442 21.6227 20.0937 21.7345 19.9451C21.5597 19.8815 21.2745 19.8879 20.9691 19.9785C20.6638 20.0691 20.4214 20.2195 20.3095 20.3682Z" fill="#73AF00"/>
<path d="M21.7346 19.9449C21.7981 19.7701 21.7917 19.4849 21.7012 19.1796C21.6104 18.8741 21.4601 18.6318 21.3115 18.5199C21.2479 18.6948 21.2543 18.98 21.3448 19.2853C21.4355 19.5908 21.586 19.8332 21.7346 19.9449Z" fill="#73AF00"/>
<path d="M19.4279 19.5706C19.5885 19.6645 19.8702 19.7096 20.1869 19.6752C20.5037 19.6409 20.7691 19.5364 20.9058 19.4103C20.7452 19.3165 20.4636 19.2714 20.1468 19.3057C19.83 19.34 19.5646 19.4445 19.4279 19.5706Z" fill="#73AF00"/>
<path d="M20.9058 19.4102C20.9996 19.2496 21.0447 18.968 21.0104 18.6512C20.9761 18.3344 20.8716 18.069 20.7455 17.9323C20.6516 18.0929 20.6065 18.3745 20.6408 18.6913C20.6752 19.0081 20.7797 19.2736 20.9058 19.4102Z" fill="#73AF00"/>
<path d="M18.6992 18.4691C18.8405 18.5899 19.1098 18.6841 19.4276 18.7064C19.7454 18.7286 20.0253 18.6728 20.182 18.5729C20.0406 18.4521 19.7714 18.3579 19.4536 18.3357C19.1358 18.3134 18.856 18.3692 18.6992 18.4691Z" fill="#73AF00"/>
<path d="M20.1822 18.5729C20.3031 18.4316 20.3973 18.1623 20.4195 17.8445C20.4417 17.5267 20.3859 17.2469 20.2861 17.0901C20.1653 17.2315 20.071 17.5007 20.0488 17.8185C20.0265 18.1364 20.0823 18.4161 20.1822 18.5729Z" fill="#73AF00"/>
<path d="M18.2727 17.2558C18.3855 17.4036 18.6288 17.5524 18.9349 17.641C19.241 17.7296 19.5261 17.7339 19.7006 17.6692C19.5877 17.5214 19.3444 17.3726 19.0383 17.284C18.7322 17.1954 18.447 17.191 18.2727 17.2558Z" fill="#73AF00"/>
<path d="M19.7004 17.6693C19.8482 17.5564 19.997 17.3131 20.0856 17.007C20.1743 16.7009 20.1785 16.4158 20.1138 16.2414C19.9659 16.3542 19.8172 16.5975 19.7286 16.9036C19.64 17.2098 19.6358 17.4948 19.7004 17.6693Z" fill="#73AF00"/>
<path d="M18.0921 15.8391C18.1632 16.011 18.3601 16.2173 18.6331 16.3817C18.9061 16.5461 19.1805 16.6236 19.3657 16.6059C19.2946 16.434 19.0978 16.2277 18.8248 16.0633C18.5519 15.8989 18.2773 15.8216 18.0921 15.8391Z" fill="#73AF00"/>
<path d="M19.3657 16.6059C19.5377 16.5348 19.7439 16.3379 19.9083 16.0649C20.0727 15.7919 20.1502 15.5175 20.1325 15.3323C19.9606 15.4033 19.7543 15.6002 19.5899 15.8732C19.4256 16.1463 19.348 16.4207 19.3657 16.6059Z" fill="#73AF00"/>
<path d="M18.2633 14.5015C18.2967 14.6845 18.446 14.9275 18.6784 15.1455C18.9108 15.3635 19.1631 15.4967 19.3477 15.5183C19.3143 15.3353 19.165 15.0923 18.9326 14.8744C18.7001 14.6565 18.4481 14.5231 18.2633 14.5015Z" fill="#73AF00"/>
<path d="M19.3478 15.5185C19.5308 15.4851 19.7738 15.3357 19.9917 15.1033C20.2097 14.8709 20.3429 14.6186 20.3646 14.4341C20.1816 14.4674 19.9386 14.6168 19.7206 14.8492C19.5027 15.0815 19.3692 15.3336 19.3478 15.5185Z" fill="#73AF00"/>
<path d="M18.9354 13.0543C18.8972 13.2363 18.9434 13.5177 19.0761 13.8074C19.2089 14.0971 19.3919 14.3158 19.5547 14.4057C19.593 14.2238 19.5467 13.9423 19.414 13.6526C19.2812 13.3629 19.0983 13.144 18.9354 13.0543Z" fill="#73AF00"/>
<path d="M19.5543 14.4057C19.7363 14.444 20.0177 14.3978 20.3074 14.265C20.5971 14.1323 20.8158 13.9493 20.9057 13.7864C20.7237 13.7482 20.4423 13.7944 20.1526 13.9272C19.8629 14.0599 19.6441 14.2429 19.5543 14.4057Z" fill="#73AF00"/>
<path d="M19.7388 11.9825C19.653 12.1475 19.6218 12.431 19.6718 12.7457C19.7218 13.0604 19.8392 13.3204 19.9719 13.4506C20.0577 13.2856 20.0888 13.002 20.0389 12.6874C19.9889 12.3727 19.8714 12.1128 19.7388 11.9825Z" fill="#73AF00"/>
<path d="M19.9718 13.4507C20.1368 13.5365 20.4204 13.5676 20.735 13.5176C21.0497 13.4677 21.3097 13.3503 21.4399 13.2175C21.2749 13.1318 20.9913 13.1006 20.6767 13.1506C20.362 13.2006 20.102 13.318 19.9718 13.4507Z" fill="#73AF00"/>
<path d="M20.5267 11.2365C20.4176 11.3872 20.345 11.6629 20.3481 11.9815C20.3512 12.3002 20.4291 12.5745 20.5411 12.7229C20.6503 12.5723 20.7228 12.2965 20.7197 11.9779C20.7167 11.6593 20.6388 11.3848 20.5267 11.2365Z" fill="#73AF00"/>
<path d="M20.5411 12.7229C20.6918 12.832 20.9675 12.9046 21.2861 12.9015C21.6048 12.8984 21.8791 12.8205 22.0275 12.7085C21.8769 12.5993 21.6011 12.5268 21.2825 12.5299C20.9639 12.533 20.6896 12.611 20.5411 12.7229Z" fill="#73AF00"/>
<path d="M20.9233 12.3322C21.1087 12.3472 21.3821 12.2659 21.6527 12.0976C21.9233 11.9294 22.1173 11.7203 22.1859 11.5475C22.0006 11.5325 21.7271 11.6138 21.4566 11.782C21.186 11.9501 20.992 12.1592 20.9233 12.3322Z" fill="#73AF00"/>
<path d="M24 20.6547V20.4269C26.5119 20.4269 28.5557 18.3833 28.5557 15.8712C28.5557 14.3108 27.7703 12.8758 26.4547 12.0328L26.5775 11.841C27.9588 12.7261 28.7835 14.2328 28.7835 15.8712C28.7834 18.5087 26.6377 20.6547 24 20.6547Z" fill="#73AF00"/>
<path d="M26.7376 20.9531C26.5554 20.9903 26.2742 20.9422 25.9854 20.8077C25.6966 20.6731 25.479 20.4888 25.3902 20.3254C25.5725 20.2883 25.8536 20.3363 26.1424 20.4708C26.431 20.6055 26.6487 20.7897 26.7376 20.9531Z" fill="#73AF00"/>
<path d="M25.3901 20.3254C25.353 20.1432 25.4011 19.862 25.5355 19.5733C25.6702 19.2844 25.8545 19.0669 26.0179 18.9781C26.055 19.1603 26.0069 19.4415 25.8725 19.7302C25.7379 20.0188 25.5536 20.2365 25.3901 20.3254Z" fill="#73AF00"/>
<path d="M27.6907 20.3682C27.5158 20.4318 27.2306 20.4254 26.9253 20.3348C26.6199 20.2442 26.3775 20.0937 26.2657 19.9451C26.4405 19.8815 26.7257 19.8879 27.031 19.9785C27.3364 20.0691 27.5788 20.2195 27.6907 20.3682Z" fill="#73AF00"/>
<path d="M26.2653 19.9449C26.2018 19.7701 26.2081 19.4849 26.2987 19.1796C26.3894 18.8741 26.5398 18.6318 26.6884 18.5199C26.752 18.6948 26.7456 18.98 26.655 19.2853C26.5645 19.5908 26.414 19.8332 26.2653 19.9449Z" fill="#73AF00"/>
<path d="M28.5722 19.5706C28.4116 19.6645 28.13 19.7096 27.8132 19.6752C27.4964 19.6409 27.231 19.5364 27.0943 19.4103C27.2549 19.3165 27.5365 19.2714 27.8533 19.3057C28.1701 19.34 28.4355 19.4445 28.5722 19.5706Z" fill="#73AF00"/>
<path d="M27.0945 19.4102C27.0006 19.2496 26.9555 18.968 26.9898 18.6512C27.0242 18.3344 27.1287 18.069 27.2548 17.9323C27.3486 18.0929 27.3937 18.3745 27.3594 18.6913C27.3251 19.0081 27.2206 19.2736 27.0945 19.4102Z" fill="#73AF00"/>
<path d="M29.3007 18.4691C29.1594 18.5899 28.8901 18.6841 28.5723 18.7064C28.2545 18.7286 27.9747 18.6728 27.8179 18.5729C27.9593 18.4521 28.2285 18.3579 28.5463 18.3357C28.8641 18.3134 29.1439 18.3692 29.3007 18.4691Z" fill="#73AF00"/>
<path d="M27.818 18.5729C27.6972 18.4316 27.6029 18.1623 27.5807 17.8445C27.5585 17.5267 27.6143 17.2469 27.7141 17.0901C27.835 17.2315 27.9292 17.5007 27.9514 17.8185C27.9737 18.1364 27.9179 18.4161 27.818 18.5729Z" fill="#73AF00"/>
<path d="M29.7275 17.2558C29.6146 17.4036 29.3714 17.5524 29.0653 17.641C28.7593 17.7297 28.4741 17.7339 28.2996 17.6692C28.4125 17.5214 28.6558 17.3726 28.9619 17.284C29.2679 17.1954 29.5531 17.191 29.7275 17.2558Z" fill="#73AF00"/>
<path d="M28.2997 17.6693C28.1519 17.5564 28.0031 17.3131 27.9145 17.007C27.8258 16.7009 27.8216 16.4158 27.8863 16.2414C28.0341 16.3542 28.1829 16.5975 28.2715 16.9036C28.3601 17.2098 28.3643 17.4948 28.2997 17.6693Z" fill="#73AF00"/>
<path d="M29.9079 15.8391C29.8368 16.011 29.6399 16.2173 29.3669 16.3817C29.0939 16.5461 28.8195 16.6236 28.6343 16.6059C28.7053 16.434 28.9022 16.2277 29.1752 16.0633C29.4481 15.8989 29.7227 15.8216 29.9079 15.8391Z" fill="#73AF00"/>
<path d="M28.6344 16.6059C28.4624 16.5348 28.2562 16.3379 28.0917 16.0649C27.9274 15.7919 27.8499 15.5175 27.8676 15.3323C28.0395 15.4033 28.2458 15.6002 28.4102 15.8732C28.5746 16.1463 28.6521 16.4207 28.6344 16.6059Z" fill="#73AF00"/>
<path d="M29.7369 14.5015C29.7035 14.6845 29.5542 14.9275 29.3217 15.1455C29.0893 15.3635 28.8371 15.4967 28.6525 15.5183C28.6858 15.3353 28.8352 15.0923 29.0676 14.8744C29.3 14.6564 29.5521 14.5231 29.7369 14.5015Z" fill="#73AF00"/>
<path d="M28.6524 15.5185C28.4694 15.4851 28.2264 15.3357 28.0084 15.1033C27.7905 14.8709 27.6573 14.6186 27.6356 14.4341C27.8186 14.4674 28.0616 14.6168 28.2796 14.8492C28.4975 15.0815 28.6309 15.3336 28.6524 15.5185Z" fill="#73AF00"/>
<path d="M29.0648 13.0543C29.1031 13.2363 29.0568 13.5177 28.9241 13.8074C28.7913 14.0971 28.6083 14.3158 28.4455 14.4057C28.4072 14.2238 28.4534 13.9423 28.5862 13.6526C28.719 13.3629 28.902 13.144 29.0648 13.0543Z" fill="#73AF00"/>
<path d="M28.4457 14.4057C28.2638 14.444 27.9823 14.3978 27.6926 14.265C27.403 14.1323 27.1842 13.9493 27.0943 13.7864C27.2763 13.7482 27.5577 13.7944 27.8474 13.9272C28.1371 14.0599 28.3559 14.2429 28.4457 14.4057Z" fill="#73AF00"/>
<path d="M28.2615 11.9825C28.3472 12.1475 28.3784 12.431 28.3284 12.7457C28.2784 13.0604 28.1611 13.3204 28.0283 13.4506C27.9425 13.2856 27.9114 13.002 27.9614 12.6874C28.0114 12.3727 28.1288 12.1128 28.2615 11.9825Z" fill="#73AF00"/>
<path d="M28.0279 13.4507C27.8629 13.5365 27.5793 13.5676 27.2647 13.5176C26.95 13.4677 26.69 13.3503 26.5598 13.2175C26.7248 13.1318 27.0084 13.1006 27.323 13.1506C27.6377 13.2006 27.8977 13.318 28.0279 13.4507Z" fill="#73AF00"/>
<path d="M27.4735 11.2365C27.5827 11.3872 27.6552 11.6629 27.6521 11.9815C27.649 12.3002 27.5711 12.5745 27.4591 12.7229C27.35 12.5723 27.2774 12.2965 27.2805 11.9779C27.2836 11.6593 27.3614 11.3848 27.4735 11.2365Z" fill="#73AF00"/>
<path d="M27.4589 12.7229C27.3082 12.832 27.0325 12.9046 26.7138 12.9015C26.3952 12.8984 26.1209 12.8205 25.9725 12.7085C26.1231 12.5993 26.3988 12.5268 26.7175 12.5299C27.0362 12.533 27.3104 12.611 27.4589 12.7229Z" fill="#73AF00"/>
<path d="M27.0765 12.3322C26.8911 12.3472 26.6177 12.2659 26.3471 12.0976C26.0765 11.9294 25.8825 11.7203 25.8139 11.5475C25.9992 11.5325 26.2727 11.6138 26.5432 11.782C26.8138 11.9501 27.0078 12.1592 27.0765 12.3322Z" fill="#73AF00"/>
<path d="M21.3888 19.5952L20.5596 20.4244L20.1508 19.6066L21.3774 18.3799L21.7863 18.7888L21.6681 19.1431C21.6113 19.3135 21.5157 19.4683 21.3888 19.5952Z" fill="#966446"/>
<path d="M25.8746 13.4737L21.3773 17.9711C21.2644 18.084 21.2644 18.2671 21.3773 18.38L21.5816 18.5843L22.3994 17.7665L25.6703 14.0868L26.0791 13.6779L25.8746 13.4737Z" fill="#B9B9B9"/>
<path d="M22.4843 17.2732C22.4301 17.3274 22.3995 17.401 22.3995 17.4776V17.7667L25.6703 14.0869L22.4843 17.2732Z" fill="#966446"/>
<path d="M26.0792 13.6781L25.8748 13.4737L25.6703 13.6781L25.8748 13.8826L26.0792 14.0871L28.328 11.4296L26.0792 13.6781Z" fill="#A0A0A0"/>
<path d="M26.8392 19.5952L27.6683 20.4244L28.0772 19.6066L26.8505 18.3799L26.4417 18.7888L26.5598 19.1431C26.6166 19.3135 26.7122 19.4683 26.8392 19.5952Z" fill="#966446"/>
<path d="M22.3531 13.4737L26.8505 17.9711C26.9634 18.084 26.9634 18.2671 26.8505 18.38L26.6461 18.5843L25.8284 17.7665L22.5575 14.0868L22.1487 13.6779L22.3531 13.4737Z" fill="#B9B9B9"/>
<path d="M25.7436 17.2732C25.7977 17.3274 25.8283 17.401 25.8283 17.4776V17.7667L22.5574 14.0869L25.7436 17.2732Z" fill="#966446"/>
<path d="M22.1486 13.6781L22.353 13.4737L22.5575 13.6781L22.353 13.8826L22.1486 14.0871L19.8998 11.4296L22.1486 13.6781Z" fill="#A0A0A0"/>
<path d="M22.4358 19.4251L22.639 19.6103C23.3802 18.7977 24.6772 17.3756 26.7333 15.5294C26.7334 15.5295 25.03 16.581 22.4358 19.4251Z" fill="#B9B9B9"/>
<path d="M21.8609 20.2592C21.7879 20.1926 21.7828 20.0796 21.8493 20.0066L22.2846 19.5292C22.3512 19.4563 22.4642 19.4511 22.5372 19.5176C22.6101 19.5842 22.6153 19.6972 22.5488 19.7702L22.1134 20.2476C22.0469 20.3206 21.9338 20.3258 21.8609 20.2592Z" fill="#FFE15A"/>
<path d="M22.2707 19.2747L22.1528 19.3273C22.0479 19.3796 21.7719 19.5357 21.7244 19.7581C21.7017 19.8635 21.7336 19.9662 21.8155 20.0633C21.8233 20.0432 21.8339 20.0237 21.8493 20.0069L21.9042 19.9468C21.8671 19.893 21.8475 19.8402 21.8586 19.7871C21.8884 19.648 22.074 19.5237 22.1907 19.4622L22.7123 19.9379L22.842 19.7957L22.2707 19.2747Z" fill="#FFC855"/>
<path d="M25.7901 19.6501L25.5869 19.8353C24.8457 19.0227 23.5487 17.6006 21.4925 15.7545C21.4924 15.7546 23.1959 16.8059 25.7901 19.6501Z" fill="#B9B9B9"/>
<path d="M26.3649 20.4843C26.4379 20.4177 26.443 20.3047 26.3766 20.2317L25.9412 19.7543C25.8746 19.6814 25.7615 19.6762 25.6886 19.7427C25.6157 19.8093 25.6105 19.9223 25.677 19.9953L26.1124 20.4727C26.1789 20.5457 26.292 20.5508 26.3649 20.4843Z" fill="#FFE15A"/>
<path d="M25.955 19.4996L26.073 19.5522C26.1779 19.6044 26.4539 19.7605 26.5014 19.983C26.5241 20.0884 26.4921 20.191 26.4103 20.2881C26.4025 20.2681 26.3919 20.2487 26.3764 20.2318L26.3216 20.1717C26.3586 20.1179 26.3783 20.065 26.3672 20.012C26.3374 19.8728 26.1517 19.7486 26.0351 19.687L25.5135 20.1628L25.3837 20.0206L25.955 19.4996Z" fill="#FFC855"/>
<path d="M24.2025 12.1266C24.2184 12.0871 24.2277 12.0442 24.2277 11.9989C24.2277 11.8102 24.0747 11.6572 23.886 11.6572C23.6973 11.6572 23.5443 11.8102 23.5443 11.9989C23.5443 12.1114 23.5993 12.2103 23.6832 12.2726C23.5596 13.2649 24.5381 13.3408 24.9109 13.4795C25.4766 13.6899 26.1862 14.1158 26.1416 15.3062C26.0983 16.4632 25.3666 17.5797 25.3666 17.5797L25.974 16.7539C25.7519 17.6933 25.2333 18.8899 23.9999 20.313C23.9999 20.313 24.8432 19.4881 25.5469 18.4243C25.0291 19.6424 24.4554 20.7685 24.4554 20.7685C24.4554 20.7685 25.471 19.4493 26.292 17.1667C27.2872 14.3994 25.1936 12.7369 24.2025 12.1266Z" fill="#69B469"/>
<path d="M23.3174 16.2126H22.4062V16.6682H23.3174V16.2126Z" fill="#F4E08F"/>
<path d="M22.4061 17.1239C22.6578 17.1239 22.8618 16.9199 22.8618 16.6682C22.8618 16.4166 22.6578 16.2126 22.4061 16.2126C22.1545 16.2126 21.9505 16.4166 21.9505 16.6682C21.9505 16.9199 22.1545 17.1239 22.4061 17.1239Z" fill="#ECD077"/>
<path d="M22.4061 14.1633C22.6578 14.1633 22.8618 13.9593 22.8618 13.7076C22.8618 13.456 22.6578 13.252 22.4061 13.252C22.1545 13.252 21.9505 13.456 21.9505 13.7076C21.9505 13.9593 22.1545 14.1633 22.4061 14.1633Z" fill="#ECD077"/>
<path d="M25.139 14.1629C25.3907 14.1629 25.5947 13.9589 25.5947 13.7072C25.5947 13.4556 25.3907 13.2516 25.139 13.2516H22.4057C22.6573 13.2516 22.8613 13.4556 22.8613 13.7072C22.8613 13.9589 22.6573 14.1629 22.4057 14.1629C22.154 14.1629 21.95 13.9589 21.95 13.7072C21.95 14.472 22.59 15.3965 22.7963 16.2129C22.7963 16.2129 22.8612 16.4169 22.8612 16.6685C22.8612 16.9201 22.6572 17.1241 22.4056 17.1241H25.1389C25.3906 17.1241 25.5946 16.9201 25.5946 16.6685C25.5946 15.9038 24.9546 14.9792 24.7483 14.1629H25.139Z" fill="#FCF0A8"/>
<path d="M22.861 13.7074C22.861 13.9591 22.657 14.1631 22.4053 14.1631H25.1387C25.3903 14.1631 25.5943 13.9591 25.5943 13.7074H22.861Z" fill="#F4E08F"/>
<path d="M22.861 16.6685C22.861 16.9201 22.657 17.1241 22.4053 17.1241H25.1387C25.3903 17.1241 25.5943 16.9201 25.5943 16.6685H22.861Z" fill="#F4E08F"/>
</g>
<defs>
<clipPath id="clip0_11_2383">
<rect width="48" height="32" fill="white"/>
</clipPath>
</defs>
</svg>
