<svg width="48" height="32" viewBox="0 0 48 32" fill="none" xmlns="http://www.w3.org/2000/svg">
<g clip-path="url(#clip0_11_4110)">
<path d="M47.1723 31.7242H0.827623C0.370593 31.7242 0 31.3536 0 30.8966V1.10362C0 0.646594 0.370593 0.276001 0.827623 0.276001H47.1724C47.6294 0.276001 48 0.646594 48 1.10362V30.8966C47.9999 31.3537 47.6293 31.7242 47.1723 31.7242Z" fill="#41479B"/>
<path d="M23.9999 7.724C20.8547 9.37878 18.7335 13.3199 18.7335 15.9999C18.7335 18.6798 20.8547 22.621 23.9999 24.2757C27.1451 22.6209 29.2663 18.6798 29.2663 15.9999C29.2663 13.3199 27.1452 9.37878 23.9999 7.724Z" fill="#3CC8FF"/>
<path d="M24.6791 13.1662C25.1872 12.8984 26.0548 12.6037 27.0406 12.9654C27.0406 12.9654 26.0912 11.9078 24.7736 12.7695C25.1281 12.3397 25.6604 11.8075 26.2369 11.6593C26.2369 11.6593 25.0896 11.2309 24.3955 12.7608C24.53 11.9891 24.5055 10.7741 23.2617 10.0688C23.2617 10.0688 23.9571 11.5613 24.0255 12.7997C23.9851 12.5799 23.9042 12.3502 23.6906 12.1275C23.033 11.4413 22.4612 11.3842 22.4612 11.3842C22.4612 11.3842 23.373 12.3946 23.821 13.3506C23.5629 13.0417 23.1081 12.6463 22.3754 12.6707C20.6598 12.7279 20.2881 13.7572 20.2881 13.7572C20.9993 13.4577 22.128 13.3086 23.003 13.3825C21.8734 13.5816 21.472 14.9888 21.472 14.9888C22.3791 13.8578 23.3691 13.6741 23.7643 13.6472C23.0422 14.2445 23.0862 15.3444 23.0862 15.3444C23.254 14.7252 23.9041 14.0195 24.2209 13.7032C25.0738 14.6259 25.1748 15.6632 25.1748 15.6632C25.1748 15.6632 25.3614 15.3511 25.2754 14.7159C25.194 14.1163 24.8177 13.7227 24.5305 13.4914C26.0365 13.6989 27.0192 14.7913 27.0192 14.7913C26.5266 13.3539 25.2935 13.1667 24.6791 13.1662Z" fill="#73AF00"/>
<path d="M46.3447 1.93115V30.0689H1.65515V1.93115H46.3447ZM47.1723 0.276001H0.827623C0.370593 0.276001 0 0.646594 0 1.10362V30.8966C0 31.3536 0.370593 31.7242 0.827623 31.7242H47.1724C47.6294 31.7242 48 31.3536 48 30.8966V1.10362C47.9999 0.646594 47.6293 0.276001 47.1723 0.276001Z" fill="#FF4B55"/>
<path d="M22.3189 18.0003L23.0777 16.6899L29.3104 16.552L28.8966 18.2761L22.3189 18.0003Z" fill="#FF965A"/>
<path d="M18.9608 17.6553C19.5855 20.1071 21.4574 22.9384 23.9998 24.276C26.5422 22.9384 28.4141 20.1071 29.0389 17.6553H18.9608Z" fill="#4173CD"/>
<path d="M19.862 20.1377C19.862 20.1377 21.6671 20.0484 22.7516 20.4937C23.0226 20.6049 23.0576 20.9709 22.8129 21.1318C22.2847 21.4795 21.5171 22.0778 21.5171 22.6205L19.862 20.1377Z" fill="#FFE15A"/>
<path d="M23.0344 23.448C22.9654 22.7583 23.5756 22.2567 24.4137 21.9307C25.4999 21.5084 24.905 20.8359 24.3619 20.3963C23.7142 19.8721 24.5516 19.724 28.0688 19.655L26.3446 22.3446L23.9999 24.2757L23.0344 23.448Z" fill="#FFE15A"/>
<path d="M23.9999 24.7439L23.8072 24.6421C20.5248 22.9158 18.3195 18.7796 18.3195 16.0002C18.3195 13.2209 20.5246 9.08444 23.8072 7.35822L23.9999 7.25641L24.1927 7.35822C27.4751 9.08453 29.6802 13.2208 29.6802 16.0002C29.6802 18.7795 27.4751 22.9159 24.1927 24.6421L23.9999 24.7439ZM23.9999 8.1955C21.0884 9.8394 19.1471 13.5166 19.1471 16.0001C19.1471 18.4835 21.0884 22.1609 23.9999 23.8046C26.9114 22.1607 28.8527 18.4835 28.8527 16.0001C28.8527 13.5166 26.9115 9.83931 23.9999 8.1955Z" fill="#FF4B55"/>
<path d="M25.7586 20.7241C25.7206 20.7241 25.6827 20.714 25.6486 20.6925C24.524 19.9857 23.8792 18.8158 23.8792 17.4828V13.6726C23.8792 13.5583 23.9718 13.4657 24.0861 13.4657C24.2004 13.4657 24.293 13.5583 24.293 13.6726V17.4828C24.293 18.6704 24.8672 19.7126 25.8685 20.3418C25.9655 20.4028 25.9946 20.5305 25.9339 20.6271C25.8944 20.6898 25.8273 20.7241 25.7586 20.7241Z" fill="#A54B37"/>
<path d="M24.0862 14.138C24.3362 14.138 24.5388 13.9353 24.5388 13.6854C24.5388 13.4354 24.3362 13.2327 24.0862 13.2327C23.8362 13.2327 23.6335 13.4354 23.6335 13.6854C23.6335 13.9353 23.8362 14.138 24.0862 14.138Z" fill="#A54B37"/>
</g>
<defs>
<clipPath id="clip0_11_4110">
<rect width="48" height="32" fill="white"/>
</clipPath>
</defs>
</svg>
