<svg width="48" height="32" viewBox="0 0 48 32" fill="none" xmlns="http://www.w3.org/2000/svg">
<g clip-path="url(#clip0_11_1581)">
<path d="M47.9999 15.9999H0V1.10338C0 0.646349 0.370593 0.275757 0.827623 0.275757H47.1724C47.6294 0.275757 48 0.646349 48 1.10338L47.9999 15.9999Z" fill="#FFE15A"/>
<path d="M0 15.9999H47.9999V30.8965C47.9999 31.3535 47.6293 31.7241 47.1723 31.7241H0.827623C0.370593 31.7241 0 31.3535 0 30.8965V15.9999Z" fill="#73AF00"/>
<path d="M15.7241 0.275851V31.724H0.827623C0.370593 31.724 0 31.3534 0 30.8964V1.10338C0 0.646349 0.370593 0.275757 0.827623 0.275757H15.7241V0.275851Z" fill="#FF4B55"/>
<path d="M7.70595 11.8711L6.79367 14.6067L3.91002 14.629C3.75195 14.6302 3.68633 14.832 3.81364 14.9259L6.13339 16.6389L5.26358 19.3882C5.21586 19.539 5.38751 19.6636 5.51614 19.5718L7.86213 17.895L10.2081 19.5719C10.3368 19.6639 10.5083 19.5391 10.4607 19.3884L9.59088 16.6391L11.9106 14.9261C12.0378 14.8322 11.9723 14.6304 11.8143 14.6292L8.9306 14.6069L8.01832 11.8713C7.96807 11.7212 7.75601 11.7212 7.70595 11.8711Z" fill="#464655"/>
</g>
<defs>
<clipPath id="clip0_11_1581">
<rect width="48" height="32" fill="white"/>
</clipPath>
</defs>
</svg>
