<svg width="48" height="32" viewBox="0 0 48 32" fill="none" xmlns="http://www.w3.org/2000/svg">
<g clip-path="url(#clip0_11_3802)">
<path d="M47.1723 31.7243H0.827623C0.370593 31.7243 0 31.3537 0 30.8966V1.10359C0 0.646563 0.370593 0.27597 0.827623 0.27597H47.1724C47.6294 0.27597 48 0.646563 48 1.10359V30.8966C47.9999 31.3538 47.6293 31.7243 47.1723 31.7243Z" fill="#FF4B55"/>
<path d="M21.0445 17.2117C20.0013 17.2225 18.8298 16.8884 17.8033 15.7569C17.7325 15.6789 17.7425 15.556 17.8229 15.4879L17.8232 15.4876C17.9012 15.4215 18.0165 15.4317 18.0854 15.5074C19.6501 17.2255 21.5894 16.9247 22.7481 16.5095C22.32 16.5286 21.7822 16.4964 21.4362 16.2691C19.9911 15.3191 20.6456 14.3085 19.6858 13.0868C18.7321 11.873 17.8739 11.9027 16.5226 12.1075C15.1848 12.3102 14.7586 11.3289 14.626 10.7843C14.6022 10.6867 14.4661 10.6806 14.4312 10.7747C12.7638 15.2797 17.7775 20.8541 22.9251 16.846C22.4171 17.033 21.7629 17.2044 21.0445 17.2117ZM17.2883 15.6829C17.259 15.7634 17.1442 15.7602 17.1193 15.6783L16.9273 15.0455L16.2665 15.0224C16.1809 15.0194 16.1485 14.9092 16.2187 14.8603L16.7611 14.4822L16.579 13.8465C16.5553 13.7643 16.6501 13.6993 16.7184 13.7509L17.2456 14.1499L17.7939 13.7801C17.8648 13.7322 17.9559 13.8022 17.9278 13.8831L17.7113 14.5079L18.2323 14.915C18.2997 14.9678 18.2613 15.076 18.1757 15.0743L17.5146 15.0614L17.2883 15.6829Z" fill="white"/>
<path d="M24.7375 14.2185C25.5659 13.5842 26.7036 13.1491 28.2036 13.4387C28.307 13.4587 28.3728 13.563 28.3494 13.6657L28.3493 13.6661C28.3265 13.7658 28.2281 13.8268 28.1276 13.8075C25.8451 13.3709 24.4736 14.7747 23.7955 15.8017C24.1266 15.5297 24.5763 15.2329 24.9895 15.2075C26.7156 15.1009 26.7978 16.3023 28.2987 16.7042C29.7898 17.1035 30.4587 16.5652 31.4174 15.5908C32.3663 14.6263 33.2959 15.1559 33.7286 15.5122C33.806 15.576 33.9186 15.4993 33.8901 15.4032C32.5227 10.7982 25.1674 9.34442 23.4521 15.6388C23.7462 15.1847 24.167 14.6552 24.7375 14.2185ZM28.6602 13.1892C28.6353 13.1072 28.7292 13.0409 28.7982 13.0915L29.3312 13.4826L29.8739 13.1048C29.9442 13.0559 30.0362 13.1246 30.0095 13.2059L29.8022 13.8338L30.3292 14.2332C30.3974 14.2849 30.3605 14.3938 30.275 14.3933L29.6138 14.3902L29.3969 15.0149C29.3687 15.0958 29.2539 15.0943 29.2278 15.0128L29.0265 14.383L28.3653 14.3697C28.2797 14.3679 28.2456 14.2583 28.3152 14.2083L28.852 13.8222L28.6602 13.1892Z" fill="white"/>
<path d="M21.9747 14.6525C21.5679 13.6918 21.431 12.4814 22.0868 11.1016C22.132 11.0064 22.2494 10.9688 22.343 11.0173L22.3434 11.0175C22.4342 11.0644 22.4685 11.1751 22.4249 11.2675C21.4313 13.3683 22.4475 15.0473 23.2722 15.9607C23.0917 15.572 22.9169 15.0625 22.9955 14.656C23.3241 12.9581 24.5078 13.1789 25.2723 11.8263C26.0319 10.4824 25.6779 9.7001 24.9744 8.52832C24.2778 7.36826 25.0232 6.60073 25.4764 6.27092C25.5575 6.21186 25.5114 6.0837 25.4112 6.08726C20.6106 6.25948 17.3633 13.0173 23.0285 16.2524C22.6624 15.8539 22.255 15.3141 21.9747 14.6525ZM21.9593 10.5971C21.8737 10.6007 21.833 10.4932 21.8993 10.4391L22.4113 10.0208L22.1813 9.40085C22.1515 9.3206 22.2411 9.2486 22.313 9.29492L22.8691 9.65267L23.3875 9.24232C23.4547 9.18917 23.5508 9.25207 23.5289 9.33495L23.3605 9.97432L23.911 10.3406C23.9822 10.388 23.9521 10.4989 23.8667 10.5037L23.2065 10.5411L23.0283 11.1779C23.0052 11.2603 22.8905 11.2659 22.8595 11.1861L22.6198 10.5699L21.9593 10.5971Z" fill="white"/>
<path d="M25.7153 16.8326C26.5776 17.4199 27.3482 18.3634 27.5441 19.8785C27.5577 19.983 27.4793 20.0782 27.3744 20.0882H27.3738C27.272 20.0979 27.1832 20.0235 27.1699 19.9222C26.8675 17.6181 25.1039 16.7569 23.9158 16.4356C24.278 16.6646 24.701 16.9983 24.855 17.3826C25.4983 18.9879 24.3836 19.4434 24.4734 20.9945C24.5625 22.5355 25.2839 23.0015 26.51 23.6056C27.7238 24.2036 27.5129 25.2524 27.3104 25.7752C27.2742 25.8689 27.3823 25.9516 27.4646 25.8943C31.407 23.1497 30.4772 15.7102 23.9626 16.0586C24.4868 16.1951 25.1215 16.4283 25.7153 16.8326ZM27.9247 20.2335C27.9947 20.1842 28.087 20.2525 28.0607 20.3338L27.8568 20.9628L28.3859 21.3594C28.4544 21.4107 28.4182 21.5198 28.3326 21.5199L27.6714 21.5202L27.4577 22.146C27.43 22.227 27.3151 22.2262 27.2887 22.1448L27.0839 21.516L26.4228 21.5062C26.3371 21.5049 26.3025 21.3954 26.3717 21.345L26.9064 20.9559L26.7115 20.3241C26.6862 20.2422 26.7796 20.1754 26.8489 20.2257L27.3841 20.614L27.9247 20.2335Z" fill="white"/>
<path d="M23.5585 18.7023C23.2615 19.7024 22.5972 20.7235 21.2135 21.3712C21.1181 21.416 21.0036 21.3702 20.9622 21.2734L20.962 21.273C20.9218 21.179 20.9656 21.0718 21.0581 21.0282C23.1609 20.039 23.4447 18.0971 23.3892 16.8676C23.2813 17.2823 23.0921 17.7867 22.773 18.0504C21.4396 19.1517 20.6664 18.2285 19.2162 18.786C17.7752 19.3399 17.5509 20.1688 17.3485 21.5206C17.1482 22.8588 16.0848 22.977 15.5253 22.9433C15.4252 22.9373 15.3792 23.0655 15.4588 23.1265C19.2729 26.0468 26.0767 22.8974 23.7626 16.7977C23.792 17.3379 23.7631 18.0135 23.5585 18.7023ZM20.9911 21.8416C21.0593 21.8933 21.0225 22.002 20.9369 22.0017L20.2757 21.9988L20.059 22.6236C20.031 22.7045 19.916 22.703 19.89 22.6215L19.6883 21.9917L19.0272 21.9785C18.9416 21.9769 18.9074 21.8672 18.9769 21.8172L19.5136 21.4309L19.3217 20.798C19.2969 20.7161 19.3906 20.6497 19.4596 20.7004L19.9929 21.0913L20.5355 20.7133C20.6057 20.6644 20.6978 20.7331 20.6711 20.8144L20.4641 21.4423L20.9911 21.8416Z" fill="white"/>
</g>
<defs>
<clipPath id="clip0_11_3802">
<rect width="48" height="32" fill="white"/>
</clipPath>
</defs>
</svg>
