<svg width="48" height="32" viewBox="0 0 48 32" fill="none" xmlns="http://www.w3.org/2000/svg">
<g clip-path="url(#clip0_11_1070)">
<path d="M47.9999 10.7588H0V1.10362C0 0.646594 0.370593 0.276001 0.827623 0.276001H47.1724C47.6294 0.276001 48 0.646594 48 1.10362L47.9999 10.7588Z" fill="#4173CD"/>
<path d="M47.1723 31.7242H0.827623C0.370593 31.7242 0 31.3537 0 30.8966V21.2415H47.9999V30.8966C47.9999 31.3537 47.6293 31.7242 47.1723 31.7242Z" fill="#4173CD"/>
<path d="M47.9999 10.7584H0V21.2406H47.9999V10.7584Z" fill="white"/>
<path d="M24.1197 14.6479L24.4158 15.536L25.3519 15.5432C25.4731 15.5442 25.5233 15.6989 25.4259 15.7709L24.6728 16.327L24.9552 17.2196C24.9916 17.3352 24.8602 17.4307 24.7615 17.3603L24 16.8159L23.2383 17.3602C23.1397 17.4306 23.0082 17.3351 23.0446 17.2195L23.327 16.3269L22.5739 15.7708C22.4765 15.6988 22.5267 15.5441 22.6479 15.5431L23.584 15.5359L23.8801 14.6478C23.9187 14.533 24.0812 14.533 24.1197 14.6479Z" fill="#4173CD"/>
<path d="M15.6658 17.0314L15.962 17.9195L16.8981 17.9267C17.0193 17.9276 17.0694 18.0823 16.972 18.1543L16.2189 18.7104L16.5013 19.603C16.5379 19.7186 16.4063 19.8142 16.3076 19.7438L15.546 19.1994L14.7844 19.7438C14.6858 19.8142 14.5542 19.7186 14.5907 19.603L14.8731 18.7104L14.12 18.1543C14.0226 18.0823 14.0727 17.9276 14.1939 17.9267L15.13 17.9195L15.4262 17.0314C15.4648 16.9165 15.6275 16.9165 15.6658 17.0314Z" fill="#4173CD"/>
<path d="M15.6658 12.2644L15.962 13.1525L16.8981 13.1597C17.0193 13.1607 17.0694 13.3153 16.972 13.3873L16.2189 13.9435L16.5013 14.8361C16.5379 14.9517 16.4063 15.0472 16.3076 14.9768L15.546 14.4325L14.7844 14.9768C14.6858 15.0472 14.5542 14.9517 14.5907 14.8361L14.8731 13.9435L14.12 13.3873C14.0226 13.3153 14.0727 13.1607 14.1939 13.1597L15.13 13.1525L15.4262 12.2644C15.4648 12.1496 15.6275 12.1496 15.6658 12.2644Z" fill="#4173CD"/>
<path d="M32.573 17.0314L32.8691 17.9195L33.8052 17.9267C33.9264 17.9276 33.9766 18.0823 33.8792 18.1543L33.1261 18.7104L33.4085 19.603C33.445 19.7186 33.3135 19.8142 33.2148 19.7438L32.4531 19.1994L31.6915 19.7438C31.5929 19.8142 31.4614 19.7186 31.4978 19.603L31.7802 18.7104L31.0271 18.1543C30.9295 18.0823 30.9799 17.9276 31.1011 17.9267L32.0372 17.9195L32.3333 17.0314C32.372 16.9165 32.5346 16.9165 32.573 17.0314Z" fill="#4173CD"/>
<path d="M32.573 12.2644L32.8691 13.1525L33.8052 13.1597C33.9264 13.1607 33.9766 13.3153 33.8792 13.3873L33.1261 13.9435L33.4085 14.8361C33.445 14.9517 33.3135 15.0472 33.2148 14.9768L32.4531 14.4325L31.6915 14.9768C31.5929 15.0472 31.4614 14.9517 31.4978 14.8361L31.7802 13.9435L31.0271 13.3873C30.9295 13.3153 30.9799 13.1607 31.1011 13.1597L32.0372 13.1525L32.3333 12.2644C32.372 12.1496 32.5346 12.1496 32.573 12.2644Z" fill="#4173CD"/>
</g>
<defs>
<clipPath id="clip0_11_1070">
<rect width="48" height="32" fill="white"/>
</clipPath>
</defs>
</svg>
