<svg width="48" height="32" viewBox="0 0 48 32" fill="none" xmlns="http://www.w3.org/2000/svg">
<g clip-path="url(#clip0_11_3611)">
<path d="M0 21.2413H47.9999V30.8965C47.9999 31.3535 47.6293 31.7241 47.1723 31.7241H0.827623C0.370593 31.7241 0 31.3535 0 30.8965V21.2413Z" fill="#41479B"/>
<path d="M0.827623 0.27597H47.1724C47.6294 0.27597 48 0.646563 48 1.10359V10.7587H0V1.10359C0 0.646563 0.370593 0.27597 0.827623 0.27597Z" fill="#FF4B55"/>
<path d="M47.9999 10.7583H0V21.2405H47.9999V10.7583Z" fill="white"/>
<path d="M20.5244 11.034H18.2072V13.6824H20.5244V11.034Z" fill="#FF4B55"/>
<path d="M25.1583 11.034H22.8411V13.6824H25.1583V11.034Z" fill="#FF4B55"/>
<path d="M22.841 13.6824H20.5238V16.3309H22.841V13.6824Z" fill="#FF4B55"/>
<path d="M29.7926 11.034H27.4754V13.6824H29.7926V11.034Z" fill="#FF4B55"/>
<path d="M27.476 13.6824H25.1588V16.3309H27.476V13.6824Z" fill="#FF4B55"/>
<path d="M22.841 11.034H20.5238V13.6824H22.841V11.034Z" fill="white"/>
<path d="M27.476 11.034H25.1588V13.6824H27.476V11.034Z" fill="white"/>
<path d="M20.5244 13.6824H18.2072V16.3309H20.5244V13.6824Z" fill="white"/>
<path d="M25.1583 13.6824H22.8411V16.3309H25.1583V13.6824Z" fill="white"/>
<path d="M29.7926 13.6824H27.4754V16.3309H29.7926V13.6824Z" fill="white"/>
<path d="M25.1583 16.3309H22.8411V18.9793H25.1583V16.3309Z" fill="#FF4B55"/>
<path d="M22.841 18.9793H20.5238V21.6277H22.841V18.9793Z" fill="#FF4B55"/>
<path d="M27.476 18.9793H25.1588V21.6277H27.476V18.9793Z" fill="#FF4B55"/>
<path d="M22.841 16.3309H20.5238V18.9793H22.841V16.3309Z" fill="white"/>
<path d="M27.476 16.3309H25.1588V18.9793H27.476V16.3309Z" fill="white"/>
<path d="M25.1583 18.9793H22.8411V21.6277H25.1583V18.9793Z" fill="white"/>
<path d="M29.793 11.0344V18.4827C29.793 21.6821 27.1993 24.2757 23.9999 24.2757C20.8005 24.2757 18.2068 21.6821 18.2068 18.4827V11.0344H29.793ZM30.2068 10.6206H29.793H18.2068H17.793V11.0344V18.4827C17.793 21.9051 20.5774 24.6895 23.9999 24.6895C27.4224 24.6895 30.2068 21.9052 30.2068 18.4827V11.0344V10.6206Z" fill="#FF4B55"/>
<path d="M20.5241 18.9792V16.331H18.2068V18.4827C18.2068 18.6505 18.2179 18.8152 18.2319 18.9793H20.5241V18.9792Z" fill="#FF4B55"/>
<path d="M29.7678 18.9792H27.4756V21.6274H28.8606C29.3633 20.8522 29.6852 19.9506 29.7678 18.9792Z" fill="white"/>
<path d="M19.1389 21.6283H20.524V18.9802H18.2318C18.3144 19.9515 18.6363 20.8531 19.1389 21.6283Z" fill="white"/>
<path d="M27.476 18.9792H29.7682C29.7821 18.8152 29.7932 18.6503 29.7932 18.4826V16.3309H27.476V18.9792Z" fill="#FF4B55"/>
<path d="M20.5242 23.1092V21.6274H19.1391C19.5103 22.1999 19.9803 22.7 20.5242 23.1092Z" fill="#FF4B55"/>
<path d="M28.8611 21.6274H27.476V23.1092C28.0199 22.7 28.49 22.1999 28.8611 21.6274Z" fill="#FF4B55"/>
<path d="M20.5242 23.1092C21.1987 23.6169 21.9836 23.9853 22.8414 24.1594V21.6274H20.5242V23.1092Z" fill="white"/>
<path d="M25.1586 24.1594C26.0164 23.9853 26.8014 23.6168 27.4758 23.1092V21.6274H25.1586V24.1594Z" fill="white"/>
<path d="M25.1584 21.6274H22.8412V24.1594C23.2155 24.2354 23.603 24.2757 23.9998 24.2757C24.3967 24.2757 24.7841 24.2354 25.1585 24.1594V21.6274H25.1584Z" fill="#FF4B55"/>
<path d="M19.8067 6.65218C19.3025 6.57418 18.7867 6.51793 18.2609 6.4854C17.8542 6.82018 17.4665 7.16921 17.0985 7.53071C17.4681 8.42274 17.8376 9.31477 18.2069 10.2068C18.9488 9.89958 19.7089 9.65367 20.4801 9.46936C20.2557 8.53027 20.0312 7.59118 19.8067 6.65218Z" fill="#4173CD"/>
<path d="M25.4065 6.21286C24.9534 5.98364 24.4842 5.77167 24 5.57864C23.5158 5.77177 23.0466 5.98374 22.5936 6.21286C22.6689 7.1753 22.7442 8.13792 22.8195 9.10064C23.6053 9.03904 24.3949 9.03904 25.1807 9.10064C25.2558 8.13802 25.3312 7.17548 25.4065 6.21286Z" fill="#4173CD"/>
<path d="M30.9015 7.53071C30.5336 7.1693 30.1458 6.82027 29.7392 6.4854C29.2134 6.51783 28.6976 6.57418 28.1934 6.65218C27.9689 7.59127 27.7444 8.53027 27.52 9.46927C28.2912 9.65367 29.0513 9.89948 29.7931 10.2067C30.1626 9.31467 30.5321 8.42264 30.9015 7.53071Z" fill="#4173CD"/>
<path d="M22.5934 6.21292C22.1102 6.05701 21.6132 5.92061 21.1034 5.80548C20.6535 6.07182 20.2211 6.35467 19.8066 6.65232C20.031 7.59142 20.2556 8.53041 20.4802 9.46941C21.2514 9.28501 22.0335 9.16219 22.8195 9.10069C22.7441 8.13807 22.6687 7.17554 22.5934 6.21292Z" fill="#41479B"/>
<path d="M28.1935 6.65232C27.779 6.35467 27.3464 6.07173 26.8967 5.80548C26.3869 5.92061 25.8898 6.0572 25.4067 6.21292C25.3314 7.17535 25.256 8.13798 25.1807 9.10069C25.9666 9.1621 26.7488 9.28501 27.52 9.46941C27.7445 8.53041 27.969 7.59132 28.1935 6.65232Z" fill="#41479B"/>
<path d="M22.6837 7.36793C21.8076 7.43637 20.9356 7.57334 20.0758 7.77903C20.0309 7.59125 19.986 7.40337 19.9411 7.21559C20.8303 7.00315 21.7322 6.8614 22.6384 6.79044C22.6536 6.983 22.6687 7.17547 22.6837 7.36793Z" fill="#FF4B55"/>
<path d="M22.7741 8.52299C21.9582 8.58683 21.1461 8.71443 20.3454 8.90586C20.3004 8.71808 20.2555 8.53021 20.2106 8.34252C21.0408 8.14396 21.8829 8.01168 22.7289 7.94559C22.744 8.13787 22.759 8.33052 22.7741 8.52299Z" fill="#FF4B55"/>
<path d="M26.7492 8.71757C26.5472 8.68166 26.3446 8.64969 26.1415 8.62176C25.8076 8.57563 25.5589 8.29213 25.5878 7.97348C25.6167 7.65491 25.9359 7.42382 26.2994 7.47407C26.5174 7.50407 26.7349 7.53829 26.9518 7.57691C27.3136 7.64085 27.5478 7.9596 27.4772 8.27122C27.4068 8.58351 27.0819 8.77616 26.7492 8.71757Z" fill="#FFE15A"/>
<path d="M30.0147 9.67162C29.2446 9.35259 28.4551 9.0974 27.6546 8.90587C27.6996 8.71809 27.7444 8.53022 27.7893 8.34253C28.6194 8.5409 29.4379 8.80565 30.2364 9.1364C30.1626 9.31481 30.0887 9.49321 30.0147 9.67162Z" fill="#FF4B55"/>
<path d="M29.808 7.93372C29.7261 8.15937 29.4501 8.26672 29.1893 8.18187C28.9286 8.09693 28.769 7.84906 28.835 7.61825C28.901 7.38744 29.1806 7.26528 29.4572 7.35519C29.734 7.44491 29.8898 7.70806 29.808 7.93372Z" fill="#FFE15A"/>
<path d="M19.1648 7.61844C19.2307 7.84944 19.071 8.09741 18.8105 8.18206C18.5498 8.26643 18.2738 8.15909 18.1919 7.93391C18.1099 7.70816 18.2659 7.4451 18.5427 7.35548C18.8191 7.26576 19.099 7.38773 19.1648 7.61844Z" fill="#FFE15A"/>
<path d="M23.8679 7.23898C23.8684 7.43089 23.6959 7.58716 23.4822 7.59373C23.2685 7.60057 23.0864 7.45489 23.0751 7.26373C23.064 7.07249 23.2363 6.90692 23.4605 6.89971C23.6848 6.89267 23.8669 7.04708 23.8679 7.23898Z" fill="#FFE15A"/>
<path d="M24.9246 7.26377C24.9133 7.4554 24.731 7.60062 24.5176 7.59377C24.3039 7.58721 24.1314 7.43093 24.1319 7.23902C24.1327 7.0473 24.315 6.89243 24.5391 6.89974C24.7635 6.90649 24.9357 7.07243 24.9246 7.26377Z" fill="#FFE15A"/>
<path d="M24.3756 8.13261C24.3703 8.32452 24.2022 8.47546 23.9998 8.47546C23.7977 8.47536 23.6296 8.32461 23.6241 8.13261C23.6188 7.94127 23.7869 7.78058 23.9998 7.78114C24.2128 7.78068 24.3808 7.94118 24.3756 8.13261Z" fill="#FFE15A"/>
</g>
<defs>
<clipPath id="clip0_11_3611">
<rect width="48" height="32" fill="white"/>
</clipPath>
</defs>
</svg>
