<svg width="48" height="32" viewBox="0 0 48 32" fill="none" xmlns="http://www.w3.org/2000/svg">
<g clip-path="url(#clip0_11_3480)">
<path d="M47.1723 31.7243H0.827623C0.370593 31.7243 0 31.3537 0 30.8966V1.10359C0 0.646563 0.370593 0.27597 0.827623 0.27597H47.1724C47.6294 0.27597 48 0.646563 48 1.10359V30.8966C47.9999 31.3538 47.6293 31.7243 47.1723 31.7243Z" fill="#41479B"/>
<path d="M47.9999 6.06909H0V25.9309H47.9999V6.06909Z" fill="white"/>
<path d="M28.3 16.0001L30.4499 12.2762H26.1501L23.9998 8.55183L21.8495 12.2762H17.5497L19.6996 16.0001L17.5497 19.7239H21.8495L23.9998 23.4483L26.15 19.7239H30.4498L28.3 16.0001ZM28.3406 13.4941L27.5968 14.7822L26.8531 13.4941H28.3406ZM26.8937 16.0001L25.4469 18.506H22.5525L21.1058 16.0001L22.5526 13.4941H25.447L26.8937 16.0001ZM23.9998 10.9876L24.7438 12.2763H23.2558L23.9998 10.9876ZM19.659 13.4941H21.1463L20.4026 14.7822L19.659 13.4941ZM19.659 18.506L20.4027 17.2179L21.1464 18.506H19.659ZM23.9998 21.0125L23.2558 19.7238H24.7438L23.9998 21.0125ZM27.5968 17.2179L28.3406 18.506H26.8532L27.5968 17.2179Z" fill="#41479B"/>
</g>
<defs>
<clipPath id="clip0_11_3480">
<rect width="48" height="32" fill="white"/>
</clipPath>
</defs>
</svg>
