<svg width="48" height="32" viewBox="0 0 48 32" fill="none" xmlns="http://www.w3.org/2000/svg">
<g clip-path="url(#clip0_11_4762)">
<path d="M47.9999 10.7588H0V1.10362C0 0.646594 0.370593 0.276001 0.827623 0.276001H47.1724C47.6294 0.276001 48 0.646594 48 1.10362L47.9999 10.7588Z" fill="#FAB446"/>
<path d="M47.1723 31.724H0.827623C0.370593 31.724 0 31.3534 0 30.8964V21.2413H47.9999V30.8964C47.9999 31.3535 47.6293 31.724 47.1723 31.724Z" fill="#73AF00"/>
<path d="M47.9999 10.7587H0V21.2408H47.9999V10.7587Z" fill="white"/>
<path d="M24.0002 20.448C21.5473 20.448 19.5519 18.4527 19.5519 15.9998C19.5519 13.5469 21.5473 11.5516 24.0002 11.5516C26.4531 11.5516 28.4484 13.5469 28.4484 15.9998C28.4484 18.4527 26.4531 20.448 24.0002 20.448ZM24.0002 12.3791C22.0035 12.3791 20.3795 14.0031 20.3795 15.9998C20.3795 17.9965 22.0035 19.6205 24.0002 19.6205C25.9969 19.6205 27.6209 17.9965 27.6209 15.9998C27.6209 14.0031 25.9969 12.3791 24.0002 12.3791Z" fill="#41479B"/>
<path d="M24.0003 16.5042C24.2788 16.5042 24.5046 16.2785 24.5046 16C24.5046 15.7214 24.2788 15.4957 24.0003 15.4957C23.7218 15.4957 23.496 15.7214 23.496 16C23.496 16.2785 23.7218 16.5042 24.0003 16.5042Z" fill="#41479B"/>
<path d="M24.0001 16.0752L22.7186 16.2046L19.9657 16.0752V15.9239L22.7186 15.7946L24.0001 15.9239V16.0752Z" fill="#41479B"/>
<path d="M24 16.0752L25.2815 16.2046L28.0344 16.0752V15.9239L25.2815 15.7946L24 15.9239V16.0752Z" fill="#41479B"/>
<path d="M23.9243 15.9998L23.795 14.7182L23.9243 11.9653H24.0756L24.205 14.7182L24.0756 15.9998H23.9243Z" fill="#41479B"/>
<path d="M23.9243 15.9996L23.795 17.2812L23.9243 20.0341H24.0756L24.205 17.2812L24.0756 15.9996H23.9243Z" fill="#41479B"/>
<path d="M23.9465 16.0531L22.9488 15.2385L21.0937 13.2004L21.2007 13.0934L23.2388 14.9485L24.0534 15.9462L23.9465 16.0531Z" fill="#41479B"/>
<path d="M23.9468 16.0533L24.7614 17.051L26.7995 18.9062L26.9065 18.7992L25.0514 16.7611L24.0537 15.9465L23.9468 16.0533Z" fill="#41479B"/>
<path d="M23.9468 15.9462L24.7614 14.9485L26.7995 13.0934L26.9065 13.2004L25.0514 15.2385L24.0537 16.0531L23.9468 15.9462Z" fill="#41479B"/>
<path d="M23.9465 15.9465L22.9488 16.7611L21.0937 18.7992L21.2007 18.9062L23.2388 17.051L24.0534 16.0533L23.9465 15.9465Z" fill="#41479B"/>
<path d="M24.0293 16.0696L22.8947 16.6796L20.302 17.6135L20.244 17.4737L22.7379 16.3007L23.9713 15.9297L24.0293 16.0696Z" fill="#41479B"/>
<path d="M24.029 16.0699L25.2625 15.6989L27.7563 14.5259L27.6984 14.3861L25.1056 15.3201L23.9711 15.93L24.029 16.0699Z" fill="#41479B"/>
<path d="M23.9304 16.0289L23.3204 14.8943L22.3865 12.3016L22.5263 12.2437L23.6993 14.7375L24.0702 15.971L23.9304 16.0289Z" fill="#41479B"/>
<path d="M23.9301 16.0286L24.3011 17.2621L25.4741 19.7559L25.6139 19.698L24.6799 17.1053L24.07 15.9707L23.9301 16.0286Z" fill="#41479B"/>
<path d="M23.9713 16.0699L22.7379 15.6989L20.244 14.5259L20.302 14.3861L22.8947 15.3201L24.0293 15.93L23.9713 16.0699Z" fill="#41479B"/>
<path d="M23.9711 16.0696L25.1056 16.6796L27.6984 17.6135L27.7563 17.4737L25.2625 16.3007L24.029 15.9297L23.9711 16.0696Z" fill="#41479B"/>
<path d="M23.9301 15.971L24.3011 14.7375L25.4741 12.2437L25.6139 12.3016L24.6799 14.8943L24.07 16.0289L23.9301 15.971Z" fill="#41479B"/>
<path d="M23.9304 15.9707L23.3204 17.1053L22.3865 19.698L22.5263 19.7559L23.6993 17.2621L24.0702 16.0286L23.9304 15.9707Z" fill="#41479B"/>
<path d="M23.9998 16.6802C24.3755 16.6802 24.6801 16.3756 24.6801 16C24.6801 15.6243 24.3755 15.3197 23.9998 15.3197C23.6241 15.3197 23.3196 15.6243 23.3196 16C23.3196 16.3756 23.6241 16.6802 23.9998 16.6802Z" fill="white"/>
<path d="M24 16.408C24.2253 16.408 24.408 16.2254 24.408 16.0001C24.408 15.7749 24.2253 15.5922 24 15.5922C23.7748 15.5922 23.5921 15.7749 23.5921 16.0001C23.5921 16.2254 23.7748 16.408 24 16.408Z" fill="#41479B"/>
</g>
<defs>
<clipPath id="clip0_11_4762">
<rect width="48" height="32" fill="white"/>
</clipPath>
</defs>
</svg>
