<svg width="48" height="32" viewBox="0 0 48 32" fill="none" xmlns="http://www.w3.org/2000/svg">
<g clip-path="url(#clip0_11_1667)">
<path d="M47.1723 31.724H0.827623C0.370593 31.724 0 31.3534 0 30.8964V1.10347C0 0.646441 0.370593 0.275848 0.827623 0.275848H47.1724C47.6294 0.275848 48 0.646441 48 1.10347V30.8964C47.9999 31.3535 47.6293 31.724 47.1723 31.724Z" fill="white"/>
<path d="M48 25.1033C45.5973 25.1033 45.5973 24.2757 43.1947 24.2757C40.792 24.2757 40.792 25.1033 38.3895 25.1033C35.9885 25.1033 35.9885 24.2757 33.5875 24.2757C31.1886 24.2757 31.1886 25.1033 28.7897 25.1033C26.3895 25.1033 26.3895 24.2757 23.9893 24.2757C21.5897 24.2757 21.5897 25.1033 19.1902 25.1033C16.7907 25.1033 16.7906 24.2757 14.3911 24.2757C11.9917 24.2757 11.9915 25.1033 9.59198 25.1033C7.19339 25.1033 7.19339 24.2757 4.79499 24.2757C2.39771 24.2757 2.39771 25.1033 0.000343323 25.1033V22.6206C2.39762 22.6206 2.39762 21.7929 4.79499 21.7929C7.19349 21.7929 7.19349 22.6206 9.59198 22.6206C11.9916 22.6206 11.9916 21.7929 14.3911 21.7929C16.7907 21.7929 16.7907 22.6206 19.1902 22.6206C21.5898 22.6206 21.5898 21.7929 23.9893 21.7929C26.3895 21.7929 26.3895 22.6206 28.7897 22.6206C31.1887 22.6206 31.1887 21.7929 33.5875 21.7929C35.9886 21.7929 35.9886 22.6206 38.3895 22.6206C40.7922 22.6206 40.7922 21.7929 43.1947 21.7929C45.5974 21.7929 45.5974 22.6206 48 22.6206V25.1033Z" fill="#41479B"/>
<path d="M48 15.1723C45.5973 15.1723 45.5973 14.3447 43.1947 14.3447C40.792 14.3447 40.792 15.1723 38.3895 15.1723C35.9885 15.1723 35.9885 14.3447 33.5875 14.3447C31.1886 14.3447 31.1886 15.1723 28.7897 15.1723C26.3895 15.1723 26.3895 14.3447 23.9893 14.3447C21.5897 14.3447 21.5897 15.1723 19.1902 15.1723C16.7907 15.1723 16.7906 14.3447 14.3911 14.3447C11.9917 14.3447 11.9915 15.1723 9.59198 15.1723C7.19339 15.1723 7.19339 14.3447 4.79499 14.3447C2.39771 14.3447 2.39771 15.1723 0.000343323 15.1723V12.6896C2.39762 12.6896 2.39762 11.862 4.79499 11.862C7.19349 11.862 7.19349 12.6896 9.59198 12.6896C11.9916 12.6896 11.9916 11.862 14.3911 11.862C16.7907 11.862 16.7907 12.6896 19.1902 12.6896C21.5898 12.6896 21.5898 11.862 23.9893 11.862C26.3895 11.862 26.3895 12.6896 28.7897 12.6896C31.1887 12.6896 31.1887 11.862 33.5875 11.862C35.9886 11.862 35.9886 12.6896 38.3895 12.6896C40.7922 12.6896 40.7922 11.862 43.1947 11.862C45.5974 11.862 45.5974 12.6896 48 12.6896V15.1723Z" fill="#41479B"/>
<path d="M48 10.2069C45.5973 10.2069 45.5973 9.37923 43.1947 9.37923C40.792 9.37923 40.792 10.2069 38.3895 10.2069C35.9885 10.2069 35.9885 9.37923 33.5875 9.37923C31.1886 9.37923 31.1886 10.2069 28.7897 10.2069C26.3895 10.2069 26.3895 9.37923 23.9893 9.37923C21.5897 9.37923 21.5897 10.2069 19.1902 10.2069C16.7907 10.2069 16.7906 9.37923 14.3911 9.37923C11.9917 9.37923 11.9915 10.2069 9.59198 10.2069C7.19339 10.2069 7.19339 9.37923 4.79499 9.37923C2.39771 9.37923 2.39771 10.2069 0.000343323 10.2069V7.72408C2.39762 7.72408 2.39762 6.89645 4.79499 6.89645C7.19349 6.89645 7.19349 7.72408 9.59198 7.72408C11.9916 7.72408 11.9916 6.89645 14.3911 6.89645C16.7907 6.89645 16.7907 7.72408 19.1902 7.72408C21.5898 7.72408 21.5898 6.89645 23.9893 6.89645C26.3895 6.89645 26.3895 7.72408 28.7897 7.72408C31.1887 7.72408 31.1887 6.89645 33.5875 6.89645C35.9886 6.89645 35.9886 7.72408 38.3895 7.72408C40.7922 7.72408 40.7922 6.89645 43.1947 6.89645C45.5974 6.89645 45.5974 7.72408 48 7.72408V10.2069Z" fill="#41479B"/>
<path d="M48 5.24137C45.5973 5.24137 45.5973 4.41375 43.1947 4.41375C40.792 4.41375 40.792 5.24137 38.3895 5.24137C35.9885 5.24137 35.9885 4.41375 33.5875 4.41375C31.1886 4.41375 31.1886 5.24137 28.7897 5.24137C26.3895 5.24137 26.3895 4.41375 23.9893 4.41375C21.5897 4.41375 21.5897 5.24137 19.1902 5.24137C16.7907 5.24137 16.7906 4.41375 14.3911 4.41375C11.9917 4.41375 11.9915 5.24137 9.59198 5.24137C7.19339 5.24137 7.19339 4.41375 4.79499 4.41375C2.39771 4.41375 2.39771 5.24137 0.000343323 5.24137V2.75859C2.39762 2.75859 2.39762 1.93097 4.79499 1.93097C7.19349 1.93097 7.19349 2.75859 9.59198 2.75859C11.9916 2.75859 11.9916 1.93097 14.3911 1.93097C16.7907 1.93097 16.7907 2.75859 19.1902 2.75859C21.5898 2.75859 21.5898 1.93097 23.9893 1.93097C26.3895 1.93097 26.3895 2.75859 28.7897 2.75859C31.1887 2.75859 31.1887 1.93097 33.5875 1.93097C35.9886 1.93097 35.9886 2.75859 38.3895 2.75859C40.7922 2.75859 40.7922 1.93097 43.1947 1.93097C45.5974 1.93097 45.5974 2.75859 48 2.75859V5.24137Z" fill="#41479B"/>
<path d="M48 20.1379C45.5973 20.1379 45.5973 19.3102 43.1947 19.3102C40.792 19.3102 40.792 20.1379 38.3895 20.1379C35.9885 20.1379 35.9885 19.3102 33.5875 19.3102C31.1886 19.3102 31.1886 20.1379 28.7897 20.1379C26.3895 20.1379 26.3895 19.3102 23.9893 19.3102C21.5897 19.3102 21.5897 20.1379 19.1902 20.1379C16.7907 20.1379 16.7906 19.3102 14.3911 19.3102C11.9917 19.3102 11.9915 20.1379 9.59198 20.1379C7.19339 20.1379 7.19339 19.3102 4.79499 19.3102C2.39771 19.3102 2.39771 20.1379 0.000343323 20.1379V17.6551C2.39762 17.6551 2.39762 16.8275 4.79499 16.8275C7.19349 16.8275 7.19349 17.6551 9.59198 17.6551C11.9916 17.6551 11.9916 16.8275 14.3911 16.8275C16.7907 16.8275 16.7907 17.6551 19.1902 17.6551C21.5898 17.6551 21.5898 16.8275 23.9893 16.8275C26.3895 16.8275 26.3895 17.6551 28.7897 17.6551C31.1887 17.6551 31.1887 16.8275 33.5875 16.8275C35.9886 16.8275 35.9886 17.6551 38.3895 17.6551C40.7922 17.6551 40.7922 16.8275 43.1947 16.8275C45.5974 16.8275 45.5974 17.6551 48 17.6551V20.1379Z" fill="#41479B"/>
<path d="M48 30.0689C45.5973 30.0689 45.5973 29.2413 43.1947 29.2413C40.792 29.2413 40.792 30.0689 38.3895 30.0689C35.9885 30.0689 35.9885 29.2413 33.5875 29.2413C31.1886 29.2413 31.1886 30.0689 28.7897 30.0689C26.3895 30.0689 26.3895 29.2413 23.9893 29.2413C21.5897 29.2413 21.5897 30.0689 19.1902 30.0689C16.7907 30.0689 16.7906 29.2413 14.3911 29.2413C11.9917 29.2413 11.9915 30.0689 9.59198 30.0689C7.19339 30.0689 7.19339 29.2413 4.79499 29.2413C2.39771 29.2413 2.39771 30.0689 0.000343323 30.0689V27.5861C2.39762 27.5861 2.39762 26.7585 4.79499 26.7585C7.19349 26.7585 7.19349 27.5861 9.59198 27.5861C11.9916 27.5861 11.9916 26.7585 14.3911 26.7585C16.7907 26.7585 16.7907 27.5861 19.1902 27.5861C21.5898 27.5861 21.5898 26.7585 23.9893 26.7585C26.3895 26.7585 26.3895 27.5861 28.7897 27.5861C31.1887 27.5861 31.1887 26.7585 33.5875 26.7585C35.9886 26.7585 35.9886 27.5861 38.3895 27.5861C40.7922 27.5861 40.7922 26.7585 43.1947 26.7585C45.5974 26.7585 45.5974 27.5861 48 27.5861V30.0689Z" fill="#41479B"/>
<path d="M23.1723 15.9999H0.827623C0.370593 15.9999 0 15.6293 0 15.1723V1.10347C0 0.646441 0.370593 0.275848 0.827623 0.275848H23.1723C23.6294 0.275848 24 0.646441 24 1.10347V15.1724C23.9999 15.6295 23.6295 15.9999 23.1723 15.9999Z" fill="#41479B"/>
<path d="M23.1723 0.275848H21.7349L14.0689 5.29831V0.275848H9.93101V5.29831L2.26509 0.275848H0.827623C0.370593 0.275848 0 0.646441 0 1.10347V1.75991L6.57702 6.06893H0V10.2069H6.57702L0 14.516V15.1723C0 15.6293 0.370593 15.9999 0.827623 15.9999H2.26509L9.93101 10.9775V15.9999H14.0689V10.9775L21.7348 15.9999H23.1722C23.6293 15.9999 23.9999 15.6293 23.9999 15.1723V14.5159L17.4229 10.2069H23.9999V6.06893H17.4228L23.9999 1.75991V1.10347C23.9999 0.646441 23.6295 0.275848 23.1723 0.275848Z" fill="white"/>
<path d="M23.9999 6.89655H13.2413V0.275848H10.7585V6.89655H0V9.37924H10.7585V15.9999H13.2413V9.37924H23.9999V6.89655Z" fill="#FF4B55"/>
<path d="M9.10339 6.06891L0.394405 0.41571C0.162656 0.562429 0 0.808803 0 1.10346V1.1464L7.58333 6.06891H9.10339Z" fill="#FF4B55"/>
<path d="M15.5891 6.06893L23.8742 0.690879C23.7302 0.447223 23.4761 0.275848 23.1725 0.275848H22.9935L14.0691 6.06893H15.5891Z" fill="#FF4B55"/>
<path d="M8.38813 10.2068L0.118927 15.5746C0.26152 15.8242 0.51952 15.9999 0.827582 15.9999H0.983675L9.90819 10.2068H8.38813Z" fill="#FF4B55"/>
<path d="M23.9867 15.2375L16.2368 10.2069H14.7169L23.5174 15.9195C23.7812 15.7971 23.9619 15.5407 23.9867 15.2375Z" fill="#FF4B55"/>
<path d="M36.4139 28.3175C36.0975 28.3175 35.841 28.0609 35.841 27.7446V9.41159H36.9868V27.7447C36.9869 28.0611 36.7303 28.3175 36.4139 28.3175Z" fill="#965032"/>
<path d="M44.4345 11.7031L43.2887 11.1302L39.07 10.603L41.6802 7.24702L42.0852 6.03165L40.87 6.43683L37.514 9.04692L36.9868 4.82837L36.4138 3.68246L35.8409 4.82837L35.3136 9.04692L31.9576 6.43683L30.7424 6.03165L31.1475 7.24702L33.7576 10.603L29.5389 11.1302L28.3931 11.7031L29.5389 12.276L33.7576 12.8035L31.1475 16.1593L30.7424 17.3747L31.9576 16.9696L35.6036 14.1339L36.4138 12.849L37.2239 14.1339L40.87 16.9696L42.0852 17.3747L41.6802 16.1593L39.07 12.8035L43.2887 12.276L44.4345 11.7031Z" fill="#73AF00"/>
<path d="M38.908 18.3756C38.3931 17.8617 37.2906 18.0506 36.7002 18.1996V17.7188C36.7002 17.5606 36.572 17.4324 36.4138 17.4324C36.2557 17.4324 36.1274 17.5606 36.1274 17.7188V18.1995C35.5372 18.0501 34.4348 17.8612 33.9197 18.3756C33.4286 18.8664 33.7844 20.0498 34.1223 20.8725V21.6343C34.1223 21.845 34.293 22.0155 34.5035 22.0155H38.3244C38.5349 22.0155 38.7055 21.8448 38.7055 21.6343V20.8725C39.0432 20.0498 39.399 18.8663 38.908 18.3756ZM38.5029 18.7807C38.7216 18.9996 38.4766 19.9588 38.0819 20.8698H36.7001V18.7914C37.3434 18.6092 38.2244 18.5016 38.5029 18.7807ZM34.3247 18.7807C34.603 18.5017 35.484 18.6093 36.1274 18.7914V20.8697H34.7456C34.351 19.9588 34.106 18.9996 34.3247 18.7807Z" fill="#FFE15A"/>
</g>
<defs>
<clipPath id="clip0_11_1667">
<rect width="48" height="32" fill="white"/>
</clipPath>
</defs>
</svg>
