<svg width="48" height="32" viewBox="0 0 48 32" fill="none" xmlns="http://www.w3.org/2000/svg">
<g clip-path="url(#clip0_11_1013)">
<path d="M47.9999 10.7588H0V1.10362C0 0.646594 0.370593 0.276001 0.827623 0.276001H47.1724C47.6294 0.276001 48 0.646594 48 1.10362L47.9999 10.7588Z" fill="#FF4B55"/>
<path d="M47.1723 31.7242H0.827623C0.370593 31.7242 0 31.3536 0 30.8966V21.2415H47.9999V30.8966C47.9999 31.3537 47.6293 31.7242 47.1723 31.7242Z" fill="#464655"/>
<path d="M47.9999 10.7584H0V21.2406H47.9999V10.7584Z" fill="white"/>
<path d="M28.881 13.8929C28.794 13.8476 28.6909 13.6856 28.7231 13.6147C28.7569 13.5404 28.7042 13.5467 28.8821 13.5996C29.2036 13.6829 29.4118 13.6449 29.6161 13.471L29.7976 13.3273L30.0096 13.4332C30.1268 13.4861 30.2478 13.5239 30.282 13.5163C30.3803 13.4936 30.5697 13.2514 30.5657 13.1682C30.5619 13.0549 30.6451 13.0851 30.6868 13.2062C30.7738 13.4332 30.6137 13.8248 30.3944 13.8778C30.2886 13.908 30.1902 13.9005 30.0236 13.8476C29.8269 13.7718 29.7965 13.7718 29.6908 13.8476C29.4712 14.0216 29.1571 14.0369 28.881 13.8929Z" fill="#73AF00"/>
<path d="M29.7092 13.0171C29.6031 12.8683 29.4755 12.3477 29.5128 12.2203C29.5498 12.1033 29.587 12.0821 29.6879 12.114C29.8686 12.1776 29.9112 12.2946 29.8898 12.7198C29.858 13.0382 29.8156 13.1447 29.7092 13.0171Z" fill="#73AF00"/>
<path d="M22.594 15.3183C22.158 15.5664 21.5094 15.609 21.5094 16.2965C20.5597 16.3319 19.4398 16.3744 18.4297 16.3531C18.7035 15.9995 20.4361 14.3982 21.1565 13.7635C21.2758 13.6585 21.3163 13.4552 21.2469 13.3123L21.2282 13.2738C21.1244 13.0596 20.8418 13.0086 20.6697 13.1731C19.9518 13.86 19.2403 14.4999 19.1244 14.6096C18.195 15.549 17.9223 15.8227 17.7763 15.9697C17.6723 16.0744 17.6145 16.2159 17.6152 16.3635V16.3731C17.6169 16.6797 17.8658 16.9273 18.1723 16.9273H22.2392C22.4697 16.9273 22.1863 16.1264 22.4838 16.1264C22.6907 16.1264 22.7098 16.4137 22.7007 16.7181C22.6937 16.9497 22.503 17.1329 22.2714 17.1331C20.5131 17.1356 18.6828 17.1524 16.9604 17.154C16.8182 17.154 16.704 17.0386 16.704 16.8963V16.5865C16.704 16.3238 16.4122 16.1711 16.1927 16.3153C16.1846 16.3205 16.1767 16.3256 16.1689 16.3305C16.0541 16.4022 15.9954 16.5426 16.0402 16.6702C16.0693 16.7531 16.0819 16.854 16.0847 16.9594C16.0884 17.0988 15.9749 17.2138 15.8355 17.2181C15.2659 17.2355 14.6468 17.2407 14.471 16.9048C14.3719 16.7154 14.1608 16.626 13.9695 16.7216L13.9441 16.7343C13.7427 16.835 13.6621 17.0841 13.7723 17.2803C13.9821 17.6534 14.1736 18.0861 14.0742 18.6922C13.9932 18.8832 13.8406 19.0028 13.6752 19.1104C13.4914 19.2301 13.6068 19.51 13.8223 19.4701C14.3449 19.3736 14.7049 18.96 14.8151 18.4725H22.917C23.2141 18.4725 23.455 18.2315 23.455 17.9344V16.1761C23.3807 15.6515 22.8172 15.6728 22.594 15.3183Z" fill="#73AF00"/>
<path d="M32.8703 12.995C32.9898 13.0719 33.1095 13.1489 33.2429 13.2124C33.3888 13.2821 33.4446 13.4602 33.3593 13.5975C33.3367 13.6338 33.3179 13.6744 33.3072 13.7237V17.2109C33.5455 17.2605 33.6823 17.2135 33.7909 17.1386C33.9135 17.054 34.0793 17.1155 34.118 17.2593C34.2002 17.5652 34.3348 17.864 34.4067 18.1361C34.4516 18.3061 34.3239 18.4725 34.148 18.4725H32.7819C32.6609 18.4725 32.5629 18.3744 32.5629 18.2535V13.1629C32.5628 13.0051 32.7375 12.9096 32.8703 12.995Z" fill="#73AF00"/>
<path d="M31.2162 13.8442C31.2173 14.8071 31.2285 15.8444 31.2301 16.8766C31.2303 17.0103 31.1218 17.1187 30.9881 17.1187H30.9724C30.8388 17.1187 30.7305 17.0104 30.7305 16.8768V14.4309C30.7305 14.2978 30.5741 14.2266 30.4739 14.3142L30.1533 14.5912C30.0877 14.6478 30.05 14.7293 30.0497 14.8159C30.0487 15.2138 30.0451 16.3722 30.0437 16.8779C30.0433 17.0111 29.9352 17.1187 29.8018 17.1187H29.7799C29.647 17.1187 29.539 17.0119 29.538 16.879C29.5357 16.5423 29.5316 15.9184 29.5299 15.4504C29.5293 15.3158 29.3701 15.2455 29.2689 15.3342C28.9367 15.6253 28.86 15.6911 28.6857 15.8712C28.6999 15.9633 28.7709 15.8712 28.8133 15.942V16.4099C27.6032 16.1821 27.5129 17.1488 27.5582 18.1861C27.5651 18.342 27.693 18.4652 27.849 18.4652H31.6483C31.7892 18.4652 31.9034 18.3511 31.9034 18.2101V13.4869C31.9034 13.3292 31.7162 13.2482 31.5998 13.3548C31.507 13.4397 31.4079 13.5247 31.3227 13.6017C31.2545 13.664 31.2162 13.7516 31.2162 13.8442ZM28.4202 17.0834C28.3458 16.8706 28.764 16.7926 28.8135 16.9842C28.8312 17.218 28.5124 17.2251 28.4202 17.0834Z" fill="#73AF00"/>
<path d="M15.871 18.8481C16.0163 18.8481 16.1332 18.9687 16.1332 19.1104C16.1332 19.2593 16.0163 19.3727 15.871 19.3727C15.7222 19.3727 15.6016 19.2593 15.6016 19.1104C15.6017 18.9687 15.7223 18.8481 15.871 18.8481Z" fill="#73AF00"/>
<path d="M24.5097 13.1019C24.5807 13.1446 24.6536 13.1853 24.7314 13.222C24.8716 13.2883 24.9269 13.4626 24.8411 13.5918C24.8154 13.6307 24.7933 13.6749 24.7804 13.7308V17.2109C25.0329 17.267 25.171 17.212 25.2812 17.1305C25.3909 17.0494 25.5488 17.1055 25.5839 17.2372C25.647 17.4734 25.7419 17.7071 25.8151 17.9289C25.9047 18.2001 25.7035 18.4796 25.4179 18.4796H24.3522C24.1796 18.4796 24.0398 18.3397 24.0398 18.167V13.3714C24.0398 13.1303 24.3029 12.9777 24.5097 13.1019Z" fill="#73AF00"/>
</g>
<defs>
<clipPath id="clip0_11_1013">
<rect width="48" height="32" fill="white"/>
</clipPath>
</defs>
</svg>
