<svg width="48" height="32" viewBox="0 0 48 32" fill="none" xmlns="http://www.w3.org/2000/svg">
<g clip-path="url(#clip0_11_3017)">
<path d="M47.9999 10.7587H0V1.10359C0 0.646563 0.370593 0.27597 0.827623 0.27597H47.1724C47.6294 0.27597 48 0.646563 48 1.10359L47.9999 10.7587Z" fill="#73AF00"/>
<path d="M47.1723 31.7242H0.827623C0.370593 31.7242 0 31.3536 0 30.8966V21.2415H47.9999V30.8966C47.9999 31.3536 47.6293 31.7242 47.1723 31.7242Z" fill="#FF4B55"/>
<path d="M47.9999 10.7581H0V21.2403H47.9999V10.7581Z" fill="white"/>
<path d="M0.130219 10.2039H0.137437C0.209343 10.2039 0.267656 10.1457 0.267656 10.0737V9.79168C0.267656 9.71977 0.325874 9.66146 0.397874 9.66146H0.944155C1.01606 9.66146 1.07437 9.71968 1.07437 9.79168V10.0737C1.07437 10.1456 1.13259 10.2039 1.20459 10.2039H2.2829C2.35481 10.2039 2.41312 10.1457 2.41312 10.0737V9.51699C2.41312 9.44509 2.3549 9.38677 2.2829 9.38677H1.74009C1.66818 9.38677 1.60987 9.44499 1.60987 9.51699V9.53124C1.60987 9.60315 1.66809 9.66146 1.74009 9.66146H2.01525C2.08715 9.66146 2.14546 9.71968 2.14546 9.79168V9.80583C2.14546 9.87774 2.08725 9.93605 2.01525 9.93605H1.47225C1.40034 9.93605 1.34203 9.87783 1.34203 9.80583V9.51699C1.34203 9.44509 1.28381 9.38677 1.21181 9.38677H0.130219C0.0583124 9.38677 0 9.44499 0 9.51699V10.0737C0 10.1455 0.0582186 10.2039 0.130219 10.2039ZM0.669093 10.2039H0.676499C0.748405 10.2039 0.806717 10.1457 0.806717 10.0737V10.0663C0.806717 9.99436 0.748499 9.93605 0.676499 9.93605H0.669093C0.597186 9.93605 0.538874 9.99427 0.538874 10.0663V10.0737C0.538874 10.1455 0.597186 10.2039 0.669093 10.2039ZM0.130219 9.11218H3.35737C3.42928 9.11218 3.48759 9.05396 3.48759 8.98196V8.96771C3.48759 8.89581 3.42937 8.83749 3.35737 8.83749H0.130219C0.0583124 8.83749 0 8.89571 0 8.96771V8.98196C0 9.05396 0.0582186 9.11218 0.130219 9.11218ZM3.35728 10.2039H2.81446C2.74256 10.2039 2.68425 10.1457 2.68425 10.0737V9.51699C2.68425 9.44509 2.74246 9.38677 2.81446 9.38677H3.62521C3.69712 9.38677 3.75543 9.32855 3.75543 9.25656V8.96771C3.75543 8.89581 3.81365 8.83749 3.88565 8.83749H3.89287C3.96477 8.83749 4.02309 8.89571 4.02309 8.96771V9.80583C4.02309 9.87774 4.08131 9.93605 4.1533 9.93605H4.16071C4.23262 9.93605 4.29093 9.87783 4.29093 9.80583V8.96771C4.29093 8.89581 4.34915 8.83749 4.42115 8.83749H4.42837C4.50027 8.83749 4.55859 8.89571 4.55859 8.96771V9.80583C4.55859 9.87774 4.6168 9.93605 4.6888 9.93605H4.69959C4.77149 9.93605 4.8298 9.87783 4.8298 9.80583V8.96771C4.8298 8.89581 4.88802 8.83749 4.96002 8.83749H4.96396C5.03587 8.83749 5.09418 8.89571 5.09418 8.96771V10.0737C5.09418 10.1456 5.03596 10.2039 4.96396 10.2039H3.88565C3.81374 10.2039 3.75543 10.1457 3.75543 10.0737V9.79168C3.75543 9.71977 3.69721 9.66146 3.62521 9.66146H3.0824C3.01049 9.66146 2.95218 9.71968 2.95218 9.79168V9.80583C2.95218 9.87774 3.0104 9.93605 3.0824 9.93605H3.35737C3.42928 9.93605 3.48759 9.99427 3.48759 10.0663V10.0737C3.48759 10.1455 3.42918 10.2039 3.35728 10.2039Z" fill="white"/>
<path d="M5.49542 10.2039H5.5062C5.57811 10.2039 5.63642 10.1457 5.63642 10.0737V9.79168C5.63642 9.71977 5.69464 9.66146 5.76664 9.66146H6.30608C6.37798 9.66146 6.43629 9.71968 6.43629 9.79168V10.0737C6.43629 10.1456 6.49451 10.2039 6.56651 10.2039H7.64482C7.71673 10.2039 7.77504 10.1457 7.77504 10.0737V9.51699C7.77504 9.44509 7.71682 9.38677 7.64482 9.38677H7.10201C7.03011 9.38677 6.97179 9.44499 6.97179 9.51699V9.53124C6.97179 9.60315 7.03001 9.66146 7.10201 9.66146H7.37717C7.44907 9.66146 7.50739 9.71968 7.50739 9.79168V9.80583C7.50739 9.87774 7.44917 9.93605 7.37717 9.93605H6.83436C6.76245 9.93605 6.70414 9.87783 6.70414 9.80583V9.51699C6.70414 9.44509 6.64592 9.38677 6.57392 9.38677H5.49542C5.42352 9.38677 5.3652 9.44499 5.3652 9.51699V10.0737C5.3653 10.1455 5.42361 10.2039 5.49542 10.2039ZM6.03101 10.2039H6.03823C6.11014 10.2039 6.16845 10.1457 6.16845 10.0737V10.0663C6.16845 9.99436 6.11023 9.93605 6.03823 9.93605H6.03101C5.95911 9.93605 5.9008 9.99427 5.9008 10.0663V10.0737C5.90089 10.1455 5.95911 10.2039 6.03101 10.2039ZM5.49542 9.11218H8.71929C8.79119 9.11218 8.84951 9.05396 8.84951 8.98196V8.96771C8.84951 8.89581 8.79129 8.83749 8.71929 8.83749H5.49542C5.42352 8.83749 5.3652 8.89571 5.3652 8.96771V8.98196C5.3653 9.05396 5.42361 9.11218 5.49542 9.11218ZM8.71929 10.2039H8.17301C8.1011 10.2039 8.04279 10.1457 8.04279 10.0737V9.51699C8.04279 9.44509 8.10101 9.38677 8.17301 9.38677H8.98376C9.05566 9.38677 9.11398 9.32855 9.11398 9.25656V8.96771C9.11398 8.89581 9.17219 8.83749 9.24419 8.83749H9.25498C9.32688 8.83749 9.38519 8.89571 9.38519 8.96771V9.80583C9.38519 9.87774 9.44341 9.93605 9.51541 9.93605H9.52619C9.5981 9.93605 9.65641 9.87783 9.65641 9.80583V8.96771C9.65641 8.89581 9.71463 8.83749 9.78663 8.83749H9.79057C9.86247 8.83749 9.92079 8.89571 9.92079 8.96771V9.80583C9.92079 9.87774 9.979 9.93605 10.051 9.93605H10.0618C10.1337 9.93605 10.192 9.87783 10.192 9.80583V8.96771C10.192 8.89581 10.2502 8.83749 10.3222 8.83749H10.3294C10.4013 8.83749 10.4597 8.89571 10.4597 8.96771V10.0737C10.4597 10.1456 10.4014 10.2039 10.3294 10.2039H9.24438C9.17248 10.2039 9.11416 10.1457 9.11416 10.0737V9.79168C9.11416 9.71977 9.05594 9.66146 8.98394 9.66146H8.44451C8.3726 9.66146 8.31429 9.71968 8.31429 9.79168V9.80583C8.31429 9.87774 8.37251 9.93605 8.44451 9.93605H8.71966C8.79157 9.93605 8.84988 9.99427 8.84988 10.0663V10.0737C8.84941 10.1455 8.79119 10.2039 8.71929 10.2039Z" fill="white"/>
<path d="M10.8577 10.2039H10.8649C10.9369 10.2039 10.9952 10.1457 10.9952 10.0737V9.79168C10.9952 9.71977 11.0534 9.66146 11.1254 9.66146H11.6684C11.7403 9.66146 11.7986 9.71968 11.7986 9.79168V10.0737C11.7986 10.1456 11.8568 10.2039 11.9288 10.2039H13.0105C13.0824 10.2039 13.1407 10.1457 13.1407 10.0737V9.51699C13.1407 9.44509 13.0825 9.38677 13.0105 9.38677H12.4677C12.3958 9.38677 12.3375 9.44499 12.3375 9.51699V9.53124C12.3375 9.60315 12.3957 9.66146 12.4677 9.66146H12.7428C12.8148 9.66146 12.8731 9.71968 12.8731 9.79168V9.80583C12.8731 9.87774 12.8148 9.93605 12.7428 9.93605H12.1966C12.1247 9.93605 12.0663 9.87783 12.0663 9.80583V9.51699C12.0663 9.44509 12.0081 9.38677 11.9361 9.38677H10.8578C10.7859 9.38677 10.7276 9.44499 10.7276 9.51699V10.0737C10.7274 10.1455 10.7858 10.2039 10.8577 10.2039ZM11.3932 10.2039H11.4004C11.4724 10.2039 11.5307 10.1457 11.5307 10.0737V10.0663C11.5307 9.99436 11.4724 9.93605 11.4004 9.93605H11.3932C11.3213 9.93605 11.263 9.99427 11.263 10.0663V10.0737C11.263 10.1455 11.3213 10.2039 11.3932 10.2039ZM10.8577 9.11218H14.085C14.1569 9.11218 14.2152 9.05396 14.2152 8.98196V8.96771C14.2152 8.89581 14.157 8.83749 14.085 8.83749H10.8577C10.7858 8.83749 10.7275 8.89571 10.7275 8.96771V8.98196C10.7274 9.05396 10.7858 9.11218 10.8577 9.11218ZM14.085 10.2039H13.5387C13.4668 10.2039 13.4085 10.1457 13.4085 10.0737V9.51699C13.4085 9.44509 13.4667 9.38677 13.5387 9.38677H14.3493C14.4212 9.38677 14.4795 9.32855 14.4795 9.25656V8.96771C14.4795 8.89581 14.5377 8.83749 14.6097 8.83749H14.6171C14.689 8.83749 14.7473 8.89571 14.7473 8.96771V9.80583C14.7473 9.87774 14.8055 9.93605 14.8775 9.93605H14.8883C14.9602 9.93605 15.0185 9.87783 15.0185 9.80583V8.96771C15.0185 8.89581 15.0768 8.83749 15.1488 8.83749H15.1595C15.2314 8.83749 15.2898 8.89571 15.2898 8.96771V9.80583C15.2898 9.87774 15.348 9.93605 15.42 9.93605H15.4239C15.4958 9.93605 15.5541 9.87783 15.5541 9.80583V8.96771C15.5541 8.89581 15.6123 8.83749 15.6843 8.83749H15.6916C15.7635 8.83749 15.8218 8.89571 15.8218 8.96771V10.0737C15.8218 10.1456 15.7636 10.2039 15.6916 10.2039H14.6097C14.5378 10.2039 14.4795 10.1457 14.4795 10.0737V9.79168C14.4795 9.71977 14.4213 9.66146 14.3493 9.66146H13.8064C13.7345 9.66146 13.6762 9.71968 13.6762 9.79168V9.80583C13.6762 9.87774 13.7344 9.93605 13.8064 9.93605H14.0852C14.1571 9.93605 14.2154 9.99427 14.2154 10.0663V10.0737C14.2152 10.1455 14.1569 10.2039 14.085 10.2039Z" fill="white"/>
<path d="M16.2192 10.2039H16.2264C16.2983 10.2039 16.3566 10.1457 16.3566 10.0737V9.79168C16.3566 9.71977 16.4149 9.66146 16.4869 9.66146H17.0297C17.1016 9.66146 17.1599 9.71968 17.1599 9.79168V10.0737C17.1599 10.1456 17.2181 10.2039 17.2901 10.2039H18.372C18.4439 10.2039 18.5022 10.1457 18.5022 10.0737V9.51699C18.5022 9.44509 18.444 9.38677 18.372 9.38677H17.8257C17.7538 9.38677 17.6955 9.44499 17.6955 9.51699V9.53124C17.6955 9.60315 17.7537 9.66146 17.8257 9.66146H18.1009C18.1728 9.66146 18.2311 9.71968 18.2311 9.79168V9.80583C18.2311 9.87774 18.1729 9.93605 18.1009 9.93605H17.558C17.4861 9.93605 17.4278 9.87783 17.4278 9.80583V9.51699C17.4278 9.44509 17.3696 9.38677 17.2976 9.38677H16.2193C16.1474 9.38677 16.0891 9.44499 16.0891 9.51699V10.0737C16.0891 10.1455 16.1474 10.2039 16.2192 10.2039ZM16.7548 10.2039H16.762C16.8339 10.2039 16.8922 10.1457 16.8922 10.0737V10.0663C16.8922 9.99436 16.834 9.93605 16.762 9.93605H16.7548C16.6829 9.93605 16.6246 9.99427 16.6246 10.0663V10.0737C16.6247 10.1455 16.6829 10.2039 16.7548 10.2039ZM16.2192 9.11218H19.4431C19.515 9.11218 19.5733 9.05396 19.5733 8.98196V8.96771C19.5733 8.89581 19.5151 8.83749 19.4431 8.83749H16.2192C16.1473 8.83749 16.089 8.89571 16.089 8.96771V8.98196C16.0891 9.05396 16.1474 9.11218 16.2192 9.11218ZM19.4431 10.2039H18.8968C18.8249 10.2039 18.7666 10.1457 18.7666 10.0737V9.51699C18.7666 9.44509 18.8248 9.38677 18.8968 9.38677H19.7144C19.7863 9.38677 19.8446 9.32855 19.8446 9.25656V8.96771C19.8446 8.89581 19.9028 8.83749 19.9748 8.83749H19.982C20.0539 8.83749 20.1123 8.89571 20.1123 8.96771V9.80583C20.1123 9.87774 20.1705 9.93605 20.2425 9.93605H20.2464C20.3183 9.93605 20.3766 9.87783 20.3766 9.80583V8.96771C20.3766 8.89581 20.4349 8.83749 20.5069 8.83749H20.5176C20.5895 8.83749 20.6479 8.89571 20.6479 8.96771V9.80583C20.6479 9.87774 20.7061 9.93605 20.7781 9.93605H20.7855C20.8574 9.93605 20.9157 9.87783 20.9157 9.80583V8.96771C20.9157 8.89581 20.9739 8.83749 21.0459 8.83749H21.0531C21.125 8.83749 21.1834 8.89571 21.1834 8.96771V10.0737C21.1834 10.1456 21.1251 10.2039 21.0531 10.2039H19.9744C19.9025 10.2039 19.8441 10.1457 19.8441 10.0737V9.79168C19.8441 9.71977 19.7859 9.66146 19.7139 9.66146H19.1676C19.0957 9.66146 19.0374 9.71968 19.0374 9.79168V9.80583C19.0374 9.87774 19.0956 9.93605 19.1676 9.93605H19.4428C19.5147 9.93605 19.573 9.99427 19.573 10.0663V10.0737C19.5732 10.1455 19.515 10.2039 19.4431 10.2039Z" fill="white"/>
<path d="M21.5812 10.2039H21.5886C21.6605 10.2039 21.7188 10.1457 21.7188 10.0737V9.79168C21.7188 9.71977 21.777 9.66146 21.849 9.66146H22.3918C22.4637 9.66146 22.522 9.71968 22.522 9.79168V10.0737C22.522 10.1456 22.5803 10.2039 22.6523 10.2039H23.7341C23.806 10.2039 23.8644 10.1457 23.8644 10.0737V9.51699C23.8644 9.44509 23.8061 9.38677 23.7341 9.38677H23.1879C23.116 9.38677 23.0576 9.44499 23.0576 9.51699V9.53124C23.0576 9.60315 23.1159 9.66146 23.1879 9.66146H23.4663C23.5382 9.66146 23.5965 9.71968 23.5965 9.79168V9.80583C23.5965 9.87774 23.5383 9.93605 23.4663 9.93605H22.9235C22.8516 9.93605 22.7933 9.87783 22.7933 9.80583V9.51699C22.7933 9.44509 22.735 9.38677 22.663 9.38677H21.5812C21.5093 9.38677 21.451 9.44499 21.451 9.51699V10.0737C21.4511 10.1455 21.5093 10.2039 21.5812 10.2039ZM22.1202 10.2039H22.1242C22.1961 10.2039 22.2544 10.1457 22.2544 10.0737V10.0663C22.2544 9.99436 22.1962 9.93605 22.1242 9.93605H22.1202C22.0483 9.93605 21.99 9.99427 21.99 10.0663V10.0737C21.99 10.1455 22.0483 10.2039 22.1202 10.2039ZM21.5812 9.11218H24.8085C24.8804 9.11218 24.9387 9.05396 24.9387 8.98196V8.96771C24.9387 8.89581 24.8805 8.83749 24.8085 8.83749H21.5812C21.5093 8.83749 21.451 8.89571 21.451 8.96771V8.98196C21.4511 9.05396 21.5093 9.11218 21.5812 9.11218ZM24.8086 10.2039H24.2623C24.1904 10.2039 24.1321 10.1457 24.1321 10.0737V9.51699C24.1321 9.44509 24.1903 9.38677 24.2623 9.38677H25.0765C25.1484 9.38677 25.2067 9.32855 25.2067 9.25656V8.96771C25.2067 8.89581 25.2649 8.83749 25.3369 8.83749H25.3441C25.416 8.83749 25.4743 8.89571 25.4743 8.96771V9.80583C25.4743 9.87774 25.5325 9.93605 25.6045 9.93605H25.6119C25.6839 9.93605 25.7422 9.87783 25.7422 9.80583V8.96771C25.7422 8.89581 25.8004 8.83749 25.8724 8.83749H25.8796C25.9515 8.83749 26.0098 8.89571 26.0098 8.96771V9.80583C26.0098 9.87774 26.068 9.93605 26.14 9.93605H26.1473C26.2192 9.93605 26.2775 9.87783 26.2775 9.80583V8.96771C26.2775 8.89581 26.3357 8.83749 26.4077 8.83749H26.4151C26.487 8.83749 26.5453 8.89571 26.5453 8.96771V10.0737C26.5453 10.1456 26.4871 10.2039 26.4151 10.2039H25.3368C25.2649 10.2039 25.2066 10.1457 25.2066 10.0737V9.79168C25.2066 9.71977 25.1484 9.66146 25.0764 9.66146H24.5301C24.4582 9.66146 24.3999 9.71968 24.3999 9.79168V9.80583C24.3999 9.87774 24.4581 9.93605 24.5301 9.93605H24.8085C24.8804 9.93605 24.9387 9.99427 24.9387 10.0663V10.0737C24.9387 10.1455 24.8805 10.2039 24.8086 10.2039Z" fill="white"/>
<path d="M26.9434 10.2039H26.9508C27.0227 10.2039 27.081 10.1457 27.081 10.0737V9.79168C27.081 9.71977 27.1392 9.66146 27.2112 9.66146H27.754C27.8259 9.66146 27.8842 9.71968 27.8842 9.79168V10.0737C27.8842 10.1456 27.9425 10.2039 28.0145 10.2039H29.0963C29.1682 10.2039 29.2265 10.1457 29.2265 10.0737V9.51699C29.2265 9.44509 29.1683 9.38677 29.0963 9.38677H28.5533C28.4814 9.38677 28.4231 9.44499 28.4231 9.51699V9.53124C28.4231 9.60315 28.4813 9.66146 28.5533 9.66146H28.8251C28.897 9.66146 28.9553 9.71968 28.9553 9.79168V9.80583C28.9553 9.87774 28.8971 9.93605 28.8251 9.93605H28.2857C28.2138 9.93605 28.1555 9.87783 28.1555 9.80583V9.51699C28.1555 9.44509 28.0972 9.38677 28.0252 9.38677H26.9434C26.8715 9.38677 26.8131 9.44499 26.8131 9.51699V10.0737C26.8131 10.1455 26.8715 10.2039 26.9434 10.2039ZM27.4823 10.2039H27.4863C27.5582 10.2039 27.6165 10.1457 27.6165 10.0737V10.0663C27.6165 9.99436 27.5583 9.93605 27.4863 9.93605H27.4823C27.4104 9.93605 27.3521 9.99427 27.3521 10.0663V10.0737C27.3522 10.1455 27.4104 10.2039 27.4823 10.2039ZM26.9434 9.11218H30.1706C30.2425 9.11218 30.3008 9.05396 30.3008 8.98196V8.96771C30.3008 8.89581 30.2426 8.83749 30.1706 8.83749H26.9434C26.8715 8.83749 26.8131 8.89571 26.8131 8.96771V8.98196C26.8131 9.05396 26.8715 9.11218 26.9434 9.11218ZM30.1707 10.2039H29.6279C29.556 10.2039 29.4977 10.1457 29.4977 10.0737V9.51699C29.4977 9.44509 29.5559 9.38677 29.6279 9.38677H30.4384C30.5104 9.38677 30.5687 9.32855 30.5687 9.25656V8.96771C30.5687 8.89581 30.6269 8.83749 30.6989 8.83749H30.7063C30.7782 8.83749 30.8365 8.89571 30.8365 8.96771V9.80583C30.8365 9.87774 30.8947 9.93605 30.9667 9.93605H30.9739C31.0459 9.93605 31.1042 9.87783 31.1042 9.80583V8.96771C31.1042 8.89581 31.1624 8.83749 31.2344 8.83749H31.2418C31.3137 8.83749 31.372 8.89571 31.372 8.96771V9.80583C31.372 9.87774 31.4302 9.93605 31.5022 9.93605H31.5094C31.5814 9.93605 31.6397 9.87783 31.6397 9.80583V8.96771C31.6397 8.89581 31.6979 8.83749 31.7699 8.83749H31.7773C31.8492 8.83749 31.9075 8.89571 31.9075 8.96771V10.0737C31.9075 10.1456 31.8493 10.2039 31.7773 10.2039H30.6987C30.6268 10.2039 30.5685 10.1457 30.5685 10.0737V9.79168C30.5685 9.71977 30.5103 9.66146 30.4383 9.66146H29.8921C29.8202 9.66146 29.7619 9.71968 29.7619 9.79168V9.80583C29.7619 9.87774 29.8201 9.93605 29.8921 9.93605H30.1705C30.2424 9.93605 30.3007 9.99427 30.3007 10.0663V10.0737C30.3009 10.1455 30.2425 10.2039 30.1707 10.2039Z" fill="white"/>
<path d="M32.305 10.2039H32.3124C32.3843 10.2039 32.4426 10.1457 32.4426 10.0737V9.79168C32.4426 9.71977 32.5008 9.66146 32.5728 9.66146H33.119C33.1909 9.66146 33.2492 9.71968 33.2492 9.79168V10.0737C33.2492 10.1456 33.3075 10.2039 33.3795 10.2039H34.458C34.53 10.2039 34.5883 10.1457 34.5883 10.0737V9.51699C34.5883 9.44509 34.53 9.38677 34.458 9.38677H33.9151C33.8431 9.38677 33.7848 9.44499 33.7848 9.51699V9.53124C33.7848 9.60315 33.8431 9.66146 33.9151 9.66146H34.1938C34.2657 9.66146 34.324 9.71968 34.324 9.79168V9.80583C34.324 9.87774 34.2658 9.93605 34.1938 9.93605H33.6439C33.572 9.93605 33.5137 9.87783 33.5137 9.80583V9.51699C33.5137 9.44509 33.4555 9.38677 33.3835 9.38677H32.3052C32.2333 9.38677 32.175 9.44499 32.175 9.51699V10.0737C32.1749 10.1455 32.2331 10.2039 32.305 10.2039ZM32.8406 10.2039H32.8514C32.9233 10.2039 32.9816 10.1457 32.9816 10.0737V10.0663C32.9816 9.99436 32.9234 9.93605 32.8514 9.93605H32.8406C32.7687 9.93605 32.7104 9.99427 32.7104 10.0663V10.0737C32.7104 10.1455 32.7687 10.2039 32.8406 10.2039ZM32.305 9.11218H35.5322C35.6041 9.11218 35.6625 9.05396 35.6625 8.98196V8.96771C35.6625 8.89581 35.6042 8.83749 35.5322 8.83749H32.305C32.2331 8.83749 32.1748 8.89571 32.1748 8.96771V8.98196C32.1749 9.05396 32.2331 9.11218 32.305 9.11218ZM35.5324 10.2039H34.9896C34.9177 10.2039 34.8594 10.1457 34.8594 10.0737V9.51699C34.8594 9.44509 34.9176 9.38677 34.9896 9.38677H35.8002C35.8721 9.38677 35.9304 9.32855 35.9304 9.25656V8.96771C35.9304 8.89581 35.9886 8.83749 36.0606 8.83749H36.068C36.1399 8.83749 36.1982 8.89571 36.1982 8.96771V9.80583C36.1982 9.87774 36.2565 9.93605 36.3285 9.93605H36.3357C36.4076 9.93605 36.4659 9.87783 36.4659 9.80583V8.96771C36.4659 8.89581 36.5241 8.83749 36.5961 8.83749H36.6035C36.6754 8.83749 36.7337 8.89571 36.7337 8.96771V9.80583C36.7337 9.87774 36.7919 9.93605 36.8639 9.93605H36.8747C36.9466 9.93605 37.0049 9.87783 37.0049 9.80583V8.96771C37.0049 8.89581 37.0632 8.83749 37.1352 8.83749H37.1389C37.2108 8.83749 37.2691 8.89571 37.2691 8.96771V10.0737C37.2691 10.1456 37.2109 10.2039 37.1389 10.2039H36.0606C35.9887 10.2039 35.9304 10.1457 35.9304 10.0737V9.79168C35.9304 9.71977 35.8722 9.66146 35.8002 9.66146H35.2607C35.1888 9.66146 35.1305 9.71968 35.1305 9.79168V9.80583C35.1305 9.87774 35.1887 9.93605 35.2607 9.93605H35.5325C35.6044 9.93605 35.6627 9.99427 35.6627 10.0663V10.0737C35.6625 10.1455 35.6043 10.2039 35.5324 10.2039Z" fill="white"/>
<path d="M37.6704 10.2039H37.6743C37.7463 10.2039 37.8046 10.1457 37.8046 10.0737V9.79168C37.8046 9.71977 37.8628 9.66146 37.9348 9.66146H38.4778C38.5497 9.66146 38.608 9.71968 38.608 9.79168V10.0737C38.608 10.1456 38.6662 10.2039 38.7382 10.2039H39.8199C39.8918 10.2039 39.9501 10.1457 39.9501 10.0737V9.51699C39.9501 9.44509 39.8919 9.38677 39.8199 9.38677H39.2807C39.2088 9.38677 39.1504 9.44499 39.1504 9.51699V9.53124C39.1504 9.60315 39.2087 9.66146 39.2807 9.66146H39.5556C39.6275 9.66146 39.6858 9.71968 39.6858 9.79168V9.80583C39.6858 9.87774 39.6276 9.93605 39.5556 9.93605H39.0094C38.9375 9.93605 38.8792 9.87783 38.8792 9.80583V9.51699C38.8792 9.44509 38.821 9.38677 38.749 9.38677H37.6704C37.5985 9.38677 37.5402 9.44499 37.5402 9.51699V10.0737C37.5401 10.1455 37.5985 10.2039 37.6704 10.2039ZM38.2059 10.2039H38.2133C38.2852 10.2039 38.3435 10.1457 38.3435 10.0737V10.0663C38.3435 9.99436 38.2853 9.93605 38.2133 9.93605H38.2059C38.134 9.93605 38.0757 9.99427 38.0757 10.0663V10.0737C38.0757 10.1455 38.134 10.2039 38.2059 10.2039ZM37.6704 9.11218H40.9012C40.9731 9.11218 41.0314 9.05396 41.0314 8.98196V8.96771C41.0314 8.89581 40.9732 8.83749 40.9012 8.83749H37.6704C37.5985 8.83749 37.5402 8.89571 37.5402 8.96771V8.98196C37.5401 9.05396 37.5985 9.11218 37.6704 9.11218ZM40.9011 10.2039H40.3513C40.2794 10.2039 40.2211 10.1457 40.2211 10.0737V9.51699C40.2211 9.44509 40.2793 9.38677 40.3513 9.38677H41.162C41.2339 9.38677 41.2922 9.32855 41.2922 9.25656V8.96771C41.2922 8.89581 41.3505 8.83749 41.4225 8.83749H41.4332C41.5052 8.83749 41.5635 8.89571 41.5635 8.96771V9.80583C41.5635 9.87774 41.6217 9.93605 41.6937 9.93605H41.7009C41.7728 9.93605 41.8311 9.87783 41.8311 9.80583V8.96771C41.8311 8.89581 41.8893 8.83749 41.9613 8.83749H41.9653C42.0372 8.83749 42.0955 8.89571 42.0955 8.96771V9.80583C42.0955 9.87774 42.1537 9.93605 42.2257 9.93605H42.2365C42.3084 9.93605 42.3667 9.87783 42.3667 9.80583V8.96771C42.3667 8.89581 42.4249 8.83749 42.4969 8.83749H42.5043C42.5762 8.83749 42.6346 8.89571 42.6346 8.96771V10.0737C42.6346 10.1456 42.5763 10.2039 42.5043 10.2039H41.4225C41.3506 10.2039 41.2922 10.1457 41.2922 10.0737V9.79168C41.2922 9.71977 41.234 9.66146 41.162 9.66146H40.6192C40.5473 9.66146 40.489 9.71968 40.489 9.79168V9.80583C40.489 9.87774 40.5472 9.93605 40.6192 9.93605H40.9012C40.9731 9.93605 41.0314 9.99427 41.0314 10.0663V10.0737C41.0314 10.1455 40.973 10.2039 40.9011 10.2039Z" fill="white"/>
<path d="M43.0324 10.2039H43.0398C43.1117 10.2039 43.17 10.1457 43.17 10.0737V9.79168C43.17 9.71977 43.2282 9.66146 43.3002 9.66146H43.843C43.9149 9.66146 43.9732 9.71968 43.9732 9.79168V10.0737C43.9732 10.1456 44.0314 10.2039 44.1034 10.2039H45.1853C45.2572 10.2039 45.3155 10.1457 45.3155 10.0737V9.51699C45.3155 9.44509 45.2573 9.38677 45.1853 9.38677H44.6459C44.574 9.38677 44.5157 9.44499 44.5157 9.51699V9.53124C44.5157 9.60315 44.5739 9.66146 44.6459 9.66146H44.921C44.993 9.66146 45.0513 9.71968 45.0513 9.79168V9.80583C45.0513 9.87774 44.993 9.93605 44.921 9.93605H44.3712C44.2993 9.93605 44.241 9.87783 44.241 9.80583V9.51699C44.241 9.44509 44.1828 9.38677 44.1108 9.38677H43.0324C42.9605 9.38677 42.9022 9.44499 42.9022 9.51699V10.0737C42.9022 10.1455 42.9605 10.2039 43.0324 10.2039ZM43.5679 10.2039H43.5754C43.6473 10.2039 43.7056 10.1457 43.7056 10.0737V10.0663C43.7056 9.99436 43.6474 9.93605 43.5754 9.93605H43.5679C43.496 9.93605 43.4377 9.99427 43.4377 10.0663V10.0737C43.4378 10.1455 43.496 10.2039 43.5679 10.2039ZM43.0324 9.11218H46.2562C46.3281 9.11218 46.3865 9.05396 46.3865 8.98196V8.96771C46.3865 8.89581 46.3282 8.83749 46.2562 8.83749H43.0324C42.9604 8.83749 42.9021 8.89571 42.9021 8.96771V8.98196C42.9022 9.05396 42.9605 9.11218 43.0324 9.11218ZM46.2562 10.2039H45.7134C45.6415 10.2039 45.5832 10.1457 45.5832 10.0737V9.51699C45.5832 9.44509 45.6414 9.38677 45.7134 9.38677H46.531C46.6029 9.38677 46.6612 9.32855 46.6612 9.25656V8.96771C46.6612 8.89581 46.7195 8.83749 46.7915 8.83749H46.7918C46.8637 8.83749 46.9221 8.89571 46.9221 8.96771V9.80583C46.9221 9.87774 46.9803 9.93605 47.0523 9.93605H47.0665C47.1384 9.93605 47.1967 9.87783 47.1967 9.80583V8.96771C47.1967 8.89581 47.255 8.83749 47.327 8.83749H47.3273C47.3992 8.83749 47.4576 8.89571 47.4576 8.96771V9.80583C47.4576 9.87774 47.5158 9.93605 47.5878 9.93605H47.5952C47.6671 9.93605 47.7254 9.87783 47.7254 9.80583V8.96771C47.7254 8.89581 47.7836 8.83749 47.8556 8.83749H47.8698C47.9417 8.83749 48 8.89571 48 8.96771V10.0737C48 10.1456 47.9418 10.2039 47.8698 10.2039H46.7915C46.7196 10.2039 46.6612 10.1457 46.6612 10.0737V9.79168C46.6612 9.71977 46.603 9.66146 46.531 9.66146H45.9813C45.9094 9.66146 45.851 9.71968 45.851 9.79168V9.80583C45.851 9.87774 45.9093 9.93605 45.9813 9.93605H46.2562C46.3281 9.93605 46.3865 9.99427 46.3865 10.0663V10.0737C46.3865 10.1455 46.3281 10.2039 46.2562 10.2039Z" fill="white"/>
<path d="M0.130219 11.0345H2.283C2.3549 11.0345 2.41321 10.9762 2.41321 10.9042V10.6154C2.41321 10.5435 2.355 10.4852 2.283 10.4852H0.130219C0.0583124 10.4852 0 10.5434 0 10.6154V10.9042C0 10.9762 0.0582186 11.0345 0.130219 11.0345ZM2.81456 11.0345H4.96396C5.03587 11.0345 5.09418 10.9762 5.09418 10.9042V10.6154C5.09418 10.5435 5.03596 10.4852 4.96396 10.4852H2.81456C2.74265 10.4852 2.68434 10.5434 2.68434 10.6154V10.9042C2.68434 10.9762 2.74265 11.0345 2.81456 11.0345Z" fill="white"/>
<path d="M5.49542 11.0345H7.64482C7.71673 11.0345 7.77504 10.9762 7.77504 10.9042V10.6154C7.77504 10.5435 7.71682 10.4852 7.64482 10.4852H5.49542C5.42352 10.4852 5.3652 10.5434 5.3652 10.6154V10.9042C5.3653 10.9762 5.42361 11.0345 5.49542 11.0345ZM8.17301 11.0345H10.3293C10.4012 11.0345 10.4595 10.9762 10.4595 10.9042V10.6154C10.4595 10.5435 10.4013 10.4852 10.3293 10.4852H8.17301C8.1011 10.4852 8.04279 10.5434 8.04279 10.6154V10.9042C8.04279 10.9762 8.1011 11.0345 8.17301 11.0345Z" fill="white"/>
<path d="M10.8577 11.0345H13.0105C13.0824 11.0345 13.1407 10.9762 13.1407 10.9042V10.6154C13.1407 10.5435 13.0825 10.4852 13.0105 10.4852H10.8577C10.7858 10.4852 10.7275 10.5434 10.7275 10.6154V10.9042C10.7274 10.9762 10.7858 11.0345 10.8577 11.0345ZM13.5386 11.0345H15.6914C15.7633 11.0345 15.8216 10.9762 15.8216 10.9042V10.6154C15.8216 10.5435 15.7634 10.4852 15.6914 10.4852H13.5386C13.4667 10.4852 13.4084 10.5434 13.4084 10.6154V10.9042C13.4085 10.9762 13.4668 11.0345 13.5386 11.0345Z" fill="white"/>
<path d="M16.2192 11.0345H18.372C18.4439 11.0345 18.5022 10.9762 18.5022 10.9042V10.6154C18.5022 10.5435 18.444 10.4852 18.372 10.4852H16.2192C16.1473 10.4852 16.089 10.5434 16.089 10.6154V10.9042C16.0891 10.9762 16.1474 11.0345 16.2192 11.0345ZM18.8968 11.0345H21.053C21.1249 11.0345 21.1833 10.9762 21.1833 10.9042V10.6154C21.1833 10.5435 21.125 10.4852 21.053 10.4852H18.8968C18.8249 10.4852 18.7666 10.5434 18.7666 10.6154V10.9042C18.7666 10.9762 18.8248 11.0345 18.8968 11.0345Z" fill="white"/>
<path d="M21.5812 11.0345H23.7341C23.806 11.0345 23.8644 10.9762 23.8644 10.9042V10.6154C23.8644 10.5435 23.8061 10.4852 23.7341 10.4852H21.5812C21.5093 10.4852 21.451 10.5434 21.451 10.6154V10.9042C21.4511 10.9762 21.5093 11.0345 21.5812 11.0345ZM24.2621 11.0345H26.4151C26.487 11.0345 26.5453 10.9762 26.5453 10.9042V10.6154C26.5453 10.5435 26.4871 10.4852 26.4151 10.4852H24.2621C24.1902 10.4852 24.1319 10.5434 24.1319 10.6154V10.9042C24.132 10.9762 24.1902 11.0345 24.2621 11.0345Z" fill="white"/>
<path d="M26.9434 11.0345H29.0963C29.1682 11.0345 29.2265 10.9762 29.2265 10.9042V10.6154C29.2265 10.5435 29.1683 10.4852 29.0963 10.4852H26.9434C26.8715 10.4852 26.8131 10.5434 26.8131 10.6154V10.9042C26.8131 10.9762 26.8715 11.0345 26.9434 11.0345ZM29.6279 11.0345H31.7773C31.8492 11.0345 31.9075 10.9762 31.9075 10.9042V10.6154C31.9075 10.5435 31.8493 10.4852 31.7773 10.4852H29.6279C29.556 10.4852 29.4977 10.5434 29.4977 10.6154V10.9042C29.4977 10.9762 29.556 11.0345 29.6279 11.0345Z" fill="white"/>
<path d="M32.305 11.0345H34.458C34.5299 11.0345 34.5882 10.9762 34.5882 10.9042V10.6154C34.5882 10.5435 34.53 10.4852 34.458 10.4852H32.305C32.2331 10.4852 32.1748 10.5434 32.1748 10.6154V10.9042C32.1749 10.9762 32.2331 11.0345 32.305 11.0345ZM34.9895 11.0345H37.1387C37.2106 11.0345 37.269 10.9762 37.269 10.9042V10.6154C37.269 10.5435 37.2107 10.4852 37.1387 10.4852H34.9895C34.9176 10.4852 34.8593 10.5434 34.8593 10.6154V10.9042C34.8594 10.9762 34.9176 11.0345 34.9895 11.0345Z" fill="white"/>
<path d="M37.6704 11.0345H39.8198C39.8917 11.0345 39.95 10.9762 39.95 10.9042V10.6154C39.95 10.5435 39.8918 10.4852 39.8198 10.4852H37.6704C37.5985 10.4852 37.5402 10.5434 37.5402 10.6154V10.9042C37.5401 10.9762 37.5985 11.0345 37.6704 11.0345ZM40.3514 11.0345H42.5043C42.5762 11.0345 42.6346 10.9762 42.6346 10.9042V10.6154C42.6346 10.5435 42.5763 10.4852 42.5043 10.4852H40.3514C40.2795 10.4852 40.2212 10.5434 40.2212 10.6154V10.9042C40.2212 10.9762 40.2795 11.0345 40.3514 11.0345Z" fill="white"/>
<path d="M43.0324 11.0345H45.1853C45.2572 11.0345 45.3155 10.9762 45.3155 10.9042V10.6154C45.3155 10.5435 45.2573 10.4852 45.1853 10.4852H43.0324C42.9604 10.4852 42.9021 10.5434 42.9021 10.6154V10.9042C42.9022 10.9762 42.9605 11.0345 43.0324 11.0345ZM45.7135 11.0345H47.8698C47.9417 11.0345 48 10.9762 48 10.9042V10.6154C48 10.5435 47.9418 10.4852 47.8698 10.4852H45.7135C45.6416 10.4852 45.5833 10.5434 45.5833 10.6154V10.9042C45.5832 10.9762 45.6415 11.0345 45.7135 11.0345Z" fill="white"/>
<path d="M47.8696 21.796H47.8624C47.7904 21.796 47.7321 21.8542 47.7321 21.9262V22.2082C47.7321 22.2801 47.6739 22.3384 47.6019 22.3384H47.0556C46.9837 22.3384 46.9254 22.2802 46.9254 22.2082V21.9262C46.9254 21.8543 46.8672 21.796 46.7952 21.796H45.7169C45.645 21.796 45.5867 21.8542 45.5867 21.9262V22.483C45.5867 22.5549 45.6449 22.6132 45.7169 22.6132H46.2597C46.3316 22.6132 46.3899 22.555 46.3899 22.483V22.4687C46.3899 22.3968 46.3317 22.3385 46.2597 22.3385H45.9845C45.9126 22.3385 45.8543 22.2803 45.8543 22.2083V22.1941C45.8543 22.1222 45.9125 22.0639 45.9845 22.0639H46.5275C46.5994 22.0639 46.6578 22.1221 46.6578 22.1941V22.483C46.6578 22.5549 46.716 22.6132 46.788 22.6132H47.8697C47.9416 22.6132 47.9999 22.555 47.9999 22.483V21.9262C47.9998 21.8543 47.9416 21.796 47.8696 21.796ZM47.3307 21.796H47.3233C47.2514 21.796 47.1931 21.8542 47.1931 21.9262V21.9336C47.1931 22.0055 47.2513 22.0638 47.3233 22.0638H47.3307C47.4026 22.0638 47.4609 22.0056 47.4609 21.9336V21.9262C47.4609 21.8543 47.4026 21.796 47.3307 21.796ZM47.8696 22.8877H44.6424C44.5705 22.8877 44.5122 22.9459 44.5122 23.0179V23.0321C44.5122 23.1041 44.5704 23.1624 44.6424 23.1624H47.8696C47.9415 23.1624 47.9998 23.1041 47.9998 23.0321V23.0179C47.9998 22.9459 47.9416 22.8877 47.8696 22.8877ZM44.6425 21.796H45.1853C45.2572 21.796 45.3155 21.8542 45.3155 21.9262V22.483C45.3155 22.5549 45.2573 22.6132 45.1853 22.6132H44.3746C44.3027 22.6132 44.2444 22.6714 44.2444 22.7434V23.0322C44.2444 23.1041 44.1861 23.1625 44.1141 23.1625H44.1069C44.035 23.1625 43.9767 23.1042 43.9767 23.0322V22.1941C43.9767 22.1222 43.9185 22.0639 43.8465 22.0639H43.8391C43.7672 22.0639 43.7089 22.1221 43.7089 22.1941V23.0322C43.7089 23.1041 43.6506 23.1625 43.5786 23.1625H43.5714C43.4995 23.1625 43.4412 23.1042 43.4412 23.0322V22.1941C43.4412 22.1222 43.383 22.0639 43.311 22.0639H43.3002C43.2283 22.0639 43.17 22.1221 43.17 22.1941V23.0322C43.17 23.1041 43.1118 23.1625 43.0398 23.1625H43.0358C42.9639 23.1625 42.9056 23.1042 42.9056 23.0322V21.9263C42.9056 21.8544 42.9638 21.7961 43.0358 21.7961H44.1141C44.186 21.7961 44.2444 21.8543 44.2444 21.9263V22.2083C44.2444 22.2802 44.3026 22.3385 44.3746 22.3385H44.9174C44.9893 22.3385 45.0476 22.2803 45.0476 22.2083V22.1941C45.0476 22.1222 44.9894 22.0639 44.9174 22.0639H44.6424C44.5705 22.0639 44.5122 22.0057 44.5122 21.9337V21.9263C44.5122 21.8543 44.5706 21.796 44.6425 21.796Z" fill="white"/>
<path d="M42.5043 21.796H42.4935C42.4216 21.796 42.3633 21.8542 42.3633 21.9262V22.2082C42.3633 22.2801 42.3051 22.3384 42.2331 22.3384H41.6937C41.6218 22.3384 41.5634 22.2802 41.5634 22.2082V21.9262C41.5634 21.8543 41.5052 21.796 41.4332 21.796H40.3549C40.283 21.796 40.2247 21.8542 40.2247 21.9262V22.483C40.2247 22.5549 40.2829 22.6132 40.3549 22.6132H40.8977C40.9696 22.6132 41.0279 22.555 41.0279 22.483V22.4687C41.0279 22.3968 40.9697 22.3385 40.8977 22.3385H40.6226C40.5507 22.3385 40.4923 22.2803 40.4923 22.2083V22.1941C40.4923 22.1222 40.5506 22.0639 40.6226 22.0639H41.1656C41.2375 22.0639 41.2958 22.1221 41.2958 22.1941V22.483C41.2958 22.5549 41.354 22.6132 41.426 22.6132H42.5043C42.5762 22.6132 42.6345 22.555 42.6345 22.483V21.9262C42.6344 21.8543 42.5761 21.796 42.5043 21.796ZM41.9687 21.796H41.9615C41.8896 21.796 41.8313 21.8542 41.8313 21.9262V21.9336C41.8313 22.0055 41.8895 22.0638 41.9615 22.0638H41.9687C42.0406 22.0638 42.0989 22.0056 42.0989 21.9336V21.9262C42.0988 21.8543 42.0406 21.796 41.9687 21.796ZM42.5043 22.8877H39.2804C39.2085 22.8877 39.1502 22.9459 39.1502 23.0179V23.0321C39.1502 23.1041 39.2084 23.1624 39.2804 23.1624H42.5043C42.5762 23.1624 42.6345 23.1041 42.6345 23.0321V23.0179C42.6344 22.9459 42.5761 22.8877 42.5043 22.8877ZM39.2804 21.796H39.8267C39.8986 21.796 39.9569 21.8542 39.9569 21.9262V22.483C39.9569 22.5549 39.8987 22.6132 39.8267 22.6132H39.016C38.9441 22.6132 38.8858 22.6714 38.8858 22.7434V23.0322C38.8858 23.1041 38.8275 23.1625 38.7555 23.1625H38.7448C38.6729 23.1625 38.6145 23.1042 38.6145 23.0322V22.1941C38.6145 22.1222 38.5563 22.0639 38.4843 22.0639H38.4735C38.4016 22.0639 38.3433 22.1221 38.3433 22.1941V23.0322C38.3433 23.1041 38.2851 23.1625 38.2131 23.1625H38.2092C38.1373 23.1625 38.0789 23.1042 38.0789 23.0322V22.1941C38.0789 22.1222 38.0207 22.0639 37.9487 22.0639H37.9379C37.866 22.0639 37.8077 22.1221 37.8077 22.1941V23.0322C37.8077 23.1041 37.7495 23.1625 37.6775 23.1625H37.6703C37.5984 23.1625 37.5401 23.1042 37.5401 23.0322V21.9263C37.5401 21.8544 37.5983 21.7961 37.6703 21.7961H38.7554C38.8274 21.7961 38.8857 21.8543 38.8857 21.9263V22.2083C38.8857 22.2802 38.9439 22.3385 39.0159 22.3385H39.5553C39.6272 22.3385 39.6855 22.2803 39.6855 22.2083V22.1941C39.6855 22.1222 39.6273 22.0639 39.5553 22.0639H39.2802C39.2083 22.0639 39.1499 22.0057 39.1499 21.9337V21.9263C39.1502 21.8543 39.2085 21.796 39.2804 21.796Z" fill="white"/>
<path d="M37.1425 21.796H37.1353C37.0634 21.796 37.0051 21.8542 37.0051 21.9262V22.2082C37.0051 22.2801 36.9469 22.3384 36.8749 22.3384H36.3319C36.26 22.3384 36.2016 22.2802 36.2016 22.2082V21.9262C36.2016 21.8543 36.1434 21.796 36.0714 21.796H34.9897C34.9178 21.796 34.8595 21.8542 34.8595 21.9262V22.483C34.8595 22.5549 34.9177 22.6132 34.9897 22.6132H35.5326C35.6045 22.6132 35.6628 22.555 35.6628 22.483V22.4687C35.6628 22.3968 35.6046 22.3385 35.5326 22.3385H35.2574C35.1855 22.3385 35.1272 22.2803 35.1272 22.2083V22.1941C35.1272 22.1222 35.1854 22.0639 35.2574 22.0639H35.8037C35.8756 22.0639 35.9339 22.1221 35.9339 22.1941V22.483C35.9339 22.5549 35.9921 22.6132 36.0641 22.6132H37.1424C37.2143 22.6132 37.2726 22.555 37.2726 22.483V21.9262C37.2728 21.8543 37.2144 21.796 37.1425 21.796ZM36.607 21.796H36.5998C36.5279 21.796 36.4696 21.8542 36.4696 21.9262V21.9336C36.4696 22.0055 36.5278 22.0638 36.5998 22.0638H36.607C36.6789 22.0638 36.7372 22.0056 36.7372 21.9336V21.9262C36.7372 21.8543 36.6789 21.796 36.607 21.796ZM37.1425 22.8877H33.9152C33.8433 22.8877 33.785 22.9459 33.785 23.0179V23.0321C33.785 23.1041 33.8432 23.1624 33.9152 23.1624H37.1425C37.2144 23.1624 37.2727 23.1041 37.2727 23.0321V23.0179C37.2728 22.9459 37.2144 22.8877 37.1425 22.8877ZM33.9153 21.796H34.4616C34.5335 21.796 34.5918 21.8542 34.5918 21.9262V22.483C34.5918 22.5549 34.5336 22.6132 34.4616 22.6132H33.651C33.5791 22.6132 33.5208 22.6714 33.5208 22.7434V23.0322C33.5208 23.1041 33.4626 23.1625 33.3906 23.1625H33.3832C33.3112 23.1625 33.2529 23.1042 33.2529 23.0322V22.1941C33.2529 22.1222 33.1947 22.0639 33.1227 22.0639H33.1119C33.04 22.0639 32.9817 22.1221 32.9817 22.1941V23.0322C32.9817 23.1041 32.9235 23.1625 32.8515 23.1625H32.8407C32.7688 23.1625 32.7105 23.1042 32.7105 23.0322V22.1941C32.7105 22.1222 32.6523 22.0639 32.5803 22.0639H32.5763C32.5044 22.0639 32.4461 22.1221 32.4461 22.1941V23.0322C32.4461 23.1041 32.3879 23.1625 32.3159 23.1625H32.3087C32.2368 23.1625 32.1785 23.1042 32.1785 23.0322V21.9263C32.1785 21.8544 32.2367 21.7961 32.3087 21.7961H33.3906C33.4625 21.7961 33.5208 21.8543 33.5208 21.9263V22.2083C33.5208 22.2802 33.579 22.3385 33.651 22.3385H34.1938C34.2657 22.3385 34.324 22.2803 34.324 22.2083V22.1941C34.324 22.1222 34.2658 22.0639 34.1938 22.0639H33.9151C33.8432 22.0639 33.7849 22.0057 33.7849 21.9337V21.9263C33.7851 21.8543 33.8434 21.796 33.9153 21.796Z" fill="white"/>
<path d="M31.7805 21.796H31.7733C31.7014 21.796 31.6431 21.8542 31.6431 21.9262V22.2082C31.6431 22.2801 31.5849 22.3384 31.5129 22.3384H30.9701C30.8981 22.3384 30.8398 22.2802 30.8398 22.2082V21.9262C30.8398 21.8543 30.7816 21.796 30.7096 21.796H29.6277C29.5558 21.796 29.4975 21.8542 29.4975 21.9262V22.483C29.4975 22.5549 29.5557 22.6132 29.6277 22.6132H30.174C30.2459 22.6132 30.3042 22.555 30.3042 22.483V22.4687C30.3042 22.3968 30.246 22.3385 30.174 22.3385H29.8989C29.827 22.3385 29.7687 22.2803 29.7687 22.2083V22.1941C29.7687 22.1222 29.8269 22.0639 29.8989 22.0639H30.4417C30.5136 22.0639 30.5719 22.1221 30.5719 22.1941V22.483C30.5719 22.5549 30.6301 22.6132 30.7021 22.6132H31.7804C31.8523 22.6132 31.9107 22.555 31.9107 22.483V21.9262C31.9107 21.8543 31.8523 21.796 31.7805 21.796ZM31.2449 21.796H31.2377C31.1658 21.796 31.1075 21.8542 31.1075 21.9262V21.9336C31.1075 22.0055 31.1657 22.0638 31.2377 22.0638H31.2449C31.3168 22.0638 31.3752 22.0056 31.3752 21.9336V21.9262C31.3751 21.8543 31.3168 21.796 31.2449 21.796ZM31.7805 22.8877H28.5567C28.4847 22.8877 28.4264 22.9459 28.4264 23.0179V23.0321C28.4264 23.1041 28.4847 23.1624 28.5567 23.1624H31.7805C31.8524 23.1624 31.9107 23.1041 31.9107 23.0321V23.0179C31.9106 22.9459 31.8523 22.8877 31.7805 22.8877ZM28.5567 21.796H29.1029C29.1748 21.796 29.2332 21.8542 29.2332 21.9262V22.483C29.2332 22.5549 29.1749 22.6132 29.1029 22.6132H28.2853C28.2134 22.6132 28.1551 22.6714 28.1551 22.7434V23.0322C28.1551 23.1041 28.0969 23.1625 28.0249 23.1625H28.0177C27.9458 23.1625 27.8875 23.1042 27.8875 23.0322V22.1941C27.8875 22.1222 27.8293 22.0639 27.7573 22.0639H27.7533C27.6814 22.0639 27.6231 22.1221 27.6231 22.1941V23.0322C27.6231 23.1041 27.5649 23.1625 27.4929 23.1625H27.4821C27.4102 23.1625 27.3519 23.1042 27.3519 23.0322V22.1941C27.3519 22.1222 27.2937 22.0639 27.2217 22.0639H27.2143C27.1423 22.0639 27.084 22.1221 27.084 22.1941V23.0322C27.084 23.1041 27.0258 23.1625 26.9538 23.1625H26.9466C26.8747 23.1625 26.8164 23.1042 26.8164 23.0322V21.9263C26.8164 21.8544 26.8746 21.7961 26.9466 21.7961H28.0249C28.0968 21.7961 28.1551 21.8543 28.1551 21.9263V22.2083C28.1551 22.2802 28.2133 22.3385 28.2853 22.3385H28.8316C28.9035 22.3385 28.9618 22.2803 28.9618 22.2083V22.1941C28.9618 22.1222 28.9036 22.0639 28.8316 22.0639H28.5565C28.4846 22.0639 28.4262 22.0057 28.4262 21.9337V21.9263C28.4265 21.8543 28.4847 21.796 28.5567 21.796Z" fill="white"/>
<path d="M26.4186 21.796H26.4112C26.3393 21.796 26.281 21.8542 26.281 21.9262V22.2082C26.281 22.2801 26.2227 22.3384 26.1507 22.3384H25.6079C25.536 22.3384 25.4777 22.2802 25.4777 22.2082V21.9262C25.4777 21.8543 25.4195 21.796 25.3475 21.796H24.2656C24.1937 21.796 24.1354 21.8542 24.1354 21.9262V22.483C24.1354 22.5549 24.1936 22.6132 24.2656 22.6132H24.8119C24.8838 22.6132 24.9421 22.555 24.9421 22.483V22.4687C24.9421 22.3968 24.8839 22.3385 24.8119 22.3385H24.5335C24.4616 22.3385 24.4032 22.2803 24.4032 22.2083V22.1941C24.4032 22.1222 24.4615 22.0639 24.5335 22.0639H25.0763C25.1482 22.0639 25.2065 22.1221 25.2065 22.1941V22.483C25.2065 22.5549 25.2647 22.6132 25.3367 22.6132H26.4186C26.4905 22.6132 26.5488 22.555 26.5488 22.483V21.9262C26.5487 21.8543 26.4905 21.796 26.4186 21.796ZM25.8795 21.796H25.8756C25.8037 21.796 25.7454 21.8542 25.7454 21.9262V21.9336C25.7454 22.0055 25.8036 22.0638 25.8756 22.0638H25.8795C25.9514 22.0638 26.0097 22.0056 26.0097 21.9336V21.9262C26.0097 21.8543 25.9514 21.796 25.8795 21.796ZM26.4186 22.8877H23.1912C23.1193 22.8877 23.061 22.9459 23.061 23.0179V23.0321C23.061 23.1041 23.1192 23.1624 23.1912 23.1624H26.4186C26.4905 23.1624 26.5488 23.1041 26.5488 23.0321V23.0179C26.5487 22.9459 26.4905 22.8877 26.4186 22.8877ZM23.1912 21.796H23.7374C23.8093 21.796 23.8677 21.8542 23.8677 21.9262V22.483C23.8677 22.5549 23.8094 22.6132 23.7374 22.6132H22.9233C22.8514 22.6132 22.7931 22.6714 22.7931 22.7434V23.0322C22.7931 23.1041 22.7349 23.1625 22.6629 23.1625H22.6557C22.5837 23.1625 22.5254 23.1042 22.5254 23.0322V22.1941C22.5254 22.1222 22.4672 22.0639 22.3952 22.0639H22.3878C22.3159 22.0639 22.2576 22.1221 22.2576 22.1941V23.0322C22.2576 23.1041 22.1994 23.1625 22.1274 23.1625H22.1202C22.0482 23.1625 21.9899 23.1042 21.9899 23.0322V22.1941C21.9899 22.1222 21.9317 22.0639 21.8597 22.0639H21.8525C21.7806 22.0639 21.7223 22.1221 21.7223 22.1941V23.0322C21.7223 23.1041 21.6641 23.1625 21.5921 23.1625H21.5847C21.5128 23.1625 21.4544 23.1042 21.4544 23.0322V21.9263C21.4544 21.8544 21.5127 21.7961 21.5847 21.7961H22.663C22.7349 21.7961 22.7932 21.8543 22.7932 21.9263V22.2083C22.7932 22.2802 22.8514 22.3385 22.9234 22.3385H23.4697C23.5416 22.3385 23.5999 22.2803 23.5999 22.2083V22.1941C23.5999 22.1222 23.5417 22.0639 23.4697 22.0639H23.1912C23.1193 22.0639 23.061 22.0057 23.061 21.9337V21.9263C23.061 21.8543 23.1192 21.796 23.1912 21.796Z" fill="white"/>
<path d="M21.0569 21.796H21.0495C20.9775 21.796 20.9192 21.8542 20.9192 21.9262V22.2082C20.9192 22.2801 20.861 22.3384 20.789 22.3384H20.2462C20.1743 22.3384 20.116 22.2802 20.116 22.2082V21.9262C20.116 21.8543 20.0578 21.796 19.9858 21.796H18.9039C18.832 21.796 18.7737 21.8542 18.7737 21.9262V22.483C18.7737 22.5549 18.8319 22.6132 18.9039 22.6132H19.4469C19.5188 22.6132 19.5771 22.555 19.5771 22.483V22.4687C19.5771 22.3968 19.5189 22.3385 19.4469 22.3385H19.1751C19.1032 22.3385 19.0449 22.2803 19.0449 22.2083V22.1941C19.0449 22.1222 19.1031 22.0639 19.1751 22.0639H19.7145C19.7865 22.0639 19.8448 22.1221 19.8448 22.1941V22.483C19.8448 22.5549 19.903 22.6132 19.975 22.6132H21.0569C21.1288 22.6132 21.1871 22.555 21.1871 22.483V21.9262C21.1871 21.8543 21.1288 21.796 21.0569 21.796ZM20.5179 21.796H20.514C20.442 21.796 20.3837 21.8542 20.3837 21.9262V21.9336C20.3837 22.0055 20.442 22.0638 20.514 22.0638H20.5179C20.5898 22.0638 20.6481 22.0056 20.6481 21.9336V21.9262C20.648 21.8543 20.5898 21.796 20.5179 21.796ZM21.0569 22.8877H17.8295C17.7576 22.8877 17.6993 22.9459 17.6993 23.0179V23.0321C17.6993 23.1041 17.7575 23.1624 17.8295 23.1624H21.0568C21.1287 23.1624 21.187 23.1041 21.187 23.0321V23.0179C21.1871 22.9459 21.1288 22.8877 21.0569 22.8877ZM17.8295 21.796H18.3723C18.4442 21.796 18.5025 21.8542 18.5025 21.9262V22.483C18.5025 22.5549 18.4443 22.6132 18.3723 22.6132H17.5618C17.4899 22.6132 17.4316 22.6714 17.4316 22.7434V23.0322C17.4316 23.1041 17.3733 23.1625 17.3013 23.1625H17.2939C17.222 23.1625 17.1637 23.1042 17.1637 23.0322V22.1941C17.1637 22.1222 17.1055 22.0639 17.0335 22.0639H17.0263C16.9544 22.0639 16.8961 22.1221 16.8961 22.1941V23.0322C16.8961 23.1041 16.8378 23.1625 16.7658 23.1625H16.7584C16.6865 23.1625 16.6282 23.1042 16.6282 23.0322V22.1941C16.6282 22.1222 16.57 22.0639 16.498 22.0639H16.4908C16.4189 22.0639 16.3606 22.1221 16.3606 22.1941V23.0322C16.3606 23.1041 16.3023 23.1625 16.2303 23.1625H16.2229C16.151 23.1625 16.0927 23.1042 16.0927 23.0322V21.9263C16.0927 21.8544 16.1509 21.7961 16.2229 21.7961H17.3015C17.3734 21.7961 17.4317 21.8543 17.4317 21.9263V22.2083C17.4317 22.2802 17.49 22.3385 17.562 22.3385H18.1081C18.1801 22.3385 18.2384 22.2803 18.2384 22.2083V22.1941C18.2384 22.1222 18.1801 22.0639 18.1081 22.0639H17.8297C17.7578 22.0639 17.6995 22.0057 17.6995 21.9337V21.9263C17.6993 21.8543 17.7577 21.796 17.8295 21.796Z" fill="white"/>
<path d="M15.6948 21.796H15.6874C15.6155 21.796 15.5571 21.8542 15.5571 21.9262V22.2082C15.5571 22.2801 15.4989 22.3384 15.4269 22.3384H14.8807C14.8088 22.3384 14.7505 22.2802 14.7505 22.2082V21.9262C14.7505 21.8543 14.6923 21.796 14.6203 21.796H13.5417C13.4698 21.796 13.4115 21.8542 13.4115 21.9262V22.483C13.4115 22.5549 13.4697 22.6132 13.5417 22.6132H14.0847C14.1566 22.6132 14.2149 22.555 14.2149 22.483V22.4687C14.2149 22.3968 14.1567 22.3385 14.0847 22.3385H13.806C13.7341 22.3385 13.6758 22.2803 13.6758 22.2083V22.1941C13.6758 22.1222 13.734 22.0639 13.806 22.0639H14.3558C14.4277 22.0639 14.4861 22.1221 14.4861 22.1941V22.483C14.4861 22.5549 14.5443 22.6132 14.6163 22.6132H15.6946C15.7665 22.6132 15.8248 22.555 15.8248 22.483V21.9262C15.8249 21.8543 15.7667 21.796 15.6948 21.796ZM15.1592 21.796H15.1484C15.0765 21.796 15.0182 21.8542 15.0182 21.9262V21.9336C15.0182 22.0055 15.0764 22.0638 15.1484 22.0638H15.1592C15.2311 22.0638 15.2894 22.0056 15.2894 21.9336V21.9262C15.2894 21.8543 15.2311 21.796 15.1592 21.796ZM15.6948 22.8877H12.4675C12.3956 22.8877 12.3373 22.9459 12.3373 23.0179V23.0321C12.3373 23.1041 12.3955 23.1624 12.4675 23.1624H15.6948C15.7667 23.1624 15.825 23.1041 15.825 23.0321V23.0179C15.8249 22.9459 15.7667 22.8877 15.6948 22.8877ZM12.4673 21.796H13.0101C13.0821 21.796 13.1404 21.8542 13.1404 21.9262V22.483C13.1404 22.5549 13.0821 22.6132 13.0101 22.6132H12.1996C12.1277 22.6132 12.0694 22.6714 12.0694 22.7434V23.0322C12.0694 23.1041 12.0112 23.1625 11.9392 23.1625H11.9317C11.8598 23.1625 11.8015 23.1042 11.8015 23.0322V22.1941C11.8015 22.1222 11.7433 22.0639 11.6713 22.0639H11.6641C11.5922 22.0639 11.5339 22.1221 11.5339 22.1941V23.0322C11.5339 23.1041 11.4757 23.1625 11.4037 23.1625H11.3962C11.3243 23.1625 11.266 23.1042 11.266 23.0322V22.1941C11.266 22.1222 11.2078 22.0639 11.1358 22.0639H11.125C11.0531 22.0639 10.9948 22.1221 10.9948 22.1941V23.0322C10.9948 23.1041 10.9366 23.1625 10.8646 23.1625H10.8607C10.7888 23.1625 10.7305 23.1042 10.7305 23.0322V21.9263C10.7305 21.8544 10.7887 21.7961 10.8607 21.7961H11.9391C12.011 21.7961 12.0693 21.8543 12.0693 21.9263V22.2083C12.0693 22.2802 12.1275 22.3385 12.1995 22.3385H12.7389C12.8108 22.3385 12.8692 22.2803 12.8692 22.2083V22.1941C12.8692 22.1222 12.8109 22.0639 12.7389 22.0639H12.4672C12.3952 22.0639 12.3369 22.0057 12.3369 21.9337V21.9263C12.3372 21.8543 12.3954 21.796 12.4673 21.796Z" fill="white"/>
<path d="M10.3293 21.796H10.3254C10.2535 21.796 10.1952 21.8542 10.1952 21.9262V22.2082C10.1952 22.2801 10.137 22.3384 10.065 22.3384H9.52198C9.45007 22.3384 9.39176 22.2802 9.39176 22.2082V21.9262C9.39176 21.8543 9.33354 21.796 9.26154 21.796H8.18004C8.10813 21.796 8.04982 21.8542 8.04982 21.9262V22.483C8.04982 22.5549 8.10804 22.6132 8.18004 22.6132H8.71929C8.7912 22.6132 8.84951 22.555 8.84951 22.483V22.4687C8.84951 22.3968 8.79129 22.3385 8.71929 22.3385H8.44432C8.37242 22.3385 8.3141 22.2803 8.3141 22.2083V22.1941C8.3141 22.1222 8.37232 22.0639 8.44432 22.0639H8.9906C9.06251 22.0639 9.12082 22.1221 9.12082 22.1941V22.483C9.12082 22.5549 9.17904 22.6132 9.25104 22.6132H10.3296C10.4015 22.6132 10.4598 22.555 10.4598 22.483V21.9262C10.4597 21.8543 10.4013 21.796 10.3293 21.796ZM9.79385 21.796H9.78644C9.71454 21.796 9.65622 21.8542 9.65622 21.9262V21.9336C9.65622 22.0055 9.71444 22.0638 9.78644 22.0638H9.79385C9.86576 22.0638 9.92407 22.0056 9.92407 21.9336V21.9262C9.92407 21.8543 9.86576 21.796 9.79385 21.796ZM10.3293 22.8877H7.09864C7.02673 22.8877 6.96842 22.9459 6.96842 23.0179V23.0321C6.96842 23.1041 7.02664 23.1624 7.09864 23.1624H10.3294C10.4013 23.1624 10.4597 23.1041 10.4597 23.0321V23.0179C10.4597 22.9459 10.4013 22.8877 10.3293 22.8877ZM7.09864 21.796H7.64848C7.72039 21.796 7.7787 21.8542 7.7787 21.9262V22.483C7.7787 22.5549 7.72048 22.6132 7.64848 22.6132H6.83773C6.76583 22.6132 6.70751 22.6714 6.70751 22.7434V23.0322C6.70751 23.1041 6.64929 23.1625 6.57729 23.1625H6.56651C6.49461 23.1625 6.43629 23.1042 6.43629 23.0322V22.1941C6.43629 22.1222 6.37808 22.0639 6.30608 22.0639H6.29886C6.22695 22.0639 6.16864 22.1221 6.16864 22.1941V23.0322C6.16864 23.1041 6.11042 23.1625 6.03842 23.1625H6.03448C5.96258 23.1625 5.90427 23.1042 5.90427 23.0322V22.1941C5.90427 22.1222 5.84605 22.0639 5.77405 22.0639H5.76327C5.69136 22.0639 5.63305 22.1221 5.63305 22.1941V23.0322C5.63305 23.1041 5.57483 23.1625 5.50283 23.1625H5.49542C5.42352 23.1625 5.3652 23.1042 5.3652 23.0322V21.9263C5.3652 21.8544 5.42342 21.7961 5.49542 21.7961H6.57729C6.6492 21.7961 6.70751 21.8543 6.70751 21.9263V22.2083C6.70751 22.2802 6.76573 22.3385 6.83773 22.3385H7.38054C7.45245 22.3385 7.51076 22.2803 7.51076 22.2083V22.1941C7.51076 22.1222 7.45254 22.0639 7.38054 22.0639H7.09882C7.02692 22.0639 6.96861 22.0057 6.96861 21.9337V21.9263C6.96833 21.8543 7.02673 21.796 7.09864 21.796Z" fill="white"/>
<path d="M4.96743 21.796H4.96002C4.88812 21.796 4.8298 21.8542 4.8298 21.9262V22.2082C4.8298 22.2801 4.77158 22.3384 4.69958 22.3384H4.15677C4.08487 22.3384 4.02656 22.2802 4.02656 22.2082V21.9262C4.02656 21.8543 3.96834 21.796 3.89634 21.796H2.81456C2.74265 21.796 2.68434 21.8542 2.68434 21.9262V22.483C2.68434 22.5549 2.74256 22.6132 2.81456 22.6132H3.35399C3.4259 22.6132 3.48421 22.555 3.48421 22.483V22.4687C3.48421 22.3968 3.42599 22.3385 3.35399 22.3385H3.07884C3.00693 22.3385 2.94862 22.2803 2.94862 22.2083V22.1941C2.94862 22.1222 3.00684 22.0639 3.07884 22.0639H3.62868C3.70059 22.0639 3.7589 22.1221 3.7589 22.1941V22.483C3.7589 22.5549 3.81712 22.6132 3.88912 22.6132H4.96743C5.03933 22.6132 5.09765 22.555 5.09765 22.483V21.9262C5.09765 21.8543 5.03933 21.796 4.96743 21.796ZM4.43193 21.796H4.42452C4.35262 21.796 4.2943 21.8542 4.2943 21.9262V21.9336C4.2943 22.0055 4.35252 22.0638 4.42452 22.0638H4.43193C4.50384 22.0638 4.56215 22.0056 4.56215 21.9336V21.9262C4.56205 21.8543 4.50384 21.796 4.43193 21.796ZM4.96743 22.8877H1.74365C1.67175 22.8877 1.61343 22.9459 1.61343 23.0179V23.0321C1.61343 23.1041 1.67165 23.1624 1.74365 23.1624H4.96752C5.03943 23.1624 5.09774 23.1041 5.09774 23.0321V23.0179C5.09765 22.9459 5.03933 22.8877 4.96743 22.8877ZM1.74365 21.796H2.28646C2.35837 21.796 2.41668 21.8542 2.41668 21.9262V22.483C2.41668 22.5549 2.35846 22.6132 2.28646 22.6132H1.46906C1.39715 22.6132 1.33884 22.6714 1.33884 22.7434V23.0322C1.33884 23.1041 1.28062 23.1625 1.20862 23.1625H1.20825C1.13634 23.1625 1.07803 23.1042 1.07803 23.0322V22.1941C1.07803 22.1222 1.01981 22.0639 0.947811 22.0639H0.933373C0.861467 22.0639 0.803155 22.1221 0.803155 22.1941V23.0322C0.803155 23.1041 0.744936 23.1625 0.672936 23.1625H0.672655C0.600749 23.1625 0.542436 23.1042 0.542436 23.0322V22.1941C0.542436 22.1222 0.484218 22.0639 0.412218 22.0639H0.404718C0.332812 22.0639 0.274499 22.1221 0.274499 22.1941V23.0322C0.274499 23.1041 0.216281 23.1625 0.144281 23.1625H0.130219C0.0583124 23.1625 0 23.1042 0 23.0322V21.9263C0 21.8544 0.0582186 21.7961 0.130219 21.7961H1.20853C1.28044 21.7961 1.33875 21.8543 1.33875 21.9263V22.2083C1.33875 22.2802 1.39697 22.3385 1.46897 22.3385H2.01871C2.09062 22.3385 2.14893 22.2803 2.14893 22.2083V22.1941C2.14893 22.1222 2.09071 22.0639 2.01871 22.0639H1.74375C1.67184 22.0639 1.61353 22.0057 1.61353 21.9337V21.9263C1.61343 21.8543 1.67175 21.796 1.74365 21.796Z" fill="white"/>
<path d="M47.8696 20.9655H45.7168C45.6449 20.9655 45.5866 21.0237 45.5866 21.0957V21.3845C45.5866 21.4564 45.6448 21.5147 45.7168 21.5147H47.8696C47.9415 21.5147 47.9998 21.4565 47.9998 21.3845V21.0957C47.9998 21.0237 47.9416 20.9655 47.8696 20.9655ZM45.1852 20.9655H43.0358C42.9639 20.9655 42.9056 21.0237 42.9056 21.0957V21.3845C42.9056 21.4564 42.9638 21.5147 43.0358 21.5147H45.1852C45.2571 21.5147 45.3155 21.4565 45.3155 21.3845V21.0957C45.3155 21.0237 45.2571 20.9655 45.1852 20.9655Z" fill="white"/>
<path d="M42.5044 20.9655H40.355C40.2831 20.9655 40.2247 21.0237 40.2247 21.0957V21.3845C40.2247 21.4564 40.283 21.5147 40.355 21.5147H42.5044C42.5763 21.5147 42.6346 21.4565 42.6346 21.3845V21.0957C42.6345 21.0237 42.5762 20.9655 42.5044 20.9655ZM39.8268 20.9655H37.6705C37.5986 20.9655 37.5403 21.0237 37.5403 21.0957V21.3845C37.5403 21.4564 37.5985 21.5147 37.6705 21.5147H39.8268C39.8987 21.5147 39.957 21.4565 39.957 21.3845V21.0957C39.957 21.0237 39.8988 20.9655 39.8268 20.9655Z" fill="white"/>
<path d="M37.1426 20.9655H34.9898C34.9179 20.9655 34.8596 21.0237 34.8596 21.0957V21.3845C34.8596 21.4564 34.9178 21.5147 34.9898 21.5147H37.1426C37.2145 21.5147 37.2728 21.4565 37.2728 21.3845V21.0957C37.2729 21.0237 37.2145 20.9655 37.1426 20.9655ZM34.4617 20.9655H32.3089C32.237 20.9655 32.1787 21.0237 32.1787 21.0957V21.3845C32.1787 21.4564 32.2369 21.5147 32.3089 21.5147H34.4617C34.5336 21.5147 34.5919 21.4565 34.5919 21.3845V21.0957C34.5919 21.0237 34.5335 20.9655 34.4617 20.9655Z" fill="white"/>
<path d="M31.7806 20.9655H29.6278C29.5559 20.9655 29.4976 21.0237 29.4976 21.0957V21.3845C29.4976 21.4564 29.5558 21.5147 29.6278 21.5147H31.7806C31.8525 21.5147 31.9108 21.4565 31.9108 21.3845V21.0957C31.9107 21.0237 31.8524 20.9655 31.7806 20.9655ZM29.103 20.9655H26.9467C26.8748 20.9655 26.8165 21.0237 26.8165 21.0957V21.3845C26.8165 21.4564 26.8747 21.5147 26.9467 21.5147H29.103C29.1749 21.5147 29.2332 21.4565 29.2332 21.3845V21.0957C29.2332 21.0237 29.175 20.9655 29.103 20.9655Z" fill="white"/>
<path d="M26.4186 20.9655H24.2656C24.1937 20.9655 24.1354 21.0237 24.1354 21.0957V21.3845C24.1354 21.4564 24.1936 21.5147 24.2656 21.5147H26.4186C26.4905 21.5147 26.5488 21.4565 26.5488 21.3845V21.0957C26.5487 21.0237 26.4905 20.9655 26.4186 20.9655ZM23.7376 20.9655H21.5847C21.5128 20.9655 21.4544 21.0237 21.4544 21.0957V21.3845C21.4544 21.4564 21.5127 21.5147 21.5847 21.5147H23.7376C23.8095 21.5147 23.8678 21.4565 23.8678 21.3845V21.0957C23.8677 21.0237 23.8095 20.9655 23.7376 20.9655Z" fill="white"/>
<path d="M21.0569 20.9655H18.9039C18.832 20.9655 18.7737 21.0237 18.7737 21.0957V21.3845C18.7737 21.4564 18.8319 21.5147 18.9039 21.5147H21.0569C21.1288 21.5147 21.1871 21.4565 21.1871 21.3845V21.0957C21.1871 21.0237 21.1288 20.9655 21.0569 20.9655ZM18.3723 20.9655H16.2229C16.151 20.9655 16.0927 21.0237 16.0927 21.0957V21.3845C16.0927 21.4564 16.1509 21.5147 16.2229 21.5147H18.3723C18.4442 21.5147 18.5025 21.4565 18.5025 21.3845V21.0957C18.5025 21.0237 18.4442 20.9655 18.3723 20.9655Z" fill="white"/>
<path d="M15.6948 20.9655H13.5419C13.47 20.9655 13.4116 21.0237 13.4116 21.0957V21.3845C13.4116 21.4564 13.4699 21.5147 13.5419 21.5147H15.6948C15.7667 21.5147 15.8251 21.4565 15.8251 21.3845V21.0957C15.825 21.0237 15.7667 20.9655 15.6948 20.9655ZM13.0103 20.9655H10.8611C10.7892 20.9655 10.7309 21.0237 10.7309 21.0957V21.3845C10.7309 21.4564 10.7891 21.5147 10.8611 21.5147H13.0103C13.0822 21.5147 13.1405 21.4565 13.1405 21.3845V21.0957C13.1404 21.0237 13.0822 20.9655 13.0103 20.9655Z" fill="white"/>
<path d="M10.3293 20.9655H8.18004C8.10813 20.9655 8.04982 21.0237 8.04982 21.0957V21.3845C8.04982 21.4564 8.10804 21.5147 8.18004 21.5147H10.3294C10.4013 21.5147 10.4597 21.4565 10.4597 21.3845V21.0957C10.4597 21.0237 10.4013 20.9655 10.3293 20.9655ZM7.64839 20.9655H5.49542C5.42352 20.9655 5.3652 21.0237 5.3652 21.0957V21.3845C5.3652 21.4564 5.42342 21.5147 5.49542 21.5147H7.64839C7.72029 21.5147 7.7786 21.4565 7.7786 21.3845V21.0957C7.7786 21.0237 7.72029 20.9655 7.64839 20.9655Z" fill="white"/>
<path d="M4.96743 20.9655H2.81456C2.74265 20.9655 2.68434 21.0237 2.68434 21.0957V21.3845C2.68434 21.4564 2.74256 21.5147 2.81456 21.5147H4.96752C5.03943 21.5147 5.09774 21.4565 5.09774 21.3845V21.0957C5.09765 21.0237 5.03933 20.9655 4.96743 20.9655ZM2.28637 20.9655H0.130219C0.0582186 20.9655 0 21.0237 0 21.0957V21.3845C0 21.4564 0.0582186 21.5147 0.130219 21.5147H2.28646C2.35837 21.5147 2.41668 21.4565 2.41668 21.3845V21.0957C2.41668 21.0237 2.35837 20.9655 2.28637 20.9655Z" fill="white"/>
<path d="M23.3153 12.0882C23.5607 12.1536 23.8228 12.0815 24.0028 11.8983C24.2745 12.1733 24.7197 12.1799 25.0013 11.9115C25.1847 11.7347 25.26 11.4662 25.1945 11.2239C24.9556 11.6103 24.4515 11.7347 24.0652 11.4923C24.0455 11.4791 24.0193 11.4661 24.003 11.453C23.6397 11.7214 23.1258 11.6494 22.8507 11.2894C22.8408 11.2696 22.8213 11.2434 22.8081 11.2239C22.7097 11.6039 22.9389 11.9965 23.3153 12.0882Z" fill="#FF4B55"/>
<path d="M24.8407 19.7365C25.7207 19.2534 26.455 18.4922 26.8577 17.4897C27.5434 15.7712 27.1115 13.8315 25.7999 12.5734C25.7548 12.5302 25.6863 12.588 25.719 12.6413C27.0126 14.7509 26.503 17.5232 24.5012 19.0423L24.5969 12.9142C24.5982 12.831 24.5611 12.7518 24.4965 12.6994L24.1709 12.4363C24.0711 12.3556 23.9286 12.3561 23.8295 12.4372L23.5086 12.6994C23.4446 12.7517 23.4081 12.8305 23.4094 12.9132L23.5024 19.0456C21.5002 17.5273 20.9895 14.7524 22.2812 12.6414C22.3138 12.5881 22.2453 12.5303 22.2003 12.5736C20.8911 13.8317 20.4566 15.7713 21.1422 17.4897C21.5449 18.492 22.2791 19.2533 23.1593 19.7364C22.5992 19.9284 22.0104 20.0302 21.4151 20.0131C21.3522 20.0113 21.3396 20.0998 21.3998 20.118C22.1562 20.3476 22.9341 20.3634 23.6656 20.1994L23.9527 20.7566C23.9726 20.795 24.0276 20.7952 24.0476 20.7567L24.3367 20.1997C25.0682 20.3634 25.8464 20.3473 26.6033 20.1178C26.6635 20.0996 26.651 20.0111 26.588 20.0128C25.992 20.0302 25.4018 19.9284 24.8407 19.7365Z" fill="#FF4B55"/>
<path d="M28.4224 14.0394C27.972 13.1979 27.2241 12.5602 26.3337 12.2477C26.2779 12.2281 26.2344 12.3018 26.28 12.3394C28.2456 13.9585 28.6396 16.8424 27.1196 18.9302C27.041 19.035 26.9558 19.1463 26.874 19.2378C28.7401 18.2361 29.4308 15.9053 28.4224 14.0394Z" fill="#FF4B55"/>
<path d="M20.8833 18.9302C19.3632 16.8424 19.7542 13.9586 21.7193 12.3395C21.765 12.3018 21.7214 12.2283 21.6656 12.2478C20.7764 12.5604 20.0336 13.1979 19.5803 14.0394C18.5656 15.9053 19.2629 18.2361 21.1321 19.2377C21.0438 19.1462 20.9587 19.035 20.8833 18.9302Z" fill="#FF4B55"/>
</g>
<defs>
<clipPath id="clip0_11_3017">
<rect width="48" height="32" fill="white"/>
</clipPath>
</defs>
</svg>
