<svg width="48" height="32" viewBox="0 0 48 32" fill="none" xmlns="http://www.w3.org/2000/svg">
<g clip-path="url(#clip0_11_2004)">
<path d="M47.1723 31.7241H0.827623C0.370593 31.7241 0 31.3535 0 30.8965V1.10347C0 0.646441 0.370593 0.275848 0.827623 0.275848H47.1724C47.6294 0.275848 48 0.646441 48 1.10347V30.8965C47.9999 31.3536 47.6293 31.7241 47.1723 31.7241Z" fill="#41479B"/>
<path d="M47.9999 11.8621H21.5172V0.27594H13.2413V11.8621H0V20.138H13.2413V31.7241H21.5172V20.138H47.9999V11.8621Z" fill="white"/>
<path d="M47.9999 13.5173H19.862V0.27594H14.8966V13.5173H0V18.4828H14.8966V31.7241H19.862V18.4828H47.9999V13.5173Z" fill="#FF4B55"/>
</g>
<defs>
<clipPath id="clip0_11_2004">
<rect width="48" height="32" fill="white"/>
</clipPath>
</defs>
</svg>
