<svg width="48" height="32" viewBox="0 0 48 32" fill="none" xmlns="http://www.w3.org/2000/svg">
<g clip-path="url(#clip0_11_1187)">
<path d="M47.1723 0.276001H0.827623C0.370593 0.276001 0 0.6465 0 1.10353V30.8966C0 31.3536 0.370593 31.7242 0.827623 31.7242H47.1724C47.6294 31.7242 48 31.3536 48 30.8966V1.10353C47.9999 0.6465 47.6293 0.276001 47.1723 0.276001Z" fill="#73AF00"/>
<path d="M47.9999 1.1035C47.9999 0.646472 47.6293 0.275879 47.1723 0.275879H43.4691L24 13.0317L4.53084 0.275973H0.827623C0.370593 0.275973 0 0.646472 0 1.1035V3.24437L19.4691 16.0001L0 28.7558V30.8966C0 31.3537 0.370593 31.7243 0.827623 31.7243H4.53084L24 18.9685L43.4691 31.7242H47.1723C47.6293 31.7242 47.9999 31.3536 47.9999 30.8965V28.7557L28.5308 16.0001L47.9999 3.24437V1.1035Z" fill="#FFE15A"/>
<path d="M47.9998 3.24432V28.7557L28.5307 16L47.9998 3.24432Z" fill="#464655"/>
<path d="M0 28.7557V3.24432L19.4691 16L0 28.7557Z" fill="#464655"/>
</g>
<defs>
<clipPath id="clip0_11_1187">
<rect width="48" height="32" fill="white"/>
</clipPath>
</defs>
</svg>
