<svg width="48" height="32" viewBox="0 0 48 32" fill="none" xmlns="http://www.w3.org/2000/svg">
<g clip-path="url(#clip0_11_1815)">
<path d="M47.9999 10.7587H0V1.10347C0 0.646441 0.370593 0.275848 0.827623 0.275848H47.1724C47.6294 0.275848 48 0.646441 48 1.10347L47.9999 10.7587Z" fill="#464655"/>
<path d="M47.1723 31.7242H0.827623C0.370593 31.7242 0 31.3536 0 30.8965V21.2414H47.9999V30.8965C47.9999 31.3537 47.6293 31.7242 47.1723 31.7242Z" fill="#73AF00"/>
<path d="M47.9999 10.7585H0V21.2407H47.9999V10.7585Z" fill="white"/>
<path d="M0.305249 31.5241L28.3469 16.335C28.613 16.1909 28.613 15.8091 28.3469 15.665L0.305249 0.476013C0.122906 0.627794 0 0.847731 0 1.10348V30.8965C0 31.1524 0.122906 31.3723 0.305249 31.5241Z" fill="#FF4B55"/>
<path d="M8.94358 13.8592L9.43548 14.9262L10.5763 14.6455C10.6476 14.628 10.7065 14.7019 10.6736 14.7675L10.1462 15.8174L11.0769 16.5344C11.1351 16.5792 11.114 16.6714 11.0422 16.6865L9.89251 16.9287L9.9123 18.1035C9.91351 18.1768 9.8282 18.2178 9.77167 18.1712L8.86558 17.4234L7.95949 18.1712C7.90286 18.2179 7.81765 18.1769 7.81886 18.1035L7.83864 16.9287L6.68899 16.6865C6.61718 16.6714 6.59618 16.5792 6.65421 16.5344L7.58496 15.8174L7.05752 14.7675C7.02462 14.7019 7.08358 14.6279 7.15483 14.6455L8.29568 14.9262L8.78758 13.8592C8.81814 13.7926 8.91283 13.7926 8.94358 13.8592Z" fill="white"/>
</g>
<defs>
<clipPath id="clip0_11_1815">
<rect width="48" height="32" fill="white"/>
</clipPath>
</defs>
</svg>
