<svg width="48" height="32" viewBox="0 0 48 32" fill="none" xmlns="http://www.w3.org/2000/svg">
<g clip-path="url(#clip0_11_1627)">
<path d="M47.1723 31.7242H0.827623C0.370593 31.7242 0 31.3536 0 30.8965V1.1035C0 0.646472 0.370593 0.275879 0.827623 0.275879H47.1724C47.6294 0.275879 48 0.646472 48 1.1035V30.8965C47.9999 31.3537 47.6293 31.7242 47.1723 31.7242Z" fill="white"/>
<path d="M24 25.1031C29.0275 25.1031 33.1031 21.0275 33.1031 16C33.1031 10.9725 29.0275 6.89691 24 6.89691C18.9725 6.89691 14.8969 10.9725 14.8969 16C14.8969 21.0275 18.9725 25.1031 24 25.1031Z" fill="#FF4B55"/>
</g>
<defs>
<clipPath id="clip0_11_1627">
<rect width="48" height="32" fill="white"/>
</clipPath>
</defs>
</svg>
