<svg width="48" height="32" viewBox="0 0 48 32" fill="none" xmlns="http://www.w3.org/2000/svg">
<g clip-path="url(#clip0_11_1643)">
<path d="M0 21.2413H47.9999V30.8964C47.9999 31.3535 47.6293 31.7241 47.1723 31.7241H0.827623C0.370593 31.7241 0 31.3535 0 30.8964V21.2413Z" fill="#73AF00"/>
<path d="M0.827623 0.275848H47.1724C47.6294 0.275848 48 0.646441 48 1.10347V10.7586H0V1.10338C0 0.646347 0.370593 0.275848 0.827623 0.275848Z" fill="#464655"/>
<path d="M47.9999 10.7584H0V21.2406H47.9999V10.7584Z" fill="#C8414B"/>
<path d="M47.9999 10.2072H0V11.8623H47.9999V10.2072Z" fill="white"/>
<path d="M47.9999 20.1382H0V21.7933H47.9999V20.1382Z" fill="white"/>
<path d="M28.4313 9.02666C29.0977 7.65257 29.793 4.46948 29.793 4.46948C29.793 4.46948 27.7238 6.9862 27.0572 8.36019C26.9176 8.64819 26.9768 8.97941 27.1786 9.20347L19.5879 24.8535L20.1032 25.1034L27.6938 9.45341C27.9949 9.47319 28.2917 9.31466 28.4313 9.02666Z" fill="white"/>
<path d="M19.5686 9.02666C18.9022 7.65257 18.2068 4.46948 18.2068 4.46948C18.2068 4.46948 20.2761 6.9862 20.9427 8.36019C21.0823 8.64819 21.0231 8.97941 20.8213 9.20347L28.412 24.8535L27.8967 25.1034L20.3061 9.45341C20.005 9.47319 19.7082 9.31466 19.5686 9.02666Z" fill="white"/>
<path d="M28.1378 15.9999C28.1378 20.5706 24.7617 24.2758 23.9999 24.2758C23.2381 24.2758 19.862 20.5706 19.862 15.9999C19.862 11.4293 23.2381 7.72409 23.9999 7.72409C24.7617 7.72409 28.1378 11.4293 28.1378 15.9999Z" fill="#C8414B"/>
<path d="M27.3103 19.9928C27.7977 18.8087 28.1379 17.4485 28.1379 15.9999C28.1379 14.5514 27.7978 13.1913 27.3103 12.007C26.8229 13.1912 26.4827 14.5514 26.4827 15.9999C26.4827 17.4485 26.8229 18.8087 27.3103 19.9928Z" fill="#464655"/>
<path d="M20.6896 12.007C20.2022 13.1912 19.862 14.5514 19.862 15.9999C19.862 17.4485 20.2021 18.8086 20.6896 19.9928C21.177 18.8087 21.5172 17.4485 21.5172 15.9999C21.5172 14.5514 21.177 13.1913 20.6896 12.007Z" fill="#464655"/>
<path d="M24.0001 17.2413C24.4571 17.2413 24.8277 16.6855 24.8277 15.9999C24.8277 15.3143 24.4571 14.7586 24.0001 14.7586C23.543 14.7586 23.1724 15.3143 23.1724 15.9999C23.1724 16.6855 23.543 17.2413 24.0001 17.2413Z" fill="white"/>
<path d="M24.1241 7.72409V14.7585C24.3498 14.2888 24.75 12.9009 24.75 11.2413C24.75 9.58165 24.3498 8.19378 24.1241 7.72409Z" fill="white"/>
<path d="M23.8758 7.72409C23.6502 8.19378 23.25 9.58165 23.25 11.2413C23.25 12.901 23.6502 14.2889 23.8758 14.7585V7.72409Z" fill="white"/>
<path d="M24.1241 17.2413V24.2758C24.3498 23.8061 24.75 22.4181 24.75 20.7585C24.75 19.0989 24.3498 17.711 24.1241 17.2413Z" fill="white"/>
<path d="M23.8758 17.2413C23.6502 17.711 23.25 19.0989 23.25 20.7585C23.25 22.4182 23.6502 23.8062 23.8758 24.2758V17.2413Z" fill="white"/>
</g>
<defs>
<clipPath id="clip0_11_1643">
<rect width="48" height="32" fill="white"/>
</clipPath>
</defs>
</svg>
