<svg width="48" height="32" viewBox="0 0 48 32" fill="none" xmlns="http://www.w3.org/2000/svg">
<g clip-path="url(#clip0_11_3396)">
<path d="M47.1723 31.7243H0.827623C0.370593 31.7243 0 31.3537 0 30.8966V1.10359C0 0.646563 0.370593 0.27597 0.827623 0.27597H47.1724C47.6294 0.27597 48 0.646563 48 1.10359V30.8966C47.9999 31.3538 47.6293 31.7243 47.1723 31.7243Z" fill="#FF4B55"/>
<path d="M32.7538 18.4682C32.7538 18.4682 31.1051 18.1933 29.8838 17.1805C29.5235 16.8817 29.0007 16.6534 28.4915 16.4847C28.9009 16.4665 29.3351 16.478 29.7455 16.5609C31.4453 16.9046 33.0935 16.0795 33.0935 16.0795C33.0935 16.0795 31.4305 16.2473 29.9862 15.5908C29.5955 15.4132 29.0889 15.3296 28.5944 15.2944C28.9501 15.1921 29.3275 15.112 29.7002 15.0914C31.4318 14.9954 32.8188 13.7814 32.8188 13.7814C32.8188 13.7814 31.2518 14.363 29.6886 14.0918C29.2334 14.0128 28.6746 14.072 28.1545 14.1765C28.4966 13.9616 28.8733 13.7608 29.2641 13.6315C30.9106 13.0867 31.9324 11.5527 31.9324 11.5527C31.9324 11.5527 30.5717 12.5233 28.9919 12.6696C28.5228 12.713 27.9885 12.9237 27.5063 13.1662C27.7845 12.8613 28.102 12.5594 28.4536 12.3261C29.8985 11.3672 30.4806 9.61827 30.4806 9.61827C30.4806 9.61827 29.4234 10.9129 27.9378 11.4699C27.5328 11.6218 27.1131 11.9259 26.7361 12.2537C26.9163 11.9261 27.1281 11.5985 27.3797 11.317C28.5355 10.0241 28.6567 8.18493 28.6567 8.18493C28.6567 8.18493 27.9608 9.70461 26.6643 10.619C26.2863 10.8856 25.933 11.3232 25.6392 11.7655C25.729 11.3712 25.8531 10.9623 26.038 10.5937C26.8161 9.04377 26.4528 7.23674 26.4528 7.23674C26.4528 7.23674 26.1779 8.88543 25.1651 10.1067C24.8663 10.467 24.6381 10.9898 24.4693 11.4993C24.4511 11.0899 24.4626 10.6556 24.5455 10.2453C24.8892 8.5454 24.0641 6.89718 24.0641 6.89718C24.0641 6.89718 24.2319 8.56021 23.5753 10.0045C23.3977 10.3952 23.3141 10.9018 23.2789 11.3963C23.1766 11.0406 23.0965 10.6632 23.0759 10.2905C22.9799 8.5589 21.7659 7.17196 21.7659 7.17196C21.7659 7.17196 22.3476 8.7389 22.0763 10.3021C21.9973 10.7573 22.0565 11.3162 22.161 11.8363C21.9461 11.4942 21.7453 11.1175 21.616 10.7266C21.0713 9.08015 19.5372 8.05827 19.5372 8.05827C19.5372 8.05827 20.5078 9.41905 20.6542 10.9988C20.6976 11.468 20.9082 12.0024 21.1508 12.4845C20.8459 12.2063 20.544 11.8888 20.3107 11.5371C19.3517 10.0922 17.6028 9.51018 17.6028 9.51018C17.6028 9.51018 18.8974 10.5674 19.4544 12.053C19.6063 12.458 19.9104 12.8779 20.2382 13.2547C19.9106 13.0745 19.583 12.8628 19.3015 12.6111C18.0086 11.4553 16.1694 11.3341 16.1694 11.3341C16.1694 11.3341 17.6891 12.03 18.6035 13.3266C18.8699 13.7045 19.3076 14.0579 19.7498 14.3517C19.3555 14.2619 18.9466 14.1379 18.5782 13.9529C17.0282 13.1749 15.2212 13.5381 15.2212 13.5381C15.2212 13.5381 16.8699 13.813 18.0911 14.8258C18.4514 15.1246 18.9743 15.3529 19.4837 15.5216C19.0743 15.5398 18.64 15.5284 18.2297 15.4454C16.5298 15.1017 14.8816 15.9268 14.8816 15.9268C14.8816 15.9268 16.5446 15.759 17.9889 16.4156C18.3796 16.5932 18.8862 16.6768 19.3808 16.712C19.0251 16.8143 18.6476 16.8944 18.275 16.915C16.5433 17.011 15.1564 18.225 15.1564 18.225C15.1564 18.225 16.7233 17.6434 18.2865 17.9146C18.7418 17.9936 19.3006 17.9344 19.8207 17.8299C19.4786 18.0448 19.1019 18.2456 18.711 18.3749C17.0646 18.9197 16.0427 20.4537 16.0427 20.4537C16.0427 20.4537 17.4035 19.4831 18.9833 19.3368C19.4524 19.2934 19.9868 19.0827 20.4689 18.8401C20.1908 19.145 19.8732 19.4469 19.5216 19.6803C18.0766 20.6392 17.4945 22.3881 17.4945 22.3881C17.4945 22.3881 18.5517 21.0935 20.0374 20.5365C20.4423 20.3846 20.8621 20.0805 21.239 19.7527C21.0589 20.0802 20.847 20.4079 20.5956 20.6893C19.4397 21.9822 19.3185 23.8214 19.3185 23.8214C19.3185 23.8214 20.0144 22.3017 21.3111 21.3874C21.6891 21.1207 22.0423 20.6831 22.3361 20.241C22.2463 20.6353 22.1223 21.0441 21.9373 21.4127C21.1593 22.9626 21.5226 24.7697 21.5226 24.7697C21.5226 24.7697 21.7974 23.121 22.8102 21.8997C23.109 21.5394 23.3373 21.0166 23.506 20.5071C23.5242 20.9167 23.5128 21.3509 23.4298 21.7612C23.0861 23.4611 23.9112 25.1092 23.9112 25.1092C23.9112 25.1092 23.7434 23.4463 24.4 22.002C24.5776 21.6113 24.6612 21.1046 24.6965 20.6102C24.7987 20.9659 24.8788 21.3433 24.8994 21.7159C24.9954 23.4476 26.2094 24.8345 26.2094 24.8345C26.2094 24.8345 25.6278 23.2675 25.899 21.7044C25.978 21.2492 25.9189 20.6903 25.8143 20.1703C26.0292 20.5124 26.23 20.889 26.3593 21.2799C26.9041 22.9263 28.4381 23.9482 28.4381 23.9482C28.4381 23.9482 27.4675 22.5874 27.3212 21.0076C27.2778 20.5384 27.0671 20.004 26.8245 19.5219C27.1295 19.8001 27.4313 20.1176 27.6647 20.4693C28.6236 21.9142 30.3725 22.4963 30.3725 22.4963C30.3725 22.4963 29.078 21.4391 28.5209 19.9534C28.369 19.5485 28.0649 19.1287 27.7371 18.7519C28.0646 18.9319 28.3923 19.1438 28.6737 19.3953C29.9666 20.5511 31.8058 20.6723 31.8058 20.6723C31.8058 20.6723 30.2861 19.9764 29.3718 18.6798C29.1051 18.3018 28.6675 17.9484 28.2252 17.6547C28.6195 17.7445 29.0284 17.8685 29.3969 18.0535C30.9468 18.8314 32.7538 18.4682 32.7538 18.4682ZM23.9981 20.2023C21.6775 20.2023 19.7963 18.3211 19.7963 16.0005C19.7963 13.6799 21.6775 11.7987 23.9981 11.7987C26.3187 11.7987 28.1999 13.6799 28.1999 16.0005C28.1999 18.3211 26.3187 20.2023 23.9981 20.2023Z" fill="#FFE15A"/>
<path d="M22.6662 14.3001C22.7558 14.2301 22.8449 14.1599 22.9355 14.0975C22.3402 13.8267 21.8043 13.6967 21.4284 13.6385C21.3686 13.7035 21.3146 13.7734 21.2597 13.8427C21.6289 13.9145 22.1249 14.0513 22.6662 14.3001Z" fill="#FFE15A"/>
<path d="M21.6091 13.453C22.0131 13.4986 22.5979 13.6189 23.2467 13.898C23.3555 13.8331 23.4636 13.7757 23.572 13.7203C22.8714 13.4327 22.239 13.3256 21.8037 13.2925C21.7383 13.3455 21.6704 13.3954 21.6091 13.453Z" fill="#FFE15A"/>
<path d="M23.7125 15.4006C23.6287 15.3215 23.5438 15.2466 23.4582 15.1758C22.6716 15.9245 21.9834 17.0164 21.6727 18.6007C21.7856 18.7017 21.8978 18.8039 22.0231 18.8899C22.2514 17.2786 22.9205 16.1665 23.7125 15.4006Z" fill="#FFE15A"/>
<path d="M23.4074 14.7048C23.4965 14.633 23.5856 14.561 23.676 14.4969C23.5659 14.4267 23.4562 14.365 23.3469 14.3049C23.2533 14.369 23.1595 14.4311 23.067 14.5032C23.1802 14.5655 23.2935 14.6319 23.4074 14.7048Z" fill="#FFE15A"/>
<path d="M25.5814 14.5017C26.2558 15.0941 26.8723 15.9283 27.311 17.0848C27.4236 16.7414 27.4997 16.3814 27.4997 16.0004C27.4997 15.277 27.2799 14.6051 26.904 14.0471C26.5562 14.1163 26.0892 14.2515 25.5814 14.5017Z" fill="#FFE15A"/>
<path d="M23.7379 14.9297C23.8258 14.995 23.9119 15.0687 23.9983 15.1411C24.0846 15.0686 24.1707 14.995 24.2586 14.9297C24.1722 14.8577 24.0859 14.7868 23.9983 14.7222C23.9106 14.7869 23.8245 14.8577 23.7379 14.9297Z" fill="#FFE15A"/>
<path d="M23.9983 13.9159C23.8883 13.9717 23.7783 14.0346 23.6676 14.1C23.7777 14.1578 23.8876 14.2199 23.9983 14.2879C24.109 14.22 24.219 14.1579 24.3289 14.1C24.2183 14.0345 24.1083 13.9717 23.9983 13.9159Z" fill="#FFE15A"/>
<path d="M21.2912 18.1961C21.6617 16.6834 22.3599 15.6471 23.1413 14.9343C23.0321 14.8571 22.9232 14.7863 22.8141 14.7209C22.0622 15.3821 21.3817 16.3376 20.9625 17.7142C21.0591 17.885 21.1683 18.0449 21.2912 18.1961Z" fill="#FFE15A"/>
<path d="M22.4149 14.5019C21.9071 14.2516 21.4401 14.1166 21.0922 14.0472C20.7164 14.6052 20.4965 15.2771 20.4965 16.0005C20.4965 16.3815 20.5726 16.7415 20.6852 17.0849C21.124 15.9284 21.7404 15.0943 22.4149 14.5019Z" fill="#FFE15A"/>
<path d="M23.9982 13.523C24.7432 13.2152 25.4304 13.1059 25.9191 13.077C25.3672 12.7137 24.7084 12.4991 23.9982 12.4991C23.2881 12.4991 22.6293 12.7138 22.0774 13.077C22.5661 13.1059 23.2533 13.2151 23.9982 13.523Z" fill="#FFE15A"/>
<path d="M23.9982 15.6967C23.2999 16.4706 22.7235 17.5817 22.5365 19.173C22.9825 19.3791 23.4746 19.5019 23.9982 19.5019C24.5219 19.5019 25.0139 19.3791 25.46 19.173C25.2729 17.5818 24.6966 16.4706 23.9982 15.6967Z" fill="#FFE15A"/>
<path d="M25.1825 14.7209C25.0734 14.7865 24.9646 14.8571 24.8553 14.9343C25.6366 15.647 26.3349 16.6834 26.7053 18.1961C26.8282 18.0448 26.9375 17.885 27.0341 17.7142C26.615 16.3377 25.9344 15.3821 25.1825 14.7209Z" fill="#FFE15A"/>
<path d="M26.3234 18.6007C26.0128 17.0164 25.3245 15.9246 24.5379 15.1758C24.4522 15.2466 24.3674 15.3215 24.2836 15.4006C25.0756 16.1665 25.7447 17.2786 25.9729 18.8898C26.0983 18.8039 26.2105 18.7017 26.3234 18.6007Z" fill="#FFE15A"/>
<path d="M24.4244 13.7202C24.5328 13.7756 24.641 13.8331 24.7497 13.8979C25.3985 13.6188 25.9833 13.4985 26.3873 13.4528C26.326 13.3953 26.2581 13.3454 26.1927 13.2922C25.7574 13.3255 25.125 13.4327 24.4244 13.7202Z" fill="#FFE15A"/>
<path d="M24.5887 14.7048C24.7026 14.6319 24.8158 14.5656 24.9291 14.5032C24.8366 14.4311 24.7428 14.369 24.6491 14.3049C24.5398 14.3651 24.4302 14.4267 24.3201 14.4969C24.4104 14.561 24.4995 14.6331 24.5887 14.7048Z" fill="#FFE15A"/>
<path d="M25.3302 14.3001C25.8714 14.0513 26.3674 13.9145 26.7364 13.8428C26.6816 13.7735 26.6277 13.7035 26.5678 13.6386C26.1918 13.6968 25.656 13.8267 25.0607 14.0976C25.1514 14.1598 25.2407 14.2301 25.3302 14.3001Z" fill="#FFE15A"/>
</g>
<defs>
<clipPath id="clip0_11_3396">
<rect width="48" height="32" fill="white"/>
</clipPath>
</defs>
</svg>
