<svg width="48" height="32" viewBox="0 0 48 32" fill="none" xmlns="http://www.w3.org/2000/svg">
<g clip-path="url(#clip0_11_3563)">
<path d="M47.1723 31.7242H0.827623C0.370593 31.7242 0 31.3536 0 30.8965V1.10359C0 0.646563 0.370593 0.27597 0.827623 0.27597H47.1724C47.6294 0.27597 48 0.646563 48 1.10359V30.8965C47.9999 31.3537 47.6293 31.7242 47.1723 31.7242Z" fill="#41479B"/>
<path d="M47.9999 7.72375H0V24.2753H47.9999V7.72375Z" fill="#FF4B55"/>
<path d="M34.9515 22.275V21.1015H34.5603V20.3192H34.1691V19.5371H33.778V18.7548H32.6046V16.4081H32.6045L32.9957 16.017V14.8436H32.6046V14.0613H32.2135V12.888H31.8225V12.1057H31.4313V11.3235H31.0402V10.9323H30.2579V11.3235H29.8668V12.1057H29.4756V12.888H29.0846V14.0613H28.6935V14.8436H26.3466V13.6702H25.9556V12.4968H25.5645V11.3235H25.1734V10.5412H24.7822V9.75898H24.3911V9.36785H24.1955V8.97673H23.8044V9.36785H23.6088V9.75898H23.2177V10.5412H22.8266V11.3235H22.4355V12.4968H22.0444V13.6702H21.6532V14.8436H19.3065V14.0613H18.9154V12.888H18.5242V12.1057H18.1331V11.3235H17.742V10.9323H16.9597V11.3235H16.5686V12.1057H16.1775V12.888H15.7864V14.0613H15.3952V14.8436H15.0041V16.017L15.3951 16.4081H15.3952V18.7548H14.222V19.5371H13.8308V20.3192H13.4396V21.1015H13.0485V22.275H12.6574V23.4482H35.3425V22.275H34.9515Z" fill="white"/>
</g>
<defs>
<clipPath id="clip0_11_3563">
<rect width="48" height="32" fill="white"/>
</clipPath>
</defs>
</svg>
