<svg width="48" height="32" viewBox="0 0 48 32" fill="none" xmlns="http://www.w3.org/2000/svg">
<g clip-path="url(#clip0_11_4955)">
<path d="M47.1722 31.7236H0.827622C0.370592 31.7236 0 31.353 0 30.896V1.10313C0 0.646105 0.370592 0.275513 0.827622 0.275513H47.1723C47.6293 0.275513 47.9999 0.646105 47.9999 1.10313V30.896C47.9998 31.3532 47.6292 31.7236 47.1722 31.7236Z" fill="#FF4B55"/>
<path d="M28.6372 16.2602C28.4273 16.0797 28.1892 15.9482 27.9502 15.8521C29.3011 15.5858 30.3875 14.4444 30.3875 14.4444C29.7307 14.7325 29.4255 14.7908 28.3803 14.4473C28.1173 14.3609 27.847 14.3305 27.5895 14.3332C28.7355 13.5701 29.3025 12.1001 29.3025 12.1001C28.8061 12.6175 28.5463 12.7883 27.4492 12.8709C27.1732 12.8917 26.9119 12.9671 26.6749 13.0681C27.4417 11.9247 27.4029 10.3493 27.4029 10.3493C27.1423 11.0174 26.9677 11.2745 25.9857 11.7706C25.7386 11.8954 25.526 12.0652 25.3458 12.2491C25.6165 10.8992 24.9779 9.45886 24.9779 9.45886C24.9928 10.1758 24.9298 10.4802 24.2125 11.3144C24.032 11.5243 23.9005 11.7624 23.8044 12.0014C23.5381 10.6505 22.3967 9.56414 22.3967 9.56414C22.6848 10.2209 22.7431 10.5261 22.3996 11.5713C22.3132 11.8343 22.2828 12.1046 22.2855 12.3621C21.5224 11.2161 20.0524 10.6491 20.0524 10.6491C20.5698 11.1455 20.7406 11.4053 20.8232 12.5024C20.844 12.7785 20.9194 13.0397 21.0203 13.2766C19.8767 12.5099 18.3016 12.5487 18.3016 12.5487C18.9696 12.8093 19.2268 12.9839 19.7228 13.9659C19.8477 14.213 20.0175 14.4256 20.2015 14.6058C18.8515 14.335 17.4111 14.9737 17.4111 14.9737C18.1281 14.9588 18.4324 15.0218 19.2667 15.7391C19.4766 15.9196 19.7147 16.051 19.9537 16.1472C18.6028 16.4135 17.5164 17.5549 17.5164 17.5549C18.1731 17.2668 18.4784 17.2085 19.5236 17.552C19.7867 17.6385 20.057 17.6688 20.3145 17.6661C19.1685 18.4291 18.6014 19.8993 18.6014 19.8993C19.0978 19.3819 19.3576 19.2111 20.4547 19.1285C20.7307 19.1077 20.992 19.0323 21.2289 18.9314C20.4622 20.075 20.501 21.6501 20.501 21.6501C20.7616 20.982 20.9362 20.7249 21.9182 20.2288C22.1653 20.1039 22.3778 19.9341 22.5581 19.7502C22.2873 21.1002 22.926 22.5406 22.926 22.5406C22.9111 21.8236 22.9741 21.5192 23.6914 20.685C23.8719 20.475 24.0034 20.2369 24.0995 19.998C24.3658 21.3487 25.5072 22.4352 25.5072 22.4352C25.2191 21.7785 25.1608 21.4731 25.5043 20.428C25.5907 20.165 25.6211 19.8947 25.6184 19.6372C26.3815 20.7832 27.8515 21.3502 27.8515 21.3502C27.3341 20.8538 27.1633 20.594 27.0807 19.497C27.0599 19.221 26.9845 18.9596 26.8836 18.7227C28.027 19.4895 29.6023 19.4506 29.6023 19.4506C28.9342 19.1899 28.6771 19.0155 28.181 18.0334C28.0561 17.7863 27.8863 17.5737 27.7024 17.3935C29.0524 17.6642 30.4927 17.0256 30.4927 17.0256C29.7758 17.0405 29.4714 16.9778 28.6372 16.2602Z" fill="#FFE15A"/>
<path d="M27.3194 16.6605L30.6207 16.0002L27.3194 15.3399L30.1168 13.4666L26.8141 14.1199L28.6817 11.3186L25.8805 13.1862L26.5338 9.88351L24.6605 12.6808L24.0001 9.3797L23.3399 12.681L21.4666 9.8837L22.12 13.1864L19.3187 11.3188L21.1863 14.1201L17.8836 13.4668L20.681 15.3401L17.3795 16.0003L20.6808 16.6606L17.8834 18.5339L21.1861 17.8806L19.3185 20.6818L22.1198 18.8142L21.4664 22.1169L23.3397 19.3196L24.0001 22.6208L24.6604 19.3195L26.5337 22.1168L25.8804 18.8141L28.6816 20.6817L26.814 17.8805L30.1167 18.5338L27.3194 16.6605Z" fill="#FFD25A"/>
<path d="M24.0001 19.31C25.8283 19.31 27.3104 17.8279 27.3104 15.9996C27.3104 14.1714 25.8283 12.6893 24.0001 12.6893C22.1718 12.6893 20.6897 14.1714 20.6897 15.9996C20.6897 17.8279 22.1718 19.31 24.0001 19.31Z" fill="#FFE15A"/>
<path d="M9.58731 25.9315C11.9882 25.9315 11.9882 26.7591 14.3893 26.7591C16.792 26.7591 16.792 25.9315 19.1945 25.9315C21.597 25.9315 21.5972 26.7591 23.9997 26.7591C26.397 26.7591 26.397 25.9315 28.7944 25.9315C31.1929 25.9315 31.1929 26.7591 33.5914 26.7591C35.991 26.7591 35.991 25.9315 38.3906 25.9315C40.7901 25.9315 40.7901 26.7591 43.1896 26.7591C45.5892 26.7591 45.5892 25.9315 47.9888 25.9315C47.9927 25.9315 47.9959 25.9317 47.9997 25.9317V23.4489C47.9959 23.4489 47.9927 23.4487 47.9888 23.4487C45.5892 23.4487 45.5892 24.2764 43.1896 24.2764C40.7902 24.2764 40.7902 23.4487 38.3906 23.4487C35.991 23.4487 35.991 24.2764 33.5914 24.2764C31.1928 24.2764 31.1928 23.4487 28.7944 23.4487C26.3971 23.4487 26.3971 24.2764 23.9997 24.2764C21.597 24.2764 21.597 23.4487 19.1945 23.4487C16.792 23.4487 16.7918 24.2764 14.3893 24.2764C11.9882 24.2764 11.9882 23.4487 9.58731 23.4487C7.18844 23.4487 7.18844 24.2764 4.78948 24.2764C2.39315 24.2764 2.38865 23.4516 0 23.449V25.9318C2.38874 25.9345 2.39315 26.7591 4.78948 26.7591C7.18844 26.7591 7.18844 25.9315 9.58731 25.9315Z" fill="#41479B"/>
<path d="M0 20.9661C2.38874 20.9688 2.39315 21.7934 4.78948 21.7934C7.18844 21.7934 7.18844 20.9658 9.58731 20.9658C11.9882 20.9658 11.9882 21.7934 14.3893 21.7934C16.792 21.7934 16.792 20.9658 19.1945 20.9658C21.597 20.9658 21.5972 21.7934 23.9997 21.7934C26.397 21.7934 26.397 20.9658 28.7944 20.9658C31.1929 20.9658 31.1929 21.7934 33.5914 21.7934C35.991 21.7934 35.991 20.9658 38.3906 20.9658C40.7901 20.9658 40.7901 21.7934 43.1896 21.7934C45.5892 21.7934 45.5892 20.9658 47.9888 20.9658C47.9927 20.9658 47.9959 20.9659 47.9997 20.9659V18.4832C47.9959 18.4832 47.9927 18.483 47.9888 18.483C45.5892 18.483 45.5892 19.3106 43.1896 19.3106C40.7902 19.3106 40.7902 18.483 38.3906 18.483C35.991 18.483 35.991 19.3106 33.5914 19.3106C31.1928 19.3106 31.1928 18.483 28.7944 18.483C26.3971 18.483 26.3971 19.3106 23.9997 19.3106C21.597 19.3106 21.597 18.483 19.1945 18.483C16.792 18.483 16.7918 19.3106 14.3893 19.3106C11.9882 19.3106 11.9882 18.483 9.58731 18.483C7.18844 18.483 7.18844 19.3106 4.78948 19.3106C2.39315 19.3106 2.38865 18.4859 0 18.4833L0 20.9661Z" fill="#41479B"/>
<path d="M0 28.4142C2.38874 28.4169 2.39315 29.2415 4.78948 29.2415C7.18844 29.2415 7.18844 28.4139 9.58731 28.4139C11.9882 28.4139 11.9882 29.2415 14.3893 29.2415C16.792 29.2415 16.792 28.4139 19.1945 28.4139C21.597 28.4139 21.5972 29.2415 23.9997 29.2415C26.397 29.2415 26.397 28.4139 28.7944 28.4139C31.1929 28.4139 31.1929 29.2415 33.5914 29.2415C35.991 29.2415 35.991 28.4139 38.3906 28.4139C40.7901 28.4139 40.7901 29.2415 43.1896 29.2415C45.5892 29.2415 45.5892 28.4139 47.9888 28.4139C47.9927 28.4139 47.9959 28.4141 47.9997 28.4141V25.9313C47.9959 25.9313 47.9927 25.9311 47.9888 25.9311C45.5892 25.9311 45.5892 26.7587 43.1896 26.7587C40.7902 26.7587 40.7902 25.9311 38.3906 25.9311C35.991 25.9311 35.991 26.7587 33.5914 26.7587C31.1928 26.7587 31.1928 25.9311 28.7944 25.9311C26.3971 25.9311 26.3971 26.7587 23.9997 26.7587C21.597 26.7587 21.597 25.9311 19.1945 25.9311C16.792 25.9311 16.7918 26.7587 14.3893 26.7587C11.9882 26.7587 11.9882 25.9311 9.58731 25.9311C7.18844 25.9311 7.18844 26.7587 4.78948 26.7587C2.39315 26.7587 2.38865 25.934 0 25.9314L0 28.4142Z" fill="white"/>
<path d="M0 23.4486C2.38874 23.4512 2.39315 24.2759 4.78948 24.2759C7.18844 24.2759 7.18844 23.4482 9.58731 23.4482C11.9882 23.4482 11.9882 24.2759 14.3893 24.2759C16.792 24.2759 16.792 23.4482 19.1945 23.4482C21.597 23.4482 21.5972 24.2759 23.9997 24.2759C26.397 24.2759 26.397 23.4482 28.7944 23.4482C31.1929 23.4482 31.1929 24.2759 33.5914 24.2759C35.991 24.2759 35.991 23.4482 38.3906 23.4482C40.7901 23.4482 40.7901 24.2759 43.1896 24.2759C45.5892 24.2759 45.5892 23.4482 47.9888 23.4482C47.9927 23.4482 47.9959 23.4484 47.9997 23.4484V20.9656C47.9959 20.9656 47.9927 20.9655 47.9888 20.9655C45.5892 20.9655 45.5892 21.7931 43.1896 21.7931C40.7902 21.7931 40.7902 20.9655 38.3906 20.9655C35.991 20.9655 35.991 21.7931 33.5914 21.7931C31.1928 21.7931 31.1928 20.9655 28.7944 20.9655C26.3971 20.9655 26.3971 21.7931 23.9997 21.7931C21.597 21.7931 21.597 20.9655 19.1945 20.9655C16.792 20.9655 16.7918 21.7931 14.3893 21.7931C11.9882 21.7931 11.9882 20.9655 9.58731 20.9655C7.18844 20.9655 7.18844 21.7931 4.78948 21.7931C2.39315 21.7931 2.38865 20.9684 0 20.9657L0 23.4486Z" fill="white"/>
<path d="M0 18.483C2.38874 18.4857 2.39315 19.3103 4.78948 19.3103C7.18844 19.3103 7.18844 18.4827 9.58731 18.4827C11.9882 18.4827 11.9882 19.3103 14.3893 19.3103C16.792 19.3103 16.792 18.4827 19.1945 18.4827C21.597 18.4827 21.5972 19.3103 23.9997 19.3103C26.397 19.3103 26.397 18.4827 28.7944 18.4827C31.1929 18.4827 31.1929 19.3103 33.5914 19.3103C35.991 19.3103 35.991 18.4827 38.3906 18.4827C40.7901 18.4827 40.7901 19.3103 43.1896 19.3103C45.5892 19.3103 45.5892 18.4827 47.9888 18.4827C47.9927 18.4827 47.9959 18.4828 47.9997 18.4828V16.0001C47.9959 16.0001 47.9927 15.9999 47.9888 15.9999C45.5892 15.9999 45.5892 16.8275 43.1896 16.8275C40.7902 16.8275 40.7902 15.9999 38.3906 15.9999C35.991 15.9999 35.991 16.8275 33.5914 16.8275C31.1928 16.8275 31.1928 15.9999 28.7944 15.9999C26.3971 15.9999 26.3971 16.8275 23.9997 16.8275C21.597 16.8275 21.597 15.9999 19.1945 15.9999C16.792 15.9999 16.7918 16.8275 14.3893 16.8275C11.9882 16.8275 11.9882 15.9999 9.58731 15.9999C7.18844 15.9999 7.18844 16.8275 4.78948 16.8275C2.39315 16.8275 2.38865 16.0028 0 16.0002L0 18.483Z" fill="white"/>
<path d="M43.1897 29.2416C40.7903 29.2416 40.7903 28.414 38.3907 28.414C35.9911 28.414 35.9911 29.2416 33.5916 29.2416C31.193 29.2416 31.193 28.414 28.7945 28.414C26.3972 28.414 26.3972 29.2416 23.9999 29.2416C21.5972 29.2416 21.5972 28.414 19.1947 28.414C16.7922 28.414 16.792 29.2416 14.3895 29.2416C11.9885 29.2416 11.9885 28.414 9.58754 28.414C7.18867 28.414 7.18867 29.2416 4.78971 29.2416C2.39338 29.2416 2.38888 28.4169 0.000230789 28.4143V30.8968C0.000230789 31.3538 0.370823 31.7244 0.827852 31.7244H47.1725C47.6237 31.7244 47.9875 31.3623 47.9968 30.9133C47.9978 29.4572 47.9989 28.4144 48 28.4144C47.9962 28.4144 47.993 28.4142 47.9892 28.4142C45.5894 28.414 45.5894 29.2416 43.1897 29.2416Z" fill="#41479B"/>
<path d="M25.7231 4.67213C29.7475 4.51651 31.793 2.76001 31.793 2.76001C31.504 2.8711 26.9905 3.2491 25.7009 3.36029C24.8865 3.43042 23.8705 4.35901 23.2307 5.03514C23.0583 4.56695 22.7215 4.08132 22.0545 3.98289C20.6982 3.78282 17.0962 3.56054 16.2069 3.13792C16.2069 3.13792 16.7809 4.02526 19.7478 4.42754C21.1692 4.62029 21.9529 5.10779 22.3262 5.43967L21.9878 5.42804C21.9878 5.42804 21.9878 5.42804 21.4098 5.13892C20.8317 4.84988 20.2535 5.33898 20.2535 5.33898H19.3327C19.2174 5.33898 19.1516 5.4707 19.2208 5.56285L19.3094 5.68098C19.3998 5.80163 19.5418 5.8726 19.6925 5.8726H20.6314C20.965 6.45067 22.2323 7.05104 23.2773 7.05104C24.3223 7.05104 27.5241 5.6281 27.8354 5.6281L24.9391 5.52901L25.7231 4.67213Z" fill="#FFE15A"/>
</g>
<defs>
<clipPath id="clip0_11_4955">
<rect width="48" height="32" fill="white"/>
</clipPath>
</defs>
</svg>
