<svg width="48" height="32" viewBox="0 0 48 32" fill="none" xmlns="http://www.w3.org/2000/svg">
<g clip-path="url(#clip0_11_1127)">
<path d="M0.827623 0.276001H47.1724C47.6294 0.276001 48 0.646593 48 1.10362V8.13805H0V1.10362C0 0.646593 0.370593 0.276001 0.827623 0.276001Z" fill="#FFE15A"/>
<path d="M47.9999 8.13818H0V16H47.9999V8.13818Z" fill="white"/>
<path d="M47.9999 15.9999H0V23.8618H47.9999V15.9999Z" fill="#FF4B55"/>
<path d="M0 23.8619H47.9999V30.8964C47.9999 31.3534 47.6293 31.724 47.1723 31.724H0.827623C0.370593 31.724 0 31.3534 0 30.8964V23.8619Z" fill="#4173CD"/>
<path d="M0.305249 31.5242L23.4974 16.3293C23.7345 16.1739 23.7345 15.8262 23.4974 15.6707L0.305249 0.476013C0.122906 0.6277 0 0.847731 0 1.10357V30.8965C0 31.1524 0.122906 31.3724 0.305249 31.5242Z" fill="#73AF00"/>
<path d="M4.57787 16.0001C4.57787 13.0076 6.53396 10.4757 9.2362 9.60359C9.37823 9.55775 9.35845 9.35037 9.21042 9.33097C8.93226 9.29459 8.64886 9.2749 8.36067 9.2749C4.64649 9.2749 1.63553 12.2859 1.63553 16.0001C1.63553 19.7142 4.64649 22.7252 8.36067 22.7252C8.64886 22.7252 8.93226 22.7055 9.21042 22.6691C9.35845 22.6497 9.37823 22.4424 9.2362 22.3965C6.53396 21.5245 4.57787 18.9926 4.57787 16.0001Z" fill="white"/>
<path d="M9.27053 10.8634L9.45568 11.4185L10.0408 11.4231C10.1165 11.4237 10.1479 11.5203 10.087 11.5653L9.61628 11.9129L9.79271 12.4708C9.81559 12.543 9.73337 12.6028 9.67168 12.5588L9.19562 12.2185L8.71956 12.5588C8.65787 12.6028 8.57565 12.543 8.59853 12.4708L8.77496 11.9129L8.30425 11.5653C8.24331 11.5203 8.27481 11.4235 8.35047 11.4231L8.93556 11.4185L9.12071 10.8634C9.14481 10.7915 9.24653 10.7915 9.27053 10.8634Z" fill="white"/>
<path d="M9.27053 13.6764L9.45568 14.2314L10.0408 14.236C10.1165 14.2367 10.1479 14.3333 10.087 14.3783L9.61628 14.7259L9.79271 15.2838C9.81559 15.356 9.73337 15.4158 9.67168 15.3717L9.19562 15.0315L8.71956 15.3717C8.65787 15.4158 8.57565 15.356 8.59853 15.2838L8.77496 14.7259L8.30425 14.3783C8.24331 14.3333 8.27481 14.2365 8.35047 14.236L8.93556 14.2314L9.12071 13.6764C9.14481 13.6045 9.24653 13.6045 9.27053 13.6764Z" fill="white"/>
<path d="M9.27053 16.4895L9.45568 17.0446L10.0408 17.0492C10.1165 17.0499 10.1479 17.1465 10.087 17.1915L9.61628 17.5391L9.79271 18.097C9.81559 18.1692 9.73337 18.229 9.67168 18.1849L9.19562 17.8447L8.71956 18.1849C8.65787 18.229 8.57565 18.1692 8.59853 18.097L8.77496 17.5391L8.30425 17.1915C8.24331 17.1465 8.27481 17.0497 8.35047 17.0492L8.93556 17.0446L9.12071 16.4895C9.14481 16.4176 9.24653 16.4176 9.27053 16.4895Z" fill="white"/>
<path d="M9.27053 19.3026L9.45568 19.8577L10.0408 19.8623C10.1165 19.8629 10.1479 19.9595 10.087 20.0045L9.61628 20.3521L9.79271 20.91C9.81559 20.9822 9.73337 21.042 9.67168 20.998L9.19562 20.6578L8.71956 20.998C8.65787 21.042 8.57565 20.9822 8.59853 20.91L8.77496 20.3521L8.30425 20.0045C8.24331 19.9595 8.27481 19.8627 8.35047 19.8623L8.93556 19.8577L9.12071 19.3026C9.14481 19.2307 9.24653 19.2307 9.27053 19.3026Z" fill="white"/>
</g>
<defs>
<clipPath id="clip0_11_1127">
<rect width="48" height="32" fill="white"/>
</clipPath>
</defs>
</svg>
