<svg width="48" height="32" viewBox="0 0 48 32" fill="none" xmlns="http://www.w3.org/2000/svg">
<g clip-path="url(#clip0_11_1158)">
<path d="M47.1723 31.7242H0.827623C0.370593 31.7242 0 31.3536 0 30.8966V1.10362C0 0.646594 0.370593 0.276001 0.827623 0.276001H47.1724C47.6294 0.276001 48 0.646594 48 1.10362V30.8966C47.9999 31.3537 47.6293 31.7242 47.1723 31.7242Z" fill="#73AF00"/>
<path d="M35.1642 0.276001L0 23.3146V25.7881L38.9395 0.276001H35.1642Z" fill="#FFE15A"/>
<path d="M47.9999 8.68575V6.21216L9.06032 31.7243H12.8355L47.9999 8.68575Z" fill="#FFE15A"/>
<path d="M47.9999 6.21205V1.10362C47.9999 0.646594 47.6293 0.276001 47.1723 0.276001H38.9395L0 25.7881V30.8966C0 31.3536 0.370593 31.7242 0.827623 31.7242H9.06045L47.9999 6.21205Z" fill="#464655"/>
<path d="M14.6265 17.8655L16.3251 19.2333L18.1692 18.0689C18.408 17.9182 18.7012 18.1581 18.6006 18.422L17.8247 20.4601L19.5019 21.8541C19.719 22.0346 19.5815 22.3875 19.2995 22.3736L17.1213 22.2655L16.3138 24.2914C16.2092 24.5536 15.831 24.532 15.7571 24.2594L15.1869 22.1544L13.0107 22.0124C12.7289 21.9941 12.6327 21.6276 12.8691 21.4732L14.6948 20.2803L14.1573 18.1666C14.0879 17.8931 14.4066 17.6883 14.6265 17.8655Z" fill="white"/>
<path d="M30.2819 7.58968L31.9805 8.95749L33.8246 7.79312C34.0634 7.64237 34.3566 7.88228 34.256 8.14618L33.48 10.1843L35.1572 11.5783C35.3744 11.7588 35.2368 12.1117 34.9548 12.0978L32.7766 11.9896L31.9692 14.0156C31.8646 14.2778 31.4864 14.2561 31.4125 13.9836L30.8423 11.8785L28.6661 11.7366C28.3843 11.7182 28.2881 11.3518 28.5244 11.1974L30.3502 10.0045L29.8127 7.89081C29.7432 7.61743 30.0619 7.41259 30.2819 7.58968Z" fill="white"/>
<path d="M47.9998 30.8964V8.68549L12.8355 31.724H47.1721C47.6293 31.724 47.9998 31.3535 47.9998 30.8964Z" fill="#FF4B55"/>
</g>
<defs>
<clipPath id="clip0_11_1158">
<rect width="48" height="32" fill="white"/>
</clipPath>
</defs>
</svg>
