<svg width="48" height="32" viewBox="0 0 48 32" fill="none" xmlns="http://www.w3.org/2000/svg">
<g clip-path="url(#clip0_11_1139)">
<path d="M47.1723 31.7243H0.827623C0.370593 31.7243 0 31.3537 0 30.8967V1.10362C0 0.646594 0.370593 0.276001 0.827623 0.276001H47.1724C47.6294 0.276001 48 0.646594 48 1.10362V30.8967C47.9999 31.3538 47.6293 31.7243 47.1723 31.7243Z" fill="#41479B"/>
<path d="M47.9999 4.41357H0V6.06873H47.9999V4.41357Z" fill="white"/>
<path d="M47.9999 25.931H0V27.5862H47.9999V25.931Z" fill="white"/>
<path d="M47.9999 6.06909H0V25.9309H47.9999V6.06909Z" fill="#FF4B55"/>
<path d="M13.2411 22.6206C16.8976 22.6206 19.8617 19.6564 19.8617 16C19.8617 12.3435 16.8976 9.37933 13.2411 9.37933C9.58466 9.37933 6.62051 12.3435 6.62051 16C6.62051 19.6564 9.58466 22.6206 13.2411 22.6206Z" fill="white"/>
<path d="M13.4175 9.9724L14.7456 13.9547L18.9434 13.9873C19.122 13.9886 19.1961 14.2166 19.0524 14.3227L15.6754 16.8164L16.9416 20.8188C16.9955 20.989 16.8016 21.1299 16.6563 21.0261L13.2412 18.5849L9.826 21.026C9.68078 21.1299 9.48691 20.9889 9.54072 20.8187L10.8069 16.8163L7.42994 14.3226C7.28622 14.2166 7.36028 13.9886 7.53888 13.9872L11.7367 13.9546L13.0649 9.97231C13.1214 9.803 13.3609 9.803 13.4175 9.9724Z" fill="#FF4B55"/>
</g>
<defs>
<clipPath id="clip0_11_1139">
<rect width="48" height="32" fill="white"/>
</clipPath>
</defs>
</svg>
