<svg width="48" height="32" viewBox="0 0 48 32" fill="none" xmlns="http://www.w3.org/2000/svg">
<g clip-path="url(#clip0_11_2200)">
<path d="M47.1723 31.7241H0.827623C0.370593 31.7241 0 31.3535 0 30.8965V1.10347C0 0.646441 0.370593 0.275848 0.827623 0.275848H47.1724C47.6294 0.275848 48 0.646441 48 1.10347V30.8965C47.9999 31.3536 47.6293 31.7241 47.1723 31.7241Z" fill="white"/>
<path d="M28.5947 9.11244C24.7919 6.57735 19.6556 7.61376 17.1221 11.4099C15.8514 13.3047 16.3679 15.8793 18.2692 17.1469C20.169 18.4145 22.7354 17.8997 24.003 15.9983C25.2706 14.0969 27.8387 13.5885 29.7384 14.8495C31.6413 16.1171 32.1531 18.6917 30.8838 20.5865C33.4189 16.784 32.3942 11.6476 28.5947 9.11244Z" fill="#FF4B55"/>
<path d="M17.1218 11.41C15.851 13.3048 16.3676 15.8794 18.2688 17.147C20.1686 18.4146 22.735 17.8998 24.0026 15.9984C25.2702 14.097 27.8383 13.5886 29.7381 14.8496C31.641 16.1172 32.1528 18.6918 30.8834 20.5866C28.3516 24.3958 23.217 25.4193 19.4142 22.8841C15.6149 20.3491 14.5867 15.2127 17.1218 11.41Z" fill="#41479B"/>
<path d="M32.8048 5.98663L34.3081 8.24619C34.4344 8.43603 34.3833 8.69235 34.1938 8.81919L33.8126 9.07447C33.6224 9.20178 33.3649 9.1506 33.238 8.9601L31.7329 6.7011C31.6062 6.51107 31.6576 6.25429 31.8475 6.12745L32.2306 5.8717C32.4209 5.74467 32.678 5.79613 32.8048 5.98663Z" fill="#464655"/>
<path d="M35.1243 9.47049L36.6325 11.7286C36.7598 11.9193 36.7078 12.1773 36.5165 12.3037L36.1336 12.5567C35.9437 12.6824 35.688 12.6307 35.5615 12.4414L34.0542 10.1856C33.9272 9.99567 33.9782 9.7387 34.1683 9.61167L34.5502 9.3563C34.7402 9.22927 34.9973 9.28036 35.1243 9.47049Z" fill="#464655"/>
<path d="M34.4145 4.91247L38.2422 10.6568C38.369 10.8469 38.3175 11.1038 38.1274 11.2306L37.7428 11.4869C37.5527 11.6137 37.2957 11.5622 37.169 11.3721L33.34 5.62816C33.2131 5.43794 33.2647 5.18088 33.455 5.05422L33.8408 4.79744C34.031 4.67097 34.2878 4.72235 34.4145 4.91247Z" fill="#464655"/>
<path d="M36.0197 3.83995L37.5262 6.10392C37.6532 6.29461 37.601 6.55205 37.4099 6.67833L37.0268 6.93145C36.8367 7.05708 36.5809 7.00542 36.4545 6.81576L34.9468 4.5548C34.82 4.36467 34.8714 4.1077 35.0616 3.98095L35.4458 3.72483C35.6359 3.59798 35.8929 3.64945 36.0197 3.83995Z" fill="#464655"/>
<path d="M38.3406 7.33112L39.8448 9.59039C39.9714 9.78033 39.9201 10.0368 39.7304 10.1637L39.3484 10.419C39.1582 10.5463 38.9008 10.4949 38.774 10.3044L37.2698 8.04512C37.1433 7.85518 37.1945 7.59868 37.3842 7.47184L37.7662 7.21646C37.9563 7.08925 38.2138 7.14053 38.3406 7.33112Z" fill="#464655"/>
<path d="M12.4424 19.5609L16.2696 25.299C16.3964 25.489 16.3452 25.7459 16.1551 25.8727L15.7718 26.1287C15.5817 26.2556 15.3247 26.2043 15.1978 26.0141L11.3706 20.276C11.2438 20.0859 11.295 19.8291 11.4851 19.7022L11.8684 19.4463C12.0585 19.3194 12.3156 19.3707 12.4424 19.5609Z" fill="#464655"/>
<path d="M10.8358 20.6342L12.3384 22.888C12.4651 23.078 12.414 23.3344 12.2243 23.4614L11.8431 23.7166C11.6531 23.8438 11.3959 23.7927 11.2688 23.6025L9.76443 21.3492C9.6375 21.1592 9.68868 20.9022 9.87881 20.7753L10.2619 20.5195C10.4519 20.3927 10.709 20.444 10.8358 20.6342Z" fill="#464655"/>
<path d="M13.158 24.1193L14.6623 26.3788C14.7888 26.5688 14.7375 26.8254 14.5477 26.9521L14.1654 27.2077C13.9752 27.3348 13.718 27.2835 13.5911 27.0932L12.0858 24.8341C11.9592 24.6441 12.0106 24.3873 12.2004 24.2605L12.5836 24.0045C12.774 23.8774 13.0311 23.9289 13.158 24.1193Z" fill="#464655"/>
<path d="M9.22891 21.7072L13.0537 27.4456C13.1804 27.6355 13.1291 27.8922 12.9394 28.0192L12.5572 28.2747C12.3671 28.4019 12.1099 28.3507 11.983 28.1604L8.15594 22.4227C8.02909 22.2325 8.08056 21.9756 8.27069 21.8487L8.65525 21.5924C8.84519 21.4657 9.10216 21.517 9.22891 21.7072Z" fill="#464655"/>
<path d="M11.3713 11.729L15.1979 5.98617C15.3248 5.79586 15.5818 5.74448 15.7721 5.87142L16.1552 6.12726C16.3453 6.25411 16.3964 6.51098 16.2698 6.70101L12.4416 12.4407C12.315 12.6303 12.059 12.6819 11.869 12.5561L11.4873 12.3034C11.2963 12.177 11.2443 11.9195 11.3713 11.729Z" fill="#464655"/>
<path d="M9.76365 10.6572L13.591 4.91322C13.7178 4.72291 13.9751 4.67153 14.1653 4.79865L14.5475 5.05422C14.7373 5.18106 14.7884 5.43756 14.6619 5.62759L10.8356 11.3718C10.7087 11.5621 10.4517 11.6136 10.2615 11.4866L9.87821 11.2307C9.68828 11.104 9.637 10.8472 9.76365 10.6572Z" fill="#464655"/>
<path d="M8.15532 9.58989L11.983 3.84022C12.1099 3.64981 12.3672 3.59835 12.5574 3.72547L12.9397 3.98103C13.1294 4.10788 13.1806 4.36419 13.0542 4.55422L9.22885 10.3047C9.1022 10.4951 8.84504 10.5467 8.65482 10.4199L8.27026 10.1635C8.08023 10.0368 8.02885 9.78001 8.15532 9.58989Z" fill="#464655"/>
<path d="M31.7338 25.299L33.2382 23.0457C33.3652 22.8555 33.6225 22.8044 33.8125 22.9316L34.1937 23.1869C34.3834 23.3138 34.4344 23.5703 34.3078 23.7603L32.8052 26.014C32.6783 26.2042 32.4213 26.2556 32.2311 26.1287L31.8481 25.8729C31.658 25.746 31.6069 25.4891 31.7338 25.299Z" fill="#464655"/>
<path d="M34.0541 21.8258L35.5609 19.5613C35.6877 19.371 35.9447 19.3195 36.135 19.4463L36.519 19.7022C36.7092 19.8291 36.7606 20.0862 36.6336 20.2764L35.1236 22.5372C34.9969 22.7269 34.7409 22.7783 34.5509 22.6523L34.1701 22.3999C33.9793 22.2734 33.9273 22.0162 34.0541 21.8258Z" fill="#464655"/>
<path d="M33.34 26.378L34.8454 24.1188C34.9721 23.9286 35.2291 23.8771 35.4193 24.004L35.804 24.2605C35.9941 24.3873 36.0454 24.644 35.9189 24.8342L34.4145 27.0935C34.2878 27.2838 34.031 27.3353 33.8407 27.2087L33.4549 26.9519C33.2648 26.8252 33.2133 26.5682 33.34 26.378Z" fill="#464655"/>
<path d="M35.6627 22.8872L37.1689 20.6333C37.2958 20.4434 37.5525 20.3922 37.7425 20.5189L38.1271 20.7752C38.3173 20.902 38.3687 21.1592 38.2415 21.3493L36.7355 23.6033C36.6086 23.7931 36.3518 23.8443 36.1619 23.7176L35.7773 23.4613C35.5868 23.3347 35.5356 23.0774 35.6627 22.8872Z" fill="#464655"/>
<path d="M34.9473 27.4451L36.4544 25.1899C36.5809 25.0006 36.8366 24.949 37.0265 25.0746L37.4096 25.3277C37.6007 25.4541 37.6529 25.7118 37.5257 25.9025L36.0198 28.1607C35.8931 28.3508 35.6361 28.4021 35.446 28.2755L35.0617 28.0193C34.8715 27.8924 34.8202 27.6353 34.9473 27.4451Z" fill="#464655"/>
<path d="M37.2705 23.9659L38.7738 21.7079C38.9007 21.5175 39.158 21.466 39.3482 21.5932L39.73 21.8484C39.9198 21.9754 39.9709 22.2322 39.8442 22.4221L38.3396 24.6771C38.2131 24.8668 37.9568 24.9183 37.7668 24.7923L37.3861 24.5401C37.1955 24.4137 37.1437 24.1564 37.2705 23.9659Z" fill="#464655"/>
</g>
<defs>
<clipPath id="clip0_11_2200">
<rect width="48" height="32" fill="white"/>
</clipPath>
</defs>
</svg>
