<svg width="48" height="32" viewBox="0 0 48 32" fill="none" xmlns="http://www.w3.org/2000/svg">
<g clip-path="url(#clip0_11_1449)">
<path d="M47.1723 31.7241H0.827623C0.370593 31.7241 0 31.3535 0 30.8964V1.1035C0 0.646472 0.370593 0.275879 0.827623 0.275879H47.1724C47.6294 0.275879 48 0.646472 48 1.1035V30.8964C47.9999 31.3536 47.6293 31.7241 47.1723 31.7241Z" fill="#41479B"/>
<path d="M23.1723 0.275879H21.7349L14.0689 5.29834V0.275879H9.93101V5.29834L2.26509 0.275879H0.827623C0.370593 0.275879 0 0.646472 0 1.1035V1.75994L6.57702 6.06896H0V10.2069H6.57702L0 14.516V15.1723C0 15.6294 0.370593 16 0.827623 16H2.26509L9.93101 10.9775V16H14.0689V10.9775L21.7348 16H23.1722C23.6293 16 23.9999 15.6294 23.9999 15.1723V14.5159L17.4229 10.2069H23.9999V6.06896H17.4228L23.9999 1.75994V1.1035C23.9999 0.646472 23.6295 0.275879 23.1723 0.275879Z" fill="white"/>
<path d="M23.9999 6.89659H13.2413V0.275879H10.7585V6.89659H0V9.37927H10.7585V16H13.2413V9.37927H23.9999V6.89659Z" fill="#FF4B55"/>
<path d="M9.10339 6.06897L0.394405 0.415771C0.162656 0.56249 0 0.808864 0 1.10352V1.14646L7.58333 6.06897H9.10339Z" fill="#FF4B55"/>
<path d="M15.5891 6.06896L23.8742 0.690909C23.7302 0.447254 23.4761 0.275879 23.1725 0.275879H22.9935L14.0691 6.06896H15.5891Z" fill="#FF4B55"/>
<path d="M8.38813 10.2068L0.118931 15.5746C0.261524 15.8242 0.519524 15.9999 0.827586 15.9999H0.983679L9.90819 10.2068H8.38813Z" fill="#FF4B55"/>
<path d="M23.9867 15.2375L16.2368 10.207H14.7169L23.5174 15.9195C23.7812 15.7972 23.9619 15.5408 23.9867 15.2375Z" fill="#FF4B55"/>
<path d="M35.9837 8.14556C35.9837 8.14556 35.6377 6.76125 34.5994 6.06909C34.5994 6.06909 35.6376 7.79943 35.6376 9.18384L35.9837 8.14556Z" fill="#FFE15A"/>
<path d="M34.3831 6.64215C34.3831 6.64215 35.1078 7.08549 35.497 7.81018L35.1833 8.53487C35.1835 8.53487 34.9239 7.50746 34.3831 6.64215Z" fill="#FFE15A"/>
<path d="M33.583 6.80444C33.583 6.80444 34.8375 7.19379 35.4323 8.00491L35.0754 8.54566C35.0755 8.54566 34.5996 7.62644 33.583 6.80444Z" fill="#FFE15A"/>
<path d="M33.3991 7.4317C33.3991 7.4317 34.7185 7.63711 35.3134 8.26448L35.1619 8.85933C35.1619 8.85923 34.4374 7.99401 33.3991 7.4317Z" fill="#FFE15A"/>
<path d="M33.4424 7.86426C33.4424 7.86426 34.7186 7.9941 35.3026 8.6645C35.8866 9.33509 35.0863 9.1295 35.0863 9.1295C35.0863 9.1295 34.4158 8.36179 33.4424 7.86426Z" fill="#FFE15A"/>
<path d="M35.984 8.14556C35.984 8.14556 36.33 6.76125 37.3683 6.06909C37.3683 6.06909 36.3301 7.79943 36.3301 9.18384L35.984 8.14556Z" fill="#FFE15A"/>
<path d="M37.5844 6.64215C37.5844 6.64215 36.8597 7.08549 36.4704 7.81018L36.7841 8.53487C36.784 8.53487 37.0436 7.50746 37.5844 6.64215Z" fill="#FFE15A"/>
<path d="M38.3847 6.80444C38.3847 6.80444 37.1301 7.19379 36.5354 8.00491L36.8923 8.54566C36.8922 8.54566 37.3681 7.62644 38.3847 6.80444Z" fill="#FFE15A"/>
<path d="M38.5686 7.4317C38.5686 7.4317 37.2492 7.63711 36.6543 8.26448L36.8057 8.85933C36.8057 8.85923 37.5303 7.99401 38.5686 7.4317Z" fill="#FFE15A"/>
<path d="M38.5251 7.86426C38.5251 7.86426 37.249 7.9941 36.6649 8.6645C36.081 9.33509 36.8812 9.1295 36.8812 9.1295C36.8812 9.1295 37.5518 8.36179 38.5251 7.86426Z" fill="#FFE15A"/>
<path d="M35.9837 6.06897C35.9837 6.06897 35.6377 6.79712 35.9837 7.16125C36.3299 6.79722 35.9837 6.06897 35.9837 6.06897Z" fill="#FFE15A"/>
<path d="M35.639 6.24988C35.639 6.24988 35.5926 7.05481 36.0502 7.26181C36.2339 6.79419 35.639 6.24988 35.639 6.24988Z" fill="#FFE15A"/>
<path d="M36.3289 6.24988C36.3289 6.24988 36.3753 7.05481 35.9177 7.26181C35.734 6.79419 36.3289 6.24988 36.3289 6.24988Z" fill="#FFE15A"/>
<path d="M36.4421 6.71405C36.4421 6.71405 36.1401 7.4617 35.6379 7.45317C35.6717 6.95199 36.4421 6.71405 36.4421 6.71405Z" fill="#FFE15A"/>
<path d="M35.5256 6.71405C35.5256 6.71405 35.8276 7.4617 36.3298 7.45317C36.296 6.95199 35.5256 6.71405 35.5256 6.71405Z" fill="#FFE15A"/>
<path d="M35.9828 9.8758C36.5565 9.8758 37.0216 9.25602 37.0216 8.49149C37.0216 7.72695 36.5565 7.10718 35.9828 7.10718C35.4092 7.10718 34.9441 7.72695 34.9441 8.49149C34.9441 9.25602 35.4092 9.8758 35.9828 9.8758Z" fill="#FFD255"/>
<path d="M33.6114 9.90472L33.3735 9.53694C33.3735 9.53694 32.6813 9.70278 32.5155 9.18369L32.2487 9.16203C32.2487 9.16203 32.2847 8.80878 32.5947 8.75825C32.5947 8.75825 32.7821 8.52753 33.1138 8.57085C33.4455 8.61406 33.6186 8.89522 33.8096 8.96741C34.0007 9.0395 34.0223 9.27744 34.0223 9.27744L35.4787 10.7698C35.4787 10.7698 35.0606 11.3035 34.6856 11.4764C34.3106 11.6493 32.9336 10.8059 33.6114 9.90472Z" fill="#73AF00"/>
<path d="M38.3414 10.1786C38.3414 10.1786 38.9471 10.5896 38.9686 11.7252H37.9628C37.9628 11.7252 37.9737 10.9573 37.779 10.5464L38.3414 10.1786Z" fill="#73AF00"/>
<path d="M38.2114 10.222C38.2114 10.222 38.9685 10.4708 39.4335 9.87592L38.6441 9.76782L38.2114 10.222Z" fill="#73AF00"/>
<path d="M37.9844 9.38917L38.7532 9.64829C38.8501 9.68101 38.8843 9.80101 38.8163 9.87751C38.5247 10.2061 37.6541 10.9934 36.2504 10.9934C34.4227 10.9934 33.9505 9.84338 33.9288 9.75695C33.9071 9.67051 33.8098 8.96748 33.8098 8.96748L34.5885 8.88104L37.9844 9.38917Z" fill="#73AF00"/>
<path d="M30.5097 19.9777H32.5228L31.4845 21.9887L30.4463 20.6043L30.5097 19.9777Z" fill="#FF4B55"/>
<path d="M41.4574 19.9777H39.4444L40.4826 21.9887L41.5208 20.6043L41.4574 19.9777Z" fill="#FF4B55"/>
<path d="M30.5016 23.373C29.5085 23.373 28.7486 22.8401 28.7094 22.8123L29.5096 21.6824C29.5163 21.6868 30.1868 22.1424 30.8705 21.9353C31.5624 21.7264 32.0166 20.9099 32.2759 20.2613L33.5612 20.7756C33.016 22.1389 32.2382 22.9768 31.2502 23.2664C30.9918 23.3423 30.7399 23.373 30.5016 23.373Z" fill="#FFD25A"/>
<path d="M41.4659 23.373C42.459 23.373 43.219 22.8401 43.2582 22.8123L42.4579 21.6824C42.4513 21.6868 41.7808 22.1424 41.097 21.9353C40.4052 21.7264 39.9509 20.9099 39.6916 20.2613L38.4063 20.7756C38.9516 22.1389 39.7293 22.9768 40.7174 23.2664C40.9757 23.3423 41.2277 23.373 41.4659 23.373Z" fill="#FFD25A"/>
<path d="M40.4828 16.1053H31.4847V12.78C31.4847 12.3229 31.8553 11.9523 32.3124 11.9523H39.6553C40.1123 11.9523 40.4829 12.3229 40.4829 12.78V16.1053H40.4828Z" fill="#FF4B55"/>
<path d="M33.9395 14.3749L33.8314 13.6828C33.3231 13.6611 33.0312 13.0663 33.0312 13.0663L32.6202 13.2934C33.0526 14.3317 33.9395 14.3749 33.9395 14.3749Z" fill="#FFE15A"/>
<path d="M39.3581 13.6611C39.5095 13.5458 39.8411 13.5024 39.8411 13.5024C39.6032 13.2573 39.3437 13.4304 39.3437 13.4304C39.56 13.2285 39.4375 12.9401 39.4375 12.9401C39.4375 13.0339 39.2861 13.0988 39.2861 13.0988C39.2933 12.9114 39.0986 12.731 39.0986 12.731L38.9977 12.8968C38.9328 12.7382 38.7021 12.6157 38.7021 12.6157L38.6083 13.005C38.3921 12.8176 38.0099 12.8319 38.0099 12.8319L38.082 13.0122C37.8513 13.0194 37.224 13.1492 36.8563 13.1924C36.4885 13.2356 36.193 13.1348 36.193 12.969C36.193 12.8301 36.5143 12.8129 36.6534 12.8109C36.7517 12.8328 36.8754 12.8682 37.0492 12.9204C37.3736 13.0178 37.5636 12.8768 37.5636 12.8768C37.45 12.8335 37.4374 12.783 37.4374 12.783C37.6807 12.6424 37.909 12.6771 37.909 12.6771C37.8279 12.4987 37.4763 12.5095 37.4763 12.5095C37.5683 12.4608 37.6385 12.3094 37.6385 12.3094C37.6168 12.331 37.4171 12.3801 37.1442 12.4166C36.9389 12.4443 36.7461 12.6004 36.6664 12.6726C36.4499 12.656 35.8843 12.6491 35.9838 13.0413C36.1064 13.5244 37.0798 13.3513 37.6782 13.2576C38.2766 13.1638 38.5866 13.2432 38.7163 13.3224C38.8462 13.4018 38.6611 13.6704 38.0531 13.5604C37.5276 13.4653 37.2382 13.4626 37.0793 13.4793C36.9031 13.4905 36.7529 13.538 36.6471 13.5604C36.4092 13.6108 35.4934 13.9353 35.3204 13.4666C35.1474 12.9979 34.3038 14.2309 34.3038 14.2309L34.3697 14.3093L34.1452 14.2561C33.8424 14.6617 32.934 14.7861 32.934 14.7861C32.934 14.7861 32.7988 14.5428 32.6851 14.5103C32.5715 14.4778 32.523 14.6562 32.523 14.6562C32.523 14.6562 32.3878 14.6616 32.377 14.7861C32.3661 14.9104 32.4743 14.9213 32.4743 14.9213C32.4743 14.9213 32.3445 15.1105 32.5607 15.1645C32.5607 15.1645 32.5445 15.4295 32.8635 15.2456C33.8114 15.3651 34.5025 14.8784 34.8017 14.6129C34.9974 14.6255 35.3023 14.6192 35.5366 14.4976C35.9115 14.3029 36.3441 14.0577 36.5965 14.1516C36.5965 14.1516 36.7984 14.7716 36.0053 14.786C36.0053 14.786 35.888 14.6377 35.77 14.6377C35.7191 14.6377 35.6661 14.6988 35.6824 14.7537C35.6824 14.7537 35.544 14.7456 35.5196 14.827C35.4996 14.8934 35.548 14.9695 35.6498 14.9573C35.6498 14.9573 35.5806 15.0591 35.6498 15.1201C35.719 15.1811 35.8046 15.1201 35.8046 15.1201C35.8046 15.1201 35.7679 15.2463 35.8534 15.2585C35.9265 15.2689 36.0234 15.1495 36.0511 15.1132C36.1781 15.133 37.044 15.2328 37.2311 14.3245C37.2311 14.3245 37.6637 14.5119 38.0891 14.4759C38.5144 14.4399 38.9327 14.5047 38.8966 14.7138C38.8495 14.8654 38.7565 14.8554 38.7565 14.8554C38.6547 14.8146 38.4837 14.8187 38.4593 14.9653C38.4349 15.112 38.6343 15.116 38.6343 15.116C38.6913 15.2503 38.8541 15.1933 38.8541 15.1933C38.9966 15.2951 39.0903 15.1852 39.0903 15.1852C39.1514 15.2381 39.2144 15.248 39.2735 15.1974C39.3305 15.1485 39.2985 14.8227 39.2931 14.7065C39.2841 14.5131 39.257 14.0072 38.9758 13.9999C38.6947 13.9927 38.3341 14.1585 37.8367 13.7403C37.8107 13.7185 37.7854 13.7046 37.7597 13.686C37.9951 13.7079 38.1638 13.7717 38.327 13.7979C38.5506 13.8341 39.2067 13.7765 39.3581 13.6611Z" fill="#FFE15A"/>
<path d="M32.6202 13.2935C32.6202 13.2935 32.4823 13.2972 32.4148 13.2772C32.2991 13.2431 32.285 13.061 32.4095 13.0284C32.4095 13.0284 32.2598 12.9267 32.3284 12.8121C32.3833 12.7204 32.5233 12.7207 32.572 12.7748C32.572 12.7748 32.5263 12.624 32.6583 12.5742C32.7633 12.5345 32.8476 12.6553 32.8476 12.8121C32.8476 12.8121 33.0045 12.6844 33.0855 12.7689C33.142 12.8278 33.1257 12.9051 33.0314 13.0663C32.9351 13.2307 32.6202 13.2935 32.6202 13.2935Z" fill="#FFE15A"/>
<path d="M32.4493 13.2268C32.4493 13.2268 32.3761 13.353 32.1643 13.2756C32.1643 13.2756 32.3475 13.19 32.372 13.1168L32.4493 13.2268Z" fill="#41479B"/>
<path d="M32.3721 12.8561C32.3721 12.8561 32.2581 12.7829 32.132 12.7869C32.132 12.7869 32.3192 12.6486 32.478 12.7707L32.3721 12.8561Z" fill="#41479B"/>
<path d="M32.6367 12.6608C32.6367 12.6608 32.6733 12.5264 32.6 12.4531C32.6 12.4531 32.7507 12.5183 32.771 12.6403L32.6367 12.6608Z" fill="#41479B"/>
<path d="M32.9708 12.7991C32.9708 12.7991 33.044 12.6363 32.979 12.559C32.979 12.559 33.1743 12.673 33.093 12.8603L32.9708 12.7991Z" fill="#41479B"/>
<path d="M32.5893 14.6088C32.5893 14.6088 32.5109 14.4483 32.4098 14.4489C32.4098 14.4489 32.6224 14.3716 32.7144 14.5539L32.5893 14.6088Z" fill="#41479B"/>
<path d="M32.4179 14.8131C32.4179 14.8131 32.2781 14.7019 32.187 14.746C32.187 14.746 32.3458 14.5847 32.5071 14.7098L32.4179 14.8131Z" fill="#41479B"/>
<path d="M32.5162 15.1015C32.5162 15.1015 32.3376 15.0996 32.2928 15.1902C32.2928 15.1902 32.319 14.9655 32.5232 14.9652L32.5162 15.1015Z" fill="#41479B"/>
<path d="M32.6794 15.287C32.6794 15.287 32.6062 15.4132 32.3944 15.3359C32.3944 15.3359 32.5776 15.2503 32.602 15.1771L32.6794 15.287Z" fill="#41479B"/>
<path d="M35.8976 15.2229C35.8976 15.2229 35.8376 15.3262 35.6641 15.2629C35.6641 15.2629 35.805 15.2127 35.8249 15.1526L35.8976 15.2229Z" fill="#41479B"/>
<path d="M34.0659 12.9906C34.0659 12.9906 33.6764 13.6539 33.7701 14.6129C33.7701 14.6129 34.9182 14.4452 35.4158 13.2989C35.4158 13.2989 35.537 13.2498 35.5843 13.1321C35.6245 13.032 35.6213 12.8671 35.4284 12.868C35.4284 12.868 35.4862 12.7527 35.5564 12.7256C35.5564 12.7256 35.4321 12.6769 35.286 12.7094C35.286 12.7094 35.3996 12.5957 35.3996 12.4498C35.3996 12.4498 35.2266 12.5634 35.1185 12.5741C35.1185 12.5741 35.1076 12.3957 35.1509 12.374C35.1509 12.374 34.9239 12.3957 34.8102 12.5146C34.8102 12.5146 34.7345 12.4119 34.7399 12.3037C34.7399 12.3037 34.529 12.3957 34.4479 12.5308C34.4479 12.5308 34.383 12.4605 34.3885 12.3901C34.3885 12.3901 34.237 12.574 34.2046 12.6713C34.2046 12.6713 34.0619 12.6321 33.9992 12.7471C33.9537 12.8301 33.9641 12.9213 34.0659 12.9906Z" fill="#FFD255"/>
<path d="M35.7247 14.7399C35.7247 14.7399 35.6786 14.653 35.5401 14.6341C35.5401 14.6341 35.7165 14.5527 35.8278 14.6693L35.7247 14.7399Z" fill="#41479B"/>
<path d="M38.5867 15.0697C38.5867 15.0697 38.4855 15.1017 38.4381 15.2447C38.4381 15.2447 38.3863 15.0416 38.5319 14.9464L38.5867 15.0697Z" fill="#41479B"/>
<path d="M38.7989 15.1443C38.7989 15.1443 38.7031 15.2374 38.7077 15.3882C38.7077 15.3882 38.5895 15.2151 38.6938 15.0758L38.7989 15.1443Z" fill="#41479B"/>
<path d="M39.2572 15.1361C39.2572 15.1361 39.2283 15.2348 39.3158 15.3399C39.3158 15.3399 39.1346 15.2823 39.1311 15.1245L39.2572 15.1361Z" fill="#41479B"/>
<path d="M39.0418 15.1746C39.0418 15.1746 38.9649 15.2477 38.9854 15.3971C38.9854 15.3971 38.8424 15.2715 38.9315 15.1221L39.0418 15.1746Z" fill="#41479B"/>
<path d="M35.577 14.9177C35.577 14.9177 35.4843 14.8845 35.3692 14.9637C35.3692 14.9637 35.4449 14.7847 35.6056 14.796L35.577 14.9177Z" fill="#41479B"/>
<path d="M35.7036 15.1147C35.7036 15.1147 35.6085 15.0898 35.5007 15.1787C35.5007 15.1787 35.5173 15.006 35.6785 15.0034L35.7036 15.1147Z" fill="#41479B"/>
<path d="M40.4828 16.6631C39.7324 16.6631 39.7324 17.34 38.9818 17.34C38.2314 17.34 38.2314 16.6631 37.4808 16.6631C36.7308 16.6631 36.7308 17.34 35.9808 17.34C35.2315 17.34 35.2315 16.6631 34.4821 16.6631C33.7328 16.6631 33.7329 17.34 32.9837 17.34C32.2343 17.34 32.2343 16.6631 31.4847 16.6631V15.4132C32.2342 15.4132 32.2342 16.0902 32.9837 16.0902C33.733 16.0902 33.733 15.4132 34.4821 15.4132C35.2315 15.4132 35.2315 16.0902 35.9808 16.0902C36.7308 16.0902 36.7308 15.4132 37.4808 15.4132C38.2314 15.4132 38.2314 16.0902 38.9818 16.0902C39.7324 16.0902 39.7324 15.4132 40.4828 15.4132V16.6631Z" fill="white"/>
<path d="M38.9819 17.34C38.2314 17.34 38.2314 16.663 37.4808 16.663C36.7308 16.663 36.7308 17.34 35.9809 17.34C35.2315 17.34 35.2315 16.663 34.4822 16.663C33.7328 16.663 33.7329 17.34 32.9838 17.34C32.2358 17.34 32.2338 16.6663 31.489 16.6634C31.4993 16.9626 31.5337 17.4068 31.6214 17.9287C32.2302 18.0094 32.2856 18.5898 32.9837 18.5898C33.7329 18.5898 33.7329 17.9127 34.4821 17.9127C35.2314 17.9127 35.2314 18.5898 35.9808 18.5898C36.7308 18.5898 36.7308 17.9127 37.4808 17.9127C38.2312 17.9127 38.2312 18.5898 38.9818 18.5898C39.6809 18.5898 39.7365 18.0092 40.3461 17.9287C40.4339 17.4068 40.4682 16.9626 40.4785 16.6634C39.7329 16.6663 39.7308 17.34 38.9819 17.34Z" fill="#41479B"/>
<path d="M38.9818 18.5898C38.2314 18.5898 38.2314 17.9128 37.4808 17.9128C36.7308 17.9128 36.7308 18.5898 35.9808 18.5898C35.2315 18.5898 35.2315 17.9128 34.4821 17.9128C33.7328 17.9128 33.7329 18.5898 32.9837 18.5898C32.2856 18.5898 32.2301 18.0094 31.6214 17.9288C31.691 18.3424 31.7947 18.8036 31.9476 19.2805C32.285 19.4742 32.4319 19.8397 32.9837 19.8397C33.733 19.8397 33.733 19.1627 34.4821 19.1627C35.2315 19.1627 35.2315 19.8397 35.9808 19.8397C36.7308 19.8397 36.7308 19.1627 37.4808 19.1627C38.2313 19.1627 38.2313 19.8397 38.9818 19.8397C39.5348 19.8397 39.6817 19.4734 40.0202 19.2799C40.173 18.8032 40.2766 18.3422 40.3463 17.9288C39.7365 18.0093 39.6809 18.5898 38.9818 18.5898Z" fill="white"/>
<path d="M38.9818 19.8397C38.2313 19.8397 38.2313 19.1627 37.4808 19.1627C36.7308 19.1627 36.7308 19.8397 35.9808 19.8397C35.2314 19.8397 35.2314 19.1627 34.4821 19.1627C33.7327 19.1627 33.7328 19.8397 32.9837 19.8397C32.432 19.8397 32.285 19.4741 31.9476 19.2805C32.138 19.8747 32.4054 20.4909 32.7787 21.0656C32.8417 21.0785 32.9065 21.0896 32.9837 21.0896C33.7329 21.0896 33.7329 20.4125 34.4821 20.4125C35.2314 20.4125 35.2314 21.0896 35.9808 21.0896C36.7308 21.0896 36.7308 20.4125 37.4808 20.4125C38.2312 20.4125 38.2312 21.0896 38.9818 21.0896C39.0598 21.0896 39.1255 21.0785 39.189 21.0654C39.5623 20.4905 39.8298 19.8742 40.0202 19.28C39.6817 19.4733 39.5348 19.8397 38.9818 19.8397Z" fill="#41479B"/>
<path d="M38.9816 21.0897C38.2312 21.0897 38.2312 20.4126 37.4806 20.4126C36.7306 20.4126 36.7306 21.0897 35.9806 21.0897C35.2313 21.0897 35.2313 20.4126 34.4819 20.4126C33.7326 20.4126 33.7327 21.0897 32.9835 21.0897C32.9064 21.0897 32.8415 21.0786 32.7786 21.0657C33.0158 21.4308 33.2966 21.7781 33.6274 22.0923C33.8565 21.8987 34.0386 21.6625 34.482 21.6625C35.2314 21.6625 35.2314 22.3394 35.9807 22.3394C36.7307 22.3394 36.7307 21.6625 37.4807 21.6625C37.9259 21.6625 38.108 21.8998 38.3384 22.0937C38.6698 21.779 38.9513 21.4313 39.1888 21.0655C39.1253 21.0785 39.0596 21.0897 38.9816 21.0897Z" fill="white"/>
<path d="M38.3385 22.0937C38.1082 21.8998 37.9261 21.6624 37.4808 21.6624C36.7308 21.6624 36.7308 22.3394 35.9808 22.3394C35.2315 22.3394 35.2315 21.6624 34.4821 21.6624C34.0387 21.6624 33.8567 21.8987 33.6275 22.0923C34.2303 22.6651 34.9989 23.1267 35.9837 23.373C36.9678 23.127 37.7359 22.6659 38.3385 22.0937Z" fill="#41479B"/>
<path d="M37.4808 15.4132C36.7308 15.4132 36.7308 16.0902 35.9808 16.0902C35.2315 16.0902 35.2315 15.4132 34.4821 15.4132C33.7328 15.4132 33.7329 16.0902 32.9837 16.0902C32.2343 16.0902 32.2343 15.4132 31.4847 15.4132C31.4847 15.8402 31.4847 16.2111 31.4847 16.4514C31.4847 16.51 31.4861 16.5822 31.4889 16.6635C32.2336 16.6664 32.2358 17.34 32.9836 17.34C33.7329 17.34 33.7329 16.6631 34.482 16.6631C35.2314 16.6631 35.2314 17.34 35.9807 17.34C36.7307 17.34 36.7307 16.6631 37.4807 16.6631C38.2313 16.6631 38.2313 17.34 38.9817 17.34C39.7307 17.34 39.7328 16.6664 40.4786 16.6635C40.4814 16.5821 40.4828 16.5099 40.4828 16.4514C40.4828 16.2111 40.4828 15.8401 40.4828 15.4132C39.7322 15.4132 39.7322 16.0902 38.9817 16.0902C38.2314 16.0902 38.2314 15.4132 37.4808 15.4132Z" fill="white"/>
<path d="M40.1368 11.9523C40.328 11.9523 40.4829 12.1073 40.4829 12.2983V15.4131V16.1052C40.4829 16.2364 40.4829 16.3563 40.4829 16.4513C40.4829 16.5099 40.4816 16.582 40.4788 16.6633C40.4684 16.9626 40.434 17.4068 40.3464 17.9287C40.2768 18.342 40.1731 18.8031 40.0203 19.2798C39.8299 19.8741 39.5624 20.4905 39.1891 21.0652C38.9515 21.4311 38.67 21.7789 38.3387 22.0934C37.7361 22.6656 36.968 23.1267 35.984 23.3727C34.9992 23.1265 34.2306 22.6648 33.6278 22.092C33.297 21.7778 33.0162 21.4306 32.779 21.0654C32.4057 20.4906 32.1382 19.8744 31.9478 19.2803C31.7949 18.8034 31.6911 18.3421 31.6216 17.9286C31.5339 17.4067 31.4996 16.9625 31.4893 16.6632C31.4865 16.5819 31.4851 16.5097 31.4851 16.4512C31.4851 16.3562 31.4851 16.2362 31.4851 16.1051V15.413V12.2982C31.4851 12.1071 31.6401 11.9522 31.8312 11.9522H40.137L40.1368 11.9523ZM40.1368 11.6928H31.8309C31.497 11.6928 31.2252 11.9645 31.2252 12.2985V15.4133V16.1054V16.4515C31.2252 16.5125 31.2265 16.5877 31.2295 16.6725C31.2393 16.955 31.2708 17.4097 31.3653 17.9719C31.4458 18.4506 31.5585 18.9175 31.7003 19.3598C31.9197 20.044 32.2093 20.6656 32.561 21.207C32.82 21.6057 33.1187 21.9669 33.4486 22.2804C34.137 22.9345 34.9687 23.3868 35.9207 23.6248L35.9837 23.6406L36.0466 23.6248C36.9979 23.387 37.8291 22.9351 38.5172 22.2819C38.848 21.9679 39.1472 21.6061 39.4066 21.2067C39.7585 20.6651 40.048 20.0436 40.2673 19.359C40.4091 18.9171 40.5217 18.4503 40.6022 17.9718C40.6968 17.4096 40.7283 16.9548 40.7381 16.6724C40.741 16.5876 40.7424 16.5124 40.7424 16.4514V16.1053V15.4132V12.2984C40.7425 11.9645 40.4708 11.6928 40.1368 11.6928Z" fill="white"/>
<path d="M35.9837 21.2802L35.034 21.9409L35.3691 20.8335L34.4473 20.1347L35.6037 20.1111L35.9837 19.0182L36.3637 20.1111L37.5202 20.1347L36.5984 20.8335L36.9335 21.9409L35.9837 21.2802Z" fill="#73AF00"/>
<path d="M35.9837 19.2318L36.3135 20.1801L37.3173 20.2006L36.5172 20.8072L36.808 21.7682L35.9838 21.1947L35.1597 21.7682L35.4505 20.8072L34.6504 20.2007L35.6543 20.1802L35.9837 19.2318ZM35.9837 18.8048L35.8514 19.1858L35.5537 20.042L34.6474 20.0606L34.2442 20.0687L34.5656 20.3125L35.2878 20.8602L35.0254 21.7278L34.9086 22.1139L35.2397 21.8836L35.9837 21.3658L36.7277 21.8836L37.0589 22.1139L36.9421 21.7278L36.6796 20.8602L37.4019 20.3125L37.7233 20.0687L37.3201 20.0606L36.4138 20.042L36.1161 19.1858L35.9837 18.8048Z" fill="#FFE15A"/>
<path d="M33.8981 18.5808L32.9484 19.2414L33.2835 18.1341L32.3616 17.4352L33.5182 17.4117L33.8981 16.3188L34.278 17.4117L35.4347 17.4352L34.5127 18.1341L34.8478 19.2414L33.8981 18.5808Z" fill="#73AF00"/>
<path d="M33.8981 16.5322L34.2279 17.4805L35.2317 17.5009L34.4317 18.1075L34.7225 19.0685L33.8983 18.4949L33.0742 19.0685L33.365 18.1075L32.5649 17.5009L33.5688 17.4805L33.8981 16.5322ZM33.8981 16.1052L33.7658 16.4862L33.4681 17.3424L32.5618 17.3609L32.1586 17.3691L32.48 17.6128L33.2022 18.1605L32.9398 19.0282L32.823 19.4143L33.1541 19.1839L33.8981 18.6661L34.6421 19.1839L34.9733 19.4143L34.8565 19.0282L34.594 18.1605L35.3163 17.6128L35.6377 17.3691L35.2345 17.3609L34.3282 17.3424L34.0305 16.4862L33.8981 16.1052Z" fill="#FFE15A"/>
<path d="M38.0508 18.5808L37.1012 19.2414L37.4361 18.1341L36.5143 17.4352L37.6708 17.4117L38.0508 16.3188L38.4307 17.4117L39.5873 17.4352L38.6655 18.1341L39.0005 19.2414L38.0508 18.5808Z" fill="#73AF00"/>
<path d="M38.0508 16.5322L38.3805 17.4805L39.3843 17.5009L38.5842 18.1075L38.875 19.0685L38.0509 18.4949L37.2267 19.0685L37.5175 18.1075L36.7175 17.5009L37.7213 17.4805L38.0508 16.5322ZM38.0508 16.1052L37.9184 16.4862L37.6207 17.3424L36.7145 17.3609L36.3112 17.3691L36.6326 17.6128L37.3549 18.1605L37.0925 19.0282L36.9756 19.4143L37.3068 19.1839L38.0508 18.6661L38.7948 19.1839L39.1259 19.4143L39.0091 19.0282L38.7467 18.1605L39.4689 17.6128L39.7903 17.3691L39.3871 17.3609L38.4808 17.3424L38.1831 16.4862L38.0508 16.1052Z" fill="#FFE15A"/>
<path d="M41.4574 19.9775C40.5986 22.1643 38.4715 23.7189 35.9835 23.7189C33.4956 23.7189 31.3685 22.1643 30.5097 19.9775L29.2217 20.4814C30.2827 23.1828 32.9102 25.1033 35.9835 25.1033C39.0569 25.1033 41.6844 23.1828 42.7453 20.4814L41.4574 19.9775Z" fill="#FFE15A"/>
<path d="M36.676 11.9523H35.6378L35.2917 10.9141H36.33L36.676 11.9523Z" fill="white"/>
<path d="M38.4066 11.9523H37.7144L37.4837 11.2601H37.7996C38.0243 11.2601 38.2237 11.4039 38.2948 11.617L38.4066 11.9523Z" fill="white"/>
<path d="M34.5995 11.9523H33.9073L33.8284 11.7156C33.7537 11.4915 33.9205 11.2601 34.1567 11.2601H34.3687L34.5995 11.9523Z" fill="white"/>
<path d="M37.714 11.9523H36.6758L36.3298 10.9141H37.1186C37.2676 10.9141 37.3998 11.0094 37.4469 11.1508L37.714 11.9523Z" fill="#41479B"/>
<path d="M35.6378 11.9523H34.5996L34.3658 11.2511C34.3106 11.0853 34.434 10.9141 34.6087 10.9141H35.2918L35.6378 11.9523Z" fill="#41479B"/>
<path d="M38.5251 9.55148C38.2547 9.94083 37.4977 10.4058 36.2648 10.4058C35.2489 10.4058 34.5956 9.79242 34.3774 9.55055C34.3243 9.49167 34.2965 9.41639 34.2965 9.33698V9.10092C34.2965 8.9993 34.3492 8.90686 34.437 8.85586C34.6567 8.72799 35.1647 8.52399 36.1674 8.52399C37.4113 8.52399 38.5251 9.55148 38.5251 9.55148Z" fill="#509664"/>
</g>
<defs>
<clipPath id="clip0_11_1449">
<rect width="48" height="32" fill="white"/>
</clipPath>
</defs>
</svg>
