<svg width="48" height="32" viewBox="0 0 48 32" fill="none" xmlns="http://www.w3.org/2000/svg">
<g clip-path="url(#clip0_11_1762)">
<path d="M47.1723 0.275848H0.827623C0.370593 0.275848 0 0.646347 0 1.10338V30.8964C0 31.3534 0.370593 31.724 0.827623 31.724H47.1724C47.6294 31.724 48 31.3534 48 30.8964V1.10338C47.9999 0.646347 47.6293 0.275848 47.1723 0.275848Z" fill="#82C3D2"/>
<path d="M5.57966 4.04189C5.50475 3.72473 5.4861 3.60782 5.62841 3.4656C5.69779 3.39623 5.69779 3.28382 5.62841 3.21445C5.55904 3.14507 5.44663 3.14507 5.37725 3.21445C5.08926 3.50254 5.15797 3.80151 5.23251 4.1181C5.00544 4.04395 4.76994 4.09898 4.64376 4.25817C4.58113 4.33757 4.46001 4.56032 4.68698 4.91601C4.73976 4.9986 4.84888 5.02288 4.93222 4.97057C5.01501 4.91779 5.0391 4.80782 4.98632 4.72532C4.90119 4.59135 4.89866 4.50876 4.92247 4.47857C4.9506 4.44285 5.03779 4.42401 5.1291 4.45635C5.18807 4.47679 5.32513 4.54757 5.32513 4.76132C5.32513 4.93204 5.24619 5.08851 5.10857 5.19013C4.97066 5.29213 4.79216 5.32091 4.62013 5.26748C4.40769 5.2026 4.25929 4.97882 4.25929 4.72317C4.25929 4.54026 4.29848 4.35538 4.37048 4.19339C4.38191 4.16948 4.65341 3.60707 4.72335 3.39745C4.86163 2.98279 4.7211 2.77429 4.62519 2.6872C4.49685 2.57029 4.30926 2.54114 4.14782 2.61192C4.12326 2.62279 4.10301 2.63854 4.08173 2.65317C4.06044 2.63845 4.0401 2.62279 4.01563 2.61192C3.85429 2.54114 3.66679 2.57029 3.53826 2.6872C3.44235 2.77429 3.30182 2.98289 3.4401 3.39745C3.51004 3.60707 3.78145 4.16948 3.79045 4.18823C3.86479 4.35548 3.90407 4.54035 3.90407 4.72326C3.90407 4.97901 3.75576 5.20269 3.54323 5.26757C3.37054 5.32091 3.1926 5.29251 3.05479 5.19023C2.91717 5.08851 2.83823 4.93213 2.83823 4.76141C2.83823 4.54766 2.97529 4.47698 3.03426 4.45645C3.12585 4.4242 3.21257 4.44285 3.24088 4.47867C3.2647 4.50885 3.26217 4.59145 3.17704 4.72542C3.12426 4.80801 3.14835 4.91798 3.23113 4.97066C3.31457 5.02345 3.42407 4.99879 3.47638 4.9161C3.70326 4.56042 3.58223 4.33776 3.5196 4.25826C3.39332 4.09907 3.15792 4.04404 2.93085 4.1182C3.00548 3.80179 3.0741 3.50264 2.7861 3.21454C2.71673 3.14517 2.60432 3.14517 2.53495 3.21454C2.46557 3.28392 2.46557 3.39632 2.53495 3.4657C2.67717 3.60792 2.6587 3.72482 2.5837 4.04198C2.5387 4.23201 2.48282 4.46901 2.48282 4.76113C2.48282 4.95548 2.55117 5.14138 2.6661 5.2941H2.66039C2.56223 5.2941 2.48273 5.37351 2.48273 5.47176C2.48273 5.56991 2.56214 5.64941 2.66039 5.64941H2.6661C2.55117 5.80213 2.48282 5.98794 2.48282 6.18229C2.48282 6.47441 2.5387 6.71141 2.5836 6.90154C2.65851 7.21869 2.67717 7.3356 2.53485 7.47782C2.46548 7.54719 2.46548 7.6596 2.53485 7.72897C2.56954 7.76366 2.61501 7.781 2.66048 7.781C2.70585 7.781 2.75142 7.76366 2.7861 7.72897C3.0741 7.44088 3.00538 7.14182 2.93085 6.82532C3.15792 6.89919 3.39341 6.84444 3.5196 6.68526C3.58223 6.60585 3.70335 6.3831 3.47638 6.02741C3.42379 5.94482 3.31401 5.92026 3.23113 5.97285C3.14835 6.02563 3.12426 6.1356 3.17704 6.2181C3.26217 6.35207 3.2647 6.43466 3.24088 6.46485C3.21267 6.50019 3.12585 6.51894 3.03426 6.48707C2.97529 6.46663 2.83823 6.39585 2.83823 6.1821C2.83823 6.01138 2.91717 5.85491 3.05479 5.75329C3.1927 5.65129 3.37101 5.62213 3.54323 5.67594C3.75566 5.74082 3.90407 5.9646 3.90407 6.22026C3.90407 6.40316 3.86488 6.58804 3.79045 6.75529L2.62692 9.37288C2.53129 9.58794 2.48273 9.81669 2.48273 10.0522C2.48273 10.3553 2.62054 10.632 2.83748 10.801C2.62064 10.9699 2.48273 11.2467 2.48273 11.5497C2.48273 11.7853 2.53139 12.014 2.62692 12.2291L3.79026 14.8465C3.8646 15.0137 3.90388 15.1986 3.90388 15.3815C3.90388 15.6372 3.75557 15.8609 3.54304 15.9258C3.37035 15.9796 3.19242 15.9507 3.0546 15.8485C2.91698 15.7467 2.83804 15.5904 2.83804 15.4196C2.83804 15.2059 2.9751 15.1352 3.03407 15.1147C3.12567 15.0827 3.21238 15.1011 3.2407 15.1369C3.26451 15.1671 3.26198 15.2497 3.17685 15.3836C3.12407 15.4662 3.14817 15.5762 3.23095 15.6289C3.31438 15.6817 3.42388 15.6573 3.4762 15.5743C3.70307 15.2186 3.58204 14.996 3.51941 14.9165C3.39313 14.7573 3.15773 14.7025 2.93067 14.7764C3.00529 14.46 3.07392 14.1609 2.78592 13.8728C2.71654 13.8034 2.60414 13.8034 2.53476 13.8728C2.46539 13.9421 2.46539 14.0546 2.53476 14.1239C2.67698 14.2661 2.65851 14.3831 2.58351 14.7002C2.5386 14.8903 2.48273 15.1273 2.48273 15.4195C2.48273 15.6138 2.55107 15.7997 2.66601 15.9524H2.66029C2.56214 15.9524 2.48264 16.0318 2.48264 16.1301C2.48264 16.2283 2.56204 16.3077 2.66029 16.3077H2.66601C2.55098 16.4605 2.48273 16.6463 2.48273 16.8407C2.48273 17.1328 2.5386 17.3698 2.58351 17.56C2.65842 17.8771 2.67707 17.994 2.53476 18.1362C2.46539 18.2056 2.46539 18.318 2.53476 18.3874C2.56945 18.4221 2.61492 18.4394 2.66039 18.4394C2.70576 18.4394 2.75132 18.4221 2.78601 18.3874C3.07401 18.0993 3.00529 17.8002 2.93076 17.4837C3.15782 17.5576 3.39332 17.5029 3.51951 17.3437C3.58213 17.2643 3.70326 17.0415 3.47629 16.6858C3.4237 16.6032 3.31392 16.5787 3.23104 16.6313C3.14826 16.684 3.12417 16.794 3.17695 16.8765C3.26207 17.0105 3.2646 17.0931 3.24079 17.1233C3.21257 17.159 3.12576 17.1778 3.03417 17.1455C2.9752 17.125 2.83813 17.0543 2.83813 16.8405C2.83813 16.6698 2.91707 16.5133 3.0547 16.4117C3.1926 16.3097 3.37091 16.2805 3.54313 16.3344C3.75557 16.3992 3.90398 16.623 3.90398 16.8787C3.90398 17.0616 3.86479 17.2465 3.79035 17.4137L2.62692 20.0316C2.53129 20.2466 2.48273 20.4754 2.48273 20.7109C2.48273 21.014 2.62054 21.2907 2.83748 21.4597C2.62064 21.6286 2.48273 21.9053 2.48273 22.2084C2.48273 22.444 2.53139 22.6727 2.62692 22.8878L3.79026 25.5052C3.8646 25.6724 3.90388 25.8573 3.90388 26.0402C3.90388 26.2959 3.75557 26.5196 3.54304 26.5845C3.37035 26.6383 3.19242 26.6092 3.0546 26.5072C2.91698 26.4054 2.83804 26.2491 2.83804 26.0783C2.83804 25.8646 2.9751 25.7939 3.03407 25.7734C3.12567 25.7414 3.21238 25.7598 3.2407 25.7956C3.26451 25.8258 3.26198 25.9084 3.17685 26.0423C3.12407 26.1249 3.14817 26.2348 3.23095 26.2876C3.31438 26.3404 3.42388 26.316 3.4762 26.233C3.70307 25.8773 3.58204 25.6547 3.51941 25.5752C3.39313 25.4155 3.15773 25.361 2.93067 25.4351C3.00529 25.1187 3.07392 24.8196 2.78592 24.5315C2.71654 24.4621 2.60414 24.4621 2.53476 24.5315C2.46539 24.6008 2.46539 24.7133 2.53476 24.7826C2.67698 24.9248 2.65851 25.0418 2.58351 25.3589C2.5386 25.549 2.48273 25.7859 2.48273 26.0781C2.48273 26.3565 2.61614 26.6216 2.83917 26.7887C2.61614 26.9557 2.48273 27.2209 2.48273 27.4993C2.48273 27.7914 2.5386 28.0284 2.58351 28.2186C2.65842 28.5356 2.67707 28.6526 2.53476 28.7948C2.46539 28.8642 2.46539 28.9766 2.53476 29.046C2.56945 29.0807 2.61492 29.098 2.66039 29.098C2.70576 29.098 2.75132 29.0807 2.78601 29.046C3.07401 28.7579 3.00529 28.4588 2.93076 28.1423C3.15782 28.2162 3.39332 28.1615 3.51951 28.0023C3.58213 27.9229 3.70326 27.7001 3.47629 27.3444C3.4237 27.2618 3.31392 27.2376 3.23104 27.2899C3.14826 27.3427 3.12417 27.4526 3.17695 27.5351C3.26207 27.6691 3.2646 27.7517 3.24079 27.7819C3.21257 27.8176 3.12576 27.836 3.03417 27.8041C2.9752 27.7837 2.83813 27.7129 2.83813 27.4991C2.83813 27.3284 2.91707 27.1719 3.0547 27.0703C3.1926 26.9683 3.37091 26.9395 3.54313 26.993C3.75557 27.0578 3.90398 27.2816 3.90398 27.5373C3.90398 27.7202 3.86479 27.9051 3.79279 28.0671C3.78135 28.091 3.50985 28.6534 3.43992 28.863C3.30163 29.2776 3.44216 29.4861 3.53807 29.5732C3.6201 29.6479 3.72576 29.6871 3.83376 29.6871C3.89498 29.6871 3.95704 29.6742 4.01554 29.6486C4.0401 29.6377 4.06035 29.622 4.08163 29.6074C4.10291 29.6221 4.12326 29.6377 4.14773 29.6486C4.20613 29.6743 4.26829 29.6871 4.32951 29.6871C4.43723 29.6871 4.54307 29.6479 4.62519 29.5732C4.7211 29.4861 4.86163 29.2776 4.72335 28.863C4.65341 28.6534 4.38201 28.091 4.37301 28.0722C4.29866 27.905 4.25938 27.7201 4.25938 27.5372C4.25938 27.2814 4.40769 27.0577 4.62023 26.9929C4.79301 26.9394 4.97085 26.9682 5.10866 27.0702C5.24629 27.1719 5.32522 27.3283 5.32522 27.499C5.32522 27.7128 5.18816 27.7835 5.12919 27.804C5.03797 27.836 4.9506 27.8176 4.92257 27.7818C4.89876 27.7516 4.90129 27.669 4.98641 27.535C5.03919 27.4524 5.0151 27.3426 4.93232 27.2898C4.84935 27.2377 4.73994 27.262 4.68707 27.3443C4.46019 27.7 4.58123 27.9227 4.64385 28.0022C4.77013 28.1614 5.00554 28.2162 5.2326 28.1422C5.15797 28.4587 5.08935 28.7578 5.37735 29.0459C5.41204 29.0806 5.45751 29.0979 5.50297 29.0979C5.54844 29.0979 5.59391 29.0806 5.6286 29.0459C5.69797 28.9765 5.69797 28.8641 5.6286 28.7947C5.48638 28.6525 5.50485 28.5356 5.57985 28.2185C5.62475 28.0283 5.68063 27.7913 5.68063 27.4992C5.68063 27.2208 5.54722 26.9557 5.32419 26.7886C5.54722 26.6215 5.68063 26.3565 5.68063 26.078C5.68063 25.7858 5.62475 25.5488 5.57985 25.3587C5.50494 25.0417 5.48629 24.9247 5.6286 24.7824C5.69797 24.7131 5.69797 24.6007 5.6286 24.5313C5.55922 24.4619 5.44682 24.4619 5.37744 24.5313C5.08944 24.8194 5.15816 25.1183 5.23269 25.4349C5.00563 25.3608 4.77013 25.4153 4.64394 25.575C4.58132 25.6544 4.46019 25.8772 4.68716 26.2328C4.73994 26.3154 4.84907 26.3397 4.93241 26.2874C5.01519 26.2346 5.03929 26.1247 4.98651 26.0422C4.90138 25.9082 4.89885 25.8256 4.92266 25.7954C4.95079 25.7597 5.03797 25.7413 5.12929 25.7732C5.18826 25.7936 5.32532 25.8644 5.32532 26.0782C5.32532 26.2489 5.24638 26.4053 5.10876 26.507C4.97085 26.609 4.79235 26.6381 4.62032 26.5843C4.40788 26.5194 4.25948 26.2957 4.25948 26.04C4.25948 25.8571 4.29866 25.6722 4.3731 25.505L5.53644 22.8876C5.63207 22.6725 5.68063 22.4438 5.68063 22.2083C5.68063 21.9052 5.54282 21.6284 5.32588 21.4595C5.54272 21.2905 5.68063 21.0138 5.68063 20.7107C5.68063 20.4751 5.63197 20.2464 5.53644 20.0314L4.37319 17.4142C4.29885 17.2469 4.25957 17.062 4.25957 16.8791C4.25957 16.6234 4.40788 16.3997 4.62041 16.3348C4.79319 16.2814 4.97104 16.3102 5.10885 16.4122C5.24647 16.5139 5.32541 16.6703 5.32541 16.841C5.32541 17.0547 5.18835 17.1254 5.12938 17.146C5.03816 17.1782 4.95079 17.1595 4.92276 17.1237C4.89894 17.0935 4.90147 17.011 4.9866 16.877C5.03938 16.7944 5.01529 16.6845 4.93251 16.6317C4.84954 16.5797 4.74013 16.604 4.68726 16.6863C4.46038 17.042 4.58141 17.2646 4.64404 17.3441C4.77032 17.5033 5.00572 17.5582 5.23279 17.4842C5.15816 17.8006 5.08954 18.0998 5.37754 18.3879C5.41222 18.4225 5.45769 18.4399 5.50316 18.4399C5.54863 18.4399 5.5941 18.4225 5.62879 18.3879C5.69816 18.3185 5.69816 18.2061 5.62879 18.1367C5.48657 17.9945 5.50504 17.8776 5.58004 17.5604C5.62494 17.3703 5.68082 17.1333 5.68082 16.8412C5.68082 16.6468 5.61247 16.4609 5.49754 16.3082H5.50326C5.60141 16.3082 5.68091 16.2288 5.68091 16.1305C5.68091 16.0324 5.6015 15.9529 5.50326 15.9529H5.49754C5.61257 15.8002 5.68082 15.6145 5.68082 15.4199C5.68082 15.1278 5.62494 14.8908 5.58004 14.7007C5.50513 14.3835 5.48647 14.2666 5.62879 14.1244C5.69816 14.055 5.69816 13.9426 5.62879 13.8732C5.55941 13.8039 5.44701 13.8039 5.37763 13.8732C5.08963 14.1613 5.15835 14.4604 5.23288 14.7769C5.00582 14.703 4.77032 14.7578 4.64413 14.917C4.58151 14.9964 4.46038 15.2191 4.68735 15.5748C4.74013 15.6574 4.84926 15.6814 4.9326 15.6294C5.01538 15.5766 5.03947 15.4666 4.98669 15.3841C4.90157 15.2501 4.89904 15.1676 4.92285 15.1374C4.95097 15.1016 5.03816 15.0833 5.12947 15.1151C5.18844 15.1356 5.32551 15.2064 5.32551 15.4201C5.32551 15.5908 5.24657 15.7473 5.10894 15.8489C4.97104 15.9509 4.79254 15.9797 4.62051 15.9263C4.40807 15.8614 4.25966 15.6376 4.25966 15.382C4.25966 15.1991 4.29885 15.0142 4.37329 14.8469L5.53663 12.2295C5.63225 12.0145 5.68082 11.7857 5.68082 11.5502C5.68082 11.2471 5.543 10.9704 5.32607 10.8014C5.54291 10.6325 5.68082 10.3557 5.68082 10.0527C5.68082 9.81706 5.63216 9.58841 5.53663 9.37334L4.37329 6.75594C4.29894 6.58869 4.25966 6.40382 4.25966 6.22091C4.25966 5.96516 4.40798 5.74148 4.62051 5.6766C4.79329 5.62316 4.97113 5.65194 5.10894 5.75394C5.24657 5.85566 5.32551 6.01204 5.32551 6.18276C5.32551 6.39651 5.18844 6.46719 5.12947 6.48772C5.03826 6.51969 4.95088 6.50085 4.92285 6.4655C4.89904 6.43532 4.90157 6.35272 4.98669 6.21876C5.03947 6.13616 5.01538 6.02619 4.9326 5.97351C4.84963 5.92147 4.74023 5.94538 4.68735 6.02798C4.46048 6.38366 4.58151 6.60632 4.64413 6.68582C4.77041 6.845 5.00582 6.89985 5.23288 6.82588C5.15826 7.14229 5.08963 7.44144 5.37763 7.72953C5.41232 7.76422 5.45779 7.78157 5.50326 7.78157C5.54872 7.78157 5.59419 7.76422 5.62888 7.72953C5.69825 7.66016 5.69825 7.54775 5.62888 7.47838C5.48666 7.33616 5.50513 7.21925 5.58013 6.9021C5.62504 6.71197 5.68091 6.47497 5.68091 6.18285C5.68091 5.98851 5.61257 5.8026 5.49763 5.64988H5.50335C5.6015 5.64988 5.681 5.57048 5.681 5.47223C5.681 5.37407 5.6016 5.29457 5.50335 5.29457H5.49763C5.61266 5.14185 5.68091 4.95613 5.68091 4.7616C5.68035 4.46901 5.62447 4.23201 5.57966 4.04189ZM3.77685 3.28486C3.71376 3.09548 3.73579 2.98757 3.77741 2.9497C3.8046 2.92401 3.84585 2.92504 3.87201 2.93686C3.90407 2.95111 3.90407 2.9737 3.90407 2.98476C3.90407 3.08292 3.98348 3.16242 4.08173 3.16242C4.17988 3.16242 4.25938 3.08301 4.25938 2.98476C4.25938 2.9737 4.25938 2.95111 4.29144 2.93686C4.31713 2.92504 4.3581 2.92401 4.38604 2.9497C4.42766 2.98757 4.44969 3.09548 4.3866 3.28486C4.34066 3.4222 4.17444 3.77976 4.08182 3.97382C3.99107 3.78426 3.82307 3.42314 3.77685 3.28486ZM4.08163 10.6147C4.13263 10.684 4.19029 10.7485 4.26041 10.801C4.19029 10.8536 4.13263 10.918 4.08163 10.9872C4.03063 10.918 3.97298 10.8535 3.90285 10.801C3.97298 10.7484 4.03063 10.6841 4.08163 10.6147ZM4.08163 21.2733C4.13263 21.3426 4.19029 21.4071 4.26041 21.4596C4.19029 21.5122 4.13263 21.5766 4.08163 21.6458C4.03063 21.5766 3.97298 21.5121 3.90285 21.4596C3.97298 21.407 4.03063 21.3428 4.08163 21.2733ZM4.38632 28.9758C4.44941 29.1651 4.42738 29.2731 4.38576 29.3109C4.35782 29.3362 4.31685 29.3352 4.29116 29.3238C4.2591 29.3095 4.2591 29.287 4.2591 29.2759C4.2591 29.1777 4.17969 29.0982 4.08144 29.0982C3.9832 29.0982 3.90379 29.1776 3.90379 29.2759C3.90379 29.2869 3.90379 29.3095 3.87173 29.3238C3.84566 29.3352 3.80441 29.3363 3.77713 29.3109C3.73551 29.2731 3.71348 29.1651 3.77657 28.9758C3.82251 28.8384 3.98873 28.4809 4.08135 28.2868C4.1721 28.4763 4.3401 28.8375 4.38632 28.9758ZM4.25873 26.7889C4.19151 26.8412 4.13188 26.9038 4.08163 26.9746C4.03148 26.9038 3.97176 26.8413 3.90454 26.7889C3.97176 26.7366 4.03138 26.6739 4.08163 26.6032C4.13179 26.6739 4.19141 26.7366 4.25873 26.7889ZM5.21141 22.7433L4.08154 25.2854L2.95167 22.7433C2.87732 22.576 2.83804 22.3912 2.83804 22.2083C2.83804 21.9525 2.98635 21.7287 3.19888 21.6639C3.37157 21.6105 3.5497 21.6393 3.68732 21.7413C3.82495 21.843 3.90388 21.9994 3.90388 22.1701C3.90388 22.3839 3.76682 22.4545 3.70785 22.4751C3.61626 22.507 3.52916 22.4887 3.50123 22.4528C3.47741 22.4227 3.47995 22.3401 3.56507 22.2061C3.61785 22.1235 3.59376 22.0135 3.51098 21.9609C3.42801 21.9088 3.3186 21.9331 3.26573 22.0154C3.03885 22.3711 3.15988 22.5938 3.22251 22.6733C3.35113 22.8356 3.5931 22.8915 3.82448 22.8106C3.85082 22.8015 3.87754 22.7902 3.90388 22.7768V23.226C3.90388 23.2259 3.9036 23.2257 3.9036 23.2257C3.89826 23.1322 3.82082 23.0584 3.72632 23.0584C3.62816 23.0584 3.54866 23.1378 3.54866 23.236C3.54866 23.3519 3.62966 23.5529 3.90388 23.6152V23.9466C3.90388 24.0447 3.98329 24.1242 4.08154 24.1242C4.17979 24.1242 4.25919 24.0448 4.25919 23.9466V23.6152C4.53341 23.5529 4.61441 23.3519 4.61441 23.236C4.61441 23.1379 4.53519 23.0526 4.43713 23.0526C4.33898 23.0526 4.25985 23.1262 4.25985 23.2243C4.25976 23.2246 4.25919 23.2251 4.2591 23.2253V22.7769C4.28544 22.7903 4.31216 22.8017 4.33851 22.8108C4.56988 22.8916 4.81176 22.8357 4.94047 22.6734C5.0031 22.594 5.12422 22.3713 4.89726 22.0156C4.84447 21.933 4.73488 21.9087 4.65201 21.961C4.56923 22.0138 4.54513 22.1238 4.59791 22.2063C4.68304 22.3403 4.68557 22.4228 4.66176 22.453C4.63363 22.4888 4.54654 22.5071 4.45513 22.4753C4.39616 22.4548 4.2591 22.384 4.2591 22.1703C4.2591 21.9996 4.33804 21.8431 4.47566 21.7415C4.61357 21.6395 4.79207 21.6103 4.9641 21.6641C5.17654 21.729 5.32494 21.9528 5.32494 22.2084C5.32513 22.3912 5.28594 22.5761 5.21141 22.7433ZM5.21141 20.1759C5.28576 20.3431 5.32504 20.528 5.32504 20.7109C5.32504 20.9666 5.17672 21.1903 4.96419 21.2552C4.79179 21.309 4.61338 21.2799 4.47576 21.1779C4.33813 21.0761 4.25919 20.9198 4.25919 20.749C4.25919 20.5353 4.39626 20.4646 4.45523 20.4441C4.54663 20.4121 4.63382 20.4305 4.66185 20.4663C4.68566 20.4965 4.68313 20.5791 4.59801 20.713C4.54523 20.7956 4.56932 20.9055 4.6521 20.9583C4.73554 21.0111 4.84504 20.9867 4.89735 20.9037C5.12422 20.548 5.00319 20.3254 4.94057 20.2459C4.81185 20.0835 4.56998 20.0283 4.3386 20.1085C4.31226 20.1176 4.28554 20.1291 4.25919 20.1424V19.693L4.25948 19.6936C4.26482 19.7869 4.34226 19.8609 4.43676 19.8609C4.53491 19.8609 4.61441 19.7814 4.61441 19.6832C4.61441 19.5673 4.53341 19.3663 4.25919 19.3041V18.9727C4.25919 18.8745 4.17979 18.795 4.08154 18.795C3.98329 18.795 3.90388 18.8744 3.90388 18.9727V19.3041C3.62966 19.3663 3.54866 19.5673 3.54866 19.6832C3.54866 19.7814 3.62788 19.8667 3.72595 19.8667C3.8241 19.8667 3.90323 19.7931 3.90323 19.6949C3.90332 19.6946 3.90388 19.6942 3.90388 19.6942L3.90398 20.1423C3.87763 20.1289 3.85091 20.1175 3.82457 20.1084C3.5932 20.0283 3.35123 20.0835 3.2226 20.2458C3.15998 20.3252 3.03885 20.5479 3.26582 20.9036C3.3186 20.9862 3.4282 21.0102 3.51107 20.9582C3.59385 20.9054 3.61795 20.7954 3.56516 20.7129C3.48004 20.579 3.47751 20.4964 3.50132 20.4662C3.52926 20.4305 3.61635 20.4121 3.70795 20.444C3.76691 20.4644 3.90398 20.5352 3.90398 20.7489C3.90398 20.9197 3.82504 21.0761 3.68741 21.1778C3.54951 21.2798 3.37138 21.3089 3.19898 21.2551C2.98654 21.1902 2.83813 20.9664 2.83813 20.7108C2.83813 20.5279 2.87732 20.343 2.95176 20.1758L4.08163 17.6336L5.21141 20.1759ZM4.25873 16.1304C4.19151 16.1827 4.13188 16.2453 4.08163 16.3161C4.03148 16.2453 3.97176 16.1828 3.90454 16.1304C3.97176 16.078 4.03138 16.0154 4.08163 15.9446C4.13179 16.0153 4.19141 16.078 4.25873 16.1304ZM5.21141 12.0848L4.08154 14.6269L2.95167 12.0848C2.87732 11.9175 2.83804 11.7327 2.83804 11.5497C2.83804 11.294 2.98635 11.0703 3.19888 11.0054C3.37157 10.952 3.5497 10.9808 3.68732 11.0828C3.82495 11.1845 3.90388 11.3409 3.90388 11.5116C3.90388 11.7253 3.76682 11.796 3.70785 11.8166C3.61626 11.8488 3.52916 11.8302 3.50123 11.7943C3.47741 11.7642 3.47995 11.6816 3.56507 11.5476C3.61785 11.465 3.59376 11.355 3.51098 11.3023C3.42801 11.25 3.3186 11.2742 3.26573 11.3569C3.03885 11.7126 3.15988 11.9352 3.22251 12.0147C3.35113 12.1771 3.5931 12.2326 3.82448 12.1521C3.85082 12.143 3.87754 12.1317 3.90388 12.1182V12.5675L3.9036 12.5669C3.89826 12.4736 3.82082 12.3997 3.72632 12.3997C3.62816 12.3997 3.54866 12.4791 3.54866 12.5773C3.54866 12.6932 3.62966 12.8942 3.90388 12.9565V13.2879C3.90388 13.386 3.98329 13.4655 4.08154 13.4655C4.17979 13.4655 4.25919 13.3861 4.25919 13.2879V12.9565C4.53341 12.8942 4.61441 12.6932 4.61441 12.5773C4.61441 12.4792 4.53519 12.3938 4.43713 12.3938C4.33898 12.3938 4.25985 12.4674 4.25985 12.5655C4.25976 12.5658 4.25919 12.5663 4.25919 12.5663L4.2591 12.1182C4.28544 12.1316 4.31216 12.1429 4.33851 12.152C4.56988 12.2324 4.81176 12.1769 4.94047 12.0147C5.0031 11.9352 5.12422 11.7125 4.89726 11.3568C4.84447 11.2738 4.73488 11.2497 4.65201 11.3022C4.56923 11.355 4.54513 11.465 4.59791 11.5475C4.68304 11.6815 4.68557 11.7641 4.66176 11.7942C4.63363 11.83 4.54654 11.8488 4.45513 11.8165C4.39616 11.796 4.2591 11.7252 4.2591 11.5115C4.2591 11.3408 4.33804 11.1843 4.47566 11.0827C4.61357 10.9807 4.79207 10.9519 4.9641 11.0053C5.17654 11.0702 5.32494 11.294 5.32494 11.5497C5.32513 11.7327 5.28594 11.9175 5.21141 12.0848ZM5.21141 9.51725C5.28576 9.6845 5.32504 9.86937 5.32504 10.0523C5.32504 10.308 5.17672 10.5317 4.96419 10.5966C4.79179 10.6504 4.61338 10.6212 4.47576 10.5192C4.33813 10.4175 4.25919 10.2612 4.25919 10.0904C4.25919 9.87669 4.39626 9.806 4.45523 9.78547C4.54663 9.7535 4.63382 9.77187 4.66185 9.80769C4.68566 9.83787 4.68313 9.92047 4.59801 10.0544C4.54523 10.137 4.56932 10.2469 4.6521 10.2997C4.73554 10.352 4.84504 10.3281 4.89735 10.2451C5.12422 9.88944 5.00319 9.66678 4.94057 9.58728C4.81185 9.42491 4.56998 9.36941 4.3386 9.44994C4.31226 9.45903 4.28554 9.47038 4.25919 9.48378V9.03453C4.25919 9.03463 4.25948 9.03481 4.25948 9.03481C4.26482 9.12838 4.34226 9.20216 4.43676 9.20216C4.53491 9.20216 4.61441 9.12275 4.61441 9.0245C4.61441 8.90863 4.53341 8.70763 4.25919 8.64538V8.31397C4.25919 8.21582 4.17979 8.13631 4.08154 8.13631C3.98329 8.13631 3.90388 8.21572 3.90388 8.31397V8.64538C3.62966 8.70763 3.54866 8.90863 3.54866 9.0245C3.54866 9.12266 3.62788 9.20806 3.72595 9.20806C3.8241 9.20806 3.90323 9.13447 3.90323 9.03631C3.90332 9.03603 3.90388 9.03556 3.90398 9.03528V9.48369C3.87763 9.47028 3.85091 9.45894 3.82457 9.44984C3.5932 9.36941 3.35123 9.42491 3.2226 9.58719C3.15998 9.66659 3.03885 9.88934 3.26582 10.245C3.3186 10.3276 3.4282 10.3516 3.51107 10.2996C3.59385 10.2468 3.61795 10.1368 3.56516 10.0543C3.48004 9.92037 3.47751 9.83778 3.50132 9.80759C3.52926 9.77187 3.61635 9.7535 3.70795 9.78537C3.76691 9.80581 3.90398 9.87659 3.90398 10.0903C3.90398 10.2611 3.82504 10.4175 3.68741 10.5192C3.54951 10.6212 3.37138 10.6503 3.19898 10.5965C2.98654 10.5316 2.83813 10.3078 2.83813 10.0522C2.83813 9.86928 2.87732 9.68441 2.95176 9.51716L4.08163 6.97503L5.21141 9.51725ZM3.90445 5.47176C3.97166 5.41945 4.03129 5.35682 4.08154 5.28604C4.13169 5.35682 4.19141 5.41935 4.25863 5.47176C4.19141 5.52407 4.13179 5.58669 4.08154 5.65747C4.03138 5.58669 3.97176 5.52407 3.90445 5.47176Z" fill="#FFE15A"/>
<path d="M25.382 18.3095C27.7434 18.3095 29.6576 16.3953 29.6576 14.034C29.6576 11.6727 27.7434 9.75845 25.382 9.75845C23.0207 9.75845 21.1065 11.6727 21.1065 14.034C21.1065 16.3953 23.0207 18.3095 25.382 18.3095Z" fill="#FFE15A"/>
<path d="M25.703 8.58273C25.703 8.75982 25.5593 8.90344 25.3822 8.90344C25.2051 8.90344 25.0615 8.75982 25.0615 8.58273C25.0615 8.40563 25.3822 7.62067 25.3822 7.62067C25.3822 7.62067 25.703 8.40563 25.703 8.58273Z" fill="#FFE15A"/>
<path d="M25.0616 19.4861C25.0616 19.309 25.2052 19.1654 25.3823 19.1654C25.5594 19.1654 25.703 19.309 25.703 19.4861C25.703 19.6632 25.3823 20.4482 25.3823 20.4482C25.3823 20.4482 25.0616 19.6633 25.0616 19.4861Z" fill="#FFE15A"/>
<path d="M30.8341 14.3551C30.657 14.3551 30.5134 14.2115 30.5134 14.0344C30.5134 13.8573 30.657 13.7137 30.8341 13.7137C31.0112 13.7137 31.7961 14.0344 31.7961 14.0344C31.7961 14.0344 31.0112 14.3551 30.8341 14.3551Z" fill="#FFE15A"/>
<path d="M19.9308 13.7138C20.1078 13.7138 20.2515 13.8574 20.2515 14.0345C20.2515 14.2116 20.1078 14.3552 19.9308 14.3552C19.7537 14.3552 18.9687 14.0345 18.9687 14.0345C18.9687 14.0345 19.7537 13.7138 19.9308 13.7138Z" fill="#FFE15A"/>
<path d="M29.4644 10.4063C29.3392 10.5315 29.1362 10.5315 29.0109 10.4063C28.8855 10.281 28.8856 10.0781 29.0109 9.95271C29.1361 9.82736 29.9179 9.49915 29.9179 9.49915C29.9179 9.49915 29.5898 10.281 29.4644 10.4063Z" fill="#FFE15A"/>
<path d="M21.3007 17.6626C21.426 17.5374 21.629 17.5374 21.7543 17.6626C21.8796 17.7878 21.8795 17.9908 21.7543 18.1162C21.629 18.2415 20.8473 18.5696 20.8473 18.5696C20.8473 18.5696 21.1755 17.7879 21.3007 17.6626Z" fill="#FFE15A"/>
<path d="M29.0109 18.1162C28.8856 17.9909 28.8856 17.7879 29.0109 17.6626C29.1361 17.5373 29.3391 17.5374 29.4644 17.6626C29.5898 17.7879 29.918 18.5696 29.918 18.5696C29.918 18.5696 29.1361 18.2413 29.0109 18.1162Z" fill="#FFE15A"/>
<path d="M21.7542 9.95273C21.8794 10.078 21.8794 10.2809 21.7542 10.4063C21.6289 10.5316 21.426 10.5315 21.3006 10.4063C21.1753 10.281 20.847 9.49927 20.847 9.49927C20.847 9.49927 21.6289 9.82758 21.7542 9.95273Z" fill="#FFE15A"/>
<path d="M23.5926 8.87496C23.6604 9.03864 23.5827 9.22614 23.419 9.29393C23.2553 9.36171 23.0678 9.28399 23 9.1203C22.9322 8.95661 22.9281 8.10873 22.9281 8.10873C22.9281 8.10873 23.5248 8.71127 23.5926 8.87496Z" fill="#FFE15A"/>
<path d="M27.1727 19.1939C27.1049 19.0302 27.1826 18.8427 27.3463 18.775C27.51 18.7072 27.6975 18.7849 27.7653 18.9486C27.833 19.1123 27.8372 19.9601 27.8372 19.9601C27.8372 19.9601 27.2404 19.3576 27.1727 19.1939Z" fill="#FFE15A"/>
<path d="M30.5419 12.2446C30.3782 12.3123 30.1907 12.2346 30.1229 12.0709C30.0552 11.9072 30.1329 11.7197 30.2966 11.652C30.4603 11.5842 31.308 11.58 31.308 11.58C31.308 11.58 30.7056 12.1767 30.5419 12.2446Z" fill="#FFE15A"/>
<path d="M20.223 15.8244C20.3867 15.7566 20.5742 15.8343 20.642 15.998C20.7097 16.1617 20.632 16.3492 20.4683 16.417C20.3047 16.4848 19.4568 16.4889 19.4568 16.4889C19.4568 16.4889 20.0593 15.8923 20.223 15.8244Z" fill="#FFE15A"/>
<path d="M27.7651 9.12041C27.6973 9.2841 27.5097 9.36173 27.3461 9.29404C27.1824 9.22626 27.1048 9.03866 27.1725 8.87507C27.2403 8.71148 27.8369 8.10895 27.8369 8.10895C27.8369 8.10895 27.8329 8.95682 27.7651 9.12041Z" fill="#FFE15A"/>
<path d="M23 18.9485C23.0678 18.7848 23.2554 18.7072 23.419 18.7749C23.5827 18.8426 23.6603 19.0302 23.5926 19.1938C23.5249 19.3575 22.9282 19.9599 22.9282 19.9599C22.9282 19.9599 22.9323 19.1122 23 18.9485Z" fill="#FFE15A"/>
<path d="M30.2965 16.4169C30.1328 16.3492 30.0552 16.1616 30.1228 15.998C30.1906 15.8343 30.3782 15.7567 30.5418 15.8244C30.7054 15.892 31.3079 16.4888 31.3079 16.4888C31.3079 16.4888 30.46 16.4848 30.2965 16.4169Z" fill="#FFE15A"/>
<path d="M20.4684 11.652C20.6321 11.7197 20.7097 11.9073 20.642 12.0709C20.5742 12.2345 20.3866 12.3122 20.223 12.2445C20.0594 12.1768 19.4569 11.5801 19.4569 11.5801C19.4569 11.5801 20.3049 11.5841 20.4684 11.652Z" fill="#FFE15A"/>
<path d="M24.6336 8.62495C24.6682 8.79867 24.5554 8.96751 24.3816 9.00201C24.2079 9.0366 24.039 8.92382 24.0045 8.75001C23.9699 8.5763 24.1314 7.7439 24.1314 7.7439C24.1314 7.7439 24.599 8.45123 24.6336 8.62495Z" fill="#FFE15A"/>
<path d="M26.1316 19.4439C26.097 19.2702 26.2098 19.1014 26.3836 19.0669C26.5574 19.0323 26.7262 19.1451 26.7607 19.3189C26.7952 19.4926 26.6338 20.325 26.6338 20.325C26.6338 20.325 26.1661 19.6177 26.1316 19.4439Z" fill="#FFE15A"/>
<path d="M30.7922 13.2854C30.6185 13.32 30.4496 13.2072 30.4151 13.0334C30.3805 12.8595 30.4933 12.6908 30.6671 12.6563C30.8408 12.6217 31.6732 12.7831 31.6732 12.7831C31.6732 12.7831 30.9659 13.2509 30.7922 13.2854Z" fill="#FFE15A"/>
<path d="M19.973 14.7835C20.1467 14.7489 20.3155 14.8617 20.35 15.0355C20.3846 15.2093 20.2719 15.3781 20.098 15.4126C19.9243 15.4472 19.0919 15.2857 19.0919 15.2857C19.0919 15.2857 19.7993 14.818 19.973 14.7835Z" fill="#FFE15A"/>
<path d="M28.6779 9.67969C28.5795 9.82697 28.3803 9.86653 28.233 9.76809C28.0858 9.66966 28.0462 9.47053 28.1446 9.32325C28.243 9.17597 28.9457 8.70151 28.9457 8.70151C28.9457 8.70151 28.7762 9.53231 28.6779 9.67969Z" fill="#FFE15A"/>
<path d="M22.0872 18.3892C22.1855 18.2419 22.3847 18.2023 22.532 18.3008C22.6793 18.3991 22.7189 18.5983 22.6204 18.7456C22.5221 18.8929 21.8193 19.3674 21.8193 19.3674C21.8193 19.3674 21.9888 18.5365 22.0872 18.3892Z" fill="#FFE15A"/>
<path d="M29.7372 17.3299C29.5899 17.2316 29.5504 17.0323 29.6488 16.8851C29.7473 16.7378 29.9464 16.6982 30.0937 16.7966C30.241 16.895 30.7154 17.5978 30.7154 17.5978C30.7154 17.5978 29.8845 17.4283 29.7372 17.3299Z" fill="#FFE15A"/>
<path d="M21.0279 10.739C21.1752 10.8373 21.2147 11.0366 21.1163 11.1838C21.0179 11.3311 20.8187 11.3707 20.6714 11.2722C20.5242 11.1738 20.0497 10.4712 20.0497 10.4712C20.0497 10.4712 20.8807 10.6407 21.0279 10.739Z" fill="#FFE15A"/>
<path d="M22.6204 9.32328C22.7188 9.47056 22.6792 9.66968 22.532 9.76812C22.3848 9.86656 22.1856 9.8269 22.0872 9.67972C21.9888 9.53244 21.8193 8.70163 21.8193 8.70163C21.8193 8.70163 22.5221 9.17609 22.6204 9.32328Z" fill="#FFE15A"/>
<path d="M28.1447 18.7456C28.0464 18.5984 28.0859 18.3992 28.2331 18.3008C28.3803 18.2024 28.5795 18.242 28.678 18.3892C28.7763 18.5365 28.9458 19.3673 28.9458 19.3673C28.9458 19.3673 28.2431 18.8928 28.1447 18.7456Z" fill="#FFE15A"/>
<path d="M30.0937 11.2723C29.9464 11.3706 29.7473 11.331 29.6489 11.1838C29.5505 11.0366 29.5901 10.8374 29.7373 10.739C29.8846 10.6407 30.7154 10.4712 30.7154 10.4712C30.7154 10.4712 30.241 11.1739 30.0937 11.2723Z" fill="#FFE15A"/>
<path d="M20.6716 16.7966C20.8189 16.6983 21.018 16.7378 21.1164 16.885C21.2148 17.0323 21.1752 17.2314 21.028 17.3299C20.8807 17.4282 20.0499 17.5977 20.0499 17.5977C20.0499 17.5977 20.5243 16.895 20.6716 16.7966Z" fill="#FFE15A"/>
<path d="M26.7607 8.75002C26.7261 8.92374 26.5573 9.03661 26.3836 9.00202C26.2099 8.96742 26.097 8.79867 26.1316 8.62495C26.1662 8.45124 26.6338 7.7439 26.6338 7.7439C26.6338 7.7439 26.7952 8.5763 26.7607 8.75002Z" fill="#FFE15A"/>
<path d="M24.0046 19.3189C24.0392 19.1452 24.208 19.0323 24.3817 19.0669C24.5554 19.1015 24.6683 19.2702 24.6337 19.444C24.5991 19.6177 24.1315 20.325 24.1315 20.325C24.1315 20.325 23.9701 19.4926 24.0046 19.3189Z" fill="#FFE15A"/>
<path d="M30.667 15.4126C30.4933 15.378 30.3804 15.2093 30.415 15.0355C30.4496 14.8618 30.6184 14.749 30.7921 14.7835C30.9658 14.8181 31.6731 15.2858 31.6731 15.2858C31.6731 15.2858 30.8407 15.4471 30.667 15.4126Z" fill="#FFE15A"/>
<path d="M20.0981 12.6563C20.2719 12.6909 20.3847 12.8596 20.3501 13.0333C20.3155 13.2071 20.1468 13.3199 19.9731 13.2853C19.7994 13.2507 19.092 12.7831 19.092 12.7831C19.092 12.7831 19.9244 12.6218 20.0981 12.6563Z" fill="#FFE15A"/>
<path d="M35.4401 15.1594C35.3148 15.1067 35.1717 15.167 35.1195 15.2915C35.1195 15.2921 35.1195 15.2921 35.1195 15.2921C35.1185 15.2945 35.1136 15.306 35.1053 15.3257C34.92 15.7586 34.5365 16.3913 34.1493 16.9865C34.51 15.8256 34.8397 14.5857 34.8627 14.4985C34.8971 14.3683 34.82 14.2346 34.69 14.1993C34.5598 14.1643 34.4259 14.24 34.3894 14.3697C34.2211 14.9727 33.877 15.7663 33.5595 16.4381C33.6177 15.689 33.6286 14.9951 33.6294 14.9449C33.6314 14.8122 33.5274 14.7025 33.3947 14.6962C33.27 14.7001 33.1496 14.7911 33.1397 14.9237C32.8258 19.2425 28.6699 21.1745 28.2653 21.3523C28.0536 21.3734 27.0675 21.4845 26.1724 21.7953C26.071 21.8305 25.9846 21.8658 25.8985 21.9009C25.8665 21.8889 25.8322 21.8822 25.7961 21.8843C23.0491 22.0831 20.8587 20.9562 19.2845 18.5419C18.0951 16.7178 17.722 14.803 17.7184 14.7839C17.6932 14.6508 17.5657 14.565 17.4321 14.5885C17.2989 14.6138 17.2115 14.7417 17.2367 14.8748C17.2466 14.9277 17.4103 15.7635 17.8611 16.8635C17.258 15.9114 16.8377 14.7581 16.6897 14.1575C16.6867 14.1455 16.6791 14.1364 16.6746 14.1253C16.6676 14.1083 16.6618 14.0913 16.6516 14.0765C16.6444 14.0661 16.6349 14.0585 16.6264 14.0495C16.613 14.0353 16.6001 14.0214 16.5837 14.0108C16.5743 14.0047 16.5638 14.0017 16.5536 13.997C16.5355 13.9885 16.5178 13.9802 16.4977 13.9763C16.4837 13.9736 16.4694 13.9754 16.4549 13.9751C16.4402 13.9749 16.4263 13.9712 16.4112 13.9738C16.4079 13.9744 16.4054 13.9766 16.4021 13.9774C16.3989 13.978 16.3959 13.977 16.3927 13.9776C16.3796 13.9808 16.3696 13.9891 16.3576 13.9942C16.3423 14.0009 16.3267 14.0059 16.3132 14.0151C16.3 14.0242 16.2902 14.036 16.2792 14.0474C16.2682 14.0586 16.2568 14.0686 16.2482 14.0816C16.2395 14.0948 16.2348 14.1097 16.2286 14.1245C16.2227 14.1388 16.2158 14.1523 16.2127 14.1678C16.2096 14.1836 16.211 14.1999 16.2111 14.2165C16.2111 14.2297 16.2074 14.2424 16.2097 14.2559C16.2107 14.2617 16.2126 14.2675 16.2136 14.2731V14.2741C16.2139 14.2751 16.2142 14.2765 16.2145 14.2776C16.3662 15.1714 16.7277 16.0978 17.0546 16.8043C16.5355 16.2153 16.1017 15.5366 15.948 15.1347C15.9436 15.123 15.9347 15.1148 15.9287 15.1043C15.9196 15.0881 15.9116 15.0715 15.8993 15.0581C15.8906 15.0485 15.88 15.0424 15.8701 15.0344C15.8552 15.0224 15.841 15.0103 15.8238 15.002C15.8127 14.9968 15.8007 14.9951 15.789 14.9915C15.7709 14.986 15.7534 14.98 15.7342 14.9788C15.7191 14.9778 15.7041 14.9816 15.6888 14.9836C15.6746 14.9854 15.6607 14.9836 15.6466 14.988C15.6439 14.9888 15.642 14.991 15.6395 14.9919C15.6368 14.9928 15.6342 14.9922 15.6316 14.9932C15.6183 14.9983 15.6088 15.0081 15.5969 15.0152C15.5829 15.0234 15.568 15.0303 15.5561 15.041C15.5439 15.0519 15.5355 15.0655 15.5259 15.0785C15.5168 15.0908 15.5067 15.1018 15.5 15.1155C15.4929 15.1298 15.4903 15.1454 15.4863 15.1609C15.4823 15.176 15.4769 15.19 15.4759 15.2059C15.4748 15.2217 15.4787 15.2375 15.4808 15.2536C15.4825 15.2675 15.4807 15.2812 15.485 15.2949C15.7518 16.1555 16.3934 17.1795 16.8961 17.9008C16.4772 17.578 16.1693 17.2289 16.08 17.1235C16.0703 17.1121 16.0609 17.1005 16.0512 17.0891C15.9648 16.9851 15.8121 16.9703 15.7073 17.0551C15.603 17.1403 15.5866 17.2937 15.671 17.3984C15.6756 17.4042 15.6939 17.4272 15.7247 17.4631C16.0926 17.9008 16.4933 18.3093 16.8564 18.6542L16.3597 18.4425C16.2465 18.3936 16.1134 18.4377 16.0514 18.5454C15.9893 18.6532 16.0174 18.7896 16.1167 18.8644C16.1651 18.9003 17.0447 19.5574 17.8061 19.9458C17.7343 19.9501 17.65 19.9448 17.5557 19.9376C17.4406 19.9265 17.3273 20.0089 17.2993 20.1258C17.2717 20.243 17.3331 20.3629 17.4444 20.4088C17.4632 20.4165 17.6952 20.5122 17.9817 20.6142C17.9149 20.6415 17.8617 20.6975 17.8397 20.7703C17.8067 20.879 17.8531 20.9969 17.9517 21.0533C17.9774 21.0682 18.324 21.267 18.7529 21.4431C18.7415 21.4608 18.7321 21.48 18.7251 21.5011C18.6915 21.604 18.7298 21.7171 18.8192 21.7788C18.8936 21.83 20.5591 22.9603 22.5042 22.9603C22.6319 22.9603 22.7609 22.9555 22.8906 22.945C23.0255 22.9344 23.1263 22.8162 23.1155 22.6811C23.1048 22.546 22.9877 22.444 22.8515 22.4565C21.6295 22.5561 20.4523 22.0973 19.7522 21.7467C19.8446 21.7241 19.8978 21.7036 19.911 21.6983C20.019 21.6543 20.0812 21.5407 20.0601 21.4263C20.0391 21.3119 19.9404 21.228 19.8238 21.2255C19.5396 21.2197 19.1459 21.0814 18.8068 20.9329C18.9349 20.8687 19.0097 20.8073 19.0162 20.8021C19.09 20.7403 19.1211 20.6417 19.096 20.5488C19.0707 20.4563 18.9935 20.3869 18.8988 20.3716C18.7946 20.3543 18.6648 20.3208 18.5288 20.2796C18.661 20.2035 18.7173 20.1197 18.7388 20.077C18.7729 20.009 18.7736 19.9294 18.741 19.861C18.7082 19.7926 18.6457 19.7432 18.5714 19.7273C18.5073 19.7134 18.4346 19.69 18.3562 19.6594C18.3705 19.645 18.3837 19.6287 18.3944 19.61C18.4568 19.5042 18.4311 19.3682 18.3341 19.292C18.3291 19.2882 18.1387 19.1389 17.8506 18.8902C17.8963 18.8734 17.9367 18.8423 17.966 18.8002C18.0277 18.7112 18.0235 18.5919 17.9557 18.5075C17.9502 18.5008 17.7596 18.2612 17.4969 17.8972C17.5837 17.9645 17.6703 18.0334 17.7569 18.089C17.7977 18.1149 17.8438 18.1279 17.8896 18.1279C17.9516 18.1279 18.0128 18.1044 18.06 18.0589C18.0794 18.0401 18.0946 18.0185 18.1066 17.9956C18.2554 18.1545 18.4117 18.2988 18.5758 18.4219C18.5972 18.4379 18.6231 18.4376 18.6471 18.4457C18.7167 18.5623 18.7891 18.6791 18.865 18.7959C20.3541 21.087 22.4536 22.3142 24.9717 22.3878C24.7399 22.5287 24.4881 22.6742 24.0896 22.8294C24.0026 22.8633 23.9257 22.8973 23.8485 22.9313C23.8112 22.9386 23.7762 22.9521 23.747 22.9753C23.0514 23.2973 22.7634 23.6155 22.6466 23.8381C22.53 24.0593 22.6306 24.2863 22.773 24.4041C22.8172 24.4405 22.8736 24.4592 22.93 24.4592C22.9688 24.4592 23.0076 24.4505 23.0428 24.4328C23.1295 24.3897 23.1875 24.2982 23.1836 24.202C23.1936 24.191 23.2363 24.1556 23.3699 24.1512C23.4673 24.143 23.6723 24.1651 23.9116 24.1842C24.1392 24.2029 24.4122 24.2242 24.7024 24.2391C24.5209 24.4508 24.3098 24.6962 24.3098 24.6962C24.2464 24.7699 24.2325 24.8743 24.2747 24.9619C24.317 25.0501 24.4084 25.1047 24.5041 25.1012C24.6979 25.0945 24.8295 25.0907 24.9159 25.0889C24.9913 25.1876 25.0838 25.2268 25.1434 25.2421C25.3121 25.2852 25.4802 25.2177 25.6068 25.1377C25.7026 25.2067 25.7984 25.2359 25.8743 25.2469C26.0455 25.2704 26.204 25.2206 26.3187 25.1641C26.4375 25.2407 26.5538 25.2603 26.6425 25.2603C26.6437 25.2603 26.6451 25.2603 26.6465 25.2603C26.8379 25.2594 27.0053 25.167 27.1237 25.0764C27.2284 25.1387 27.3285 25.1587 27.4058 25.1622C27.5814 25.1684 27.7269 25.1009 27.8237 25.0376C28.1692 25.107 28.4671 24.9442 28.6639 24.7646C28.7537 24.8168 28.8392 24.8297 28.9072 24.8264C29.0822 24.8202 29.2156 24.7138 29.3012 24.6185C29.6929 24.6659 29.9741 24.5936 30.1366 24.4007C30.2252 24.2958 30.2612 24.1775 30.2709 24.0697C31.3578 24.0635 31.4562 23.4701 31.4642 23.3968C31.4713 23.3301 31.451 23.2637 31.4077 23.2125C31.3646 23.1613 31.3021 23.1296 31.2353 23.1258L28.3857 22.9544C28.2664 22.9458 28.16 23.0257 28.1324 23.1422C28.1318 23.144 28.0833 23.3251 27.9313 23.4698C27.7267 23.6651 27.3974 23.7682 27.0392 23.8229C27.0405 23.7901 27.0359 23.7567 27.0233 23.7241C26.9745 23.5977 26.8323 23.5363 26.7063 23.5838C26.118 23.8121 25.1655 23.7834 24.4204 23.7316C24.5346 23.6382 24.6723 23.5457 24.7822 23.4853C24.8751 23.4341 24.925 23.3292 24.9053 23.2248C24.8911 23.149 24.8362 23.0962 24.77 23.0623C24.9772 22.9577 25.1471 22.8566 25.3083 22.7583C25.588 22.587 25.8523 22.4254 26.3336 22.2584C27.2627 21.9356 28.3379 21.8374 28.3487 21.8364C28.373 21.8344 28.397 21.8283 28.4197 21.8192C28.458 21.8033 31.4908 20.5328 32.9196 17.6013C32.9009 17.6899 32.8808 17.7709 32.859 17.8416C32.8216 17.9624 32.8819 18.0912 32.9983 18.1399C33.0883 18.1778 33.1906 18.1581 33.2598 18.094C33.1696 18.332 33.0879 18.5193 33.0212 18.6299C32.9533 18.7425 32.9861 18.8885 33.0955 18.9613C33.1212 18.9781 33.1486 18.9895 33.1769 18.9963C33.0662 19.1582 32.9541 19.3114 32.8423 19.4517C32.7678 19.5451 32.7721 19.6783 32.85 19.7664C32.658 19.9675 32.4877 20.1333 32.3583 20.2386C32.2739 20.3071 32.2463 20.4215 32.2851 20.5193C32.1603 20.5907 32.0579 20.641 31.9868 20.6625C31.8676 20.6984 31.7943 20.8186 31.8168 20.9412C31.8286 21.0059 31.8649 21.0604 31.9152 21.0963C31.7653 21.1366 31.6012 21.1754 31.4231 21.2107C31.3228 21.2308 31.2453 21.3108 31.2289 21.4118C31.2127 21.5129 31.2606 21.6135 31.3493 21.6642C31.357 21.6685 31.4407 21.7159 31.569 21.7705C31.0946 21.9616 30.2477 22.2111 28.8578 22.3481C28.7232 22.3615 28.6246 22.4818 28.638 22.6163C28.6511 22.7509 28.7675 22.8443 28.9062 22.8366C31.5445 22.5756 32.3592 21.9153 32.3925 21.8869C32.4686 21.8232 32.4988 21.7193 32.4686 21.6245C32.4485 21.5618 32.4045 21.5111 32.3478 21.4818C33.1907 21.2164 33.5526 20.9228 33.5716 20.9071C33.664 20.8304 33.6872 20.6978 33.6264 20.5939C33.5651 20.4899 33.4375 20.4449 33.3261 20.4899C33.2948 20.5019 33.2447 20.5143 33.1815 20.5267C33.7471 20.1394 34.3476 19.678 34.6117 19.4721C34.6581 19.4377 34.7003 19.4045 34.7374 19.3734C34.84 19.2873 34.8543 19.1348 34.7697 19.031C34.6857 18.9276 34.5326 18.9103 34.4277 18.9932C34.3894 19.0234 34.3496 19.0545 34.3084 19.0865C34.1865 19.1771 34.0306 19.2796 33.8606 19.3849C34.5026 18.6559 35.1489 17.8657 35.3335 17.6388C35.3503 17.6181 35.3668 17.5976 35.3835 17.577C35.4683 17.4716 35.4518 17.3174 35.3464 17.2326C35.2408 17.1465 35.0864 17.1642 35.0018 17.269L35.0012 17.2696L35.001 17.2701C34.9965 17.2754 34.9757 17.3013 34.9408 17.3444C34.7474 17.5804 34.5437 17.809 34.3428 18.0225C34.9968 16.8372 35.492 15.6705 35.5646 15.4976C35.5672 15.4914 35.5696 15.4852 35.5723 15.4789C35.6242 15.3548 35.5651 15.2111 35.4401 15.1594ZM23.9473 23.425L24.0142 23.4337C23.9321 23.5105 23.8653 23.5966 23.8122 23.6854C23.6958 23.6761 23.5901 23.6678 23.5073 23.6642C23.6214 23.5896 23.7682 23.5087 23.9473 23.425Z" fill="#FFE15A"/>
</g>
<defs>
<clipPath id="clip0_11_1762">
<rect width="48" height="32" fill="white"/>
</clipPath>
</defs>
</svg>
