<svg width="48" height="32" viewBox="0 0 48 32" fill="none" xmlns="http://www.w3.org/2000/svg">
<g clip-path="url(#clip0_11_2603)">
<path d="M47.9999 6.89666H0V1.10349C0 0.646456 0.370593 0.275864 0.827623 0.275864H47.1724C47.6294 0.275864 48 0.646456 48 1.10349L47.9999 6.89666Z" fill="#FF4B55"/>
<path d="M47.1723 31.7241H0.827623C0.370593 31.7241 0 31.3536 0 30.8965V25.1034H47.9999V30.8965C47.9999 31.3536 47.6293 31.7241 47.1723 31.7241Z" fill="#FF4B55"/>
<path d="M47.9999 6.89694H0V25.1041H47.9999V6.89694Z" fill="#41479B"/>
<path d="M24.0001 22.6207C27.6565 22.6207 30.6207 19.6565 30.6207 16.0001C30.6207 12.3436 27.6565 9.37946 24.0001 9.37946C20.3436 9.37946 17.3795 12.3436 17.3795 16.0001C17.3795 19.6565 20.3436 22.6207 24.0001 22.6207Z" fill="white"/>
</g>
<defs>
<clipPath id="clip0_11_2603">
<rect width="48" height="32" fill="white"/>
</clipPath>
</defs>
</svg>
