<svg width="48" height="32" viewBox="0 0 48 32" fill="none" xmlns="http://www.w3.org/2000/svg">
<g clip-path="url(#clip0_11_962)">
<path d="M47.9999 6.8968H0V1.10362C0 0.646594 0.370593 0.276001 0.827623 0.276001H47.1724C47.6294 0.276001 48 0.646594 48 1.10362L47.9999 6.8968Z" fill="#FF4B55"/>
<path d="M47.1723 31.7242H0.827623C0.370593 31.7242 0 31.3536 0 30.8965V25.1035H47.9999V30.8965C47.9999 31.3537 47.6293 31.7242 47.1723 31.7242Z" fill="#FF4B55"/>
<path d="M47.9999 6.89703H0V25.1042H47.9999V6.89703Z" fill="white"/>
<path d="M25.7683 21.5667L33.4165 20.037C33.9685 19.9267 34.2149 19.277 33.875 18.8282C33.7556 18.6706 33.5798 18.5655 33.3844 18.5351L25.2365 17.2647C25.0113 17.2295 24.8517 17.018 24.8896 16.7843C24.9263 16.558 25.1557 16.4137 25.3829 16.4437L31.0322 17.187C31.4914 17.2474 31.773 16.6988 31.4562 16.3609L31.0027 15.8772C30.8329 15.696 30.6103 15.5731 30.3666 15.526L25.6473 14.612L29.6711 14.9019C29.9796 14.9241 30.1583 14.5595 29.9517 14.3293L29.7454 14.0993C29.6206 13.9604 29.4549 13.8647 29.2721 13.8266L25.2772 12.9917L28.1163 12.9096C28.3674 12.9024 28.495 12.6046 28.3272 12.4178L28.1999 12.276C28.1002 12.1649 27.9712 12.0841 27.8277 12.0429L25.2956 11.3159H27.2855C27.4824 11.3159 27.6147 11.1141 27.5365 10.9336L27.4693 10.7787C27.3888 10.5929 27.2335 10.4497 27.0419 10.3846L25.2017 9.75849L26.1068 9.75558C26.3757 9.75474 26.5561 9.47893 26.4491 9.23227C26.363 9.03343 26.2109 8.8704 26.0186 8.77065L24 7.72412L21.9812 8.77084C21.7889 8.87059 21.6368 9.03362 21.5506 9.23246C21.4437 9.4793 21.624 9.75502 21.893 9.75577L22.7981 9.75877L20.9578 10.3848C20.7661 10.45 20.6109 10.5931 20.5304 10.779L20.4633 10.9338C20.385 11.1145 20.5174 11.3161 20.7143 11.3161H22.7042L20.172 12.0432C20.0286 12.0843 19.8996 12.1651 19.7998 12.2762L19.6725 12.4181C19.5048 12.605 19.6325 12.9027 19.8835 12.9099L22.7226 12.992L18.7276 13.8269C18.5448 13.865 18.379 13.9606 18.2544 14.0996L18.048 14.3295C17.8414 14.5597 18.0201 14.9244 18.3286 14.9022L22.3525 14.6123L17.6332 15.5263C17.3894 15.5734 17.1669 15.6963 16.9971 15.8774L16.5435 16.3612C16.2268 16.6991 16.5085 17.2478 16.9676 17.1873L22.6168 16.444C22.8441 16.4141 23.0736 16.5583 23.1102 16.7846C23.148 17.0185 22.9885 17.2299 22.7633 17.2649L14.6154 18.5353C14.4201 18.5657 14.2442 18.6709 14.1248 18.8284C13.7849 19.2771 14.0312 19.9268 14.5832 20.0372L22.2314 21.5669V22.5215C22.2314 23.0426 22.0244 23.5423 21.656 23.9108L20.4634 25.1036H24H27.5367L26.3439 23.9107C25.9754 23.5422 25.7684 23.0425 25.7684 22.5214V21.5667H25.7683Z" fill="#73AF00"/>
</g>
<defs>
<clipPath id="clip0_11_962">
<rect width="48" height="32" fill="white"/>
</clipPath>
</defs>
</svg>
