<svg width="48" height="32" viewBox="0 0 48 32" fill="none" xmlns="http://www.w3.org/2000/svg">
<g clip-path="url(#clip0_11_3722)">
<path d="M47.1723 31.7242H0.827623C0.370593 31.7242 0 31.3536 0 30.8965V1.10359C0 0.646563 0.370593 0.27597 0.827623 0.27597H47.1724C47.6294 0.27597 48 0.646563 48 1.10359V30.8965C47.9999 31.3537 47.6293 31.7242 47.1723 31.7242Z" fill="#3CC8FF"/>
<path d="M23.9998 2.75883L12.4137 29.2415H35.586L23.9998 2.75883Z" fill="#464655"/>
<path d="M23.9998 6.88833L33.0552 27.5863H14.9444L23.9998 6.88833ZM23.9998 2.75883L12.4137 29.2415H35.5861L23.9998 2.75883Z" fill="white"/>
<path d="M12.4137 29.2413L23.9998 16L35.586 29.2413H12.4137Z" fill="#FFE15A"/>
</g>
<defs>
<clipPath id="clip0_11_3722">
<rect width="48" height="32" fill="white"/>
</clipPath>
</defs>
</svg>
