<svg width="48" height="32" viewBox="0 0 48 32" fill="none" xmlns="http://www.w3.org/2000/svg">
<g clip-path="url(#clip0_11_3001)">
<path d="M47.9999 16H0V1.10348C0 0.646449 0.370593 0.275856 0.827623 0.275856H47.1724C47.6294 0.275856 48 0.646449 48 1.10348L47.9999 16Z" fill="#41479B"/>
<path d="M0 16H47.9999V30.8965C47.9999 31.3535 47.6293 31.7241 47.1723 31.7241H0.827623C0.370593 31.7241 0 31.3535 0 30.8965V16Z" fill="#FF4B55"/>
<path d="M15.3778 9.68945C15.367 9.65767 15.3427 9.6318 15.3114 9.61924C15.3082 9.61802 15.2433 9.59327 15.139 9.56392C15.1849 9.50186 15.2172 9.42911 15.2172 9.34624C15.2172 9.27517 15.192 9.21245 15.1574 9.15583C15.272 9.0918 15.3527 8.97395 15.3527 8.8338C15.3527 8.7227 15.3017 8.62558 15.2244 8.55705C15.317 8.48899 15.3812 8.38446 15.3812 8.26108C15.3812 8.12336 15.3028 8.00777 15.1915 7.94289C15.2499 7.87689 15.2884 7.79252 15.2884 7.69764C15.2884 7.53255 15.179 7.39652 15.0301 7.34721C15.064 7.29096 15.0889 7.22861 15.0889 7.15821C15.0889 6.95533 14.9258 6.79136 14.724 6.78621C14.7323 6.75508 14.7432 6.7248 14.7432 6.69105C14.7432 6.4849 14.5755 6.31718 14.3692 6.31718C14.3345 6.31718 14.3031 6.32815 14.2712 6.33705C14.2717 6.3288 14.276 6.32177 14.276 6.31324C14.276 6.10708 14.1082 5.93937 13.9021 5.93937C13.8312 5.93937 13.7688 5.9644 13.7121 5.99871C13.6685 5.84065 13.5296 5.72177 13.358 5.72177C13.2549 5.72177 13.1615 5.76368 13.0939 5.83137C13.0306 5.71455 12.911 5.63215 12.7691 5.63215C12.6396 5.63215 12.5309 5.70237 12.4638 5.80259C12.3955 5.73002 12.3004 5.68343 12.1931 5.68343C12.0547 5.68343 11.9385 5.76246 11.8739 5.8744C11.8055 5.79771 11.7086 5.74727 11.5979 5.74727C11.461 5.74727 11.3463 5.82471 11.2811 5.93458C11.2175 5.88452 11.1409 5.84984 11.0539 5.84984C10.8967 5.84984 10.7631 5.9479 10.7079 6.08562C10.6406 6.02055 10.5498 5.97949 10.4489 5.97949C10.3063 5.97949 10.1862 6.06255 10.1232 6.18021C10.0956 6.16315 10.0675 6.14965 10.0359 6.14018C10.1148 6.02374 10.1608 5.8833 10.1608 5.73237C10.1608 5.4394 9.98624 5.18796 9.73659 5.07181L9.8414 4.86209C9.85762 4.82974 9.85762 4.79131 9.8414 4.75887L9.71521 4.50649C9.7244 4.49815 9.73312 4.48943 9.74146 4.48024L9.99412 4.60643C10.0103 4.61449 10.0279 4.61843 10.0455 4.61843C10.0631 4.61843 10.0807 4.61421 10.0969 4.60615L10.7113 4.29893C10.7505 4.27934 10.7751 4.23959 10.7751 4.19599C10.7751 4.1524 10.7504 4.11265 10.7113 4.09306L10.0969 3.78584C10.0645 3.76962 10.0263 3.76962 9.99393 3.78584L9.74156 3.91203C9.73312 3.90275 9.72431 3.89393 9.71512 3.8854L9.84131 3.63303C9.85752 3.60068 9.85752 3.56225 9.84131 3.52981L9.53409 2.91537C9.49509 2.83737 9.36693 2.83737 9.32793 2.91537L9.02071 3.52981C9.00449 3.56215 9.00449 3.60068 9.02071 3.63303L9.1469 3.8854C9.13771 3.89375 9.12899 3.90246 9.12065 3.91165L8.86799 3.78546C8.83565 3.76925 8.7974 3.76953 8.76506 3.78575L8.15062 4.09296C8.11143 4.11256 8.08687 4.15231 8.08687 4.1959C8.08687 4.2395 8.11153 4.27924 8.15062 4.29884L8.76506 4.60606C8.78128 4.61412 8.79881 4.61834 8.81643 4.61834C8.83415 4.61834 8.85168 4.61412 8.86781 4.60606L9.12018 4.47987C9.12862 4.48915 9.13743 4.49796 9.14662 4.50649L9.02043 4.75887C9.00421 4.79121 9.00421 4.82974 9.02043 4.86209L9.12524 5.07181C8.87559 5.18787 8.70103 5.4394 8.70103 5.73237C8.70103 5.88021 8.74593 6.01746 8.82178 6.13249C8.77612 6.14121 8.73478 6.15649 8.69653 6.1803C8.63353 6.06265 8.51343 5.97959 8.37084 5.97959C8.27006 5.97959 8.17912 6.02055 8.11181 6.08571C8.05668 5.94799 7.92309 5.84993 7.76587 5.84993C7.67878 5.84993 7.60209 5.88462 7.53862 5.93468C7.47347 5.8248 7.35862 5.74737 7.22184 5.74737C7.11112 5.74737 7.01428 5.7978 6.94584 5.87449C6.88116 5.76246 6.765 5.68352 6.62662 5.68352C6.51947 5.68352 6.42422 5.73021 6.35597 5.80268C6.28884 5.70246 6.18009 5.63224 6.05063 5.63224C5.90869 5.63224 5.78925 5.71465 5.72588 5.83146C5.65819 5.76377 5.56481 5.72187 5.46178 5.72187C5.29003 5.72187 5.1511 5.84074 5.1076 5.9988C5.05116 5.96449 4.98853 5.93946 4.91766 5.93946C4.7115 5.93946 4.54378 6.10718 4.54378 6.31333C4.54378 6.32168 4.548 6.3289 4.54857 6.33715C4.5166 6.32824 4.48529 6.31727 4.4505 6.31727C4.24425 6.31727 4.07654 6.48499 4.07654 6.69115C4.07654 6.7249 4.08741 6.75518 4.09575 6.7863C3.89391 6.79146 3.73088 6.95543 3.73088 7.1583C3.73088 7.22871 3.75572 7.29105 3.78966 7.3473C3.64079 7.39661 3.53138 7.53255 3.53138 7.69774C3.53138 7.79261 3.56972 7.87699 3.62822 7.94299C3.51704 8.00786 3.43857 8.12336 3.43857 8.26117C3.43857 8.38474 3.50269 8.48908 3.59532 8.55714C3.51807 8.62577 3.46707 8.7228 3.46707 8.83389C3.46707 8.97405 3.54788 9.09189 3.66235 9.15592C3.62776 9.21264 3.60254 9.27527 3.60254 9.34633C3.60254 9.43361 3.63732 9.51049 3.68757 9.57414C3.60432 9.5988 3.55322 9.6182 3.55041 9.61933C3.5191 9.63198 3.49472 9.65767 3.48404 9.68955C3.47326 9.72161 3.4771 9.75677 3.49435 9.78583C3.50344 9.80083 4.40935 11.322 4.70925 12.8213C4.71666 12.8584 4.74357 12.8823 4.77525 12.8973C5.0056 13.2084 7.00144 13.4516 9.43087 13.4516C11.8603 13.4516 13.856 13.2084 14.0865 12.8973C14.1182 12.8822 14.1452 12.8584 14.1525 12.8213C14.4521 11.3231 15.3582 9.80083 15.3674 9.78583C15.3847 9.75677 15.3886 9.72161 15.3778 9.68945Z" fill="#FFE15A"/>
<path d="M15.3778 9.68945C15.367 9.65767 15.3427 9.6318 15.3114 9.61924C15.3082 9.61802 15.2433 9.59327 15.139 9.56392C15.1849 9.50186 15.2172 9.42911 15.2172 9.34624C15.2172 9.27517 15.192 9.21245 15.1574 9.15583C15.272 9.0918 15.3527 8.97395 15.3527 8.8338C15.3527 8.7227 15.3017 8.62558 15.2244 8.55705C15.317 8.48899 15.3812 8.38446 15.3812 8.26108C15.3812 8.12336 15.3028 8.00777 15.1915 7.94289C15.2499 7.87689 15.2884 7.79252 15.2884 7.69764C15.2884 7.53255 15.179 7.39652 15.0301 7.34721C15.064 7.29096 15.0889 7.22861 15.0889 7.15821C15.0889 6.95533 14.9258 6.79136 14.724 6.78621C14.7323 6.75508 14.7432 6.7248 14.7432 6.69105C14.7432 6.4849 14.5755 6.31718 14.3692 6.31718C14.3345 6.31718 14.3031 6.32815 14.2712 6.33705C14.2717 6.3288 14.276 6.32177 14.276 6.31324C14.276 6.10708 14.1082 5.93937 13.9021 5.93937C13.8312 5.93937 13.7688 5.9644 13.7121 5.99871C13.6685 5.84065 13.5296 5.72177 13.358 5.72177C13.2549 5.72177 13.1615 5.76368 13.0939 5.83137C13.0306 5.71455 12.911 5.63215 12.7691 5.63215C12.6396 5.63215 12.5309 5.70237 12.4638 5.80259C12.3955 5.73002 12.3004 5.68343 12.1931 5.68343C12.0547 5.68343 11.9385 5.76246 11.8739 5.8744C11.8055 5.79771 11.7086 5.74727 11.5979 5.74727C11.461 5.74727 11.3463 5.82471 11.2811 5.93458C11.2175 5.88452 11.1409 5.84984 11.0539 5.84984C10.8967 5.84984 10.7631 5.9479 10.7079 6.08562C10.6406 6.02055 10.5498 5.97949 10.4489 5.97949C10.3063 5.97949 10.1862 6.06255 10.1232 6.18021C10.0956 6.16315 10.0675 6.14965 10.0359 6.14018C10.1148 6.02374 10.1608 5.8833 10.1608 5.73237C10.1608 5.4394 9.98624 5.18796 9.73659 5.07181L9.8414 4.86209C9.85762 4.82974 9.85762 4.79131 9.8414 4.75887L9.71521 4.50649C9.7244 4.49815 9.73312 4.48943 9.74146 4.48024L9.99412 4.60643C10.0103 4.61449 10.0279 4.61843 10.0455 4.61843C10.0631 4.61843 10.0807 4.61421 10.0969 4.60615L10.7113 4.29893C10.7505 4.27934 10.7751 4.23959 10.7751 4.19599C10.7751 4.1524 10.7504 4.11265 10.7113 4.09306L10.0969 3.78584C10.0645 3.76962 10.0263 3.76962 9.99393 3.78584L9.74156 3.91203C9.73312 3.90275 9.72431 3.89393 9.71512 3.8854L9.84131 3.63303C9.85752 3.60068 9.85752 3.56225 9.84131 3.52981L9.53409 2.91537C9.49509 2.83737 9.36693 2.83737 9.32793 2.91537L9.02071 3.52981C9.00449 3.56215 9.00449 3.60068 9.02071 3.63303L9.1469 3.8854C9.13771 3.89375 9.12899 3.90246 9.12065 3.91165L8.86799 3.78546C8.83565 3.76925 8.7974 3.76953 8.76506 3.78575L8.15062 4.09296C8.11143 4.11256 8.08687 4.15231 8.08687 4.1959C8.08687 4.2395 8.11153 4.27924 8.15062 4.29884L8.76506 4.60606C8.78128 4.61412 8.79881 4.61834 8.81643 4.61834C8.83415 4.61834 8.85168 4.61412 8.86781 4.60606L9.12018 4.47987C9.12862 4.48915 9.13743 4.49796 9.14662 4.50649L9.02043 4.75887C9.00421 4.79121 9.00421 4.82974 9.02043 4.86209L9.12524 5.07181C8.87559 5.18787 8.70103 5.4394 8.70103 5.73237C8.70103 5.88021 8.74593 6.01746 8.82178 6.13249C8.77612 6.14121 8.73478 6.15649 8.69653 6.1803C8.63353 6.06265 8.51343 5.97959 8.37084 5.97959C8.27006 5.97959 8.17912 6.02055 8.11181 6.08571C8.05668 5.94799 7.92309 5.84993 7.76587 5.84993C7.67878 5.84993 7.60209 5.88462 7.53862 5.93468C7.47347 5.8248 7.35862 5.74737 7.22184 5.74737C7.11112 5.74737 7.01428 5.7978 6.94584 5.87449C6.88116 5.76246 6.765 5.68352 6.62662 5.68352C6.51947 5.68352 6.42422 5.73021 6.35597 5.80268C6.28884 5.70246 6.18009 5.63224 6.05063 5.63224C5.90869 5.63224 5.78925 5.71465 5.72588 5.83146C5.65819 5.76377 5.56481 5.72187 5.46178 5.72187C5.29003 5.72187 5.1511 5.84074 5.1076 5.9988C5.05116 5.96449 4.98853 5.93946 4.91766 5.93946C4.7115 5.93946 4.54378 6.10718 4.54378 6.31333C4.54378 6.32168 4.548 6.3289 4.54857 6.33715C4.5166 6.32824 4.48529 6.31727 4.4505 6.31727C4.24425 6.31727 4.07654 6.48499 4.07654 6.69115C4.07654 6.7249 4.08741 6.75518 4.09575 6.7863C3.89391 6.79146 3.73088 6.95543 3.73088 7.1583C3.73088 7.22871 3.75572 7.29105 3.78966 7.3473C3.64079 7.39661 3.53138 7.53255 3.53138 7.69774C3.53138 7.79261 3.56972 7.87699 3.62822 7.94299C3.51704 8.00786 3.43857 8.12336 3.43857 8.26117C3.43857 8.38474 3.50269 8.48908 3.59532 8.55714C3.51807 8.62577 3.46707 8.7228 3.46707 8.83389C3.46707 8.97405 3.54788 9.09189 3.66235 9.15592C3.62776 9.21264 3.60254 9.27527 3.60254 9.34633C3.60254 9.43361 3.63732 9.51049 3.68757 9.57414C3.60432 9.5988 3.55322 9.6182 3.55041 9.61933C3.5191 9.63198 3.49472 9.65767 3.48404 9.68955C3.47326 9.72161 3.4771 9.75677 3.49435 9.78583C3.50344 9.80083 4.40935 11.322 4.70925 12.8213C4.71666 12.8584 4.74357 12.8823 4.77525 12.8973C5.0056 13.2084 7.00144 13.4516 9.43087 13.4516C11.8603 13.4516 13.856 13.2084 14.0865 12.8973C14.1182 12.8822 14.1452 12.8584 14.1525 12.8213C14.4521 11.3231 15.3582 9.80083 15.3674 9.78583C15.3847 9.75677 15.3886 9.72161 15.3778 9.68945ZM12.1207 8.94733V7.14424C12.2669 7.13158 12.409 7.12755 12.5457 7.13233V9.00546C12.4186 8.94405 12.2751 8.92614 12.1207 8.94733ZM10.7946 6.49146C10.7977 6.49455 10.8022 6.49587 10.8055 6.49887C10.8006 6.4999 10.7958 6.50093 10.7908 6.50205C10.7924 6.49849 10.7932 6.49493 10.7946 6.49146ZM14.8432 9.2028C14.9223 9.2028 14.9866 9.26702 14.9866 9.34614C14.9866 9.42536 14.9223 9.48948 14.8432 9.48948C14.7642 9.48948 14.6999 9.42527 14.6999 9.34614C14.6999 9.26702 14.7642 9.2028 14.8432 9.2028ZM14.9785 8.97714C14.8995 8.97714 14.8352 8.91292 14.8352 8.8338C14.8352 8.75458 14.8995 8.69046 14.9785 8.69046C15.0577 8.69046 15.1221 8.75467 15.1221 8.8338C15.1221 8.91302 15.0578 8.97714 14.9785 8.97714ZM14.8639 8.26099C14.8639 8.18177 14.9282 8.11764 15.0072 8.11764C15.0862 8.11764 15.1505 8.18186 15.1505 8.26099C15.1505 8.34021 15.0862 8.40433 15.0072 8.40433C14.9282 8.40433 14.8639 8.34021 14.8639 8.26099ZM10.5794 9.68945C10.4418 9.16624 10.2632 8.37864 10.1878 7.59133C10.267 7.56358 10.4031 7.51811 10.5794 7.46477V9.68945ZM8.65884 7.60071C8.57775 8.43855 8.37984 9.2778 8.24043 9.79445V7.46458C8.43806 7.52439 8.58628 7.57493 8.65884 7.60071ZM9.5744 6.65402C9.5744 6.73324 9.51009 6.79736 9.43106 6.79736C9.35203 6.79736 9.28771 6.73315 9.28771 6.65402C9.28771 6.5748 9.35203 6.51068 9.43106 6.51068C9.51009 6.51049 9.5744 6.5748 9.5744 6.65402ZM8.02537 6.49221L8.02443 6.49202C8.02443 6.49202 8.025 6.49174 8.02518 6.49146C8.02528 6.49174 8.02528 6.49202 8.02537 6.49221ZM3.81254 8.11764C3.89157 8.11764 3.95588 8.18186 3.95588 8.26099C3.95588 8.34021 3.89157 8.40433 3.81254 8.40433C3.73351 8.40433 3.66919 8.34011 3.66919 8.26099C3.6691 8.18177 3.73351 8.11764 3.81254 8.11764ZM3.98457 8.8338C3.98457 8.91302 3.92025 8.97714 3.84122 8.97714C3.76201 8.97714 3.6976 8.91292 3.6976 8.8338C3.6976 8.75458 3.76191 8.69046 3.84122 8.69046C3.92025 8.69036 3.98457 8.75449 3.98457 8.8338ZM3.9765 9.2028C4.05554 9.2028 4.11985 9.26702 4.11985 9.34614C4.11985 9.42536 4.05554 9.48948 3.9765 9.48948C3.89747 9.48948 3.83316 9.42527 3.83316 9.34614C3.83307 9.26702 3.89747 9.2028 3.9765 9.2028ZM4.56816 7.26161C4.79372 6.89674 5.23397 6.46193 6.05128 6.46193C6.84928 6.46193 7.97522 6.70577 8.69634 6.88502C8.69662 7.0414 8.6895 7.20171 8.67843 7.36296C8.18643 7.19168 6.22959 6.56533 5.39728 7.13496C4.45538 7.78089 4.75303 9.01305 4.929 9.52333C4.77919 9.48273 4.62769 9.46436 4.48266 9.46145C4.14244 8.77886 4.17657 7.89527 4.56816 7.26161ZM5.21719 9.63508C5.13619 9.44673 4.61822 8.14399 5.38819 7.43946V9.73802C5.33288 9.69845 5.2755 9.66498 5.21719 9.63508ZM5.61863 7.27718C5.74031 7.21408 5.88375 7.17321 6.04359 7.15146V9.20177C5.8125 9.43605 5.70975 9.75845 5.66447 10.0009C5.64984 9.98252 5.63372 9.9677 5.61853 9.95055V7.27718H5.61863ZM6.27412 7.13215C6.41081 7.12736 6.55294 7.1314 6.69909 7.14405V8.94527C6.67397 8.94302 6.64772 8.93655 6.62316 8.93655C6.50991 8.93655 6.40359 8.96027 6.30703 9.00883C6.29513 9.01474 6.28547 9.0228 6.27403 9.02908V7.13205H6.27412V7.13215ZM6.92953 7.1688C7.07231 7.18774 7.21481 7.21258 7.3545 7.24052V9.21274C7.20825 9.11186 7.06594 9.03892 6.92953 8.99439V7.1688ZM7.58503 7.29002C7.73606 7.3248 7.87865 7.36127 8.01 7.39793V9.83655C7.88297 9.67577 7.73662 9.5237 7.58503 9.39142V7.29002ZM8.92575 6.94324C9.09899 6.98824 9.23568 7.02565 9.31584 7.04824V9.00236C9.00356 9.03395 8.76496 9.19342 8.5829 9.38945C8.74509 8.71389 8.91974 7.79196 8.92575 6.94324ZM9.54618 7.04824C9.62427 7.0263 9.75534 6.9903 9.92202 6.94699C9.9284 7.78708 10.0997 8.69795 10.2604 9.37098C10.0806 9.18386 9.84824 9.03302 9.54628 9.00255V7.04833H9.54618V7.04824ZM10.8098 7.39811C10.9413 7.36155 11.0838 7.32499 11.2348 7.29021V9.40952C11.2348 9.41486 11.2371 9.41955 11.2379 9.4248C11.0827 9.56495 10.9358 9.72573 10.8098 9.89252V7.39811ZM11.4652 7.24071C11.605 7.21277 11.7474 7.18793 11.8902 7.16899V9.00517C11.7535 9.05533 11.6109 9.13492 11.4652 9.2402V7.24071ZM12.7761 7.15165C12.9361 7.1734 13.0794 7.21408 13.2011 7.27727V9.97614C13.2011 9.98214 13.2035 9.98739 13.2045 9.99311C13.2022 9.99601 13.1996 9.99817 13.1974 10.001C13.1495 9.74486 13.0357 9.40117 12.7761 9.16483V7.15165ZM13.4315 7.43964C14.2565 8.19489 13.5994 9.64323 13.5922 9.65861C13.5915 9.6602 13.5917 9.6618 13.5911 9.66339C13.5364 9.69452 13.4834 9.73108 13.4315 9.7713V7.43964ZM13.4224 7.13496C12.6066 6.57621 10.7061 7.16871 10.1684 7.35358C10.1578 7.19674 10.151 7.04093 10.1512 6.88868C10.8716 6.70896 12.0073 6.46193 12.8105 6.46193C13.6279 6.46193 14.0682 6.89674 14.2937 7.26161C14.6853 7.89536 14.7195 8.77886 14.3793 9.46155C14.219 9.46473 14.051 9.48733 13.886 9.53748C14.0612 9.03583 14.3728 7.78671 13.4224 7.13496ZM14.9144 7.84099C14.8354 7.84099 14.771 7.77677 14.771 7.69764C14.771 7.61843 14.8354 7.5543 14.9144 7.5543C14.9936 7.5543 15.058 7.61852 15.058 7.69764C15.058 7.77677 14.9935 7.84099 14.9144 7.84099ZM14.8584 7.15802C14.8584 7.23724 14.7941 7.30174 14.7148 7.30174C14.6358 7.30174 14.5715 7.23715 14.5715 7.15802C14.5715 7.0788 14.6358 7.01468 14.7148 7.01468C14.7941 7.01468 14.8584 7.0788 14.8584 7.15802ZM14.5129 6.69086C14.5129 6.77008 14.4485 6.83421 14.3692 6.83421C14.2902 6.83421 14.2259 6.76999 14.2259 6.69086C14.2259 6.61165 14.2902 6.54752 14.3692 6.54752C14.4484 6.54743 14.5129 6.61174 14.5129 6.69086ZM13.9021 6.16971C13.9811 6.16971 14.0454 6.23393 14.0454 6.31305C14.0454 6.39227 13.9811 6.45677 13.9021 6.45677C13.8229 6.45677 13.7585 6.39218 13.7585 6.31305C13.7585 6.23393 13.8229 6.16971 13.9021 6.16971ZM13.358 5.95212C13.437 5.95212 13.5013 6.01634 13.5013 6.09546C13.5013 6.17468 13.437 6.2388 13.358 6.2388C13.2789 6.2388 13.2146 6.17458 13.2146 6.09546C13.2145 6.01634 13.2789 5.95212 13.358 5.95212ZM12.7691 5.8624C12.8481 5.8624 12.9125 5.92662 12.9125 6.00574C12.9125 6.08496 12.8481 6.14946 12.7691 6.14946C12.6899 6.14946 12.6255 6.08487 12.6255 6.00574C12.6255 5.92671 12.6899 5.8624 12.7691 5.8624ZM12.193 5.91377C12.2721 5.91377 12.3364 5.97799 12.3364 6.05712C12.3364 6.13624 12.2721 6.20046 12.193 6.20046C12.1138 6.20046 12.0494 6.13624 12.0494 6.05712C12.0494 5.97799 12.1138 5.91377 12.193 5.91377ZM11.5978 5.97771C11.6768 5.97771 11.7411 6.04193 11.7411 6.12105C11.7411 6.20027 11.6768 6.26477 11.5978 6.26477C11.5186 6.26477 11.4542 6.20018 11.4542 6.12105C11.4542 6.04193 11.5185 5.97771 11.5978 5.97771ZM11.0536 6.08027C11.1326 6.08027 11.1969 6.14449 11.1969 6.22362C11.1969 6.30274 11.1326 6.36696 11.0536 6.36696C10.9746 6.36696 10.9102 6.30274 10.9102 6.22362C10.9102 6.14449 10.9746 6.08027 11.0536 6.08027ZM10.4488 6.20993C10.5278 6.20993 10.5921 6.27415 10.5921 6.35327C10.5921 6.4324 10.5278 6.49662 10.4488 6.49662C10.3698 6.49662 10.3055 6.4324 10.3055 6.35327C10.3055 6.27415 10.3696 6.20993 10.4488 6.20993ZM9.93027 6.63593C9.85124 6.63593 9.78693 6.57171 9.78693 6.49258C9.78693 6.41337 9.85124 6.34924 9.93027 6.34924C10.0093 6.34924 10.0736 6.41346 10.0736 6.49258C10.0736 6.5718 10.0093 6.63593 9.93027 6.63593ZM9.23896 4.19599C9.23896 4.09006 9.32503 4.004 9.43096 4.004C9.5369 4.004 9.62296 4.09006 9.62296 4.19599C9.62296 4.30193 9.5369 4.38799 9.43096 4.38799C9.32512 4.38809 9.23896 4.30193 9.23896 4.19599ZM10.0454 4.0175L10.4023 4.19609L10.0454 4.37468L9.84543 4.27465C9.85031 4.24906 9.8534 4.223 9.8534 4.19609C9.8534 4.16918 9.85031 4.14303 9.84543 4.11743L10.0454 4.0175ZM9.25256 3.58147L9.43087 3.22465L9.60918 3.58147L9.50915 3.78143C9.48374 3.77656 9.45759 3.77346 9.43078 3.77346C9.40387 3.77346 9.37781 3.77656 9.3524 3.78143L9.25256 3.58147ZM8.81643 4.3745L8.45953 4.1959L8.81643 4.01731L9.0164 4.11734C9.01153 4.14293 9.00843 4.169 9.00843 4.1959C9.00843 4.22281 9.01153 4.24896 9.0164 4.27456L8.81643 4.3745ZM9.25256 4.81043L9.35259 4.61046C9.37799 4.61534 9.40415 4.61843 9.43096 4.61843C9.45778 4.61843 9.48393 4.61534 9.50934 4.61046L9.60937 4.81043L9.50943 5.0104C9.48337 5.00759 9.45787 5.00243 9.43106 5.00243C9.40415 5.00243 9.37874 5.00749 9.35268 5.0104L9.25256 4.81043ZM9.43096 5.23296C9.70621 5.23296 9.93018 5.45684 9.93018 5.73218C9.93018 6.00762 9.70621 6.2314 9.43096 6.2314C9.15571 6.2314 8.93174 6.00752 8.93174 5.73218C8.93174 5.45684 9.15562 5.23296 9.43096 5.23296ZM8.88956 6.34915C8.96859 6.34915 9.0329 6.41337 9.0329 6.49249C9.0329 6.57171 8.96859 6.63583 8.88956 6.63583C8.81053 6.63583 8.74621 6.57162 8.74621 6.49249C8.74612 6.41327 8.81043 6.34915 8.88956 6.34915ZM8.37112 6.20993C8.45015 6.20993 8.51446 6.27415 8.51446 6.35327C8.51446 6.4324 8.45015 6.49662 8.37112 6.49662C8.29209 6.49662 8.22778 6.4324 8.22778 6.35327C8.22778 6.27415 8.292 6.20993 8.37112 6.20993ZM7.76615 6.08027C7.84518 6.08027 7.9095 6.14449 7.9095 6.22362C7.9095 6.30274 7.84518 6.36696 7.76615 6.36696C7.68712 6.36696 7.62281 6.30274 7.62281 6.22362C7.62281 6.14449 7.68712 6.08027 7.76615 6.08027ZM7.22212 5.97771C7.30134 5.97771 7.36575 6.04193 7.36575 6.12105C7.36575 6.20027 7.30144 6.26477 7.22212 6.26477C7.14309 6.26477 7.07878 6.20018 7.07878 6.12105C7.07859 6.04193 7.143 5.97771 7.22212 5.97771ZM6.62681 5.91377C6.70603 5.91377 6.77044 5.97799 6.77044 6.05712C6.77044 6.13624 6.70612 6.20046 6.62681 6.20046C6.54778 6.20046 6.48347 6.13624 6.48347 6.05712C6.48347 5.97799 6.54778 5.91377 6.62681 5.91377ZM6.05063 5.8624C6.12984 5.8624 6.19425 5.92662 6.19425 6.00574C6.19425 6.08496 6.12994 6.14946 6.05063 6.14946C5.97159 6.14946 5.90728 6.08487 5.90728 6.00574C5.90728 5.92671 5.97159 5.8624 6.05063 5.8624ZM5.46188 5.95212C5.54091 5.95212 5.60522 6.01634 5.60522 6.09546C5.60522 6.17468 5.54091 6.2388 5.46188 6.2388C5.38285 6.2388 5.31853 6.17458 5.31853 6.09546C5.31844 6.01634 5.38285 5.95212 5.46188 5.95212ZM4.91775 6.16971C4.99697 6.16971 5.06138 6.23393 5.06138 6.31305C5.06138 6.39227 4.99707 6.45677 4.91775 6.45677C4.83872 6.45677 4.77441 6.39218 4.77441 6.31305C4.77432 6.23393 4.83863 6.16971 4.91775 6.16971ZM4.4506 6.54743C4.52963 6.54743 4.59394 6.61165 4.59394 6.69077C4.59394 6.76999 4.52963 6.83411 4.4506 6.83411C4.37138 6.83411 4.30697 6.7699 4.30697 6.69077C4.30707 6.61174 4.37138 6.54743 4.4506 6.54743ZM4.10494 7.01468C4.18397 7.01468 4.24829 7.0789 4.24829 7.15802C4.24829 7.23724 4.18397 7.30174 4.10494 7.30174C4.02572 7.30174 3.96132 7.23715 3.96132 7.15802C3.96132 7.0788 4.02582 7.01468 4.10494 7.01468ZM3.90535 7.55411C3.98438 7.55411 4.04869 7.61833 4.04869 7.69746C4.04869 7.77668 3.98438 7.8408 3.90535 7.8408C3.82613 7.8408 3.76172 7.77658 3.76172 7.69746C3.76191 7.61824 3.82622 7.55411 3.90535 7.55411ZM13.948 12.6793C13.4167 12.4165 11.5986 12.2227 9.43106 12.2227C7.26347 12.2227 5.44528 12.4165 4.914 12.6793C4.63922 11.4072 3.98222 10.1765 3.76322 9.78967C4.1281 9.67773 5.17266 9.45574 5.64103 10.3925C5.66503 10.4402 5.71894 10.4654 5.77059 10.4531C5.82263 10.4409 5.85947 10.3944 5.85947 10.3409C5.85947 10.3326 5.86575 9.48724 6.41025 9.21489C6.9494 8.94667 7.82165 9.83711 8.09915 10.3926C8.09915 10.3926 8.09943 10.3928 8.09943 10.393C8.10853 10.411 8.12371 10.425 8.14125 10.4363C8.1449 10.4385 8.14828 10.4406 8.15222 10.4424C8.15718 10.4448 8.16112 10.4486 8.16656 10.4504C8.17847 10.4544 8.19046 10.4561 8.20218 10.4561C8.20434 10.4561 8.20612 10.4543 8.20828 10.4542C8.21053 10.4542 8.21231 10.4556 8.21465 10.4555C8.22553 10.4543 8.2335 10.4469 8.24325 10.4428C8.25356 10.4387 8.26396 10.4367 8.27268 10.4299C8.28337 10.4215 8.289 10.4095 8.29631 10.3977C8.30109 10.39 8.30906 10.3854 8.31206 10.3764C8.31543 10.3658 8.32978 10.321 8.35096 10.2513C8.45165 9.9602 8.77068 9.22727 9.43134 9.22727C9.99205 9.22727 10.3066 9.75536 10.4507 10.0932C10.4976 10.2555 10.5307 10.3595 10.5363 10.3764C10.5522 10.4253 10.5973 10.4561 10.646 10.4561C10.6577 10.4561 10.6697 10.4544 10.6816 10.4504C10.6836 10.4497 10.6851 10.4481 10.6872 10.4473C10.7193 10.4392 10.7482 10.4231 10.7635 10.3926C11.0412 9.83683 11.9142 8.94845 12.4524 9.21489C12.4886 9.23299 12.5221 9.25399 12.5536 9.27677C12.5848 9.30311 12.6059 9.32261 12.6415 9.3512C12.9964 9.69752 13.0032 10.3335 13.0032 10.3409C13.0033 10.3943 13.0401 10.4409 13.0921 10.4531C13.1444 10.4651 13.1977 10.4402 13.2216 10.3925C13.6891 9.4578 14.7338 9.67839 15.0994 9.79005C14.8796 10.1771 14.2228 11.4076 13.948 12.6793Z" fill="#464655"/>
<path d="M9.88555 10.1464C9.87064 10.1587 9.85611 10.1717 9.84168 10.1852C9.72993 10.2904 9.54608 10.2078 9.54608 10.0542V10.0335C9.54608 9.96984 9.49443 9.91828 9.43087 9.91828C9.3673 9.91828 9.31565 9.96994 9.31565 10.0335V10.0542C9.31565 10.2078 9.1319 10.2904 9.02006 10.1852C9.00581 10.1718 8.99109 10.1588 8.97618 10.1464C8.92724 10.1062 8.85449 10.1122 8.81399 10.1617C8.77331 10.2106 8.78006 10.2832 8.82909 10.3239C9.1439 10.5847 9.31546 11.2012 9.31546 11.4449V11.5698C9.31546 11.6334 9.36712 11.685 9.43068 11.685C9.49424 11.685 9.5459 11.6333 9.5459 11.5698V11.4449C9.5459 11.2012 9.71755 10.5847 10.0323 10.3239C10.0813 10.2832 10.088 10.2106 10.0474 10.1617C10.0071 10.1126 9.93449 10.1062 9.88555 10.1464Z" fill="#464655"/>
<path d="M12.4977 10.6305C12.4841 10.6294 12.4707 10.6291 12.4571 10.6294C12.3492 10.6368 12.2438 10.4837 12.2961 10.3648C12.2983 10.3598 12.3005 10.3548 12.3028 10.3497C12.3229 10.3038 12.3076 10.2286 12.2691 10.1797C12.2308 10.131 12.181 10.1336 12.1572 10.1876C12.1548 10.1934 12.1521 10.199 12.1495 10.2049C12.0951 10.3285 11.9385 10.2916 11.9138 10.11C11.9107 10.0866 11.9075 10.0629 11.9039 10.0393C11.8918 9.96251 11.8476 9.90926 11.8006 9.93054C11.7538 9.95097 11.7222 10.0371 11.7334 10.1151C11.8001 10.6302 11.7237 11.1734 11.6364 11.3709C11.6211 11.4058 11.6057 11.4407 11.5904 11.4756C11.5667 11.5294 11.5969 11.5711 11.6587 11.5666C11.7206 11.5619 11.7878 11.5194 11.8081 11.4736C11.8215 11.4432 11.8349 11.4127 11.8482 11.3823C11.9309 11.1938 12.2773 10.776 12.5611 10.7976C12.6067 10.7973 12.6261 10.7676 12.6079 10.723C12.5898 10.6788 12.5418 10.6342 12.4977 10.6305Z" fill="#464655"/>
<path d="M14.2071 10.9889C14.1958 10.9889 14.1847 10.9895 14.1733 10.9909C14.0828 11.006 14.006 10.8654 14.0583 10.7465C14.0604 10.7416 14.0627 10.7365 14.0649 10.7315C14.0851 10.6855 14.0778 10.6138 14.0493 10.5695C14.0209 10.5251 13.9792 10.5312 13.9554 10.5853C13.9529 10.5911 13.9503 10.5967 13.9477 10.6025C13.8933 10.7261 13.7653 10.7017 13.7579 10.5278C13.7571 10.5054 13.756 10.4827 13.7548 10.4601C13.7504 10.3867 13.7174 10.3384 13.6765 10.3625C13.6359 10.3857 13.6034 10.4714 13.6072 10.546C13.6252 11.0398 13.5219 11.5711 13.4346 11.7686C13.4193 11.8035 13.4038 11.8384 13.3885 11.8733C13.3648 11.9271 13.3871 11.9652 13.439 11.9564C13.491 11.9473 13.5502 11.9014 13.5703 11.8554C13.5837 11.825 13.5971 11.7946 13.6104 11.7641C13.6931 11.5757 14.0126 11.146 14.2478 11.1463C14.2859 11.1426 14.3042 11.1125 14.2924 11.0706C14.2806 11.0289 14.2436 10.9892 14.2071 10.9889Z" fill="#464655"/>
<path d="M7.22332 11.3711C7.13604 11.1737 7.05963 10.6304 7.12629 10.1154C7.13754 10.0375 7.10594 9.95139 7.05916 9.93077C7.0121 9.90948 6.96785 9.96274 6.95585 10.0395C6.95219 10.0631 6.94901 10.0867 6.94591 10.1102C6.92116 10.2918 6.7646 10.3285 6.71022 10.2052C6.7076 10.1994 6.70516 10.1935 6.70254 10.1878C6.67872 10.1337 6.62913 10.1312 6.5906 10.18C6.55225 10.2288 6.53679 10.3039 6.55694 10.3499C6.5591 10.355 6.56135 10.36 6.5636 10.365C6.61591 10.4839 6.51044 10.6371 6.40263 10.6297C6.38903 10.6293 6.37563 10.6297 6.36203 10.6307C6.31797 10.6345 6.26978 10.6789 6.2516 10.7233C6.23341 10.768 6.25282 10.7976 6.29847 10.798C6.58225 10.7762 6.92866 11.1941 7.01135 11.3826C7.02466 11.413 7.03816 11.4434 7.05147 11.4739C7.07163 11.5198 7.13885 11.5622 7.20082 11.5669C7.26269 11.5715 7.29288 11.5299 7.26916 11.476C7.25398 11.4409 7.23869 11.406 7.22332 11.3711Z" fill="#464655"/>
<path d="M5.42527 11.7684C5.33808 11.5709 5.23468 11.0396 5.25268 10.5458C5.25643 10.4712 5.22371 10.3856 5.1833 10.3622C5.14243 10.3381 5.10943 10.3865 5.10502 10.4599C5.10371 10.4825 5.10277 10.5051 5.10193 10.5276C5.09462 10.7015 4.96665 10.7258 4.91218 10.6023C4.90955 10.5965 4.90712 10.5907 4.90449 10.5851C4.88068 10.531 4.83905 10.5249 4.81055 10.5692C4.78215 10.6136 4.77465 10.6853 4.7949 10.7312C4.79705 10.7363 4.7993 10.7413 4.80155 10.7463C4.85387 10.8652 4.77699 11.0057 4.68652 10.9906C4.67518 10.9893 4.66393 10.9887 4.65277 10.9887C4.61621 10.9889 4.57937 11.0286 4.56737 11.0703C4.55546 11.1121 4.57393 11.1423 4.61199 11.146C4.84712 11.1457 5.16671 11.5753 5.2493 11.7638C5.26262 11.7942 5.27612 11.8246 5.28943 11.8551C5.30958 11.901 5.36883 11.947 5.42077 11.9561C5.47271 11.965 5.49493 11.9269 5.47121 11.873C5.45602 11.8382 5.44065 11.8033 5.42527 11.7684Z" fill="#464655"/>
</g>
<defs>
<clipPath id="clip0_11_3001">
<rect width="48" height="32" fill="white"/>
</clipPath>
</defs>
</svg>
