<svg width="48" height="32" viewBox="0 0 48 32" fill="none" xmlns="http://www.w3.org/2000/svg">
<g clip-path="url(#clip0_11_2819)">
<path d="M47.1723 0.27597H0.827623C0.370593 0.27597 0 0.646469 0 1.1035V30.8965C0 31.3536 0.370593 31.7242 0.827623 31.7242H47.1724C47.6294 31.7242 48 31.3536 48 30.8965V1.1035C47.9999 0.646469 47.6293 0.27597 47.1723 0.27597Z" fill="#FFD250"/>
<path d="M17.3793 3.58611V28.4137C17.3793 28.8707 17.7499 29.2413 18.207 29.2413H44.6897C45.1467 29.2413 45.5173 28.8707 45.5173 28.4137V3.58611C45.5173 3.12908 45.1467 2.75849 44.6897 2.75849H18.207C17.7499 2.75859 17.3793 3.12908 17.3793 3.58611Z" fill="#963C3C"/>
<path d="M8.68975 2.75861H3.31038C2.85335 2.75861 2.48276 3.1292 2.48276 3.58623V28.4138C2.48276 28.8708 2.85335 29.2414 3.31038 29.2414H8.68975V2.75861Z" fill="#5AA587"/>
<path d="M14.069 2.75861H8.68973V29.2413H14.069C14.526 29.2413 14.8966 28.8707 14.8966 28.4137V3.58614C14.8966 3.1291 14.526 2.75861 14.069 2.75861Z" fill="#FF7350"/>
<path d="M36.8956 22.6315C36.8678 22.4465 37.0307 22.2076 37.2823 21.8644C37.3733 21.7404 37.5048 21.5606 37.5403 21.4746C37.5168 21.4729 37.4846 21.4748 37.4606 21.476C37.3214 21.4827 37.1107 21.4923 36.9267 21.288C36.8547 21.208 36.82 21.1078 36.8268 20.9984C36.8405 20.7762 37.022 20.5576 37.1346 20.442C36.8443 20.2381 36.5669 20.0263 36.311 19.7706C35.8222 19.2817 35.2647 19.0463 34.6491 19.0592C34.5921 19.6715 34.9077 20.0741 35.2444 20.498C35.3437 20.6228 35.4426 20.7474 35.5325 20.8776C35.9755 21.5189 35.8829 22.7572 35.8267 22.8883C35.7631 23.037 35.4128 23.3666 34.9323 23.3024C34.7114 23.2734 34.457 23.3477 34.2967 23.4878C34.2278 23.5481 34.1456 23.6484 34.1456 23.7828C34.1456 23.7896 34.1462 23.8236 34.1567 23.8299C34.2213 23.8689 34.4625 23.7927 34.635 23.6995C34.6826 23.6735 34.7418 23.6812 34.782 23.7185C35.1216 24.0365 35.4626 23.7617 35.5002 23.7294C35.5468 23.6895 35.6155 23.6882 35.6629 23.7264C36.0106 24.0065 36.3729 23.7003 36.3882 23.6871C36.4308 23.6502 36.4934 23.6458 36.5408 23.6769C36.6917 23.7758 36.8296 23.804 36.9527 23.7618C37.0601 23.7245 37.1171 23.6437 37.1237 23.6242C37.1268 23.5728 37.0578 23.3078 37.0121 23.1323C36.9641 22.9481 36.9146 22.7577 36.8956 22.6315Z" fill="#FFD250"/>
<path d="M40.6599 10.906C40.5552 10.898 40.4793 10.9207 40.4275 10.9721C40.3323 11.0661 40.3401 11.2355 40.3403 11.2372C40.3423 11.2749 40.3274 11.3116 40.2999 11.3373C40.2722 11.3629 40.2349 11.3761 40.1973 11.3705C40.009 11.3459 39.7306 11.1472 39.214 10.7686C38.3932 10.167 37.1527 9.25777 35.9692 9.10824C34.5935 8.93349 33.3693 9.37234 33.0583 10.1501C32.712 11.016 33.448 11.8049 33.4554 11.8128C33.4928 11.8525 33.5011 11.9116 33.4754 11.9597C33.2813 12.3254 33.4283 12.5952 33.5608 12.743C33.6023 12.621 33.6644 12.5376 33.7499 12.4863C33.9563 12.363 34.2259 12.465 34.5988 12.6062C34.8191 12.6895 35.0688 12.784 35.3599 12.8553C36.1066 13.0383 37.0172 12.8752 37.8207 12.7313C38.1047 12.6804 38.3785 12.6315 38.6331 12.599C39.2739 12.5174 39.9163 12.8013 40.0928 13.2465C40.1784 13.4621 40.2241 13.8947 39.5696 14.3708C38.3925 15.227 33.0244 14.8319 32.7082 14.8078C32.7012 14.8084 32.6943 14.809 32.6794 14.81C32.7968 14.9418 32.9345 15.0704 32.9945 15.0864C33.0557 15.1027 33.0955 15.1616 33.0877 15.2245C33.0799 15.2873 33.0271 15.3348 32.9638 15.3358L32.4139 15.3441L32.4645 15.8733C32.4681 15.9123 32.4536 15.9509 32.4249 15.9777C32.3963 16.0046 32.3568 16.0158 32.3183 16.0107C32.2968 16.0071 31.8221 15.9313 31.494 15.7488L30.8729 16.1406C30.8525 16.1535 30.8288 16.16 30.8051 16.16C30.7913 16.16 30.7774 16.1579 30.7643 16.1533C30.728 16.1409 30.6993 16.1129 30.686 16.0769L30.449 15.4326L30.1681 15.9947C30.1475 16.0359 30.1064 16.0626 30.0607 16.0648C30.0151 16.0695 29.9716 16.0445 29.947 16.0055L29.7062 15.6216C29.596 15.7592 29.4194 15.9596 29.2387 16.0846C29.2057 16.1078 29.1639 16.1134 29.1256 16.1005C29.0874 16.0874 29.0577 16.0571 29.0456 16.0187L28.9194 15.6204C28.8078 15.7616 28.6462 15.9487 28.4752 16.089C28.4387 16.1194 28.388 16.1264 28.3443 16.1073C28.3006 16.0883 28.2712 16.0465 28.2683 15.9991L28.2276 15.3587C28.0831 15.4324 27.8863 15.5284 27.7773 15.5625C27.7277 15.578 27.673 15.5614 27.6405 15.5206C27.6078 15.4799 27.6035 15.4234 27.6296 15.378C27.8253 15.0383 28.0048 14.6141 28.0185 14.4031C27.8887 14.5585 27.7071 14.7072 27.5042 14.8723C27.0724 15.2238 26.5351 15.661 26.1395 16.4263C25.8634 16.9611 25.665 17.8941 26.0148 18.7639C26.3134 19.5059 26.9559 20.0596 27.9186 20.4153C27.8865 20.2749 27.8617 20.1369 27.8592 20.0072C27.8466 19.3483 27.9834 18.7469 27.9893 18.7216C28.0051 18.6533 28.073 18.6101 28.1413 18.6267C28.2096 18.6424 28.2521 18.7105 28.2365 18.7786C28.2351 18.7845 28.1011 19.3759 28.1129 20.0023C28.1188 20.309 28.2507 20.6874 28.3781 21.0532C28.5474 21.5396 28.7227 22.0424 28.6465 22.4656C28.5427 23.0409 27.8266 23.1868 27.1617 23.0758C26.9727 23.044 26.8008 23.0907 26.6773 23.2059C26.552 23.3228 26.4876 23.502 26.5054 23.6854C26.5137 23.7717 26.546 23.7892 26.5565 23.795C26.6365 23.8382 26.8247 23.7794 26.9264 23.7263C26.9776 23.6994 27.0409 23.7104 27.08 23.7542C27.3467 24.0529 27.7057 23.7549 27.7208 23.7418C27.7723 23.6984 27.8492 23.7024 27.8955 23.7518C27.9959 23.8588 28.1023 23.9121 28.2207 23.9148C28.4372 23.928 28.6428 23.7352 28.6448 23.7336C28.6822 23.6971 28.7385 23.6877 28.7859 23.7092C29.2043 23.9007 29.4239 23.7895 29.4329 23.7842C29.796 23.4747 29.5862 22.7401 29.584 22.7326C29.5741 22.6991 29.5785 22.6629 29.5962 22.6329C29.6139 22.6027 29.6433 22.5811 29.6773 22.5733C30.1859 22.4566 30.4701 22.1303 30.6076 21.9139C30.3563 21.9115 30.1566 21.8233 30.039 21.6396C29.8496 21.3429 29.9405 20.8962 30.2709 20.5014C30.8361 19.826 31.1817 18.4591 31.1299 17.9024C31.1235 17.8327 31.1748 17.771 31.2445 17.7644C31.3124 17.7574 31.3759 17.8093 31.3826 17.879C31.4279 18.3666 31.208 19.3779 30.8068 20.1404C31.3151 19.9998 31.7791 19.794 32.2631 19.5732C32.7442 19.3536 33.2419 19.1267 33.84 18.9393C34.8507 18.6229 35.7422 18.8422 36.4907 19.591C36.8533 19.9536 37.2491 20.2191 37.7075 20.5269C37.9088 20.662 38.1184 20.8026 38.3357 20.9592C38.9249 21.3833 38.9145 21.7375 38.9034 22.1124C38.9001 22.2267 38.8965 22.3448 38.9093 22.4728C38.9702 23.0817 38.486 23.1779 38.2533 23.2242C38.2214 23.2304 38.1915 23.2363 38.1654 23.2428C38.1325 23.2511 38.0932 23.2591 38.0497 23.2679C37.8134 23.3158 37.4563 23.3883 37.3685 23.6908C37.3527 23.745 37.3588 23.764 37.3588 23.764C37.3961 23.7809 37.5896 23.7371 37.7436 23.667C37.7764 23.652 37.8135 23.6518 37.8464 23.6659C37.8793 23.68 37.9047 23.7074 37.9164 23.7412C37.9613 23.8729 38.0314 23.8953 38.0543 23.9028C38.2141 23.9527 38.4754 23.8057 38.5542 23.7497C38.6032 23.7151 38.6693 23.7188 38.7136 23.7594C38.8445 23.879 38.9657 23.9316 39.0745 23.917C39.2202 23.8967 39.3086 23.7596 39.3095 23.7581C39.3305 23.7242 39.3663 23.7021 39.4059 23.6984C39.4462 23.6963 39.4849 23.7105 39.5117 23.7399C39.5119 23.7404 39.6229 23.8575 39.8501 23.9292C39.9991 23.9758 40.0367 23.9221 40.0489 23.9043C40.1118 23.8124 40.0893 23.5781 39.9665 23.4248C39.8057 23.2236 39.7309 22.9177 39.7763 22.6455C39.8179 22.3949 39.9531 22.1907 40.1668 22.0545C40.5585 21.8053 40.6479 21.5367 40.6229 21.4855C40.6157 21.4819 40.5731 21.4764 40.5391 21.4719C40.3643 21.4487 40.0718 21.4101 39.771 20.8546C39.5053 20.3644 39.7624 19.5883 40.0599 18.6893C40.2108 18.2339 40.3668 17.7629 40.4629 17.3009C40.7292 16.0229 39.8924 15.0081 39.8839 14.9981C39.8407 14.9465 39.8451 14.8701 39.8943 14.824C40.4817 14.2729 40.7343 13.7621 40.6445 13.3057C40.5513 12.8298 40.0904 12.4971 39.7242 12.3569C39.2678 12.1819 38.4351 12.2813 37.6295 12.3771C36.9564 12.4571 36.3202 12.5329 35.9095 12.4471C35.6979 12.4027 35.5429 12.3024 35.4489 12.1491C35.3715 12.0227 35.3525 11.8843 35.3532 11.7763C35.1492 11.853 35.0114 12.042 35.0098 12.0442C34.9865 12.0768 34.9489 12.0965 34.909 12.0973C34.8589 12.0953 34.8306 12.0798 34.8063 12.0482C34.7025 11.9141 34.6607 11.7661 34.6825 11.6082C34.7104 11.404 34.8423 11.2284 34.9503 11.1151C34.478 10.9493 34.1161 11.3451 34.0994 11.364C34.0581 11.4097 33.9903 11.4194 33.938 11.388C33.7102 11.2479 33.569 10.973 33.5779 10.6877C33.5866 10.4184 33.7255 10.1926 33.959 10.0685C34.1191 9.98359 34.2726 9.96793 34.4149 10.0216C34.5503 10.0726 34.6453 10.178 34.7051 10.2675C34.8779 10.0704 34.8924 9.73027 34.8924 9.72634C34.8934 9.69231 34.9077 9.66015 34.9327 9.63699C34.9576 9.61384 34.992 9.59931 35.0246 9.60296C35.325 9.61534 35.5583 9.7239 35.7177 9.92537C35.9356 10.2011 35.956 10.584 35.9433 10.8211C36.4232 10.5761 36.3623 10.0107 36.3592 9.98424C36.3542 9.94055 36.3718 9.89752 36.406 9.87015C36.4402 9.84296 36.4858 9.83443 36.5276 9.84971C37.0369 10.0294 37.2222 10.4836 37.2658 10.8215C37.41 10.6839 37.4121 10.5074 37.4121 10.5051C37.4121 10.4472 37.4514 10.3966 37.5076 10.3822C37.5643 10.3681 37.6225 10.3935 37.6504 10.4443C37.8468 10.8033 38.1464 11.0269 38.3656 11.1519L38.2146 10.786C38.1942 10.7364 38.207 10.6793 38.2468 10.6434C38.2867 10.6074 38.345 10.6005 38.392 10.626C38.6433 10.7612 38.8423 10.9143 39.0529 11.0766C39.307 11.2723 39.5698 11.4744 39.9399 11.6483C40.3013 11.8183 40.5451 11.7859 40.6853 11.7291C40.8306 11.6704 40.9137 11.5669 40.9407 11.4961C40.9917 11.3621 41.0066 11.1697 40.9247 11.0421C40.872 10.9597 40.7829 10.9141 40.6599 10.906Z" fill="#FFD250"/>
<path d="M25.6828 12.7301C25.6831 12.7302 25.6832 12.7304 25.6832 12.7304C25.6838 12.7306 25.6842 12.7305 25.6845 12.7306C25.6939 12.7337 26.6424 13.0331 27.5036 13.0843C27.5508 13.0872 27.5927 13.1162 27.6119 13.1595C27.631 13.2029 27.6246 13.2536 27.5949 13.2905L27.5648 13.3279C27.7356 13.3023 27.9505 13.2786 28.1612 13.2777C28.0749 13.175 27.9675 13.0443 27.8572 12.9073C27.6269 12.9031 26.7842 12.8665 26.0983 12.536C25.9317 12.4552 25.6437 12.3157 25.5067 12.3863C25.4831 12.3985 25.4441 12.4556 25.4506 12.5259C25.4591 12.6149 25.5413 12.6876 25.6828 12.7301Z" fill="#FFD250"/>
<path d="M28.5408 10.8966C28.5276 10.8966 28.5156 10.898 28.505 10.9013C28.4497 10.9179 28.4217 10.9804 28.4142 11.0292C28.405 11.0916 28.4208 11.1755 28.4933 11.224C28.588 11.2869 28.6892 11.2439 28.7469 11.187C28.7651 11.1692 28.8521 11.0761 28.7879 10.9743L28.7877 10.9741C28.6886 10.9284 28.6017 10.8966 28.5408 10.8966Z" fill="#FFD250"/>
<path d="M27.296 13.9549C27.3574 14.1014 27.4527 14.2149 27.5316 14.291C27.5615 14.2263 27.6071 14.159 27.6763 14.1086C27.744 14.0593 27.8614 14.0112 28.0333 14.047C28.036 14.0472 28.0384 14.0478 28.0411 14.048C28.0461 14.0492 28.0499 14.0487 28.055 14.0499C28.0594 14.0509 28.0622 14.0545 28.0666 14.0557C28.0727 14.0579 28.0791 14.0581 28.085 14.0613C28.0894 14.0637 28.0921 14.0677 28.096 14.0705C28.1607 14.0981 28.2147 14.1423 28.2433 14.2093C28.3394 14.4335 28.1703 14.8689 28.021 15.1787C28.1265 15.1264 28.2275 15.0736 28.282 15.0444C28.32 15.024 28.3659 15.0242 28.4036 15.0454C28.4415 15.0664 28.4659 15.1053 28.4686 15.1482L28.5044 15.7141C28.7028 15.505 28.859 15.2778 28.861 15.2748C28.8884 15.2347 28.9358 15.2146 28.9842 15.2209C29.0323 15.2281 29.072 15.2619 29.0866 15.3081L29.2313 15.7652C29.4339 15.5789 29.6105 15.3294 29.6125 15.3262C29.6372 15.2915 29.6773 15.2731 29.7196 15.2723C29.762 15.2734 29.8012 15.2957 29.8238 15.3317L30.042 15.6797L30.3533 15.0571C30.376 15.0117 30.4187 14.9831 30.474 14.987C30.5246 14.9898 30.5684 15.0224 30.586 15.07L30.8701 15.8426L31.4245 15.4927C31.4665 15.4659 31.5198 15.4667 31.5618 15.494C31.7426 15.6124 32.0205 15.6888 32.1956 15.7281L32.1483 15.2315C32.145 15.1962 32.1565 15.1612 32.1801 15.1349C32.2038 15.1085 32.2372 15.0931 32.2727 15.0926L32.5899 15.0878C32.5136 15.0106 32.4505 14.9358 32.4197 14.898C32.3989 14.8728 32.3908 14.842 32.3921 14.8118C32.1584 14.8019 31.8327 14.7602 31.507 14.6196L31.3132 14.9185C31.2947 14.9471 31.2656 14.9669 31.2323 14.9736C31.224 14.9755 31.2154 14.9763 31.2069 14.9763C31.182 14.9763 31.1573 14.9689 31.1362 14.9548L30.4035 14.4632L30.2689 14.8297C30.2534 14.8718 30.2168 14.9026 30.1728 14.9106C30.1287 14.9193 30.0837 14.903 30.0542 14.8694C29.9283 14.725 29.7305 14.5037 29.613 14.3823C29.507 14.4843 29.3212 14.6491 29.1226 14.7593C29.0902 14.7773 29.0515 14.7801 29.017 14.7674C28.9823 14.7546 28.955 14.7274 28.942 14.6927L28.7411 14.1535C28.7167 14.0879 28.75 14.0148 28.8158 13.9903C28.8812 13.9659 28.9546 13.9995 28.979 14.065L29.1255 14.4583C29.3381 14.3106 29.5155 14.1205 29.5176 14.1182C29.5629 14.0694 29.6383 14.0636 29.6899 14.1052C29.7637 14.1644 29.9642 14.3852 30.1041 14.5421L30.221 14.224C30.2343 14.1874 30.2639 14.159 30.3009 14.1472C30.3376 14.1345 30.3784 14.1405 30.4108 14.1624L31.1706 14.6722L31.3544 14.3891C31.3897 14.3345 31.4604 14.3155 31.5174 14.3447C31.8547 14.5133 32.2189 14.5541 32.4514 14.5603C32.3095 14.2953 32.297 13.9593 32.2962 13.8803C32.1063 13.7965 31.8729 13.6699 31.6381 13.4769L31.5468 13.7026C31.532 13.7386 31.5017 13.7659 31.464 13.7767C31.4266 13.7871 31.386 13.7804 31.3547 13.7576L30.9881 13.4916L30.9524 13.7663C30.9468 13.809 30.9202 13.8457 30.8813 13.8643C30.8429 13.8828 30.7974 13.881 30.7606 13.8584C30.7478 13.8508 30.4462 13.6665 30.2665 13.4643C30.2199 13.4119 30.2247 13.3317 30.2771 13.2852C30.3289 13.2386 30.4092 13.2431 30.4562 13.2958C30.5321 13.3812 30.6385 13.466 30.7272 13.5303L30.764 13.2474C30.7699 13.203 30.7986 13.165 30.8397 13.1473C30.8809 13.1295 30.9284 13.1349 30.9645 13.1611L31.3725 13.457L31.4702 13.216C31.4859 13.1773 31.5198 13.1488 31.5607 13.1399C31.6014 13.1311 31.6444 13.1427 31.6747 13.1715C31.991 13.4691 32.3333 13.6298 32.5461 13.7087C32.4734 13.37 32.4457 12.9453 32.4443 12.923C32.4441 12.9198 32.4455 12.9171 32.4455 12.914C32.2478 12.805 31.9684 12.6171 31.7268 12.3219C31.7256 12.4783 31.7129 12.6375 31.6745 12.738C31.6613 12.7727 31.6338 12.7998 31.5989 12.8123C31.5638 12.8244 31.5252 12.8212 31.4934 12.8032C31.4781 12.7944 31.202 12.636 30.9965 12.4044C30.9611 12.532 30.9184 12.6663 30.8825 12.7263C30.8482 12.7832 30.7765 12.8042 30.717 12.7745C30.7049 12.7686 30.5104 12.6702 30.3372 12.5196C30.3203 12.6886 30.2943 12.8794 30.2571 12.9724C30.2438 13.0062 30.2165 13.0324 30.1823 13.0447C30.1481 13.0564 30.1104 13.0538 30.0785 13.0367C30.0669 13.0304 29.8468 12.9096 29.6412 12.7565L29.5855 12.9681C29.5759 13.0043 29.5509 13.0345 29.5172 13.0505C29.4831 13.0663 29.4444 13.0667 29.4103 13.0514C29.395 13.0444 29.0322 12.8776 28.8256 12.6251C28.7811 12.5709 28.789 12.4909 28.8434 12.4468C28.8974 12.4023 28.9775 12.4102 29.0217 12.4646C29.1205 12.5853 29.2716 12.6861 29.3807 12.7494L29.4457 12.5022C29.4571 12.4593 29.4898 12.4254 29.5324 12.4128C29.5746 12.3996 29.6207 12.4107 29.6536 12.4405C29.7748 12.5502 29.9389 12.6581 30.0555 12.7295C30.0803 12.5729 30.0995 12.3465 30.1078 12.1997C30.1111 12.1429 30.1515 12.0953 30.2067 12.083C30.2626 12.0705 30.319 12.0966 30.3459 12.1463C30.4157 12.2748 30.5833 12.3999 30.7097 12.479C30.7444 12.3705 30.7871 12.2104 30.8193 12.0723C30.8316 12.0193 30.8763 11.9802 30.9304 11.9749C30.9846 11.9682 31.0362 11.9992 31.0584 12.0489C31.1376 12.2245 31.3296 12.385 31.4667 12.4833C31.4816 12.2983 31.4678 12.0354 31.4509 11.871C31.4446 11.8099 31.4829 11.753 31.5419 11.736C31.6022 11.7197 31.6638 11.7468 31.6909 11.8018C31.946 12.3194 32.3973 12.6061 32.632 12.7266C32.76 11.3266 32.3496 10.7909 32.3452 10.7854C32.3223 10.7566 32.3126 10.7187 32.3194 10.6824C32.3264 10.6462 32.3483 10.6144 32.3803 10.5958C32.6082 10.4639 32.7465 10.2229 32.8313 9.98914C32.3155 10.4892 31.4983 10.6813 31.1002 10.7478L31.2946 10.9847C31.3242 11.0209 31.3316 11.0704 31.3137 11.1137C31.2957 11.1569 31.2556 11.1867 31.209 11.1913C30.7212 11.24 30.3652 11.1754 30.1256 11.0946L30.2086 11.2477C30.2304 11.2879 30.2288 11.3368 30.2046 11.3754C30.1805 11.4142 30.1363 11.4404 30.0917 11.4349C29.6943 11.4179 29.3465 11.2541 29.0608 11.1094C29.0472 11.2027 29.0012 11.2936 28.9246 11.3685C28.8307 11.4601 28.7114 11.5074 28.593 11.5074C28.5092 11.5074 28.426 11.4836 28.353 11.4349C28.2096 11.3391 28.1371 11.1692 28.1637 10.9914C28.1884 10.8281 28.2914 10.7004 28.4328 10.6581C28.6219 10.602 28.8378 10.7113 29.1109 10.8504C29.3276 10.9609 29.5861 11.0924 29.8679 11.1514L29.7109 10.8613C29.6816 10.8073 29.6951 10.7403 29.743 10.7017C29.7911 10.6639 29.8593 10.6649 29.9058 10.7053C29.9086 10.7077 30.2243 10.9671 30.9409 10.9537L30.7602 10.7334C30.7305 10.6972 30.7232 10.6474 30.7412 10.6041C30.7594 10.5609 30.7999 10.5311 30.8465 10.5267C30.8602 10.5255 31.9013 10.4198 32.5418 9.90373C32.3332 9.96476 32.1718 9.9551 32.1594 9.95492C32.1243 9.9521 32.0918 9.93495 32.07 9.90729C31.7765 9.53857 31.4763 9.42457 31.3249 9.38932C31.2398 9.65726 31.0339 9.8741 31.0239 9.88451C30.9967 9.91273 30.9578 9.9266 30.9192 9.92276C30.8802 9.91863 30.8453 9.89679 30.8245 9.86351C30.5982 9.49873 30.272 9.40282 30.0824 9.3791C30.1056 9.64873 29.9172 9.87017 29.7918 9.96232C29.743 9.99767 29.6765 9.99448 29.632 9.95473C29.0876 9.46807 28.6671 9.61207 28.4971 9.70929C28.5508 9.8427 28.5255 9.95173 28.4891 10.0254C28.2291 10.5522 26.621 10.6581 26.3012 10.674C26.2615 10.6768 26.2218 10.6587 26.1963 10.6271C26.1707 10.5955 26.162 10.5538 26.1723 10.5147C26.1957 10.4269 26.1801 10.3324 26.1283 10.2478C26.0754 10.1614 25.9907 10.0985 25.9019 10.0795C25.8183 10.0618 25.6588 10.0732 25.5635 10.1778C25.4544 10.2977 25.447 10.5194 25.5419 10.8191C25.7121 11.3571 26.2367 11.8872 26.5632 12.1777C26.5602 12.1108 26.5622 12.0616 26.5629 12.0493C26.5657 11.9951 26.6026 11.9487 26.6548 11.9339C26.7071 11.9186 26.7627 11.9387 26.7937 11.9832C26.9019 12.1386 27.0309 12.2436 27.1279 12.3079L27.1915 11.9021C27.2004 11.8459 27.2455 11.8024 27.302 11.7958C27.3581 11.791 27.4124 11.8209 27.4341 11.8736C27.549 12.1528 28.2767 13.0268 28.5473 13.34C28.582 13.38 28.5881 13.4373 28.5626 13.4838C28.5372 13.53 28.4858 13.5549 28.4333 13.5485C27.9696 13.4824 27.2885 13.6368 27.2817 13.6383C27.2291 13.6504 27.1746 13.6278 27.1458 13.5821C27.1172 13.5363 27.1206 13.4775 27.1544 13.4352L27.2482 13.3184C26.6045 13.2514 25.9776 13.0822 25.7242 13.0082L25.5113 13.5866L26.0851 13.5293C26.1283 13.5239 26.1728 13.5439 26.1992 13.5797C26.226 13.6154 26.2319 13.6623 26.215 13.7036L26.1068 13.968L26.5794 13.8429C26.6421 13.8256 26.7063 13.859 26.73 13.9188C26.7926 14.0775 26.8694 14.1816 26.9307 14.2462L27.0638 13.9519C27.0848 13.906 27.1306 13.8739 27.1812 13.8775C27.2312 13.8778 27.2764 13.9083 27.296 13.9549Z" fill="#FFD250"/>
<path d="M25.6531 20.4422C26.1534 20.7763 26.5578 20.3951 26.7739 20.1016C26.313 19.7653 25.9773 19.3516 25.7792 18.8589C25.7145 18.6979 25.6724 18.5352 25.6395 18.3727C25.5924 18.3358 24.8963 17.7844 24.3133 17.1399C24.2835 17.2176 24.2444 17.2793 24.2127 17.321C24.2537 17.4876 24.2138 17.6237 24.1625 17.7108C24.1979 17.8296 24.1695 17.9475 24.1283 18.0334C24.2165 18.1666 24.2326 18.2969 24.176 18.4221C24.1631 18.4508 24.1457 18.4773 24.1275 18.5032C24.2 18.5908 24.3141 18.7912 24.3141 19.1945C24.3141 19.4658 24.4145 19.6285 24.4895 19.7121C24.5333 19.6743 24.5812 19.653 24.6339 19.6474C24.7939 19.6295 24.9254 19.7664 25.1051 19.9552C25.2458 20.1033 25.4208 20.2874 25.6531 20.4422Z" fill="#FFD250"/>
<path d="M23.1643 17.0028C23.1549 17.0028 23.1454 17.0026 23.136 17.0026C22.9536 17.001 22.7868 16.9828 22.6332 16.9532C22.6184 16.9956 22.6499 17.1188 22.6828 17.1441C22.7151 17.169 22.7368 17.21 22.7356 17.2508C22.7345 17.2915 22.717 17.3314 22.6833 17.3544C22.6617 17.3696 22.5973 17.4271 22.5964 17.4832C22.5956 17.5379 22.6602 17.5945 22.6988 17.6235C22.727 17.6446 22.7452 17.6767 22.7489 17.7118C22.7525 17.7469 22.7414 17.782 22.7181 17.8086C22.7018 17.8279 22.6552 17.8985 22.6633 17.9578C22.6649 17.9703 22.6702 18.0087 22.7363 18.0536C22.7649 18.073 22.7844 18.1034 22.7902 18.1377C22.7958 18.1719 22.7872 18.2068 22.7664 18.2346C22.7666 18.2346 22.7309 18.2866 22.7445 18.3384C22.7597 18.3957 22.8312 18.4397 22.8882 18.4665C22.9949 18.5168 23.1486 18.5491 23.3088 18.5554C23.3137 18.5546 23.3187 18.5553 23.3236 18.5551C23.4586 18.5591 23.5973 18.5459 23.7157 18.5023C23.8318 18.4594 23.9089 18.3973 23.9448 18.3177C23.9561 18.2928 23.9794 18.2413 23.8796 18.1247C23.8406 18.0791 23.8388 18.0127 23.8752 17.965C23.8753 17.9647 23.9599 17.8484 23.9078 17.7555C23.8798 17.7058 23.8884 17.6437 23.9286 17.6036C23.936 17.5953 24.0147 17.5026 23.9524 17.3362C23.9344 17.2883 23.947 17.2343 23.9843 17.1992C23.9889 17.1946 24.1036 17.0752 24.1011 16.8936C24.0855 16.8747 24.07 16.8556 24.0549 16.8366C23.8092 16.9408 23.5081 17.0028 23.1643 17.0028Z" fill="#FFD250"/>
<path d="M24.3247 8.16013C23.8117 8.43603 22.7177 9.30106 22.6861 11.6692L22.7143 15.6599C22.7177 15.6655 22.7225 15.6713 22.7253 15.6767C22.7915 15.8016 22.7602 15.9635 22.7231 16.0756C23.0401 16.1889 23.4353 16.1424 23.6047 16.1005C23.5709 16.0015 23.5442 15.8417 23.6588 15.6608C23.641 10.9017 24.0949 8.87703 24.3247 8.16013Z" fill="#FFD250"/>
<path d="M24.3774 16.1569C24.3774 15.954 24.2244 15.7961 24.0732 15.745C24.0419 15.7342 23.9351 15.7045 23.8861 15.7688C23.7945 15.8887 23.827 15.9734 23.8582 16.0555C23.8757 16.1012 23.8936 16.1483 23.8801 16.2021C23.863 16.2708 23.8004 16.299 23.7797 16.3084C23.6076 16.3865 22.9531 16.489 22.5009 16.2555C22.4397 16.2237 22.4148 16.1488 22.4452 16.0867C22.4929 15.9889 22.5276 15.8454 22.5011 15.7955C22.4989 15.7914 22.493 15.78 22.4573 15.7752C22.4236 15.7705 22.39 15.7683 22.3567 15.7683C22.2023 15.7683 22.0591 15.8169 21.9816 15.8997C21.9194 15.9665 21.8999 16.0514 21.9222 16.1591C21.9974 16.5222 22.452 16.7426 23.1382 16.7488C23.6236 16.7471 24.0412 16.6326 24.2496 16.4259C24.3346 16.342 24.3774 16.2515 24.3774 16.1569Z" fill="#FFD250"/>
<path d="M23.2854 19.1669C23.3148 19.1281 23.3633 19.1096 23.4111 19.1195C23.4993 19.138 23.7185 19.1845 23.8443 19.0869C23.8883 19.0531 23.8982 18.9612 23.8644 18.9012C23.8528 18.8805 23.8177 18.8182 23.6856 18.8688C23.5605 18.917 23.381 18.9692 23.2682 18.8678C23.2456 18.8475 23.2314 18.8238 23.2205 18.7995C23.1865 18.7966 23.1528 18.7948 23.1195 18.7897C23.1087 18.8176 23.0938 18.8448 23.0683 18.8678C22.956 18.969 22.7763 18.917 22.6511 18.8688C22.5194 18.8188 22.4837 18.8805 22.4723 18.9012C22.4385 18.9612 22.4483 19.0531 22.4921 19.0866C22.6181 19.1837 22.8375 19.1378 22.9095 19.1226C22.9563 19.1132 23.0136 19.1294 23.0435 19.1677C23.0732 19.2064 23.0858 19.2569 23.0639 19.3004C23.0353 19.3575 22.9111 19.6004 22.7897 19.752C22.9483 19.984 23.0857 20.3973 22.7639 20.7651C22.7377 20.7948 22.6969 20.8097 22.659 20.808C22.6193 20.805 22.5832 20.7837 22.5618 20.7501C22.5435 20.7224 22.479 20.6454 22.4078 20.6315C22.3863 20.6274 22.3524 20.6257 22.3032 20.6593C22.27 20.6822 22.2514 20.7582 22.2794 20.8413C22.3295 20.99 22.4851 21.0725 22.7046 21.0623C22.7544 21.0573 22.8084 21.0916 22.8286 21.1421C22.8486 21.1924 22.8344 21.25 22.7933 21.2852L22.5864 21.4626L22.9241 21.5448C22.9689 21.5557 23.0042 21.5901 23.0165 21.6345C23.017 21.6367 23.0675 21.8166 23.1684 21.9684C23.2692 21.8166 23.3198 21.6367 23.3202 21.6345C23.3324 21.5901 23.3679 21.5557 23.4126 21.5448L23.7503 21.4626L23.5433 21.2852C23.5021 21.2501 23.4879 21.1924 23.5079 21.1421C23.5279 21.0917 23.5782 21.0579 23.6319 21.0623C23.8489 21.0719 24.007 20.99 24.0573 20.8411C24.0853 20.7582 24.0667 20.6822 24.0335 20.6593C23.9836 20.6254 23.9493 20.6271 23.9281 20.6316C23.8545 20.6465 23.7885 20.7288 23.7748 20.75C23.7533 20.7836 23.7172 20.805 23.6776 20.808C23.6364 20.8101 23.5988 20.795 23.5727 20.765C23.251 20.3973 23.3886 19.9839 23.5471 19.752C23.4257 19.6003 23.3015 19.3575 23.2729 19.3003C23.2511 19.2572 23.2561 19.2053 23.2854 19.1669Z" fill="#FFD250"/>
<path d="M41.1382 10.9047C41.0704 10.7991 40.9353 10.6699 40.6765 10.653C40.4965 10.6401 40.3524 10.6885 40.2475 10.7934C40.1631 10.8775 40.1224 10.9816 40.1031 11.0697C39.93 10.9786 39.6531 10.7757 39.364 10.5639C38.522 9.94681 37.2497 9.01428 36.0009 8.85631C34.988 8.72759 33.8359 8.92962 33.2024 9.51744C33.212 9.43972 33.2148 9.38769 33.2152 9.37878C33.2153 9.37709 33.2139 9.37587 33.2139 9.37409C33.2141 9.35037 33.2075 9.32825 33.1955 9.30847C33.1929 9.30425 33.1901 9.30106 33.1871 9.29712C33.173 9.27884 33.1554 9.26309 33.1321 9.25447C33.1317 9.25428 33.1315 9.25372 33.131 9.25362H33.1306C33.1067 9.24528 33.0826 9.24659 33.0596 9.25203C33.0552 9.25306 33.0514 9.25381 33.0471 9.25522C33.025 9.263 33.0055 9.27603 32.9905 9.29478C32.9894 9.296 32.9876 9.29609 32.9867 9.2974C32.7236 9.65065 32.3625 9.69715 32.2294 9.70156C31.7544 9.13747 31.2523 9.11994 31.2307 9.11947C31.1579 9.12425 31.1117 9.16456 31.1023 9.22765C31.0825 9.36162 31.0046 9.49428 30.9387 9.58634C30.5201 9.06594 29.9307 9.11806 29.9045 9.12022C29.8637 9.12416 29.8275 9.14759 29.8071 9.18312C29.7868 9.21847 29.7847 9.2615 29.8016 9.29891C29.8771 9.46503 29.7855 9.60978 29.7125 9.69022C28.8884 9.02984 28.2543 9.56787 28.2477 9.57378C28.1993 9.61615 28.1902 9.68834 28.2268 9.74122C28.2882 9.83028 28.2775 9.8794 28.2611 9.91259C28.1277 10.1828 27.1604 10.359 26.436 10.4108C26.4322 10.3089 26.4012 10.2074 26.3443 10.1144C26.2544 9.96772 26.1124 9.8644 25.9546 9.83047C25.7792 9.79231 25.5325 9.83262 25.3753 10.0062C25.1995 10.1995 25.1743 10.4984 25.2997 10.8949C25.4958 11.5143 26.0846 12.0971 26.428 12.397C26.3443 12.366 26.2614 12.3323 26.181 12.2937C25.9789 12.1952 25.6404 12.0305 25.3903 12.1605C25.2641 12.2258 25.1833 12.3892 25.198 12.5488C25.2054 12.6288 25.2501 12.8085 25.4842 12.9233L25.2026 13.6883C25.1876 13.7292 25.1946 13.7752 25.2214 13.8097C25.248 13.8443 25.2906 13.863 25.3343 13.8582L25.8999 13.8018L25.7751 14.1069C25.7569 14.1515 25.7654 14.2026 25.7972 14.2387C25.829 14.2747 25.8773 14.2907 25.9251 14.2775L26.5391 14.1149C26.6977 14.4407 26.9092 14.5547 26.9191 14.5598C26.9503 14.5764 26.9863 14.5788 27.0192 14.5674C27.0522 14.556 27.0792 14.5316 27.0936 14.4998L27.1914 14.2832C27.2928 14.4251 27.4024 14.5193 27.4702 14.5712C27.4289 14.6053 27.3882 14.6389 27.3435 14.6753C26.9173 15.0221 26.3335 15.4974 25.9138 16.3097C25.7031 16.7176 25.5389 17.3399 25.588 18.0018C25.2823 17.7449 24.7062 17.2354 24.2819 16.7139C24.333 16.679 24.3873 16.6461 24.4284 16.6056C24.561 16.4743 24.6311 16.3188 24.6311 16.1564C24.6311 15.8191 24.3839 15.5817 24.1544 15.5041C24.069 15.4753 23.9868 15.471 23.912 15.4838C23.9046 9.9545 24.5343 8.26175 24.6622 7.97666C24.6823 7.93156 24.6746 7.87869 24.642 7.84138C24.6097 7.80425 24.5581 7.78916 24.5108 7.80313C24.4277 7.8275 22.4752 8.43744 22.4322 11.6681L22.4593 15.5223C22.1943 15.4944 21.9427 15.5697 21.7962 15.7262C21.7129 15.8153 21.6242 15.9715 21.6735 16.2105C21.7393 16.5277 21.9951 16.7618 22.3877 16.8904C22.3769 16.932 22.3733 16.9791 22.3785 17.0318C22.3846 17.0937 22.4039 17.1704 22.4398 17.2369C22.3918 17.294 22.3448 17.3756 22.3423 17.4762C22.3401 17.5732 22.3786 17.6642 22.4573 17.7475C22.4263 17.8102 22.3992 17.8948 22.4111 17.9887C22.4183 18.0445 22.4418 18.1187 22.508 18.1904C22.4893 18.2457 22.4778 18.3181 22.4978 18.3977C22.5181 18.4799 22.5692 18.5506 22.6451 18.611C22.4508 18.575 22.3143 18.6626 22.2505 18.7766C22.1545 18.9477 22.1934 19.177 22.3371 19.2876C22.4542 19.3776 22.5934 19.4064 22.7203 19.3997C22.6557 19.509 22.5874 19.6101 22.5445 19.6436C22.5165 19.6653 22.4988 19.6975 22.4959 19.7327C22.4928 19.7679 22.5045 19.8027 22.5283 19.829C22.5415 19.8436 22.8181 20.1553 22.6534 20.4792C22.6025 20.4374 22.5366 20.3983 22.4582 20.3824C22.3563 20.3617 22.2532 20.3852 22.1593 20.4496C22.0254 20.5415 21.9756 20.7355 22.0384 20.9216C22.0865 21.0642 22.2064 21.2104 22.4111 21.2778L22.233 21.4304C22.1968 21.4614 22.1812 21.5101 22.1923 21.5563C22.2033 21.6025 22.2393 21.6387 22.2855 21.65L22.7945 21.774C22.8335 21.8859 22.9227 22.1018 23.0716 22.2507C23.0954 22.2745 23.1406 22.2879 23.1744 22.2879C23.2081 22.2879 23.2403 22.2745 23.2641 22.2507C23.4131 22.1018 23.5023 21.8859 23.5412 21.774L24.0502 21.65C24.0964 21.6387 24.1324 21.6026 24.1435 21.5563C24.1545 21.5099 24.1387 21.4614 24.1027 21.4304L23.9247 21.2778C24.1292 21.2102 24.2493 21.0641 24.2973 20.9216C24.3601 20.7354 24.3103 20.5413 24.1764 20.4496C24.0823 20.385 23.9787 20.3619 23.8774 20.3824C23.7991 20.3982 23.7334 20.4372 23.6823 20.479C23.5203 20.1569 23.7946 19.8432 23.8079 19.8286C23.8314 19.8024 23.843 19.7675 23.8398 19.7325C23.8367 19.6974 23.8191 19.6652 23.7914 19.6436C23.7486 19.6103 23.6806 19.5094 23.616 19.4001C23.7428 19.4012 23.8813 19.3781 23.9988 19.2874C24.0246 19.2676 24.0429 19.2404 24.0617 19.2141C24.0707 19.7709 24.4236 19.9912 24.4389 20.0004C24.499 20.0363 24.5761 20.0173 24.6123 19.9576C24.6422 19.9089 24.66 19.8995 24.6597 19.8989C24.7043 19.9014 24.8294 20.0332 24.9209 20.1293C25.0702 20.2863 25.2562 20.4819 25.5119 20.6524C25.6993 20.7774 25.8765 20.8267 26.0393 20.8267C26.496 20.8267 26.8381 20.4413 26.9841 20.2433C27.2685 20.4217 27.591 20.5765 27.9587 20.7022C27.9713 20.7065 27.984 20.7082 27.9967 20.7084C28.0406 20.8509 28.0885 20.9942 28.138 21.1363C28.2967 21.5917 28.4607 22.0627 28.3962 22.4202C28.3129 22.8836 27.5797 22.8883 27.2029 22.8249C26.9348 22.7813 26.6861 22.8499 26.5035 23.02C26.321 23.1906 26.227 23.4482 26.2525 23.7095C26.2702 23.892 26.3616 23.9779 26.4354 24.0177C26.6047 24.1088 26.8336 24.0407 26.958 23.9898C27.2437 24.2386 27.5853 24.1342 27.792 24.0027C27.9192 24.1089 28.0609 24.1646 28.2144 24.168C28.2194 24.1682 28.2244 24.1682 28.2296 24.1682C28.4615 24.1682 28.6566 24.0461 28.7542 23.9714C29.2455 24.1703 29.5265 24.022 29.5757 23.9916C29.9746 23.655 29.909 23.0502 29.857 22.7873C30.6768 22.539 30.941 21.8265 30.9524 21.7949C30.9683 21.7505 30.9582 21.7009 30.9264 21.6661C30.8942 21.6315 30.8451 21.6175 30.8 21.6296C30.5472 21.6975 30.3477 21.6513 30.2526 21.5025C30.1239 21.3012 30.2073 20.9718 30.4652 20.6637C30.5193 20.599 30.5705 20.5275 30.6206 20.453C31.2541 20.3113 31.7952 20.0649 32.3682 19.8037C32.8423 19.5875 33.3328 19.3638 33.9158 19.1811C34.0792 19.1298 34.238 19.0997 34.3946 19.0794C34.3472 19.7666 34.6997 20.2194 35.0459 20.6551C35.1416 20.7753 35.2372 20.8954 35.3238 21.0208C35.6951 21.5585 35.6238 22.6857 35.5937 22.7874C35.5674 22.8453 35.3186 23.0986 34.9659 23.0502C34.6728 23.0112 34.3448 23.1078 34.1297 23.296C33.9763 23.4303 33.8919 23.603 33.8919 23.782C33.8919 23.9347 33.9652 24.0104 34.0269 24.0472C34.2106 24.1563 34.5146 24.0396 34.6776 23.9616C34.8298 24.0792 34.9862 24.1226 35.1307 24.1226C35.3104 24.1226 35.4719 24.0557 35.5853 23.9814C35.9254 24.1963 36.2816 24.0705 36.4802 23.935C36.729 24.07 36.929 24.0433 37.0579 23.9926C37.0998 23.9762 37.1381 23.9554 37.1728 23.9319C37.178 23.9373 37.1827 23.9445 37.1879 23.9489C37.3229 24.0651 37.5727 24.0032 37.7325 23.9453C37.8053 24.0656 37.9015 24.1199 37.9775 24.1441C38.2124 24.2189 38.4821 24.0902 38.6179 24.0098C38.7826 24.1372 38.9462 24.1907 39.1097 24.1677C39.2539 24.1478 39.3626 24.0703 39.4327 24.0024C39.5074 24.0562 39.6208 24.1223 39.774 24.1707C39.8416 24.1923 39.901 24.2009 39.9532 24.2009C40.13 24.2009 40.2222 24.1001 40.2584 24.0475C40.4051 23.8333 40.3286 23.4706 40.1649 23.2658C40.0682 23.1451 39.988 22.9191 40.0267 22.6868C40.0474 22.5628 40.1119 22.3898 40.303 22.2682C40.6476 22.049 40.8737 21.7522 40.879 21.5123C40.8812 21.4132 40.8436 21.3314 40.7727 21.2819C40.7102 21.2381 40.6402 21.2289 40.5724 21.2199C40.4215 21.2 40.2334 21.1751 39.9941 20.7333C39.781 20.3394 40.0334 19.5765 40.3011 18.7686C40.4541 18.3063 40.6124 17.8283 40.7115 17.3522C40.957 16.1739 40.3653 15.2245 40.1511 14.9289C40.7469 14.3428 40.9967 13.7804 40.8938 13.2562C40.7805 12.6785 40.2419 12.2828 39.8154 12.1194C39.2996 11.9217 38.4355 12.0245 37.5998 12.1246C36.9481 12.2026 36.332 12.2766 35.962 12.1982C35.8221 12.169 35.7226 12.1082 35.6664 12.0175C35.5686 11.8597 35.621 11.6523 35.6215 11.6502C35.6317 11.6113 35.6228 11.5695 35.5976 11.5383C35.5724 11.5071 35.5307 11.4871 35.4938 11.491C35.2507 11.5007 35.057 11.6362 34.9374 11.748C34.9304 11.714 34.9293 11.679 34.9343 11.6428C34.9672 11.399 35.248 11.1859 35.2507 11.1838C35.2842 11.1586 35.3034 11.1182 35.3013 11.0761C35.2993 11.0341 35.2766 10.9959 35.2406 10.9739C34.7239 10.6592 34.2415 10.8923 33.9945 11.1112C33.8902 11.009 33.8273 10.8526 33.8321 10.6952C33.8352 10.5918 33.8718 10.4019 34.0784 10.292C34.1719 10.2422 34.2522 10.2313 34.3251 10.2582C34.447 10.3035 34.528 10.4533 34.549 10.5074C34.5623 10.542 34.5905 10.5692 34.6254 10.5814C34.6604 10.5942 34.6993 10.5903 34.7313 10.5715C35.0141 10.4065 35.1046 10.0599 35.1333 9.86759C35.2996 9.89468 35.4265 9.96528 35.5186 10.0815C35.7772 10.4076 35.6714 10.9819 35.6704 10.9877C35.6621 11.0307 35.6767 11.0747 35.7086 11.1045C35.7404 11.1342 35.7855 11.1453 35.8278 11.1342C36.4019 10.9804 36.5857 10.5142 36.614 10.1696C37.053 10.4429 37.0231 11.0083 37.0214 11.0349C37.0186 11.0786 37.0384 11.1207 37.0737 11.1461C37.1092 11.1717 37.1551 11.1771 37.1956 11.161C37.4057 11.0757 37.522 10.9371 37.5865 10.8091C37.9861 11.3332 38.5417 11.5151 38.5683 11.5238C38.6154 11.5381 38.6665 11.5251 38.7001 11.4887C38.7335 11.4524 38.743 11.4 38.7241 11.3545L38.6001 11.0538C38.701 11.125 38.7983 11.1999 38.8982 11.2768C39.1631 11.4807 39.4369 11.6915 39.832 11.8771C40.2761 12.0858 40.5926 12.039 40.7806 11.9637C40.968 11.8879 41.1166 11.7465 41.178 11.5855C41.2496 11.3979 41.2766 11.1202 41.1382 10.9047ZM40.9408 11.4957C40.9139 11.5665 40.8309 11.67 40.6855 11.7287C40.5452 11.7855 40.3015 11.8179 39.94 11.6479C39.5699 11.474 39.307 11.2718 39.0531 11.0762C38.8424 10.914 38.6434 10.7609 38.3921 10.6256C38.3453 10.6002 38.287 10.607 38.2469 10.643C38.2071 10.6788 38.1942 10.736 38.2148 10.7856L38.3657 11.1515C38.1465 11.0264 37.8469 10.8029 37.6505 10.4439C37.6227 10.393 37.5644 10.3676 37.5077 10.3818C37.4516 10.3962 37.4123 10.4468 37.4123 10.5047C37.4123 10.507 37.4101 10.6836 37.2659 10.8211C37.2222 10.4832 37.037 10.0291 36.5277 9.84931C36.4859 9.83412 36.4404 9.84256 36.4061 9.86975C36.3719 9.89712 36.3543 9.94034 36.3594 9.98384C36.3625 10.0102 36.4233 10.5757 35.9434 10.8207C35.9563 10.5837 35.9358 10.2007 35.7178 9.92497C35.5585 9.7234 35.3252 9.61494 35.0247 9.60256C34.9921 9.5989 34.9577 9.61343 34.9329 9.63659C34.9079 9.65975 34.8936 9.6919 34.8926 9.72593C34.8926 9.72987 34.8779 10.07 34.7052 10.2671C34.6454 10.1777 34.5505 10.0722 34.4151 10.0212C34.2728 9.96753 34.1192 9.98328 33.9592 10.0681C33.7256 10.1922 33.5866 10.418 33.5781 10.6873C33.5692 10.9726 33.7104 11.2475 33.9382 11.3876C33.9904 11.4192 34.0583 11.4094 34.0995 11.3636C34.1162 11.3447 34.4782 10.9489 34.9504 11.1147C34.8424 11.228 34.7106 11.4037 34.6826 11.6078C34.6608 11.7657 34.7026 11.9137 34.8064 12.0478C34.8307 12.0794 34.8591 12.0949 34.9091 12.0969C34.9491 12.0962 34.9866 12.0764 35.0099 12.0438C35.0116 12.0416 35.1493 11.8526 35.3533 11.7759C35.3525 11.8839 35.3715 12.0222 35.4491 12.1487C35.5431 12.302 35.698 12.4023 35.9096 12.4467C36.3204 12.5325 36.9566 12.4567 37.6297 12.3767C38.4353 12.2809 39.268 12.1815 39.7243 12.3565C40.0905 12.4967 40.5514 12.8293 40.6447 13.3053C40.7344 13.7617 40.4818 14.2726 39.8945 14.8236C39.8453 14.8696 39.8408 14.9462 39.8841 14.9977C39.8924 15.0077 40.7293 16.0225 40.4631 17.3005C40.367 17.7625 40.211 18.2335 40.06 18.6889C39.7625 19.5878 39.5056 20.364 39.7711 20.8542C40.072 21.4098 40.3645 21.4483 40.5392 21.4715C40.5732 21.4759 40.6156 21.4815 40.623 21.4851C40.6481 21.5363 40.5586 21.8049 40.1669 22.0541C39.9532 22.1903 39.8181 22.3945 39.7765 22.6451C39.7312 22.9173 39.8058 23.2233 39.9667 23.4244C40.0894 23.5777 40.112 23.8121 40.0491 23.9038C40.0367 23.9216 39.9992 23.9753 39.8502 23.9288C39.6231 23.8568 39.5121 23.7398 39.5118 23.7394C39.485 23.71 39.4465 23.6957 39.406 23.6978C39.3662 23.7015 39.3305 23.7236 39.3097 23.7575C39.3086 23.7589 39.2203 23.8961 39.0746 23.9164C38.9658 23.9311 38.8447 23.8784 38.7137 23.7588C38.6695 23.7184 38.6034 23.7147 38.5543 23.7491C38.4755 23.8051 38.2142 23.9521 38.0545 23.9022C38.0315 23.8948 37.9615 23.8723 37.9165 23.7406C37.9048 23.7068 37.8794 23.6794 37.8465 23.6653C37.8136 23.6513 37.7765 23.6514 37.7438 23.6664C37.5896 23.7365 37.3961 23.7804 37.3589 23.7636C37.3589 23.7636 37.3528 23.7444 37.3687 23.6903C37.4564 23.3877 37.8135 23.3153 38.0499 23.2674C38.0933 23.2585 38.1326 23.2505 38.1656 23.2422C38.1916 23.2358 38.2215 23.2298 38.2534 23.2236C38.4862 23.1773 38.9703 23.081 38.9095 22.4722C38.8965 22.3442 38.9003 22.2261 38.9035 22.1118C38.9146 21.7368 38.9251 21.3827 38.3358 20.9586C38.1185 20.8019 37.909 20.6614 37.7077 20.5263C37.2493 20.2185 36.8534 19.953 36.4908 19.5904C35.7424 18.8416 34.8509 18.6222 33.8401 18.9387C33.2422 19.126 32.7445 19.353 32.2632 19.5726C31.7792 19.7934 31.3152 19.9992 30.8069 20.1399C31.2082 19.3772 31.4279 18.3659 31.3827 17.8784C31.3761 17.8087 31.3125 17.7568 31.2447 17.7638C31.1749 17.7704 31.1236 17.8321 31.13 17.9019C31.1818 18.4585 30.8363 19.8254 30.2711 20.5008C29.9408 20.8956 29.8497 21.3424 30.0391 21.639C30.1568 21.8229 30.3564 21.9109 30.6077 21.9133C30.4704 22.1297 30.1859 22.4561 29.6774 22.5727C29.6434 22.5806 29.6141 22.602 29.5963 22.6323C29.5786 22.6624 29.5742 22.6985 29.5842 22.732C29.5863 22.7394 29.7961 23.4741 29.433 23.7836C29.4239 23.7889 29.2044 23.9001 28.7861 23.7086C28.7387 23.6871 28.6825 23.6965 28.645 23.733C28.6428 23.7347 28.4373 23.9273 28.2208 23.9142C28.1024 23.9115 27.996 23.8583 27.8956 23.7512C27.8494 23.7019 27.7725 23.6978 27.721 23.7413C27.706 23.7543 27.3468 24.0523 27.0802 23.7536C27.0411 23.7098 26.9778 23.6988 26.9265 23.7257C26.8247 23.7788 26.6367 23.8377 26.5567 23.7944C26.5461 23.7886 26.5138 23.7713 26.5055 23.6848C26.4878 23.5015 26.5521 23.3222 26.6774 23.2053C26.801 23.09 26.973 23.0434 27.1618 23.0752C27.8267 23.1862 28.5429 23.0403 28.6467 22.465C28.7228 22.0419 28.5476 21.5391 28.3782 21.0526C28.2507 20.6867 28.1189 20.3083 28.113 20.0018C28.1011 19.3754 28.2353 18.784 28.2366 18.778C28.2523 18.7099 28.2098 18.6418 28.1414 18.6261C28.0731 18.6095 28.0052 18.6527 27.9895 18.721C27.9836 18.7463 27.8467 19.3478 27.8593 20.0066C27.862 20.1363 27.8865 20.2743 27.9188 20.4147C26.9561 20.059 26.3135 19.5055 26.0149 18.7633C25.665 17.8935 25.8635 16.9605 26.1397 16.4257C26.5351 15.6604 27.0725 15.2232 27.5043 14.8717C27.7073 14.7066 27.889 14.5579 28.0186 14.4026C28.0049 14.6135 27.8255 15.0377 27.6298 15.3775C27.6037 15.4227 27.6079 15.4793 27.6406 15.5201C27.6733 15.5608 27.7278 15.5773 27.7774 15.5619C27.8864 15.5278 28.0833 15.4318 28.2278 15.3581L28.2685 15.9985C28.2715 16.0459 28.3008 16.0877 28.3444 16.1067C28.3882 16.1259 28.4388 16.1188 28.4754 16.0885C28.6464 15.9482 28.8078 15.7611 28.9196 15.6198L29.0457 16.0181C29.0578 16.0564 29.0876 16.0869 29.1257 16.0999C29.164 16.1128 29.2058 16.1071 29.2389 16.0841C29.4196 15.959 29.5962 15.7586 29.7064 15.621L29.9472 16.0049C29.9716 16.0439 30.0153 16.069 30.061 16.0642C30.1067 16.062 30.1479 16.0353 30.1683 15.9941L30.4493 15.432L30.6863 16.0764C30.6995 16.1124 30.7283 16.1403 30.7646 16.1527C30.7778 16.1574 30.7917 16.1594 30.8053 16.1594C30.829 16.1594 30.8526 16.1528 30.8731 16.14L31.4942 15.7482C31.8224 15.9306 32.2972 16.0065 32.3186 16.0101C32.3568 16.0151 32.3966 16.004 32.4252 15.9771C32.4537 15.9503 32.4683 15.9117 32.4647 15.8727L32.4141 15.3435L32.964 15.3352C33.0273 15.3341 33.0802 15.2866 33.088 15.2239C33.0957 15.161 33.0559 15.1021 32.9948 15.0858C32.9348 15.0698 32.7972 14.9411 32.6797 14.8094C32.6946 14.8084 32.7014 14.8077 32.7085 14.8072C33.0247 14.8313 38.3927 15.2264 39.5698 14.3702C40.2245 13.8941 40.1787 13.4614 40.093 13.2459C39.9164 12.8007 39.274 12.5168 38.6334 12.5984C38.3786 12.6311 38.1047 12.6798 37.8209 12.7307C37.0175 12.8746 36.1069 13.0377 35.3602 12.8547C35.069 12.7834 34.8193 12.6889 34.599 12.6056C34.2262 12.4645 33.9566 12.3624 33.7501 12.4857C33.6645 12.5369 33.6025 12.6204 33.561 12.7424C33.4285 12.5946 33.2815 12.3247 33.4756 11.9591C33.5012 11.9111 33.4931 11.852 33.4556 11.8122C33.4482 11.8043 32.7121 11.0154 33.0585 10.1495C33.3696 9.37184 34.5939 8.93291 35.9695 9.10765C37.1531 9.25737 38.3935 10.1665 39.2142 10.768C39.731 11.1466 40.0092 11.3453 40.1975 11.3699C40.2352 11.3754 40.2723 11.3623 40.3001 11.3367C40.3278 11.3112 40.3425 11.2743 40.3405 11.2366C40.3404 11.2349 40.3326 11.0655 40.4277 10.9715C40.4796 10.9201 40.5554 10.8975 40.6601 10.9054C40.7832 10.9135 40.8722 10.9591 40.925 11.0411C41.0067 11.1692 40.9919 11.3617 40.9408 11.4957ZM36.9527 23.7615C36.8296 23.8038 36.6917 23.7756 36.5409 23.6766C36.4935 23.6455 36.4309 23.6499 36.3882 23.6868C36.373 23.7 36.0104 24.0062 35.663 23.7261C35.6156 23.6879 35.5469 23.6892 35.5002 23.7291C35.4626 23.7614 35.1216 24.0361 34.782 23.7182C34.7419 23.6809 34.6826 23.6733 34.635 23.6992C34.4623 23.7924 34.2212 23.8686 34.1567 23.8296C34.1461 23.8233 34.1456 23.7893 34.1456 23.7825C34.1456 23.6481 34.2279 23.5478 34.2968 23.4875C34.457 23.3474 34.7114 23.2731 34.9324 23.3021C35.413 23.3664 35.7633 23.0367 35.8268 22.888C35.8829 22.7569 35.9756 21.5187 35.5326 20.8773C35.4427 20.7472 35.3438 20.6224 35.2445 20.4977C34.9076 20.0739 34.5922 19.6713 34.6492 19.0589C35.2647 19.046 35.8223 19.2815 36.3111 19.7703C36.5669 20.0261 36.8442 20.238 37.1347 20.4417C37.0221 20.5574 36.8406 20.7759 36.8268 20.9981C36.8201 21.1074 36.8547 21.2076 36.9267 21.2877C37.1108 21.492 37.3214 21.4825 37.4606 21.4757C37.4846 21.4744 37.5168 21.4726 37.5403 21.4743C37.5049 21.5604 37.3734 21.7401 37.2823 21.8641C37.0307 22.2073 36.868 22.4462 36.8956 22.6312C36.9146 22.7573 36.9642 22.9476 37.0122 23.1317C37.058 23.3071 37.1271 23.5723 37.1239 23.6236C37.1172 23.6433 37.0602 23.7241 36.9527 23.7615ZM37.4869 22.0141C37.7307 21.6814 37.8546 21.5012 37.7829 21.3579C37.7093 21.2106 37.5589 21.2169 37.4488 21.2226C37.3307 21.2282 37.2188 21.2332 37.1153 21.1182C37.0884 21.0883 37.0774 21.0563 37.0799 21.0144C37.0887 20.8694 37.2522 20.6814 37.3464 20.5891C37.4192 20.6385 37.4916 20.6879 37.5659 20.7378C37.7651 20.8715 37.9722 21.0105 38.1871 21.1652C38.667 21.5108 38.66 21.7473 38.6497 22.1052C38.6461 22.2218 38.6423 22.354 38.6568 22.4983C38.692 22.8506 38.4911 22.9184 38.2037 22.9755C38.1674 22.9827 38.1335 22.9896 38.1036 22.9971C38.0739 23.0045 38.0383 23.0117 37.999 23.0198C37.8157 23.0569 37.5227 23.1196 37.319 23.3095C37.3022 23.2408 37.2818 23.1612 37.2574 23.0682C37.2112 22.8905 37.1633 22.7068 37.1462 22.594C37.1322 22.4982 37.363 22.1834 37.4869 22.0141ZM24.634 19.6473C24.5813 19.6529 24.5334 19.6742 24.4896 19.7121C24.4146 19.6285 24.3142 19.4658 24.3142 19.1945C24.3142 18.7912 24.2001 18.5906 24.1275 18.5032C24.1456 18.4772 24.1632 18.4509 24.1761 18.4221C24.2325 18.2969 24.2165 18.1665 24.1284 18.0334C24.1695 17.9473 24.1979 17.8296 24.1626 17.7108C24.214 17.6236 24.2537 17.4875 24.2128 17.321C24.2445 17.2793 24.2836 17.2176 24.3133 17.1399C24.8964 17.7842 25.5925 18.3356 25.6395 18.3727C25.6724 18.535 25.7145 18.6978 25.7793 18.8589C25.9774 19.3515 26.313 19.7651 26.774 20.1015C26.5579 20.3949 26.1536 20.7762 25.6531 20.4421C25.4209 20.2873 25.2458 20.1031 25.1053 19.9552C24.9254 19.7664 24.794 19.6294 24.634 19.6473ZM23.5726 20.7652C23.5987 20.7953 23.6364 20.8103 23.6775 20.8081C23.7172 20.8051 23.7534 20.7837 23.7748 20.7502C23.7885 20.7291 23.8545 20.6466 23.928 20.6318C23.9491 20.6271 23.9834 20.6255 24.0334 20.6594C24.0666 20.6824 24.0853 20.7583 24.0572 20.8413C24.0071 20.9902 23.8488 21.0721 23.6319 21.0624C23.5782 21.058 23.5278 21.0918 23.5078 21.1422C23.4879 21.1926 23.502 21.2502 23.5432 21.2854L23.7502 21.4628L23.4125 21.545C23.3677 21.5559 23.3324 21.5903 23.3202 21.6347C23.3196 21.6369 23.2692 21.8168 23.1684 21.9685C23.0674 21.8168 23.017 21.6369 23.0164 21.6347C23.0042 21.5903 22.9688 21.5559 22.9241 21.545L22.5864 21.4628L22.7932 21.2854C22.8343 21.25 22.8485 21.1926 22.8285 21.1422C22.8084 21.0919 22.7544 21.0575 22.7045 21.0624C22.4849 21.0727 22.3294 20.9902 22.2793 20.8415C22.2513 20.7584 22.27 20.6824 22.3032 20.6594C22.3522 20.6259 22.3862 20.6275 22.4078 20.6317C22.4789 20.6455 22.5434 20.7225 22.5617 20.7503C22.5833 20.7838 22.6194 20.8053 22.6589 20.8082C22.6968 20.8099 22.7376 20.795 22.7638 20.7653C23.0856 20.3976 22.9482 19.9841 22.7896 19.7522C22.911 19.6005 23.0353 19.3578 23.0638 19.3005C23.0857 19.2571 23.073 19.2065 23.0434 19.1679C23.0135 19.1296 22.9562 19.1133 22.9094 19.1228C22.8374 19.1379 22.6181 19.1839 22.4921 19.0868C22.4483 19.0532 22.4386 18.9611 22.4722 18.9013C22.4835 18.8806 22.5194 18.8189 22.6511 18.869C22.7762 18.9172 22.956 18.9692 23.0683 18.868C23.0938 18.845 23.1087 18.8178 23.1194 18.7899C23.1527 18.7949 23.1865 18.7967 23.2204 18.7997C23.2313 18.8241 23.2455 18.8477 23.2681 18.868C23.381 18.9693 23.5604 18.9172 23.6855 18.869C23.8176 18.8184 23.8528 18.8807 23.8644 18.9013C23.8981 18.9613 23.8882 19.0533 23.8442 19.087C23.7183 19.1844 23.4991 19.138 23.411 19.1197C23.3633 19.1097 23.3149 19.1285 23.2854 19.167C23.256 19.2055 23.2511 19.2573 23.2726 19.3007C23.3012 19.3578 23.4254 19.6007 23.5468 19.7524C23.3884 19.984 23.2511 20.3976 23.5726 20.7652ZM23.9841 17.1993C23.9468 17.2344 23.9342 17.2884 23.9522 17.3363C24.0147 17.5029 23.9359 17.5954 23.9284 17.6036C23.8881 17.6438 23.8797 17.7058 23.9076 17.7556C23.9598 17.8484 23.8753 17.9647 23.875 17.965C23.8387 18.0128 23.8404 18.0791 23.8794 18.1248C23.9791 18.2412 23.9558 18.2929 23.9446 18.3177C23.9088 18.3974 23.8317 18.4595 23.7155 18.5023C23.5969 18.5461 23.4583 18.5591 23.3234 18.5552C23.3185 18.5554 23.3135 18.5546 23.3086 18.5555C23.1485 18.5491 22.9948 18.5169 22.888 18.4666C22.831 18.4398 22.7596 18.3957 22.7443 18.3385C22.7306 18.2867 22.7663 18.2347 22.7662 18.2347C22.787 18.2069 22.7955 18.1719 22.79 18.1377C22.7842 18.1035 22.7648 18.0731 22.7361 18.0536C22.67 18.0087 22.6648 17.9704 22.6631 17.9578C22.655 17.8986 22.7015 17.828 22.7179 17.8087C22.7412 17.782 22.7522 17.747 22.7487 17.7118C22.745 17.6768 22.7268 17.6448 22.6986 17.6236C22.6599 17.5945 22.5954 17.5378 22.5962 17.4833C22.5971 17.4271 22.6615 17.3695 22.6831 17.3545C22.7169 17.3315 22.7343 17.2915 22.7354 17.2509C22.7366 17.2101 22.715 17.1689 22.6826 17.1442C22.6496 17.1189 22.6183 16.9958 22.633 16.9533C22.7866 16.9829 22.9533 17.0011 23.1358 17.0027C23.1452 17.0027 23.1547 17.0029 23.1641 17.0029C23.5079 17.0029 23.809 16.9408 24.0543 16.8367C24.0695 16.8557 24.0851 16.8747 24.1005 16.8937C24.1034 17.0753 23.9887 17.1948 23.9841 17.1993ZM23.1384 16.749C22.4521 16.7427 21.9974 16.5223 21.9223 16.1593C21.9 16.0514 21.9195 15.9666 21.9818 15.8999C22.0592 15.817 22.2025 15.7685 22.3569 15.7685C22.3901 15.7685 22.4238 15.7707 22.4575 15.7754C22.4932 15.7802 22.4991 15.7915 22.5013 15.7957C22.5279 15.8455 22.4932 15.9891 22.4454 16.0869C22.415 16.1489 22.4398 16.2239 22.5011 16.2557C22.9533 16.489 23.6078 16.3867 23.7799 16.3086C23.8006 16.2992 23.8632 16.2709 23.8803 16.2023C23.8939 16.1484 23.8759 16.1013 23.8584 16.0558C23.8272 15.9737 23.7946 15.889 23.8863 15.7691C23.9353 15.7048 24.0419 15.7345 24.0733 15.7452C24.2247 15.7964 24.3776 15.9543 24.3776 16.1572C24.3776 16.2516 24.3346 16.3421 24.2499 16.4262C24.0414 16.6328 23.6238 16.7473 23.1384 16.749ZM23.6047 16.1005C23.4354 16.1425 23.04 16.189 22.7231 16.0756C22.7602 15.9635 22.7917 15.8016 22.7253 15.6767C22.7224 15.6714 22.7176 15.6656 22.7143 15.6599L22.686 11.6692C22.7176 9.30097 23.8116 8.43594 24.3247 8.16013C24.0948 8.87703 23.641 10.9016 23.6588 15.6607C23.5441 15.8417 23.5709 16.0015 23.6047 16.1005ZM27.0633 13.9516L26.9302 14.2459C26.869 14.1813 26.7921 14.0771 26.7295 13.9185C26.7058 13.8587 26.6416 13.8252 26.579 13.8426L26.1064 13.9676L26.2146 13.7033C26.2315 13.662 26.2255 13.6151 26.1988 13.5793C26.1724 13.5435 26.1279 13.5235 26.0847 13.529L25.5109 13.5863L25.7238 13.0078C25.9771 13.0818 26.604 13.2511 27.2478 13.3181L27.154 13.4349C27.1201 13.4771 27.1168 13.5359 27.1453 13.5818C27.1741 13.6275 27.2287 13.6501 27.2813 13.6379C27.288 13.6365 27.9692 13.4821 28.4329 13.5482C28.4855 13.5546 28.5368 13.5296 28.5622 13.4834C28.5876 13.437 28.5815 13.3796 28.5469 13.3397C28.2762 13.0266 27.5486 12.1525 27.4336 11.8733C27.412 11.8206 27.3576 11.7907 27.3015 11.7955C27.2451 11.8022 27.1999 11.8456 27.1911 11.9018L27.1274 12.3076C27.0305 12.2434 26.9015 12.1383 26.7933 11.9829C26.7623 11.9382 26.7067 11.9181 26.6544 11.9336C26.6022 11.9485 26.5653 11.9948 26.5625 12.049C26.5618 12.0613 26.5598 12.1107 26.5628 12.1774C26.2362 11.8868 25.7118 11.3567 25.5415 10.8188C25.4465 10.519 25.4539 10.2973 25.5629 10.1774C25.6582 10.0728 25.8178 10.0615 25.9015 10.0792C25.9903 10.0982 26.0751 10.1611 26.1279 10.2475C26.1796 10.3321 26.1952 10.4266 26.1718 10.5144C26.1614 10.5535 26.1702 10.5953 26.1958 10.6268C26.2213 10.6584 26.2611 10.6766 26.3007 10.6737C26.6205 10.6578 28.2287 10.5519 28.4887 10.0251C28.525 9.9514 28.5504 9.84237 28.4967 9.70897C28.6668 9.61184 29.0871 9.46784 29.6316 9.9544C29.676 9.99425 29.7426 9.99734 29.7913 9.962C29.9167 9.86984 30.1052 9.64831 30.082 9.37878C30.2716 9.40259 30.5979 9.49859 30.8241 9.86319C30.8449 9.89656 30.8798 9.91831 30.9188 9.92244C30.9575 9.92628 30.9962 9.9124 31.0235 9.88419C31.0335 9.87378 31.2394 9.65694 31.3244 9.389C31.4758 9.42434 31.7761 9.53825 32.0696 9.90697C32.0915 9.93462 32.1238 9.95178 32.159 9.95459C32.1714 9.95478 32.3329 9.96444 32.5414 9.9034C31.9008 10.4195 30.8597 10.5251 30.8461 10.5264C30.7993 10.5308 30.7589 10.5606 30.7407 10.6038C30.7227 10.647 30.73 10.697 30.7598 10.7331L30.9405 10.9534C30.2238 10.9667 29.9082 10.7074 29.9053 10.705C29.8589 10.6647 29.7907 10.6637 29.7426 10.7014C29.6947 10.7398 29.6812 10.807 29.7104 10.861L29.8675 11.151C29.5857 11.0921 29.3272 10.9606 29.1104 10.8501C28.8374 10.7111 28.6215 10.6017 28.4323 10.6578C28.291 10.7001 28.1879 10.8278 28.1633 10.9911C28.1367 11.169 28.2092 11.339 28.3526 11.4345C28.4256 11.4833 28.5088 11.5071 28.5926 11.5071C28.7108 11.5071 28.8303 11.4597 28.9242 11.3682C29.0008 11.2933 29.0469 11.2024 29.0604 11.1091C29.3461 11.2539 29.6939 11.4175 30.0912 11.4345C30.1359 11.44 30.1801 11.4138 30.2042 11.3751C30.2285 11.3364 30.23 11.2875 30.2082 11.2474L30.1252 11.0943C30.3649 11.1751 30.7209 11.2396 31.2086 11.191C31.2552 11.1863 31.2953 11.1567 31.3133 11.1133C31.3311 11.0701 31.3237 11.0205 31.2942 10.9843L31.0998 10.7474C31.498 10.6812 32.3152 10.4889 32.8309 9.98881C32.7461 10.2226 32.6078 10.4636 32.3799 10.5955C32.348 10.614 32.326 10.6458 32.319 10.6821C32.3123 10.7184 32.3218 10.7562 32.3448 10.7851C32.3491 10.7906 32.7596 11.3262 32.6316 12.7263C32.3968 12.6056 31.9456 12.319 31.6904 11.8015C31.6633 11.7466 31.6017 11.7193 31.5415 11.7357C31.4825 11.7526 31.4442 11.8095 31.4504 11.8707C31.4674 12.0351 31.4812 12.298 31.4663 12.4829C31.3292 12.3847 31.1372 12.2241 31.058 12.0486C31.0357 11.9988 30.9841 11.9678 30.93 11.9746C30.8758 11.9799 30.8312 12.0191 30.8188 12.072C30.7868 12.2101 30.744 12.3702 30.7092 12.4787C30.583 12.3996 30.4152 12.2745 30.3455 12.146C30.3186 12.0962 30.2622 12.0702 30.2063 12.0827C30.151 12.0949 30.1107 12.1427 30.1074 12.1993C30.0991 12.3462 30.0797 12.5726 30.0551 12.7292C29.9384 12.6578 29.7744 12.5499 29.6532 12.4402C29.6202 12.4105 29.5742 12.3994 29.5319 12.4125C29.4896 12.4251 29.4567 12.4589 29.4453 12.5019L29.3802 12.7491C29.2712 12.6858 29.1201 12.5849 29.0213 12.4643C28.977 12.41 28.897 12.402 28.843 12.4465C28.7887 12.4907 28.7807 12.5707 28.8252 12.6248C29.0319 12.8773 29.3945 13.0441 29.4099 13.0511C29.4441 13.0663 29.4827 13.066 29.5167 13.0502C29.5506 13.0342 29.5755 13.004 29.5851 12.9678L29.6408 12.7562C29.8465 12.9093 30.0666 13.0301 30.0781 13.0363C30.11 13.0535 30.1477 13.0562 30.1819 13.0444C30.2161 13.032 30.2433 13.0057 30.2567 12.9721C30.2938 12.8791 30.32 12.6883 30.3368 12.5193C30.51 12.6699 30.7045 12.7682 30.7166 12.7742C30.776 12.8038 30.8477 12.7828 30.8821 12.726C30.9179 12.666 30.9605 12.5317 30.9961 12.4041C31.2015 12.6355 31.4777 12.7941 31.493 12.8029C31.5249 12.8209 31.5636 12.824 31.5986 12.812C31.6334 12.7994 31.661 12.7723 31.6742 12.7376C31.7125 12.6371 31.7252 12.478 31.7264 12.3216C31.968 12.6167 32.2476 12.8047 32.4452 12.9137C32.4452 12.9168 32.4438 12.9195 32.444 12.9227C32.4453 12.945 32.4731 13.3697 32.5458 13.7083C32.3329 13.6295 31.9906 13.4689 31.6744 13.1711C31.644 13.1424 31.6011 13.1308 31.5604 13.1396C31.5194 13.1485 31.4856 13.177 31.4698 13.2157L31.3722 13.4567L30.9642 13.1607C30.9282 13.1347 30.8808 13.1291 30.8394 13.147C30.7982 13.1647 30.7695 13.2026 30.7637 13.2471L30.7269 13.53C30.6382 13.4658 30.5318 13.3809 30.4558 13.2955C30.409 13.2428 30.3285 13.2384 30.2768 13.2849C30.2245 13.3315 30.2197 13.4116 30.2662 13.4639C30.4459 13.6661 30.7475 13.8504 30.7602 13.8581C30.7971 13.8807 30.8425 13.8824 30.881 13.864C30.9198 13.8454 30.9463 13.8086 30.9521 13.766L30.9878 13.4913L31.3543 13.7573C31.3857 13.7801 31.4262 13.7869 31.4637 13.7764C31.5013 13.7656 31.5317 13.7382 31.5464 13.7022L31.6377 13.4766C31.8726 13.6696 32.1059 13.7963 32.2959 13.88C32.2968 13.9589 32.3092 14.2949 32.451 14.56C32.2186 14.5539 31.8544 14.5131 31.5171 14.3443C31.4601 14.3153 31.3894 14.3343 31.3541 14.3888L31.1703 14.6719L30.4105 14.1621C30.3781 14.1401 30.3373 14.1341 30.3006 14.1469C30.2636 14.1588 30.234 14.1872 30.2206 14.2237L30.1038 14.5418C29.9639 14.3848 29.7634 14.164 29.6895 14.1049C29.6378 14.0633 29.5625 14.0691 29.5173 14.1178C29.5152 14.1201 29.3377 14.3102 29.1252 14.458L28.9787 14.0647C28.9543 13.9993 28.8809 13.9656 28.8155 13.99C28.7498 14.0143 28.7164 14.0876 28.7408 14.1532L28.9417 14.6923C28.9546 14.727 28.982 14.7543 29.0167 14.7671C29.0513 14.7798 29.0898 14.777 29.1222 14.759C29.321 14.6486 29.5068 14.4839 29.6127 14.3819C29.7303 14.5033 29.9279 14.7247 30.0538 14.8691C30.0835 14.9028 30.1283 14.9189 30.1724 14.9103C30.2165 14.9022 30.2531 14.8715 30.2685 14.8294L30.4032 14.4628L31.1359 14.9545C31.157 14.9685 31.1817 14.976 31.2066 14.976C31.2149 14.976 31.2236 14.9752 31.232 14.9733C31.2654 14.9666 31.2945 14.9467 31.3129 14.9182L31.5067 14.6193C31.8324 14.7599 32.1581 14.8016 32.3918 14.8115C32.3905 14.8417 32.3986 14.8724 32.4193 14.8976C32.4503 14.9355 32.5134 15.0101 32.5896 15.0875L32.2723 15.0923C32.237 15.0928 32.2034 15.1081 32.1799 15.1346C32.1563 15.1608 32.1447 15.1958 32.148 15.2312L32.1954 15.7278C32.0202 15.6885 31.7425 15.6121 31.5615 15.4937C31.5195 15.4663 31.4663 15.4657 31.4243 15.4924L30.8698 15.8423L30.5858 15.0697C30.5683 15.0221 30.5244 14.9896 30.4737 14.9867C30.4186 14.9828 30.3758 15.0114 30.3531 15.0567L30.0417 15.6793L29.8236 15.3314C29.8009 15.2954 29.7618 15.2731 29.7193 15.272C29.6771 15.2726 29.6369 15.2911 29.6123 15.3259C29.6101 15.329 29.4335 15.5784 29.2311 15.7648L29.0863 15.3078C29.0716 15.2616 29.0321 15.2277 28.984 15.2206C28.9356 15.2142 28.8882 15.2344 28.8608 15.2745C28.8588 15.2775 28.7025 15.5046 28.5042 15.7137L28.4683 15.1479C28.4656 15.1049 28.4412 15.0661 28.4034 15.0451C28.3657 15.024 28.3197 15.0236 28.2818 15.0441C28.2272 15.0733 28.1263 15.1262 28.0208 15.1783C28.17 14.8685 28.3393 14.4332 28.2431 14.209C28.2144 14.142 28.1604 14.0977 28.0958 14.0702C28.0917 14.0674 28.089 14.0634 28.0847 14.061C28.0788 14.0578 28.0724 14.0576 28.0663 14.0554C28.062 14.0542 28.0592 14.0506 28.0547 14.0496C28.0497 14.0484 28.0458 14.0487 28.0408 14.0477C28.0382 14.0474 28.0358 14.0469 28.0331 14.0467C27.861 14.0109 27.7437 14.0589 27.6761 14.1083C27.6069 14.1589 27.5612 14.226 27.5313 14.2907C27.4525 14.2146 27.3572 14.1011 27.2957 13.9546C27.2763 13.908 27.2309 13.8775 27.1806 13.8768C27.1301 13.8736 27.0843 13.9057 27.0633 13.9516ZM26.0986 12.536C26.7844 12.8666 27.6272 12.9031 27.8576 12.9073C27.9678 13.0443 28.0753 13.1751 28.1616 13.2777C27.9508 13.2786 27.7359 13.3024 27.5652 13.3279L27.5952 13.2905C27.625 13.2535 27.6314 13.2029 27.6122 13.1595C27.5931 13.1163 27.5511 13.0872 27.5039 13.0843C26.6428 13.0331 25.6942 12.7339 25.6848 12.7306C25.6844 12.7305 25.6841 12.7306 25.6837 12.7305C25.6837 12.7305 25.6833 12.7302 25.6829 12.7301C25.5416 12.6875 25.4593 12.6148 25.451 12.5259C25.4446 12.4556 25.4836 12.3986 25.5072 12.3863C25.644 12.3156 25.932 12.4552 26.0986 12.536ZM27.2971 12.6075C27.3245 12.5878 27.3448 12.5596 27.3501 12.5259L27.3872 12.288C27.4633 12.3987 27.5554 12.5211 27.6505 12.6445C27.5523 12.6377 27.4317 12.6261 27.2971 12.6075ZM27.0738 12.5716C27.0119 12.5602 26.9483 12.5468 26.8839 12.532C26.8896 12.5048 26.8862 12.4757 26.8732 12.4496C26.8695 12.4423 26.8663 12.4346 26.863 12.4268C26.9432 12.4926 27.0174 12.5397 27.0738 12.5716ZM28.7469 11.1867C28.6892 11.2436 28.588 11.2867 28.4933 11.2238C28.4207 11.1754 28.405 11.0915 28.4142 11.029C28.4216 10.9802 28.4496 10.9177 28.505 10.9011C28.5156 10.898 28.5277 10.8964 28.5408 10.8964C28.6017 10.8964 28.6885 10.9283 28.7877 10.9737L28.7878 10.9739C28.8522 11.0759 28.7651 11.169 28.7469 11.1867ZM33.5703 13.0857C33.6066 13.1089 33.6525 13.1117 33.6921 13.0935C33.7312 13.0752 33.7583 13.0379 33.764 12.9951C33.7851 12.8355 33.8241 12.7376 33.8801 12.7041C33.9811 12.6434 34.226 12.7362 34.509 12.8435C34.7247 12.9252 34.9933 13.0268 35.2993 13.1018C36.098 13.2974 37.0369 13.1294 37.8651 12.981C38.1449 12.931 38.4145 12.8828 38.6651 12.8507C39.189 12.784 39.7232 13.0033 39.8569 13.3401C39.9579 13.5942 39.8027 13.8875 39.4201 14.1657C38.3595 14.9369 33.2812 14.5945 32.7634 14.5574C32.6257 14.4263 32.5718 14.1578 32.5557 13.9809C32.6395 14.0076 32.6956 14.0209 32.7028 14.0225C32.7115 14.0244 32.7202 14.0252 32.7289 14.0252C32.7652 14.0252 32.8003 14.0095 32.8249 13.9814C32.855 13.9464 32.8639 13.8981 32.8481 13.8547C32.7689 13.6388 32.7254 13.2399 32.7073 13.0357C32.7409 13.0449 32.7763 13.0416 32.8062 13.0231C32.8392 13.0029 32.861 12.9684 32.8656 12.9299C33.0156 11.6555 32.7539 10.991 32.6168 10.7421C32.6501 10.7167 32.6812 10.6892 32.7109 10.6605C32.7201 11.2629 33.0695 11.7473 33.2124 11.9202C32.9573 12.4979 33.3277 12.9319 33.5703 13.0857Z" fill="#464655"/>
<path d="M20.8458 6.55376C20.7966 5.5318 20.554 3.87899 19.7785 3.84111C19.3414 3.82096 19.1261 4.09002 19.1172 4.10155C19.0916 4.13474 19.0496 4.15339 19.0089 4.15133L18.7125 4.13352L18.7656 4.32992C18.7783 4.37727 18.7623 4.42817 18.7248 4.45996C18.7068 4.47514 18.2878 4.83908 18.5428 5.30258C18.737 5.65573 19.3649 5.82289 19.8232 5.94477C20.0279 5.99933 20.2048 6.04639 20.3195 6.10255C20.5241 6.20258 20.7032 6.37133 20.8458 6.55376Z" fill="#FFD250"/>
<path d="M19.7906 3.58772C19.3446 3.56588 19.067 3.78816 18.9626 3.89438L18.5516 3.86972C18.5126 3.86663 18.4715 3.88472 18.4456 3.91631C18.4198 3.94791 18.4107 3.99 18.4213 4.02947L18.5003 4.32234C18.2987 4.52803 18.0617 4.95516 18.3201 5.42475C18.5665 5.87306 19.2551 6.05615 19.7576 6.19003C19.9496 6.24103 20.1153 6.28518 20.2079 6.33037C20.5051 6.47568 20.7438 6.80624 20.868 7.06724C20.8893 7.11215 20.9344 7.13953 20.9826 7.13953C20.9917 7.13953 21.0008 7.13849 21.01 7.13653C21.0676 7.12378 21.1088 7.07287 21.1093 7.0139C21.1106 6.87684 21.1269 3.65288 19.7906 3.58772ZM19.8229 5.94468C19.3646 5.82281 18.7367 5.65565 18.5425 5.3025C18.2875 4.83909 18.7065 4.47516 18.7245 4.45987C18.7619 4.42809 18.778 4.37728 18.7653 4.32984L18.7122 4.13344L19.0086 4.15125C19.0494 4.15341 19.0914 4.13466 19.1169 4.10147C19.1258 4.08984 19.3411 3.82078 19.7782 3.84103C20.5538 3.87891 20.7963 5.53172 20.8455 6.55368C20.7029 6.37134 20.5238 6.2025 20.3191 6.10246C20.2046 6.04621 20.0276 5.99915 19.8229 5.94468Z" fill="#464655"/>
<path d="M42.0507 6.55376C42.0999 5.5318 42.3426 3.87899 43.1181 3.84111C43.5551 3.82096 43.7705 4.09002 43.7794 4.10155C43.805 4.13474 43.847 4.15339 43.8877 4.15133L44.184 4.13352L44.1309 4.32992C44.1182 4.37727 44.1342 4.42817 44.1717 4.45996C44.1897 4.47514 44.6088 4.83908 44.3538 5.30258C44.1595 5.65573 43.5317 5.82289 43.0733 5.94477C42.8687 5.99933 42.6918 6.04639 42.577 6.10255C42.3725 6.20258 42.1932 6.37133 42.0507 6.55376Z" fill="#FFD250"/>
<path d="M41.7871 7.01393C41.7877 7.0729 41.8289 7.1238 41.8864 7.13655C41.8956 7.13852 41.9047 7.13955 41.9138 7.13955C41.9619 7.13955 42.007 7.11218 42.0283 7.06727C42.1525 6.80627 42.3912 6.47571 42.6884 6.3304C42.7811 6.28512 42.9467 6.24105 43.1386 6.19005C43.6413 6.05627 44.3297 5.87309 44.5762 5.42478C44.8345 4.95509 44.5975 4.52797 44.396 4.32237L44.475 4.0295C44.4856 3.98993 44.4764 3.94784 44.4507 3.91634C44.4249 3.88475 44.3837 3.86656 44.3447 3.86975L43.9337 3.8944C43.8293 3.78837 43.5517 3.56609 43.1057 3.58775C41.7696 3.65272 41.7858 6.87668 41.7871 7.01393ZM42.5772 6.10221C42.3725 6.20234 42.1933 6.37118 42.0508 6.55343C42.1 5.53146 42.3426 3.87865 43.1181 3.84078C43.5552 3.82062 43.7705 4.08968 43.7794 4.10122C43.805 4.1344 43.847 4.15306 43.8877 4.151L44.1841 4.13318L44.131 4.32959C44.1182 4.37693 44.1343 4.42784 44.1718 4.45962C44.1898 4.47481 44.6088 4.83874 44.3538 5.30224C44.1596 5.6554 43.5317 5.82256 43.0734 5.94443C42.8689 5.99899 42.6919 6.04605 42.5772 6.10221Z" fill="#464655"/>
<path d="M42.0507 25.4462C42.0999 26.4682 42.3426 28.121 43.1181 28.1588C43.5551 28.179 43.7705 27.9099 43.7794 27.8983C43.805 27.8651 43.847 27.8465 43.8877 27.8485L44.184 27.8663L44.1309 27.6699C44.1182 27.6226 44.1342 27.5717 44.1717 27.5399C44.1897 27.5247 44.6088 27.1608 44.3538 26.6973C44.1595 26.3441 43.5317 26.177 43.0733 26.0551C42.8687 26.0005 42.6918 25.9535 42.577 25.8973C42.3725 25.7975 42.1932 25.6286 42.0507 25.4462Z" fill="#FFD250"/>
<path d="M43.106 28.4123C43.5519 28.4341 43.8294 28.2118 43.9339 28.1056L44.345 28.1303C44.384 28.1334 44.425 28.1153 44.4509 28.0837C44.4767 28.0521 44.4858 28.01 44.4752 27.9705L44.3962 27.6777C44.5978 27.472 44.8348 27.0448 44.5764 26.5752C44.3301 26.1269 43.6415 25.9438 43.1389 25.81C42.947 25.759 42.7812 25.7148 42.6886 25.6696C42.3914 25.5243 42.1527 25.1937 42.0285 24.9327C42.0072 24.8878 41.9621 24.8605 41.914 24.8605C41.905 24.8605 41.8959 24.8615 41.8867 24.8635C41.829 24.8762 41.7879 24.9271 41.7873 24.9861C41.7859 25.1232 41.7697 28.3471 43.106 28.4123ZM43.0736 26.0553C43.532 26.1772 44.1598 26.3443 44.3541 26.6975C44.6091 27.1609 44.19 27.5248 44.172 27.5401C44.1346 27.5719 44.1186 27.6227 44.1312 27.6702L44.1843 27.8666L43.8879 27.8487C43.8472 27.8466 43.8052 27.8653 43.7797 27.8985C43.7708 27.9102 43.5554 28.1792 43.1183 28.159C42.3428 28.1211 42.1002 26.4683 42.051 25.4463C42.1936 25.6287 42.3728 25.7975 42.5774 25.8975C42.692 25.9538 42.869 26.0008 43.0736 26.0553Z" fill="#464655"/>
<path d="M20.8458 25.4462C20.7966 26.4682 20.554 28.121 19.7785 28.1588C19.3414 28.179 19.1261 27.9099 19.1172 27.8983C19.0916 27.8651 19.0496 27.8465 19.0089 27.8485L18.7125 27.8663L18.7656 27.6699C18.7783 27.6226 18.7623 27.5717 18.7248 27.5399C18.7068 27.5247 18.2878 27.1608 18.5428 26.6973C18.737 26.3441 19.3649 26.177 19.8232 26.0551C20.0279 26.0005 20.2048 25.9535 20.3195 25.8973C20.5241 25.7975 20.7032 25.6286 20.8458 25.4462Z" fill="#FFD250"/>
<path d="M21.1095 24.9859C21.1088 24.9269 21.0676 24.876 21.0101 24.8633C21.0009 24.8613 20.9918 24.8603 20.9827 24.8603C20.9346 24.8603 20.8895 24.8876 20.8681 24.9325C20.7439 25.1935 20.5052 25.5241 20.208 25.6694C20.1153 25.7147 19.9498 25.7588 19.7578 25.8098C19.2551 25.9435 18.5667 26.1267 18.3202 26.575C18.0619 27.0447 18.2989 27.4719 18.5004 27.6774L18.4215 27.9703C18.4109 28.0099 18.4201 28.052 18.4457 28.0835C18.4715 28.1151 18.5127 28.1333 18.5517 28.1301L18.9628 28.1054C19.0671 28.2114 19.3447 28.4337 19.7907 28.4121C21.127 28.3471 21.1108 25.1231 21.1095 24.9859ZM20.3193 25.8977C20.524 25.7976 20.7032 25.6287 20.8457 25.4465C20.7965 26.4684 20.5539 28.1213 19.7784 28.1591C19.3413 28.1793 19.126 27.9102 19.1171 27.8987C19.0915 27.8655 19.0495 27.8469 19.0088 27.8489L18.7125 27.8667L18.7655 27.6703C18.7783 27.623 18.7622 27.5721 18.7247 27.5403C18.7067 27.5251 18.2877 27.1612 18.5427 26.6977C18.7369 26.3445 19.3648 26.1773 19.8231 26.0555C20.0277 26.0008 20.2047 25.9538 20.3193 25.8977Z" fill="#464655"/>
</g>
<defs>
<clipPath id="clip0_11_2819">
<rect width="48" height="32" fill="white"/>
</clipPath>
</defs>
</svg>
