<svg width="48" height="32" viewBox="0 0 48 32" fill="none" xmlns="http://www.w3.org/2000/svg">
<g clip-path="url(#clip0_11_3693)">
<path d="M47.9999 3.13496H0V1.10359C0 0.646563 0.370593 0.27597 0.827623 0.27597H47.1724C47.6294 0.27597 48 0.646563 48 1.10359L47.9999 3.13496Z" fill="#FF4B55"/>
<path d="M47.9999 3.13591H0V5.9948H47.9999V3.13591Z" fill="white"/>
<path d="M47.9999 5.99298H0V8.85188H47.9999V5.99298Z" fill="#FF4B55"/>
<path d="M47.9999 8.85236H0V11.7113H47.9999V8.85236Z" fill="white"/>
<path d="M47.9999 14.5708H0.827623C0.370593 14.5708 0 14.2003 0 13.7432V11.7119H47.9999V14.5708Z" fill="#FF4B55"/>
<path d="M47.9999 17.4294H0V13.5172H0.827436L0.827623 14.5706H47.9999V17.4294Z" fill="white"/>
<path d="M47.9999 17.4298H0V20.2887H47.9999V17.4298Z" fill="#FF4B55"/>
<path d="M47.9999 20.288H0V23.1469H47.9999V20.288Z" fill="white"/>
<path d="M47.9999 23.1473H0V26.0062H47.9999V23.1473Z" fill="#FF4B55"/>
<path d="M47.9999 26.0067H0V28.8656H47.9999V26.0067Z" fill="white"/>
<path d="M47.1723 31.7242H0.827623C0.370593 31.7242 0 31.3536 0 30.8965V28.8653H47.9999V30.8965C47.9999 31.3537 47.6293 31.7242 47.1723 31.7242Z" fill="#FF4B55"/>
<path d="M13.2413 14.5708H0.827623C0.370593 14.5708 0 14.2002 0 13.7431V1.10359C0 0.646563 0.370593 0.27597 0.827623 0.27597H13.2414C13.6984 0.27597 14.069 0.646563 14.069 1.10359V13.7431C14.0689 14.2002 13.6983 14.5708 13.2413 14.5708Z" fill="#41479B"/>
<path d="M6.79794 3.97549L6.00782 6.34455L3.51051 6.36386C3.27108 6.36574 3.1717 6.67127 3.36436 6.81358L5.37332 8.29718L4.62004 10.6782C4.54785 10.9065 4.80782 11.0954 5.00263 10.9562L7.03457 9.50402L9.06631 10.9562C9.26113 11.0954 9.5211 10.9065 9.44891 10.6782L8.69563 8.29718L10.7046 6.81358C10.8972 6.67136 10.7979 6.36565 10.5584 6.36386L8.06113 6.34455L7.27101 3.97549C7.19507 3.74824 6.87379 3.74824 6.79794 3.97549Z" fill="white"/>
</g>
<defs>
<clipPath id="clip0_11_3693">
<rect width="48" height="32" fill="white"/>
</clipPath>
</defs>
</svg>
