<svg width="48" height="32" viewBox="0 0 48 32" fill="none" xmlns="http://www.w3.org/2000/svg">
<g clip-path="url(#clip0_11_3737)">
<path d="M0 21.2411H47.9999V30.8962C47.9999 31.3533 47.6293 31.7239 47.1723 31.7239H0.827623C0.370593 31.7239 0 31.3533 0 30.8962V21.2411Z" fill="#73AF00"/>
<path d="M0.827623 0.27597H47.1724C47.6294 0.27597 48 0.646563 48 1.10359V10.7587H0V1.1035C0 0.646469 0.370593 0.27597 0.827623 0.27597Z" fill="#41479B"/>
<path d="M47.9999 10.7585H0V21.2407H47.9999V10.7585Z" fill="white"/>
<path d="M26.8572 17.867L26.6649 17.965C26.6387 17.9783 26.6105 17.9898 26.5838 18.0027L24.8844 15.856C25.2337 15.0968 25.4407 14.0605 25.4407 13.5894C25.4407 12.8153 24.9327 12.1704 24.2644 12.034C24.2197 11.933 24.119 11.8623 24.0014 11.8623C23.8839 11.8623 23.7832 11.933 23.7385 12.034C23.0702 12.1704 22.5622 12.8154 22.5622 13.5894C22.5622 14.0605 22.7693 15.0967 23.1185 15.856L21.4192 18.0027C21.3928 17.9899 21.3645 17.9784 21.3385 17.9651L21.1461 17.8672L20.4282 19.2785L20.6205 19.3764C21.6003 19.8747 22.7694 20.1382 24.0014 20.1382C25.2336 20.1382 26.403 19.8745 27.383 19.3763L27.5754 19.2784L26.8572 17.867ZM25.1528 13.5894C25.1528 13.9395 25.0227 14.6755 24.7818 15.3503C24.75 15.4391 24.7175 15.5234 24.6841 15.6033L24.4332 15.2862V14.1651H24.865L24.2892 13.5894V12.3366C24.785 12.481 25.1528 12.987 25.1528 13.5894ZM23.221 15.3502C22.98 14.6755 22.85 13.9394 22.85 13.5893C22.85 12.987 23.2178 12.481 23.7136 12.3365V13.5893L23.1379 14.165H23.5697V15.2861L23.3188 15.6032C23.2853 15.5234 23.2528 15.439 23.221 15.3502ZM21.2852 18.5455L21.344 18.7873L21.133 18.8449L21.2852 18.5455ZM21.0341 19.0958L21.3951 18.9973L21.4614 19.2701C21.3158 19.2163 21.1726 19.1592 21.0341 19.0958ZM21.5815 18.5458C21.7457 18.6108 21.9166 18.6681 22.0923 18.7192L22.1443 18.8784L21.6897 18.9905L21.5815 18.5458ZM21.7843 19.3802L21.7406 19.2003L22.2114 19.0841L22.3573 19.5314C22.1621 19.4889 21.971 19.4382 21.7843 19.3802ZM22.4233 18.8058C22.604 18.8479 22.7879 18.8842 22.9757 18.9116L23.0539 19.0515L22.5542 19.2072L22.4233 18.8058ZM22.6804 19.5938L22.6213 19.4125L23.1615 19.2442L23.4064 19.6821C23.1601 19.6637 22.9179 19.6344 22.6804 19.5938ZM23.3294 18.9541C23.5512 18.9751 23.7756 18.9867 24.0013 18.9867C24.0494 18.9867 24.0972 18.9841 24.1452 18.9831L24.2053 19.0752L23.5412 19.3329L23.3294 18.9541ZM24.0013 19.7064C23.9158 19.7064 23.8313 19.7027 23.7464 19.7001L23.6475 19.5232L24.3258 19.2601L24.6008 19.6817C24.4031 19.6963 24.2037 19.7064 24.0013 19.7064ZM24.4793 18.9685C24.7075 18.9533 24.9329 18.9273 25.1542 18.8906L25.219 18.9734L24.6932 19.2965L24.4793 18.9685ZM24.9244 19.651L24.8112 19.4773L25.3528 19.1445L25.654 19.5295C25.4162 19.5818 25.1727 19.6221 24.9244 19.651ZM25.4725 18.8304C25.6607 18.7898 25.845 18.7421 26.0235 18.6864L26.0906 18.7732L25.7083 19.1319L25.4725 18.8304ZM25.9618 19.4559L25.8418 19.3026L26.2231 18.9447L26.4889 19.2889C26.3171 19.3508 26.142 19.4078 25.9618 19.4559ZM26.3112 18.5878C26.4324 18.5428 26.5515 18.4955 26.6661 18.4434L26.7223 18.5542L26.5384 18.8823L26.3112 18.5878ZM26.7692 19.181L26.6819 19.0679L26.8402 18.7856L26.9928 19.0856C26.9198 19.1194 26.8442 19.1499 26.7692 19.181Z" fill="#464655"/>
</g>
<defs>
<clipPath id="clip0_11_3737">
<rect width="48" height="32" fill="white"/>
</clipPath>
</defs>
</svg>
