<svg width="48" height="32" viewBox="0 0 48 32" fill="none" xmlns="http://www.w3.org/2000/svg">
<g clip-path="url(#clip0_11_4573)">
<path d="M0 23.448H47.9999V30.8962C47.9999 31.3533 47.6293 31.7239 47.1723 31.7239H0.827623C0.370593 31.7239 0 31.3533 0 30.8962V23.448Z" fill="#73AF00"/>
<path d="M0.827623 0.276001H47.1724C47.6294 0.276001 48 0.646594 48 1.10362V8.55186H0V1.10353C0 0.6465 0.370593 0.276001 0.827623 0.276001Z" fill="#FF4B55"/>
<path d="M47.9999 8.5517H0V23.4485H47.9999V8.5517Z" fill="#464655"/>
<path d="M28.6928 13.3218L29.9384 14.9511L31.8832 14.3001C31.992 14.2637 32.0844 14.3867 32.0193 14.4811L30.8546 16.1691L32.0746 17.8175C32.1428 17.9097 32.0545 18.0357 31.9446 18.0029L29.9793 17.4168L28.7886 19.0866C28.722 19.18 28.5749 19.1348 28.5721 19.0202L28.5221 16.97L26.5661 16.3536C26.4568 16.3192 26.4541 16.1654 26.5623 16.1272L28.4968 15.4462L28.4787 13.3954C28.4776 13.2807 28.6231 13.2307 28.6928 13.3218Z" fill="white"/>
<path d="M25.3124 20.0216C23.0932 20.0216 21.2928 18.2214 21.2928 16C21.2928 13.7828 23.0931 11.9784 25.3124 11.9784C26.1381 11.9784 26.8996 12.2323 27.5342 12.6622C27.6313 12.728 27.7423 12.6003 27.6609 12.5157C26.7126 11.5298 25.3702 10.9282 23.882 10.979C21.325 11.0662 19.2083 13.1162 19.045 15.6694C18.8579 18.5938 21.1734 21.0242 24.0564 21.0242C25.4766 21.0242 26.7529 20.4305 27.6644 19.4812C27.7448 19.3973 27.6337 19.2715 27.5375 19.3368C26.9022 19.7673 26.1396 20.0216 25.3124 20.0216Z" fill="white"/>
</g>
<defs>
<clipPath id="clip0_11_4573">
<rect width="48" height="32" fill="white"/>
</clipPath>
</defs>
</svg>
