<svg width="48" height="32" viewBox="0 0 48 32" fill="none" xmlns="http://www.w3.org/2000/svg">
<g clip-path="url(#clip0_11_3671)">
<path d="M47.1723 31.7243H0.827623C0.370593 31.7243 0 31.3537 0 30.8966V1.10359C0 0.646563 0.370593 0.27597 0.827623 0.27597H47.1724C47.6294 0.27597 48 0.646563 48 1.10359V30.8966C47.9999 31.3538 47.6293 31.7243 47.1723 31.7243Z" fill="#FF4B55"/>
<path d="M27.9327 18.0589L34.2545 13.4204H26.4255L23.9998 5.95433L21.574 13.4204H13.745L20.0669 18.0589L17.6598 25.4672L23.9936 20.9402L23.9998 20.9446L24.0059 20.9402L30.3397 25.4672L27.9327 18.0589ZM29.2008 15.0755L27.394 16.4013L26.9632 15.0755H29.2008ZM22.0108 17.4323L22.7766 15.0754H25.2229L25.9888 17.4323L23.9998 18.8918L22.0108 17.4323ZM23.9998 11.311L24.6851 13.4204H23.3143L23.9998 11.311ZM18.7987 15.0755H21.0363L20.6055 16.4013L18.7987 15.0755ZM20.7876 21.1968L21.4722 19.09L22.5888 19.9093L20.7876 21.1968ZM26.5274 19.09L27.212 21.1968L25.4109 19.9094L26.5274 19.09Z" fill="#5A8250"/>
</g>
<defs>
<clipPath id="clip0_11_3671">
<rect width="48" height="32" fill="white"/>
</clipPath>
</defs>
</svg>
