<svg width="48" height="32" viewBox="0 0 48 32" fill="none" xmlns="http://www.w3.org/2000/svg">
<g clip-path="url(#clip0_11_4152)">
<path d="M32 0.275635H47.1724C47.6294 0.275635 48 0.646228 48 1.10326V30.8964C48 31.3534 47.6294 31.724 47.1724 31.724H32V0.275635Z" fill="#FF4B55"/>
<path d="M32.0007 0.276123H16.0004V31.7246H32.0007V0.276123Z" fill="#FFE15A"/>
<path d="M0.827625 0.275635H16V31.7239H0.827625C0.370594 31.7239 0 31.3533 0 30.8963V1.10317C0 0.646134 0.370594 0.275635 0.827625 0.275635Z" fill="#41479B"/>
<path d="M26.9328 21.6717L27.3445 21.336L25.4684 19.0351L25.0567 19.3708L26.9328 21.6717Z" fill="#FFCD5A"/>
<path d="M25.6747 20.5519L26.4981 19.881L25.6729 18.868L24.8494 19.5389L25.6747 20.5519Z" fill="#FFBE5A"/>
<path d="M23.1738 19.3707L22.7621 19.035L20.8861 21.3359L21.2977 21.6716L23.1738 19.3707Z" fill="#FFCD5A"/>
<path d="M23.379 19.5391L22.5555 18.8683L21.7303 19.8813L22.5537 20.5521L23.379 19.5391Z" fill="#FFBE5A"/>
<path d="M23.4506 19.8984L22.1228 22.5541L23.9817 23.8819V20.164L23.4506 19.8984Z" fill="#FFE15A"/>
<path d="M24.5127 19.8984L25.8405 22.5541L23.9816 23.8819V20.164L24.5127 19.8984Z" fill="#FFCD5A"/>
<path d="M20.2639 19.8983V12.9937H21.0606C21.0606 12.9937 21.0606 17.5083 21.0606 18.3049C21.0606 19.1016 20.2639 19.8983 20.2639 19.8983Z" fill="#FFBE5A"/>
<path d="M19.7327 21.2262V12.9937H20.5294C20.5294 12.9937 20.5294 18.836 20.5294 19.6327C20.5293 20.4294 19.7327 21.2262 19.7327 21.2262Z" fill="#FFCD5A"/>
<path d="M19.2017 22.2885V12.9938H19.9984C19.9984 12.9938 19.9984 19.8985 19.9984 20.6952C19.9984 21.4918 19.2017 22.2885 19.2017 22.2885Z" fill="#FFE15A"/>
<path d="M21.0606 13.2592C21.0606 13.2592 21.0606 17.0434 21.0606 18.3049C21.0606 19.6328 22.9859 19.4557 23.9817 20.4294C24.9776 19.4556 26.9029 19.6327 26.9029 18.3049C26.9029 17.0435 26.9029 13.2592 26.9029 13.2592H21.0606Z" fill="#FF4B55"/>
<path d="M21.0606 16.1808C21.0606 17.0215 21.0606 17.8371 21.0606 18.3053C21.0606 19.6332 22.9859 19.4561 23.9817 20.4298C24.9776 19.456 26.9029 19.6331 26.9029 18.3052C26.9029 17.8371 26.9029 17.0214 26.9029 16.1807L21.0606 16.1808Z" fill="#41479B"/>
<path d="M23.9816 19.6331L23.1849 19.102V18.8364L23.4505 18.5709V16.9774L22.6539 16.4463L23.4505 15.384H23.716L23.9816 15.6497L24.2472 15.384H24.5128L25.3095 16.4463L24.5128 16.9774V18.5709L24.7783 18.8364V19.102L23.9816 19.6331Z" fill="#FFE15A"/>
<path d="M22.9194 13.5248C22.9194 13.5248 21.8572 13.7904 21.8572 14.8527C21.8572 15.9149 22.9194 16.446 22.9194 16.446L23.4505 15.6493C21.8571 15.1182 22.9194 13.5248 22.9194 13.5248Z" fill="#FFE15A"/>
<path d="M25.0438 13.5248C25.0438 13.5248 26.106 13.7904 26.106 14.8527C26.106 15.9149 25.0438 16.446 25.0438 16.446L24.5127 15.6493C26.106 15.1182 25.0438 13.5248 25.0438 13.5248Z" fill="#FFE15A"/>
<path d="M21.326 16.1808L21.8571 16.4463L22.3883 16.1808L21.8571 15.9152L21.326 16.1808Z" fill="#FFE15A"/>
<path d="M25.5753 16.1808L26.1064 16.4463L26.6376 16.1808L26.1064 15.9152L25.5753 16.1808Z" fill="#FFE15A"/>
<path d="M23.9816 13.6575L24.1747 13.8553L24.451 13.852L24.4478 14.1283L24.6455 14.3215L24.4478 14.5145L24.451 14.7909L24.1747 14.7876L23.9816 14.9854L23.7886 14.7876L23.5121 14.7909L23.5155 14.5145L23.3178 14.3215L23.5155 14.1283L23.5121 13.852L23.7886 13.8553L23.9816 13.6575Z" fill="#FFE15A"/>
<path d="M22.1781 17.3404L22.3696 17.5534L22.6358 17.4478C22.7737 17.3932 22.9031 17.5431 22.8289 17.6715L22.6855 17.9195L22.8682 18.1402C22.9628 18.2543 22.8602 18.4238 22.7151 18.3929L22.435 18.3331L22.2816 18.5751C22.2022 18.7003 22.0094 18.655 21.9939 18.5075L21.9641 18.2226L21.6867 18.1515C21.543 18.1147 21.5265 17.9173 21.662 17.8571L21.9237 17.7409L21.9056 17.455C21.8965 17.3067 22.079 17.23 22.1781 17.3404Z" fill="#FFE15A"/>
<path d="M25.7151 17.9458C25.7737 17.6438 26.0229 17.4299 26.3134 17.3977C26.2538 17.3656 26.1904 17.3391 26.1206 17.3256C25.7486 17.2535 25.3886 17.4966 25.3165 17.8685C25.2444 18.2405 25.4874 18.6005 25.8594 18.6726C25.9293 18.6862 25.9981 18.6853 26.0652 18.6778C25.8078 18.5394 25.6566 18.2479 25.7151 17.9458Z" fill="#FFE15A"/>
<path d="M22.9194 13.2594L23.4505 10.6038L22.3883 9.80707L22.6539 9.54147H23.185C23.185 9.54147 23.4506 9.27588 23.9816 9.27588C24.5127 9.27588 25.0438 9.54147 25.0438 10.3381C25.0438 11.1347 25.3094 13.2592 25.3094 13.2592H22.9194V13.2594Z" fill="#FFE15A"/>
<path d="M21.0606 12.197C20.4739 12.197 19.9984 12.6726 19.9984 13.2591H22.123C22.1229 12.6726 21.6472 12.197 21.0606 12.197Z" fill="#FFAA5A"/>
<path d="M20.7951 13.2593H19.2017V11.4917C19.2017 11.1479 19.4804 10.8693 19.8241 10.8693H20.1727C20.5164 10.8693 20.7951 11.148 20.7951 11.4917V13.2593Z" fill="#FFBE5A"/>
<path d="M27.6998 19.8983V12.9936H26.9031C26.9031 12.9936 26.9031 17.5082 26.9031 18.3048C26.9031 19.1016 27.6998 19.8983 27.6998 19.8983Z" fill="#FFBE5A"/>
<path d="M28.2309 21.2262V12.9937H27.4342C27.4342 12.9937 27.4342 18.836 27.4342 19.6327C27.4342 20.4294 28.2309 21.2262 28.2309 21.2262Z" fill="#FFCD5A"/>
<path d="M28.762 22.2885V12.9938H27.9653C27.9653 12.9938 27.9653 19.8985 27.9653 20.6952C27.9652 21.4918 28.762 22.2885 28.762 22.2885Z" fill="#FFE15A"/>
<path d="M26.9031 12.197C27.4898 12.197 27.9653 12.6726 27.9653 13.2591H25.8408C25.8409 12.6726 26.3164 12.197 26.9031 12.197Z" fill="#FFAA5A"/>
<path d="M27.1687 13.2593H28.7621V11.4917C28.7621 11.1479 28.4834 10.8693 28.1397 10.8693H27.7912C27.4474 10.8693 27.1688 11.148 27.1688 11.4917L27.1687 13.2593Z" fill="#FFBE5A"/>
<path d="M30.2438 16.2841L29.9036 16.0769L26.1847 22.184L26.5249 22.3912L30.2438 16.2841Z" fill="#FFAA5A"/>
<path d="M27.0002 22.0396L27.6635 21.2098L27.0146 20.6911L26.3513 21.5209L27.0002 22.0396Z" fill="#FFE15A"/>
<path d="M30.3531 16.3531L29.7859 16.0079L28.9893 17.3167L29.5564 17.6619L30.3531 16.3531Z" fill="#FFCD5A"/>
<path d="M21.9599 22.1787L18.2114 16.3801L17.9884 16.5243L21.7369 22.3229L21.9599 22.1787Z" fill="#73AF00"/>
<path d="M20.57 19.1299C20.4748 19.2379 20.4116 19.4017 20.3957 19.5905C20.2647 19.4583 20.1143 19.3741 19.9743 19.3515C19.9373 19.4885 19.9523 19.6602 20.0192 19.8339C19.8404 19.7709 19.6653 19.7612 19.5277 19.8038C19.5664 19.9995 19.7259 20.212 19.9703 20.3577C20.2146 20.5036 20.4774 20.543 20.668 20.4841L20.7226 20.4489C20.8545 20.2991 20.9264 20.0435 20.8938 19.7608C20.8609 19.4782 20.7325 19.2456 20.57 19.1299Z" fill="#73AF00"/>
<path d="M20.6953 20.7325C20.842 20.7325 20.9609 20.6136 20.9609 20.4669C20.9609 20.3203 20.842 20.2014 20.6953 20.2014C20.5486 20.2014 20.4297 20.3203 20.4297 20.4669C20.4297 20.6136 20.5486 20.7325 20.6953 20.7325Z" fill="#FF4B55"/>
<path d="M19.5609 17.5685C19.4657 17.6765 19.4025 17.8403 19.3866 18.0291C19.2556 17.897 19.1052 17.8128 18.9652 17.7902C18.9282 17.9271 18.9432 18.0989 19.0101 18.2725C18.8313 18.2095 18.6562 18.1999 18.5186 18.2424C18.5573 18.4382 18.7168 18.6506 18.9612 18.7964C19.2055 18.9423 19.4683 18.9816 19.6589 18.9228L19.7135 18.8875C19.8454 18.7378 19.9173 18.4821 19.8847 18.1995C19.8519 17.9167 19.7235 17.6841 19.5609 17.5685Z" fill="#73AF00"/>
<path d="M19.6864 19.1715C19.833 19.1715 19.9519 19.0526 19.9519 18.9059C19.9519 18.7592 19.833 18.6403 19.6864 18.6403C19.5397 18.6403 19.4208 18.7592 19.4208 18.9059C19.4208 19.0526 19.5397 19.1715 19.6864 19.1715Z" fill="#FF4B55"/>
<path d="M18.5515 16.0073C18.4563 16.1153 18.3931 16.2791 18.3772 16.4679C18.2462 16.3357 18.0958 16.2515 17.9557 16.2289C17.9188 16.3659 17.9338 16.5377 18.0007 16.7113C17.8219 16.6483 17.6467 16.6386 17.5092 16.6812C17.5479 16.877 17.7074 17.0894 17.9518 17.2352C18.1961 17.3811 18.4589 17.4204 18.6495 17.3616L18.7041 17.3263C18.836 17.1766 18.9079 16.9209 18.8752 16.6383C18.8422 16.3555 18.714 16.1229 18.5515 16.0073Z" fill="#73AF00"/>
<path d="M18.6767 17.6105C18.8234 17.6105 18.9423 17.4916 18.9423 17.3449C18.9423 17.1982 18.8234 17.0793 18.6767 17.0793C18.53 17.0793 18.4111 17.1982 18.4111 17.3449C18.4111 17.4916 18.53 17.6105 18.6767 17.6105Z" fill="#FF4B55"/>
<path d="M21.8784 21.5218L21.2151 20.6921L20.5662 21.2108L21.2295 22.0405L21.8784 21.5218Z" fill="#FFE15A"/>
<path d="M22.654 8.74518H22.3884V10.6041H22.654V8.74518Z" fill="#FFE15A"/>
<path d="M22.9191 9.01044H22.1224V9.27603H22.9191V9.01044Z" fill="#FFE15A"/>
<path d="M22.3883 9.80707L23.185 10.4046V9.54156H22.6539L22.3883 9.80707Z" fill="#FF875A"/>
<path d="M22.654 8.74484V9.01043H22.9195V9.27603H22.654V9.54162H23.185C23.185 9.54162 23.4506 9.27603 23.9817 9.27603C24.5128 9.27603 25.0439 9.54162 25.0439 10.3382C25.0439 11.1349 25.3095 13.2594 25.3095 13.2594H25.8406C25.8406 12.6727 26.3162 12.1972 26.9028 12.1972C26.995 12.1972 27.083 12.2126 27.1684 12.2348V11.6661C27.1684 11.2261 27.5251 10.8694 27.9651 10.8694C28.405 10.8694 28.7618 11.2261 28.7618 11.6661V12.994V13.2596V17.9495L29.1047 17.3862L28.9914 17.3172L29.788 16.0082L29.9014 16.0772L30.0715 16.1809L30.3551 16.3535L29.5585 17.6624L29.445 17.5934L28.7618 18.716V22.2891C28.7618 22.2891 28.1276 21.6532 27.9919 20.9497C27.8949 20.825 27.7831 20.666 27.6848 20.4854L27.3808 20.9847L27.6634 21.2106L27.0001 22.0404L26.824 21.8996L26.5238 22.3928L26.1835 22.1856L26.5103 21.6488L26.3516 21.5219L26.5775 21.2393L25.8806 20.3847L25.6747 20.5525L25.0551 19.7922C24.8902 19.8584 24.7271 19.9313 24.5703 20.0145L25.8403 22.5547L23.9814 23.8826L22.1224 22.5547L23.3924 20.0145C23.2987 19.9647 23.2034 19.9176 23.106 19.8747L22.5537 20.5525L22.3478 20.3847L21.6509 21.2393L21.8768 21.5219L21.6512 21.7022L21.9594 22.179L21.7364 22.3232L21.4427 21.8689L21.2283 22.0403L20.565 21.2105L20.863 20.9723L20.7051 20.7279C20.7013 20.728 20.6977 20.7281 20.6939 20.7281C20.6071 20.7281 20.5221 20.6893 20.4715 20.6111C20.45 20.5778 20.4384 20.5414 20.4332 20.5047C20.3832 20.5017 20.3326 20.4945 20.2799 20.482C20.1812 20.6639 20.0687 20.8242 19.9711 20.9497C19.8354 21.6533 19.2012 22.2891 19.2012 22.2891V18.9014C19.121 18.8762 19.0401 18.8442 18.9605 18.7966C18.7162 18.6507 18.5566 18.4383 18.5179 18.2427C18.5738 18.2254 18.6357 18.2168 18.7017 18.2168C18.7983 18.2168 18.9033 18.2354 19.0094 18.2727C18.9748 18.1827 18.9547 18.0937 18.948 18.0093L18.6868 17.6052C18.6831 17.6053 18.6794 17.6054 18.6757 17.6054C18.5889 17.6054 18.5038 17.5667 18.4533 17.4884C18.4317 17.4552 18.4201 17.4188 18.4149 17.382C18.2679 17.3732 18.1068 17.3282 17.9515 17.2356C17.7071 17.0897 17.5476 16.8773 17.5089 16.6816C17.5647 16.6644 17.6268 16.6557 17.6927 16.6557C17.7893 16.6557 17.8943 16.6743 18.0004 16.7117C17.9335 16.538 17.9185 16.3663 17.9555 16.2294C18.0955 16.252 18.2459 16.3362 18.3769 16.4683C18.3928 16.2795 18.456 16.1157 18.5512 16.0077C18.7137 16.1234 18.842 16.356 18.8746 16.6388C18.8954 16.8186 18.8703 16.9839 18.8179 17.1216C18.8493 17.1416 18.8777 17.167 18.8992 17.2003C18.952 17.282 18.9501 17.3802 18.9098 17.4612L19.171 17.8653C19.1811 17.8709 19.191 17.8777 19.2011 17.884V13.2598V12.9942V11.6664C19.2011 11.2264 19.5579 10.8697 19.9978 10.8697C20.4378 10.8697 20.7945 11.2264 20.7945 11.6664V12.2351C20.8798 12.2129 20.9678 12.1975 21.0601 12.1975C21.6468 12.1975 22.1223 12.6731 22.1223 13.2597H22.919L23.4501 10.604L23.1845 10.4049L22.6534 10.0065V10.6041H22.3878V9.27622H22.1222V9.01062H22.3878V8.74503H22.6544L22.654 8.74484ZM26.917 20.8145L27.015 20.6918L27.0672 20.7335L27.4953 20.0303C27.458 19.9002 27.4341 19.7668 27.4341 19.6331C27.4341 19.62 27.4341 19.6021 27.4341 19.5864C27.2023 19.2815 26.903 18.7937 26.903 18.3052C26.903 18.8645 26.5597 19.1559 26.0898 19.3797L26.4985 19.8814L26.2928 20.049L26.917 20.8145ZM21.0721 20.8051L21.214 20.6917L21.3121 20.8144L21.9363 20.0487L21.7305 19.8811L22.0685 19.4664C21.5012 19.2295 21.0605 18.9392 21.0605 18.3051C21.0605 18.6607 20.9018 19.0155 20.7261 19.3003C20.8095 19.4228 20.8724 19.5793 20.8934 19.7607C20.9142 19.9405 20.8891 20.1057 20.8367 20.2435C20.8681 20.2634 20.8965 20.2888 20.918 20.3222C20.9708 20.4039 20.9689 20.5019 20.9286 20.5831L21.0721 20.8051ZM22.654 8.54572H22.3884C22.2784 8.54572 22.1892 8.63487 22.1892 8.74484V8.81122H22.1229C22.0129 8.81122 21.9237 8.90037 21.9237 9.01034V9.27593C21.9237 9.3859 22.0129 9.47506 22.1229 9.47506H22.1892V10.6037C22.1892 10.7137 22.2784 10.8028 22.3884 10.8028H22.654C22.7639 10.8028 22.8531 10.7137 22.8531 10.6037V10.4046L23.0655 10.5639L23.2306 10.6877L22.756 13.0602H22.3061C22.2103 12.4589 21.6882 11.998 21.0604 11.998C21.0384 11.998 21.0163 11.9987 20.994 12V11.666C20.994 11.1169 20.5472 10.6701 19.9981 10.6701C19.449 10.6701 19.0022 11.1169 19.0022 11.666V12.9939V13.2595V16.3137C18.9303 16.1154 18.8134 15.9494 18.6669 15.8451C18.632 15.8202 18.5916 15.8082 18.5515 15.8082C18.4961 15.8082 18.4412 15.8312 18.4021 15.8756C18.3408 15.9452 18.2904 16.03 18.2528 16.1256C18.1656 16.0783 18.0759 16.0465 17.9874 16.0322C17.9767 16.0304 17.9661 16.0296 17.9556 16.0296C17.867 16.0296 17.7873 16.0888 17.7635 16.1769C17.7401 16.2633 17.7324 16.3582 17.7397 16.4571C17.724 16.4563 17.7085 16.456 17.693 16.456C17.6067 16.456 17.5251 16.4677 17.4504 16.4907C17.353 16.5208 17.294 16.6197 17.3137 16.7197C17.3652 16.9799 17.5655 17.2366 17.8495 17.406C17.9806 17.4842 18.1229 17.5378 18.2674 17.564C18.2732 17.575 18.2795 17.5857 18.2862 17.5961C18.3516 17.6972 18.4541 17.7668 18.5714 17.7927L18.7165 18.0173C18.7117 18.0172 18.7069 18.0172 18.7021 18.0172C18.6159 18.0172 18.5342 18.0289 18.4595 18.052C18.3621 18.0821 18.3031 18.1809 18.3228 18.2809C18.3744 18.5412 18.5746 18.7978 18.8587 18.9672C18.904 18.9943 18.9513 19.0183 19.0023 19.04V22.2882C19.0023 22.3689 19.051 22.4415 19.1254 22.4723C19.15 22.4824 19.1758 22.4874 19.2014 22.4874C19.2534 22.4874 19.3044 22.4671 19.3425 22.4288C19.3696 22.4017 19.9943 21.7686 20.1571 21.0339C20.224 20.9458 20.2859 20.8571 20.3422 20.7682C20.4063 20.8422 20.493 20.8933 20.59 20.9149L20.5986 20.9281L20.4413 21.0539C20.4 21.0869 20.3735 21.1349 20.3677 21.1875C20.3618 21.2399 20.377 21.2927 20.41 21.334L21.0733 22.1637C21.1063 22.205 21.1543 22.2315 21.2069 22.2373C21.2142 22.2382 21.2216 22.2386 21.229 22.2386C21.274 22.2386 21.3178 22.2234 21.3533 22.195L21.3956 22.1611L21.5697 22.4305C21.5984 22.4748 21.6435 22.506 21.6952 22.5171C21.709 22.5201 21.723 22.5215 21.737 22.5215C21.775 22.5215 21.8127 22.5106 21.8451 22.4895L21.9739 22.4063L21.9447 22.4647C21.9009 22.5523 21.9274 22.6588 22.0071 22.7158L23.866 24.0437C23.9007 24.0685 23.9412 24.0808 23.9818 24.0808C24.0224 24.0808 24.0629 24.0685 24.0976 24.0437L25.9566 22.7158C26.0364 22.6588 26.0628 22.5524 26.0189 22.4647L24.8379 20.1027C24.888 20.079 24.9402 20.0556 24.9949 20.0321L25.5207 20.6773C25.5601 20.7256 25.6175 20.7507 25.6753 20.7507C25.7196 20.7507 25.7641 20.7359 25.801 20.7058L25.8527 20.6638L26.322 21.2395L26.1966 21.3964C26.1636 21.4377 26.1484 21.4903 26.1542 21.5428C26.1601 21.5954 26.1865 21.6434 26.2278 21.6764L26.2495 21.6938L26.0139 22.0809C25.9567 22.1748 25.9865 22.2972 26.0804 22.3545L26.4206 22.5617C26.452 22.5808 26.488 22.5908 26.5243 22.5908C26.5401 22.5908 26.5559 22.5889 26.5714 22.5851C26.6227 22.5725 26.667 22.5402 26.6945 22.4951L26.877 22.1952C26.9137 22.2241 26.9572 22.2382 27.0006 22.2382C27.059 22.2382 27.1169 22.2125 27.1563 22.1634L27.8196 21.3336C27.844 21.303 27.8579 21.2675 27.862 21.2314C28.0783 21.8786 28.5968 22.4038 28.6213 22.4285C28.6594 22.4667 28.7105 22.4871 28.7624 22.4871C28.7881 22.4871 28.8138 22.4821 28.8384 22.472C28.9129 22.4412 28.9615 22.3686 28.9615 22.288V18.7707L29.5181 17.8565C29.5317 17.8593 29.5453 17.8607 29.5589 17.8607C29.6261 17.8607 29.6918 17.8267 29.7293 17.765L30.5259 16.4561C30.5535 16.411 30.5619 16.3568 30.5493 16.3054C30.5367 16.2541 30.5044 16.2098 30.4593 16.1823L30.1757 16.0097L30.0056 15.9061L29.892 15.837C29.8598 15.8173 29.824 15.8081 29.7888 15.8081C29.7216 15.8081 29.656 15.8421 29.6185 15.9038L28.9616 16.983V13.2588V12.9932V11.6658C28.9616 11.1167 28.5148 10.6699 27.9657 10.6699C27.4166 10.6699 26.9698 11.1167 26.9698 11.6658V11.9998C26.9476 11.9985 26.9255 11.9978 26.9035 11.9978C26.2756 11.9978 25.7535 12.4587 25.6577 13.06H25.4864C25.4236 12.5371 25.2436 10.9812 25.2436 10.3379C25.2436 9.40793 24.592 9.07653 23.9822 9.07653C23.5306 9.07653 23.2392 9.24865 23.1143 9.34212H23.1077C23.115 9.32131 23.119 9.299 23.119 9.27575V9.01015C23.119 8.90019 23.0299 8.81103 22.9199 8.81103H22.8535V8.74465C22.8531 8.63487 22.7639 8.54572 22.654 8.54572ZM20.9578 19.3001C21.0088 19.2103 21.0533 19.1218 21.0915 19.0347C21.2575 19.2575 21.4964 19.4159 21.7507 19.5414L21.5763 19.7554C21.5429 19.7964 21.5272 19.8489 21.5325 19.9015C21.5379 19.9541 21.5638 20.0023 21.6048 20.0356L21.656 20.0774L21.3011 20.5126C21.2809 20.5027 21.2589 20.4963 21.236 20.4937C21.2287 20.4928 21.2212 20.4925 21.214 20.4925C21.1941 20.4925 21.1746 20.4955 21.1557 20.5012C21.1648 20.4011 21.1411 20.3006 21.0853 20.2141C21.0786 20.2037 21.0714 20.1935 21.0638 20.1837C21.0992 20.0413 21.1088 19.8896 21.0913 19.7379C21.0733 19.5822 21.0277 19.4331 20.9578 19.3001ZM26.398 19.4428C26.5735 19.3406 26.7438 19.211 26.873 19.0369C26.9747 19.2691 27.1084 19.4803 27.235 19.6527C27.2365 19.7637 27.2517 19.8778 27.281 19.9991L26.9786 20.4958C26.9612 20.499 26.944 20.5047 26.9277 20.5126L26.5729 20.0774L26.6241 20.0356C26.665 20.0022 26.691 19.954 26.6964 19.9015C26.7017 19.849 26.686 19.7964 26.6526 19.7554L26.398 19.4428ZM22.554 20.7512C22.6119 20.7512 22.6691 20.7262 22.7086 20.6779L23.0445 20.2658L22.1354 22.084C22.133 22.0794 22.1303 22.0749 22.1274 22.0704L21.917 21.7448L22.0018 21.6769C22.0431 21.6439 22.0696 21.5959 22.0754 21.5433C22.0813 21.4909 22.066 21.4381 22.033 21.397L21.9076 21.24L22.3769 20.6643L22.4286 20.7063C22.4652 20.7367 22.5098 20.7512 22.554 20.7512ZM27.6422 20.9381L27.6855 20.8668C27.7236 20.9229 27.7639 20.9787 27.8063 21.0344C27.81 21.0512 27.8139 21.0678 27.8182 21.0845C27.8094 21.0736 27.7992 21.0636 27.7879 21.0545L27.6422 20.9381Z" fill="#FFAA5A"/>
</g>
<defs>
<clipPath id="clip0_11_4152">
<rect width="48" height="32" fill="white"/>
</clipPath>
</defs>
</svg>
