<svg width="48" height="32" viewBox="0 0 48 32" fill="none" xmlns="http://www.w3.org/2000/svg">
<g clip-path="url(#clip0_11_4635)">
<path d="M46.3447 1.93079H1.65512V30.0689H46.3447V1.93079Z" fill="#C8414B"/>
<path d="M47.1723 0.276001H0.827623C0.370593 0.276001 0 0.6465 0 1.10353V30.8966C0 31.3536 0.370593 31.7242 0.827623 31.7242H47.1724C47.6294 31.7242 48 31.3536 48 30.8966V1.10353C47.9999 0.6465 47.6293 0.276001 47.1723 0.276001ZM46.3448 30.069H1.65515V1.93115H46.3448V30.069Z" fill="#E6B432"/>
<path d="M30.7902 22.4502C31.4857 22.4502 32.0495 21.8864 32.0495 21.1909C32.0495 20.4953 31.4857 19.9315 30.7902 19.9315C30.0947 19.9315 29.5309 20.4953 29.5309 21.1909C29.5309 21.8864 30.0947 22.4502 30.7902 22.4502Z" fill="#41479B"/>
<path d="M33.0002 13.9601C32.0734 14.7393 31.45 14.7721 31.45 14.7721C33.0987 14.0995 32.9264 12.82 32.9264 12.82C32.1473 13.8453 31.3516 14.1323 31.3516 14.1323C33.0085 13.0086 32.746 11.4995 32.746 11.4995C32.2046 12.697 31.5198 13.1645 31.5198 13.1645C32.8977 11.3313 32.221 10.1502 32.221 10.1502C31.6797 11.848 31.2245 12.3402 31.2245 12.3402C32.2826 9.51045 31.3763 8.69436 31.3763 8.69436C31.3763 10.2117 30.8103 11.0811 30.8103 11.0811C31.4009 9.07986 30.474 7.93152 30.474 7.93152C30.474 7.93152 30.4653 9.56314 30.1511 10.4178C30.0757 10.3032 30.0311 10.3184 30.0311 10.3184C29.8713 11.3664 29.3081 12.1042 29.0649 12.3818C29.0109 12.1206 28.8485 12.0407 28.8485 12.0407C28.8485 12.0407 28.8192 12.2971 28.5892 12.6753C28.4384 12.923 27.7263 13.5008 27.6115 14.0093C27.5194 14.417 27.9232 14.7557 28.0543 14.8377C28.1856 14.9197 28.325 15.0674 28.2675 15.3051C28.2101 15.543 27.7836 15.5183 27.4801 15.5102C27.1767 15.502 27.1357 16.0023 26.7993 15.9859L26.7423 16.3591L26.6106 16.3879C26.6106 16.3879 25.2327 19.1337 25.1154 20.068L24.1007 20.2018L23.0861 20.068C22.9688 19.1337 21.5908 16.3879 21.5908 16.3879L21.4591 16.3591L21.4021 15.9859C21.0659 16.0024 21.0249 15.502 20.7213 15.5102C20.4178 15.5183 19.9913 15.543 19.9339 15.3051C19.8765 15.0673 20.0159 14.9195 20.1471 14.8377C20.2784 14.7557 20.6821 14.4169 20.59 14.0093C20.4751 13.5007 19.763 12.923 19.6123 12.6753C19.3822 12.2972 19.3529 12.0407 19.3529 12.0407C19.3529 12.0407 19.1906 12.1206 19.1366 12.3818C18.8935 12.104 18.3302 11.3664 18.1705 10.3184C18.1705 10.3184 18.1259 10.3033 18.0505 10.4178C17.7362 9.56305 17.7275 7.93152 17.7275 7.93152C17.7275 7.93152 16.8007 9.07977 17.3912 11.0811C17.3912 11.0811 16.8253 10.2118 16.8253 8.69436C16.8253 8.69436 15.919 9.51045 16.977 12.3402C16.977 12.3402 16.5219 11.8481 15.9805 10.1502C15.9805 10.1502 15.3038 11.3313 16.6817 13.1645C16.6817 13.1645 15.9969 12.697 15.4556 11.4995C15.4556 11.4995 15.1932 13.0086 16.8499 14.1323C16.8499 14.1323 16.0543 13.8453 15.2751 12.82C15.2751 12.82 15.1029 14.0996 16.7515 14.7721C16.7515 14.7721 16.1281 14.7393 15.2013 13.9601C15.2013 13.9601 15.0373 15.092 17.1862 15.6743C17.1862 15.6743 16.3085 15.6579 15.4145 15.0591C15.4145 15.0591 15.3899 16.1746 17.2272 16.3961C17.2272 16.3961 16.6202 16.4863 15.9394 16.2403C15.9394 16.2403 15.9641 17.1424 17.5635 17.2573C17.5635 17.2573 16.9319 17.3065 16.5218 17.2081C16.5218 17.2081 16.5628 18.1349 17.826 17.9791C17.826 17.9791 17.3994 18.1185 17.26 18.1594C17.26 18.1594 17.2846 18.9161 18.601 18.6454C18.601 18.6454 18.3672 18.791 18.0473 18.8403C18.0473 18.8403 18.3179 19.4718 19.4171 19.1929L19.1915 19.439C19.1915 19.439 20.0404 19.9311 20.6924 19.2544L20.4586 19.6728C20.4586 19.6728 21.0123 19.8819 21.3568 19.3406C21.3568 19.3406 21.2624 20.1526 20.1141 20.3003C20.1141 20.3003 20.1551 20.4725 20.2043 20.5382C20.2043 20.5382 20.1304 20.6776 19.4661 20.7924C19.4661 20.7924 19.6055 21.0056 19.7532 21.0713C19.7532 21.0713 19.4661 21.3174 19.3103 21.3665C19.3103 21.3665 19.5564 21.4895 19.7122 21.5142C19.7122 21.5142 19.3678 21.8505 18.9412 21.8586C18.5146 21.8668 17.752 21.8176 17.752 21.8176C17.752 21.8176 17.7438 21.4075 17.547 21.0547C17.3501 20.702 17.2845 20.6754 17.2845 20.6754C17.2845 20.6754 17.3276 20.3925 17.2046 20.2756C17.0816 20.1587 17.0139 20.1033 17.0139 20.1033C17.0139 20.1033 17.0795 19.5374 16.899 19.1847C16.7187 18.832 16.0788 18.061 16.046 17.4869C16.0132 16.9128 16.0379 16.6995 16.0379 16.6995L15.841 16.7487L15.7097 16.478L15.9312 16.4534L15.841 16.0433L15.5374 16.1582L15.4964 15.8055L15.1355 15.9531L15.3159 16.273L14.996 16.3632L15.1847 16.7404L15.4308 16.5846L15.4965 16.9127C15.4965 16.9127 15.3488 16.9455 15.2668 17.0767C15.2668 17.0767 15.6726 17.3461 15.7917 17.6674C15.9804 18.1759 15.9229 19.3242 16.1936 19.6686C16.4642 20.0131 16.6775 20.2509 16.6775 20.2509C16.6775 20.2509 16.6017 20.4847 16.6877 20.6138C16.7739 20.743 16.8969 20.7799 16.8969 20.7799C16.8969 20.7799 16.823 21.3029 17.0138 21.6473C17.2045 21.9918 17.3152 22.078 17.3152 22.078C17.3152 22.078 16.62 22.5024 17.1122 22.9946C17.1122 22.9946 17.0466 23.4416 17.5141 23.5483C17.5141 23.5483 17.5388 23.901 17.9407 23.86C17.9407 23.86 18.1376 23.8026 18.1868 23.9011C18.236 23.9994 18.1868 24.5654 18.1868 24.5654C18.1868 24.5654 18.3672 24.549 18.482 24.467L18.8429 24.6474L18.851 24.2455L19.3021 24.0651C19.3021 24.0651 19.1053 24.0979 18.7034 23.7207C18.7034 23.7207 18.769 23.6796 18.8182 23.3598C18.8182 23.3598 19.1381 23.1055 19.2038 22.9005C19.2694 22.6954 19.7205 22.2443 20.2454 22.0967L20.3173 22.4165C20.3173 22.4165 21.0678 21.7522 21.3814 21.7153L21.6398 22.0556C21.6398 22.0556 22.6077 20.6203 23.0341 20.3659C23.0013 20.4808 23.2392 20.4972 22.7101 21.0877C22.1811 21.6783 22.5091 22.1458 22.5091 22.1458C22.1811 22.4164 22.2467 22.6625 22.2056 22.9414C22.1646 23.2203 21.0736 23.9421 21.0736 23.9421C21.4181 24.3768 21.8037 24.2784 21.8037 24.2784C21.5904 24.4178 21.656 24.8853 21.656 24.8853C21.9677 24.9674 22.2793 24.828 22.2793 24.828C22.1727 25.1232 22.3367 25.3282 22.3367 25.3282C22.5336 25.2052 22.9847 25.1313 22.9847 25.1313C22.9273 25.6399 23.2554 25.9105 23.2554 25.9105L23.5424 25.5988C23.5917 26.1729 24.1003 26.501 24.1003 26.501C24.1003 26.501 24.6088 26.1729 24.6581 25.5988L24.9451 25.9105C24.9451 25.9105 25.2732 25.6398 25.2158 25.1313C25.2158 25.1313 25.6669 25.2052 25.8638 25.3282C25.8638 25.3282 26.0278 25.1232 25.9212 24.828C25.9212 24.828 26.2329 24.9674 26.5445 24.8853C26.5445 24.8853 26.6101 24.4178 26.3968 24.2784C26.3968 24.2784 26.7824 24.3768 27.1269 23.9421C27.1269 23.9421 26.036 23.2203 25.9949 22.9414C25.954 22.6625 26.0196 22.4165 25.6914 22.1458C25.6914 22.1458 26.0194 21.6783 25.4904 21.0877C24.9613 20.4971 25.1992 20.4807 25.1664 20.3659C25.5929 20.6202 26.5607 22.0556 26.5607 22.0556L26.8191 21.7153C27.1329 21.7522 27.8832 22.4165 27.8832 22.4165L27.9551 22.0967L27.9687 22.0818C28.36 22.2926 29.0063 22.5776 29.2675 22.7773C29.5464 22.9906 29.7761 23.007 30.4485 22.7773C31.1212 22.5476 32.3725 22.1944 32.1874 21.7766C32.1773 21.7538 32.1658 21.7385 32.1548 21.7207C32.1841 21.6128 32.1962 21.4245 31.9987 21.2598C31.9987 21.2598 32.001 21.3057 31.9994 21.3646L31.3583 21.1256C31.3371 21.0689 31.3054 21.0133 31.2442 20.9646C31.2442 20.9646 31.2451 21.0138 31.2363 21.0802L31.0719 21.0189L31.4001 20.0956C31.3752 20.0817 31.3473 20.0739 31.3215 20.0617C31.3282 19.9781 31.3439 19.8625 31.3684 19.7417C31.4485 19.7697 31.5218 19.8043 31.5748 19.8477L31.6675 19.5096C31.6675 19.5096 31.5678 19.5031 31.4365 19.4785C31.4696 19.3765 31.509 19.2849 31.5558 19.2258L31.1211 19.0945C31.1211 19.0945 31.1323 19.2262 31.1246 19.3906C31.0417 19.3569 30.9626 19.3142 30.8986 19.2594L30.7967 19.6346C30.8317 19.6367 30.9504 19.6469 31.0879 19.6714C31.0631 19.7816 31.0193 19.8793 30.9566 19.9526C30.9411 19.9505 30.9267 19.9449 30.911 19.9434L30.5922 20.8401L29.7279 20.518C29.6908 20.5763 29.6622 20.6399 29.6355 20.7042C29.6401 20.6948 29.6442 20.6802 29.6491 20.6743C29.6491 20.6743 29.3147 20.8492 29.3193 21.1062C29.2577 21.1295 29.2037 21.1758 29.1732 21.2559C29.0749 21.5143 29.6776 22.0925 29.5301 22.1663C29.3851 22.2387 28.6279 21.6151 28.5065 21.5104C28.6626 21.4801 28.8903 21.3666 28.8903 21.3666C28.7344 21.3174 28.4474 21.0714 28.4474 21.0714C28.5951 21.0058 28.7345 20.7925 28.7345 20.7925C28.0702 20.6777 27.9963 20.5383 27.9963 20.5383C28.0455 20.4726 28.0865 20.3004 28.0865 20.3004C26.9382 20.1528 26.8438 19.3407 26.8438 19.3407C27.1883 19.882 27.742 19.6729 27.742 19.6729L27.5082 19.2545C28.1602 19.9312 29.0091 19.4391 29.0091 19.4391L28.7835 19.193C29.8826 19.4719 30.1533 18.8404 30.1533 18.8404C29.8334 18.7911 29.5996 18.6455 29.5996 18.6455C30.9161 18.9162 30.9406 18.1595 30.9406 18.1595C30.8012 18.1185 30.3746 17.9792 30.3746 17.9792C31.6377 18.1351 31.6788 17.2082 31.6788 17.2082C31.2687 17.3065 30.6371 17.2574 30.6371 17.2574C32.2365 17.1425 32.2612 16.2404 32.2612 16.2404C31.5804 16.4865 30.9734 16.3962 30.9734 16.3962C32.8106 16.1748 32.7861 15.0592 32.7861 15.0592C31.8921 15.658 31.0144 15.6744 31.0144 15.6744C33.1643 15.0919 33.0002 13.9601 33.0002 13.9601ZM31.1363 22.074C31.0486 21.9317 31.2575 21.8043 31.3515 21.6689L31.7151 21.8043C31.5916 21.9515 31.2266 22.2207 31.1363 22.074ZM30.8934 21.4982C30.7754 21.6809 30.6934 21.8858 30.3304 21.8956C29.8752 21.9078 29.8014 21.5018 29.703 21.2804C29.6743 21.2158 29.6248 21.167 29.568 21.1336C29.5678 21.0938 29.5699 21.0502 29.5734 21.0062L30.8934 21.4982Z" fill="#E6B432"/>
<path d="M23.9658 12.8325C23.9658 12.8325 23.3815 12.3343 23.2092 12.0636C23.2092 12.0636 23.406 11.9836 23.5044 11.8606C23.5044 11.8606 22.9754 11.5777 22.6924 11.2886C22.6924 11.2886 22.877 11.2578 23.0185 11.1409C23.0185 11.1409 22.5434 11.055 22.3024 10.666C22.8517 10.4784 22.6679 9.96594 22.6679 9.96594C22.5571 10.1136 22.1019 10.2981 21.6098 10.0889C21.1177 9.87979 20.5764 10.0273 20.5764 10.2981C20.5764 10.2981 19.4691 9.97822 19.746 11.0487C19.746 11.0487 19.9243 10.6488 20.318 10.7965C20.7118 10.9441 21.1116 11.4485 21.1116 11.4485C21.1116 11.4485 20.8655 11.5838 20.4104 11.4362C20.4104 11.4362 20.595 12.1436 21.4254 11.7868C21.4254 11.7868 21.7534 11.9632 21.7698 12.4799C21.7698 12.4799 21.9092 12.4061 21.9995 12.2421C21.9995 12.2421 22.1308 12.7423 21.9585 13.1525C21.9585 13.1525 22.1882 13.1115 22.2621 13.0377C22.2621 13.0377 22.3277 13.4724 22.0407 13.8251C22.0407 13.8251 23.3017 14.4259 24.1015 13.7677C24.1015 13.7677 23.8001 13.4232 23.7016 13.1034C23.7013 13.1032 23.8673 13.0355 23.9658 12.8325Z" fill="#E6B432"/>
<path d="M27.6258 10.2981C27.6258 10.0274 27.0845 9.87979 26.5924 10.0889C26.1003 10.2981 25.6451 10.1136 25.5344 9.96594C25.5344 9.96594 25.3504 10.4784 25.8998 10.666C25.6589 11.055 25.1837 11.1409 25.1837 11.1409C25.3253 11.2578 25.5098 11.2886 25.5098 11.2886C25.2269 11.5777 24.6978 11.8606 24.6978 11.8606C24.7962 11.9836 24.9931 12.0636 24.9931 12.0636C24.8208 12.3343 24.2364 12.8325 24.2364 12.8325C24.3347 13.0355 24.501 13.1032 24.501 13.1032C24.4026 13.4231 24.1011 13.7675 24.1011 13.7675C24.9008 14.4257 26.1619 13.8249 26.1619 13.8249C25.8749 13.4722 25.9405 13.0375 25.9405 13.0375C26.0144 13.1113 26.2441 13.1523 26.2441 13.1523C26.0718 12.7423 26.2031 12.2419 26.2031 12.2419C26.2933 12.406 26.4328 12.4798 26.4328 12.4798C26.4492 11.963 26.7772 11.7867 26.7772 11.7867C27.6077 12.1435 27.7923 11.436 27.7923 11.436C27.3371 11.5837 27.091 11.4483 27.091 11.4483C27.091 11.4483 27.4908 10.9439 27.8846 10.7963C28.2783 10.6486 28.4567 11.0485 28.4567 11.0485C28.733 9.97822 27.6258 10.2981 27.6258 10.2981Z" fill="#E6B432"/>
<path d="M27.1246 16.8328C27.0166 16.2041 26.9235 15.6611 27.1947 15.039L27.2454 14.9228L26.1713 13.6895L26.0443 13.7317C26.0334 13.7355 24.9107 14.1025 24.191 13.7425L24.1012 13.6976L24.0114 13.7425C23.295 14.1015 22.1694 13.7355 22.1578 13.7315L22.0308 13.6896L20.9569 14.9228L21.0075 15.039C21.2788 15.6611 21.1857 16.2041 21.0777 16.8328C20.9759 17.4264 20.8605 18.0993 21.0636 18.9199C21.284 19.8107 22.0262 20.1273 22.6808 20.4071C23.1854 20.6224 23.662 20.8259 23.9314 21.2529L24.1011 21.522L24.2708 21.2529C24.5402 20.8259 25.0167 20.6225 25.5214 20.4071C26.1761 20.1274 26.9182 19.8108 27.1386 18.9199C27.3417 18.0993 27.2262 17.4263 27.1246 16.8328ZM21.424 14.9975L22.1611 14.1513C22.4951 14.243 23.3977 14.4416 24.1011 14.143C24.8044 14.4417 25.707 14.243 26.0411 14.1513L26.7782 14.9975C26.5194 15.6793 26.6213 16.2736 26.7289 16.9007C26.8094 17.3705 26.8896 17.8546 26.8223 18.412H21.3799C21.3127 17.8546 21.3928 17.3705 21.4733 16.9007C21.5809 16.2736 21.6828 15.6792 21.424 14.9975ZM25.3639 20.0379C24.9077 20.2327 24.4383 20.433 24.1011 20.8131C23.7639 20.433 23.2945 20.2327 22.8383 20.0379C22.1982 19.7646 21.6459 19.5257 21.4637 18.855H26.7383C26.5563 19.5257 26.004 19.7647 25.3639 20.0379Z" fill="#E6B432"/>
<path d="M21.4237 14.9977L22.1608 14.1514C22.4948 14.2432 23.3974 14.4418 24.1008 14.1432C24.8041 14.4419 25.7067 14.2431 26.0408 14.1514L26.7779 14.9977C26.5191 15.6795 26.621 16.2737 26.7286 16.9008C26.8091 17.3707 26.8893 17.8547 26.822 18.4122H21.3796C21.3124 17.8547 21.3926 17.3707 21.473 16.9008C21.5806 16.2737 21.6825 15.6794 21.4237 14.9977Z" fill="#41479B"/>
<path d="M21.4355 18.7379C21.4418 18.7666 21.4458 18.7943 21.4531 18.8235C21.6255 19.5202 22.1876 19.7601 22.8384 20.0379C23.2946 20.2327 23.764 20.4329 24.1012 20.8131C24.4384 20.4329 24.9078 20.2327 25.364 20.0379C26.0148 19.76 26.5769 19.5201 26.7493 18.8235C26.7565 18.7944 26.7605 18.7666 26.7669 18.7379H21.4355Z" fill="#73AF00"/>
<path d="M26.5086 16.4117C26.5086 16.0488 26.1637 15.9916 25.8502 15.9978C25.5366 16.004 25.078 15.9468 25.0664 15.703C25.0592 15.551 25.3142 15.5369 25.4803 15.5901C25.5767 15.6211 26.1763 15.7281 26.3645 15.3268C26.3645 15.3268 26.1452 15.3338 25.9137 15.2819C25.7354 15.2419 25.0037 15.333 24.872 15.6152C24.7402 15.8974 25.1649 16.179 25.654 16.179C26.1431 16.179 26.2102 16.2769 26.2064 16.3961C26.2013 16.5528 25.8135 16.5972 25.5906 16.5951C25.2396 16.4677 24.4208 16.5675 24.4169 16.552C24.4122 16.5331 24.228 16.2168 24.228 16.2168C24.228 16.2168 24.5632 16.1932 24.6057 16.1318C24.6482 16.0705 24.3514 15.8347 24.3514 15.8347C24.3514 15.8347 24.601 15.7352 24.6105 15.6644C24.6208 15.5865 24.4078 15.4021 24.4078 15.4021C24.4078 15.4021 24.4901 15.321 24.552 15.1825C24.5962 15.0836 24.2448 15.0572 24.2448 15.0572C24.2636 14.982 24.2564 14.909 24.1632 14.8753C24.0912 14.8493 23.8246 14.9505 23.6428 14.9505C23.461 14.9505 23.3919 15.0822 23.3919 15.0822C23.3919 15.0822 23.0722 15.1199 23.0282 15.1574C22.9843 15.1951 23.0407 15.4396 23.0407 15.4396C22.8777 15.4145 22.8025 15.2703 22.8025 15.2703C22.721 15.6402 23.1036 15.6779 23.1036 15.6779L23.1663 15.8786C23.1663 15.8786 23.1663 15.8786 23.323 15.8974C23.4798 15.9163 23.4046 16.0668 23.16 16.0668C22.9154 16.0668 22.8116 16.3585 22.8116 16.3585C22.6417 16.3633 22.5472 16.2263 22.5095 16.0516C22.4678 15.8593 22.4924 15.5638 22.5236 15.3765C22.5614 15.1498 22.4481 15.0837 22.4481 15.0837L22.3725 15.2726C22.3678 15.079 22.1977 15.0602 22.1977 15.0602L22.1694 15.2962C22.0844 15.1404 21.9382 15.2112 21.9382 15.2112C21.9382 15.2112 22.0798 15.7211 22.0751 15.7494C22.0703 15.7777 22.0232 15.8014 21.9571 15.7305C21.891 15.6596 21.8438 15.7069 21.8438 15.7069C21.9147 16.2168 22.1881 16.1419 22.1881 16.1419C22.1881 16.1419 22.2003 16.3017 22.2829 16.626C22.371 16.9722 22.7336 16.907 22.7336 16.907C22.7336 17.0199 22.8215 17.1829 22.8465 17.5592C22.8715 17.9354 22.5267 18.1988 22.5267 18.1988C22.2131 18.1925 22.2445 18.4998 22.2445 18.4998H23.1098C23.1098 17.6997 23.4538 17.5625 23.4538 17.5625C23.9637 17.5862 24.4548 17.3736 24.4548 17.3736C24.3792 17.6806 24.5115 17.808 24.5115 17.808C24.7192 17.7797 24.6154 18.1904 24.554 18.1904C24.4926 18.1904 24.3651 18.1904 24.2896 18.1904C24.2141 18.1904 23.9968 18.4264 23.9968 18.4264H24.8939C24.8939 18.4264 25.0309 18.2282 25.078 18.1291C25.1252 18.0299 24.9741 17.893 24.9648 17.7891C24.9554 17.6853 25.1206 17.6192 25.1206 17.6192C25.2953 17.8646 25.6966 17.8788 25.6966 17.8788L25.6872 17.6947C25.6872 17.6947 25.895 17.7656 25.9422 17.8269C25.9894 17.8882 25.98 18.1716 25.7298 18.2046C25.4796 18.2376 25.4606 18.4171 25.4606 18.4171C25.4606 18.4171 26.0319 18.4171 26.1453 18.4171C26.2586 18.4171 26.3482 18.2046 26.3482 18.1243C26.3482 18.044 26.3482 17.52 26.3482 17.4065C26.3482 17.2933 26.2538 17.3074 26.0319 17.2837C25.8304 17.2623 25.8497 17.0418 25.7666 16.7857C26.058 16.776 26.5086 16.7122 26.5086 16.4117Z" fill="#E6B432"/>
<path d="M26.4558 7.83158C26.3996 7.33649 26.0049 6.70602 24.5017 6.41052C24.4967 6.25077 24.3984 6.11539 24.2579 6.05839V5.78249H24.504V5.48727H24.2579V5.24127H23.9627V5.48737H23.7166V5.78258H23.9627V6.05849C23.8223 6.11549 23.7239 6.25086 23.7189 6.41061C22.2157 6.70621 21.821 7.33658 21.7648 7.83167C21.6948 8.44902 22.1369 9.03439 22.5355 9.25873V9.57195H25.6852V9.25873C26.0837 9.03439 26.5257 8.44892 26.4558 7.83158ZM24.8069 8.78455H24.3661V6.96871C24.7295 7.13286 24.9543 7.38458 25.0197 7.73033C25.1012 8.16083 24.9291 8.59977 24.8069 8.78455ZM23.2008 7.73005C23.2662 7.3843 23.4909 7.13268 23.8544 6.96861V8.78445H23.4135C23.2912 8.59977 23.1191 8.16064 23.2008 7.73005ZM22.8364 7.23149C22.764 7.37652 22.7178 7.52155 22.6943 7.65477C22.623 8.05808 22.7047 8.46795 22.8397 8.78455H22.7363C22.5154 8.63248 22.2316 8.25842 22.2735 7.88933C22.3027 7.63105 22.4985 7.40952 22.8364 7.23149ZM25.4843 8.78455H25.3807C25.5157 8.46814 25.5974 8.05827 25.5263 7.65496C25.5026 7.52174 25.4565 7.37652 25.384 7.23139C25.722 7.40942 25.9178 7.63114 25.947 7.88924C25.9889 8.25842 25.7051 8.63248 25.4843 8.78455Z" fill="#E6B432"/>
</g>
<defs>
<clipPath id="clip0_11_4635">
<rect width="48" height="32" fill="white"/>
</clipPath>
</defs>
</svg>
