<svg width="48" height="32" viewBox="0 0 48 32" fill="none" xmlns="http://www.w3.org/2000/svg">
<g clip-path="url(#clip0_11_2485)">
<path d="M47.1723 31.7241H0.827623C0.370593 31.7241 0 31.3535 0 30.8965V1.10347C0 0.646441 0.370593 0.275848 0.827623 0.275848H47.1724C47.6294 0.275848 48 0.646441 48 1.10347V30.8965C47.9999 31.3536 47.6293 31.7241 47.1723 31.7241Z" fill="#41479B"/>
<path d="M0.372937 31.5698L47.9999 11.8621V6.06903L0 30.8966C0 31.1819 0.153281 31.421 0.372937 31.5698Z" fill="white"/>
<path d="M47.6866 0.47049L0 30.069V30.8966L47.9999 6.06904V1.10349C47.9999 0.844082 47.8733 0.62227 47.6866 0.47049Z" fill="#FF9B55"/>
<path d="M13.6785 11.7034L19.0345 11.0345L13.6785 10.3657L16.393 8.70078L13.0155 9.52662L15.071 6.72219L12.2667 8.77775L13.0924 5.40022L11.4276 8.11475L10.7587 2.75873L10.0898 8.11475L8.42492 5.40022L9.25076 8.77775L6.44633 6.72219L8.50188 9.52662L5.12436 8.70078L7.83889 10.3657L2.48286 11.0345L7.83889 11.7034L5.12436 13.3683L8.50188 12.5425L6.44633 15.3469L9.25076 13.2913L8.42492 16.6689L10.0898 13.9543L10.7587 19.3104L11.4276 13.9543L13.0924 16.6689L12.2667 13.2913L15.071 15.3469L13.0155 12.5425L16.393 13.3683L13.6785 11.7034Z" fill="white"/>
</g>
<defs>
<clipPath id="clip0_11_2485">
<rect width="48" height="32" fill="white"/>
</clipPath>
</defs>
</svg>
