<svg width="48" height="32" viewBox="0 0 48 32" fill="none" xmlns="http://www.w3.org/2000/svg">
<g clip-path="url(#clip0_11_4613)">
<path d="M47.1723 31.7242H0.827623C0.370593 31.7242 0 31.3536 0 30.8966V1.10362C0 0.646594 0.370593 0.276001 0.827623 0.276001H47.1724C47.6294 0.276001 48 0.646594 48 1.10362V30.8967C47.9999 31.3538 47.6293 31.7242 47.1723 31.7242Z" fill="#FF4B55"/>
<path d="M21.1621 13.0016C21.1615 13.002 21.1611 13.0025 21.1605 13.0028L9.10353 0.276123H0.827761C0.626574 0.276123 0.448918 0.356748 0.305481 0.476185L20.5427 13.735C20.7195 13.4656 20.929 13.2223 21.1621 13.0016Z" fill="#FFE15A"/>
<path d="M19.9048 16.424C19.8901 16.2826 19.862 16.1453 19.862 16C19.862 15.8548 19.8901 15.7175 19.9048 15.5761V15.5763L0 13.5173V18.4828L19.9048 16.4237V16.424Z" fill="#FFE15A"/>
<path d="M23.3566 11.9269C23.5677 11.8938 23.7796 11.8622 23.9999 11.8622C24.2202 11.8622 24.4321 11.8939 24.6431 11.9269H24.643L26.4826 0.276001H21.5171L23.3566 11.9269Z" fill="#FFE15A"/>
<path d="M27.4574 13.735L47.6947 0.476185C47.5512 0.356748 47.3736 0.276123 47.1724 0.276123H38.8966L26.8396 13.0029C26.839 13.0026 26.8385 13.0021 26.838 13.0017C27.071 13.2223 27.2806 13.4656 27.4574 13.735Z" fill="#FFE15A"/>
<path d="M26.838 18.9985C26.8385 18.9981 26.839 18.9976 26.8396 18.9973L38.8966 31.7241H47.1724C47.3736 31.7241 47.5513 31.6435 47.6947 31.524L27.4574 18.2651C27.2806 18.5345 27.071 18.7779 26.838 18.9985Z" fill="#FFE15A"/>
<path d="M28.095 15.5764V15.5762C28.1097 15.7175 28.1378 15.8549 28.1378 16.0001C28.1378 16.1454 28.1097 16.2827 28.095 16.4241V16.4239L47.9998 18.4828V13.5173L28.095 15.5764Z" fill="#FFE15A"/>
<path d="M24.6431 20.0734C24.4321 20.1065 24.2202 20.1382 23.9999 20.1382C23.7796 20.1382 23.5677 20.1065 23.3566 20.0734H23.3567L21.5171 31.7244H26.4826L24.6431 20.0734Z" fill="#FFE15A"/>
<path d="M20.5427 18.2651L0.305389 31.524C0.448827 31.6435 0.626483 31.7241 0.82767 31.7241H9.10353L21.1605 18.9973C21.1611 18.9976 21.1615 18.9981 21.1621 18.9985C20.929 18.7779 20.7195 18.5345 20.5427 18.2651Z" fill="#FFE15A"/>
<path d="M24 19.3104C25.8282 19.3104 27.3103 17.8283 27.3103 16.0001C27.3103 14.1718 25.8282 12.6898 24 12.6898C22.1718 12.6898 20.6897 14.1718 20.6897 16.0001C20.6897 17.8283 22.1718 19.3104 24 19.3104Z" fill="#FFE15A"/>
</g>
<defs>
<clipPath id="clip0_11_4613">
<rect width="48" height="32" fill="white"/>
</clipPath>
</defs>
</svg>
