<svg width="48" height="32" viewBox="0 0 48 32" fill="none" xmlns="http://www.w3.org/2000/svg">
<g clip-path="url(#clip0_11_1598)">
<path d="M0 21.2413H47.9999V30.8964C47.9999 31.3535 47.6293 31.7241 47.1723 31.7241H0.827623C0.370593 31.7241 0 31.3535 0 30.8964V21.2413Z" fill="#FF4B55"/>
<path d="M0.827623 0.275879H47.1724C47.6294 0.275879 48 0.646471 48 1.1035V10.7586H0V1.10341C0 0.646378 0.370593 0.275879 0.827623 0.275879Z" fill="#FFE15A"/>
<path d="M47.9999 10.7584H0V21.2406H47.9999V10.7584Z" fill="#73AF00"/>
<path d="M24.4716 5.58984L26.9499 13.0207L34.7829 13.0815C35.2608 13.0852 35.4588 13.6949 35.0746 13.9788L28.7733 18.632L31.136 26.1004C31.2801 26.5561 30.7614 26.9328 30.3727 26.6551L23.9999 22.1L17.6272 26.6551C17.2384 26.9329 16.7198 26.5561 16.8639 26.1004L19.2266 18.632L12.9253 13.9788C12.541 13.6949 12.739 13.085 13.217 13.0815L21.05 13.0207L23.5282 5.58984C23.6793 5.13656 24.3205 5.13656 24.4716 5.58984Z" fill="white"/>
</g>
<defs>
<clipPath id="clip0_11_1598">
<rect width="48" height="32" fill="white"/>
</clipPath>
</defs>
</svg>
