<svg width="48" height="32" viewBox="0 0 48 32" fill="none" xmlns="http://www.w3.org/2000/svg">
<g clip-path="url(#clip0_11_4915)">
<path d="M32 0.275208H47.1724C47.6294 0.275208 48 0.645801 48 1.10283V30.8959C48 31.353 47.6294 31.7235 47.1724 31.7235H32V0.275208Z" fill="#FF4B55"/>
<path d="M32.0007 0.275635H16.0004V31.7241H32.0007V0.275635Z" fill="#41479B"/>
<path d="M0.827625 0.275208H16V31.7235H0.827625C0.370594 31.7235 0 31.3529 0 30.8958V1.10274C0 0.645707 0.370594 0.275208 0.827625 0.275208Z" fill="#FF4B55"/>
<path d="M8.03335 13.2838C6.78263 13.2838 5.7106 12.5302 5.23829 11.4539C5.23801 11.4703 5.23341 11.4855 5.23341 11.502C5.23341 13.0483 6.48704 14.3019 8.03335 14.3019C9.57966 14.3019 10.8332 13.0483 10.8332 11.502C10.8332 11.4855 10.8286 11.4703 10.8283 11.454C10.356 12.5302 9.28397 13.2838 8.03335 13.2838Z" fill="#F9CF02"/>
<path d="M8.03347 12.7745C9.15806 12.7745 10.0697 11.8629 10.0697 10.7383C10.0697 9.61369 9.15806 8.70203 8.03347 8.70203C6.90888 8.70203 5.99722 9.61369 5.99722 10.7383C5.99722 11.8629 6.90888 12.7745 8.03347 12.7745Z" fill="#F9CF02"/>
<path d="M6.76068 6.92018C6.76068 7.62302 7.33049 8.19283 8.03334 8.19283C8.73618 8.19283 9.30599 7.62302 9.30599 6.92018C9.30599 6.41111 8.98781 6.34746 8.98781 6.15658C8.98781 5.96571 9.17868 5.71118 8.79693 5.39299C8.98781 5.71118 8.66971 5.77483 8.66971 6.09293C8.66971 6.41102 8.79693 6.41111 8.79693 6.66564C8.79693 6.80627 8.68293 6.92008 8.54249 6.92008C8.40187 6.92008 8.28806 6.80608 8.28806 6.66564C8.28806 6.41121 8.54249 6.15658 8.54249 5.77474C8.54249 5.3929 8.47884 5.26568 8.28806 4.94749C8.09718 4.6293 7.77899 4.37477 8.03362 4.12024C7.65178 4.24746 7.84274 4.75652 7.84274 5.0748C7.84274 5.39299 7.58831 5.58386 7.58831 5.96571C7.58831 6.34755 7.77918 6.41111 7.77918 6.66564C7.77918 6.80627 7.66518 6.92008 7.52474 6.92008C7.38431 6.92008 7.27031 6.80608 7.27031 6.66564C7.27031 6.41121 7.39752 6.41121 7.39752 6.09293C7.39752 5.77465 7.07934 5.71108 7.27031 5.39299C6.88846 5.71118 7.07943 5.96571 7.07943 6.15658C7.07887 6.34746 6.76068 6.41102 6.76068 6.92018Z" fill="#F9CF02"/>
<path d="M2.43367 15.0206V26.8179C2.43367 26.934 2.5278 27.028 2.64376 27.028H4.7688C4.88486 27.028 4.97889 26.9339 4.97889 26.8179V15.0206C4.97889 14.9046 4.88476 14.8105 4.7688 14.8105H2.64376C2.5278 14.8105 2.43367 14.9046 2.43367 15.0206Z" fill="#F9CF02"/>
<path d="M11.0878 15.0206V26.8179C11.0878 26.934 11.1819 27.028 11.2979 27.028H13.4229C13.539 27.028 13.633 26.9339 13.633 26.8179V15.0206C13.633 14.9046 13.5389 14.8105 13.4229 14.8105H11.2979C11.1818 14.8105 11.0878 14.9046 11.0878 15.0206Z" fill="#F9CF02"/>
<path d="M5.48798 17.057V17.6549C5.48798 17.7709 5.5821 17.865 5.69807 17.865H10.3684C10.4845 17.865 10.5785 17.7708 10.5785 17.6549V17.057C10.5785 16.941 10.4844 16.8469 10.3684 16.8469H5.69807C5.58201 16.8469 5.48798 16.941 5.48798 17.057Z" fill="#F9CF02"/>
<path d="M5.48798 24.1835V24.7814C5.48798 24.8975 5.5821 24.9915 5.69807 24.9915H10.3684C10.4845 24.9915 10.5785 24.8974 10.5785 24.7814V24.1835C10.5785 24.0675 10.4844 23.9734 10.3684 23.9734H5.69807C5.58201 23.9734 5.48798 24.0675 5.48798 24.1835Z" fill="#F9CF02"/>
<path d="M5.86725 14.8104H10.1992C10.3058 14.8104 10.3446 14.9508 10.2533 15.0056L8.19553 16.2404C8.09568 16.3003 7.9709 16.3003 7.87125 16.2404L5.81325 15.0056C5.72184 14.9508 5.76075 14.8104 5.86725 14.8104Z" fill="#F9CF02"/>
<path d="M5.86725 25.5007H10.1992C10.3058 25.5007 10.3447 25.6411 10.2533 25.6959L8.19534 26.9306C8.0955 26.9905 7.97072 26.9905 7.87106 26.9306L5.81316 25.6958C5.72185 25.641 5.76075 25.5007 5.86725 25.5007Z" fill="#F9CF02"/>
<path d="M8.28203 18.3938C8.20178 18.3862 8.12406 18.3696 8.04184 18.3696C6.64206 18.3696 5.50328 19.5083 5.50328 20.9081C5.50328 21.7389 5.90912 22.4702 6.52919 22.9315C6.60053 22.9846 6.69484 22.9079 6.66016 22.8259C6.58581 22.6497 6.544 22.4567 6.544 22.2534C6.544 21.4261 7.21834 20.7533 8.04644 20.7558C8.48172 20.7571 8.899 20.5421 9.09166 20.1518C9.49019 19.3445 9.00391 18.5421 8.28203 18.3938ZM8.04184 20.0704C7.76153 20.0704 7.53409 19.8431 7.53409 19.5626C7.53409 19.2823 7.76144 19.055 8.04184 19.055C8.32216 19.055 8.5495 19.2822 8.5495 19.5626C8.54941 19.8431 8.32216 20.0704 8.04184 20.0704Z" fill="#F9CF02"/>
<path d="M9.55423 18.885C9.48289 18.832 9.38858 18.9087 9.42327 18.9907C9.4977 19.1668 9.53942 19.3599 9.53942 19.563C9.53942 20.3905 8.86498 21.0633 8.03699 21.0608C7.6017 21.0595 7.18433 21.2744 6.99177 21.6648C6.59342 22.4722 7.07971 23.2747 7.80158 23.4227C7.88183 23.4304 7.95955 23.447 8.04177 23.447C9.44145 23.447 10.5803 22.3082 10.5803 20.9084C10.5801 20.0777 10.1743 19.3465 9.55423 18.885ZM8.04177 22.7616C7.76145 22.7616 7.53402 22.5343 7.53402 22.2538C7.53402 21.9735 7.76136 21.7462 8.04177 21.7462C8.32208 21.7462 8.54942 21.9734 8.54942 22.2538C8.54933 22.5342 8.32208 22.7616 8.04177 22.7616Z" fill="#F9CF02"/>
</g>
<defs>
<clipPath id="clip0_11_4915">
<rect width="48" height="32" fill="white"/>
</clipPath>
</defs>
</svg>
