<svg width="48" height="32" viewBox="0 0 48 32" fill="none" xmlns="http://www.w3.org/2000/svg">
<g clip-path="url(#clip0_11_3674)">
<path d="M47.1723 31.7243H0.827623C0.370593 31.7243 0 31.3537 0 30.8966V1.10359C0 0.646563 0.370593 0.27597 0.827623 0.27597H47.1724C47.6294 0.27597 48 0.646563 48 1.10359V30.8966C47.9999 31.3538 47.6293 31.7243 47.1723 31.7243Z" fill="#5AA587"/>
<path d="M25.9803 20.2759C26.9081 20.4977 27.8985 20.515 28.889 20.2691C30.6338 19.8359 32.014 18.6982 32.8161 17.2375C31.4239 16.3216 29.6719 15.9616 27.927 16.3949C26.989 16.6278 26.166 17.0745 25.4724 17.6558C25.4789 17.6471 25.4844 17.6386 25.4909 17.6298C28.0603 15.3128 30.9288 16.0608 30.9288 16.0608L31.6074 15.481C31.6074 15.481 28.7141 14.4813 26.1225 16.6251C27.7265 13.5197 25.9957 10.8559 25.9957 10.8559L25.5965 11.6542C25.5965 11.6542 27.0358 14.2936 25.3519 17.3732C25.3499 17.3755 25.348 17.3779 25.346 17.3802C25.7563 16.5559 25.9957 15.6319 25.9957 14.648C25.9957 12.8502 25.2242 11.2365 23.9997 10.106C22.7754 11.2365 22.0038 12.8502 22.0038 14.648C22.0038 15.632 22.2431 16.5559 22.6535 17.3802C22.6515 17.3779 22.6496 17.3754 22.6476 17.3732C20.9636 14.2936 22.403 11.6542 22.403 11.6542L22.0038 10.8559C22.0038 10.8559 20.2731 13.5197 21.877 16.6251C19.2853 14.4814 16.392 15.481 16.392 15.481L17.0707 16.0608C17.0707 16.0608 19.9391 15.3127 22.5086 17.6298C22.5151 17.6386 22.5206 17.6471 22.5271 17.6558C21.8336 17.0745 21.0105 16.6278 20.0725 16.3949C18.3276 15.9616 16.5756 16.3216 15.1834 17.2375C15.9854 18.6982 17.3656 19.8358 19.1106 20.2691C20.101 20.515 21.0914 20.4977 22.0193 20.2759C18.5622 21.2425 16.3012 19.1602 16.3012 19.1602L15.4302 19.3552C15.4302 19.3552 18.9241 23.1018 23.9997 19.4265C29.0754 23.1017 32.5693 19.3552 32.5693 19.3552L31.6983 19.1602C31.6985 19.1602 29.4373 21.2424 25.9803 20.2759Z" fill="white"/>
<path d="M18.9556 24.5885C19.3163 24.8125 19.6935 25.012 20.0839 25.1873H27.9157C28.3064 25.012 28.6834 24.8125 29.0441 24.5885H18.9556Z" fill="white"/>
<path d="M20.7856 25.4705C21.7905 25.8285 22.872 26.0248 23.9999 26.0248C25.1277 26.0248 26.2092 25.8284 27.2141 25.4705H20.7856Z" fill="white"/>
<path d="M16.832 22.7979C16.953 22.9341 17.0766 23.0679 17.205 23.197H30.7949C30.9233 23.0679 31.0469 22.9342 31.1679 22.7979H16.832Z" fill="white"/>
<path d="M17.708 23.6656C17.908 23.84 18.1144 24.0071 18.3285 24.1646H29.6715C29.8855 24.007 30.092 23.8399 30.2919 23.6656H17.708Z" fill="white"/>
<path d="M27.9917 21.7333C25.7561 21.7333 24.2265 20.2391 24.2112 20.2239L23.9993 20.0133L23.7882 20.2243C23.773 20.2395 22.2532 21.7333 20.0081 21.7333H16.0128C16.1491 21.9389 16.294 22.1381 16.4455 22.3321H20.0083C22.0166 22.3321 23.4747 21.2815 24.0001 20.8387C24.5253 21.2816 25.9834 22.3321 27.9918 22.3321H31.5546C31.706 22.1381 31.851 21.9389 31.9874 21.7333H27.9917Z" fill="white"/>
<path d="M23.8951 6.05113L23.5448 7.10141L22.4377 7.11003C22.3316 7.11087 22.2875 7.24634 22.3729 7.30934L23.2637 7.96709L22.9297 9.02271C22.8977 9.12396 23.013 9.20768 23.0994 9.1459L24.0001 8.50212L24.9009 9.1459C24.9872 9.20768 25.1026 9.12387 25.0706 9.02271L24.7366 7.96709L25.6274 7.30934C25.7128 7.24625 25.6687 7.11078 25.5626 7.11003L24.4555 7.10141L24.1052 6.05113C24.0711 5.95034 23.9286 5.95034 23.8951 6.05113Z" fill="#FFE15A"/>
<path d="M18.6557 8.20088L18.8585 8.9372L18.2275 9.36742C18.1669 9.40867 18.1937 9.50326 18.267 9.50654L19.0301 9.54132L19.2442 10.2744C19.2648 10.3448 19.363 10.3484 19.3887 10.2799L19.6575 9.56495L20.4209 9.58782C20.4942 9.58998 20.528 9.49773 20.4708 9.45207L19.8739 8.97545L20.1316 8.25647C20.1564 8.18747 20.079 8.12682 20.0179 8.16713L19.3802 8.58751L18.7761 8.12025C18.7179 8.07544 18.6362 8.13029 18.6557 8.20088Z" fill="#FFE15A"/>
<path d="M15.6009 11.9098L16.1532 12.4374L15.8328 13.1307C15.8021 13.1972 15.8737 13.2645 15.9381 13.2297L16.6105 12.8676L17.1708 13.3866C17.2245 13.4364 17.3107 13.389 17.2976 13.317L17.161 12.5656L17.8277 12.193C17.8916 12.1573 17.8734 12.0607 17.8007 12.0509L17.0438 11.9488L16.8955 11.1995C16.8813 11.1276 16.7837 11.1153 16.752 11.1813L16.4209 11.8695L15.6626 11.779C15.5898 11.7703 15.5479 11.8591 15.6009 11.9098Z" fill="#FFE15A"/>
<path d="M29.518 8.20088L29.3152 8.9372L29.9462 9.36742C30.0068 9.40867 29.98 9.50326 29.9067 9.50654L29.1437 9.54132L28.9295 10.2744C28.9089 10.3448 28.8108 10.3484 28.785 10.2799L28.5162 9.56495L27.7528 9.58782C27.6796 9.58998 27.6457 9.49773 27.7029 9.45207L28.2998 8.97545L28.0421 8.25647C28.0173 8.18747 28.0947 8.12682 28.1558 8.16713L28.7935 8.58751L29.3976 8.12025C29.4558 8.07544 29.5374 8.13029 29.518 8.20088Z" fill="#FFE15A"/>
<path d="M32.5728 11.9098L32.0205 12.4374L32.3408 13.1307C32.3716 13.1972 32.2999 13.2645 32.2355 13.2297L31.5632 12.8676L31.0028 13.3866C30.9491 13.4364 30.863 13.389 30.876 13.317L31.0127 12.5656L30.3459 12.193C30.282 12.1573 30.3003 12.0607 30.3729 12.0509L31.1299 11.9488L31.2782 11.1995C31.2923 11.1276 31.3899 11.1153 31.4216 11.1813L31.7527 11.8695L32.5111 11.779C32.5838 11.7703 32.6257 11.8591 32.5728 11.9098Z" fill="#FFE15A"/>
</g>
<defs>
<clipPath id="clip0_11_3674">
<rect width="48" height="32" fill="white"/>
</clipPath>
</defs>
</svg>
