<svg width="48" height="32" viewBox="0 0 48 32" fill="none" xmlns="http://www.w3.org/2000/svg">
<g clip-path="url(#clip0_11_3567)">
<path d="M47.1723 31.7242H0.827623C0.370593 31.7242 0 31.3536 0 30.8965V1.10359C0 0.646563 0.370593 0.27597 0.827623 0.27597H47.1724C47.6294 0.27597 48 0.646563 48 1.10359V30.8965C47.9999 31.3537 47.6293 31.7242 47.1723 31.7242Z" fill="#4173CD"/>
<path d="M23.9998 27.9999C17.3833 27.9999 11.9999 22.6166 11.9999 15.9999C11.9999 9.38327 17.3832 3.99997 23.9998 3.99997C30.6165 3.99997 35.9998 9.38327 35.9998 15.9999C35.9998 22.6166 30.6165 27.9999 23.9998 27.9999ZM23.9998 6.48275C18.7518 6.48275 14.4826 10.752 14.4826 15.9999C14.4826 21.2479 18.7519 25.5171 23.9998 25.5171C29.2478 25.5171 33.517 21.2479 33.517 15.9999C33.517 10.752 29.2479 6.48275 23.9998 6.48275Z" fill="white"/>
<path d="M23.9997 27.1722C17.8393 27.1722 12.8274 22.1602 12.8274 15.9998C12.8274 9.83944 17.8393 4.82748 23.9997 4.82748C30.1601 4.82748 35.1722 9.83944 35.1722 15.9998C35.1722 22.1602 30.1602 27.1722 23.9997 27.1722ZM23.9997 5.65501C18.2955 5.65501 13.6549 10.2955 13.6549 15.9998C13.6549 21.7041 18.2954 26.3447 23.9997 26.3447C29.704 26.3447 34.3446 21.704 34.3446 15.9998C34.3446 10.2956 29.704 5.65501 23.9997 5.65501Z" fill="#FFDC00"/>
<path d="M13.2411 16.8275C13.6982 16.8275 14.0688 16.4569 14.0688 15.9998C14.0688 15.5428 13.6982 15.1722 13.2411 15.1722C12.784 15.1722 12.4135 15.5428 12.4135 15.9998C12.4135 16.4569 12.784 16.8275 13.2411 16.8275Z" fill="#FFDC00"/>
<path d="M34.7586 16.8275C35.2157 16.8275 35.5862 16.4569 35.5862 15.9998C35.5862 15.5428 35.2157 15.1722 34.7586 15.1722C34.3015 15.1722 33.931 15.5428 33.931 15.9998C33.931 16.4569 34.3015 16.8275 34.7586 16.8275Z" fill="#FFDC00"/>
<path d="M24.0001 6.06874C24.4571 6.06874 24.8277 5.69821 24.8277 5.24112C24.8277 4.78404 24.4571 4.4135 24.0001 4.4135C23.543 4.4135 23.1724 4.78404 23.1724 5.24112C23.1724 5.69821 23.543 6.06874 24.0001 6.06874Z" fill="#FFDC00"/>
<path d="M16.3922 9.21958C16.8493 9.21958 17.2198 8.84904 17.2198 8.39196C17.2198 7.93487 16.8493 7.56433 16.3922 7.56433C15.9351 7.56433 15.5646 7.93487 15.5646 8.39196C15.5646 8.84904 15.9351 9.21958 16.3922 9.21958Z" fill="#FFDC00"/>
<path d="M31.6075 9.21958C32.0646 9.21958 32.4351 8.84904 32.4351 8.39196C32.4351 7.93487 32.0646 7.56433 31.6075 7.56433C31.1504 7.56433 30.7799 7.93487 30.7799 8.39196C30.7799 8.84904 31.1504 9.21958 31.6075 9.21958Z" fill="#FFDC00"/>
<path d="M33.9394 12.7099C34.3965 12.7099 34.767 12.3394 34.767 11.8823C34.767 11.4252 34.3965 11.0547 33.9394 11.0547C33.4823 11.0547 33.1118 11.4252 33.1118 11.8823C33.1118 12.3394 33.4823 12.7099 33.9394 12.7099Z" fill="#FFDC00"/>
<path d="M19.8825 6.88811C20.3396 6.88811 20.7101 6.51757 20.7101 6.06049C20.7101 5.6034 20.3396 5.23286 19.8825 5.23286C19.4254 5.23286 19.0549 5.6034 19.0549 6.06049C19.0549 6.51757 19.4254 6.88811 19.8825 6.88811Z" fill="#FFDC00"/>
<path d="M14.0603 12.7099C14.5174 12.7099 14.8879 12.3394 14.8879 11.8823C14.8879 11.4252 14.5174 11.0547 14.0603 11.0547C13.6032 11.0547 13.2327 11.4252 13.2327 11.8823C13.2327 12.3394 13.6032 12.7099 14.0603 12.7099Z" fill="#FFDC00"/>
<path d="M28.1172 6.88811C28.5743 6.88811 28.9448 6.51757 28.9448 6.06049C28.9448 5.6034 28.5743 5.23286 28.1172 5.23286C27.6601 5.23286 27.2896 5.6034 27.2896 6.06049C27.2896 6.51757 27.6601 6.88811 28.1172 6.88811Z" fill="#FFDC00"/>
<path d="M34.5513 14.7283C35.0084 14.7283 35.379 14.3578 35.379 13.9007C35.379 13.4436 35.0084 13.0731 34.5513 13.0731C34.0942 13.0731 33.7237 13.4436 33.7237 13.9007C33.7237 14.3578 34.0942 14.7283 34.5513 14.7283Z" fill="#FFDC00"/>
<path d="M21.9007 6.27596C22.3578 6.27596 22.7283 5.90542 22.7283 5.44834C22.7283 4.99125 22.3578 4.62071 21.9007 4.62071C21.4436 4.62071 21.0731 4.99125 21.0731 5.44834C21.0731 5.90542 21.4436 6.27596 21.9007 6.27596Z" fill="#FFDC00"/>
<path d="M15.0544 10.85C15.5115 10.85 15.882 10.4794 15.882 10.0224C15.882 9.56527 15.5115 9.19473 15.0544 9.19473C14.5973 9.19473 14.2268 9.56527 14.2268 10.0224C14.2268 10.4794 14.5973 10.85 15.0544 10.85Z" fill="#FFDC00"/>
<path d="M29.9773 7.88271C30.4344 7.88271 30.805 7.51217 30.805 7.05509C30.805 6.598 30.4344 6.22746 29.9773 6.22746C29.5203 6.22746 29.1497 6.598 29.1497 7.05509C29.1497 7.51217 29.5203 7.88271 29.9773 7.88271Z" fill="#FFDC00"/>
<path d="M32.9446 10.85C33.4017 10.85 33.7722 10.4794 33.7722 10.0224C33.7722 9.56527 33.4017 9.19473 32.9446 9.19473C32.4875 9.19473 32.117 9.56527 32.117 10.0224C32.117 10.4794 32.4875 10.85 32.9446 10.85Z" fill="#FFDC00"/>
<path d="M18.0224 7.88271C18.4795 7.88271 18.85 7.51217 18.85 7.05509C18.85 6.598 18.4795 6.22746 18.0224 6.22746C17.5653 6.22746 17.1947 6.598 17.1947 7.05509C17.1947 7.51217 17.5653 7.88271 18.0224 7.88271Z" fill="#FFDC00"/>
<path d="M13.4483 14.7283C13.9054 14.7283 14.276 14.3578 14.276 13.9007C14.276 13.4436 13.9054 13.0731 13.4483 13.0731C12.9913 13.0731 12.6207 13.4436 12.6207 13.9007C12.6207 14.3578 12.9913 14.7283 13.4483 14.7283Z" fill="#FFDC00"/>
<path d="M26.099 6.27596C26.5561 6.27596 26.9266 5.90542 26.9266 5.44834C26.9266 4.99125 26.5561 4.62071 26.099 4.62071C25.6419 4.62071 25.2714 4.99125 25.2714 5.44834C25.2714 5.90542 25.6419 6.27596 26.099 6.27596Z" fill="#FFDC00"/>
<path d="M34.7584 16.4137C34.5296 16.4137 34.3446 16.2286 34.3446 15.9998C34.3446 10.2956 29.704 5.65501 23.9997 5.65501C18.2954 5.65501 13.655 10.2957 13.655 15.9998C13.655 16.2286 13.4699 16.4137 13.2412 16.4137C13.0124 16.4137 12.8274 16.2286 12.8274 15.9998C12.8274 9.83944 17.8393 4.82748 23.9997 4.82748C30.1601 4.82748 35.1722 9.83944 35.1722 15.9998C35.1722 16.2286 34.9871 16.4137 34.7584 16.4137Z" fill="#FFA000"/>
<path d="M26.2994 28.4138H21.7006C20.7179 28.4138 19.9516 27.5627 20.0545 26.5854L21.5172 12.6898H26.4827L27.9454 26.5854C28.0483 27.5627 27.282 28.4138 26.2994 28.4138Z" fill="#B4B4B4"/>
<path d="M26.4594 12.6897H21.5215C21.3039 12.6897 21.1212 12.5258 21.0977 12.3095L20.7893 9.46869C20.7361 8.97923 21.1196 8.55173 21.612 8.55173H26.3881C26.8805 8.55173 27.264 8.97904 27.2109 9.46869L26.9045 12.2904C26.8798 12.5175 26.6879 12.6897 26.4594 12.6897Z" fill="#AAAAAA"/>
<path d="M24.1914 9.51575L25.7255 13.9294L30.3972 14.0245C30.5895 14.0285 30.669 14.2728 30.5156 14.3891L26.7921 17.212L28.1452 21.6844C28.2009 21.8685 27.993 22.0195 27.8351 21.9097L23.9998 19.2408L20.1644 21.9097C20.0065 22.0195 19.7986 21.8685 19.8542 21.6844L21.2073 17.212L17.4839 14.3891C17.3306 14.273 17.41 14.0285 17.6023 14.0245L22.2739 13.9294L23.8081 9.51575C23.8712 9.33396 24.1282 9.33396 24.1914 9.51575Z" fill="white"/>
</g>
<defs>
<clipPath id="clip0_11_3567">
<rect width="48" height="32" fill="white"/>
</clipPath>
</defs>
</svg>
