<svg width="48" height="32" viewBox="0 0 48 32" fill="none" xmlns="http://www.w3.org/2000/svg">
<g clip-path="url(#clip0_11_4067)">
<path d="M47.1723 31.7242H0.827623C0.370593 31.7242 0 31.3536 0 30.8965V1.10359C0 0.646563 0.370593 0.27597 0.827623 0.27597H47.1724C47.6294 0.27597 48 0.646563 48 1.10359V30.8965C47.9999 31.3537 47.6293 31.7242 47.1723 31.7242Z" fill="#41479B"/>
<path d="M47.9999 14.3449H25.6551V0.27597H22.3447V14.3449H0V17.6552H22.3447V31.7242H25.6551V17.6552H47.9999V14.3449Z" fill="white"/>
<path d="M16.1636 11.0426C16.1399 10.9018 16.0865 10.7351 16.019 10.6277C15.8848 10.4423 15.7296 10.3124 15.5792 10.2316C14.3943 9.68731 13.4023 9.79399 12.4557 9.79024C11.5208 9.81434 10.6461 9.97559 9.93601 10.131C9.74326 10.1698 9.57629 10.1988 9.39769 10.2324C9.48601 10.0499 9.80973 9.82165 10.2457 9.68327C11.3084 9.32027 12.5215 9.17449 13.7138 8.94218C14.015 8.88321 14.3202 8.81412 14.6328 8.72525C14.8011 8.66759 14.9427 8.62259 15.1409 8.53053C15.268 8.45862 15.3932 8.36815 15.5002 8.2715C15.6142 8.16893 15.6055 8.14025 15.6642 8.07106C15.935 7.55572 15.6786 7.18878 15.4638 6.99715C15.2567 6.82719 15.0822 6.76081 14.9162 6.69247C14.5939 6.57941 14.2953 6.50853 14.0071 6.44844C13.4518 6.33734 12.9059 6.22812 12.3714 6.12116C12.1176 6.06237 11.872 5.99713 11.6566 5.918C11.4664 5.86728 11.1976 5.67931 11.2375 5.73059C10.7464 5.68822 11.9102 5.14044 12.7493 4.83444C12.9724 4.736 13.1941 4.63663 13.4212 4.49638C13.6441 4.3491 13.8737 4.22413 14.1213 3.81163C14.1699 3.72604 14.1679 3.70522 14.1934 3.64925L14.2217 3.5781C14.2831 3.35882 14.2493 3.41797 14.2636 3.32291C14.2926 3.09285 14.2023 2.84694 14.0594 2.6421C13.7677 2.32691 13.4777 2.23673 13.2622 2.17635C12.3712 1.96523 11.7302 2.02298 11.1732 2.02513C10.117 2.07482 9.51338 2.10313 9.51338 2.10313L9.4726 2.10501C9.47138 2.1051 9.47026 2.1051 9.46894 2.1052C9.13135 2.12498 8.87382 2.41457 8.8936 2.75207C8.89548 2.78507 8.91095 2.81272 8.91779 2.84394C8.43948 2.97576 7.68264 3.11057 6.93386 2.93404C6.81986 2.90779 6.71458 2.97632 6.68823 3.08544C6.66198 3.1955 6.73051 3.30547 6.83964 3.33107C7.13383 3.40044 7.42567 3.42763 7.70392 3.42763C8.29501 3.42763 8.79995 3.30735 9.14476 3.20169C9.25594 3.28429 9.39113 3.33632 9.54019 3.3276C9.54019 3.3276 10.1501 3.29188 11.2176 3.22944C11.7173 3.21144 12.389 3.1851 12.9432 3.31532C12.9891 3.32244 13.0136 3.33669 13.044 3.34954C13.0483 3.30041 12.9546 3.43879 12.808 3.50994C12.6658 3.60172 12.4807 3.68966 12.2882 3.77704C11.8944 3.95544 11.4439 4.10882 10.9444 4.3776C10.7033 4.51991 10.4051 4.66447 10.1574 5.08738C10.0417 5.28331 9.98672 5.60009 10.0476 5.82341L10.0656 5.91444L10.0758 5.95944L10.0812 5.98175C10.0429 5.90216 10.1395 6.11619 10.1319 6.09688L10.1819 6.18013C10.2263 6.2435 10.2193 6.26975 10.3258 6.38038C10.4112 6.47281 10.5077 6.56131 10.6072 6.63856C10.6943 6.69856 10.7594 6.72687 10.8379 6.77131C10.9925 6.86244 11.1328 6.90462 11.2793 6.96209C11.568 7.06381 11.8492 7.1329 12.1299 7.19497C12.6719 7.29697 13.2257 7.40112 13.7888 7.50715C14.025 7.55281 14.246 7.61037 14.4502 7.67328C14.1886 7.76759 13.8224 7.86265 13.5066 7.9235C12.3577 8.16593 11.1394 8.31256 9.90029 8.74775C9.59016 8.86578 9.27244 9.00687 8.96091 9.24546C8.66757 9.46774 8.35923 9.91109 8.3987 10.3981C8.2936 10.4128 8.17285 10.4343 8.07573 10.4451C7.02461 10.5842 6.58286 10.3991 6.61136 10.3938C6.47411 10.3128 6.2972 10.3582 6.2162 10.4955C6.13511 10.6327 6.18058 10.8097 6.31783 10.8907C6.31783 10.8907 6.49801 11.013 6.81967 11.0835C7.13973 11.1559 7.59001 11.1891 8.13845 11.1459C8.28948 11.1356 8.46638 11.113 8.63251 11.0954C8.74735 11.261 8.88113 11.4436 9.00573 11.5321C9.29532 11.775 9.60198 11.9304 9.9076 12.0664C11.1379 12.5423 12.3675 12.6422 13.5664 12.5951C14.1682 12.5499 14.7606 12.4796 15.3688 12.2082C15.6524 12.076 16.0416 11.8676 16.1618 11.2651C16.1622 11.188 16.1754 11.1528 16.1636 11.0426ZM15.2788 11.2324C15.2631 11.1433 15.2141 11.3454 14.9844 11.4011C14.5891 11.5748 14.0495 11.6543 13.519 11.6822C12.4493 11.7174 11.2812 11.5925 10.2796 11.1863C10.1222 11.1135 9.99376 11.0219 9.85866 10.9344C9.93291 10.923 9.99732 10.9151 10.0734 10.9031C10.8177 10.7846 11.5935 10.645 12.4846 10.6302C13.3333 10.6147 14.4141 10.6264 15.1317 10.9834C15.2151 11.0283 15.2515 11.0751 15.2791 11.1033C15.2791 11.1033 15.2553 11.0747 15.2818 11.0565C15.2936 11.0747 15.2788 11.1763 15.2788 11.2324Z" fill="white"/>
<path d="M41.8186 11.0426C41.7949 10.9018 41.7414 10.7351 41.6739 10.6277C41.5398 10.4423 41.3845 10.3124 41.2342 10.2316C40.0493 9.68731 39.0573 9.79399 38.1107 9.79024C37.1757 9.81434 36.301 9.97559 35.591 10.131C35.3982 10.1698 35.2313 10.1988 35.0527 10.2324C35.141 10.0499 35.4647 9.82165 35.9006 9.68327C36.9634 9.32027 38.1765 9.17449 39.3688 8.94218C39.6699 8.88321 39.9752 8.81412 40.2878 8.72525C40.456 8.66759 40.5977 8.62259 40.7959 8.53053C40.923 8.45862 41.0482 8.36815 41.1552 8.2715C41.2692 8.16893 41.2605 8.14025 41.3192 8.07106C41.5899 7.55572 41.3337 7.18878 41.1187 6.99715C40.9117 6.82719 40.7373 6.76081 40.5712 6.69247C40.2488 6.57941 39.9503 6.50853 39.6621 6.44844C39.1068 6.33734 38.5609 6.22812 38.0264 6.12116C37.7725 6.06237 37.527 5.99713 37.3116 5.918C37.1214 5.86728 36.8526 5.67931 36.8925 5.73059C36.4014 5.68822 37.5652 5.14044 38.4043 4.83444C38.6274 4.736 38.8491 4.63663 39.0762 4.49638C39.2991 4.3491 39.5287 4.22413 39.7763 3.81163C39.8249 3.72604 39.8228 3.70522 39.8483 3.64925L39.8767 3.5781C39.9381 3.35882 39.9043 3.41797 39.9186 3.32291C39.9475 3.09285 39.8573 2.84694 39.7144 2.6421C39.4227 2.32691 39.1327 2.23673 38.9172 2.17635C38.0262 1.96523 37.3852 2.02298 36.8282 2.02513C35.772 2.07482 35.1684 2.10313 35.1684 2.10313L35.1276 2.10501C35.1264 2.1051 35.1252 2.1051 35.1239 2.1052C34.7863 2.12498 34.5288 2.41457 34.5486 2.75207C34.5505 2.78507 34.5659 2.81272 34.5728 2.84394C34.0945 2.97576 33.3376 3.11057 32.5888 2.93404C32.4748 2.90779 32.3696 2.97632 32.3432 3.08544C32.317 3.1955 32.3855 3.30547 32.4946 3.33107C32.7888 3.40044 33.0807 3.42763 33.3589 3.42763C33.95 3.42763 34.4549 3.30735 34.7997 3.20169C34.9109 3.28429 35.0461 3.33632 35.1952 3.3276C35.1952 3.3276 35.8051 3.29188 36.8725 3.22944C37.3723 3.21144 38.0439 3.1851 38.5982 3.31532C38.644 3.32244 38.6686 3.33669 38.699 3.34954C38.7033 3.30041 38.6095 3.43879 38.463 3.50994C38.3208 3.60172 38.1357 3.68966 37.9432 3.77704C37.5494 3.95544 37.0989 4.10882 36.5994 4.3776C36.3582 4.51991 36.0601 4.66447 35.8124 5.08738C35.6966 5.28331 35.6417 5.60009 35.7025 5.82341L35.7205 5.91444L35.7308 5.95944L35.7363 5.98175C35.698 5.90216 35.7946 6.11619 35.787 6.09688L35.837 6.18013C35.8813 6.2435 35.8744 6.26975 35.9809 6.38038C36.0663 6.47281 36.1628 6.56131 36.2622 6.63856C36.3494 6.69856 36.4145 6.72687 36.493 6.77131C36.6475 6.86244 36.7879 6.90462 36.9343 6.96209C37.2231 7.06381 37.5042 7.1329 37.785 7.19497C38.327 7.29697 38.8808 7.40112 39.4439 7.50715C39.6801 7.55281 39.901 7.61037 40.1053 7.67328C39.8437 7.76759 39.4775 7.86265 39.1616 7.9235C38.0127 8.16593 36.7945 8.31256 35.5554 8.74775C35.2452 8.86578 34.9275 9.00687 34.616 9.24546C34.3226 9.46774 34.0143 9.91109 34.0538 10.3981C33.9487 10.4128 33.8279 10.4343 33.7308 10.4451C32.6797 10.5842 32.2379 10.3991 32.2664 10.3938C32.1292 10.3128 31.9523 10.3582 31.8713 10.4955C31.7902 10.6327 31.8357 10.8097 31.9729 10.8907C31.9729 10.8907 32.1531 11.013 32.4747 11.0835C32.7948 11.1559 33.2451 11.1891 33.7935 11.1459C33.9446 11.1356 34.1215 11.113 34.2876 11.0954C34.4024 11.261 34.5362 11.4436 34.6608 11.5321C34.9504 11.775 35.2571 11.9304 35.5627 12.0664C36.793 12.5423 38.0227 12.6422 39.2214 12.5951C39.8233 12.5499 40.4156 12.4796 41.0239 12.2082C41.3075 12.076 41.6967 11.8676 41.8169 11.2651C41.817 11.188 41.8302 11.1528 41.8186 11.0426ZM40.9337 11.2324C40.918 11.1433 40.869 11.3454 40.6393 11.4011C40.244 11.5748 39.7043 11.6543 39.1739 11.6822C38.1042 11.7174 36.9361 11.5925 35.9345 11.1863C35.7771 11.1135 35.6486 11.0219 35.5136 10.9344C35.5878 10.923 35.6522 10.9151 35.7283 10.9031C36.4726 10.7846 37.2484 10.645 38.1395 10.6302C38.9882 10.6147 40.0689 10.6264 40.7866 10.9834C40.8699 11.0283 40.9064 11.0751 40.934 11.1033C40.934 11.1033 40.9102 11.0747 40.9367 11.0565C40.9485 11.0747 40.9338 11.1763 40.9337 11.2324Z" fill="white"/>
<path d="M16.1636 28.4219C16.1399 28.2811 16.0865 28.1143 16.019 28.0069C15.8848 27.8215 15.7296 27.6917 15.5792 27.6108C14.3943 27.0665 13.4023 27.1732 12.4557 27.1695C11.5208 27.1936 10.6461 27.3548 9.93601 27.5102C9.74326 27.5491 9.57629 27.578 9.39769 27.6116C9.48601 27.4292 9.80973 27.2009 10.2457 27.0625C11.3084 26.6995 12.5215 26.5537 13.7138 26.3214C14.015 26.2624 14.3202 26.1933 14.6328 26.1045C14.8011 26.0468 14.9427 26.0018 15.1409 25.9097C15.268 25.8378 15.3932 25.7474 15.5002 25.6507C15.6142 25.5482 15.6055 25.5195 15.6642 25.4503C15.935 24.9349 15.6786 24.568 15.4638 24.3764C15.2567 24.2064 15.0822 24.14 14.9162 24.0717C14.5939 23.9586 14.2953 23.8878 14.0071 23.8277C13.4518 23.7166 12.9059 23.6073 12.3714 23.5004C12.1176 23.4416 11.872 23.3763 11.6566 23.2972C11.4664 23.2465 11.1976 23.0585 11.2375 23.1098C10.7464 23.0674 11.9102 22.5197 12.7493 22.2137C12.9724 22.1152 13.1941 22.0157 13.4212 21.8756C13.6441 21.7283 13.8737 21.6033 14.1213 21.1908C14.1699 21.1052 14.1679 21.0844 14.1934 21.0285L14.2217 20.9573C14.2831 20.738 14.2493 20.7972 14.2636 20.7021C14.2926 20.4721 14.2023 20.2262 14.0594 20.0213C13.7677 19.7061 13.4777 19.6159 13.2622 19.5556C12.3712 19.3444 11.7302 19.4022 11.1732 19.4043C10.117 19.454 9.51338 19.4823 9.51338 19.4823L9.4726 19.4842C9.47138 19.4843 9.47026 19.4843 9.46894 19.4844C9.13135 19.5042 8.87382 19.7938 8.8936 20.1313C8.89548 20.1643 8.91095 20.1919 8.91779 20.2232C8.43948 20.355 7.68264 20.4898 6.93386 20.3133C6.81986 20.287 6.71458 20.3555 6.68823 20.4647C6.66198 20.5747 6.73051 20.6847 6.83964 20.7103C7.13383 20.7797 7.42567 20.8068 7.70392 20.8068C8.29501 20.8068 8.79995 20.6866 9.14476 20.5809C9.25594 20.6635 9.39113 20.7155 9.54019 20.7068C9.54019 20.7068 10.1501 20.6711 11.2176 20.6087C11.7173 20.5907 12.389 20.5643 12.9432 20.6945C12.9891 20.7017 13.0136 20.7159 13.044 20.7287C13.0483 20.6796 12.9546 20.818 12.808 20.8892C12.6658 20.9809 12.4807 21.0689 12.2882 21.1562C11.8944 21.3347 11.4439 21.488 10.9444 21.7567C10.7033 21.899 10.4051 22.0436 10.1574 22.4665C10.0417 22.6624 9.98672 22.9792 10.0476 23.2025L10.0656 23.2936L10.0758 23.3386L10.0812 23.3609C10.0429 23.2813 10.1395 23.4953 10.1319 23.476L10.1819 23.5592C10.2263 23.6226 10.2193 23.6489 10.3258 23.7595C10.4112 23.852 10.5077 23.9404 10.6072 24.0177C10.6943 24.0777 10.7594 24.106 10.8379 24.1504C10.9925 24.2416 11.1328 24.2838 11.2793 24.3412C11.568 24.4429 11.8492 24.512 12.1299 24.5741C12.6719 24.6761 13.2257 24.7802 13.7888 24.8863C14.025 24.9319 14.246 24.9895 14.4502 25.0524C14.1886 25.1467 13.8224 25.2418 13.5066 25.3026C12.3577 25.5451 11.1394 25.6917 9.90029 26.1269C9.59016 26.2449 9.27244 26.386 8.96091 26.6246C8.66757 26.8469 8.35923 27.2902 8.3987 27.7773C8.2936 27.792 8.17285 27.8134 8.07573 27.8242C7.02461 27.9633 6.58286 27.7783 6.61136 27.7729C6.47411 27.6919 6.2972 27.7373 6.2162 27.8747C6.13511 28.0118 6.18058 28.1888 6.31783 28.2698C6.31783 28.2698 6.49801 28.3922 6.81967 28.4627C7.13973 28.535 7.59001 28.5681 8.13845 28.525C8.28948 28.5147 8.46638 28.4921 8.63251 28.4746C8.74735 28.6401 8.88113 28.8227 9.00573 28.9112C9.29532 29.1542 9.60198 29.3095 9.9076 29.4455C11.1379 29.9214 12.3675 30.0213 13.5664 29.9742C14.1682 29.929 14.7606 29.8588 15.3688 29.5874C15.6524 29.4551 16.0416 29.2468 16.1618 28.6442C16.1622 28.5673 16.1754 28.5321 16.1636 28.4219ZM15.2788 28.6117C15.2631 28.5227 15.2141 28.7247 14.9844 28.7804C14.5891 28.9541 14.0495 29.0336 13.519 29.0615C12.4493 29.0967 11.2812 28.9718 10.2796 28.5656C10.1222 28.4928 9.99376 28.4012 9.85866 28.3137C9.93291 28.3023 9.99732 28.2945 10.0734 28.2825C10.8177 28.1639 11.5935 28.0243 12.4846 28.0096C13.3333 27.9941 14.4141 28.0057 15.1317 28.3627C15.2151 28.4076 15.2515 28.4544 15.2791 28.4826C15.2791 28.4826 15.2553 28.454 15.2818 28.4358C15.2936 28.454 15.2788 28.5557 15.2788 28.6117Z" fill="white"/>
<path d="M41.8186 28.4219C41.7949 28.2811 41.7414 28.1143 41.6739 28.0069C41.5398 27.8215 41.3845 27.6917 41.2342 27.6108C40.0493 27.0665 39.0573 27.1732 38.1107 27.1695C37.1757 27.1936 36.301 27.3548 35.591 27.5102C35.3982 27.5491 35.2313 27.578 35.0527 27.6116C35.141 27.4292 35.4647 27.2009 35.9006 27.0625C36.9634 26.6995 38.1765 26.5537 39.3688 26.3214C39.6699 26.2624 39.9752 26.1933 40.2878 26.1045C40.456 26.0468 40.5977 26.0018 40.7959 25.9097C40.923 25.8378 41.0482 25.7474 41.1552 25.6507C41.2692 25.5482 41.2605 25.5195 41.3192 25.4503C41.5899 24.9349 41.3337 24.568 41.1187 24.3764C40.9117 24.2064 40.7373 24.14 40.5712 24.0717C40.2488 23.9586 39.9503 23.8878 39.6621 23.8277C39.1068 23.7166 38.5609 23.6073 38.0264 23.5004C37.7725 23.4416 37.527 23.3763 37.3116 23.2972C37.1214 23.2465 36.8526 23.0585 36.8925 23.1098C36.4014 23.0674 37.5652 22.5197 38.4043 22.2137C38.6274 22.1152 38.8491 22.0157 39.0762 21.8756C39.2991 21.7283 39.5287 21.6033 39.7763 21.1908C39.8249 21.1052 39.8228 21.0844 39.8483 21.0285L39.8767 20.9573C39.9381 20.738 39.9043 20.7972 39.9186 20.7021C39.9475 20.4721 39.8573 20.2262 39.7144 20.0213C39.4227 19.7061 39.1327 19.6159 38.9172 19.5556C38.0262 19.3444 37.3852 19.4022 36.8282 19.4043C35.772 19.454 35.1684 19.4823 35.1684 19.4823L35.1276 19.4842C35.1264 19.4843 35.1252 19.4843 35.1239 19.4844C34.7863 19.5042 34.5288 19.7938 34.5486 20.1313C34.5505 20.1643 34.5659 20.1919 34.5728 20.2232C34.0945 20.355 33.3376 20.4898 32.5888 20.3133C32.4748 20.287 32.3696 20.3555 32.3432 20.4647C32.317 20.5747 32.3855 20.6847 32.4946 20.7103C32.7888 20.7797 33.0807 20.8068 33.3589 20.8068C33.95 20.8068 34.4549 20.6866 34.7997 20.5809C34.9109 20.6635 35.0461 20.7155 35.1952 20.7068C35.1952 20.7068 35.8051 20.6711 36.8725 20.6087C37.3723 20.5907 38.0439 20.5643 38.5982 20.6945C38.644 20.7017 38.6686 20.7159 38.699 20.7287C38.7033 20.6796 38.6095 20.818 38.463 20.8892C38.3208 20.9809 38.1357 21.0689 37.9432 21.1562C37.5494 21.3347 37.0989 21.488 36.5994 21.7567C36.3582 21.899 36.0601 22.0436 35.8124 22.4665C35.6966 22.6624 35.6417 22.9792 35.7025 23.2025L35.7205 23.2936L35.7308 23.3386L35.7363 23.3609C35.698 23.2813 35.7946 23.4953 35.787 23.476L35.837 23.5592C35.8813 23.6226 35.8744 23.6489 35.9809 23.7595C36.0663 23.852 36.1628 23.9404 36.2622 24.0177C36.3494 24.0777 36.4145 24.106 36.493 24.1504C36.6475 24.2416 36.7879 24.2838 36.9343 24.3412C37.2231 24.4429 37.5042 24.512 37.785 24.5741C38.327 24.6761 38.8808 24.7802 39.4439 24.8863C39.6801 24.9319 39.901 24.9895 40.1053 25.0524C39.8437 25.1467 39.4775 25.2418 39.1616 25.3026C38.0127 25.5451 36.7945 25.6917 35.5554 26.1269C35.2452 26.2449 34.9275 26.386 34.616 26.6246C34.3226 26.8469 34.0143 27.2902 34.0538 27.7773C33.9487 27.792 33.8279 27.8134 33.7308 27.8242C32.6797 27.9633 32.2379 27.7783 32.2664 27.7729C32.1292 27.6919 31.9523 27.7373 31.8713 27.8747C31.7902 28.0118 31.8357 28.1888 31.9729 28.2698C31.9729 28.2698 32.1531 28.3922 32.4747 28.4627C32.7948 28.535 33.2451 28.5681 33.7935 28.525C33.9446 28.5147 34.1215 28.4921 34.2876 28.4746C34.4024 28.6401 34.5362 28.8227 34.6608 28.9112C34.9504 29.1542 35.2571 29.3095 35.5627 29.4455C36.793 29.9214 38.0227 30.0213 39.2214 29.9742C39.8233 29.929 40.4156 29.8588 41.0239 29.5874C41.3075 29.4551 41.6967 29.2468 41.8169 28.6442C41.817 28.5673 41.8302 28.5321 41.8186 28.4219ZM40.9337 28.6117C40.918 28.5227 40.869 28.7247 40.6393 28.7804C40.244 28.9541 39.7043 29.0336 39.1739 29.0615C38.1042 29.0967 36.9361 28.9718 35.9345 28.5656C35.7771 28.4928 35.6486 28.4012 35.5136 28.3137C35.5878 28.3023 35.6522 28.2945 35.7283 28.2825C36.4726 28.1639 37.2484 28.0243 38.1395 28.0096C38.9882 27.9941 40.0689 28.0057 40.7866 28.3627C40.8699 28.4076 40.9064 28.4544 40.934 28.4826C40.934 28.4826 40.9102 28.454 40.9367 28.4358C40.9485 28.454 40.9338 28.5557 40.9337 28.6117Z" fill="white"/>
</g>
<defs>
<clipPath id="clip0_11_4067">
<rect width="48" height="32" fill="white"/>
</clipPath>
</defs>
</svg>
