<svg width="48" height="32" viewBox="0 0 48 32" fill="none" xmlns="http://www.w3.org/2000/svg">
<g clip-path="url(#clip0_11_1444)">
<path d="M47.1723 31.7242H0.827623C0.370593 31.7242 0 31.3536 0 30.8965V1.1035C0 0.646472 0.370593 0.275879 0.827623 0.275879H47.1724C47.6294 0.275879 48 0.646472 48 1.1035V30.8965C47.9999 31.3537 47.6293 31.7242 47.1723 31.7242Z" fill="#73AF00"/>
<path d="M32.9106 13.0919C32.8884 12.9505 32.6834 12.9576 32.6673 13.0998C32.1736 17.45 28.4836 20.8298 23.9999 20.8298C19.5176 20.8298 15.8263 17.45 15.3326 13.1C15.3164 12.9578 15.1114 12.9506 15.0893 13.0921C15.0207 13.5297 14.9832 13.9772 14.9832 14.4341C14.9831 19.4093 19.0209 23.4483 23.9999 23.4483C28.9807 23.4483 33.0168 19.4093 33.0168 14.4341C33.0166 13.9772 32.979 13.5296 32.9106 13.0919Z" fill="#FFE15A"/>
<path d="M23.8881 9.36882L23.2361 11.3239L21.1752 11.3398C21.0622 11.3407 21.0153 11.4848 21.1063 11.552L22.7642 12.7762L22.1426 14.7412C22.1085 14.849 22.2312 14.9381 22.3231 14.8724L23.9997 13.674L25.6764 14.8724C25.7684 14.9381 25.891 14.8491 25.857 14.7412L25.2353 12.7762L26.8933 11.552C26.9842 11.4848 26.9373 11.3407 26.8244 11.3398L24.7635 11.3239L24.1114 9.36882C24.0755 9.26166 23.9238 9.26166 23.8881 9.36882Z" fill="#FFE15A"/>
</g>
<defs>
<clipPath id="clip0_11_1444">
<rect width="48" height="32" fill="white"/>
</clipPath>
</defs>
</svg>
