<svg width="48" height="32" viewBox="0 0 48 32" fill="none" xmlns="http://www.w3.org/2000/svg">
<g clip-path="url(#clip0_11_1260)">
<path d="M47.1723 31.7243H0.827623C0.370593 31.7243 0 31.3537 0 30.8967V1.10362C0 0.646594 0.370593 0.276001 0.827623 0.276001H47.1724C47.6294 0.276001 48 0.646594 48 1.10362V30.8967C47.9999 31.3538 47.6293 31.7243 47.1723 31.7243Z" fill="#41479B"/>
<path d="M23.1723 0.275879H21.7348L14.0688 5.29843V0.275879H9.93092V5.29843L2.265 0.275879H0.827623C0.370593 0.275879 0 0.646378 0 1.10341V1.75985L6.57702 6.06887H0V10.2068H6.57702L0 14.5159V15.1723C0 15.6294 0.370593 16 0.827623 16H2.26518L9.93111 10.9774V16H14.069V10.9774L21.7349 16H23.1724C23.6295 16 24 15.6294 24 15.1723V14.5159L17.423 10.2069H24V6.06896H17.4229L24 1.75994V1.1035C24 0.646378 23.6294 0.275879 23.1723 0.275879Z" fill="white"/>
<path d="M24 6.89658H13.2413V0.275879H10.7586V6.89658H0V9.37927H10.7586V16H13.2413V9.37927H24V6.89658Z" fill="#FF4B55"/>
<path d="M9.10339 6.06898L0.394405 0.415771C0.162656 0.562396 0 0.808864 0 1.10343V1.14636L7.58333 6.06898H9.10339Z" fill="#FF4B55"/>
<path d="M15.5891 6.06895L23.8742 0.690909C23.7302 0.447254 23.4761 0.275879 23.1725 0.275879H22.9935L14.0691 6.06895H15.5891Z" fill="#FF4B55"/>
<path d="M8.38813 10.207L0.118927 15.5747C0.26152 15.8243 0.51952 16.0001 0.827582 16.0001H0.983675L9.90828 10.207H8.38813Z" fill="#FF4B55"/>
<path d="M23.9868 15.2374L16.2369 10.207H14.7169L23.5175 15.9196C23.7812 15.7973 23.962 15.5409 23.9868 15.2374Z" fill="#FF4B55"/>
<path d="M41.4966 9.55383H30.5025V18.0504H41.4966V9.55383Z" fill="#82AFFF"/>
<path d="M30.5028 18.0502C30.5028 20.9483 33.7511 23.2976 36.0001 23.2976C37.9991 23.2976 41.4974 20.9482 41.4974 18.0502H30.5028Z" fill="#C86464"/>
<path d="M37.468 12.657C37.645 12.6882 37.947 12.7299 37.9782 13.1568C38.0094 13.5836 37.8532 15.1038 37.6971 15.2911C37.6971 15.2911 38.2073 16.4468 38.2281 17.1339C38.2489 17.8211 38.1553 19.8773 38.2177 20.2052C38.2802 20.5332 38.5144 21.2048 38.5144 21.2048C38.5144 21.2048 37.796 20.7831 37.515 21.0486C37.2339 21.314 36.2031 21.6734 35.797 21.2517C35.797 21.2517 36.2811 19.8774 36.2811 18.3156C36.2811 16.7538 36.2811 12.8964 36.2811 12.8964C36.2811 12.8964 36.4842 12.7351 36.7496 12.7298C37.0151 12.7247 37.468 12.657 37.468 12.657Z" fill="#73AF00"/>
<path d="M37.5718 20.9132C37.603 21.111 37.6863 21.2568 37.6447 21.3296C37.603 21.4026 37.3324 22.0689 37.4885 22.0689C37.6446 22.0689 37.9153 21.9856 37.9883 21.8398C38.0611 21.694 38.0923 21.4754 38.1341 21.413C38.1758 21.3505 38.0611 21.0382 37.9675 20.9861C37.8738 20.934 37.5718 20.9132 37.5718 20.9132Z" fill="#FFF5E1"/>
<path d="M35.7708 13.0942L35.1982 13.1671C35.1982 13.1671 35.271 12.7923 35.2814 12.532C35.2918 12.2717 35.3127 11.7928 35.3127 11.7928C35.3127 11.7928 35.7187 11.5429 35.7291 11.5012C35.7342 11.4804 35.7824 11.3503 35.7447 11.2826C35.7071 11.2149 35.5834 11.2097 35.5834 11.2097C35.5834 11.2097 35.1044 11.4595 35.1044 11.5012C35.1044 11.5429 35.1044 11.7928 35.0524 11.8864C35.0004 11.9802 34.7088 12.761 34.688 12.9692C34.6672 13.1775 34.636 13.6148 34.7192 13.6356C34.8025 13.6564 35.6666 13.7502 35.7604 13.7085C35.8541 13.6668 35.7708 13.0942 35.7708 13.0942Z" fill="#FFF5E1"/>
<path d="M38.3652 11.038H36.281V10.0541H35.5627V11.038H33.4786V11.7564H35.5627V21.205H36.281V11.7564H38.3652V11.038Z" fill="#464655"/>
<path d="M37.1349 12.3133C37.1349 12.3133 37.8325 12.5142 37.9262 12.2821C38.0355 12.0113 37.6711 11.975 37.6034 11.6887C37.5958 11.6566 37.5305 11.2722 37.2494 11.1994C36.9683 11.1264 36.708 11.1994 36.6976 11.3868C36.6873 11.5742 37.1349 12.3133 37.1349 12.3133Z" fill="#963C3C"/>
<path d="M36.7598 13.1983C36.7391 13.2017 36.7077 12.9901 36.7494 12.7298C36.7911 12.4695 36.7494 12.3862 36.7494 12.3862C36.7494 12.3862 36.4579 12.4174 36.4579 12.3029C36.4579 12.1885 36.5203 11.6574 36.6973 11.3867C36.6973 11.3867 36.8223 11.5429 37.0513 11.5429C37.0513 11.5429 37.0409 11.7303 37.1659 11.8552C37.1659 11.8552 37.0097 11.9905 37.0826 12.0842C37.1556 12.178 37.2909 12.2924 37.2909 12.2924C37.2909 12.2924 37.3013 12.5112 37.4679 12.6568C37.4678 12.657 37.2595 13.1151 36.7598 13.1983Z" fill="#FFF5E1"/>
<path d="M33.9697 17.7175H33.9073V18.9564H33.9697V17.7175Z" fill="#464655"/>
<path d="M34.2208 17.4775H34.1584V19.1963H34.2208V17.4775Z" fill="#464655"/>
<path d="M34.4723 17.2582H34.4099V19.4154H34.4723V17.2582Z" fill="#464655"/>
<path d="M34.7234 16.9441H34.661V19.7273H34.7234V16.9441Z" fill="#464655"/>
<path d="M34.9745 16.5345H34.9121V20.1367H34.9745V16.5345Z" fill="#464655"/>
<path d="M35.226 16.5345H35.1636V20.3051H35.226V16.5345Z" fill="#464655"/>
<path d="M36.2914 18.5082C36.0153 17.0724 35.2503 16.2384 34.9796 16.1969C34.7088 16.1553 34.5111 16.3739 34.4903 16.5301C34.4695 16.6863 34.3237 17.1548 34.0217 17.3733C33.7198 17.5921 33.1576 17.7169 33.0327 18.123C32.9077 18.529 33.2409 18.706 33.4387 18.6643C33.4535 18.6612 33.4681 18.6554 33.4829 18.6505L35.6113 21.2686C35.6885 21.3637 35.8391 21.3482 35.893 21.238C36.1117 20.791 36.5269 19.7324 36.2914 18.5082ZM33.6616 18.5372C33.745 18.4476 33.7803 18.3241 33.6887 18.1959C33.5325 17.9772 33.3555 18.2896 33.3555 18.2896C33.3555 18.2896 33.3034 18.0189 33.7095 17.8836C34.1155 17.7483 34.5737 17.5193 34.7819 17.0298C34.9901 16.5406 34.9797 16.6341 34.9797 16.6341C34.9797 16.6341 35.8127 17.1027 35.9271 18.5707C36.0417 20.0387 35.6357 20.6323 35.6357 20.6323L33.6616 18.5372Z" fill="#FFE15A"/>
<path d="M35.5627 15.3671C35.467 15.4283 35.3809 15.4809 35.3206 15.5123C35.1254 15.6138 34.8911 15.7154 34.8677 15.8091C34.8444 15.9028 34.7115 15.9809 34.7194 16.0901C34.7273 16.1994 34.7194 16.5274 34.7194 16.5274C34.8365 16.504 35.0708 16.4648 35.149 16.3243C35.2271 16.1837 35.2973 15.9104 35.5472 15.7933C35.5516 15.7913 35.5582 15.7891 35.5629 15.787V15.3671H35.5627Z" fill="#FFF5E1"/>
<path d="M37.6319 13.3729C37.5148 13.4276 37.1635 13.8493 37.1088 14.0445C37.0542 14.2397 36.8824 14.7005 36.8824 14.7005C36.8824 14.7005 36.5276 14.7468 36.2812 14.8847V15.5667C36.4178 15.5271 36.5385 15.4881 36.6091 15.4502C36.8122 15.3409 37.101 15.1379 37.2494 15.0988C37.3978 15.0598 37.5227 14.8099 37.5774 14.6616C37.632 14.5133 37.8038 14.0759 37.8272 13.7792C37.8507 13.4822 37.749 13.3183 37.6319 13.3729Z" fill="#FFF5E1"/>
<path d="M35.9998 23.4747L35.9726 23.4704C30.3917 22.5892 30.3276 17.7556 30.3276 17.5505V9.37933H41.6722V17.5504C41.6722 17.7556 41.6081 22.5891 36.0272 23.4703L35.9998 23.4747ZM30.6776 9.72921V17.5503C30.6776 17.7431 30.7379 22.274 35.9998 23.1203C41.2618 22.274 41.3221 17.7431 41.3221 17.5503V9.72921H30.6776Z" fill="white"/>
</g>
<defs>
<clipPath id="clip0_11_1260">
<rect width="48" height="32" fill="white"/>
</clipPath>
</defs>
</svg>
