<svg width="48" height="32" viewBox="0 0 48 32" fill="none" xmlns="http://www.w3.org/2000/svg">
<g clip-path="url(#clip0_11_3927)">
<path d="M47.1724 0.276001H24V31.7243H47.1724C47.6294 31.7243 48 31.3537 48 30.8966V1.10353C48 0.646501 47.6294 0.276001 47.1724 0.276001Z" fill="#FF4B55"/>
<path d="M0.827625 31.7243H24V0.276001H0.827625C0.370594 0.276001 0 0.646501 0 1.10353V30.8966C0 31.3538 0.370594 31.7243 0.827625 31.7243Z" fill="white"/>
<path d="M6.89682 2.20681V4.42119C7.01879 4.42597 7.15482 4.48128 7.26788 4.59435C7.38094 4.70741 7.43644 4.84344 7.44104 4.96541H9.65541V7.17228H7.44094C7.43616 7.29425 7.38085 7.43028 7.26779 7.54334C7.15473 7.65641 7.01869 7.71172 6.89673 7.7165V9.93088H4.68985V7.7165C4.56788 7.71172 4.43185 7.65641 4.31879 7.54334C4.20572 7.43028 4.15041 7.29425 4.14563 7.17228H1.93126V4.9655H4.14563C4.15041 4.84353 4.20572 4.7075 4.31879 4.59444C4.43185 4.48138 4.56788 4.42606 4.68985 4.42128V2.20691H6.89682V2.20681ZM7.17254 1.93091H6.89663H4.68976H4.41394V2.20681V4.20397C4.30866 4.2471 4.20985 4.31319 4.12369 4.39925C4.03754 4.48541 3.97154 4.58422 3.92832 4.6895H1.93126H1.65535V4.96541V7.17228V7.44819H1.93126H3.92841C3.97163 7.55347 4.03763 7.65238 4.12379 7.73844C4.20985 7.8245 4.30866 7.89059 4.41394 7.93372V9.93088V10.2067H4.68985H6.89673H7.17263V9.93078V7.93363C7.27791 7.8905 7.37672 7.82441 7.46288 7.73825C7.54894 7.65219 7.61504 7.55338 7.65816 7.4481H9.65532H9.93113V7.17219V4.96531V4.68941H9.65522H7.65826C7.61513 4.58413 7.54904 4.48531 7.46288 4.39916C7.37682 4.3131 7.27801 4.247 7.17263 4.20388V2.20681L7.17254 1.93091Z" fill="#FF4B55"/>
<path d="M9.655 4.96541H6.8965V2.20691H4.68953V4.96541H1.93094V7.17237H4.68953V9.93097H6.8965V7.17237H9.655V4.96541Z" fill="#CDCDCD"/>
<path d="M5.79313 7.1727C6.40254 7.1727 6.89657 6.67867 6.89657 6.06926C6.89657 5.45985 6.40254 4.96582 5.79313 4.96582C5.18372 4.96582 4.6897 5.45985 4.6897 6.06926C4.6897 6.67867 5.18372 7.1727 5.79313 7.1727Z" fill="#B4A08C"/>
<path d="M4.80428 7.05804C4.61266 6.86642 4.3486 6.81979 4.2145 6.9539C4.08039 7.08801 4.12701 7.35207 4.31864 7.54369C4.51026 7.73531 4.77432 7.78194 4.90843 7.64783C5.04253 7.51372 4.99591 7.24967 4.80428 7.05804Z" fill="#B4A08C"/>
<path d="M7.26813 7.54291C7.45975 7.35129 7.50638 7.08724 7.37227 6.95313C7.23816 6.81902 6.97411 6.86565 6.78248 7.05727C6.59086 7.2489 6.54423 7.51295 6.67834 7.64706C6.81245 7.78116 7.0765 7.73454 7.26813 7.54291Z" fill="#B4A08C"/>
<path d="M6.78136 5.08072C6.97299 5.27234 7.23705 5.31897 7.37115 5.18486C7.50526 5.05075 7.45863 4.7867 7.26701 4.59507C7.07539 4.40345 6.81133 4.35682 6.67722 4.49093C6.54311 4.62504 6.58974 4.88909 6.78136 5.08072Z" fill="#B4A08C"/>
<path d="M4.31848 4.59469C4.12686 4.78631 4.08023 5.05037 4.21434 5.18448C4.34845 5.31859 4.6125 5.27196 4.80413 5.08033C4.99575 4.88871 5.04238 4.62465 4.90827 4.49054C4.77416 4.35644 4.51011 4.40306 4.31848 4.59469Z" fill="#B4A08C"/>
<path d="M5.79337 7.57997C4.9604 7.57997 4.28278 6.90253 4.28278 6.06937C4.28278 5.23621 4.9604 4.55878 5.79337 4.55878C6.62634 4.55878 7.30396 5.2364 7.30396 6.06937C7.30396 6.90234 6.62634 7.57997 5.79337 7.57997ZM5.79337 4.69678C5.03662 4.69678 4.42078 5.31262 4.42078 6.06937C4.42078 6.82612 5.03662 7.44197 5.79337 7.44197C6.55012 7.44197 7.16596 6.82612 7.16596 6.06937C7.16596 5.31262 6.55012 4.69678 5.79337 4.69678Z" fill="#B4A08C"/>
</g>
<defs>
<clipPath id="clip0_11_3927">
<rect width="48" height="32" fill="white"/>
</clipPath>
</defs>
</svg>
