<svg width="48" height="32" viewBox="0 0 48 32" fill="none" xmlns="http://www.w3.org/2000/svg">
<g clip-path="url(#clip0_11_4446)">
<path d="M47.1723 31.7243H0.827623C0.370593 31.7243 0 31.3537 0 30.8967V1.10362C0 0.646594 0.370593 0.276001 0.827623 0.276001H47.1724C47.6294 0.276001 48 0.646594 48 1.10362V30.8967C47.9999 31.3538 47.6293 31.7243 47.1723 31.7243Z" fill="#FF4B55"/>
<path d="M41.3791 6.89673V25.1036H6.62064V6.89673H41.3791Z" fill="#73AF00"/>
<path d="M22.348 16.0026C22.348 12.869 24.4824 10.2447 27.3718 9.48461C27.468 9.4593 27.4611 9.32018 27.3624 9.30752C27.1003 9.27377 26.8337 9.25446 26.5625 9.25446C22.8326 9.25446 19.8132 12.2734 19.8132 16.0026C19.8132 19.7156 22.8326 22.7428 26.5625 22.7428C26.8342 22.7428 27.1011 22.7232 27.3635 22.6895C27.4621 22.6767 27.4689 22.5377 27.3728 22.5124C24.4829 21.751 22.348 19.1229 22.348 16.0026Z" fill="white"/>
</g>
<defs>
<clipPath id="clip0_11_4446">
<rect width="48" height="32" fill="white"/>
</clipPath>
</defs>
</svg>
