<svg width="48" height="32" viewBox="0 0 48 32" fill="none" xmlns="http://www.w3.org/2000/svg">
<g clip-path="url(#clip0_11_4215)">
<path d="M0 21.2411H47.9999V30.8963C47.9999 31.3533 47.6293 31.7239 47.1723 31.7239H0.827623C0.370593 31.7239 0 31.3533 0 30.8963V21.2411Z" fill="#73AF00"/>
<path d="M0.827623 0.276001H47.1724C47.6294 0.276001 48 0.646594 48 1.10362V10.7587H0V1.10353C0 0.6465 0.370593 0.276001 0.827623 0.276001Z" fill="#464655"/>
<path d="M47.9999 10.7585H0V21.2407H47.9999V10.7585Z" fill="#FF4B55"/>
<path d="M30.4297 9.77024C29.138 7.55896 26.7457 6.06909 24 6.06909C21.2542 6.06909 18.8619 7.55896 17.5702 9.77024H30.4297Z" fill="#FF4B55"/>
<path d="M24.4276 2.55183C24.4276 2.92317 24 5.2415 24 5.2415C24 5.2415 23.5724 2.92326 23.5724 2.55183C23.5724 2.18049 23.7638 1.87946 24 1.87946C24.2361 1.87946 24.4276 2.18039 24.4276 2.55183Z" fill="#FF4B55"/>
<path d="M32.0377 6.05809C31.7751 6.32068 29.8336 7.65765 29.8336 7.65765C29.8336 7.65765 31.1705 5.716 31.4331 5.4535C31.6957 5.1909 32.044 5.11337 32.211 5.28043C32.3778 5.44722 32.3003 5.79559 32.0377 6.05809Z" fill="#FF4B55"/>
<path d="M16.5669 5.45367C16.8295 5.71627 18.1665 7.65783 18.1665 7.65783C18.1665 7.65783 16.2248 6.32086 15.9623 6.05826C15.6997 5.79567 15.6222 5.44739 15.7893 5.28042C15.956 5.11345 16.3043 5.19099 16.5669 5.45367Z" fill="#FF4B55"/>
<path d="M20.2085 3.22108C20.3506 3.5642 20.8427 5.8697 20.8427 5.8697C20.8427 5.8697 19.5605 3.89148 19.4185 3.54845C19.2764 3.20542 19.338 2.85404 19.5562 2.76358C19.7743 2.67311 20.0663 2.87795 20.2085 3.22108Z" fill="#FF4B55"/>
<path d="M28.5815 3.54826C28.4394 3.89139 27.1573 5.86951 27.1573 5.86951C27.1573 5.86951 27.6494 3.56411 27.7915 3.22089C27.9336 2.87776 28.2256 2.67292 28.4438 2.76329C28.6619 2.85367 28.7237 3.20514 28.5815 3.54826Z" fill="#FF4B55"/>
<path d="M22.2443 2.68497C22.3181 3.04891 22.3598 5.40596 22.3598 5.40596C22.3598 5.40596 21.48 3.21897 21.4061 2.85494C21.3323 2.49101 21.4601 2.15791 21.6915 2.11095C21.9231 2.06398 22.1706 2.32095 22.2443 2.68497Z" fill="#FF4B55"/>
<path d="M30.3996 4.60877C30.1945 4.91833 28.5574 6.61455 28.5574 6.61455C28.5574 6.61455 29.4817 4.44592 29.6868 4.13636C29.8919 3.8268 30.2178 3.68158 30.4147 3.81208C30.6115 3.94258 30.6048 4.2992 30.3996 4.60877Z" fill="#FF4B55"/>
<path d="M15.1175 7.09143C15.4271 7.29655 17.1233 8.9337 17.1233 8.9337C17.1233 8.9337 14.9547 8.00942 14.6451 7.8043C14.3356 7.59918 14.1903 7.2733 14.3208 7.07643C14.4513 6.87965 14.8081 6.88631 15.1175 7.09143Z" fill="#FF4B55"/>
<path d="M18.2425 4.17919C18.4501 4.48715 19.3906 6.64883 19.3906 6.64883C19.3906 6.64883 17.7408 4.965 17.5333 4.65703C17.3257 4.34906 17.3164 3.99234 17.5123 3.86044C17.7081 3.72853 18.0351 3.87122 18.2425 4.17919Z" fill="#FF4B55"/>
<path d="M33.3121 7.7341C33.0041 7.94166 30.8424 8.88216 30.8424 8.88216C30.8424 8.88216 32.5262 7.23235 32.8342 7.02488C33.1422 6.81732 33.4989 6.80794 33.6308 7.00388C33.7628 7.19972 33.62 7.52672 33.3121 7.7341Z" fill="#FF4B55"/>
<path d="M26.5134 2.83589C26.4423 3.20029 25.579 5.39394 25.579 5.39394C25.579 5.39394 25.603 3.0367 25.6741 2.6722C25.7453 2.3078 25.9907 2.04886 26.2225 2.09405C26.4543 2.13924 26.5845 2.47139 26.5134 2.83589Z" fill="#FF4B55"/>
<path d="M26.7682 2.89927C26.6603 3.25458 26.3961 5.5972 26.3961 5.5972C26.3961 5.5972 27.4786 3.50311 27.5865 3.14761C27.6944 2.7923 27.5986 2.44861 27.3727 2.37998C27.1468 2.31136 26.8761 2.54395 26.7682 2.89927Z" fill="#FF4B55"/>
<path d="M18.4678 4.04434C18.6428 4.3719 20.1124 6.21511 20.1124 6.21511C20.1124 6.21511 19.3971 3.96887 19.2221 3.6413C19.0471 3.31374 18.7364 3.13843 18.5281 3.24971C18.3197 3.36109 18.2928 3.71668 18.4678 4.04434Z" fill="#FF4B55"/>
<path d="M33.447 7.95922C33.1196 8.13425 31.2762 9.60388 31.2762 9.60388C31.2762 9.60388 33.5225 8.88857 33.8501 8.71353C34.1775 8.5385 34.3529 8.22782 34.2417 8.0195C34.1305 7.81119 33.7747 7.78419 33.447 7.95922Z" fill="#FF4B55"/>
<path d="M30.6111 4.76512C30.3754 5.05219 29.235 7.11524 29.235 7.11524C29.235 7.11524 31.0365 5.59481 31.2721 5.30765C31.5078 5.02059 31.5508 4.6665 31.3683 4.51659C31.1859 4.36678 30.8468 4.47806 30.6111 4.76512Z" fill="#FF4B55"/>
<path d="M15.2734 6.88057C15.5604 7.11625 17.6235 8.25672 17.6235 8.25672C17.6235 8.25672 16.1031 6.45513 15.8159 6.21954C15.5287 5.98394 15.1747 5.94082 15.0248 6.12335C14.875 6.30597 14.9862 6.64497 15.2734 6.88057Z" fill="#FF4B55"/>
<path d="M22.5039 2.64629C22.5402 3.01595 23.1926 5.28122 23.1926 5.28122C23.1926 5.28122 23.3914 2.93223 23.355 2.56257C23.3187 2.19292 23.0987 1.91214 22.8637 1.9353C22.6287 1.95836 22.4676 2.27664 22.5039 2.64629Z" fill="#FF4B55"/>
<path d="M24.662 2.56323C24.6251 2.93279 24.8201 5.28206 24.8201 5.28206C24.8201 5.28206 25.476 3.01782 25.5129 2.64826C25.5498 2.2787 25.3892 1.96014 25.1542 1.93661C24.9193 1.91317 24.699 2.19377 24.662 2.56323Z" fill="#FF4B55"/>
<path d="M16.741 5.29626C16.9763 5.5836 18.7753 7.10694 18.7753 7.10694C18.7753 7.10694 17.638 5.04201 17.4029 4.75466C17.1677 4.46732 16.8289 4.35557 16.6462 4.50501C16.4633 4.65454 16.5058 5.00882 16.741 5.29626Z" fill="#FF4B55"/>
<path d="M32.1951 6.23211C31.9078 6.46733 30.3844 8.26638 30.3844 8.26638C30.3844 8.26638 32.4494 7.12911 32.7367 6.89398C33.0241 6.65886 33.1358 6.31996 32.9864 6.13724C32.8369 5.95452 32.4827 5.9969 32.1951 6.23211Z" fill="#FF4B55"/>
<path d="M28.7935 3.64857C28.6179 3.97585 27.8991 6.22087 27.8991 6.22087C27.8991 6.22087 29.3716 4.37991 29.5472 4.05272C29.7228 3.72544 29.6962 3.36966 29.4882 3.25801C29.2801 3.14635 28.9691 3.32119 28.7935 3.64857Z" fill="#FF4B55"/>
<path d="M14.1573 8.69793C14.4845 8.87353 16.7296 9.59231 16.7296 9.59231C16.7296 9.59231 14.8886 8.11987 14.5614 7.94428C14.2341 7.76868 13.8784 7.79521 13.7667 8.00334C13.6551 8.21137 13.83 8.52234 14.1573 8.69793Z" fill="#FF4B55"/>
<path d="M20.4297 3.14207C20.537 3.49766 21.6163 5.59344 21.6163 5.59344C21.6163 5.59344 21.3559 3.25045 21.2484 2.89504C21.1412 2.53945 20.8708 2.30667 20.6448 2.37492C20.4187 2.44307 20.3224 2.78657 20.4297 3.14207Z" fill="#FF4B55"/>
</g>
<defs>
<clipPath id="clip0_11_4215">
<rect width="48" height="32" fill="white"/>
</clipPath>
</defs>
</svg>
