<svg width="48" height="32" viewBox="0 0 48 32" fill="none" xmlns="http://www.w3.org/2000/svg">
<g clip-path="url(#clip0_11_4843)">
<path d="M16 31.7234H0.827625C0.370594 31.7234 0 31.3528 0 30.8958V1.10271C0 0.645679 0.370594 0.275085 0.827625 0.275085H16V31.7234Z" fill="#73AF00"/>
<path d="M32.0007 0.275635H16.0004V31.7241H32.0007V0.275635Z" fill="white"/>
<path d="M47.1724 31.7235H32V0.275208H47.1724C47.6294 0.275208 48 0.645801 48 1.10283V30.8959C48 31.3531 47.6294 31.7235 47.1724 31.7235Z" fill="#FF4B55"/>
<path d="M25.4273 16.7404L24 17.4542V18.1679H24.7137L25.4273 16.7404Z" fill="#FFD250"/>
<path d="M24.0001 19.9521C23.8029 19.9521 23.6432 19.7924 23.6432 19.5952V18.1678C23.6432 17.9706 23.8029 17.8109 24.0001 17.8109C24.1974 17.8109 24.357 17.9706 24.357 18.1678V19.5952C24.357 19.7924 24.1974 19.9521 24.0001 19.9521Z" fill="#00C3A0"/>
<path d="M24.0001 18.5248C22.5985 18.5248 21.245 17.9839 20.1888 17.0019C20.0445 16.8677 20.0362 16.6419 20.1703 16.4977C20.3055 16.3538 20.531 16.3461 20.6745 16.4791C21.5983 17.3382 22.7793 17.811 24.0001 17.811C25.2208 17.811 26.4018 17.3382 27.3256 16.4791C27.4696 16.3457 27.695 16.353 27.8298 16.4977C27.964 16.642 27.9557 16.8678 27.8113 17.0019C26.7553 17.984 25.4018 18.5248 24.0001 18.5248Z" fill="#00C3A0"/>
<path d="M23.9999 19.952C23.0851 19.952 22.199 19.6848 21.4372 19.1788L21.8324 18.5842C23.1204 19.4401 24.8795 19.4401 26.1674 18.5842L26.5626 19.1788C25.8009 19.6849 24.9148 19.952 23.9999 19.952Z" fill="#00AADC"/>
<path d="M23.4348 15.1344L22.6469 16.3538L22.513 16.7551L24.5649 16.2794L23.4348 15.1344Z" fill="#732D37"/>
<path d="M21.8161 17.1473C20.8728 17.1473 19.7405 16.3534 19.4401 14.5845L20.1441 14.4654C20.3937 15.9363 21.2985 16.4346 21.8419 16.4333C22.0085 16.4287 22.1823 16.3712 22.196 16.2535C22.212 16.1127 22.2159 16.0793 21.8427 15.9531C21.6398 15.8844 21.4098 15.8068 21.2485 15.6221C20.5957 14.8767 21.4795 14.0878 21.9041 13.7086C21.979 13.6417 22.01 13.5849 22.002 13.5633C21.9787 13.5023 21.8386 13.41 21.6807 13.41C21.2274 13.41 20.8834 13.1539 20.7835 12.742C20.6796 12.3154 20.8758 11.8659 21.2494 11.6729L21.5771 12.3071C21.4895 12.3524 21.4548 12.4813 21.477 12.5733C21.4857 12.6103 21.507 12.6963 21.6809 12.6963C22.1179 12.6963 22.5337 12.9542 22.6689 13.309C22.7267 13.4602 22.8138 13.8533 22.3796 14.2411C21.9109 14.6597 21.6304 14.9747 21.7858 15.1521C21.821 15.1921 21.9719 15.2434 22.0716 15.2769C22.3929 15.3856 22.9909 15.5878 22.9052 16.3352C22.8515 16.8053 22.432 17.1315 21.8619 17.1469C21.8465 17.1469 21.8311 17.1473 21.8161 17.1473Z" fill="#AAD264"/>
<path d="M24.7137 13.1716C24.7137 13.1716 25.4274 11.7443 24 11.0306C24 11.0306 28.9958 10.3168 28.2821 16.7401L28.2818 16.7398C27.8135 16.3651 27.118 15.6803 26.8697 15.1343L24.7137 13.8852V13.1716Z" fill="#874150"/>
<path d="M24 14.5992L27.5684 16.7402C27.5684 16.7402 27.5684 16.7402 26.1411 17.454L24 15.313V14.5992Z" fill="#732D37"/>
<path d="M22.5727 12.4574C22.9669 12.4574 23.2865 12.777 23.2865 13.1711L23.2857 13.1719C22.8599 13.5977 22.7544 14.248 23.0237 14.7866L23.1849 15.1092C23.2521 15.2436 23.3406 15.3665 23.447 15.4728L25.4276 17.4534V16.4671C25.4276 15.2383 25.1416 14.0264 24.592 12.9274C24.2293 12.202 23.4879 11.7438 22.677 11.7438H22.5728V12.4576H22.5727V12.4574Z" fill="#783C46"/>
<path d="M22.5726 11.7446L21.8588 12.4583V13.172C21.8588 13.172 22.7078 12.7416 22.994 12.6044C23.1939 12.5086 23.1576 12.282 23.0428 12.1728C22.9535 12.0879 22.5726 11.7446 22.5726 11.7446Z" fill="#FFD250"/>
<path d="M24 21.379C20.6549 21.379 17.9336 18.6577 17.9336 15.3126H18.6474C18.6474 18.2643 21.0484 20.6654 24.0001 20.6654C26.9518 20.6654 29.3529 18.2643 29.3529 15.3126H30.0666C30.0664 18.6577 27.3451 21.379 24 21.379Z" fill="#AAD264"/>
<path d="M18.6864 17.9149C18.9539 17.9149 19.1707 17.6981 19.1707 17.4306C19.1707 17.1631 18.9539 16.9463 18.6864 16.9463C18.419 16.9463 18.2021 17.1631 18.2021 17.4306C18.2021 17.6981 18.419 17.9149 18.6864 17.9149Z" fill="#FFE15A"/>
<path d="M19.7571 19.6246C20.0246 19.6246 20.2414 19.4077 20.2414 19.1403C20.2414 18.8728 20.0246 18.6559 19.7571 18.6559C19.4896 18.6559 19.2728 18.8728 19.2728 19.1403C19.2728 19.4077 19.4896 19.6246 19.7571 19.6246Z" fill="#FFE15A"/>
<path d="M21.4959 20.9175C21.7634 20.9175 21.9802 20.7006 21.9802 20.4332C21.9802 20.1657 21.7634 19.9489 21.4959 19.9489C21.2284 19.9489 21.0116 20.1657 21.0116 20.4332C21.0116 20.7006 21.2284 20.9175 21.4959 20.9175Z" fill="#FFE15A"/>
<path d="M29.3653 17.9149C29.6328 17.9149 29.8497 17.6981 29.8497 17.4306C29.8497 17.1631 29.6328 16.9463 29.3653 16.9463C29.0979 16.9463 28.881 17.1631 28.881 17.4306C28.881 17.6981 29.0979 17.9149 29.3653 17.9149Z" fill="#FFE15A"/>
<path d="M28.2939 19.6246C28.5614 19.6246 28.7783 19.4077 28.7783 19.1403C28.7783 18.8728 28.5614 18.6559 28.2939 18.6559C28.0265 18.6559 27.8096 18.8728 27.8096 19.1403C27.8096 19.4077 28.0265 19.6246 28.2939 19.6246Z" fill="#FFE15A"/>
<path d="M26.5547 20.9175C26.8222 20.9175 27.039 20.7006 27.039 20.4332C27.039 20.1657 26.8222 19.9489 26.5547 19.9489C26.2872 19.9489 26.0704 20.1657 26.0704 20.4332C26.0704 20.7006 26.2872 20.9175 26.5547 20.9175Z" fill="#FFE15A"/>
<path d="M24.3569 20.3081H23.6431C23.249 20.3081 22.9294 19.9885 22.9294 19.5943C22.9294 19.2002 23.249 18.8806 23.6431 18.8806H24.3569C24.751 18.8806 25.0706 19.2002 25.0706 19.5943C25.0706 19.9886 24.751 20.3081 24.3569 20.3081Z" fill="#FFB478"/>
<path d="M26.8697 15.1343C27.1076 15.8331 27.6131 16.4725 28.2818 16.7398L28.2821 16.7401C28.9958 10.317 24 11.0307 24 11.0307C27.5684 11.0307 26.8697 15.1343 26.8697 15.1343Z" fill="#9B4B5A"/>
</g>
<defs>
<clipPath id="clip0_11_4843">
<rect width="48" height="32" fill="white"/>
</clipPath>
</defs>
</svg>
