<svg width="48" height="32" viewBox="0 0 48 32" fill="none" xmlns="http://www.w3.org/2000/svg">
<g clip-path="url(#clip0_11_2679)">
<path d="M47.9999 2.5222H0V1.10349C0 0.646456 0.370593 0.275864 0.827623 0.275864H47.1724C47.6294 0.275864 48 0.646456 48 1.10349L47.9999 2.5222Z" fill="#FF4B55"/>
<path d="M47.9999 2.52168H0V4.76792H47.9999V2.52168Z" fill="white"/>
<path d="M47.9999 4.76878H0V7.01502H47.9999V4.76878Z" fill="#FF4B55"/>
<path d="M47.9999 7.01413H0V9.26037H47.9999V7.01413Z" fill="white"/>
<path d="M47.9999 9.26134H0V11.5076H47.9999V9.26134Z" fill="#FF4B55"/>
<path d="M47.9999 11.5075H0V13.7537H47.9999V11.5075Z" fill="white"/>
<path d="M47.9999 13.7538H0V16H47.9999V13.7538Z" fill="#FF4B55"/>
<path d="M47.9999 16.0001H0V18.2463H47.9999V16.0001Z" fill="white"/>
<path d="M47.9999 20.4928H0V16.8277H0.827623L0.827811 18.2463H47.9999V20.4928Z" fill="#FF4B55"/>
<path d="M47.9999 20.4925H0V22.7388H47.9999V20.4925Z" fill="white"/>
<path d="M47.9999 22.7388H0V24.9851H47.9999V22.7388Z" fill="#FF4B55"/>
<path d="M47.9999 24.9859H0V27.2322H47.9999V24.9859Z" fill="white"/>
<path d="M47.9999 27.2312H0V29.4775H47.9999V27.2312Z" fill="#FF4B55"/>
<path d="M47.1723 31.7241H0.827623C0.370593 31.7241 0 31.3535 0 30.8965V29.4778H47.9999V30.8965C47.9999 31.3536 47.6293 31.7241 47.1723 31.7241Z" fill="white"/>
<path d="M28.9655 18.2463H0.827623C0.370593 18.2463 0 17.8757 0 17.4187V1.10349C0 0.646456 0.370593 0.275864 0.827623 0.275864H28.9655C29.4225 0.275864 29.7931 0.646456 29.7931 1.10349V17.4187C29.793 17.8759 29.4225 18.2463 28.9655 18.2463Z" fill="#41479B"/>
<path d="M7.86209 9.25215C7.86209 6.12212 10.4027 3.5831 13.5298 3.5831C14.3167 3.5831 15.0648 3.74416 15.7462 4.03441C15.8346 4.0721 15.9012 3.949 15.8218 3.89481C14.6945 3.12738 13.3158 2.70691 11.837 2.78379C8.58584 2.95282 5.92738 5.57153 5.71719 8.82034C5.47278 12.5992 8.46303 15.7296 12.1821 15.7296C13.5261 15.7296 14.7754 15.3155 15.8129 14.6134C15.8928 14.5593 15.8266 14.436 15.7378 14.4736C15.0587 14.7616 14.3136 14.9214 13.53 14.9214C10.4027 14.9213 7.86209 12.3823 7.86209 9.25215Z" fill="#FFE15A"/>
<path d="M20.8182 9.25213L23.2143 8.32504C23.3327 8.27919 23.2923 8.10228 23.1657 8.11241L20.6056 8.31744L22.3649 6.43682C22.4517 6.3441 22.3386 6.20244 22.2289 6.26638L20.0054 7.5635L20.7728 5.10951C20.8107 4.98838 20.6474 4.90973 20.5764 5.01491L19.137 7.14726L18.7677 4.60213C18.7495 4.47641 18.568 4.47632 18.5496 4.60204L18.3138 6.21248L18.2159 6.89404L18.1782 7.14735L16.7388 5.01679C16.6677 4.9116 16.5042 4.99035 16.5424 5.11148L17.3126 7.56341L15.0892 6.26629C14.9795 6.20226 14.8665 6.34401 14.9533 6.43673L16.7125 8.31735L14.1517 8.11232C14.0251 8.10219 13.9847 8.2791 14.1032 8.32494L16.5014 9.25203L14.1031 10.1793C13.9845 10.2252 14.025 10.4021 14.1516 10.3919L16.7125 10.1869L14.9532 12.0722C14.8665 12.1651 14.9798 12.3066 15.0894 12.2425L17.3127 10.9408L16.5424 13.3927C16.5044 13.5138 16.6677 13.5927 16.7389 13.4874L18.1783 11.3568L18.216 11.6161L18.3139 12.2917L18.5498 13.9064C18.5682 14.0322 18.7497 14.0321 18.7679 13.9063L19.1372 11.357L20.5766 13.4893C20.6477 13.5945 20.811 13.5161 20.773 13.3947L20.0056 10.9408L22.2288 12.2425C22.3384 12.3066 22.4517 12.1651 22.3651 12.0722L20.6057 10.1869L23.1659 10.3919C23.2925 10.4021 23.3329 10.2252 23.2144 10.1793L20.8182 9.25213Z" fill="#FFE15A"/>
</g>
<defs>
<clipPath id="clip0_11_2679">
<rect width="48" height="32" fill="white"/>
</clipPath>
</defs>
</svg>
