<svg width="48" height="32" viewBox="0 0 48 32" fill="none" xmlns="http://www.w3.org/2000/svg">
<g clip-path="url(#clip0_11_2292)">
<path d="M47.9999 10.7587H0V1.10347C0 0.646441 0.370593 0.275848 0.827623 0.275848H47.1724C47.6294 0.275848 48 0.646441 48 1.10347L47.9999 10.7587Z" fill="#5AA587"/>
<path d="M47.1723 31.7241H0.827623C0.370593 31.7241 0 31.3535 0 30.8965V21.2414H47.9999V30.8965C47.9999 31.3536 47.6293 31.7241 47.1723 31.7241Z" fill="#FFE15A"/>
<path d="M47.9999 10.7585H0V21.2407H47.9999V10.7585Z" fill="#464655"/>
<path d="M47.9999 9.82755H0V11.1346H47.9999V9.82755Z" fill="white"/>
<path d="M47.9999 20.8647H0V22.1718H47.9999V20.8647Z" fill="white"/>
<path d="M0.305249 31.5241L19.3216 16.4289C19.5977 16.2098 19.5977 15.7903 19.3216 15.571L0.305249 0.476013C0.122906 0.627794 0 0.847731 0 1.10348V30.8965C0 31.1524 0.122906 31.3723 0.305249 31.5241Z" fill="#FF4B55"/>
<path d="M7.66997 10.6166L8.87982 14.2443L12.7038 14.274C12.9176 14.2757 13.0062 14.5486 12.8342 14.6756L9.75797 16.9473L10.9114 20.5933C10.9758 20.7972 10.7438 20.9659 10.5698 20.8415L7.45866 18.6177L4.34757 20.8415C4.17357 20.9658 3.94145 20.7972 4.00595 20.5933L5.15935 16.9473L2.08323 14.6756C1.9112 14.5486 1.99989 14.2757 2.21364 14.274L6.0376 14.2443L7.24744 10.6166C7.31532 10.4138 7.60229 10.4138 7.66997 10.6166Z" fill="#FFE15A"/>
<path d="M7.23723 17.3544L6.93816 17.6553H4.4371L5.1197 15.1506L5.3986 15.0112L4.95085 17.2443C4.9471 17.2719 4.95273 17.2993 4.97101 17.3214C4.9876 17.3434 5.0132 17.3544 5.04076 17.3544H7.23723Z" fill="white"/>
<path d="M7.83711 17.771C7.72883 17.8517 7.59674 17.8976 7.45912 17.8976C7.32149 17.8976 7.1894 17.8518 7.08112 17.771L7.45912 17.393L7.83711 17.771Z" fill="white"/>
<path d="M10.4815 17.6554H7.9804L7.68134 17.3545H9.87771C9.90527 17.3545 9.93086 17.3435 9.94746 17.3215C9.96574 17.2994 9.97136 17.2719 9.96761 17.2444L9.51986 15.0113L9.79877 15.1507L10.4815 17.6554Z" fill="white"/>
<path d="M9.76577 17.171H7.55093V14.8864C7.92162 14.5726 8.89962 14.7873 9.31427 14.9157L9.76577 17.171Z" fill="white"/>
<path d="M7.36739 14.8864V17.171H5.15265L5.60405 14.9158C6.0188 14.7873 6.9968 14.5727 7.36739 14.8864Z" fill="white"/>
<path d="M10.6906 17.7233L9.96575 15.0625C9.95844 15.0386 9.94194 15.0167 9.91803 15.0056L9.43362 14.7635C9.43175 14.7616 9.42987 14.7616 9.42631 14.7616C9.42444 14.7616 9.42444 14.7597 9.42266 14.7579C9.36387 14.7377 8.0226 14.3009 7.45925 14.7285C6.89591 14.3009 5.55454 14.7377 5.49585 14.7579C5.49398 14.7597 5.49398 14.7597 5.49219 14.7616C5.48844 14.7616 5.48676 14.7616 5.48488 14.7635L5.00048 15.0056C4.97657 15.0166 4.96016 15.0386 4.95276 15.0625L4.22788 17.7233C4.22057 17.7508 4.22601 17.7802 4.2426 17.8022C4.26089 17.8242 4.28845 17.839 4.31601 17.839H6.88494C7.03719 17.9912 7.24279 18.0811 7.45925 18.0811C7.67582 18.0811 7.88131 17.9912 8.03356 17.839H10.6025C10.6301 17.839 10.6575 17.8242 10.6759 17.8022C10.6924 17.7802 10.6979 17.7508 10.6906 17.7233ZM7.55094 14.8864C7.92163 14.5726 8.89962 14.7873 9.31428 14.9157L9.76569 17.1709H7.55094C7.55094 17.171 7.55094 14.8864 7.55094 14.8864ZM5.60404 14.9158C6.01879 14.7874 6.99679 14.5727 7.36738 14.8865V17.1711H5.15263L5.60404 14.9158ZM4.43704 17.6554L5.11963 15.1507L5.39854 15.0113L4.95079 17.2444C4.94704 17.272 4.95266 17.2994 4.97095 17.3215C4.98754 17.3435 5.01313 17.3545 5.0407 17.3545H7.23707L6.938 17.6554H4.43704ZM7.45916 17.8976C7.32154 17.8976 7.18944 17.8518 7.08116 17.771L7.45916 17.393L7.83716 17.771C7.72897 17.8517 7.59688 17.8976 7.45916 17.8976ZM7.98031 17.6554L7.68125 17.3545H9.87762C9.90519 17.3545 9.93078 17.3435 9.94737 17.3215C9.96565 17.2994 9.97128 17.2719 9.96753 17.2444L9.51978 15.0113L9.79869 15.1507L10.4813 17.6554H7.98031Z" fill="#464655"/>
<path d="M9.75321 12.4899C9.65965 12.555 9.5329 12.5439 9.45218 12.4632L9.33012 12.3411V12.6399L8.58321 13.3868H8.28443L7.08949 14.5818H6.79071L4.49309 16.8794C4.43647 16.9361 4.41678 17.0197 4.44209 17.0956L4.55019 17.4199L4.10206 17.868H3.80328L2.88988 18.7814C2.81694 18.8544 2.81694 18.9727 2.88988 19.0457L3.49269 19.6485C3.57969 19.7355 3.72238 19.7301 3.80244 19.6366L5.14775 18.0174L5.29709 17.5693L5.59587 17.2705L6.19343 18.1667L6.64156 17.7186L6.16353 17.0016L6.28259 16.8825C6.39837 16.7668 6.39837 16.5792 6.28259 16.4634L6.19343 16.3742L6.27734 16.2903C6.91493 16.8367 7.68049 16.978 8.4094 16.6655L8.15974 16.0829C7.55749 16.341 7.06568 16.1251 6.72359 15.844L7.98584 14.5817L7.93606 14.3327L8.28462 13.9842H8.5834L10.8241 11.7434L9.75321 12.4899Z" fill="#464655"/>
<path d="M5.29709 12.1917L4.99831 12.4905C4.9159 12.5729 4.9159 12.7067 4.99831 12.7893L5.04809 12.8391L4.55018 12.9387L3.20581 14.2831L3.95272 15.03L5.29709 13.6857L5.39665 13.1877L5.59587 13.3869L5.74521 13.2375L10.714 18.2063L11.0127 17.9075L6.04399 12.9387L6.19334 12.7894L5.59577 12.1918C5.51337 12.1092 5.37968 12.1092 5.29709 12.1917Z" fill="#464655"/>
</g>
<defs>
<clipPath id="clip0_11_2292">
<rect width="48" height="32" fill="white"/>
</clipPath>
</defs>
</svg>
