<svg width="48" height="32" viewBox="0 0 48 32" fill="none" xmlns="http://www.w3.org/2000/svg">
<g clip-path="url(#clip0_11_1616)">
<path d="M0 24.2759V1.10338C0 0.64635 0.370594 0.275757 0.827625 0.275757H36.4138L0 24.2759Z" fill="#41479B"/>
<path d="M48.0001 7.72412V30.8965C48.0001 31.3535 47.6295 31.7241 47.1724 31.7241H11.5862L48.0001 7.72412Z" fill="#73AF00"/>
<path d="M48 8.19079V1.10338C48 0.64635 47.6294 0.275757 47.1724 0.275757H35.9193L0 23.8092V30.8965C0 31.3535 0.370594 31.7241 0.827625 31.7241H12.0807L48 8.19079Z" fill="white"/>
<path d="M48 5.22313V1.10338C48 0.64635 47.6294 0.275757 47.1724 0.275757H40.4488L0 26.7768V30.8966C0 31.3536 0.370594 31.7242 0.827625 31.7242H7.55119L48 5.22313Z" fill="#FF4B55"/>
<path d="M8.45674 5.67757C9.27152 5.67757 10.009 6.00766 10.5431 6.54138L10.836 4.50832L9.22024 5.77966L8.45665 3.87073L7.69305 5.77966L6.07727 4.50832L6.37024 6.54138C6.90452 6.00757 7.64196 5.67757 8.45674 5.67757Z" fill="#FFE15A"/>
<path d="M6.36868 10.7157C5.83496 10.1816 5.50487 9.44397 5.50487 8.62938C5.50487 7.81459 5.83496 7.07716 6.36868 6.54306L4.33562 6.25L5.60696 7.86578L3.69803 8.62938L5.60696 9.39297L4.33562 11.0087L6.36868 10.7157Z" fill="#FFE15A"/>
<path d="M13.2156 8.62928L11.3066 7.86569L12.578 6.25L10.5449 6.54297C11.0786 7.07706 11.4087 7.81469 11.4087 8.62928C11.4087 9.44397 11.0786 10.1815 10.5449 10.7156L12.578 11.0086L11.3066 9.39278L13.2156 8.62928Z" fill="#FFE15A"/>
<path d="M8.4568 11.5811C7.64201 11.5811 6.90458 11.251 6.37048 10.7173L6.07751 12.7503L7.6933 11.479L8.45689 13.3879L9.22048 11.479L10.8363 12.7503L10.5433 10.7173C10.009 11.2511 9.27158 11.5811 8.4568 11.5811Z" fill="#FFE15A"/>
<path d="M8.45676 11.0396C9.78789 11.0396 10.867 9.96046 10.867 8.62934C10.867 7.29821 9.78789 6.21912 8.45676 6.21912C7.12563 6.21912 6.04654 7.29821 6.04654 8.62934C6.04654 9.96046 7.12563 11.0396 8.45676 11.0396Z" fill="#FFE15A"/>
</g>
<defs>
<clipPath id="clip0_11_1616">
<rect width="48" height="32" fill="white"/>
</clipPath>
</defs>
</svg>
