<svg width="48" height="32" viewBox="0 0 48 32" fill="none" xmlns="http://www.w3.org/2000/svg">
<g clip-path="url(#clip0_11_4402)">
<path d="M0 21.2411H47.9999V30.8963C47.9999 31.3533 47.6293 31.7239 47.1723 31.7239H0.827623C0.370593 31.7239 0 31.3533 0 30.8963V21.2411Z" fill="#73AF00"/>
<path d="M0.827623 0.276001H47.1724C47.6294 0.276001 48 0.646594 48 1.10362V10.7587H0V1.10353C0 0.6465 0.370593 0.276001 0.827623 0.276001Z" fill="#FF9B55"/>
<path d="M47.9999 10.7585H0V21.2407H47.9999V10.7585Z" fill="white"/>
<path d="M24.0001 20.1382C26.2855 20.1382 28.1382 18.2855 28.1382 16C28.1382 13.7146 26.2855 11.8619 24.0001 11.8619C21.7147 11.8619 19.862 13.7146 19.862 16C19.862 18.2855 21.7147 20.1382 24.0001 20.1382Z" fill="#FF9B55"/>
</g>
<defs>
<clipPath id="clip0_11_4402">
<rect width="48" height="32" fill="white"/>
</clipPath>
</defs>
</svg>
