<svg width="48" height="32" viewBox="0 0 48 32" fill="none" xmlns="http://www.w3.org/2000/svg">
<g clip-path="url(#clip0_11_3921)">
<path d="M16 31.7239H0.827625C0.370594 31.7239 0 31.3533 0 30.8963V1.10326C0 0.646228 0.370594 0.275635 0.827625 0.275635H16V31.7239Z" fill="#73AF00"/>
<path d="M32.0007 0.276093H16.0004V31.7245H32.0007V0.276093Z" fill="white"/>
<path d="M47.1724 31.7239H32V0.275635H47.1724C47.6294 0.275635 48 0.646228 48 1.10326V30.8963C48 31.3534 47.6294 31.7239 47.1724 31.7239Z" fill="#73AF00"/>
<path d="M29.5275 24.1183L26.9591 9.13588C26.8611 8.56381 26.6575 8.01491 26.3589 7.51719L24.0001 3.58588L21.6412 7.51728C21.3426 8.015 21.1391 8.56391 21.0411 9.13597L18.4726 24.1184C18.4236 24.4046 18.6439 24.666 18.9343 24.666H23.0632V28.4135H24.9369V24.6659H29.0658C29.3561 24.6659 29.5766 24.4046 29.5275 24.1183Z" fill="#73AF00"/>
</g>
<defs>
<clipPath id="clip0_11_3921">
<rect width="48" height="32" fill="white"/>
</clipPath>
</defs>
</svg>
