<svg width="48" height="32" viewBox="0 0 48 32" fill="none" xmlns="http://www.w3.org/2000/svg">
<g clip-path="url(#clip0_11_750)">
<path d="M47.9999 10.7588H0V1.10362C0 0.646594 0.370593 0.276001 0.827623 0.276001H47.1724C47.6294 0.276001 48 0.646594 48 1.10362L47.9999 10.7588Z" fill="#41479B"/>
<path d="M47.1723 31.7242H0.827623C0.370593 31.7242 0 31.3537 0 30.8966V21.2415H47.9999V30.8966C47.9999 31.3537 47.6293 31.7242 47.1723 31.7242Z" fill="#41479B"/>
<path d="M47.9999 10.7584H0V21.2406H47.9999V10.7584Z" fill="white"/>
<path d="M24 12.9698L21.4756 16.6822H26.5244L24 12.9698Z" fill="#AFEBFF"/>
<path d="M21.4756 16.6821L19.8421 19.0581H28.1579L26.5244 16.6821H21.4756Z" fill="#557DE6"/>
<path d="M24.6459 16.4748C24.6559 16.4541 24.6665 16.4337 24.6756 16.4125C24.6666 16.4335 24.6559 16.4541 24.6459 16.4748Z" fill="#73AF00"/>
<path d="M24.7155 16.3038C24.7217 16.2851 24.7292 16.267 24.7345 16.2481C24.7291 16.267 24.7216 16.285 24.7155 16.3038Z" fill="#73AF00"/>
<path d="M24.56 16.6306C24.5728 16.6102 24.5853 16.59 24.5972 16.5692C24.5854 16.5901 24.5727 16.6103 24.56 16.6306Z" fill="#73AF00"/>
<path d="M24.946 15.9389C24.9234 15.9389 24.9017 15.9427 24.8818 15.9493C24.9017 15.9426 24.9234 15.9389 24.946 15.9389Z" fill="#73AF00"/>
<path d="M24.8276 15.9781C24.7962 16.0027 24.7747 16.0369 24.7698 16.0759V16.0761V16.0759C24.7748 16.0369 24.7961 16.0026 24.8276 15.9781Z" fill="#73AF00"/>
<path d="M24.751 17.0861C24.7864 17.1197 24.8214 17.1516 24.8567 17.1821C25.0451 17.019 25.2418 16.8117 25.3798 16.5692C25.3699 16.5866 25.3592 16.6034 25.3487 16.6205C25.2198 16.3835 25.1517 16.1785 25.1187 16.0569C25.0999 15.9875 25.028 15.9391 24.946 15.939C24.9776 16.216 25.0455 16.7249 24.751 17.0861Z" fill="#73AF00"/>
<path d="M25.4981 16.3038C25.5043 16.2851 25.5118 16.267 25.5171 16.2481C25.5118 16.267 25.5043 16.285 25.4981 16.3038Z" fill="#73AF00"/>
<path d="M25.6104 15.9781C25.579 16.0027 25.5574 16.0369 25.5525 16.0759V16.0761V16.0759C25.5575 16.0369 25.5789 16.0026 25.6104 15.9781Z" fill="#73AF00"/>
<path d="M25.4287 16.4748C25.4387 16.4541 25.4493 16.4337 25.4584 16.4125C25.4492 16.4335 25.4387 16.4541 25.4287 16.4748Z" fill="#73AF00"/>
<path d="M27.0317 17.2771C26.7455 17.2771 26.4746 17.1398 26.3092 16.9062C26.0601 16.5542 25.9472 16.2261 25.9015 16.0578C25.8827 15.9883 25.8107 15.9399 25.7286 15.9399L25.7288 15.94C25.7665 16.2705 25.8561 16.9314 25.3191 17.2772H24.9694C24.955 17.2659 24.9411 17.255 24.9263 17.243C24.9266 17.2433 24.927 17.2436 24.9273 17.2438C24.8294 17.3716 24.6336 17.4074 24.4819 17.3292C23.8464 17.0018 23.9451 16.2877 23.9847 15.94C23.9027 15.9401 23.8309 15.9883 23.812 16.0578C23.779 16.1794 23.711 16.3844 23.5821 16.6214C23.5717 16.6044 23.5609 16.5876 23.5509 16.5702C23.7062 16.843 23.9365 17.0732 24.1447 17.2438C24.0468 17.3716 23.851 17.4074 23.6992 17.3292C23.0638 17.0018 23.1624 16.2876 23.2021 15.94C23.1201 15.9401 23.0482 15.9883 23.0294 16.0578C22.9964 16.1794 22.9283 16.3844 22.7994 16.6214C22.789 16.6044 22.7782 16.5876 22.7683 16.5702C22.9236 16.843 23.1539 17.0732 23.362 17.2438C23.2642 17.3716 23.0684 17.4074 22.9166 17.3292C22.2812 17.0018 22.3798 16.2877 22.4195 15.94L22.4197 15.9399C22.3376 15.9399 22.2656 15.9882 22.2468 16.0578C22.2011 16.2261 22.0882 16.5542 21.8391 16.9062C21.6738 17.1399 21.4029 17.2771 21.1166 17.2771H20.8815V17.5741H26.9699H27.1183V17.2771H27.0317Z" fill="#73AF00"/>
<path d="M24.2552 16.4124C24.2643 16.4336 24.2749 16.454 24.2849 16.4747C24.2749 16.454 24.2642 16.4335 24.2552 16.4124Z" fill="#73AF00"/>
<path d="M24.1965 16.248C24.2018 16.2669 24.2093 16.285 24.2155 16.3037C24.2093 16.285 24.2018 16.2669 24.1965 16.248Z" fill="#73AF00"/>
<path d="M24.1611 16.0762V16.076C24.1562 16.037 24.1348 16.0028 24.1032 15.9782C24.1346 16.0028 24.1562 16.037 24.1611 16.076V16.0762Z" fill="#73AF00"/>
<path d="M24.3336 16.5693C24.3456 16.5902 24.3582 16.6103 24.3709 16.6307C24.3582 16.6103 24.3456 16.5901 24.3336 16.5693Z" fill="#73AF00"/>
<path d="M24.47 16.7751C24.4684 16.7731 24.4671 16.7711 24.4656 16.769C24.4784 16.7521 24.4905 16.735 24.5028 16.7177C24.4906 16.7349 24.4781 16.752 24.4654 16.7688C24.4527 16.752 24.4402 16.735 24.4281 16.7177C24.4418 16.7371 24.4557 16.7561 24.47 16.7751Z" fill="#73AF00"/>
<path d="M24.5354 16.8572C24.5499 16.8746 24.5643 16.8919 24.5791 16.9086C24.5643 16.8919 24.5499 16.8746 24.5354 16.8572Z" fill="#73AF00"/>
<path d="M24.6939 17.0313C24.68 17.0175 24.6665 17.0029 24.6528 16.9886C24.6666 17.003 24.68 17.0175 24.6939 17.0313Z" fill="#73AF00"/>
<path d="M25.729 15.939L25.7287 15.9389C25.6836 15.9389 25.642 15.9536 25.6105 15.9781C25.5791 16.0026 25.5575 16.0368 25.5526 16.0758V16.076C25.5453 16.1346 25.5329 16.1917 25.5172 16.2479C25.512 16.2668 25.5044 16.2849 25.4982 16.3036C25.4861 16.3403 25.4736 16.3769 25.4584 16.4124C25.4493 16.4336 25.4387 16.454 25.4287 16.4747C25.4133 16.5065 25.3976 16.5383 25.38 16.5691C25.242 16.8115 25.0454 17.0189 24.8569 17.182C24.8218 17.1516 24.7867 17.1196 24.7513 17.086C25.0456 16.7248 24.9779 16.2158 24.9464 15.9389L24.9461 15.9388C24.9235 15.9388 24.9018 15.9425 24.8819 15.9492C24.8619 15.9559 24.8436 15.9658 24.8279 15.978C24.7964 16.0025 24.7749 16.0368 24.77 16.0758V16.0759C24.7627 16.1345 24.7502 16.1916 24.7345 16.2478C24.7292 16.2667 24.7216 16.2848 24.7154 16.3035C24.7034 16.3402 24.6909 16.3768 24.6757 16.4123C24.6666 16.4335 24.656 16.4539 24.646 16.4746C24.6306 16.5064 24.6149 16.5382 24.5973 16.569C24.5854 16.5899 24.5728 16.61 24.5601 16.6304C24.5417 16.6598 24.5229 16.689 24.5029 16.7173C24.4907 16.7346 24.4784 16.7519 24.4657 16.7687C24.4529 16.7517 24.4404 16.7346 24.4281 16.7173C24.4081 16.689 24.3893 16.6599 24.3709 16.6304C24.3582 16.61 24.3456 16.5898 24.3337 16.569C24.3161 16.5381 24.3005 16.5063 24.285 16.4746C24.275 16.4538 24.2644 16.4335 24.2553 16.4123C24.2401 16.3769 24.2277 16.3402 24.2156 16.3035C24.2094 16.2848 24.2019 16.2667 24.1965 16.2478C24.1808 16.1917 24.1684 16.1345 24.1611 16.0759V16.0758C24.1562 16.0368 24.1349 16.0025 24.1033 15.978C24.0719 15.9534 24.0302 15.9388 23.9851 15.9388L23.9849 15.9389C23.9453 16.2866 23.8466 17.0007 24.482 17.3281C24.5892 17.3833 24.7178 17.3811 24.8187 17.3303C24.8831 17.2979 24.9523 17.2761 25.0244 17.2761H25.3193C25.8563 16.9304 25.7667 16.2694 25.729 15.939Z" fill="#FFE15A"/>
<path d="M23.4141 16.248C23.4194 16.2669 23.427 16.285 23.4332 16.3037C23.427 16.285 23.4195 16.2669 23.4141 16.248Z" fill="#73AF00"/>
<path d="M23.3785 16.0762V16.076C23.3736 16.037 23.3522 16.0028 23.3206 15.9782C23.352 16.0028 23.3736 16.037 23.3785 16.076V16.0762Z" fill="#73AF00"/>
<path d="M23.4727 16.4124C23.4818 16.4336 23.4924 16.454 23.5025 16.4747C23.4923 16.454 23.4818 16.4335 23.4727 16.4124Z" fill="#73AF00"/>
<path d="M23.2026 15.9389C23.2252 15.9389 23.2469 15.9427 23.2668 15.9493C23.2468 15.9426 23.2251 15.9389 23.2026 15.9389Z" fill="#73AF00"/>
<path d="M23.6992 17.328C23.8511 17.4062 24.0468 17.3704 24.1446 17.2427C23.9365 17.0721 23.7062 16.8419 23.5509 16.569C23.5333 16.5382 23.5177 16.5064 23.5022 16.4746C23.4922 16.4539 23.4816 16.4336 23.4725 16.4124C23.4573 16.3769 23.4449 16.3403 23.4328 16.3035C23.4266 16.2849 23.4191 16.2668 23.4137 16.2478C23.398 16.1918 23.3856 16.1346 23.3783 16.076V16.0758C23.3734 16.0368 23.3521 16.0026 23.3205 15.978C23.3047 15.9658 23.2864 15.956 23.2665 15.9492C23.2465 15.9425 23.2248 15.9388 23.2022 15.9388L23.202 15.9389C23.1625 16.2866 23.0638 17.0006 23.6992 17.328Z" fill="#FFE15A"/>
<path d="M22.6314 16.2478C22.6367 16.2667 22.6443 16.2848 22.6504 16.3035C22.6443 16.2848 22.6368 16.2667 22.6314 16.2478Z" fill="#73AF00"/>
<path d="M22.69 16.4122C22.6991 16.4334 22.7097 16.4538 22.7197 16.4744C22.7097 16.4538 22.699 16.4333 22.69 16.4122Z" fill="#73AF00"/>
<path d="M22.5959 16.076V16.0758C22.591 16.0368 22.5696 16.0026 22.538 15.978C22.5694 16.0026 22.591 16.0368 22.5959 16.0758V16.076Z" fill="#73AF00"/>
<path d="M22.9167 17.328C23.0686 17.4062 23.2644 17.3704 23.3622 17.2427C23.154 17.0721 22.9238 16.8419 22.7684 16.569C22.7508 16.5382 22.7352 16.5064 22.7198 16.4746C22.7097 16.4539 22.6992 16.4336 22.6901 16.4124C22.6749 16.3769 22.6624 16.3403 22.6503 16.3035C22.6441 16.2849 22.6366 16.2668 22.6313 16.2478C22.6155 16.1918 22.6032 16.1346 22.5958 16.076V16.0758C22.591 16.0368 22.5696 16.0026 22.538 15.978C22.5066 15.9535 22.465 15.9388 22.4198 15.9388L22.4195 15.9389C22.3799 16.2866 22.2811 17.0006 22.9167 17.328Z" fill="#FFE15A"/>
<path d="M22.7489 14.758C22.7366 14.8053 22.7241 14.8528 22.7118 14.9001C23.1172 14.7785 23.5646 14.7055 24.05 14.7055C24.5354 14.7058 24.9828 14.7782 25.3882 14.9001C25.3759 14.8528 25.3634 14.8053 25.3511 14.758C24.9479 14.6539 24.514 14.5941 24.05 14.5943C23.5861 14.5942 23.1522 14.6539 22.7489 14.758Z" fill="#41479B"/>
<path d="M22.7649 14.6962C22.7526 14.7436 22.7401 14.791 22.7278 14.8384C23.1287 14.7165 23.5707 14.6434 24.0499 14.6432C24.5292 14.6434 24.9711 14.7164 25.372 14.8384C25.3597 14.791 25.3472 14.7436 25.3349 14.6962C24.9362 14.5914 24.5078 14.5321 24.0499 14.532C23.5919 14.5321 23.1636 14.5917 22.7649 14.6962Z" fill="#5AA0E6"/>
<path d="M22.7798 14.6391C22.7676 14.6864 22.7551 14.7339 22.7428 14.7812C23.1397 14.659 23.5764 14.5853 24.05 14.5855C24.5237 14.5855 24.9603 14.6589 25.3571 14.7812C25.3448 14.7339 25.3324 14.6864 25.3201 14.6391C24.9257 14.5343 24.5023 14.4742 24.05 14.4742C23.5976 14.4741 23.1743 14.5343 22.7798 14.6391Z" fill="#9BC800"/>
<path d="M22.7969 14.5739C22.7846 14.6213 22.7721 14.6687 22.7599 14.7161C23.1521 14.5934 23.583 14.5197 24.05 14.5197C24.5171 14.5199 24.948 14.5934 25.3402 14.7161C25.3279 14.6687 25.3155 14.6213 25.3032 14.5739C24.9134 14.4688 24.4961 14.4086 24.05 14.4084C23.604 14.4085 23.1866 14.4688 22.7969 14.5739Z" fill="#FFE14E"/>
<path d="M22.8137 14.5098C22.8014 14.5572 22.789 14.6046 22.7767 14.6519C23.1644 14.5289 23.5893 14.455 24.0501 14.4549C24.5109 14.4552 24.9358 14.5288 25.3235 14.6519C25.3112 14.6046 25.2987 14.5572 25.2864 14.5098C24.9015 14.4044 24.4899 14.3437 24.0501 14.3437C23.6103 14.3439 23.1987 14.4042 22.8137 14.5098Z" fill="#FFB14E"/>
<path d="M22.8206 14.4823C22.8119 14.5155 22.8034 14.5486 22.7947 14.5819C23.1773 14.4587 23.5962 14.384 24.0499 14.3841C24.5037 14.3839 24.9225 14.4584 25.3051 14.5819C25.2964 14.5487 25.2878 14.5156 25.2791 14.4823C24.8961 14.3767 24.4869 14.316 24.0498 14.3159C23.6128 14.3156 23.2037 14.3766 22.8206 14.4823Z" fill="#FF4B55"/>
<path d="M28.1579 19.2023H19.842C19.7872 19.2023 19.737 19.1721 19.7111 19.124C19.6852 19.0756 19.6882 19.0169 19.7185 18.9714L23.8765 12.7345C23.9316 12.6522 24.0685 12.6522 24.1236 12.7345L28.2816 18.9714C28.3119 19.0169 28.3148 19.0755 28.2889 19.124C28.263 19.1722 28.2128 19.2023 28.1579 19.2023ZM20.1194 18.9053H27.8804L23.9999 13.0846L20.1194 18.9053Z" fill="#FFE15A"/>
<path d="M24.2838 15.3375C24.2838 15.2069 24.1515 15.0083 23.9395 15.0083C23.8156 15.0083 23.7152 15.084 23.7152 15.1773C23.7152 15.224 23.7403 15.2661 23.7807 15.2967C23.7805 15.2984 23.7804 15.3002 23.7803 15.3018C23.7297 15.3329 23.6967 15.3795 23.6967 15.4325C23.6967 15.5216 23.7885 15.5938 23.9044 15.6003L23.9999 15.7912L24.086 15.6189C24.1992 15.5901 24.2838 15.4754 24.2838 15.3375Z" fill="#FF4B55"/>
</g>
<defs>
<clipPath id="clip0_11_750">
<rect width="48" height="32" fill="white"/>
</clipPath>
</defs>
</svg>
