<svg width="48" height="32" viewBox="0 0 48 32" fill="none" xmlns="http://www.w3.org/2000/svg">
<g clip-path="url(#clip0_11_3294)">
<path d="M47.1723 31.7243H0.827623C0.370593 31.7243 0 31.3537 0 30.8966V1.10359C0 0.646563 0.370593 0.27597 0.827623 0.27597H47.1724C47.6294 0.27597 48 0.646563 48 1.10359V30.8966C47.9999 31.3538 47.6293 31.7243 47.1723 31.7243Z" fill="#FF4B55"/>
<path d="M47.9999 11.862H21.5172V0.275864H13.2413V11.862H0V20.1379H13.2413V31.7241H21.5172V20.1379H47.9999V11.862Z" fill="white"/>
<path d="M47.9999 13.5172H19.862V0.275864H14.8966V13.5172H0V18.4827H14.8966V31.7241H19.862V18.4827H47.9999V13.5172Z" fill="#41479B"/>
</g>
<defs>
<clipPath id="clip0_11_3294">
<rect width="48" height="32" fill="white"/>
</clipPath>
</defs>
</svg>
