<svg width="48" height="32" viewBox="0 0 48 32" fill="none" xmlns="http://www.w3.org/2000/svg">
<g clip-path="url(#clip0_11_943)">
<path d="M47.1723 31.7243H0.827623C0.370593 31.7243 0 31.3537 0 30.8967V1.10362C0 0.646594 0.370593 0.276001 0.827623 0.276001H47.1724C47.6294 0.276001 48 0.646594 48 1.10362V30.8967C47.9999 31.3538 47.6293 31.7243 47.1723 31.7243Z" fill="white"/>
<path d="M1.07587 2.39462L18.2216 14.9242H7.41973H5.01018L6.61855 16.7183L19.1076 30.6483H1.07587V2.39462ZM0.288843 0.487C0.115125 0.63878 0 0.85478 0 1.1034V30.8964C0 31.3535 0.370593 31.7241 0.827623 31.7241H21.5173L7.41973 16H21.5173L0.288843 0.487Z" fill="#41479B"/>
<path d="M1.07581 2.39471L18.2215 14.9242H7.41967H5.01011L6.61867 16.7182L19.1076 30.6483H1.07581V2.39471Z" fill="#FF4B55"/>
<path d="M6.31359 19.7875L6.97602 21.1546L8.2333 20.3019C8.28871 20.2642 8.36324 20.3072 8.35836 20.3741L8.24858 21.8893L9.76377 21.7795C9.83061 21.7746 9.87364 21.8491 9.83595 21.9045L8.9832 23.1618L10.3504 23.8243C10.4106 23.8535 10.4106 23.9394 10.3504 23.9686L8.9832 24.6311L9.83595 25.8884C9.87364 25.9438 9.83061 26.0183 9.76377 26.0134L8.24858 25.9036L8.35836 27.4188C8.36324 27.4857 8.28871 27.5287 8.2333 27.491L6.97602 26.6383L6.31359 28.0054C6.28434 28.0657 6.19846 28.0657 6.16921 28.0054L5.50677 26.6383L4.2495 27.491C4.19409 27.5287 4.11956 27.4857 4.12443 27.4188L4.23421 25.9036L2.71903 26.0134C2.65219 26.0183 2.60915 25.9438 2.64684 25.8884L3.49959 24.6311L2.13216 23.9689C2.07187 23.9397 2.07187 23.8538 2.13216 23.8245L3.49931 23.1621L2.64656 21.9048C2.60887 21.8494 2.6519 21.7749 2.71875 21.7798L4.23393 21.8895L4.12415 20.3744C4.11928 20.3075 4.19381 20.2645 4.24921 20.3022L5.50649 21.1549L6.16893 19.7878C6.19837 19.7272 6.28434 19.7272 6.31359 19.7875Z" fill="white"/>
<path d="M8.03371 11.8809L7.45855 11.488L7.9649 10.9573L7.2433 10.8255L7.49005 10.1349L6.77727 10.308L6.72168 9.5768L6.14099 10.0248L5.7929 9.37946L5.44471 10.025L4.86403 9.57699L4.80843 10.3082L4.09565 10.1351L4.3424 10.8257L3.62081 10.9575L4.12715 11.4882L3.552 11.8811C2.82628 11.5423 2.18822 11.0472 1.6861 10.4348C2.02341 12.3999 3.73125 13.8969 5.79271 13.8969C7.85418 13.8969 9.56193 12.3999 9.89933 10.4348C9.39749 11.0471 8.75933 11.5421 8.03371 11.8809Z" fill="white"/>
</g>
<defs>
<clipPath id="clip0_11_943">
<rect width="48" height="32" fill="white"/>
</clipPath>
</defs>
</svg>
