<svg width="48" height="32" viewBox="0 0 48 32" fill="none" xmlns="http://www.w3.org/2000/svg">
<g clip-path="url(#clip0_11_4508)">
<path d="M47.1723 31.7242H0.827623C0.370593 31.7242 0 31.3536 0 30.8966V1.10362C0 0.646594 0.370593 0.276001 0.827623 0.276001H47.1724C47.6294 0.276001 48 0.646594 48 1.10362V30.8966C47.9999 31.3537 47.6293 31.7242 47.1723 31.7242Z" fill="#41479B"/>
<path d="M47.9999 14.3445H0V17.6548H47.9999V14.3445Z" fill="#FFE15A"/>
<path d="M11.1724 20.9656L11.6543 22.8912L13.0344 21.4645L12.4891 23.3731L14.3975 22.8276L12.971 24.2079L14.8965 24.6897L12.971 25.1717L14.3975 26.5518L12.4891 26.0064L13.0344 27.915L11.6543 26.4884L11.1724 28.4139L10.6904 26.4884L9.3103 27.915L9.85574 26.0064L7.94718 26.5518L9.37377 25.1717L7.44824 24.6897L9.37377 24.2079L7.94718 22.8276L9.85574 23.3731L9.3103 21.4645L10.6904 22.8912L11.1724 20.9656Z" fill="white"/>
</g>
<defs>
<clipPath id="clip0_11_4508">
<rect width="48" height="32" fill="white"/>
</clipPath>
</defs>
</svg>
