<svg width="48" height="32" viewBox="0 0 48 32" fill="none" xmlns="http://www.w3.org/2000/svg">
<g clip-path="url(#clip0_11_3785)">
<path d="M47.1723 31.7242H0.827623C0.370593 31.7242 0 31.3536 0 30.8965V1.10359C0 0.646563 0.370593 0.27597 0.827623 0.27597H47.1724C47.6294 0.27597 48 0.646563 48 1.10359V30.8965C47.9999 31.3537 47.6293 31.7242 47.1723 31.7242Z" fill="#FFE15A"/>
<path d="M23.1723 16.0001H0.827623C0.370593 16.0001 0 15.6295 0 15.1724V1.10359C0 0.646563 0.370593 0.27597 0.827623 0.27597H23.1723C23.6294 0.27597 24 0.646563 24 1.10359V15.1725C23.9999 15.6297 23.6295 16.0001 23.1723 16.0001Z" fill="#41479B"/>
<path d="M23.1723 0.27597H21.7349L14.0689 5.29843V0.27597H9.93101V5.29843L2.26509 0.27597H0.827623C0.370593 0.27597 0 0.646563 0 1.10359V1.76003L6.57702 6.06905H0V10.207H6.57702L0 14.5161V15.1724C0 15.6295 0.370593 16.0001 0.827623 16.0001H2.26509L9.93101 10.9776V16.0001H14.0689V10.9776L21.7348 16.0001H23.1722C23.6293 16.0001 23.9999 15.6295 23.9999 15.1724V14.516L17.4229 10.207H23.9999V6.06905H17.4228L23.9999 1.76003V1.10359C23.9999 0.646563 23.6295 0.27597 23.1723 0.27597Z" fill="white"/>
<path d="M23.9999 6.89668H13.2413V0.27597H10.7585V6.89668H0V9.37936H10.7585V16.0001H13.2413V9.37936H23.9999V6.89668Z" fill="#FF4B55"/>
<path d="M9.10339 6.06888L0.394405 0.41568C0.162656 0.562398 0 0.808772 0 1.10343V1.14636L7.58333 6.06888H9.10339Z" fill="#FF4B55"/>
<path d="M15.5891 6.06905L23.8742 0.691001C23.7302 0.447345 23.4761 0.27597 23.1725 0.27597H22.9935L14.0691 6.06905H15.5891Z" fill="#FF4B55"/>
<path d="M8.38813 10.2068L0.118931 15.5746C0.261524 15.8242 0.519524 15.9999 0.827586 15.9999H0.983679L9.90819 10.2068H8.38813Z" fill="#FF4B55"/>
<path d="M23.9867 15.2375L16.2368 10.2069H14.7169L23.5174 15.9195C23.7812 15.7971 23.9619 15.5407 23.9867 15.2375Z" fill="#FF4B55"/>
<path d="M11.9999 10.6207C13.3711 10.6207 14.4827 9.5091 14.4827 8.1379C14.4827 6.7667 13.3711 5.65512 11.9999 5.65512C10.6287 5.65512 9.51712 6.7667 9.51712 8.1379C9.51712 9.5091 10.6287 10.6207 11.9999 10.6207Z" fill="#41479B"/>
<path d="M12.1676 6.12519L12.5824 7.36888L13.8934 7.379C14.0632 7.38031 14.1335 7.59697 13.997 7.69775L12.9423 8.47653L13.3377 9.7265C13.3889 9.88831 13.2047 10.0222 13.0666 9.92346L12 9.16119L10.9334 9.92346C10.7953 10.0222 10.6111 9.88831 10.6623 9.7265L11.0578 8.47653L10.0031 7.69775C9.86647 7.59688 9.93688 7.38031 10.1067 7.379L11.4177 7.36888L11.8325 6.12519C11.8861 5.96413 12.1139 5.96413 12.1676 6.12519Z" fill="#FFE15A"/>
<path d="M5.29695 7.13817L5.51998 7.80689L6.22488 7.81233C6.3161 7.81308 6.35397 7.92951 6.28057 7.9837L5.71357 8.40248L5.92619 9.07448C5.95376 9.16148 5.85457 9.23348 5.78041 9.18042L5.20704 8.77054L4.63367 9.18042C4.55942 9.23348 4.46042 9.16148 4.48789 9.07448L4.70051 8.40248L4.13351 7.9837C4.06011 7.92951 4.09789 7.81298 4.1892 7.81233L4.8941 7.80689L5.11713 7.13817C5.14573 7.05164 5.26807 7.05164 5.29695 7.13817Z" fill="#FFE15A"/>
<path d="M18.9454 7.13817L19.1685 7.80689L19.8734 7.81233C19.9646 7.81308 20.0025 7.92951 19.9291 7.9837L19.3621 8.40248L19.5747 9.07448C19.6022 9.16148 19.5031 9.23348 19.4289 9.18042L18.8555 8.77054L18.2822 9.18042C18.2079 9.23348 18.1089 9.16148 18.1364 9.07448L18.349 8.40248L17.782 7.9837C17.7086 7.92951 17.7464 7.81298 17.8377 7.81233L18.5426 7.80689L18.7656 7.13817C18.7942 7.05164 18.9166 7.05164 18.9454 7.13817Z" fill="#FFE15A"/>
<path d="M12.1009 2.11502L12.3239 2.78374L13.0288 2.78918C13.12 2.78993 13.1579 2.90636 13.0845 2.96055L12.5174 3.37924L12.73 4.05124C12.7576 4.13824 12.6584 4.21024 12.5842 4.15718L12.0109 3.7473L11.4375 4.15718C11.3632 4.21024 11.2642 4.13824 11.2917 4.05124L11.5043 3.37924L10.9373 2.96046C10.8639 2.90627 10.9017 2.78974 10.993 2.78908L11.6979 2.78365L11.921 2.11493C11.9496 2.02849 12.0721 2.02849 12.1009 2.11502Z" fill="#FFE15A"/>
<path d="M12.1009 12.2797L12.3239 12.9484L13.0288 12.9538C13.12 12.9546 13.1579 13.071 13.0845 13.1252L12.5174 13.5439L12.73 14.2159C12.7576 14.3029 12.6584 14.3749 12.5842 14.3218L12.0109 13.912L11.4375 14.3218C11.3632 14.3749 11.2642 14.3029 11.2917 14.2159L11.5043 13.5439L10.9373 13.1251C10.8639 13.0709 10.9017 12.9544 10.993 12.9538L11.6979 12.9483L11.921 12.2796C11.9496 12.1932 12.0721 12.1932 12.1009 12.2797Z" fill="#FFE15A"/>
</g>
<defs>
<clipPath id="clip0_11_3785">
<rect width="48" height="32" fill="white"/>
</clipPath>
</defs>
</svg>
