<svg width="48" height="32" viewBox="0 0 48 32" fill="none" xmlns="http://www.w3.org/2000/svg">
<g clip-path="url(#clip0_11_2716)">
<path d="M47.1723 31.7241H0.827623C0.370593 31.7241 0 31.3536 0 30.8965V1.10349C0 0.646456 0.370593 0.275864 0.827623 0.275864H47.1724C47.6294 0.275864 48 0.646456 48 1.10349V30.8965C47.9999 31.3536 47.6293 31.7241 47.1723 31.7241Z" fill="#41479B"/>
<path d="M23.1723 0.27597H21.7348L14.0688 5.29852V0.27597H9.93092V5.29852L2.265 0.27597H0.827623C0.370593 0.27597 0 0.646469 0 1.1035V1.75994L6.57702 6.06896H0V10.2069H6.57702L0 14.516V15.1724C0 15.6295 0.370593 16.0001 0.827623 16.0001H2.26518L9.93111 10.9775V16.0001H14.069V10.9775L21.7349 16.0001H23.1724C23.6295 16.0001 24 15.6295 24 15.1724V14.516L17.423 10.207H24V6.06905H17.4229L24 1.76003V1.10359C24 0.64647 23.6294 0.27597 23.1723 0.27597Z" fill="white"/>
<path d="M24 6.89668H13.2413V0.27597H10.7586V6.89668H0V9.37936H10.7586V16.0001H13.2413V9.37936H24V6.89668Z" fill="#FF4B55"/>
<path d="M9.10339 6.0691L0.394405 0.415894C0.162656 0.562518 0 0.808986 0 1.10355V1.14649L7.58333 6.0691H9.10339Z" fill="#FF4B55"/>
<path d="M15.5891 6.06905L23.8742 0.691001C23.7302 0.447345 23.4761 0.27597 23.1725 0.27597H22.9935L14.0691 6.06905H15.5891Z" fill="#FF4B55"/>
<path d="M8.38813 10.2069L0.118931 15.5747C0.261524 15.8243 0.519524 16 0.827586 16H0.983679L9.90829 10.2069H8.38813Z" fill="#FF4B55"/>
<path d="M23.9868 15.2374L16.2369 10.2069H14.7169L23.5175 15.9196C23.7812 15.7973 23.962 15.5408 23.9868 15.2374Z" fill="#FF4B55"/>
<path d="M37.0757 26.5106C37.0422 26.5106 37.0083 26.5 36.9796 26.4798L36.0001 25.7799L35.0205 26.4798C34.9918 26.5 34.9578 26.5106 34.9243 26.5106C34.89 26.5106 34.856 26.5 34.827 26.479C34.7696 26.437 34.7449 26.3626 34.7663 26.2948L35.1296 25.1471L34.1614 24.4327C34.1041 24.3899 34.0802 24.3164 34.1021 24.2485C34.1243 24.1806 34.1869 24.1345 34.2585 24.1337L35.4623 24.124L35.843 22.982C35.8657 22.915 35.9291 22.8689 36.0002 22.8689C36.0714 22.8689 36.1349 22.9149 36.1575 22.982L36.5382 24.124L37.742 24.1337C37.8136 24.1346 37.8762 24.1806 37.8984 24.2485C37.9202 24.3164 37.8963 24.3899 37.8391 24.4327L36.8709 25.1471L37.2342 26.2948C37.2556 26.3626 37.231 26.437 37.1735 26.479C37.1441 26.5 37.1098 26.5106 37.0757 26.5106Z" fill="#FF4B55"/>
<path d="M36 23.0344L36.4182 24.2886L37.7403 24.2988L36.6767 25.0842L37.0755 26.3447L36 25.576L34.9244 26.3448L35.3232 25.0844L34.2596 24.299L35.5817 24.2888L36 23.0344ZM36 22.7034C35.8576 22.7034 35.7311 22.7945 35.686 22.9297L35.3426 23.9595L34.2571 23.9679C34.1147 23.9689 33.9889 24.0611 33.9448 24.1967C33.9008 24.3322 33.9485 24.4806 34.063 24.5653L34.9361 25.2101L34.6088 26.245C34.5658 26.3808 34.6146 26.529 34.7298 26.6127C34.7878 26.6548 34.8561 26.6759 34.9244 26.6759C34.9918 26.6759 35.0593 26.6552 35.117 26.6141L36.0001 25.9829L36.8832 26.6141C36.9409 26.6552 37.0083 26.6759 37.0757 26.6759C37.144 26.6759 37.2123 26.6548 37.2703 26.6127C37.3856 26.5289 37.4343 26.3808 37.3914 26.245L37.064 25.2101L37.9372 24.5653C38.0518 24.4806 38.0994 24.3322 38.0553 24.1967C38.0112 24.0612 37.8855 23.9689 37.743 23.9679L36.6576 23.9595L36.3142 22.9297C36.269 22.7946 36.1424 22.7034 36 22.7034Z" fill="white"/>
<path d="M37.0757 13.1682C37.0418 13.1682 37.0083 13.1576 36.9796 13.1374L36.0001 12.4368L35.0205 13.1375C34.9918 13.1577 34.9578 13.1683 34.9243 13.1683C34.8903 13.1683 34.856 13.1577 34.827 13.1367C34.7696 13.0947 34.7449 13.0203 34.7663 12.9525L35.1296 11.8048L34.1614 11.0896C34.1041 11.0467 34.0802 10.9724 34.1021 10.9054C34.1243 10.8375 34.1873 10.7914 34.2585 10.7906L35.4623 10.7817L35.843 9.63973C35.8657 9.5727 35.9291 9.52657 36.0002 9.52657C36.0714 9.52657 36.1349 9.5726 36.1575 9.63973L36.5382 10.7817L37.742 10.7906C37.8132 10.7914 37.8762 10.8375 37.8984 10.9054C37.9202 10.9724 37.8963 11.0467 37.8391 11.0896L36.8709 11.8048L37.2342 12.9525C37.2556 13.0203 37.231 13.0947 37.1735 13.1367C37.1441 13.1577 37.1098 13.1682 37.0757 13.1682Z" fill="#FF4B55"/>
<path d="M36 9.69192L36.4182 10.9461L37.7403 10.9563L36.6767 11.7417L37.0755 13.0022L36 12.2334L34.9244 13.0022L35.3232 11.7417L34.2596 10.9563L35.5817 10.9461L36 9.69192ZM36 9.36089C35.8576 9.36089 35.7311 9.45201 35.686 9.5872L35.3426 10.6169L34.2571 10.6254C34.1147 10.6264 33.9889 10.7186 33.9448 10.8541C33.9008 10.9897 33.9485 11.1381 34.063 11.2228L34.9361 11.8676L34.6088 12.9025C34.5658 13.0383 34.6146 13.1864 34.7298 13.2702C34.7878 13.3123 34.8561 13.3333 34.9244 13.3333C34.9918 13.3333 35.0593 13.3127 35.117 13.2716L36.0001 12.6403L36.8832 13.2716C36.9409 13.3126 37.0083 13.3333 37.0757 13.3333C37.144 13.3333 37.2123 13.3123 37.2703 13.2702C37.3856 13.1863 37.4343 13.0383 37.3914 12.9025L37.064 11.8676L37.9372 11.2228C38.0518 11.1381 38.0994 10.9897 38.0553 10.8541C38.0112 10.7186 37.8855 10.6264 37.743 10.6254L36.6576 10.6169L36.3142 9.5872C36.269 9.45201 36.1424 9.36089 36 9.36089Z" fill="white"/>
<path d="M42.8689 17.306C42.8349 17.306 42.8015 17.2955 42.7727 17.2753L41.7933 16.5746L40.8137 17.2753C40.785 17.2955 40.7511 17.306 40.7175 17.306C40.6836 17.306 40.6492 17.2955 40.6202 17.2745C40.5628 17.2325 40.5382 17.1581 40.5595 17.0902L40.9228 15.9426L39.9547 15.2273C39.8973 15.1845 39.8735 15.1101 39.8953 15.0431C39.9175 14.9752 39.9805 14.9291 40.0517 14.9284L41.2555 14.9195L41.6362 13.7775C41.6589 13.7105 41.7223 13.6643 41.7935 13.6643C41.8646 13.6643 41.9281 13.7104 41.9507 13.7775L42.3314 14.9195L43.5353 14.9284C43.6064 14.9292 43.6694 14.9752 43.6916 15.0431C43.7135 15.1101 43.6896 15.1845 43.6323 15.2273L42.6641 15.9426L43.0274 17.0902C43.0488 17.1581 43.0242 17.2325 42.9668 17.2745C42.9372 17.2955 42.9029 17.306 42.8689 17.306Z" fill="#FF4B55"/>
<path d="M41.7931 13.8298L42.2113 15.084L43.5334 15.0942L42.4698 15.8795L42.8686 17.1401L41.793 16.3712L40.7174 17.1401L41.1163 15.8796L40.0527 15.0943L41.3747 15.0841L41.7931 13.8298ZM41.7931 13.4988C41.6507 13.4988 41.5242 13.5899 41.4791 13.7251L41.1357 14.7548L40.0502 14.7633C39.9078 14.7643 39.782 14.8564 39.7379 14.992C39.6939 15.1276 39.7416 15.276 39.8561 15.3606L40.7293 16.0054L40.4019 17.0403C40.3589 17.1762 40.4077 17.3243 40.5229 17.408C40.5809 17.4501 40.6492 17.4712 40.7175 17.4712C40.7849 17.4712 40.8524 17.4506 40.91 17.4094L41.7931 16.7782L42.6763 17.4094C42.7339 17.4505 42.8013 17.4712 42.8688 17.4712C42.9371 17.4712 43.0054 17.4501 43.0634 17.408C43.1787 17.3242 43.2274 17.1762 43.1845 17.0403L42.8571 16.0054L43.7303 15.3606C43.8449 15.276 43.8925 15.1276 43.8484 14.992C43.8043 14.8564 43.6786 14.7643 43.5361 14.7633L42.4507 14.7548L42.1073 13.7251C42.0621 13.5899 41.9356 13.4988 41.7931 13.4988Z" fill="white"/>
<path d="M31.2827 18.9613C31.2487 18.9613 31.2153 18.9507 31.1865 18.9305L30.2071 18.2298L29.2275 18.9305C29.1988 18.9507 29.1648 18.9613 29.1313 18.9613C29.0973 18.9613 29.063 18.9507 29.034 18.9297C28.9766 18.8877 28.9519 18.8133 28.9733 18.7455L29.3366 17.5978L28.3684 16.8826C28.3111 16.8397 28.2872 16.7654 28.3091 16.6984C28.3313 16.6305 28.3943 16.5844 28.4655 16.5836L29.6693 16.5747L30.05 15.4327C30.0727 15.3657 30.1361 15.3196 30.2072 15.3196C30.2784 15.3196 30.3419 15.3656 30.3645 15.4327L30.7452 16.5747L31.949 16.5836C32.0202 16.5844 32.0832 16.6305 32.1054 16.6984C32.1273 16.7654 32.1033 16.8397 32.0461 16.8826L31.0779 17.5978L31.4412 18.7455C31.4626 18.8133 31.438 18.8877 31.3805 18.9297C31.351 18.9508 31.3167 18.9613 31.2827 18.9613Z" fill="#FF4B55"/>
<path d="M30.2069 15.485L30.6251 16.7392L31.9472 16.7494L30.8836 17.5348L31.2824 18.7953L30.2068 18.0265L29.1312 18.7953L29.53 17.5348L28.4664 16.7494L29.7885 16.7392L30.2069 15.485ZM30.2069 15.154C30.0645 15.154 29.9379 15.2451 29.8928 15.3803L29.5494 16.4101L28.464 16.4185C28.3216 16.4195 28.1958 16.5117 28.1517 16.6473C28.1077 16.7828 28.1554 16.9312 28.2698 17.0159L29.143 17.6607L28.8157 18.6956C28.7727 18.8314 28.8215 18.9796 28.9367 19.0633C28.9947 19.1054 29.063 19.1265 29.1313 19.1265C29.1987 19.1265 29.2662 19.1058 29.3238 19.0647L30.2069 18.4335L31.09 19.0647C31.1477 19.1058 31.2151 19.1265 31.2825 19.1265C31.3507 19.1265 31.4191 19.1054 31.4771 19.0633C31.5923 18.9795 31.6411 18.8314 31.5981 18.6956L31.2708 17.6607L32.1439 17.0159C32.2586 16.9312 32.3061 16.7828 32.2621 16.6473C32.218 16.5117 32.0923 16.4195 31.9498 16.4185L30.8644 16.4101L30.521 15.3803C30.4759 15.2451 30.3493 15.154 30.2069 15.154Z" fill="white"/>
</g>
<defs>
<clipPath id="clip0_11_2716">
<rect width="48" height="32" fill="white"/>
</clipPath>
</defs>
</svg>
