<svg width="48" height="32" viewBox="0 0 48 32" fill="none" xmlns="http://www.w3.org/2000/svg">
<g clip-path="url(#clip0_11_4997)">
<path d="M47.9999 10.7583H0V1.10314C0 0.646105 0.370593 0.275513 0.827623 0.275513H47.1724C47.6294 0.275513 48 0.646105 48 1.10314L47.9999 10.7583Z" fill="white"/>
<path d="M47.1723 31.724H0.827623C0.370593 31.724 0 31.3534 0 30.8964V21.2413H47.9999V30.8964C47.9999 31.3535 47.6293 31.724 47.1723 31.724Z" fill="#73AF00"/>
<path d="M47.9999 10.7578H0V21.2399H47.9999V10.7578Z" fill="#FF4B55"/>
<path d="M12.4138 31.7238H0.827623C0.370593 31.7238 0 31.3532 0 30.8962V1.10314C0 0.646105 0.370593 0.275513 0.827623 0.275513H12.4138V31.7238Z" fill="#FF4B55"/>
<path d="M3.38014 7.13501C3.33383 7.14026 3.28911 7.14588 3.24551 7.1517V7.7411C3.28939 7.75226 3.33411 7.76332 3.38014 7.77419V7.13501Z" fill="white"/>
<path d="M5.41892 8.25858C5.29601 8.24874 5.1072 8.2298 4.88182 8.20233L3.46817 9.45961C3.65126 9.48755 3.87073 9.52467 3.96233 9.55383C4.32561 9.23602 4.81254 8.80299 5.41892 8.25858Z" fill="white"/>
<path d="M7.54623 6.25848V6.19661V6.13745H5.03824V6.19661V6.25848V6.31773H7.54623V6.25848Z" fill="white"/>
<path d="M5.68916 2.67191C5.68916 2.84854 5.95532 2.99769 6.27041 2.99769C6.58551 2.99769 6.85166 2.84854 6.85166 2.67191C6.85166 2.49529 6.58551 2.34613 6.27041 2.34613C5.95532 2.34613 5.68916 2.49538 5.68916 2.67191Z" fill="white"/>
<path d="M5.14561 7.05518C4.57946 7.05237 4.01443 7.07318 3.55252 7.11687V7.81269C4.09524 7.92913 4.72749 8.01838 5.14561 8.06281C5.14561 8.06272 5.14561 7.05518 5.14561 7.05518Z" fill="white"/>
<path d="M2.22911 10.4889C2.45289 10.4841 2.94442 10.3957 3.27724 10.1358C3.38036 10.0551 3.55652 9.90681 3.80411 9.69175C3.6362 9.65735 3.35449 9.61553 3.2043 9.59491L2.22911 10.4889Z" fill="white"/>
<path d="M5.46853 5.96534V5.64903C5.42615 5.58584 5.38237 5.52069 5.33765 5.45441L4.95262 5.73444C5.02931 5.86616 5.07843 5.94987 5.08753 5.96525L5.46853 5.96534Z" fill="white"/>
<path d="M2.50604 7.39365C2.50482 7.39881 2.50182 7.41081 2.52113 7.43565C2.59257 7.52725 2.79929 7.61471 3.07379 7.69431V7.17719C2.74426 7.23184 2.52845 7.30403 2.50604 7.39365Z" fill="white"/>
<path d="M6.91101 7.1468V6.49017H5.64088V8.09405H5.96385C6.48604 8.09405 6.91101 7.66899 6.91101 7.1468Z" fill="white"/>
<path d="M4.86974 4.76137C4.18968 3.75899 3.4634 2.70542 3.28612 2.49664C3.31152 2.58992 3.37284 2.76524 3.51609 3.09346C3.70087 3.51702 4.14937 4.3288 4.52071 4.98243L4.86974 4.76137Z" fill="white"/>
<path d="M4.60593 5.13261C4.70268 5.30192 4.79127 5.45586 4.86599 5.58486L5.24164 5.31167C5.1523 5.17901 5.06033 5.04298 4.96649 4.90442L4.60593 5.13261Z" fill="white"/>
<path d="M5.46896 8.09092V7.0593C5.4188 7.05827 5.36864 7.05724 5.31821 7.05658V8.07967C5.37624 8.08473 5.42677 8.08858 5.46896 8.09092Z" fill="white"/>
<path d="M6.91122 5.07959H5.64101V5.25987H6.91122V5.07959Z" fill="white"/>
<path d="M8.67638 5.95453V5.96531H8.74097C8.7886 5.96531 8.82703 6.00375 8.82703 6.05137V6.40397C8.82703 6.45159 8.7886 6.49003 8.74097 6.49003H8.67638V6.50081C8.67638 6.54816 8.715 6.58687 8.76244 6.58687H10.2156C10.263 6.58687 10.3016 6.54816 10.3016 6.50081V5.95453C10.3016 5.90719 10.263 5.86847 10.2156 5.86847H8.76253C8.715 5.86838 8.67638 5.907 8.67638 5.95453Z" fill="white"/>
<path d="M10.3022 10.4841L9.33235 9.59491C9.18217 9.61563 8.90054 9.65725 8.73254 9.69175C8.98464 9.91047 9.1607 10.0588 9.25942 10.1359C9.58707 10.3917 10.0686 10.4814 10.3022 10.4841Z" fill="white"/>
<path d="M8.31021 6.19661V6.25848V6.31773H8.65474V6.13745H8.31021V6.19661Z" fill="white"/>
<path d="M8.57381 9.55413C8.6654 9.52479 8.88515 9.48757 9.06862 9.45972L6.98606 7.60132C6.92962 7.72807 6.85087 7.84272 6.75394 7.93938L6.80878 7.98832C7.56319 8.66369 8.15297 9.18663 8.57381 9.55413Z" fill="white"/>
<path d="M3.90806 6.50081V6.49003H3.84337C3.79574 6.49003 3.75731 6.45159 3.75731 6.40397V6.05137C3.75731 6.00375 3.79574 5.96531 3.84337 5.96531H3.90796V5.95453C3.90796 5.90719 3.86934 5.86847 3.8219 5.86847H2.36878C2.32134 5.86847 2.28271 5.90719 2.28271 5.95453V6.50081C2.28271 6.54815 2.32134 6.58687 2.36878 6.58687H3.8219C3.86943 6.58687 3.90806 6.54825 3.90806 6.50081Z" fill="white"/>
<path d="M4.27368 6.25848V6.19661V6.13745H3.92915V6.31773H4.27368V6.25848Z" fill="white"/>
<path d="M7.58415 5.73444L7.19912 5.45441C7.15975 5.513 7.12122 5.57028 7.08344 5.62644V5.96525H7.44925C7.45834 5.94987 7.50746 5.86616 7.58415 5.73444Z" fill="white"/>
<path d="M5.7561 4.55258H6.79626L6.56732 4.29852H5.98504L5.7561 4.55258Z" fill="white"/>
<path d="M6.91122 4.73291H5.64101V4.90785H6.91122V4.73291Z" fill="white"/>
<path d="M6.27069 3.16972C6.18697 3.16972 6.1085 3.15894 6.03387 3.143V4.1164H6.51284V3.14197C6.43672 3.15866 6.35628 3.16972 6.27069 3.16972Z" fill="white"/>
<path d="M5.64088 5.61308H6.90557C6.90538 5.6023 6.90726 5.5918 6.91119 5.58139V5.4328H5.64088V5.61308Z" fill="white"/>
<path d="M7.2952 5.31167L7.67085 5.58486C7.74557 5.45595 7.83416 5.30192 7.93091 5.13261L7.57035 4.90442C7.47641 5.04298 7.38463 5.17901 7.2952 5.31167Z" fill="white"/>
<path d="M6.91122 5.78528H5.64101V5.96556H6.91122V5.78528Z" fill="white"/>
<path d="M8.01641 4.98316C8.38766 4.32973 8.83615 3.51776 9.02103 3.0942C9.16465 2.76523 9.22587 2.58983 9.25119 2.49683C9.07709 2.70111 8.34903 3.75711 7.66728 4.7621L8.01641 4.98316Z" fill="white"/>
<path d="M10.542 10.4706L9.41901 9.44075C9.40016 9.4235 9.37476 9.41496 9.34926 9.4189C9.33969 9.42012 9.31804 9.42312 9.28926 9.42706C9.28766 9.42547 9.2871 9.42331 9.28532 9.4219L7.04686 7.42438C7.06973 7.33541 7.08304 7.24269 7.08304 7.14678V6.49016H7.62604C7.69598 6.58119 7.80473 6.64091 7.92801 6.64091C8.05138 6.64091 8.16013 6.58119 8.22998 6.49016H8.50392V6.50094C8.50392 6.64335 8.61979 6.75922 8.7622 6.75922H10.2153C10.3577 6.75922 10.4736 6.64335 10.4736 6.50094V5.95466C10.4736 5.81226 10.3577 5.69638 10.2153 5.69638H8.76238C8.61998 5.69638 8.5041 5.81226 8.5041 5.95466V5.96544H8.23017C8.16023 5.87441 8.05148 5.81469 7.9282 5.81469C7.83464 5.81469 7.75007 5.84976 7.6836 5.90563C7.97385 5.40876 8.88576 3.83376 9.17863 3.16261C9.49279 2.44242 9.46748 2.34942 9.39323 2.2897C9.31485 2.22698 9.21566 2.29908 9.17826 2.32655C9.03416 2.43126 7.63701 4.49535 7.08314 5.3181V4.63879C7.08314 4.63691 7.0822 4.63523 7.08211 4.63345L7.08201 4.63326C7.08004 4.6041 7.06373 4.57982 7.03992 4.56585L6.68489 4.1721V3.08939C6.8902 3.00126 7.02398 2.84901 7.02398 2.67183C7.02398 2.39264 6.69295 2.17383 6.27042 2.17383C5.84789 2.17383 5.51686 2.39264 5.51686 2.67183C5.51686 2.85042 5.65308 3.00351 5.8613 3.09117V4.17829L5.51301 4.56463C5.48686 4.57945 5.46839 4.60645 5.46839 4.6386V5.34041C4.9253 4.53351 3.50349 2.43211 3.35827 2.32645C3.32067 2.29927 3.22139 2.22708 3.14321 2.28961C3.06886 2.34933 3.04355 2.44233 3.3578 3.16251C3.64139 3.81239 4.50511 5.30929 4.8232 5.85491C4.77239 5.82988 4.71605 5.8146 4.65577 5.8146C4.53239 5.8146 4.42364 5.87432 4.3538 5.96535H4.07995V5.95457C4.07995 5.81216 3.96408 5.69629 3.82167 5.69629H2.36836C2.22596 5.69629 2.11008 5.81216 2.11008 5.95457V6.50085C2.11008 6.64325 2.22596 6.75913 2.36836 6.75913H3.82149C3.96389 6.75913 4.07977 6.64325 4.07977 6.50085V6.49007H4.3537C4.42364 6.5811 4.53239 6.64082 4.65567 6.64082C4.77905 6.64082 4.8878 6.5811 4.95764 6.49007H5.46839V6.88663C4.67002 6.86957 2.45968 6.86694 2.33855 7.35191C2.3273 7.39681 2.32618 7.46647 2.38496 7.54166C2.61793 7.84006 3.79861 8.05784 4.65502 8.17297L3.25102 9.42171C3.24924 9.42331 3.24867 9.42547 3.24699 9.42706C3.21821 9.42303 3.19655 9.42012 3.18699 9.4189C3.16111 9.41515 3.13599 9.4235 3.11724 9.44075L1.99411 10.4706C1.96018 10.5015 1.95671 10.5538 1.98624 10.5892C2.02346 10.6339 2.11805 10.6558 2.24452 10.6558C2.55577 10.6558 3.0608 10.5231 3.38274 10.2717C3.64805 10.0646 4.38305 9.42012 5.56748 8.35644C5.61876 8.31041 5.6527 8.27984 5.6677 8.26644H5.96339C6.20911 8.26644 6.4357 8.186 6.62058 8.05128L6.69351 8.11644C8.0572 9.33706 8.88463 10.0621 9.15323 10.2717C9.47516 10.5234 9.98001 10.6558 10.2913 10.6558C10.4178 10.6558 10.5123 10.634 10.5496 10.5892C10.5795 10.5538 10.5759 10.5015 10.542 10.4706ZM5.6408 8.09403V6.49016H6.91101V7.14678C6.91101 7.66897 6.48604 8.09403 5.96376 8.09403H5.6408ZM3.07355 7.69438C2.79924 7.61469 2.59243 7.52731 2.52089 7.43572C2.50149 7.41078 2.50449 7.39888 2.5058 7.39372C2.52821 7.30409 2.74402 7.23191 3.07355 7.17735V7.69438ZM3.28589 2.49689C3.46308 2.70567 4.18945 3.75904 4.86952 4.7616L4.52039 4.98266C4.14914 4.32904 3.70064 3.51726 3.51577 3.0937C3.37261 2.76558 3.31121 2.59036 3.28589 2.49689ZM5.3377 5.45451C5.38233 5.52069 5.42601 5.58576 5.46858 5.64913V5.96544H5.08758C5.07848 5.95007 5.02936 5.86635 4.95267 5.73463L5.3377 5.45451ZM4.86577 5.58482C4.79105 5.45591 4.70245 5.30188 4.6057 5.13257L4.96627 4.90438C5.0602 5.04304 5.15208 5.17907 5.24142 5.31163L4.86577 5.58482ZM5.46858 7.05941V8.09103C5.42658 8.08869 5.37595 8.08484 5.31783 8.07978V7.05669C5.36817 7.05735 5.41833 7.05828 5.46858 7.05941ZM3.55252 7.11688C4.01452 7.07319 4.57945 7.05247 5.14561 7.05519V8.06281C4.72748 8.01847 4.09524 7.92913 3.55252 7.81269V7.11688ZM3.24567 7.15166C3.28927 7.14585 3.33389 7.14031 3.3803 7.13497V7.77406C3.33427 7.76328 3.28955 7.75222 3.24567 7.74097V7.15166ZM4.88189 8.20203C5.10727 8.22959 5.29608 8.24844 5.41898 8.25828C4.81261 8.80268 4.32567 9.23572 3.96258 9.55353C3.87089 9.52428 3.65152 9.48725 3.46842 9.45931L4.88189 8.20203ZM3.80395 9.69181C3.55636 9.90687 3.38021 10.0552 3.27708 10.1358C2.94427 10.3959 2.45283 10.4844 2.22896 10.489L3.20414 9.59487C3.35433 9.61568 3.63596 9.6574 3.80395 9.69181ZM5.03798 6.31794V6.25879V6.19691V6.13776H7.54607V6.19691V6.25879V6.31794H5.03798ZM6.85176 2.67183C6.85176 2.84845 6.58561 2.99761 6.27051 2.99761C5.95542 2.99761 5.68926 2.84845 5.68926 2.67183C5.68926 2.4952 5.95542 2.34605 6.27051 2.34605C6.58561 2.34605 6.85176 2.4953 6.85176 2.67183ZM5.6408 5.26035V5.08007H6.91101V5.26035H5.6408ZM6.91092 5.43257V5.58116C6.90698 5.59157 6.90511 5.60207 6.90529 5.61285H5.6408V5.43257H6.91092ZM5.6408 4.90776V4.73282H6.91101V4.90776H5.6408ZM6.56723 4.29857L6.79617 4.55254H5.75601L5.98495 4.29857H6.56723ZM6.0337 4.1166V3.1432C6.10833 3.15914 6.18679 3.16992 6.27051 3.16992C6.3562 3.16992 6.43654 3.15886 6.51267 3.14217V4.1166H6.0337ZM5.6408 5.78507H6.91101V5.96535H5.6408V5.78507ZM9.02076 3.0937C8.83598 3.51726 8.38748 4.32904 8.01613 4.98266L7.66701 4.7616C8.34876 3.75661 9.07682 2.70061 9.25091 2.49633C9.2256 2.58933 9.16429 2.76473 9.02076 3.0937ZM8.13801 6.19682V6.25869C8.13801 6.37447 8.04389 6.4686 7.9281 6.4686C7.81232 6.4686 7.7182 6.37447 7.7182 6.25869V6.19682C7.7182 6.08104 7.81232 5.98691 7.9281 5.98691C8.04389 5.98691 8.13801 6.08104 8.13801 6.19682ZM7.67076 5.58482L7.29511 5.31163C7.38445 5.17898 7.47632 5.04295 7.57026 4.90438L7.93082 5.13257C7.83407 5.30188 7.74539 5.45582 7.67076 5.58482ZM7.08314 5.62654C7.12092 5.57029 7.15936 5.5131 7.19882 5.45451L7.58385 5.73454C7.50717 5.86626 7.45804 5.94997 7.44895 5.96544H7.08314V5.62654ZM6.98601 7.60081L9.06857 9.45921C8.88529 9.48725 8.66535 9.52437 8.57376 9.55362C8.15282 9.18603 7.56314 8.66328 6.80864 7.98772L6.75379 7.93878C6.85082 7.84231 6.92957 7.72756 6.98601 7.60081ZM9.33238 9.59496L10.3022 10.4842C10.0685 10.4815 9.5871 10.3918 9.25945 10.136C9.16073 10.0588 8.98466 9.91043 8.73257 9.69181C8.90057 9.6574 9.1822 9.61568 9.33238 9.59496ZM10.3018 5.95466V6.50094C10.3018 6.54829 10.2631 6.587 10.2157 6.587H8.76238C8.71495 6.587 8.67632 6.54829 8.67632 6.50094V6.49016H8.74091C8.78854 6.49016 8.82698 6.45172 8.82698 6.4041V6.0515C8.82698 6.00388 8.78854 5.96544 8.74091 5.96544H8.67632V5.95466C8.67632 5.90732 8.71495 5.8686 8.76238 5.8686H10.2155C10.263 5.86851 10.3018 5.90713 10.3018 5.95466ZM8.65476 6.31794H8.31032V6.25879V6.19691V6.13776H8.65476V6.31794ZM2.28221 6.50094V5.95466C2.28221 5.90732 2.32083 5.8686 2.36827 5.8686H3.82139C3.86883 5.8686 3.90745 5.90732 3.90745 5.95466V5.96544H3.84305C3.79542 5.96544 3.75699 6.00388 3.75699 6.0515V6.4041C3.75699 6.45172 3.79542 6.49016 3.84305 6.49016H3.90764V6.50094C3.90764 6.54829 3.86902 6.587 3.82158 6.587H2.36846C2.32093 6.587 2.28221 6.54838 2.28221 6.50094ZM3.9292 6.13766H4.27364V6.19682V6.25869V6.31785H3.9292V6.13766ZM4.86577 6.25869C4.86577 6.37447 4.77164 6.4686 4.65586 6.4686C4.54008 6.4686 4.44595 6.37447 4.44595 6.25869V6.19682C4.44595 6.08104 4.54008 5.98691 4.65586 5.98691C4.77164 5.98691 4.86577 6.08104 4.86577 6.19682V6.25869Z" fill="#D23741"/>
</g>
<defs>
<clipPath id="clip0_11_4997">
<rect width="48" height="32" fill="white"/>
</clipPath>
</defs>
</svg>
