<svg width="48" height="32" viewBox="0 0 48 32" fill="none" xmlns="http://www.w3.org/2000/svg">
<g clip-path="url(#clip0_11_2545)">
<path d="M47.1723 31.7241H0.827623C0.370593 31.7241 0 31.3536 0 30.8965V1.10349C0 0.646456 0.370593 0.275864 0.827623 0.275864H47.1724C47.6294 0.275864 48 0.646456 48 1.10349V30.8965C47.9999 31.3536 47.6293 31.7241 47.1723 31.7241Z" fill="white"/>
<path d="M23.9999 16.0001H47.1723C47.6293 16.0001 47.9999 15.6295 47.9999 15.1724V1.10349C47.9999 0.646456 47.6293 0.275864 47.1723 0.275864H24.8276C24.3705 0.275864 23.9999 0.646456 23.9999 1.10349V16.0001Z" fill="#FF4B55"/>
<path d="M0.827623 31.7242H23.1724C23.6295 31.7242 24 31.3536 24 30.8966V16.0001H0.827623C0.370593 16.0001 0 16.3707 0 16.8277V30.8966C0 31.3537 0.370593 31.7242 0.827623 31.7242Z" fill="#4173CD"/>
<path d="M12.3188 4.60825L13.1078 6.97393L15.6015 6.99325C15.9244 6.99568 16.0583 7.40781 15.7985 7.59953L13.7924 9.08087L14.5446 11.4585C14.6419 11.7664 14.2915 12.021 14.0288 11.8333L12 10.3832L9.97119 11.8334C9.7085 12.0211 9.35806 11.7664 9.45538 11.4586L10.2075 9.08096L8.20147 7.59962C7.94169 7.40781 8.07556 6.99578 8.39844 6.99334L10.8922 6.97403L11.6812 4.60835C11.7834 4.30197 12.2167 4.30197 12.3188 4.60825Z" fill="#4173CD"/>
<path d="M36.3187 20.3323L37.1077 22.698L39.6015 22.7173C39.9243 22.7198 40.0582 23.1319 39.7984 23.3236L37.7924 24.805L38.5445 27.1826C38.6418 27.4905 38.2914 27.745 38.0287 27.5573L36 26.1073L33.9712 27.5574C33.7085 27.7452 33.358 27.4905 33.4553 27.1827L34.2075 24.805L32.2014 23.3237C31.9417 23.1319 32.0755 22.7199 32.3984 22.7174L34.8921 22.6981L35.6811 20.3324C35.7833 20.0261 36.2166 20.0261 36.3187 20.3323Z" fill="#FF4B55"/>
</g>
<defs>
<clipPath id="clip0_11_2545">
<rect width="48" height="32" fill="white"/>
</clipPath>
</defs>
</svg>
