<svg width="48" height="32" viewBox="0 0 48 32" fill="none" xmlns="http://www.w3.org/2000/svg">
<g clip-path="url(#clip0_11_3753)">
<path d="M0 23.4484H47.9999V30.8967C47.9999 31.3537 47.6293 31.7243 47.1723 31.7243H0.827623C0.370593 31.7243 0 31.3537 0 30.8967V23.4484Z" fill="#FF4B55"/>
<path d="M0.827623 0.27597H47.1724C47.6294 0.27597 48 0.646563 48 1.10359V8.55183H0V1.1035C0 0.646469 0.370593 0.27597 0.827623 0.27597Z" fill="#FF4B55"/>
<path d="M47.9999 8.5517H0V23.4485H47.9999V8.5517Z" fill="white"/>
<path d="M29.4558 13.8866L24.2024 16.0309C24.2003 16.0256 24.1978 16.0208 24.1954 16.0157L29.2689 13.4748C29.0683 13.0744 28.8246 12.6994 28.5419 12.3574L24.1678 15.9748C24.1635 15.9693 24.161 15.9624 24.156 15.9573L28.1657 11.9436C27.8796 11.6575 27.5634 11.4018 27.2237 11.1793L24.1193 15.9311C24.1123 15.9263 24.106 15.9208 24.0983 15.9169L26.6347 10.8403C26.2274 10.6362 25.7932 10.4783 25.3387 10.3727L24.0497 15.9007C24.0334 15.8968 24.0177 15.8907 24 15.8907C23.9823 15.8907 23.9668 15.8968 23.9503 15.9007L22.6614 10.3727C22.2068 10.4783 21.7726 10.6361 21.3653 10.8403L23.9017 15.9169C23.8941 15.9208 23.8877 15.9263 23.8807 15.9311L20.7763 11.1793C20.4365 11.4019 20.1204 11.6576 19.8343 11.9436L23.844 15.9573C23.8391 15.9624 23.8367 15.9692 23.8322 15.9748L19.4581 12.3574C19.1754 12.6993 18.9317 13.0744 18.7311 13.4748L23.8046 16.0157C23.8022 16.0209 23.7997 16.0257 23.7976 16.0309L18.5442 13.8866C18.3859 14.2749 18.2681 14.6839 18.1954 15.1086L23.7883 16.0769C23.7876 16.0818 23.7859 16.0862 23.7854 16.0912L18.14 15.5031C18.1196 15.7023 18.1091 15.9043 18.1091 16.109C18.1091 16.4628 18.1421 16.8087 18.2019 17.1451L23.9999 16.5453L29.798 17.1451C29.8579 16.8085 29.8908 16.4627 29.8908 16.109C29.8908 15.9043 29.8802 15.7023 29.8599 15.5031L24.2144 16.0912C24.214 16.0862 24.2123 16.0818 24.2115 16.0769L29.8043 15.1086C29.7319 14.684 29.614 14.275 29.4558 13.8866Z" fill="#FFB955"/>
<path d="M18.3065 17.6234C18.3469 17.7757 18.3936 17.9255 18.4456 18.0727H29.5544C29.6064 17.9255 29.6531 17.7757 29.6935 17.6234C29.1493 17.5531 29.0817 17.2001 28.4187 17.2001C27.6827 17.2001 27.6827 17.6364 26.9466 17.6364C26.2106 17.6364 26.2106 17.2001 25.4744 17.2001C24.7382 17.2001 24.7382 17.6364 24.0018 17.6364C23.266 17.6364 23.266 17.2001 22.53 17.2001C21.7934 17.2001 21.7934 17.6364 21.057 17.6364C20.3201 17.6364 20.3201 17.2001 19.583 17.2001C18.9192 17.2001 18.8517 17.5532 18.3065 17.6234Z" fill="#4173CD"/>
<path d="M28.245 18.7271C27.5364 18.727 27.5363 18.2908 26.8277 18.2908C26.1188 18.2908 26.1188 18.7271 25.41 18.7271C24.7012 18.7271 24.7012 18.2908 23.9923 18.2908C23.2833 18.2908 23.2833 18.7271 22.5744 18.7271C21.8657 18.7271 21.8657 18.2908 21.1571 18.2908C20.4479 18.2908 20.4479 18.7271 19.7387 18.7271C19.1095 18.7271 19.0371 18.3847 18.5344 18.3069C18.6544 18.605 18.7966 18.8918 18.9617 19.1635H28.2447H28.2453H29.038C29.2034 18.8912 29.346 18.6037 29.4662 18.3047C28.9484 18.3776 28.8808 18.7271 28.245 18.7271Z" fill="#4173CD"/>
<path d="M28.8087 19.5101C28.6715 19.4382 28.5091 19.382 28.2553 19.382C27.5464 19.382 27.5464 19.8183 26.8376 19.8183C26.1288 19.8183 26.1288 19.382 25.4199 19.382C24.7109 19.382 24.7109 19.8183 24.0019 19.8183C23.2933 19.8183 23.2933 19.382 22.5847 19.382C21.8755 19.382 21.8755 19.8183 21.1663 19.8183C20.4565 19.8183 20.4565 19.382 19.7469 19.382C19.4922 19.382 19.3293 19.4384 19.1919 19.5106C19.3797 19.7755 19.5877 20.0247 19.8156 20.2548H28.1848C28.4127 20.0245 28.6209 19.7752 28.8087 19.5101Z" fill="#4173CD"/>
<path d="M27.6301 20.7468C27.416 20.6227 27.2438 20.4727 26.8279 20.4727C26.119 20.4727 26.119 20.909 25.4102 20.909C24.7014 20.909 24.7014 20.4727 23.9925 20.4727C23.2835 20.4727 23.2835 20.909 22.5745 20.909C21.8659 20.909 21.8659 20.4727 21.1573 20.4727C20.747 20.4727 20.5737 20.6186 20.3634 20.7417C20.6555 20.9713 20.9695 21.1737 21.3023 21.3455H26.6977C27.028 21.1749 27.3399 20.9742 27.6301 20.7468Z" fill="#4173CD"/>
<path d="M22.5847 21.5639C22.3524 21.5639 22.1967 21.611 22.0667 21.674C22.6725 21.8843 23.3226 22.0002 24 22.0002H24.0012C23.2933 21.9999 23.2931 21.5639 22.5847 21.5639Z" fill="#4173CD"/>
<path d="M24.0051 22.0001C24.6817 21.9995 25.3308 21.8837 25.9357 21.6731C25.8062 21.6107 25.6508 21.5639 25.4198 21.5639C24.7118 21.5639 24.7105 21.9985 24.0051 22.0001Z" fill="#4173CD"/>
<path d="M24.7747 15.3631L22.908 14.8237C22.8033 14.7934 22.7307 14.6989 22.7293 14.5899C22.7207 13.8987 22.6907 11.4646 22.6907 11.0908C22.6907 10.6545 23.127 9.99997 23.9998 9.99997H24.6879C24.7531 9.99997 24.7728 10.0887 24.7129 10.1143C24.3977 10.2493 23.9999 10.5309 23.9999 11.0908C23.9999 11.7557 24.633 12.0407 24.9347 12.1388C25.0279 12.1691 25.0909 12.2547 25.0909 12.3527V15.1257C25.0907 15.2902 24.9329 15.4089 24.7747 15.3631Z" fill="#FF4B55"/>
<path d="M23.1281 17.8052C23.1965 17.7638 23.2777 17.833 23.2469 17.9069C23.0641 18.3455 22.6163 19.1638 21.8178 19.1638C20.727 19.1638 20.5087 18.291 20.5087 17.6365V13.0085C20.5087 12.9135 20.5858 12.8365 20.6807 12.8365H20.9911C21.0862 12.8365 21.1632 12.9135 21.1632 13.0085V17.4183C21.1635 18.0083 22.4039 18.2437 23.1281 17.8052Z" fill="#FF4B55"/>
<path d="M24.7798 17.8052C24.7113 17.7638 24.6301 17.833 24.661 17.9069C24.8437 18.3455 25.2916 19.1638 26.09 19.1638C27.1809 19.1638 27.3991 18.291 27.3991 17.6365V13.0085C27.3991 12.9135 27.3221 12.8365 27.2271 12.8365H26.9167C26.8216 12.8365 26.7447 12.9135 26.7447 13.0085V17.4183C26.7445 18.0083 25.5039 18.2437 24.7798 17.8052Z" fill="#FF4B55"/>
<path d="M26.2948 17.0907H21.7054C21.6473 17.0907 21.6002 17.0436 21.6002 16.9854V16.9778C21.6002 16.9197 21.6473 16.8726 21.7054 16.8726H26.2948C26.3529 16.8726 26.4001 16.9197 26.4001 16.9778V16.9854C26.4001 17.0437 26.3529 17.0907 26.2948 17.0907Z" fill="#AA4650"/>
<path d="M22.0638 16.2674L22.3 15.9524C22.3362 15.9043 22.3264 15.8357 22.2782 15.7996C22.2301 15.7636 22.1615 15.7736 22.1254 15.8215L22.0335 15.9441V15.8594C22.0335 15.7991 21.9846 15.7502 21.9243 15.7502C21.8641 15.7502 21.8152 15.7991 21.8152 15.8594V15.9362L21.7293 15.8215C21.6932 15.7734 21.6248 15.7634 21.5765 15.7996C21.5283 15.8357 21.5185 15.9042 21.5547 15.9524L21.7909 16.2674L21.5547 16.5824C21.5185 16.6305 21.5283 16.699 21.5765 16.7352C21.5961 16.7499 21.6191 16.7569 21.6418 16.7569C21.675 16.7569 21.7077 16.7418 21.7291 16.7132L21.9271 16.4491L22.1251 16.7132C22.1464 16.7418 22.1792 16.7569 22.2123 16.7569C22.2351 16.7569 22.2581 16.7499 22.2776 16.7352C22.3259 16.699 22.3356 16.6306 22.2994 16.5824L22.0638 16.2674Z" fill="#AA4650"/>
<path d="M24.0999 16.2674L24.3362 15.9524C24.3724 15.9043 24.3625 15.8357 24.3143 15.7996C24.2662 15.7636 24.1977 15.7736 24.1616 15.8215L24.0697 15.9441V15.8594C24.0697 15.7991 24.0208 15.7502 23.9605 15.7502C23.9002 15.7502 23.8514 15.7991 23.8514 15.8594V15.9362L23.7654 15.8215C23.7293 15.7734 23.661 15.7634 23.6127 15.7996C23.5644 15.8357 23.5547 15.9042 23.5909 15.9524L23.8271 16.2674L23.5909 16.5824C23.5547 16.6305 23.5645 16.699 23.6127 16.7352C23.6323 16.7499 23.6553 16.7569 23.678 16.7569C23.7112 16.7569 23.7439 16.7418 23.7652 16.7132L23.9632 16.4491L24.1612 16.7132C24.1826 16.7418 24.2153 16.7569 24.2485 16.7569C24.2713 16.7569 24.2943 16.7499 24.3138 16.7352C24.3621 16.699 24.3718 16.6306 24.3356 16.5824L24.0999 16.2674Z" fill="#AA4650"/>
<path d="M23.0821 16.2674L23.3184 15.9524C23.3546 15.9043 23.3447 15.8357 23.2965 15.7996C23.2484 15.7636 23.1799 15.7736 23.1438 15.8215L23.0518 15.9441V15.8594C23.0518 15.7991 23.003 15.7502 22.9427 15.7502C22.8824 15.7502 22.8336 15.7991 22.8336 15.8594V15.9362L22.7476 15.8215C22.7115 15.7734 22.6432 15.7634 22.5949 15.7996C22.5466 15.8357 22.5369 15.9042 22.5731 15.9524L22.8093 16.2674L22.5731 16.5824C22.5369 16.6305 22.5467 16.699 22.5949 16.7352C22.6145 16.7499 22.6375 16.7569 22.6602 16.7569C22.6933 16.7569 22.7261 16.7418 22.7474 16.7132L22.9454 16.4491L23.1434 16.7132C23.1648 16.7418 23.1975 16.7569 23.2307 16.7569C23.2535 16.7569 23.2765 16.7499 23.296 16.7352C23.3443 16.699 23.354 16.6306 23.3178 16.5824L23.0821 16.2674Z" fill="#AA4650"/>
<path d="M25.1183 16.2674L25.3545 15.9524C25.3907 15.9043 25.3809 15.8357 25.3327 15.7996C25.2846 15.7636 25.2161 15.7736 25.18 15.8215L25.088 15.9441V15.8594C25.088 15.7991 25.0392 15.7502 24.9789 15.7502C24.9186 15.7502 24.8698 15.7991 24.8698 15.8594V15.9362L24.7838 15.8215C24.7477 15.7734 24.6794 15.7634 24.6311 15.7996C24.5828 15.8357 24.5731 15.9042 24.6092 15.9524L24.8455 16.2674L24.6092 16.5824C24.5731 16.6305 24.5829 16.699 24.6311 16.7352C24.6507 16.7499 24.6736 16.7569 24.6963 16.7569C24.7295 16.7569 24.7622 16.7418 24.7836 16.7132L24.9816 16.4491L25.1796 16.7132C25.201 16.7418 25.2337 16.7569 25.2669 16.7569C25.2897 16.7569 25.3126 16.7499 25.3321 16.7352C25.3804 16.699 25.3902 16.6306 25.354 16.5824L25.1183 16.2674Z" fill="#AA4650"/>
<path d="M26.1365 16.2674L26.3728 15.9524C26.409 15.9043 26.3991 15.8357 26.3509 15.7996C26.3028 15.7636 26.2343 15.7736 26.1982 15.8215L26.1062 15.9441V15.8594C26.1062 15.7991 26.0574 15.7502 25.9971 15.7502C25.9368 15.7502 25.888 15.7991 25.888 15.8594V15.9362L25.802 15.8215C25.7659 15.7734 25.6976 15.7634 25.6493 15.7996C25.601 15.8357 25.5913 15.9042 25.6275 15.9524L25.8637 16.2674L25.6275 16.5824C25.5913 16.6305 25.6011 16.699 25.6493 16.7352C25.6689 16.7499 25.6919 16.7569 25.7146 16.7569C25.7478 16.7569 25.7805 16.7418 25.8018 16.7132L25.9998 16.4491L26.1978 16.7132C26.2192 16.7418 26.2519 16.7569 26.2851 16.7569C26.3079 16.7569 26.3309 16.7499 26.3504 16.7352C26.3986 16.699 26.4084 16.6306 26.3722 16.5824L26.1365 16.2674Z" fill="#AA4650"/>
<path d="M21.8623 17.7647C22.0236 17.8353 22.9715 17.8454 23.2135 17.5933C23.4555 17.3412 23.4051 17.2303 23.4051 17.2303L22.2554 17.2403L21.8623 17.7647Z" fill="#AA4650"/>
<path d="M26.0917 17.7647C25.9304 17.8353 24.9825 17.8454 24.7405 17.5933C24.4985 17.3412 24.5489 17.2303 24.5489 17.2303L25.6986 17.2403L26.0917 17.7647Z" fill="#AA4650"/>
</g>
<defs>
<clipPath id="clip0_11_3753">
<rect width="48" height="32" fill="white"/>
</clipPath>
</defs>
</svg>
