<svg width="48" height="32" viewBox="0 0 48 32" fill="none" xmlns="http://www.w3.org/2000/svg">
<g clip-path="url(#clip0_11_3601)">
<path d="M47.1723 31.7243H0.827623C0.370593 31.7243 0 31.3537 0 30.8966V1.10359C0 0.646563 0.370593 0.27597 0.827623 0.27597H47.1724C47.6294 0.27597 48 0.646563 48 1.10359V30.8966C47.9999 31.3538 47.6293 31.7243 47.1723 31.7243Z" fill="#FF4B55"/>
<path d="M0.305249 0.47612C0.122906 0.627901 0 0.847837 0 1.10359V30.8966C0 31.3537 0.370593 31.7242 0.827623 31.7242H47.1724C47.3736 31.7242 47.5512 31.6436 47.6947 31.5242L0.305249 0.47612Z" fill="#464655"/>
<path d="M4.82793 15.4645L4.35431 16.8846L2.85731 16.8962C2.71368 16.8973 2.65425 17.0805 2.76965 17.1658L3.97387 18.055L3.52228 19.4823C3.47896 19.6192 3.63487 19.7324 3.75159 19.649L4.96949 18.7784L6.1874 19.649C6.30421 19.7325 6.46002 19.6192 6.41671 19.4823L5.96512 18.055L7.16933 17.1658C7.28474 17.0806 7.2253 16.8974 7.08168 16.8962L5.58468 16.8846L5.11105 15.4645C5.06596 15.3283 4.87331 15.3283 4.82793 15.4645Z" fill="white"/>
<path d="M15.0261 15.4645L14.5525 16.8846L13.0555 16.8962C12.9119 16.8973 12.8524 17.0805 12.9678 17.1658L14.1721 18.055L13.7205 19.4823C13.6772 19.6192 13.8331 19.7324 13.9498 19.649L15.1677 18.7784L16.3856 19.649C16.5024 19.7325 16.6582 19.6192 16.6149 19.4823L16.1633 18.055L17.3675 17.1658C17.4829 17.0806 17.4235 16.8974 17.2799 16.8962L15.7829 16.8846L15.3093 15.4645C15.2643 15.3283 15.0716 15.3283 15.0261 15.4645Z" fill="white"/>
<path d="M9.92698 9.28302L9.45336 10.7031L7.95635 10.7148C7.81273 10.7159 7.75329 10.8991 7.8687 10.9844L9.07292 11.8736L8.62132 13.3009C8.57801 13.4377 8.73392 13.551 8.85064 13.4675L10.0685 12.597L11.2865 13.4675C11.4033 13.551 11.5591 13.4377 11.5158 13.3009L11.0642 11.8736L12.2684 10.9844C12.3838 10.8992 12.3244 10.716 12.1807 10.7148L10.6837 10.7031L10.2101 9.28302C10.165 9.14689 9.97245 9.14689 9.92698 9.28302Z" fill="white"/>
<path d="M9.92698 24.4844L9.45336 25.9045L7.95635 25.9162C7.81273 25.9173 7.75329 26.1005 7.8687 26.1858L9.07292 27.075L8.62132 28.5023C8.57801 28.6391 8.73392 28.7524 8.85064 28.6689L10.0685 27.7984L11.2865 28.6689C11.4033 28.7525 11.5591 28.6391 11.5158 28.5023L11.0642 27.075L12.2684 26.1858C12.3838 26.1006 12.3244 25.9174 12.1807 25.9162L10.6837 25.9045L10.2101 24.4844C10.165 24.3483 9.97245 24.3483 9.92698 24.4844Z" fill="white"/>
<path d="M12.3027 20.7806L12.0508 21.5357L11.2548 21.5419C11.1785 21.5426 11.1468 21.6399 11.2082 21.6853L11.8485 22.1581L11.6084 22.9171C11.5853 22.99 11.6682 23.0502 11.7304 23.0057L12.3781 22.5428L13.0258 23.0057C13.0879 23.0501 13.1707 22.9899 13.1478 22.9171L12.9077 22.1581L13.548 21.6853C13.6094 21.64 13.5778 21.5425 13.5014 21.5419L12.7054 21.5357L12.4535 20.7806C12.4293 20.7082 12.3268 20.7082 12.3027 20.7806Z" fill="white"/>
<path d="M41.0217 15.2825C40.9006 14.3446 40.4999 13.4178 40.2088 12.8454C40.3525 12.9173 40.576 13.0468 40.576 13.0468L40.3788 12.3317C40.8719 12.5289 41.2418 12.9112 41.2418 12.9112C40.9952 11.6782 40.613 11.0989 40.613 11.0989L40.9212 11.2099C40.3416 9.77963 39.4786 9.37275 39.4786 9.37275L39.9717 9.24947C39.2443 8.3371 38.2209 8.02885 38.2209 8.02885L38.8867 7.70823C37.1236 6.70951 35.4221 7.75754 35.4221 7.75754C35.4221 7.75754 36.014 7.14113 36.2359 6.8822C36.4578 6.62326 35.9276 6.53701 35.9276 6.53701C35.9276 6.53701 36.4455 6.17945 36.4207 5.96982C36.396 5.76011 35.9276 5.8712 35.9276 5.8712C35.9276 5.8712 36.3345 5.45204 36.3345 5.21776C36.3345 4.98348 35.9153 5.13151 35.9153 5.13151C35.9153 5.13151 36.051 4.84792 36.088 4.62592C36.1251 4.40401 35.7181 4.58889 35.7181 4.58889C35.7181 4.58889 36.1743 3.77514 36.1497 3.60255C36.1251 3.42986 34.9537 4.15736 34.1153 4.95883C33.2769 5.76039 33.3775 7.04813 33.4518 7.3546C33.526 7.66107 33.5725 8.37582 33.2011 8.62641C32.8297 8.8771 32.1671 8.26322 31.8383 7.88513C31.5096 7.50704 31.0986 7.63848 30.6712 7.78651C30.2438 7.93445 29.4382 7.73719 29.1916 7.70429C28.9449 7.67138 29.471 7.95094 29.9149 8.11529C30.3588 8.27963 30.556 8.67422 31.1808 8.90438C31.7279 9.10604 32.1661 9.61782 31.7356 9.85369C31.4002 10.0375 31.4027 9.74269 29.9232 9.36057C28.4437 8.97844 26.6682 12.7388 26.6682 12.7388C27.6187 12.6213 28.1045 12.0519 28.1045 12.0519L27.8477 12.7885C28.5501 12.6555 28.8936 12.2284 28.8936 12.2284L28.7079 12.9712C29.2463 12.804 29.6177 12.2284 29.6177 12.2284L29.4598 12.9618C29.9889 12.7111 30.2676 12.2284 30.2676 12.2284C30.3233 12.4976 30.3671 13.0471 30.3671 13.0471C31.1867 12.609 31.3781 11.9868 31.3781 11.9868C32.3152 14.8226 33.6714 15.2911 33.6714 15.2911L33.7454 14.5513C34.1646 15.1431 34.7564 15.439 34.7564 15.439L34.6578 14.7979C36.1127 16.5733 37.7895 17.0172 37.7895 17.0172L37.3601 16.0345L37.8881 16.1417C37.3209 15.6608 37.1113 14.8224 37.1113 14.8224L37.5552 14.8964C36.8401 14.243 36.4825 13.4908 36.4825 13.4908L36.9141 13.5648C36.7785 13.3552 36.6675 12.6155 36.6675 12.6155C37.4566 12.8621 37.8635 13.1703 37.8635 13.1703L37.9102 12.9017C38.5872 13.3895 39.6989 14.2975 40.4693 15.4391C40.4704 15.8115 40.4102 16.1875 40.2555 16.565C39.5488 18.2886 37.6909 18.176 36.8689 17.8143C36.8689 17.8143 39.417 19.8035 40.8144 16.9759C40.903 16.7968 40.9584 16.605 40.9981 16.4083C41.1724 16.824 41.2928 17.2575 41.3159 17.7074C41.4638 20.5925 38.4555 20.3213 38.4555 20.3213C38.4555 20.3213 41.7844 21.6529 41.9325 17.8061C41.9651 16.9507 41.603 16.0956 41.0217 15.2825ZM37.997 12.4026L38.0115 12.3193C38.5171 12.4672 39.0472 12.8249 39.0472 12.8249L39.1643 12.4735C39.6645 13.0746 40.064 13.7213 40.2863 14.3909C39.6111 13.6655 38.802 12.9918 37.997 12.4026Z" fill="#FFE15A"/>
</g>
<defs>
<clipPath id="clip0_11_3601">
<rect width="48" height="32" fill="white"/>
</clipPath>
</defs>
</svg>
