<svg width="48" height="32" viewBox="0 0 48 32" fill="none" xmlns="http://www.w3.org/2000/svg">
<g clip-path="url(#clip0_11_3904)">
<path d="M0.30525 31.5239L24 15.9999L0.30525 0.4758C0.122906 0.627581 0 0.847518 0 1.10327V30.8964C0 31.1522 0.122906 31.3721 0.30525 31.5239Z" fill="white"/>
<path d="M0.305378 31.5241C0.448815 31.6435 0.626472 31.7241 0.827659 31.7241H47.1725C47.6295 31.7241 48.0001 31.3535 48.0001 30.8965V16H24.0001L0.305378 31.5241Z" fill="#FF4B55"/>
<path d="M0.305378 0.476064C0.448815 0.356626 0.626472 0.276001 0.827659 0.276001H47.1725C47.6295 0.276001 48.0001 0.646594 48.0001 1.10363V16.0001H24.0001L0.305378 0.476064Z" fill="#41479B"/>
<path d="M8.68969 18.6896C10.1752 18.6896 11.3794 17.4854 11.3794 15.9999C11.3794 14.5145 10.1752 13.3102 8.68969 13.3102C7.20421 13.3102 6 14.5145 6 15.9999C6 17.4854 7.20421 18.6896 8.68969 18.6896Z" fill="#FFE15A"/>
<path d="M8.69 15.9999L7.68134 11.9655L8.69 10.6206L9.69856 11.9655L8.69 15.9999Z" fill="#FFE15A"/>
<path d="M8.69 16L9.69856 20.0344L8.69 21.3793L7.68134 20.0344L8.69 16Z" fill="#FFE15A"/>
<path d="M8.68963 16.0002L4.6551 17.0089L3.31026 16.0002L4.6551 14.9916L8.68963 16.0002Z" fill="#FFE15A"/>
<path d="M8.68975 16.0002L12.7242 14.9916L14.069 16.0002L12.7242 17.0089L8.68975 16.0002Z" fill="#FFE15A"/>
<path d="M8.68975 16.0002L10.8293 12.4342L12.4935 12.1964L12.2557 13.8605L8.68975 16.0002Z" fill="#FFE15A"/>
<path d="M8.68994 16L6.55028 19.566L4.88613 19.8038L5.12397 18.1397L8.68994 16Z" fill="#FFE15A"/>
<path d="M8.68994 16.0002L5.12397 13.8605L4.88613 12.1964L6.55028 12.4342L8.68994 16.0002Z" fill="#FFE15A"/>
<path d="M8.68975 16L12.2557 18.1397L12.4935 19.8038L10.8293 19.566L8.68975 16Z" fill="#FFE15A"/>
<path d="M2.21785 4.34642L2.3581 5.39267L1.41347 5.86405C1.29122 5.92508 1.31691 6.10667 1.45144 6.13123L2.48982 6.32117L2.64619 7.36517C2.66644 7.50036 2.8471 7.53195 2.91207 7.41158L3.41363 6.4827L4.45482 6.65651C4.58963 6.67911 4.6755 6.51692 4.58119 6.41811L3.85275 5.65405L4.33979 4.71748C4.40288 4.59627 4.27519 4.46445 4.152 4.52361L3.20025 4.98036L2.4601 4.22764C2.36447 4.13033 2.19975 4.21105 2.21785 4.34642Z" fill="#FFE15A"/>
<path d="M2.63466 24.7099L2.45747 25.7506L1.41553 25.9198C1.28062 25.9417 1.25128 26.1228 1.37231 26.1861L2.30728 26.6762L2.14631 27.7194C2.1255 27.8545 2.28853 27.9383 2.38631 27.8428L3.14128 27.105L4.08384 27.5806C4.20591 27.6422 4.33603 27.5129 4.27547 27.3905L3.80709 26.4444L4.55053 25.6951C4.64672 25.5981 4.56422 25.4344 4.42884 25.4541L3.38428 25.6072L2.90128 24.6685C2.83875 24.5471 2.65744 24.5751 2.63466 24.7099Z" fill="#FFE15A"/>
<path d="M19.0062 14.4585L18.3986 15.3218L17.3852 15.0265C17.2541 14.9882 17.1496 15.1391 17.2316 15.2484L17.8648 16.093L17.2707 16.9656C17.1939 17.0786 17.305 17.2244 17.4343 17.1803L18.4332 16.839L19.0795 17.6737C19.1633 17.7818 19.3363 17.721 19.3343 17.5844L19.3183 16.529L20.3119 16.1722C20.4405 16.126 20.4363 15.9426 20.3057 15.9024L19.2969 15.5913L19.2646 14.5362C19.2607 14.3994 19.0849 14.3467 19.0062 14.4585Z" fill="#FFE15A"/>
</g>
<defs>
<clipPath id="clip0_11_3904">
<rect width="48" height="32" fill="white"/>
</clipPath>
</defs>
</svg>
