<svg width="48" height="32" viewBox="0 0 48 32" fill="none" xmlns="http://www.w3.org/2000/svg">
<g clip-path="url(#clip0_11_2459)">
<path d="M47.1722 31.7242H12.4137V0.27597H47.1723C47.6294 0.27597 47.9999 0.646564 47.9999 1.10359V30.8966C47.9998 31.3537 47.6293 31.7242 47.1722 31.7242Z" fill="#73AF00"/>
<path d="M12.4138 31.7241H0.827623C0.370593 31.7241 0 31.3535 0 30.8965V1.10347C0 0.646441 0.370593 0.275848 0.827623 0.275848H12.4138V31.7241Z" fill="white"/>
<path d="M38.63 20.3301C34.8208 23.7235 28.9895 23.3749 25.603 19.5589C22.2229 15.7499 22.565 9.9017 26.3741 6.50852C26.3798 6.50355 26.3852 6.49868 26.3908 6.4938C26.4808 6.41468 26.3938 6.27096 26.2821 6.31446C22.5255 7.77733 19.8622 11.4312 19.8622 15.7095C19.8622 21.2824 24.3688 25.7958 29.9284 25.7958C33.7743 25.7958 37.1072 23.6317 38.8002 20.4549C38.8566 20.3489 38.7243 20.2458 38.6346 20.3258C38.6332 20.3272 38.6315 20.3287 38.63 20.3301Z" fill="white"/>
<path d="M33.73 8.18029L35.0537 9.66538L36.8875 8.89363C37.1248 8.79369 37.3528 9.05347 37.2229 9.27585L36.2195 10.9938L37.5201 12.4992C37.6885 12.6941 37.5118 12.9912 37.2602 12.9364L35.3163 12.513L34.2864 14.2151C34.1531 14.4355 33.8159 14.3593 33.7902 14.103L33.5922 12.1234L31.6552 11.6698C31.4044 11.6111 31.3726 11.267 31.6085 11.1634L33.4301 10.3634L33.2628 8.3811C33.2412 8.12451 33.5587 7.9881 33.73 8.18029Z" fill="white"/>
</g>
<defs>
<clipPath id="clip0_11_2459">
<rect width="48" height="32" fill="white"/>
</clipPath>
</defs>
</svg>
