<svg width="48" height="32" viewBox="0 0 48 32" fill="none" xmlns="http://www.w3.org/2000/svg">
<g clip-path="url(#clip0_11_1118)">
<path d="M47.9999 6.56577H0V1.10362C0 0.646594 0.370593 0.276001 0.827623 0.276001H47.1724C47.6294 0.276001 48 0.646594 48 1.10362L47.9999 6.56577Z" fill="#FF4B55"/>
<path d="M47.9999 6.56592H0V12.8556H47.9999V6.56592Z" fill="white"/>
<path d="M47.9999 12.8557H0V19.1454H47.9999V12.8557Z" fill="#FF4B55"/>
<path d="M47.1723 31.7241H0.827623C0.370593 31.7241 0 31.3535 0 30.8965V25.4344H47.9999V30.8965C47.9999 31.3536 47.6293 31.7241 47.1723 31.7241Z" fill="#FF4B55"/>
<path d="M47.9999 19.1453H0V25.435H47.9999V19.1453Z" fill="white"/>
<path d="M0.305249 31.5242L23.2122 16.5162C23.584 16.2725 23.584 15.7275 23.2122 15.4841L0.305249 0.476135C0.122906 0.627916 0 0.847853 0 1.1036V30.8966C0 31.1525 0.122906 31.3724 0.305249 31.5242Z" fill="#41479B"/>
<path d="M8.45465 12.1587L9.31837 14.7484L12.0482 14.7696C12.4015 14.7723 12.5481 15.2233 12.2639 15.4333L10.0679 17.055L10.8913 19.6578C10.998 19.9947 10.6143 20.2735 10.3267 20.0679L8.10572 18.4806L5.88478 20.0679C5.59735 20.2735 5.21363 19.9947 5.32013 19.6578L6.14353 17.055L3.94754 15.4333C3.66329 15.2233 3.80973 14.7724 4.16326 14.7696L6.89306 14.7484L7.75678 12.1587C7.86862 11.8234 8.34281 11.8234 8.45465 12.1587Z" fill="white"/>
</g>
<defs>
<clipPath id="clip0_11_1118">
<rect width="48" height="32" fill="white"/>
</clipPath>
</defs>
</svg>
