<svg width="48" height="32" viewBox="0 0 48 32" fill="none" xmlns="http://www.w3.org/2000/svg">
<g clip-path="url(#clip0_11_4426)">
<path d="M47.1723 31.7243H0.827623C0.370593 31.7243 0 31.3537 0 30.8967V1.10362C0 0.646594 0.370593 0.276001 0.827623 0.276001H47.1724C47.6294 0.276001 48 0.646594 48 1.10362V30.8967C47.9999 31.3538 47.6293 31.7243 47.1723 31.7243Z" fill="#FF4B55"/>
<path d="M17.3792 0.276062H0.827623C0.370593 0.276062 0 0.646561 0 1.10359V30.8966C0 31.3537 0.370593 31.7243 0.827623 31.7243H17.3793V0.276062H17.3792Z" fill="#73AF00"/>
<path d="M17.3861 23.4418C21.4961 23.4418 24.8279 20.11 24.8279 16C24.8279 11.8899 21.4961 8.55811 17.3861 8.55811C13.276 8.55811 9.9442 11.8899 9.9442 16C9.9442 20.11 13.276 23.4418 17.3861 23.4418Z" fill="#FFE15A"/>
<path d="M19.8685 13.5175V16.8278C19.8685 18.1968 18.7548 19.3105 17.3858 19.3105C16.0167 19.3105 14.903 18.1968 14.903 16.8278V13.5175H19.8685ZM20.6961 11.8623H14.0754C13.6183 11.8623 13.2477 12.2329 13.2477 12.6899V16.8279C13.2477 19.1131 15.1004 20.9658 17.3857 20.9658C19.6709 20.9658 21.5236 19.1131 21.5236 16.8279V12.6899C21.5237 12.2329 21.1531 11.8623 20.6961 11.8623Z" fill="#FF4B55"/>
<path d="M19.8688 13.5172V16.8275C19.8688 18.1965 18.755 19.3103 17.386 19.3103C16.0169 19.3103 14.9032 18.1965 14.9032 16.8275V13.5172H19.8688Z" fill="white"/>
<path d="M14.0688 13.1037C14.2974 13.1037 14.4826 12.9184 14.4826 12.6899C14.4826 12.4613 14.2974 12.2761 14.0688 12.2761C13.8403 12.2761 13.655 12.4613 13.655 12.6899C13.655 12.9184 13.8403 13.1037 14.0688 13.1037Z" fill="#FFE15A"/>
<path d="M20.6893 13.1037C20.9179 13.1037 21.1031 12.9184 21.1031 12.6899C21.1031 12.4613 20.9179 12.2761 20.6893 12.2761C20.4608 12.2761 20.2755 12.4613 20.2755 12.6899C20.2755 12.9184 20.4608 13.1037 20.6893 13.1037Z" fill="#FFE15A"/>
<path d="M14.0688 16.4139C14.2974 16.4139 14.4826 16.2287 14.4826 16.0001C14.4826 15.7716 14.2974 15.5863 14.0688 15.5863C13.8403 15.5863 13.655 15.7716 13.655 16.0001C13.655 16.2287 13.8403 16.4139 14.0688 16.4139Z" fill="#FFE15A"/>
<path d="M20.6893 16.4139C20.9179 16.4139 21.1031 16.2287 21.1031 16.0001C21.1031 15.7716 20.9179 15.5863 20.6893 15.5863C20.4608 15.5863 20.2755 15.7716 20.2755 16.0001C20.2755 16.2287 20.4608 16.4139 20.6893 16.4139Z" fill="#FFE15A"/>
<path d="M17.3791 13.1037C17.6076 13.1037 17.7929 12.9184 17.7929 12.6899C17.7929 12.4613 17.6076 12.2761 17.3791 12.2761C17.1505 12.2761 16.9653 12.4613 16.9653 12.6899C16.9653 12.9184 17.1505 13.1037 17.3791 13.1037Z" fill="#FFE15A"/>
<path d="M19.8634 19.4657C20.092 19.4657 20.2772 19.2804 20.2772 19.0519C20.2772 18.8233 20.092 18.6381 19.8634 18.6381C19.6349 18.6381 19.4496 18.8233 19.4496 19.0519C19.4496 19.2804 19.6349 19.4657 19.8634 19.4657Z" fill="#FFE15A"/>
<path d="M14.9434 19.4657C15.172 19.4657 15.3572 19.2804 15.3572 19.0519C15.3572 18.8233 15.172 18.6381 14.9434 18.6381C14.7149 18.6381 14.5296 18.8233 14.5296 19.0519C14.5296 19.2804 14.7149 19.4657 14.9434 19.4657Z" fill="#FFE15A"/>
<path d="M17.9201 15.79V16.5027C17.9201 16.7975 17.6803 17.0373 17.3855 17.0373C17.0908 17.0373 16.851 16.7975 16.851 16.5027V15.79H17.9201Z" fill="#41479B"/>
<path d="M17.9201 14.1005V14.8132C17.9201 15.1079 17.6803 15.3477 17.3855 15.3477C17.0908 15.3477 16.851 15.1079 16.851 14.8132V14.1005H17.9201Z" fill="#41479B"/>
<path d="M17.9201 17.4969V18.2096C17.9201 18.5044 17.6803 18.7442 17.3855 18.7442C17.0908 18.7442 16.851 18.5044 16.851 18.2096V17.4969H17.9201Z" fill="#41479B"/>
<path d="M19.3599 15.79V16.5027C19.3599 16.7975 19.1201 17.0373 18.8253 17.0373C18.5306 17.0373 18.2907 16.7975 18.2907 16.5027V15.79H19.3599Z" fill="#41479B"/>
<path d="M16.4805 15.79V16.5027C16.4805 16.7975 16.2407 17.0373 15.946 17.0373C15.6512 17.0373 15.4114 16.7975 15.4114 16.5027V15.79H16.4805Z" fill="#41479B"/>
</g>
<defs>
<clipPath id="clip0_11_4426">
<rect width="48" height="32" fill="white"/>
</clipPath>
</defs>
</svg>
