<svg width="48" height="32" viewBox="0 0 48 32" fill="none" xmlns="http://www.w3.org/2000/svg">
<g clip-path="url(#clip0_11_3746)">
<path d="M47.1723 31.7242H0.827623C0.370593 31.7242 0 31.3536 0 30.8965V1.10359C0 0.646563 0.370593 0.27597 0.827623 0.27597H47.1724C47.6294 0.27597 48 0.646563 48 1.10359V30.8965C47.9999 31.3537 47.6293 31.7242 47.1723 31.7242Z" fill="#3CC8FF"/>
<path d="M23.9999 25.931C29.4846 25.931 33.9308 21.4848 33.9308 16.0001C33.9308 10.5154 29.4846 6.06921 23.9999 6.06921C18.5152 6.06921 14.069 10.5154 14.069 16.0001C14.069 21.4848 18.5152 25.931 23.9999 25.931Z" fill="#FFE15A"/>
</g>
<defs>
<clipPath id="clip0_11_3746">
<rect width="48" height="32" fill="white"/>
</clipPath>
</defs>
</svg>
