<svg width="48" height="32" viewBox="0 0 48 32" fill="none" xmlns="http://www.w3.org/2000/svg">
<g clip-path="url(#clip0_11_1245)">
<path d="M47.9999 10.7588H0V1.10362C0 0.646594 0.370593 0.276001 0.827623 0.276001H47.1724C47.6294 0.276001 48 0.646594 48 1.10362L47.9999 10.7588Z" fill="#FF4B55"/>
<path d="M47.1723 31.7242H0.827623C0.370593 31.7242 0 31.3536 0 30.8966V21.2415H47.9999V30.8966C47.9999 31.3537 47.6293 31.7242 47.1723 31.7242Z" fill="#41479B"/>
<path d="M47.9999 10.7584H0V21.2406H47.9999V10.7584Z" fill="white"/>
<path d="M24.0001 11.8621C21.7149 11.8621 19.8622 13.7147 19.8622 16C19.8622 18.2853 21.7149 20.1379 24.0001 20.1379C26.2854 20.1379 28.1381 18.2853 28.1381 16C28.1381 13.7147 26.2854 11.8621 24.0001 11.8621ZM24.0001 19.1207C22.2767 19.1207 20.8794 17.7236 20.8794 16C20.8794 14.2764 22.2766 12.8792 24.0001 12.8792C25.7236 12.8792 27.1209 14.2765 27.1209 16C27.1209 17.7235 25.7235 19.1207 24.0001 19.1207Z" fill="#FF4B55"/>
<path d="M24 17.4354C24.7927 17.4354 25.4353 16.7928 25.4353 16.0001C25.4353 15.2074 24.7927 14.5648 24 14.5648C23.2073 14.5648 22.5647 15.2074 22.5647 16.0001C22.5647 16.7928 23.2073 17.4354 24 17.4354Z" fill="#41479B"/>
<path d="M24.0935 14.9128L24.3248 15.6066L25.056 15.6123C25.1507 15.613 25.1899 15.7339 25.1137 15.7901L24.5255 16.2245L24.7461 16.9216C24.7747 17.0119 24.672 17.0865 24.5949 17.0314L24 16.6063L23.405 17.0314C23.328 17.0865 23.2252 17.0118 23.2538 16.9216L23.4744 16.2245L22.8862 15.7901C22.8101 15.7339 22.8493 15.613 22.944 15.6123L23.6751 15.6066L23.9064 14.9128C23.9364 14.823 24.0635 14.823 24.0935 14.9128Z" fill="#FFE15A"/>
<path d="M26.7151 16.0334C26.7151 16.0334 26.7971 15.6541 26.3935 16.1093C26.3935 16.1093 26.3994 15.9797 26.388 15.8729C26.4768 15.7768 26.5868 15.5666 26.561 15.118C26.561 15.118 26.4977 14.7352 26.2899 15.3068C26.2899 15.3068 26.2332 15.1381 26.1729 15.0447C26.223 14.9409 26.2617 14.7518 26.1416 14.3935C26.1416 14.3935 26.0013 14.0869 25.9576 14.6136C25.9576 14.6136 25.8424 14.4413 25.7675 14.3989C25.7819 14.314 25.7706 14.1681 25.6011 13.9319C25.6011 13.9319 25.4319 13.7425 25.5173 14.1312C25.5173 14.1312 25.3626 14.0059 25.3131 14.0206C25.2874 13.9464 25.213 13.8208 24.9634 13.6556C24.9634 13.6556 24.7471 13.5372 24.9953 13.8463C24.9953 13.8463 24.7759 13.7593 24.7785 13.8092C24.7811 13.8591 24.8872 13.951 24.9743 13.9921C24.9743 13.9921 24.6525 14.0255 24.7846 14.0972C24.7846 14.0972 25.1109 14.2098 25.307 14.1014C25.3227 14.1585 25.3547 14.2225 25.4021 14.2686C25.4021 14.2686 25.0193 14.1942 25.1229 14.3092C25.1229 14.3092 25.4101 14.5202 25.6939 14.4879C25.6926 14.566 25.7162 14.667 25.7577 14.7427C25.7577 14.7427 25.3012 14.4986 25.3877 14.6849C25.3877 14.6849 25.6607 15.0501 26.0239 15.1293C26.009 15.2105 26.0092 15.3086 26.0289 15.3899C26.0289 15.3899 25.5956 14.9807 25.6353 15.2139C25.6353 15.2139 25.8164 15.694 26.1835 15.898C26.1536 15.959 26.1292 16.0271 26.1202 16.0908C26.1202 16.0908 25.8678 15.5507 25.8189 15.7822C25.8189 15.7822 25.8106 16.3216 26.0986 16.6442C26.0373 16.6952 25.9772 16.7665 25.9403 16.8366C25.9403 16.8366 25.8851 16.2432 25.761 16.4445C25.761 16.4445 25.5894 16.8941 25.7056 17.2816C25.6288 17.3043 25.5452 17.3462 25.4833 17.3963C25.4833 17.3963 25.6664 16.8291 25.473 16.9652C25.473 16.9652 25.1286 17.3378 25.1022 17.7571C25.0109 17.7552 24.8873 17.7881 24.7976 17.8417C24.7976 17.8417 25.0597 17.3064 24.8487 17.4135C24.8487 17.4135 24.473 17.7204 24.3759 18.1188C24.2871 18.1695 24.1361 18.2556 23.9853 18.3411C23.8975 18.2902 23.8123 18.2407 23.7395 18.1982L23.7419 18.1942L22.8878 17.4782L22.9047 17.7124L22.4758 16.9453L22.4229 17.2063L22.2824 16.3583L22.1578 16.4835L22.206 15.6924L22.0436 15.78L22.3386 15.1916L22.2 15.2307L22.5644 14.8814L22.3718 14.8978L22.8325 14.6887L22.6641 14.6628L23.1138 14.4351L22.92 14.4257L23.503 14.224L23.3963 14.1306L23.9009 13.9817L23.2962 13.9356L23.4684 13.7236L23.0071 13.9597L23.0733 13.6405L22.6697 14.0561L22.7398 13.7651L22.3621 14.141L22.3865 13.8573L22.0131 14.4897L21.9649 14.2067L21.6546 14.9168L21.5692 14.6074L21.4306 15.488L21.315 15.3569L21.467 16.2063L21.2742 16.0617L21.6276 16.8247C21.6276 16.8247 21.3706 16.7123 21.3385 16.7123C21.3063 16.7123 21.9528 17.3689 21.9528 17.3689L21.6155 17.3328L22.2672 17.791L22.0251 17.8508L22.5672 18.0616L22.4347 18.1641L23.557 18.2444C23.557 18.2444 23.6652 18.3345 23.8124 18.4388C23.7347 18.4827 23.6664 18.5209 23.6241 18.544C23.5814 18.5673 23.5314 18.5696 23.4864 18.5509C23.3799 18.5061 23.2257 18.4431 23.1514 18.4134C23.1514 18.4134 23.1586 18.7325 23.4908 18.7404C23.6272 18.7435 23.8132 18.6567 23.9861 18.5541C24.1632 18.6645 24.3587 18.7619 24.4999 18.7585C24.8248 18.7506 24.8319 18.4315 24.8319 18.4315C24.7592 18.4613 24.6083 18.5243 24.5041 18.569C24.4601 18.5877 24.4112 18.5854 24.3695 18.5621C24.3234 18.5363 24.2477 18.4931 24.1609 18.443C24.2496 18.3829 24.3239 18.3283 24.3761 18.2881C24.4579 18.3523 24.6919 18.4652 25.2148 18.2689C25.2148 18.2689 25.5617 18.0947 24.9541 18.0661C24.9541 18.0661 25.0669 17.9833 25.143 17.9047C25.2427 17.956 25.4889 18.0168 25.9571 17.7597C25.9571 17.7597 26.2757 17.5378 25.6703 17.5961C25.6703 17.5961 25.7511 17.5174 25.8146 17.4373C25.9191 17.449 26.177 17.4211 26.519 16.9837C26.519 16.9837 26.7243 16.6543 26.1908 16.9464C26.1908 16.9464 26.2598 16.782 26.2761 16.672C26.3944 16.615 26.5741 16.4602 26.7151 16.0334Z" fill="#64C86E"/>
</g>
<defs>
<clipPath id="clip0_11_1245">
<rect width="48" height="32" fill="white"/>
</clipPath>
</defs>
</svg>
