<svg width="48" height="32" viewBox="0 0 48 32" fill="none" xmlns="http://www.w3.org/2000/svg">
<g clip-path="url(#clip0_11_1097)">
<path d="M22.3448 31.7243H0.827623C0.370593 31.7243 0 31.3537 0 30.8967V1.10362C0 0.646594 0.370593 0.276001 0.827623 0.276001H22.3448V31.7243Z" fill="white"/>
<path d="M47.1722 0.275879H15.691C15.7129 0.275879 15.7346 0.279066 15.7556 0.285629L20.7606 1.81488C20.969 1.87853 20.9689 2.17375 20.7604 2.23722L16.4165 3.55984C16.2079 3.6234 16.2078 3.91853 16.4163 3.98218L20.7607 5.30987C20.9691 5.37353 20.969 5.66874 20.7605 5.73212L16.4165 7.05483C16.2079 7.1184 16.2078 7.41352 16.4163 7.47718L20.7607 8.80486C20.9691 8.86852 20.969 9.16374 20.7605 9.22711L16.4178 10.5493C16.2091 10.6129 16.2091 10.9082 16.4178 10.9717L20.7605 12.2939C20.9691 12.3574 20.9692 12.6525 20.7607 12.7162L16.4163 14.0439C16.2079 14.1076 16.208 14.4029 16.4165 14.4662L20.7605 15.7888C20.9691 15.8522 20.9692 16.1475 20.7607 16.2112L16.4163 17.5389C16.2079 17.6026 16.208 17.8977 16.4165 17.9612L20.7605 19.2838C20.9691 19.3472 20.9692 19.6425 20.7607 19.7061L16.4163 21.0338C16.2079 21.0975 16.208 21.3927 16.4165 21.4561L20.7604 22.7788C20.969 22.8422 20.9691 23.1375 20.7606 23.2011L16.4163 24.5287C16.2079 24.5924 16.208 24.8876 16.4165 24.951L20.7592 26.2734C20.9678 26.3367 20.9678 26.6322 20.7592 26.6956L16.4165 28.018C16.2079 28.0813 16.2078 28.3766 16.4163 28.4402L20.7607 29.7679C20.9691 29.8315 20.969 30.1268 20.7605 30.1901L15.7555 31.714C15.7347 31.7204 15.713 31.7237 15.6912 31.7237H47.1723C47.6294 31.7237 47.9999 31.3531 47.9999 30.8961V1.10341C47.9999 0.646378 47.6293 0.275879 47.1722 0.275879Z" fill="#873250"/>
</g>
<defs>
<clipPath id="clip0_11_1097">
<rect width="48" height="32" fill="white"/>
</clipPath>
</defs>
</svg>
