<svg width="48" height="32" viewBox="0 0 48 32" fill="none" xmlns="http://www.w3.org/2000/svg">
<g clip-path="url(#clip0_11_1706)">
<path d="M0 21.2413H47.9999V30.8964C47.9999 31.3535 47.6293 31.7241 47.1723 31.7241H0.827623C0.370593 31.7241 0 31.3535 0 30.8964V21.2413Z" fill="white"/>
<path d="M0.827623 0.275848H47.1724C47.6294 0.275848 48 0.646441 48 1.10347V10.7586H0V1.10338C0 0.646347 0.370593 0.275848 0.827623 0.275848Z" fill="#FF4B55"/>
<path d="M47.9999 10.7584H0V21.2406H47.9999V10.7584Z" fill="#41479B"/>
<path d="M16.2207 10.7565H10.2621L10.0138 9.26685H16.469L16.2207 10.7565Z" fill="#FFE15A"/>
<path d="M10.2002 10.3841L10.2622 10.7565H16.2209L16.2829 10.3841H10.2002Z" fill="#FFD350"/>
<path d="M13.3658 5.79062H13.1175V6.78371H13.3658V5.79062Z" fill="#FFE15A"/>
<path d="M13.6139 6.03903H12.869V6.28728H13.6139V6.03903Z" fill="#FFE15A"/>
<path d="M16.2401 9.7634C16.212 9.7634 16.1835 9.75852 16.1555 9.74858C16.0266 9.7018 15.9599 9.55949 16.0067 9.43049L16.5326 7.97915C16.5587 7.90715 16.5525 7.82793 16.5157 7.76175C16.4961 7.72659 16.4506 7.66471 16.3635 7.64606C15.7223 7.50984 14.4795 7.28072 13.3613 7.28072H13.1215C12.0034 7.28072 10.7605 7.50984 10.1191 7.64634C10.0323 7.66471 9.98653 7.72659 9.96703 7.76175C9.93028 7.82793 9.92409 7.90715 9.95025 7.97915L10.476 9.43049C10.5228 9.55949 10.4561 9.7018 10.3272 9.74858C10.1984 9.79462 10.0558 9.72843 10.0092 9.59971L9.48328 8.14837C9.40828 7.94128 9.42619 7.71262 9.5326 7.52081C9.63544 7.33537 9.81131 7.20393 10.0153 7.16053C10.676 7.0199 11.9576 6.78394 13.1213 6.78394H13.3612C14.5249 6.78394 15.8065 7.01981 16.4669 7.16015C16.6712 7.20384 16.847 7.33518 16.9499 7.52071C17.0563 7.71253 17.0742 7.94109 16.9993 8.14828L16.4733 9.59962C16.437 9.70068 16.3416 9.7634 16.2401 9.7634Z" fill="#FFE15A"/>
<path d="M13.2422 9.54616C13.1052 9.54616 12.994 9.43516 12.994 9.29791V7.28069C12.994 7.14344 13.1052 7.03244 13.2422 7.03244C13.3793 7.03244 13.4905 7.14344 13.4905 7.28069V9.29791C13.4906 9.43506 13.3794 9.54616 13.2422 9.54616Z" fill="#FFE15A"/>
<path d="M14.9586 9.76334C14.9419 9.76334 14.9249 9.76165 14.9079 9.75827C14.7737 9.73034 14.6873 9.59899 14.7153 9.46465L15.0164 8.01331C15.0556 7.82422 14.9943 7.65856 14.9594 7.6295C14.6151 7.50321 13.9245 7.28056 13.3099 7.28056H13.1726C12.5582 7.28056 11.8675 7.50321 11.5104 7.63596C11.4884 7.65856 11.4271 7.82412 11.4662 8.01321L11.7673 9.46456C11.7952 9.59881 11.709 9.73034 11.5746 9.75818C11.4402 9.78415 11.3088 9.69977 11.2812 9.56543L10.9801 8.11409C10.9051 7.75231 11.0202 7.289 11.3371 7.17068C11.8117 6.99425 12.515 6.78397 13.1725 6.78397H13.3099C13.9674 6.78397 14.6707 6.99415 15.1451 7.1704C15.4623 7.289 15.5774 7.75231 15.5024 8.11409L15.2013 9.56543C15.1771 9.6829 15.0738 9.76334 14.9586 9.76334Z" fill="#FFE15A"/>
<path d="M10.0759 9.63922H16.4069L16.469 9.26685H10.0138L10.0759 9.63922Z" fill="#FFD350"/>
<path d="M8.52422 10.7565C8.38716 10.7565 8.27597 10.8677 8.27597 11.0048V19.6753C8.27597 22.4283 10.4991 24.66 13.2415 24.66C15.984 24.66 18.2071 22.4283 18.2071 19.6753V11.0048C18.2071 10.8677 18.0959 10.7565 17.9588 10.7565H8.52422Z" fill="#FF4B55"/>
<path d="M13.7378 18.9497L14.2344 17.7083L13.2413 17.9566L12.2483 17.7083L12.7448 18.9497L11.5035 23.1704C11.5035 23.1704 12.2483 23.667 13.2414 23.667C14.2345 23.667 14.9794 23.1704 14.9794 23.1704L13.7378 18.9497Z" fill="white"/>
<path d="M11.4433 19.9501L11.0052 20.0597L11.9689 18.3252L11.5348 18.0842L10.3644 20.1909H9.26909V20.6875H9.80253L9.11403 21.2383L9.42415 21.6263L10.0091 21.1583L9.77834 21.8503L10.2494 22.0073L10.7029 20.6469L11.5638 20.4317L11.4433 19.9501Z" fill="#FFE15A"/>
<path d="M11.5036 13.2392L10.3702 12.6725C10.1621 12.5684 10.0541 12.3337 10.1106 12.1079L10.1747 11.8515C10.2191 11.6736 10.0846 11.5013 9.90112 11.5013C9.81544 11.5013 9.73444 11.5402 9.681 11.6071C9.0929 12.3422 8.77256 13.2555 8.77256 14.1969V19.4461C8.77256 19.4461 9.80934 19.2388 10.7458 17.8765C10.9177 17.6264 11.2008 17.4784 11.5026 17.4629L11.007 18.9495L12.0002 19.1978L12.8692 18.1638L11.5036 13.2392Z" fill="white"/>
<path d="M15.0396 19.9501L15.4777 20.0597L14.514 18.3252L14.9481 18.0842L16.1185 20.1909H17.2138V20.6875H16.6803L17.3689 21.2383L17.0588 21.6263L16.4739 21.1583L16.7046 21.8503L16.2334 22.0073L15.78 20.6469L14.9191 20.4317L15.0396 19.9501Z" fill="#FFE15A"/>
<path d="M14.9794 13.2392L16.1127 12.6725C16.3208 12.5684 16.4288 12.3337 16.3724 12.1079L16.3083 11.8515C16.2638 11.6736 16.3984 11.5013 16.5818 11.5013C16.6675 11.5013 16.7485 11.5402 16.802 11.6071C17.3901 12.3422 17.7104 13.2555 17.7104 14.1969V19.4461C17.7104 19.4461 16.6736 19.2388 15.7372 17.8765C15.5652 17.6264 15.2822 17.4784 14.9804 17.4629L15.476 18.9495L14.4829 19.1977L13.6139 18.1637L14.9794 13.2392Z" fill="white"/>
<path d="M11.7519 11.5013H10.5104L10.8829 11.9978L11.7519 12.2461L11.2553 12.4943H12.0001L11.7519 11.5013Z" fill="#FFE15A"/>
<path d="M14.7311 11.5013H15.9724L15.6001 11.9978L14.7311 12.2461L15.2277 12.4943H14.4828L14.7311 11.5013Z" fill="#FFE15A"/>
<path d="M14.906 11.3066L13.7381 11.5013L13.2415 12.4943L12.7449 11.5013L11.577 11.3066C11.4431 11.2843 11.3404 11.4233 11.4011 11.5447L12.0002 12.7427L11.5036 13.2393H13.2415H14.9794L14.4828 12.7427L15.0818 11.5447C15.1426 11.4232 15.0399 11.2842 14.906 11.3066Z" fill="white"/>
<path d="M13.2412 9.74798C13.4468 9.74798 13.6135 9.58126 13.6135 9.37561C13.6135 9.16995 13.4468 9.00323 13.2412 9.00323C13.0355 9.00323 12.8688 9.16995 12.8688 9.37561C12.8688 9.58126 13.0355 9.74798 13.2412 9.74798Z" fill="#FFBE50"/>
<path d="M13.2367 10.4712C13.3993 10.4712 13.531 10.3786 13.531 10.2643C13.531 10.15 13.3993 10.0574 13.2367 10.0574C13.0742 10.0574 12.9425 10.15 12.9425 10.2643C12.9425 10.3786 13.0742 10.4712 13.2367 10.4712Z" fill="#41479B"/>
<path d="M11.7676 10.4712C11.9301 10.4712 12.0619 10.3786 12.0619 10.2643C12.0619 10.15 11.9301 10.0574 11.7676 10.0574C11.6051 10.0574 11.4733 10.15 11.4733 10.2643C11.4733 10.3786 11.6051 10.4712 11.7676 10.4712Z" fill="#FF4B55"/>
<path d="M10.2985 10.4712C10.461 10.4712 10.5928 10.3786 10.5928 10.2643C10.5928 10.15 10.461 10.0574 10.2985 10.0574C10.1359 10.0574 10.0042 10.15 10.0042 10.2643C10.0042 10.3786 10.1359 10.4712 10.2985 10.4712Z" fill="#41479B"/>
<path d="M16.1738 10.4712C16.3364 10.4712 16.4681 10.3786 16.4681 10.2643C16.4681 10.15 16.3364 10.0574 16.1738 10.0574C16.0113 10.0574 15.8796 10.15 15.8796 10.2643C15.8796 10.3786 16.0113 10.4712 16.1738 10.4712Z" fill="#41479B"/>
<path d="M14.7047 10.4712C14.8672 10.4712 14.999 10.3786 14.999 10.2643C14.999 10.15 14.8672 10.0574 14.7047 10.0574C14.5422 10.0574 14.4104 10.15 14.4104 10.2643C14.4104 10.3786 14.5422 10.4712 14.7047 10.4712Z" fill="#FF4B55"/>
<path d="M14.9674 9.74798C15.1731 9.74798 15.3398 9.58126 15.3398 9.37561C15.3398 9.16995 15.1731 9.00323 14.9674 9.00323C14.7617 9.00323 14.595 9.16995 14.595 9.37561C14.595 9.58126 14.7617 9.74798 14.9674 9.74798Z" fill="#FFBE50"/>
<path d="M16.3286 9.74798C16.5343 9.74798 16.701 9.58126 16.701 9.37561C16.701 9.16995 16.5343 9.00323 16.3286 9.00323C16.123 9.00323 15.9563 9.16995 15.9563 9.37561C15.9563 9.58126 16.123 9.74798 16.3286 9.74798Z" fill="#FFBE50"/>
<path d="M11.5184 9.74798C11.724 9.74798 11.8908 9.58126 11.8908 9.37561C11.8908 9.16995 11.724 9.00323 11.5184 9.00323C11.3127 9.00323 11.146 9.16995 11.146 9.37561C11.146 9.58126 11.3127 9.74798 11.5184 9.74798Z" fill="#FFBE50"/>
<path d="M10.156 9.74798C10.3617 9.74798 10.5284 9.58126 10.5284 9.37561C10.5284 9.16995 10.3617 9.00323 10.156 9.00323C9.95034 9.00323 9.78363 9.16995 9.78363 9.37561C9.78363 9.58126 9.95034 9.74798 10.156 9.74798Z" fill="#FFBE50"/>
<path d="M13.6691 7.28064C13.7118 7.20742 13.7381 7.12333 13.7381 7.03239C13.7381 6.75817 13.5158 6.5358 13.2415 6.5358C12.9671 6.5358 12.7449 6.75808 12.7449 7.03239C12.7449 7.12333 12.771 7.20742 12.8138 7.28064H13.6691Z" fill="#41479B"/>
<path d="M13.2414 18.3289C12.2146 18.3289 11.3793 17.4936 11.3793 16.4668V13.1151H15.1035V16.4668C15.1035 17.4937 14.2682 18.3289 13.2414 18.3289Z" fill="#FF4B55"/>
<path d="M14.9791 13.2392V16.4668C14.9791 17.4266 14.201 18.2048 13.2412 18.2048C12.2814 18.2048 11.5032 17.4266 11.5032 16.4668V13.2392H14.9791ZM15.2275 12.991H14.9792H11.5033H11.2551V13.2392V16.4668C11.2551 17.562 12.1461 18.453 13.2413 18.453C14.3365 18.453 15.2275 17.562 15.2275 16.4668V13.2392V12.991Z" fill="#A54B50"/>
<path d="M12.8689 18.1637C12.989 18.1899 13.1133 18.2046 13.2413 18.2046C13.3692 18.2046 13.4935 18.1898 13.6136 18.1637V13.2391H12.8688C12.8689 13.2391 12.8689 18.1637 12.8689 18.1637Z" fill="white"/>
<path d="M14.9792 15.2874H11.5029V16.0323H14.9792V15.2874Z" fill="white"/>
</g>
<defs>
<clipPath id="clip0_11_1706">
<rect width="48" height="32" fill="white"/>
</clipPath>
</defs>
</svg>
