<svg width="48" height="32" viewBox="0 0 48 32" fill="none" xmlns="http://www.w3.org/2000/svg">
<g clip-path="url(#clip0_11_4101)">
<path d="M47.9999 16H0V1.10347C0 0.646441 0.370593 0.275848 0.827623 0.275848H47.1724C47.6294 0.275848 48 0.646441 48 1.10347L47.9999 16Z" fill="#4173CD"/>
<path d="M0 15.9999H47.9999V30.8965C47.9999 31.3535 47.6293 31.7241 47.1723 31.7241H0.827623C0.370593 31.7241 0 31.3535 0 30.8965V15.9999Z" fill="#4173CD"/>
<path d="M47.9999 15.9999H0V23.8618H47.9999V15.9999Z" fill="#FFE15A"/>
<path d="M0.827623 31.7242H47.1724C47.6294 31.7242 48 31.3536 48 30.8966V23.8622H0V30.8966C0 31.3537 0.370593 31.7242 0.827623 31.7242Z" fill="#73AF00"/>
<path d="M42.957 8.69858L46.3446 8.13777L42.957 7.57696L45.8721 5.76253L42.5279 6.54074L44.5267 3.74887L41.7348 5.74771L42.5131 2.40347L40.6986 5.31853L40.1377 1.93088L39.5769 5.31843L37.7625 2.40338L38.5407 5.74762L35.7488 3.74878L37.7477 6.54065L34.4034 5.76243L37.3185 7.57687L33.9308 8.13777L37.3184 8.69858L34.4033 10.513L37.7476 9.7348L35.7487 12.5267L38.5406 10.5278L37.7624 13.8721L39.5768 10.957L40.1377 14.3447L40.6985 10.9571L42.513 13.8722L41.7347 10.5279L44.5266 12.5268L42.5278 9.73489L45.872 10.5131L42.957 8.69858ZM40.1377 10.2067C38.995 10.2067 38.0687 9.28049 38.0687 8.13777C38.0687 6.99506 38.995 6.06881 40.1377 6.06881C41.2804 6.06881 42.2067 6.99506 42.2067 8.13777C42.2067 9.28049 41.2804 10.2067 40.1377 10.2067Z" fill="#FFE15A"/>
<path d="M40.1377 9.68949C40.9947 9.68949 41.6895 8.99475 41.6895 8.13774C41.6895 7.28074 40.9947 6.586 40.1377 6.586C39.2807 6.586 38.586 7.28074 38.586 8.13774C38.586 8.99475 39.2807 9.68949 40.1377 9.68949Z" fill="#FFE15A"/>
</g>
<defs>
<clipPath id="clip0_11_4101">
<rect width="48" height="32" fill="white"/>
</clipPath>
</defs>
</svg>
