<svg width="48" height="32" viewBox="0 0 48 32" fill="none" xmlns="http://www.w3.org/2000/svg">
<g clip-path="url(#clip0_11_2973)">
<path d="M47.1723 31.7243H0.827623C0.370593 31.7243 0 31.3537 0 30.8966V1.10359C0 0.646563 0.370593 0.27597 0.827623 0.27597H47.1724C47.6294 0.27597 48 0.646563 48 1.10359V30.8966C47.9999 31.3538 47.6293 31.7243 47.1723 31.7243Z" fill="#73AF00"/>
<path d="M9.93178 10.9637C10.0133 11.4865 10.3294 11.6506 10.6042 11.6291C10.9282 11.604 11.2123 11.3078 11.2123 10.9948V9.20065C11.2123 9.11083 11.2854 9.03752 11.3754 9.03752C11.4654 9.03752 11.5386 9.11074 11.5386 9.20065V11.0025C11.5386 11.2192 11.6456 11.4212 11.8252 11.5425C11.9347 11.6168 12.0623 11.6549 12.1909 11.6549C12.2727 11.6549 12.3549 11.6393 12.4333 11.608L12.5963 11.5429C12.6113 13.049 12.5197 14.3726 12.5181 14.3969C12.5053 14.5766 12.6405 14.7327 12.8202 14.7455C12.8282 14.7461 12.836 14.7464 12.8438 14.7464C13.0135 14.7464 13.1567 14.6152 13.169 14.4434C13.1766 14.3374 13.2771 12.8877 13.247 11.2826L13.3456 11.2433C13.432 11.2089 13.5292 11.213 13.6123 11.2544C13.9717 11.4335 14.404 11.3636 14.688 11.0798L14.7468 11.0211C15.0104 10.757 15.1011 10.3734 14.983 10.0195L14.7052 9.18611C14.8554 9.2313 15.0204 9.16483 15.093 9.02018C15.1736 8.85902 15.1083 8.66308 14.9471 8.58246L14.2947 8.25621C14.1767 8.19696 14.035 8.21514 13.935 8.30139C13.8352 8.38811 13.7976 8.52602 13.8393 8.65118L14.3642 10.226C14.4035 10.3438 14.3733 10.4719 14.2854 10.5598L14.2267 10.6185C14.1417 10.7035 14.0122 10.7243 13.9039 10.6707C13.6925 10.5651 13.4517 10.5453 13.2259 10.6029C13.18 9.55577 13.0672 8.51308 12.8271 7.79224C12.7702 7.62143 12.5857 7.5288 12.4143 7.58608C12.2434 7.6428 12.151 7.82749 12.208 7.99868C12.4431 8.70358 12.5454 9.77786 12.5818 10.846L12.1912 11.0022V9.20036C12.1912 8.75055 11.8253 8.38474 11.3756 8.38474C10.9259 8.38474 10.56 8.75046 10.56 9.20036V10.7796L10.2272 9.13568C10.1918 8.95886 10.0198 8.84355 9.84281 8.88049C9.6661 8.91649 9.55191 9.08852 9.58782 9.26505L9.93178 10.9637Z" fill="white"/>
<path d="M10.5598 8.2219C10.74 8.2219 10.8861 8.07603 10.8861 7.89565V7.56941C10.8861 7.38913 10.74 7.24316 10.5598 7.24316C10.3797 7.24316 10.2336 7.38903 10.2336 7.56941V7.89565C10.2336 8.07594 10.3797 8.2219 10.5598 8.2219Z" fill="white"/>
<path d="M13.8222 7.89566H14.1484C14.3286 7.89566 14.4747 7.74978 14.4747 7.56941C14.4747 7.38913 14.3286 7.24316 14.1484 7.24316H13.8222C13.642 7.24316 13.4959 7.38903 13.4959 7.56941C13.4959 7.74978 13.642 7.89566 13.8222 7.89566Z" fill="white"/>
<path d="M11.6969 12.1831L10.0657 13.1619C9.91114 13.2546 9.86117 13.4549 9.95389 13.6095C10.015 13.7114 10.123 13.7679 10.2339 13.7679C10.2911 13.7679 10.349 13.7529 10.4015 13.7213L12.0327 12.7425C12.1873 12.6498 12.2373 12.4495 12.1445 12.2949C12.0518 12.1404 11.8516 12.0904 11.6969 12.1831Z" fill="white"/>
<path d="M16.0952 12.7601L16.1029 12.755C16.1303 12.8652 16.1773 12.9719 16.2535 13.0616C16.386 13.2176 16.5848 13.2961 16.8094 13.2776C17.1281 13.2543 17.3446 13.1087 17.4881 12.9207C17.5099 12.9357 17.5329 12.9494 17.5569 12.9615C17.7332 13.0504 17.9371 13.0437 18.1313 12.943C18.6243 12.6891 18.7305 12.1016 18.7155 11.7945C18.7067 11.6155 18.5545 11.4891 18.3759 11.4855C18.1967 11.4932 18.0572 11.6452 18.0637 11.8242C18.0639 11.8284 18.0711 12.2155 17.8345 12.3592C17.7959 12.3054 17.7501 12.1842 17.7329 12.0842C17.7053 11.9163 17.5511 11.7994 17.3851 11.8128C17.216 11.8261 17.0853 11.9682 17.0848 12.138C17.0846 12.1855 17.0741 12.6041 16.7509 12.6391C16.7133 12.5878 16.7127 12.3718 16.7497 12.2122C16.7809 12.0812 16.7284 11.9445 16.6176 11.8681C16.5066 11.7913 16.3603 11.7913 16.2488 11.8669L16.0667 11.9907C15.9803 10.0989 15.7811 7.89434 15.7786 7.86613C15.7624 7.68706 15.6047 7.55356 15.4243 7.57081C15.2448 7.58703 15.1125 7.74575 15.1289 7.92547C15.1317 7.95566 15.362 10.5063 15.4331 12.4541C15.4164 12.47 15.3992 12.4873 15.3829 12.5025C15.2539 12.1773 14.9982 11.9725 14.6688 11.9412C14.204 11.9002 13.7004 12.2165 13.5198 12.6683C13.3642 13.057 13.4622 13.439 13.7692 13.6412C13.99 13.7868 14.3232 13.8326 14.7421 13.6858C14.6399 14.0452 14.4536 14.4097 14.2115 14.6916C13.9947 14.9442 13.6326 15.2357 13.1693 15.2227C12.8996 15.2121 12.6924 15.1239 12.5357 14.9525C12.158 14.5399 12.1906 13.7932 12.1908 13.7852C12.2002 13.6055 12.0626 13.4523 11.8831 13.4424C11.7022 13.4232 11.5492 13.5701 11.5393 13.7501C11.537 13.7915 11.4897 14.7729 12.0515 15.3899C12.3281 15.6941 12.6955 15.857 13.1436 15.8745C13.1655 15.8755 13.1873 15.8757 13.2092 15.8757C13.755 15.8757 14.2845 15.6081 14.7062 15.1165C15.103 14.6545 15.3724 14.027 15.4532 13.4444C15.4522 14.5604 14.7796 15.8191 13.888 16.3736C13.5093 16.6088 12.919 16.8209 12.254 16.4931C11.4343 16.0885 11.532 15.1515 11.5363 15.1133C11.5587 14.9345 11.4318 14.7715 11.2531 14.7491C11.0751 14.7275 10.9111 14.8533 10.8889 15.0324C10.8816 15.0907 10.7249 16.466 11.9654 17.078C12.284 17.2353 12.6172 17.3134 12.953 17.3134C13.3844 17.3134 13.8197 17.1844 14.2324 16.9276C15.318 16.2528 16.106 14.7867 16.106 13.4417C16.1059 13.2314 16.1019 13.0017 16.0952 12.7601ZM14.1281 13.0964C14.0698 13.0578 14.1153 12.9346 14.1252 12.9101C14.1939 12.738 14.4088 12.5892 14.5804 12.5892C14.5892 12.5892 14.5981 12.5895 14.6067 12.5905C14.6484 12.5943 14.7591 12.6048 14.8067 12.8511C14.8118 12.8772 14.8161 12.904 14.8195 12.9313C14.4559 13.1449 14.2122 13.1516 14.1281 13.0964Z" fill="white"/>
<path d="M10.7247 16.097C10.5701 16.0061 10.3705 16.0581 10.2788 16.2127C10.2638 16.2378 10.2439 16.2653 10.2236 16.29C10.2201 16.2818 10.2166 16.2729 10.2131 16.2632C10.077 15.9003 10.1739 15.3413 10.2228 15.1564C10.2688 14.9825 10.1652 14.8041 9.99143 14.7575C9.81781 14.7129 9.63921 14.8142 9.59253 14.9882C9.56881 15.0764 9.36828 15.8684 9.60209 16.4922C9.75181 16.8911 9.98168 16.9918 10.1483 17.0054C10.1631 17.0066 10.1777 17.0073 10.1922 17.0073C10.5434 17.0073 10.7771 16.6534 10.8421 16.5413C10.9322 16.3859 10.8794 16.1881 10.7247 16.097Z" fill="white"/>
<path d="M16.745 10.1792C16.8156 10.1792 16.8866 10.1566 16.9463 10.1095L18.591 8.81828C18.6137 8.80046 18.6282 8.77712 18.6448 8.75518C18.8817 8.61231 19.0419 8.35506 19.0419 8.0589C19.0419 7.60909 18.676 7.24328 18.2263 7.24328C17.7766 7.24328 17.4107 7.609 17.4107 8.0589C17.4107 8.31062 17.5277 8.53309 17.7073 8.68281L16.5432 9.59668C16.4016 9.70787 16.3769 9.91299 16.4881 10.0545C16.5525 10.1365 16.6483 10.1792 16.745 10.1792ZM18.2264 7.89568C18.3164 7.89568 18.3895 7.9689 18.3895 8.05881C18.3895 8.14871 18.3164 8.22193 18.2264 8.22193C18.1364 8.22193 18.0633 8.14871 18.0633 8.05881C18.0633 7.9689 18.1364 7.89568 18.2264 7.89568Z" fill="white"/>
<path d="M17.84 9.86996C17.6682 9.81268 17.4841 9.9053 17.4272 10.0761C17.3923 10.1806 17.2346 10.7188 17.5543 11.0382C17.6785 11.1624 17.8415 11.2245 18.0417 11.2242C18.1755 11.2242 18.3259 11.1968 18.4924 11.141C18.6633 11.0843 18.7556 10.8996 18.6986 10.7284C18.6416 10.5576 18.4572 10.4646 18.2859 10.5223C18.1036 10.5828 18.0266 10.573 18.0195 10.5793C18.0003 10.5309 18.013 10.3852 18.0464 10.2811C18.1029 10.1108 18.0105 9.92668 17.84 9.86996Z" fill="white"/>
<path d="M21.5737 8.52124C21.6043 8.53015 21.635 8.53427 21.6653 8.53427C21.8065 8.53427 21.9367 8.44193 21.9783 8.29943L22.1686 7.64703C22.219 7.47406 22.1197 7.29275 21.9469 7.24241C21.7734 7.19234 21.5928 7.29116 21.5423 7.46412L21.3519 8.11653C21.3014 8.28978 21.4008 8.47099 21.5737 8.52124Z" fill="white"/>
<path d="M19.6723 8.48313C19.7241 8.51341 19.7809 8.52776 19.8367 8.52776C19.9488 8.52776 20.0579 8.4701 20.1186 8.36632C20.2095 8.21088 20.1572 8.01073 20.0017 7.91998C19.936 7.88173 19.9449 7.77373 19.9474 7.75235C19.9571 7.66666 20.0082 7.56213 20.0971 7.53448C20.2691 7.48104 20.3652 7.29813 20.3117 7.1261C20.2579 6.95379 20.0753 6.85845 19.903 6.91132C19.5778 7.01257 19.3407 7.3137 19.299 7.67819C19.2604 8.01738 19.4034 8.32582 19.6723 8.48313Z" fill="white"/>
<path d="M17.0845 13.7678C16.9043 13.7678 16.7582 13.9137 16.7582 14.0941C16.7582 14.2534 16.8723 14.3859 17.0233 14.4145C17.0404 14.4396 17.0844 14.5261 17.0844 14.7465C17.0844 14.9268 17.2305 15.0727 17.4106 15.0727C17.5908 15.0727 17.7369 14.9269 17.7369 14.7465C17.737 13.779 17.1111 13.7678 17.0845 13.7678Z" fill="white"/>
<path d="M22.619 12.4169C22.66 12.4236 22.7008 12.4267 22.7417 12.4267C22.998 12.4267 23.257 12.2975 23.5135 12.041C23.6409 11.9136 23.6409 11.7071 23.5135 11.5797C23.3861 11.4523 23.1796 11.4523 23.0522 11.5797C22.8571 11.775 22.7521 11.7791 22.7252 11.773C22.663 11.7641 22.6065 11.6828 22.594 11.6606C22.5121 11.5019 22.3181 11.4386 22.1583 11.5185C21.9972 11.5991 21.9317 11.7951 22.0125 11.9562C22.0326 11.9967 22.221 12.3522 22.619 12.4169Z" fill="white"/>
<path d="M28.1642 10.1245C28.1621 10.1194 28.1601 10.1146 28.1585 10.1101C28.1007 9.94071 27.9159 9.84856 27.7468 9.90621C27.5757 9.96293 27.4833 10.1476 27.5403 10.3188C27.5657 10.3952 27.7112 10.7788 28.0712 10.8272C28.0953 10.8304 28.1192 10.832 28.1429 10.832C28.3689 10.832 28.5809 10.6857 28.7738 10.3964C28.8737 10.2467 28.8332 10.0441 28.6833 9.94409C28.5332 9.84434 28.3306 9.88447 28.2309 10.0347C28.2051 10.0732 28.1828 10.1025 28.1642 10.1245Z" fill="white"/>
<path d="M27.524 16.0514C27.524 14.6602 27.4629 13.3551 27.3779 12.2116C27.8411 13.0149 28.2579 13.8267 28.5234 14.5349C28.5726 14.6659 28.6968 14.7465 28.8288 14.7465C28.8669 14.7465 28.9056 14.7397 28.9433 14.7258C29.112 14.6624 29.1975 14.4744 29.1342 14.3056C28.7213 13.2048 27.9791 11.8938 27.2476 10.73C27.0693 8.97262 26.8696 7.85718 26.8661 7.83731C26.834 7.65993 26.6645 7.54012 26.4869 7.57471C26.3096 7.60687 26.1921 7.77665 26.2242 7.95384C26.2269 7.96799 26.3296 8.54259 26.4525 9.50962C26.2018 9.13771 25.969 8.80218 25.7736 8.52599L25.7895 8.53105C25.9614 8.58834 26.1452 8.49571 26.2023 8.3249C26.2593 8.15381 26.167 7.96902 25.9961 7.91231L25.0173 7.58606C24.8816 7.54021 24.7326 7.58868 24.6495 7.70465C24.6273 7.73559 24.6121 7.76952 24.6018 7.80459C24.4065 7.66021 24.156 7.54284 23.9209 7.64127C23.7787 7.70024 23.6092 7.84865 23.6092 8.22168C23.6092 8.50809 23.7184 8.81774 23.8343 9.14587C24.0264 9.68999 24.1467 10.0901 23.9432 10.281C23.8308 10.3864 23.7184 10.4262 23.6089 10.3986C23.4077 10.3476 23.2086 10.0796 23.0759 9.68174C23.0701 9.66449 23.0581 9.65193 23.0499 9.63646C23.1185 9.13115 23.0886 8.52234 22.9503 7.83149C22.9152 7.65468 22.7437 7.53965 22.5664 7.57565C22.3897 7.61099 22.2752 7.78274 22.3106 7.95956C22.5236 9.02484 22.4596 9.8939 22.1397 10.2843C22.0159 10.4353 21.8608 10.5053 21.6518 10.5053C21.5857 10.5053 21.5406 10.4843 21.4957 10.4327C21.2383 10.1361 21.2394 9.17905 21.3224 8.59377C21.3357 8.50049 21.3076 8.40552 21.2457 8.33409C21.1837 8.26274 21.0939 8.22168 20.9994 8.22168C20.4381 8.22168 20.2253 8.86012 20.0374 9.42337C19.9551 9.67096 19.8015 10.1313 19.6945 10.1791C19.497 10.1791 19.3693 9.59924 19.3682 9.20005C19.3677 9.02005 19.2219 8.87446 19.042 8.87446C19.042 8.87446 19.0417 8.87446 19.0414 8.87446C18.8614 8.87446 18.7156 9.02034 18.7156 9.20034C18.7156 9.95277 18.9719 10.8315 19.6944 10.8315C20.2323 10.8315 20.4502 10.2453 20.6326 9.70049C20.6643 10.1337 20.7622 10.5826 21.0027 10.8598C21.1717 11.0548 21.396 11.1576 21.6518 11.1576C22.0545 11.1576 22.3976 10.9986 22.6441 10.6979C22.6888 10.6435 22.7273 10.581 22.7652 10.5179C22.9546 10.7871 23.187 10.9648 23.4489 11.0309C23.5257 11.0503 23.6029 11.0601 23.6793 11.0601C23.9311 11.0601 24.1772 10.9563 24.3897 10.7565C24.4339 10.7149 24.465 10.6696 24.4987 10.6249C24.5785 10.6476 24.6594 10.6611 24.7397 10.6611C25.004 10.6611 25.2584 10.5547 25.4163 10.4534C25.5673 10.3566 25.611 10.1565 25.5151 10.0048C25.419 9.85349 25.218 9.80821 25.066 9.90318C25.0631 9.90449 24.8453 10.0297 24.6967 10.0003C24.6971 9.64265 24.5677 9.26287 24.4496 8.92827C24.3823 8.73768 24.3133 8.54249 24.2808 8.38293C24.3077 8.40562 24.334 8.42915 24.3575 8.45202C24.4846 8.57943 24.6912 8.57943 24.8186 8.45202C24.8397 8.43093 24.8519 8.40534 24.866 8.38068C25.2041 8.84652 25.8997 9.82546 26.6151 10.9539C26.7517 12.341 26.8715 14.1103 26.8715 16.0509C26.8715 16.2312 27.0176 16.3772 27.1977 16.3772C27.3779 16.3775 27.524 16.2318 27.524 16.0514Z" fill="white"/>
<path d="M27.8501 8.87433C27.8501 9.05461 27.9962 9.20058 28.1764 9.20058C28.3566 9.20058 28.5026 9.0547 28.5026 8.87433C28.5026 8.49042 28.2023 7.87017 28.142 7.7497C28.0614 7.58883 27.8656 7.52386 27.7043 7.60383C27.5431 7.68445 27.4777 7.88039 27.5584 8.04155C27.6761 8.27695 27.8501 8.70417 27.8501 8.87433Z" fill="white"/>
<path d="M26.3659 16.0871C26.2059 16.0055 26.0094 16.0702 25.9279 16.2308C25.8929 16.2992 25.8386 16.3755 25.7928 16.4245C25.7783 16.2948 25.8128 16.0358 25.8786 15.8211C25.9224 15.6778 25.863 15.5229 25.7346 15.4458C25.6068 15.3685 25.4419 15.3886 25.336 15.4946L24.6836 16.147C24.5562 16.2744 24.5562 16.4808 24.6836 16.6082C24.811 16.7357 25.0175 16.7357 25.1449 16.6082L25.1615 16.5917C25.1897 16.7226 25.2437 16.8421 25.3361 16.9345C25.4585 17.0568 25.6063 17.1215 25.7599 17.1215C25.7898 17.1215 25.8197 17.1189 25.8497 17.1142C26.2192 17.0543 26.4493 16.6469 26.511 16.5235C26.5911 16.3626 26.5262 16.1681 26.3659 16.0871Z" fill="white"/>
<path d="M26.2393 13.4618H23.9401C23.9605 13.3806 23.9815 13.3031 24.0029 13.2296C24.9198 13.039 25.4648 12.743 25.625 12.3481C25.6804 12.2112 25.7382 11.9343 25.5023 11.616C25.2896 11.3293 24.9894 11.2006 24.6776 11.2643C24.214 11.3582 23.8009 11.8577 23.5046 12.6574C22.5837 12.8151 21.9942 13.1457 21.6209 13.4718C21.4886 12.135 20.9697 11.3408 20.9444 11.303C20.8443 11.1529 20.6416 11.1124 20.492 11.2125C20.3421 11.3125 20.3017 11.5148 20.4014 11.6648C20.4074 11.6737 20.9991 12.5788 20.9991 14.0937C20.9991 15.5827 19.8118 16.7035 19.0418 16.7035C18.6755 16.7035 18.5151 16.2681 18.4447 15.8998C19.1986 15.3715 19.8639 14.76 20.0108 14.1726C20.2096 13.3777 19.9594 12.7919 19.7939 12.4042C19.7861 12.3864 19.7779 12.3673 19.7697 12.3475C19.7767 12.3539 19.7834 12.3605 19.79 12.3669C19.9171 12.4943 20.1238 12.4943 20.2512 12.3669C20.3786 12.2395 20.3786 12.033 20.2512 11.9056C20.0605 11.7148 19.6902 11.415 19.3535 11.5559C19.2113 11.6148 19.0418 11.7632 19.0418 12.1363C19.0418 12.3048 19.1122 12.4695 19.1938 12.6606C19.3407 13.0044 19.5234 13.4323 19.3777 14.0145C19.2915 14.3592 18.8684 14.7772 18.3099 15.1923C18.25 15.1207 18.1635 15.0726 18.063 15.0726H18.0625C17.8825 15.0729 17.7367 15.2185 17.7367 15.3985C17.7367 15.4572 17.7393 15.5199 17.7431 15.5843C17.0449 16.0364 16.2549 16.4549 15.6442 16.7326C15.4803 16.8073 15.4079 17.0006 15.4824 17.1646C15.5371 17.2847 15.6556 17.3558 15.7795 17.3558C15.8247 17.3558 15.8706 17.3466 15.9143 17.3265C16.0977 17.2432 16.9683 16.8375 17.8627 16.2833C18.0274 16.8425 18.3765 17.356 19.0417 17.356C19.8243 17.356 20.7121 16.716 21.2245 15.7606C21.2864 15.8698 21.3574 15.9745 21.4423 16.0721C22.2634 17.0189 23.8673 17.0297 23.9352 17.0297C24.1108 17.0297 24.2548 16.8908 24.2612 16.7153C24.2674 16.5397 24.1336 16.3906 23.9585 16.3783C23.9559 16.378 23.6959 16.3493 23.5513 16.1804C23.4641 16.0785 23.4292 15.9383 23.4446 15.752C23.4779 15.35 24.7748 15.0494 25.9177 15.0317C26.0539 15.0295 26.1745 14.9431 26.2201 14.8148L26.5464 13.8974C26.5818 13.7976 26.5666 13.6864 26.5054 13.6002C26.4449 13.5134 26.3453 13.4618 26.2393 13.4618ZM24.8074 11.904C24.8136 11.9027 24.8218 11.9008 24.8322 11.9008C24.8635 11.9008 24.9127 11.916 24.9783 12.0046C24.9907 12.0212 25.0304 12.0779 25.0204 12.1028C24.983 12.1951 24.7577 12.3478 24.2885 12.486C24.4948 12.0833 24.6967 11.9263 24.8074 11.904ZM22.8373 16.1923C22.5058 16.0846 22.1681 15.9139 21.9343 15.6434C21.6773 15.3463 21.5824 14.9703 21.6447 14.4946C21.654 14.4696 21.6754 14.4204 21.7127 14.3564C22.1721 14.3143 23.3994 14.4953 23.4844 14.8468C23.1058 15.04 22.827 15.3117 22.7948 15.6979C22.7786 15.8917 22.7983 16.0558 22.8373 16.1923Z" fill="white"/>
<path d="M29.7909 8.77105L29.4646 7.7923C29.412 7.63499 29.2488 7.54096 29.0869 7.57658C28.9243 7.61137 28.8139 7.76258 28.8305 7.92796C29.0556 10.1791 29.4814 14.5691 29.4814 15.0725C29.4814 15.5246 28.6773 16.4147 27.3781 17.0644C27.217 17.145 27.1516 17.3408 27.2323 17.5021C27.2895 17.6165 27.4046 17.6824 27.5244 17.6824C27.5733 17.6824 27.6232 17.6712 27.67 17.648C28.8568 17.0545 30.1339 15.9955 30.1339 15.0725C30.1339 14.5906 29.8005 11.1225 29.6096 9.17436C29.7642 9.10836 29.845 8.93361 29.7909 8.77105Z" fill="white"/>
<path d="M32.5127 11.7149C32.5756 11.7777 32.659 11.8105 32.7436 11.8105C32.7987 11.8105 32.8543 11.7965 32.9047 11.7677C33.0323 11.6951 33.0957 11.546 33.0596 11.4036C33.0012 11.1743 32.9817 10.8875 33.0126 10.7703C33.176 10.7754 33.3277 10.6591 33.3517 10.4906C33.3771 10.3122 33.2533 10.1468 33.075 10.1214C32.8592 10.0921 32.6699 10.1555 32.5376 10.3026C32.4519 10.3982 32.4009 10.5209 32.3732 10.6528L31.9954 10.2749C31.868 10.1475 31.6616 10.1475 31.5342 10.2749C31.4068 10.4024 31.4068 10.6088 31.5342 10.7362L32.5127 11.7149Z" fill="white"/>
<path d="M33.2468 12.055L32.0235 12.9318C31.8772 13.0366 31.8433 13.2405 31.9483 13.387C32.0121 13.4759 32.1122 13.5231 32.2139 13.5231C32.2797 13.5231 32.3461 13.5033 32.4037 13.4619L33.627 12.5852C33.7733 12.4804 33.8072 12.2765 33.7022 12.1299C33.597 11.9833 33.3928 11.9492 33.2468 12.055Z" fill="white"/>
<path d="M33.1382 13.282C33.0356 13.4142 33.0503 13.6003 33.1668 13.7147C33.1808 13.7383 33.2445 13.8631 33.2329 14.1843C33.2266 14.3645 33.3674 14.5156 33.5474 14.5219C33.5513 14.5222 33.5553 14.5222 33.5592 14.5222C33.7341 14.5222 33.8788 14.3836 33.885 14.2078C33.9088 13.542 33.6909 13.2986 33.5961 13.2249C33.4542 13.1138 33.2489 13.14 33.1382 13.282Z" fill="white"/>
<path d="M35.9851 15.6843C36.1652 15.6843 36.3113 15.5384 36.3113 15.3581C36.3113 14.8767 36.2866 14.3394 36.2461 13.7803C36.5697 14.3104 36.8384 14.7991 37.0107 15.201C37.0636 15.325 37.1839 15.3988 37.3106 15.3988C37.3534 15.3988 37.397 15.3906 37.4389 15.3724C37.6045 15.3013 37.6812 15.1095 37.6101 14.9442C37.3114 14.2472 36.7532 13.324 36.1175 12.3708C35.9896 11.1734 35.8224 10.0002 35.6925 9.15856C35.7616 9.16559 35.8333 9.14872 35.8962 9.10784C35.9992 9.04184 36.0475 8.92719 36.0406 8.81309C36.0489 8.84516 36.0579 8.87731 36.0766 8.90684C36.0789 8.91003 36.2885 9.25625 36.1955 9.70559C36.159 9.88175 36.2725 10.0544 36.4489 10.091C36.4712 10.0954 36.4936 10.0977 36.5153 10.0977C36.6667 10.0977 36.8025 9.99162 36.8345 9.8375C36.9818 9.12481 36.6416 8.57947 36.6271 8.5565C36.5303 8.40481 36.3286 8.36028 36.1766 8.45647C36.0732 8.52237 36.0242 8.63713 36.0309 8.7515C36.0225 8.71925 36.0132 8.68681 35.9941 8.65728L35.4436 7.80097C35.3595 7.67028 35.1948 7.61741 35.0505 7.67356C34.9056 7.73028 34.8209 7.88094 34.8478 8.03384C34.8524 8.05953 35.1016 9.49109 35.3226 11.2166C35.0725 10.8634 34.8225 10.5181 34.5799 10.1885C34.5406 9.69491 34.501 9.23862 34.4668 8.86128C34.4848 8.85594 34.5025 8.84891 34.5198 8.84028C34.681 8.75966 34.7464 8.56372 34.6657 8.40256L34.3395 7.75016C34.2691 7.60934 34.1084 7.53922 33.9571 7.58253C33.8059 7.6265 33.7074 7.77172 33.7231 7.92847C33.762 8.31781 33.8025 8.74878 33.8422 9.2015C33.6359 8.92953 33.445 8.68053 33.2816 8.46969C33.3135 8.44231 33.3406 8.40828 33.3607 8.36806C33.4413 8.20691 33.376 8.01097 33.2148 7.93034L32.5624 7.6041C32.4256 7.53594 32.2594 7.57166 32.1628 7.69081C32.0666 7.80997 32.066 7.98003 32.1618 8.09984C32.1795 8.12178 32.9827 9.12866 33.9436 10.4282C34.1102 12.5836 34.2212 14.8258 34.0645 15.2959C34.0358 15.3819 33.9857 15.4832 33.9388 15.4868C33.7416 15.5141 33.271 15.0733 33.0346 14.6008C32.8984 14.3288 32.7025 14.3005 32.5977 14.3052C32.2471 14.3268 32.1103 14.7126 31.8616 15.4129C31.6834 15.9146 31.462 16.5385 31.2134 16.7936C31.0786 16.629 30.9045 16.0767 30.8077 15.5093C30.8531 15.6347 30.9706 15.7255 31.1117 15.7255C31.2919 15.7255 31.438 15.5796 31.438 15.3992C31.438 14.9126 31.0978 11.2076 30.9077 9.17703C31.0665 9.11328 31.1499 8.93591 31.0951 8.77147L30.7688 7.79272C30.7164 7.63541 30.5554 7.54259 30.3917 7.57672C30.2295 7.61113 30.1187 7.76178 30.1345 7.92688C30.3562 10.2541 30.7719 14.7492 30.7848 15.3697C30.784 15.3641 30.7829 15.3586 30.7821 15.353C30.7568 15.1746 30.5903 15.0522 30.413 15.0761C30.2346 15.1019 30.1109 15.267 30.1363 15.4453C30.2315 16.1122 30.475 17.2586 31.0356 17.4454C31.0799 17.4604 31.1395 17.4737 31.2094 17.4737C31.3381 17.4737 31.5014 17.4281 31.6685 17.2609C32.0238 16.9057 32.2643 16.2283 32.4765 15.6311C32.5244 15.496 32.5812 15.336 32.6346 15.1991C32.9339 15.6361 33.4561 16.1802 33.9851 16.1377C34.1711 16.1244 34.5094 16.0243 34.6834 15.5024C34.8569 14.982 34.7883 13.1671 34.6714 11.4296C34.9463 11.8148 35.2214 12.2093 35.4839 12.5988C35.5857 13.5758 35.6584 14.5545 35.6584 15.3584C35.6589 15.5383 35.805 15.6843 35.9851 15.6843Z" fill="white"/>
<path d="M38.4608 13.9685C38.2297 12.2469 37.9078 10.2526 37.7039 9.02857C37.796 9.05126 37.8963 9.0327 37.9772 8.97054C38.1205 8.86132 38.148 8.65639 38.0386 8.51342L37.4473 7.73858C37.3561 7.61942 37.1951 7.57742 37.0574 7.63761C36.9196 7.6978 36.8408 7.84442 36.8665 7.99254C36.8724 8.02592 37.4542 11.3749 37.814 14.0552C37.9514 15.0794 37.7508 15.9947 37.2769 16.5032C36.9723 16.8298 36.5687 16.9775 36.0802 16.9491C35.9009 16.9396 35.7454 17.0746 35.7341 17.2543C35.7229 17.434 35.8593 17.5889 36.0392 17.6002C36.0943 17.6038 36.1486 17.6053 36.2024 17.6053C36.8176 17.6053 37.3515 17.3798 37.7541 16.9477C38.369 16.2885 38.6266 15.2024 38.4608 13.9685Z" fill="white"/>
<path d="M34.8722 16.1189C34.7523 16.2492 34.7614 16.4543 34.8883 16.5774C34.906 16.5946 34.9272 16.6284 34.9273 16.645C34.9275 16.6542 34.9143 16.6817 34.878 16.718C34.7506 16.8454 34.7506 17.0518 34.878 17.1792C34.9417 17.243 35.0252 17.2748 35.1087 17.2748C35.1921 17.2748 35.2757 17.243 35.3394 17.1792C35.5463 16.9724 35.5843 16.7625 35.5796 16.6226C35.5695 16.3216 35.3645 16.1273 35.3236 16.0913C35.1902 15.9753 34.992 15.9893 34.8722 16.1189Z" fill="white"/>
<path d="M33.7221 23.2733H33.3958H31.4385V22.947C31.4385 22.7668 31.2924 22.6208 31.1123 22.6208C30.9321 22.6208 30.786 22.7667 30.786 22.947V23.2733H13.4959C14.1483 23.9257 15.4532 24.252 16.432 24.252C17.1339 24.252 25.8894 24.252 30.786 24.252V24.9044C30.786 25.0847 30.9321 25.2307 31.1123 25.2307H33.7221C34.2618 25.2307 34.7008 24.7917 34.7008 24.2519C34.7008 23.7122 34.2618 23.2733 33.7221 23.2733ZM33.7221 24.5782H31.4384V24.2519C33.0106 24.2519 34.0482 24.2519 34.0482 24.2519L33.9896 24.0764C34.0236 24.1277 34.0482 24.1858 34.0482 24.2519C34.0482 24.432 33.9019 24.5782 33.7221 24.5782Z" fill="white"/>
</g>
<defs>
<clipPath id="clip0_11_2973">
<rect width="48" height="32" fill="white"/>
</clipPath>
</defs>
</svg>
