<svg width="48" height="32" viewBox="0 0 48 32" fill="none" xmlns="http://www.w3.org/2000/svg">
<g clip-path="url(#clip0_11_2093)">
<path d="M47.1723 31.724H0.827623C0.370593 31.724 0 31.3535 0 30.8964V1.10338C0 0.646349 0.370593 0.275757 0.827623 0.275757H47.1724C47.6294 0.275757 48 0.646349 48 1.10338V30.8964C47.9999 31.3535 47.6293 31.724 47.1723 31.724Z" fill="#41479B"/>
<path d="M47.6948 0.475922L0.305389 31.524C0.448827 31.6434 0.626483 31.7241 0.82767 31.7241H47.1724C47.6295 31.7241 48 31.3535 48 30.8964V1.10339C48 0.847639 47.8771 0.627609 47.6948 0.475922Z" fill="#73AF00"/>
<path d="M47.9999 1.10338C47.9999 0.646349 47.6293 0.275757 47.1723 0.275757H45.7343L0 30.2397V30.8965C0 31.3535 0.370593 31.7241 0.827623 31.7241H2.26565L47.9999 1.76019V1.10338Z" fill="#FFE15A"/>
<path d="M4.1653 2.85416L3.72224 4.1825L2.32199 4.19338C2.18774 4.19441 2.13205 4.36578 2.24005 4.44556L3.36646 5.27741L2.94411 6.6125C2.90352 6.74056 3.04939 6.8464 3.15871 6.7684L4.29795 5.95419L5.4372 6.7684C5.54642 6.8465 5.6922 6.74056 5.6518 6.6125L5.22945 5.27741L6.35586 4.44556C6.46386 4.36578 6.40817 4.19441 6.27392 4.19338L4.87367 4.1825L4.43061 2.85416C4.38805 2.72675 4.20786 2.72675 4.1653 2.85416Z" fill="white"/>
<path d="M14.8325 2.85416L14.3894 4.1825L12.9892 4.19338C12.8549 4.19441 12.7992 4.36578 12.9072 4.44556L14.0336 5.27741L13.6113 6.6125C13.5707 6.74056 13.7166 6.8464 13.8259 6.7684L14.9651 5.95419L16.1044 6.7684C16.2136 6.8465 16.3594 6.74056 16.319 6.6125L15.8966 5.27741L17.023 4.44556C17.131 4.36578 17.0753 4.19441 16.9411 4.19338L15.5409 4.1825L15.0978 2.85416C15.0551 2.72675 14.8749 2.72675 14.8325 2.85416Z" fill="white"/>
<path d="M9.4987 7.60709L9.05564 8.93543L7.65539 8.94631C7.52114 8.94734 7.46546 9.11871 7.57346 9.19849L8.69986 10.0303L8.27752 11.3654C8.23692 11.4935 8.3828 11.5993 8.49211 11.5213L9.63136 10.7071L10.7706 11.5213C10.8798 11.5994 11.0256 11.4935 10.9852 11.3654L10.5629 10.0303L11.6893 9.19849C11.7973 9.11871 11.7416 8.94734 11.6073 8.94631L10.2071 8.93543L9.76402 7.60709C9.72127 7.47968 9.54117 7.47968 9.4987 7.60709Z" fill="white"/>
<path d="M4.1653 12.36L3.72224 13.6884L2.32199 13.6992C2.18774 13.7003 2.13205 13.8716 2.24005 13.9514L3.36646 14.7833L2.94411 16.1184C2.90352 16.2464 3.04939 16.3523 3.15871 16.2743L4.29795 15.46L5.4372 16.2743C5.54642 16.3524 5.6922 16.2464 5.6518 16.1184L5.22945 14.7833L6.35586 13.9514C6.46386 13.8716 6.40817 13.7003 6.27392 13.6992L4.87367 13.6884L4.43061 12.36C4.38805 12.2326 4.20786 12.2326 4.1653 12.36Z" fill="white"/>
<path d="M14.8325 12.36L14.3894 13.6884L12.9892 13.6992C12.8549 13.7003 12.7992 13.8716 12.9072 13.9514L14.0336 14.7833L13.6113 16.1184C13.5707 16.2464 13.7166 16.3523 13.8259 16.2743L14.9651 15.46L16.1044 16.2743C16.2136 16.3524 16.3594 16.2464 16.319 16.1184L15.8966 14.7833L17.023 13.9514C17.131 13.8716 17.0753 13.7003 16.9411 13.6992L15.5409 13.6884L15.0978 12.36C15.0551 12.2326 14.8749 12.2326 14.8325 12.36Z" fill="white"/>
</g>
<defs>
<clipPath id="clip0_11_2093">
<rect width="48" height="32" fill="white"/>
</clipPath>
</defs>
</svg>
