<svg width="48" height="32" viewBox="0 0 48 32" fill="none" xmlns="http://www.w3.org/2000/svg">
<g clip-path="url(#clip0_11_4868)">
<path d="M0.827535 31.7239H47.1723C47.6293 31.7239 47.9999 31.3533 47.9999 30.8963V21.2411L0.454597 31.6245C0.567941 31.683 0.691128 31.7239 0.827535 31.7239Z" fill="#73AF00"/>
<path d="M16 0.275513H0.827623C0.370593 0.275513 0 0.646105 0 1.10314V30.8961C0 31.081 0.0720936 31.2429 0.174562 31.3807L16 0.275513Z" fill="#41479B"/>
<path d="M0.245135 31.4832L32.0001 0.275635H16.0002L0.174728 31.3807C0.199478 31.4141 0.215603 31.4538 0.245135 31.4832Z" fill="#FFE15A"/>
<path d="M47.1725 0.275513H32.0001L0.245155 31.4831C0.279562 31.5173 0.325593 31.5365 0.36553 31.5642L48.0001 10.7582V1.10314C48.0001 0.646105 47.6295 0.275513 47.1725 0.275513Z" fill="#FF4B55"/>
<path d="M0.454687 31.6249L47.9998 21.2414V10.7588L0.36525 31.5647C0.394968 31.5853 0.422343 31.6084 0.454687 31.6249Z" fill="white"/>
</g>
<defs>
<clipPath id="clip0_11_4868">
<rect width="48" height="32" fill="white"/>
</clipPath>
</defs>
</svg>
