<svg width="48" height="32" viewBox="0 0 48 32" fill="none" xmlns="http://www.w3.org/2000/svg">
<g clip-path="url(#clip0_11_4054)">
<path d="M47.9999 10.7588H0V1.10359C0 0.646563 0.370593 0.27597 0.827623 0.27597H47.1724C47.6294 0.27597 48 0.646563 48 1.10359L47.9999 10.7588Z" fill="#FF4B55"/>
<path d="M47.1723 31.724H0.827623C0.370593 31.724 0 31.3534 0 30.8963V21.2412H47.9999V30.8963C47.9999 31.3535 47.6293 31.724 47.1723 31.724Z" fill="#464655"/>
<path d="M47.9999 10.7587H0V21.2408H47.9999V10.7587Z" fill="white"/>
<path d="M0.305249 31.524L19.3216 16.4288C19.5977 16.2096 19.5977 15.7902 19.3216 15.5709L0.305249 0.475891C0.122906 0.627672 0 0.847609 0 1.10336V30.8964C0 31.1522 0.122906 31.3722 0.305249 31.524Z" fill="#73AF00"/>
</g>
<defs>
<clipPath id="clip0_11_4054">
<rect width="48" height="32" fill="white"/>
</clipPath>
</defs>
</svg>
