<svg width="48" height="32" viewBox="0 0 48 32" fill="none" xmlns="http://www.w3.org/2000/svg">
<g clip-path="url(#clip0_11_4563)">
<path d="M47.9999 16.0001H0V1.1035C0 0.646472 0.370593 0.275879 0.827623 0.275879H47.1724C47.6294 0.275879 48 0.646472 48 1.1035L47.9999 16.0001Z" fill="#FF4B55"/>
<path d="M0 15.9999H47.9999V30.8965C47.9999 31.3535 47.6293 31.7241 47.1723 31.7241H0.827623C0.370593 31.7241 0 31.3535 0 30.8965V15.9999Z" fill="white"/>
<path d="M6.80331 8.14976C6.80331 5.42838 8.80018 3.17248 11.4076 2.7552C11.5492 2.73251 11.5556 2.53779 11.4159 2.50554C10.7703 2.35714 10.0847 2.31486 9.3728 2.41179C6.5605 2.79486 4.38663 5.2286 4.34688 8.0666C4.3016 11.3072 6.91403 13.9458 10.1392 13.9458C10.5782 13.9458 11.0045 13.8946 11.4148 13.8002C11.5544 13.7681 11.5473 13.5729 11.406 13.5502C8.79953 13.1332 6.80331 10.8817 6.80331 8.14976Z" fill="white"/>
<path d="M11.4507 9.60603L11.2057 10.3407L10.4314 10.3467C10.3312 10.3475 10.2896 10.4754 10.3703 10.5349L10.9932 10.9949L10.7596 11.7332C10.7294 11.8288 10.8382 11.9079 10.9197 11.8496L11.5497 11.3993L12.1797 11.8496C12.2612 11.9079 12.37 11.8287 12.3398 11.7332L12.1062 10.9949L12.7291 10.5349C12.8098 10.4753 12.7681 10.3475 12.6679 10.3467L11.8937 10.3407L11.6487 9.60603C11.6169 9.51096 11.4824 9.51096 11.4507 9.60603Z" fill="white"/>
<path d="M15.2781 9.60603L15.0331 10.3407L14.2588 10.3467C14.1586 10.3475 14.117 10.4754 14.1977 10.5349L14.8206 10.9949L14.5869 11.7332C14.5568 11.8288 14.6656 11.9079 14.7471 11.8496L15.3771 11.3993L16.0071 11.8496C16.0886 11.9079 16.1974 11.8287 16.1672 11.7332L15.9336 10.9949L16.5564 10.5349C16.6372 10.4753 16.5955 10.3475 16.4953 10.3467L15.721 10.3407L15.4761 9.60603C15.4443 9.51096 15.3099 9.51096 15.2781 9.60603Z" fill="white"/>
<path d="M13.3816 3.69923L13.1367 4.43385L12.3624 4.43985C12.2622 4.44069 12.2205 4.56857 12.3012 4.6281L12.9241 5.08813L12.6905 5.82641C12.6603 5.92203 12.7692 6.00106 12.8506 5.94275L13.4806 5.49247L14.1106 5.94275C14.1922 6.00106 14.3009 5.92194 14.2707 5.82641L14.0371 5.08813L14.66 4.6281C14.7407 4.56847 14.6991 4.44069 14.5989 4.43985L13.8246 4.43385L13.5796 3.69923C13.5478 3.60416 13.4133 3.60416 13.3816 3.69923Z" fill="white"/>
<path d="M10.3301 5.96198L10.0851 6.6966L9.31085 6.7026C9.21063 6.70345 9.16901 6.83132 9.24973 6.89085L9.8726 7.35088L9.63898 8.08916C9.60879 8.18478 9.71763 8.26381 9.7991 8.2055L10.4291 7.75522L11.0591 8.2055C11.1407 8.26381 11.2494 8.18469 11.2192 8.08916L10.9856 7.35088L11.6085 6.89085C11.6892 6.83123 11.6476 6.70345 11.5474 6.7026L10.7731 6.6966L10.5281 5.96198C10.4963 5.86692 10.3619 5.86692 10.3301 5.96198Z" fill="white"/>
<path d="M16.4076 5.96198L16.1626 6.6966L15.3884 6.7026C15.2881 6.70345 15.2465 6.83132 15.3272 6.89085L15.9501 7.35088L15.7165 8.08916C15.6863 8.18478 15.7951 8.26381 15.8766 8.2055L16.5066 7.75522L17.1366 8.2055C17.2182 8.26381 17.3269 8.18469 17.2967 8.08916L17.0631 7.35088L17.686 6.89085C17.7667 6.83123 17.7251 6.70345 17.6248 6.7026L16.8506 6.6966L16.6056 5.96198C16.5738 5.86692 16.4393 5.86692 16.4076 5.96198Z" fill="white"/>
</g>
<defs>
<clipPath id="clip0_11_4563">
<rect width="48" height="32" fill="white"/>
</clipPath>
</defs>
</svg>
