<svg width="48" height="32" viewBox="0 0 48 32" fill="none" xmlns="http://www.w3.org/2000/svg">
<g clip-path="url(#clip0_11_4946)">
<path d="M47.1722 31.7237H0.827622C0.370592 31.7237 0 31.3531 0 30.8961V1.10313C0 0.646105 0.370592 0.275513 0.827622 0.275513H47.1723C47.6293 0.275513 47.9999 0.646105 47.9999 1.10313V30.8961C47.9998 31.3531 47.6292 31.7237 47.1722 31.7237Z" fill="#41479B"/>
<path d="M47.9998 1.10313C47.9998 0.646105 47.6292 0.275513 47.1722 0.275513H43.4696L28.1377 10.3205V0.275513H19.8619V10.3205L4.53017 0.275513H0.827622C0.370592 0.275513 0 0.646105 0 1.10313V3.24353L13.1539 11.8617H0V20.1375H13.1539L0 28.7557V30.8961C0 31.3531 0.370592 31.7237 0.827622 31.7237H4.53026L19.8621 21.6787V31.7237H28.1379V21.6787L43.4697 31.7237H47.1724C47.6294 31.7237 48 31.3531 48 30.8961V28.7557L34.8461 20.1376H47.9998V11.8617H34.8459L47.9998 3.24353V1.10313Z" fill="white"/>
<path d="M47.9998 13.5169H26.4827V0.275513H21.5171V13.5169H0V18.4823H21.5171V31.7237H26.4827V18.4823H47.9998V13.5169Z" fill="#FF4B55"/>
<path d="M16.7764 20.1379L0.0234375 31.0126C0.0820313 31.4123 0.411563 31.7242 0.827531 31.7242H1.96744L19.8165 20.138H16.7764V20.1379Z" fill="#FF4B55"/>
<path d="M32.4736 20.1379H29.4334L47.2565 31.707C47.6719 31.6628 47.9998 31.3236 47.9998 30.8964V30.216L32.4736 20.1379Z" fill="#FF4B55"/>
<path d="M0 2.01646L15.1668 11.8615H18.2069L0.482156 0.355957C0.199031 0.487488 0 0.770144 0 1.10286V2.01646Z" fill="#FF4B55"/>
<path d="M31.178 11.8618L47.9712 0.960854C47.9014 0.574416 47.5789 0.275635 47.1723 0.275635H45.9867L28.1379 11.8618H31.178Z" fill="#FF4B55"/>
</g>
<defs>
<clipPath id="clip0_11_4946">
<rect width="48" height="32" fill="white"/>
</clipPath>
</defs>
</svg>
