<svg width="48" height="32" viewBox="0 0 48 32" fill="none" xmlns="http://www.w3.org/2000/svg">
<g clip-path="url(#clip0_11_815)">
<path d="M47.9999 10.7588H0V1.10362C0 0.646594 0.370593 0.276001 0.827623 0.276001H47.1724C47.6294 0.276001 48 0.646594 48 1.10362L47.9999 10.7588Z" fill="white"/>
<path d="M47.1723 31.7242H0.827623C0.370593 31.7242 0 31.3536 0 30.8966V21.2415H47.9999V30.8966C47.9999 31.3537 47.6293 31.7242 47.1723 31.7242Z" fill="#FF4B55"/>
<path d="M47.9999 10.7584H0V21.2406H47.9999V10.7584Z" fill="#41479B"/>
<path d="M16.1263 6.75347C16.1263 6.75347 15.9596 12.0623 15.2147 13.5531C14.2926 15.3855 13.3655 15.92 11.9862 16.4139C10.607 15.9201 9.67991 15.386 8.7576 13.5531C8.01276 12.0622 7.84588 6.75403 7.84598 6.75347C10.4782 5.565 13.4941 5.565 16.1263 6.75347Z" fill="#41479B"/>
<path d="M13.1853 14.1153C13.0844 14.0506 13.0117 14.0043 12.8461 14.0043C12.681 14.0043 12.6083 14.0506 12.5079 14.1153C12.3928 14.1886 12.2498 14.2802 11.9838 14.2802C11.7177 14.2802 11.5746 14.1886 11.4596 14.115C11.3592 14.0507 11.2866 14.0045 11.1215 14.0045C10.9564 14.0045 10.8838 14.0507 10.7834 14.115C10.6748 14.1846 10.5374 14.2676 10.2987 14.2769C10.8013 14.8898 11.3283 15.1806 11.986 15.4331C12.6433 15.1805 13.1702 14.89 13.6729 14.2771C13.4324 14.2683 13.2943 14.1848 13.1853 14.1153Z" fill="white"/>
<path d="M9.92187 13.1347C10.0223 13.1989 10.0946 13.2452 10.2592 13.2452C10.4243 13.2452 10.4968 13.1989 10.5972 13.1347C10.7123 13.061 10.8553 12.9694 11.1213 12.9694C11.3873 12.9694 11.5303 13.0611 11.6454 13.1343C11.7458 13.199 11.8185 13.2453 11.9836 13.2453C12.1487 13.2453 12.2213 13.1991 12.3217 13.1349C12.4367 13.0612 12.5798 12.9696 12.8459 12.9696C13.1123 12.9696 13.2556 13.0613 13.3706 13.1345C13.4715 13.1992 13.544 13.2455 13.7096 13.2455C13.8753 13.2455 13.948 13.1993 14.0488 13.1345C14.1449 13.0733 14.2656 13.0024 14.4566 12.9798C14.5067 12.8494 14.5554 12.7008 14.6006 12.5204L13.366 10.4626L12.9059 11.3826L11.9859 9.5426L11.0658 11.3826L10.6058 10.4626L9.37184 12.5192C9.41693 12.6995 9.46549 12.8488 9.51565 12.9799C9.70596 13.0023 9.82606 13.0732 9.92187 13.1347Z" fill="white"/>
<path d="M14.2341 13.4254C14.119 13.4986 13.9758 13.5903 13.7094 13.5903C13.4432 13.5903 13.3 13.4986 13.1849 13.4254C13.084 13.3607 13.0113 13.3144 12.8457 13.3144C12.6806 13.3144 12.6079 13.3606 12.5075 13.4254C12.3925 13.4986 12.2494 13.5903 11.9834 13.5903C11.7173 13.5903 11.5742 13.4986 11.4592 13.425C11.3588 13.3608 11.2862 13.3146 11.1211 13.3146C10.956 13.3146 10.8835 13.3608 10.7831 13.425C10.668 13.4987 10.525 13.5903 10.259 13.5903C9.99321 13.5903 9.85034 13.4986 9.73568 13.425C9.73512 13.4247 9.73465 13.4244 9.73409 13.424C9.82428 13.5877 9.91437 13.738 10.0042 13.8743C10.0713 13.9111 10.1415 13.9353 10.259 13.9353C10.4241 13.9353 10.4966 13.8891 10.5971 13.8249C10.7121 13.7512 10.8551 13.6596 11.1211 13.6596C11.3871 13.6596 11.5301 13.7513 11.6452 13.8245C11.7456 13.8892 11.8183 13.9355 11.9834 13.9355C12.1485 13.9355 12.2211 13.8893 12.3215 13.825C12.4365 13.7514 12.5796 13.6598 12.8457 13.6598C13.1121 13.6598 13.2554 13.7515 13.3705 13.8247C13.4713 13.8894 13.5438 13.9357 13.7095 13.9357C13.8287 13.9357 13.8995 13.9111 13.9676 13.8735C14.0574 13.7374 14.1474 13.5871 14.2375 13.4236C14.2363 13.4241 14.2353 13.4247 14.2341 13.4254Z" fill="white"/>
<path d="M12.0045 7.95825L12.0852 8.22207L12.354 8.1601C12.3722 8.15588 12.3849 8.17791 12.3722 8.1915L12.1841 8.39335L12.3722 8.59519C12.3849 8.60888 12.3723 8.63091 12.354 8.6266L12.0852 8.56463L12.0045 8.82844C11.999 8.84635 11.9736 8.84635 11.9682 8.82844L11.8875 8.56463L11.6187 8.6266C11.6005 8.63082 11.5878 8.60878 11.6005 8.59519L11.7886 8.39335L11.6005 8.1915C11.5878 8.17782 11.6004 8.15578 11.6187 8.1601L11.8875 8.22207L11.9682 7.95825C11.9737 7.94035 11.999 7.94035 12.0045 7.95825Z" fill="#FFE15A"/>
<path d="M10.6819 6.6908L10.7626 6.95461L11.0314 6.89264C11.0496 6.88842 11.0623 6.91045 11.0496 6.92405L10.8615 7.12589L11.0496 7.32773C11.0623 7.34142 11.0497 7.36345 11.0314 7.35914L10.7626 7.29717L10.6819 7.56098C10.6765 7.57889 10.6511 7.57889 10.6456 7.56098L10.5649 7.29717L10.2961 7.35914C10.2779 7.36336 10.2652 7.34133 10.2779 7.32773L10.466 7.12589L10.2779 6.92405C10.2652 6.91036 10.2778 6.88833 10.2961 6.89264L10.5649 6.95461L10.6456 6.6908C10.6511 6.67289 10.6764 6.67289 10.6819 6.6908Z" fill="#FFE15A"/>
<path d="M13.3366 6.6908L13.4173 6.95461L13.6861 6.89264C13.7043 6.88842 13.717 6.91045 13.7043 6.92405L13.5162 7.12589L13.7043 7.32773C13.717 7.34142 13.7044 7.36345 13.6861 7.35914L13.4173 7.29717L13.3366 7.56098C13.3312 7.57889 13.3058 7.57889 13.3003 7.56098L13.2196 7.29717L12.9508 7.35914C12.9326 7.36336 12.9199 7.34133 12.9326 7.32773L13.1207 7.12589L12.9326 6.92405C12.9199 6.91036 12.9325 6.88833 12.9508 6.89264L13.2196 6.95461L13.3003 6.6908C13.3059 6.67289 13.3312 6.67289 13.3366 6.6908Z" fill="#FFE15A"/>
<path d="M15.65 6.55359C15.6528 6.70031 15.6552 6.84834 15.6552 7.00818C15.5888 8.66793 15.3418 12.2824 14.8037 13.371C14.0103 14.9644 13.2778 15.4911 11.9861 15.9764C10.6944 15.4911 9.96192 14.9646 9.16908 13.3722C8.62899 12.2795 8.38027 8.60353 8.3168 7.00828C8.3168 6.84825 8.31942 6.7019 8.32167 6.55396C8.16249 6.61631 8.00424 6.68221 7.84749 6.75299C7.85855 7.07531 7.9388 9.18974 8.17983 11.0489C8.31577 12.0868 8.50289 13.0433 8.75761 13.5532C9.67983 15.3861 10.6069 15.9202 11.9862 16.414C13.3655 15.9201 14.2925 15.3857 15.2148 13.5532C15.4696 13.0433 15.6567 12.0868 15.7927 11.0489C16.0336 9.18974 16.1138 7.07531 16.1249 6.75299C15.9679 6.68203 15.8096 6.61593 15.65 6.55359Z" fill="#FF1722"/>
</g>
<defs>
<clipPath id="clip0_11_815">
<rect width="48" height="32" fill="white"/>
</clipPath>
</defs>
</svg>
