<svg width="48" height="32" viewBox="0 0 48 32" fill="none" xmlns="http://www.w3.org/2000/svg">
<g clip-path="url(#clip0_11_2184)">
<path d="M47.9999 10.7587H0V1.10347C0 0.646441 0.370593 0.275848 0.827623 0.275848H47.1724C47.6294 0.275848 48 0.646441 48 1.10347L47.9999 10.7587Z" fill="white"/>
<path d="M47.1723 31.7242H0.827623C0.370593 31.7242 0 31.3536 0 30.8965V21.2414H47.9999V30.8965C47.9999 31.3537 47.6293 31.7242 47.1723 31.7242Z" fill="#FF4B55"/>
<path d="M47.9999 10.7585H0V21.2407H47.9999V10.7585Z" fill="#41479B"/>
<path d="M12.2085 23.808C11.9636 23.6673 6.20687 20.319 6.20687 15.1724V8.138H18.6207V15.1724C18.6207 20.319 12.8639 23.6673 12.619 23.808L12.4138 23.9251L12.2085 23.808Z" fill="#FF4B55"/>
<path d="M15.6651 13.9311L13.7143 14.188H13.0641V13.0239H13.4542L15.0148 13.2808L14.8035 12.3736L15.0148 11.4664L13.4542 11.7233H13.0641V11.3301L13.321 9.37933L12.4139 9.64361L11.5068 9.37933L11.7636 11.3301V11.7233H11.3734L9.8129 11.4664L10.0242 12.3736L9.8129 13.2808L11.3734 13.0239H11.7636V14.188H11.1134L9.16265 13.9311L9.42684 14.8382L9.16265 15.7454L11.1134 15.4884H11.7636V18.4828H13.0641V15.4884H13.7143L15.6651 15.7454L15.4009 14.8382L15.6651 13.9311Z" fill="white"/>
<path d="M12.414 17.2414C11.5592 17.2414 10.826 17.76 10.5107 18.4994C10.455 18.4948 10.4017 18.4827 10.345 18.4827C9.24336 18.4827 8.35133 19.3462 8.28815 20.4319C9.96392 22.4948 12.0629 23.724 12.2088 23.8079L12.414 23.9251L12.6192 23.8079C12.7651 23.724 14.864 22.4949 16.5398 20.4319C16.4766 19.3462 15.5846 18.4827 14.4829 18.4827C14.4262 18.4827 14.373 18.4948 14.3173 18.4994C14.0019 17.76 13.2688 17.2414 12.414 17.2414Z" fill="#41479B"/>
<path d="M18.2069 8.5518C18.2069 8.5518 18.2069 13.5174 18.2069 15.1725C18.2069 20.1381 12.4138 23.4484 12.4138 23.4484C12.4138 23.4484 6.62073 20.1381 6.62073 15.1725C6.62073 13.5174 6.62073 8.5518 6.62073 8.5518H18.2069ZM19.0344 7.72418H18.2068H6.62073H5.79311V8.5518V15.1725C5.79311 20.5564 11.7497 24.0219 12.0032 24.1669L12.4138 24.4015L12.8244 24.1669C13.078 24.0219 19.0345 20.5563 19.0345 15.1725V8.5518V7.72418H19.0344Z" fill="white"/>
</g>
<defs>
<clipPath id="clip0_11_2184">
<rect width="48" height="32" fill="white"/>
</clipPath>
</defs>
</svg>
