<svg width="48" height="32" viewBox="0 0 48 32" fill="none" xmlns="http://www.w3.org/2000/svg">
<g clip-path="url(#clip0_11_2311)">
<path d="M47.9999 15.9999H0V1.10338C0 0.646349 0.370593 0.275757 0.827623 0.275757H47.1724C47.6294 0.275757 48 0.646349 48 1.10338L47.9999 15.9999Z" fill="white"/>
<path d="M0 15.9999H47.9999V30.8965C47.9999 31.3535 47.6293 31.7241 47.1723 31.7241H0.827623C0.370593 31.7241 0 31.3535 0 30.8965V15.9999Z" fill="#82AFFF"/>
<path d="M24.0768 22.7481C23.9366 22.742 20.6276 22.5728 18.967 20.2975C17.9991 18.9717 17.806 17.2082 18.3929 15.0562L18.63 15.1209C18.064 17.1968 18.2438 18.8892 19.1648 20.1517C20.7546 22.3313 24.0542 22.5011 24.0876 22.5025L24.0768 22.7481Z" fill="#B46446"/>
<path d="M18.3907 14.1021C18.2276 14.5271 18.2648 14.9721 18.4537 15.3094C18.8199 15.1852 19.1453 14.8794 19.3085 14.4544C19.4717 14.0294 19.4345 13.5844 19.2455 13.2471C18.8793 13.3713 18.5539 13.677 18.3907 14.1021Z" fill="#41AA5A"/>
<path d="M20.4633 19.9772C20.2822 20.276 20.2347 20.6766 20.3689 21.0655C20.4942 21.4288 20.7527 21.6969 21.0524 21.8322C20.7613 21.6795 20.3911 21.6414 20.0277 21.7667C19.6388 21.9008 19.3527 22.1851 19.2289 22.5118C19.5277 22.6929 19.9282 22.7405 20.3172 22.6063C20.7061 22.4722 20.9922 22.1878 21.1159 21.8611L21.1156 21.8609C21.2952 21.5625 21.3422 21.1635 21.2086 20.776C21.0744 20.3871 20.7902 20.1009 20.4633 19.9772Z" fill="#41AA5A"/>
<path d="M19.7547 18.8927C19.4754 19.1024 19.2819 19.4564 19.2613 19.8673C19.2421 20.2512 19.3821 20.5962 19.6096 20.8334C19.3963 20.5833 19.067 20.4098 18.6834 20.3906C18.2726 20.3699 17.901 20.5272 17.6644 20.7842C17.8741 21.0636 18.2281 21.2571 18.6388 21.2776C19.0497 21.2982 19.4212 21.141 19.6578 20.884C19.6577 20.8839 19.6576 20.8838 19.6576 20.8838C19.9354 20.6737 20.1278 20.321 20.1484 19.9116C20.1689 19.5008 20.0118 19.1292 19.7547 18.8927Z" fill="#41AA5A"/>
<path d="M19.4484 17.67C19.1105 17.7588 18.7977 18.0136 18.6237 18.3862C18.4609 18.7345 18.4604 19.1069 18.5816 19.4124C18.4784 19.1003 18.239 18.8153 17.8908 18.6526C17.5181 18.4786 17.1148 18.4838 16.7987 18.6326C16.8875 18.9705 17.1423 19.2833 17.5149 19.4573C17.8876 19.6314 18.291 19.6262 18.607 19.4774C18.607 19.4774 18.6069 19.4771 18.6068 19.477C18.9434 19.3874 19.2547 19.1334 19.4281 18.7621C19.6024 18.3897 19.5973 17.9861 19.4484 17.67Z" fill="#41AA5A"/>
<path d="M19.6221 16.4567C19.2744 16.4221 18.8925 16.5521 18.5995 16.8407C18.3257 17.1105 18.1953 17.4594 18.2025 17.788C18.2146 17.4596 18.0894 17.1089 17.8197 16.8352C17.5309 16.5421 17.1511 16.4066 16.803 16.4359C16.7684 16.7836 16.8982 17.1654 17.187 17.4585C17.4757 17.7517 17.8556 17.8872 18.2037 17.8578C18.2037 17.8578 18.2037 17.8575 18.2037 17.8572C18.5505 17.8905 18.9307 17.7611 19.2228 17.4733C19.5159 17.1848 19.6515 16.8048 19.6221 16.4567Z" fill="#41AA5A"/>
<path d="M19.868 15.3019C19.5308 15.2102 19.1327 15.2752 18.7959 15.5113C18.4812 15.7321 18.2949 16.0545 18.2477 16.3799C18.314 16.058 18.2485 15.6916 18.0279 15.377C17.7918 15.0403 17.4396 14.8437 17.0913 14.815C16.9996 15.1521 17.0646 15.5503 17.3007 15.887C17.5369 16.2238 17.8891 16.4204 18.2374 16.449C18.2374 16.4489 18.2374 16.4488 18.2374 16.4488C18.5738 16.5389 18.9703 16.474 19.3059 16.2386C19.6427 16.0023 19.8393 15.6501 19.868 15.3019Z" fill="#41AA5A"/>
<path d="M19.9659 21.9288C20.1073 21.9288 20.2219 21.8142 20.2219 21.6728C20.2219 21.5314 20.1073 21.4168 19.9659 21.4168C19.8245 21.4168 19.7099 21.5314 19.7099 21.6728C19.7099 21.8142 19.8245 21.9288 19.9659 21.9288Z" fill="#FFE15A"/>
<path d="M21.1424 22.0722C21.2838 22.0722 21.3984 21.9576 21.3984 21.8162C21.3984 21.6748 21.2838 21.5602 21.1424 21.5602C21.001 21.5602 20.8864 21.6748 20.8864 21.8162C20.8864 21.9576 21.001 22.0722 21.1424 22.0722Z" fill="#FFE15A"/>
<path d="M19.2899 19.9938C19.4313 19.9938 19.5459 19.8792 19.5459 19.7378C19.5459 19.5964 19.4313 19.4818 19.2899 19.4818C19.1485 19.4818 19.0339 19.5964 19.0339 19.7378C19.0339 19.8792 19.1485 19.9938 19.2899 19.9938Z" fill="#FFE15A"/>
<path d="M17.6616 18.0682C17.803 18.0682 17.9176 17.9535 17.9176 17.8121C17.9176 17.6707 17.803 17.5561 17.6616 17.5561C17.5202 17.5561 17.4055 17.6707 17.4055 17.8121C17.4055 17.9535 17.5202 18.0682 17.6616 18.0682Z" fill="#FFE15A"/>
<path d="M18.7986 16.7651C18.9401 16.7651 19.0547 16.6505 19.0547 16.509C19.0547 16.3676 18.9401 16.253 18.7986 16.253C18.6572 16.253 18.5426 16.3676 18.5426 16.509C18.5426 16.6505 18.6572 16.7651 18.7986 16.7651Z" fill="#FFE15A"/>
<path d="M18.3675 15.4282C18.5089 15.4282 18.6235 15.3136 18.6235 15.1722C18.6235 15.0308 18.5089 14.9161 18.3675 14.9161C18.2261 14.9161 18.1115 15.0308 18.1115 15.1722C18.1115 15.3136 18.2261 15.4282 18.3675 15.4282Z" fill="#FFE15A"/>
<path d="M24.0874 22.7481L24.0766 22.5022C24.1099 22.501 27.4096 22.331 28.9994 20.1515C29.9204 18.8891 30.1002 17.1966 29.5342 15.1207L29.7713 15.056C30.3582 17.208 30.165 18.9715 29.1972 20.2972C27.5367 22.5727 24.2277 22.7421 24.0874 22.7481Z" fill="#B46446"/>
<path d="M29.7736 14.1021C29.9367 14.5271 29.8995 14.9721 29.7106 15.3094C29.3444 15.1852 29.019 14.8794 28.8558 14.4544C28.6927 14.0294 28.7299 13.5844 28.9188 13.2471C29.285 13.3713 29.6104 13.677 29.7736 14.1021Z" fill="#41AA5A"/>
<path d="M27.7008 19.9772C27.8819 20.276 27.9295 20.6766 27.7952 21.0655C27.67 21.4288 27.4114 21.6969 27.1118 21.8322C27.4029 21.6795 27.7731 21.6414 28.1365 21.7667C28.5253 21.9008 28.8115 22.1851 28.9352 22.5118C28.6364 22.6929 28.2359 22.7405 27.847 22.6063C27.4581 22.4722 27.172 22.1878 27.0482 21.8611C27.0483 21.861 27.0485 21.861 27.0485 21.861C26.8691 21.5624 26.8221 21.1634 26.9557 20.776C27.0897 20.3871 27.3741 20.1009 27.7008 19.9772Z" fill="#41AA5A"/>
<path d="M28.4096 18.8927C28.6889 19.1024 28.8824 19.4564 28.903 19.8673C28.9222 20.2512 28.7822 20.5962 28.5547 20.8334C28.768 20.5833 29.0973 20.4098 29.4809 20.3906C29.8917 20.3699 30.2633 20.5272 30.4999 20.7842C30.2902 21.0636 29.9362 21.2571 29.5254 21.2776C29.1145 21.2982 28.743 21.141 28.5064 20.884C28.5065 20.8839 28.5066 20.8838 28.5066 20.8838C28.2288 20.6737 28.0363 20.321 28.0158 19.9116C27.9953 19.5008 28.1525 19.1292 28.4096 18.8927Z" fill="#41AA5A"/>
<path d="M28.7158 17.67C29.0537 17.7588 29.3666 18.0136 29.5406 18.3862C29.7033 18.7345 29.7039 19.1069 29.5826 19.4124C29.6858 19.1003 29.9252 18.8153 30.2734 18.6526C30.6461 18.4786 31.0495 18.4838 31.3655 18.6326C31.2767 18.9705 31.0219 19.2833 30.6493 19.4573C30.2766 19.6314 29.8733 19.6262 29.5572 19.4774C29.5572 19.4774 29.5573 19.4771 29.5574 19.477C29.2208 19.3874 28.9095 19.1334 28.7361 18.7621C28.5617 18.3897 28.567 17.9861 28.7158 17.67Z" fill="#41AA5A"/>
<path d="M28.5421 16.4567C28.8898 16.4221 29.2718 16.5521 29.5647 16.8407C29.8386 17.1105 29.969 17.4594 29.9618 17.788C29.9497 17.4596 30.0748 17.1089 30.3445 16.8352C30.6333 16.5421 31.0132 16.4066 31.3613 16.4359C31.3958 16.7836 31.266 17.1654 30.9773 17.4585C30.6885 17.7517 30.3086 17.8872 29.9605 17.8578C29.9605 17.8578 29.9605 17.8575 29.9605 17.8572C29.6138 17.8905 29.2335 17.7611 28.9415 17.4733C28.6483 17.1848 28.5128 16.8048 28.5421 16.4567Z" fill="#41AA5A"/>
<path d="M28.2962 15.3019C28.6333 15.2102 29.0315 15.2752 29.3682 15.5113C29.683 15.7321 29.8692 16.0545 29.9165 16.3799C29.8502 16.058 29.9156 15.6916 30.1362 15.377C30.3724 15.0403 30.7246 14.8437 31.0729 14.815C31.1646 15.1521 31.0996 15.5503 30.8635 15.887C30.6273 16.2238 30.2751 16.4204 29.9268 16.449C29.9268 16.4489 29.9268 16.4488 29.9268 16.4488C29.5904 16.5389 29.1939 16.474 28.8582 16.2386C28.5215 16.0023 28.3249 15.6501 28.2962 15.3019Z" fill="#41AA5A"/>
<path d="M28.1989 21.9288C28.3403 21.9288 28.4549 21.8142 28.4549 21.6728C28.4549 21.5314 28.3403 21.4168 28.1989 21.4168C28.0575 21.4168 27.9429 21.5314 27.9429 21.6728C27.9429 21.8142 28.0575 21.9288 28.1989 21.9288Z" fill="#FFE15A"/>
<path d="M27.0206 22.0722C27.162 22.0722 27.2766 21.9576 27.2766 21.8162C27.2766 21.6748 27.162 21.5602 27.0206 21.5602C26.8792 21.5602 26.7645 21.6748 26.7645 21.8162C26.7645 21.9576 26.8792 22.0722 27.0206 22.0722Z" fill="#FFE15A"/>
<path d="M28.874 19.9938C29.0154 19.9938 29.13 19.8792 29.13 19.7378C29.13 19.5964 29.0154 19.4818 28.874 19.4818C28.7326 19.4818 28.618 19.5964 28.618 19.7378C28.618 19.8792 28.7326 19.9938 28.874 19.9938Z" fill="#FFE15A"/>
<path d="M30.5025 18.0682C30.6439 18.0682 30.7586 17.9535 30.7586 17.8121C30.7586 17.6707 30.6439 17.5561 30.5025 17.5561C30.3611 17.5561 30.2465 17.6707 30.2465 17.8121C30.2465 17.9535 30.3611 18.0682 30.5025 18.0682Z" fill="#FFE15A"/>
<path d="M29.3662 16.7651C29.5076 16.7651 29.6222 16.6505 29.6222 16.509C29.6222 16.3676 29.5076 16.253 29.3662 16.253C29.2248 16.253 29.1101 16.3676 29.1101 16.509C29.1101 16.6505 29.2248 16.7651 29.3662 16.7651Z" fill="#FFE15A"/>
<path d="M29.7975 15.4282C29.939 15.4282 30.0536 15.3136 30.0536 15.1722C30.0536 15.0308 29.939 14.9161 29.7975 14.9161C29.6561 14.9161 29.5415 15.0308 29.5415 15.1722C29.5415 15.3136 29.6561 15.4282 29.7975 15.4282Z" fill="#FFE15A"/>
<path d="M25.523 14.1478H22.5863C21.6722 14.1478 20.9312 14.8888 20.9312 15.803V18.39C20.9312 19.3042 21.6722 20.0451 22.5863 20.0451H25.523C26.4371 20.0451 27.1782 19.3042 27.1782 18.39V15.803C27.1782 14.8888 26.4372 14.1478 25.523 14.1478Z" fill="#8CD7FF"/>
<path d="M24.5393 16.3992V16.727H24.2117V16.3992H23.9594V16.727H23.6317V16.3992H23.4268V17.0546L23.5906 17.2622V19.676H24.5736V17.2622L24.7374 17.0546V16.3992H24.5393Z" fill="white"/>
<path d="M24.1298 15.3616C24.2919 15.283 24.3347 15.6143 24.3347 15.6143C24.676 15.4435 24.587 15.1665 24.5054 15.034C24.3962 14.8565 23.9593 14.7882 23.775 15.1569C23.5907 15.5257 24.0891 16.2561 24.0891 16.2561C24.1161 16.0307 23.9181 15.4641 24.1298 15.3616Z" fill="white"/>
<path d="M26.2239 17.0102V17.3379H25.8961V17.0102H25.6438V17.3379H25.3161V17.0102H25.1111V17.6657L25.275 17.8732V20.287H26.2581V17.8732L26.4219 17.6657V17.0102H26.2239Z" fill="white"/>
<path d="M25.8144 15.9726C25.9765 15.894 26.0192 16.2252 26.0192 16.2252C26.3606 16.0545 26.2715 15.7775 26.19 15.645C26.0807 15.4675 25.6439 15.3992 25.4596 15.7679C25.2752 16.1366 25.7736 16.867 25.7736 16.867C25.8008 16.6417 25.6029 16.075 25.8144 15.9726Z" fill="white"/>
<path d="M22.8549 17.0102V17.3379H22.5272V17.0102H22.2749V17.3379H21.9472V17.0102H21.7422V17.6657L21.9061 17.8732V20.287H22.8891V17.8732L23.053 17.6657V17.0102H22.8549Z" fill="white"/>
<path d="M22.4452 15.9726C22.6073 15.894 22.6501 16.2252 22.6501 16.2252C22.9914 16.0545 22.9024 15.7775 22.8208 15.645C22.7116 15.4675 22.2747 15.3992 22.0904 15.7679C21.9061 16.1366 22.4045 16.867 22.4045 16.867C22.4317 16.6417 22.2337 16.075 22.4452 15.9726Z" fill="white"/>
<path d="M26.7706 19.8508C26.5518 19.7426 26.3088 19.676 26.0482 19.676C25.7689 19.676 25.51 19.7525 25.2798 19.8757C24.9807 19.5533 24.5567 19.3484 24.0821 19.3484C23.6074 19.3484 23.1837 19.5533 22.8843 19.8757C22.6542 19.7525 22.3952 19.676 22.116 19.676C21.8552 19.676 21.6122 19.7426 21.3935 19.8508C21.8613 20.7088 22.7572 22.0953 24.0821 22.6251C25.407 22.0953 26.3028 20.7088 26.7706 19.8508Z" fill="#6EC86E"/>
<path d="M24.0672 8.87004L24.082 8.86273C24.082 8.86273 24.0771 8.86395 24.0672 8.87004Z" fill="#FFE15A"/>
<path d="M24.0821 8.86273L24.0969 8.87004C24.087 8.86395 24.0821 8.86273 24.0821 8.86273Z" fill="#FFE15A"/>
<path d="M27.2257 10.2656C27.1335 9.7332 26.4475 9.64095 25.659 9.58976C24.8705 9.53857 24.5326 9.08801 24.5326 9.08801H23.6314C23.6314 9.08801 23.2935 9.53857 22.505 9.58976C21.7166 9.64095 21.0304 9.7331 20.9383 10.2656C20.8461 10.798 21.522 11.6377 21.522 11.6377L22.1159 11.1565C22.1159 11.1565 21.3888 10.4602 21.7471 10.2042C22.1011 9.95135 23.133 10.1265 23.5925 9.51954C23.5731 9.64639 23.5799 9.80295 23.6585 9.99589C23.8087 10.3646 23.7541 10.8288 23.7541 10.8288H24.0819H24.4096C24.4096 10.8288 24.355 10.3645 24.5053 9.99589C24.5839 9.80295 24.5909 9.6462 24.5713 9.51954C25.0309 10.1265 26.0628 9.95135 26.4166 10.2042C26.775 10.4602 26.0479 11.1565 26.0479 11.1565L26.6418 11.6377C26.642 11.6377 27.3179 10.798 27.2257 10.2656Z" fill="#FFE15A"/>
<path d="M24.4165 7.24479H24.2458V7.06048C24.2458 6.96992 24.1725 6.89661 24.0819 6.89661C23.9913 6.89661 23.918 6.96992 23.918 7.06048V7.24479H23.7404C23.6499 7.24479 23.5766 7.3181 23.5766 7.40867C23.5766 7.49923 23.6499 7.57254 23.7404 7.57254H23.918V8.04354C23.918 8.1341 23.9913 8.20741 24.0819 8.20741C24.1725 8.20741 24.2458 8.1341 24.2458 8.04354V7.57254H24.4165C24.507 7.57254 24.5804 7.49923 24.5804 7.40867C24.5804 7.3181 24.507 7.24479 24.4165 7.24479Z" fill="#FFE15A"/>
<path d="M24.0815 8.5352C24.2625 8.5352 24.4092 8.38846 24.4092 8.20745C24.4092 8.02644 24.2625 7.8797 24.0815 7.8797C23.9005 7.8797 23.7537 8.02644 23.7537 8.20745C23.7537 8.38846 23.9005 8.5352 24.0815 8.5352Z" fill="#FFF0E1"/>
<path d="M21.7338 14.8018C21.8658 14.8677 22.0199 14.9247 22.1775 14.9247C22.7204 14.9247 22.9865 14.6177 22.9865 14.0748C22.9865 13.5319 22.6589 13.1225 22.1161 13.1225C22.1161 13.1225 22.0549 13.1235 21.9568 13.1385C21.9357 13.1419 21.9148 13.1451 21.8942 13.1498C21.3723 13.2493 20.0825 13.7302 19.8223 16.0716C19.4587 19.3446 22.1161 22.2975 24.0822 22.9528V22.6251C24.0821 22.6252 19.44 19.0753 21.7338 14.8018Z" fill="#FFC75A"/>
<path d="M22.1159 13.4502L24.0821 14.1056L22.1159 14.7609V13.4502Z" fill="#FFC75A"/>
<path d="M26.0481 14.7609L24.0821 14.1056L26.0481 13.4502V14.7609Z" fill="#FFE15A"/>
<path d="M20.1479 16.1079C20.3826 13.9949 21.4901 13.5605 21.9672 13.4693C21.9776 13.4669 21.9883 13.4653 22.0063 13.4624C22.0663 13.4533 22.1076 13.4507 22.1206 13.4502C22.4798 13.4526 22.7167 13.7233 22.7167 14.0509C22.7167 14.4122 22.5051 14.5492 22.2935 14.556C22.2935 14.556 22.4643 14.201 22.116 14.1055C21.881 14.0409 21.5836 14.2284 21.6109 14.5696C21.6301 14.8095 21.8578 15.0406 22.116 15.0406C22.6589 15.0406 23.0991 14.6483 23.0991 14.1054C23.0991 13.5625 22.6589 13.1223 22.116 13.1223C22.116 13.1223 22.0548 13.1233 21.9567 13.1383C21.9356 13.1417 21.9147 13.1449 21.8941 13.1496C21.3722 13.2492 20.0824 13.73 19.8222 16.0714C19.4585 19.3444 22.116 22.2973 24.0821 22.9526V22.6249C24.0821 22.6249 23.3858 22.2767 22.9098 21.9385C21.4389 20.8939 19.8824 18.4976 20.1479 16.1079Z" fill="#FFE15A"/>
<path d="M26.4305 14.8018C26.2985 14.8677 26.1444 14.9247 25.9868 14.9247C25.4439 14.9247 25.1779 14.6177 25.1779 14.0748C25.1779 13.5319 25.5054 13.1225 26.0482 13.1225C26.0482 13.1225 26.1094 13.1235 26.2075 13.1385C26.2286 13.1419 26.2495 13.1451 26.2701 13.1498C26.792 13.2493 28.0819 13.7302 28.342 16.0716C28.7057 19.3446 26.0482 22.2975 24.0821 22.9528V22.6251C24.0821 22.6252 28.7242 19.0753 26.4305 14.8018Z" fill="#FFC75A"/>
<path d="M26.0481 13.4502L24.0821 14.1056L26.0481 14.7609V13.4502Z" fill="#FFC75A"/>
<path d="M28.0162 16.1079C27.7814 13.9949 26.674 13.5605 26.1969 13.4693C26.1865 13.4669 26.1758 13.4653 26.1578 13.4624C26.0978 13.4533 26.0565 13.4507 26.0435 13.4502C25.6843 13.4526 25.4474 13.7233 25.4474 14.0509C25.4474 14.4122 25.659 14.5492 25.8705 14.556C25.8705 14.556 25.6998 14.201 26.0481 14.1055C26.283 14.0409 26.5805 14.2284 26.5532 14.5696C26.534 14.8095 26.3063 15.0406 26.0481 15.0406C25.5052 15.0406 25.065 14.6483 25.065 14.1054C25.065 13.5625 25.5052 13.1223 26.0481 13.1223C26.0481 13.1223 26.1093 13.1233 26.2074 13.1383C26.2285 13.1417 26.2494 13.1449 26.27 13.1496C26.7919 13.2492 28.0817 13.73 28.3419 16.0714C28.7055 19.3444 26.0481 22.2973 24.082 22.9526V22.6249C24.082 22.6249 24.7783 22.2767 25.2543 21.9385C26.7253 20.8939 28.2818 18.4976 28.0162 16.1079Z" fill="#FFE15A"/>
<path d="M24.0815 14.4339C24.2625 14.4339 24.4092 14.2872 24.4092 14.1062C24.4092 13.9252 24.2625 13.7784 24.0815 13.7784C23.9005 13.7784 23.7537 13.9252 23.7537 14.1062C23.7537 14.2872 23.9005 14.4339 24.0815 14.4339Z" fill="#FFE15A"/>
<path d="M26.422 11.4738C26.509 11.2486 26.3912 10.9465 26.3912 10.9465C26.0892 10.9363 25.8793 11.1564 25.8793 11.1564C25.9049 10.8851 25.7871 10.6393 25.7871 10.6393C25.398 10.6853 25.27 10.9158 25.27 10.9158C25.2496 10.4909 24.9934 10.3168 24.9934 10.3168C24.6555 10.4191 24.5532 10.7878 24.5532 10.7878C24.502 10.368 24.0822 10.1734 24.0822 10.1734C24.0822 10.1734 23.6624 10.3681 23.6112 10.7878C23.6112 10.7878 23.5088 10.4191 23.1709 10.3168C23.1709 10.3168 22.9149 10.4909 22.8944 10.9158C22.8944 10.9158 22.7664 10.6855 22.3773 10.6393C22.3773 10.6393 22.2595 10.8851 22.2851 11.1564C22.2851 11.1564 22.0752 10.9363 21.7731 10.9465C21.7731 10.9465 21.6554 11.2486 21.7424 11.4738C21.7424 11.4738 21.3993 11.3664 21.1177 11.5301C21.1177 11.5301 21.6339 11.7298 21.8059 11.9755H26.3585C26.5305 11.7297 27.0467 11.5301 27.0467 11.5301C26.7651 11.3663 26.422 11.4738 26.422 11.4738Z" fill="#FFC75A"/>
<path d="M26.3584 11.9756C26.3584 12.123 26.0139 12.5788 26.0139 12.5788C26.0139 12.5788 24.897 12.7342 24.0821 12.7342C23.262 12.7342 22.1425 12.5745 22.1425 12.5745C22.1425 12.5745 21.8058 12.1212 21.8058 11.9754C21.8058 11.5564 22.8249 11.2166 24.082 11.2166C25.3392 11.2167 26.3584 11.5566 26.3584 11.9756Z" fill="#FFE15A"/>
<path d="M24.0815 13.1228C25.1676 13.1228 26.048 12.8294 26.048 12.4675C26.048 12.1056 25.1676 11.8122 24.0815 11.8122C22.9953 11.8122 22.1149 12.1056 22.1149 12.4675C22.1149 12.8294 22.9953 13.1228 24.0815 13.1228Z" fill="#FFC75A"/>
<path d="M24.5633 8.83194C24.5633 8.61688 24.4029 8.34379 24.0821 8.53494C23.7612 8.34379 23.6009 8.61688 23.6009 8.83194C23.6009 9.047 23.3551 9.07775 23.3243 9.05722C23.3243 9.05722 23.5292 9.32347 23.7646 9.14938C23.7646 9.14938 23.8909 9.33369 24.082 9.33369C24.2732 9.33369 24.3995 9.14938 24.3995 9.14938C24.6351 9.32347 24.8398 9.05722 24.8398 9.05722C24.8091 9.07766 24.5633 9.04691 24.5633 8.83194Z" fill="#FFC75A"/>
<path d="M23.4265 24.7142C23.4081 24.7142 23.3894 24.71 23.3717 24.701C23.3109 24.6709 23.2863 24.5971 23.3167 24.5362L23.972 23.2255C24.0024 23.1653 24.0762 23.1401 24.1368 23.1708C24.1977 23.2008 24.2222 23.2747 24.1919 23.3356L23.5365 24.6463C23.5149 24.6892 23.4716 24.7142 23.4265 24.7142Z" fill="#B46446"/>
<path d="M24.7376 24.7142C24.6925 24.7142 24.6492 24.6893 24.6276 24.6463L23.9722 23.3356C23.9419 23.2748 23.9664 23.2009 24.0273 23.1708C24.0878 23.1398 24.1616 23.165 24.1921 23.2255L24.8474 24.5363C24.8778 24.5971 24.8532 24.671 24.7924 24.7011C24.7746 24.7101 24.756 24.7142 24.7376 24.7142Z" fill="#B46446"/>
<path d="M27.0312 23.5673C25.0891 24.0014 23.0751 24.0014 21.1329 23.5673C21.1329 23.2395 21.1329 22.6262 21.1329 22.2985C23.0751 22.7327 25.0891 22.7327 27.0312 22.2985C27.0312 22.6263 27.0312 23.2397 27.0312 23.5673Z" fill="white"/>
<path d="M22.7577 23.0897C21.5036 23.3316 20.2184 23.398 18.9396 23.2786C18.9611 23.4475 19.9724 23.9496 19.9724 23.9496C19.9724 23.9496 19.0801 24.3809 19.1 24.5371C20.3242 24.6514 21.5546 24.5969 22.7577 24.3798V23.0897Z" fill="white"/>
<path d="M25.4113 23.0897C26.6654 23.3316 27.9506 23.398 29.2295 23.2786C29.2079 23.4475 28.1966 23.9496 28.1966 23.9496C28.1966 23.9496 29.0889 24.3809 29.069 24.5371C27.8449 24.6514 26.6144 24.5969 25.4113 24.3798V23.0897Z" fill="white"/>
</g>
<defs>
<clipPath id="clip0_11_2311">
<rect width="48" height="32" fill="white"/>
</clipPath>
</defs>
</svg>
