<svg width="48" height="32" viewBox="0 0 48 32" fill="none" xmlns="http://www.w3.org/2000/svg">
<g clip-path="url(#clip0_11_4503)">
<path d="M16 31.7239H0.827625C0.370594 31.7239 0 31.3533 0 30.8962V1.10314C0 0.646106 0.370594 0.275513 0.827625 0.275513H16V31.7239Z" fill="#73AF00"/>
<path d="M32.0007 0.276123H16.0004V31.7246H32.0007V0.276123Z" fill="#FFE15A"/>
<path d="M47.1724 31.7239H32V0.275635H47.1724C47.6294 0.275635 48 0.646228 48 1.10326V30.8964C48 31.3535 47.6294 31.7239 47.1724 31.7239Z" fill="#FF4B55"/>
<path d="M24.1913 11.2916L25.2875 14.5786L28.7524 14.6055C28.9462 14.6071 29.0265 14.8544 28.8706 14.9694L26.0832 17.0277L27.1283 20.3313C27.1868 20.5161 26.9765 20.6689 26.8188 20.5562L24 18.5413L21.181 20.5561C21.0234 20.6688 20.8131 20.516 20.8715 20.3312L21.9166 17.0276L19.1292 14.9693C18.9733 14.8542 19.0537 14.607 19.2475 14.6055L22.7124 14.5785L23.8086 11.2915C23.87 11.1077 24.13 11.1077 24.1913 11.2916Z" fill="#73AF00"/>
</g>
<defs>
<clipPath id="clip0_11_4503">
<rect width="48" height="32" fill="white"/>
</clipPath>
</defs>
</svg>
