<svg width="48" height="32" viewBox="0 0 48 32" fill="none" xmlns="http://www.w3.org/2000/svg">
<g clip-path="url(#clip0_11_2085)">
<path d="M47.1723 31.7241H0.827623C0.370593 31.7241 0 31.3535 0 30.8965V1.10347C0 0.646441 0.370593 0.275848 0.827623 0.275848H47.1724C47.6294 0.275848 48 0.646441 48 1.10347V30.8965C47.9999 31.3536 47.6293 31.7241 47.1723 31.7241Z" fill="#82AFFF"/>
<path d="M23.7622 10.1352L22.3738 14.2986L17.9851 14.3326C17.7444 14.3345 17.6447 14.6415 17.8382 14.7845L21.3687 17.3916L20.0448 21.5758C19.9722 21.8052 20.2335 21.995 20.4291 21.855L23.9998 19.3031L27.5703 21.8552C27.7661 21.9951 28.0273 21.8053 27.9546 21.576L26.6308 17.3917L30.1612 14.7846C30.3548 14.6416 30.255 14.3346 30.0144 14.3327L25.6257 14.2987L24.2372 10.1353C24.1611 9.90705 23.8384 9.90705 23.7622 10.1352Z" fill="white"/>
</g>
<defs>
<clipPath id="clip0_11_2085">
<rect width="48" height="32" fill="white"/>
</clipPath>
</defs>
</svg>
