<svg width="48" height="32" viewBox="0 0 48 32" fill="none" xmlns="http://www.w3.org/2000/svg">
<g clip-path="url(#clip0_11_1808)">
<path d="M47.1723 31.7241H0.827623C0.370593 31.7241 0 31.3535 0 30.8965V1.10347C0 0.646441 0.370593 0.275848 0.827623 0.275848H47.1724C47.6294 0.275848 48 0.646441 48 1.10347V30.8965C47.9999 31.3536 47.6293 31.7241 47.1723 31.7241Z" fill="#73AF00"/>
<path d="M47.9999 6.06915H0V9.37946H47.9999V6.06915Z" fill="white"/>
<path d="M47.9999 22.6207H0V25.931H47.9999V22.6207Z" fill="white"/>
<path d="M47.9999 9.37943H0V22.6207H47.9999V9.37943Z" fill="#C8414B"/>
<path d="M23.7939 10.9014L22.5889 14.5146L18.7801 14.544C18.5712 14.5457 18.4848 14.8122 18.6527 14.9362L21.7167 17.1988L20.5678 20.8304C20.5048 21.0296 20.7315 21.1943 20.9014 21.0728L24.0001 18.8579L27.0988 21.0728C27.2687 21.1942 27.4953 21.0296 27.4324 20.8304L26.2835 17.1988L29.3476 14.9362C29.5156 14.8122 29.4289 14.5456 29.2201 14.544L25.4114 14.5146L24.2063 10.9014C24.1401 10.7033 23.86 10.7033 23.7939 10.9014Z" fill="#FFE15A"/>
</g>
<defs>
<clipPath id="clip0_11_1808">
<rect width="48" height="32" fill="white"/>
</clipPath>
</defs>
</svg>
