<svg width="48" height="32" viewBox="0 0 48 32" fill="none" xmlns="http://www.w3.org/2000/svg">
<g clip-path="url(#clip0_11_4699)">
<path d="M47.9999 10.7588H0V1.10362C0 0.646594 0.370593 0.276001 0.827623 0.276001H47.1724C47.6294 0.276001 48 0.646594 48 1.10362L47.9999 10.7588Z" fill="#464655"/>
<path d="M47.1723 31.7239H0.827623C0.370593 31.7239 0 31.3533 0 30.8963V21.2411H47.9999V30.8963C47.9999 31.3534 47.6293 31.7239 47.1723 31.7239Z" fill="#73AF00"/>
<path d="M47.9999 10.7585H0V21.2407H47.9999V10.7585Z" fill="#FF4B55"/>
<path d="M8.94347 13.8592L9.43538 14.9262L10.5762 14.6455C10.6475 14.6281 10.7064 14.702 10.6735 14.7676L10.1461 15.8174L11.0768 16.5344C11.135 16.5792 11.1139 16.6715 11.0421 16.6866L9.89241 16.9287L9.91219 18.1035C9.91341 18.1768 9.8281 18.2179 9.77156 18.1713L8.86547 17.4234L7.95938 18.1713C7.90276 18.218 7.81754 18.1769 7.81876 18.1035L7.83854 16.9287L6.68889 16.6866C6.61707 16.6715 6.59607 16.5792 6.6541 16.5344L7.58485 15.8174L7.05742 14.7676C7.02451 14.702 7.08348 14.628 7.15473 14.6455L8.29557 14.9262L8.78747 13.8592C8.81813 13.7927 8.91291 13.7927 8.94347 13.8592Z" fill="white"/>
<path d="M47.9999 10.2072H0V11.6144H47.9999V10.2072Z" fill="white"/>
<path d="M47.9999 20.3865H0V21.7937H47.9999V20.3865Z" fill="white"/>
<path d="M0.269718 31.5L21.8625 16.3386C22.0972 16.1738 22.0972 15.8262 21.8625 15.6614L0.269718 0.499878C0.106031 0.65119 0 0.862971 0 1.10344V30.8964C0 31.1368 0.106031 31.3488 0.269718 31.5Z" fill="#41479B"/>
<path d="M6.89642 12.1417L8.75557 14.0446L11.1578 12.9016C11.4688 12.7535 11.7892 13.0866 11.6294 13.3917L10.3942 15.7478L12.2236 17.6793C12.4605 17.9293 12.2427 18.337 11.9031 18.2792L9.28067 17.8324L8.00904 20.1691C7.84442 20.4717 7.38936 20.3905 7.33948 20.0498L6.9538 17.4176L4.33855 16.9304C3.99993 16.8673 3.93655 16.4095 4.24527 16.2567L6.62951 15.0766L6.2847 12.4386C6.23998 12.0971 6.65567 11.8955 6.89642 12.1417Z" fill="#FFE15A"/>
</g>
<defs>
<clipPath id="clip0_11_4699">
<rect width="48" height="32" fill="white"/>
</clipPath>
</defs>
</svg>
