<svg width="48" height="32" viewBox="0 0 48 32" fill="none" xmlns="http://www.w3.org/2000/svg">
<g clip-path="url(#clip0_11_846)">
<path d="M47.1723 31.7242H0.827623C0.370593 31.7242 0 31.3536 0 30.8966V1.10362C0 0.646594 0.370593 0.276001 0.827623 0.276001H47.1724C47.6294 0.276001 48 0.646594 48 1.10362V30.8966C47.9999 31.3537 47.6293 31.7242 47.1723 31.7242Z" fill="#73AF00"/>
<path d="M47.9999 7.72375H0V24.2753H47.9999V7.72375Z" fill="#FFE15A"/>
<path d="M0.249937 31.4866L16.5516 15.9999L0.249937 0.513245C0.0962811 0.663432 0 0.871556 0 1.1034V30.8963C0 31.1282 0.0962811 31.3363 0.249937 31.4866Z" fill="#FF4B55"/>
<path d="M26.0906 12.2281L26.9387 14.7711L29.6194 14.7919C29.9665 14.7947 30.1104 15.2375 29.8312 15.4438L27.6748 17.0362L28.4834 19.5921C28.5882 19.9231 28.2114 20.1968 27.929 19.995L25.7481 18.4361L23.5672 19.995C23.2849 20.1968 22.9081 19.9231 23.0128 19.5921L23.8215 17.0362L21.665 15.4438C21.3858 15.2376 21.5298 14.7947 21.8768 14.7919L24.5575 14.7711L25.4056 12.2281C25.5151 11.8988 25.9808 11.8988 26.0906 12.2281Z" fill="#464655"/>
<path d="M38.4657 12.2281L39.3138 14.7711L41.9945 14.7919C42.3416 14.7947 42.4855 15.2375 42.2063 15.4438L40.0499 17.0362L40.8586 19.5921C40.9633 19.9231 40.5865 20.1968 40.3041 19.995L38.1232 18.4361L35.9423 19.995C35.66 20.1968 35.2832 19.9231 35.3879 19.5921L36.1966 17.0362L34.0401 15.4438C33.7609 15.2376 33.9048 14.7947 34.2519 14.7919L36.9326 14.7711L37.7807 12.2281C37.8901 11.8988 38.3558 11.8988 38.4657 12.2281Z" fill="#464655"/>
</g>
<defs>
<clipPath id="clip0_11_846">
<rect width="48" height="32" fill="white"/>
</clipPath>
</defs>
</svg>
