<svg width="48" height="32" viewBox="0 0 48 32" fill="none" xmlns="http://www.w3.org/2000/svg">
<g clip-path="url(#clip0_11_867)">
<path d="M47.9999 10.7588H0V1.10362C0 0.646594 0.370593 0.276001 0.827623 0.276001H47.1724C47.6294 0.276001 48 0.646594 48 1.10362L47.9999 10.7588Z" fill="#41479B"/>
<path d="M47.1723 31.7242H0.827623C0.370593 31.7242 0 31.3537 0 30.8966V21.2415H47.9999V30.8966C47.9999 31.3537 47.6293 31.7242 47.1723 31.7242Z" fill="#41479B"/>
<path d="M47.9999 10.7584H0V21.2406H47.9999V10.7584Z" fill="white"/>
<path d="M23.9802 19.5215C21.9838 19.5215 20.3595 17.8973 20.3595 15.9008C20.3595 15.048 20.6617 14.2198 21.2107 13.5686L21.3689 13.7019C20.8513 14.3158 20.5663 15.0966 20.5663 15.9008C20.5663 17.783 22.0977 19.3146 23.9801 19.3146L23.9802 19.5215Z" fill="#50AF69"/>
<path d="M22.656 18.4525C22.6108 18.5297 22.5884 18.6356 22.5786 18.7431C22.5377 18.7137 22.4944 18.6863 22.4474 18.6634C22.4474 18.6634 22.3762 18.914 22.4318 19.0945C22.4318 19.0945 22.2431 19.1179 22.0698 19.2917C22.0698 19.2917 22.1296 19.3339 22.232 19.3778C22.06 19.5121 22.0069 19.6448 22.0069 19.6448C23.0222 20.1525 23.5088 19.4444 23.53 19.4126C23.2813 18.703 22.656 18.4525 22.656 18.4525Z" fill="#50AF69"/>
<path d="M23.5299 19.4129C23.5306 19.4146 23.5313 19.4161 23.532 19.418V19.4099C23.532 19.4099 23.5304 19.4121 23.5299 19.4129Z" fill="#50AF69"/>
<path d="M21.7182 17.7758C21.6519 17.8244 21.5944 17.9055 21.5466 17.9926C21.5229 17.9528 21.4965 17.9139 21.4651 17.8773C21.4651 17.8773 21.3134 18.0626 21.2944 18.2352C21.2944 18.2352 21.1267 18.186 20.9172 18.2691C20.9172 18.2691 20.9521 18.3265 21.0224 18.4011C20.8283 18.4514 20.735 18.5439 20.735 18.5439C21.4053 19.3431 22.0745 18.9241 22.1039 18.905C22.1539 18.2155 21.7182 17.7758 21.7182 17.7758Z" fill="#50AF69"/>
<path d="M22.1039 18.9049C22.1038 18.9067 22.1039 18.9082 22.1037 18.91L22.1067 18.9031C22.1067 18.9031 22.1046 18.9044 22.1039 18.9049Z" fill="#50AF69"/>
<path d="M21.1367 16.891C21.0643 16.9063 20.9869 16.9517 20.9155 17.0054C20.9108 16.9639 20.9035 16.9222 20.8913 16.8805C20.8913 16.8805 20.698 16.9765 20.6185 17.1112C20.6185 17.1112 20.499 17.0086 20.2961 16.9993C20.2961 16.9993 20.3035 17.0594 20.3337 17.1467C20.1557 17.116 20.0448 17.1574 20.0448 17.1574C20.2991 18.0623 21.004 17.966 21.0355 17.9613C21.3315 17.4138 21.1367 16.891 21.1367 16.891Z" fill="#50AF69"/>
<path d="M21.0352 17.9613C21.0344 17.9627 21.034 17.9641 21.0331 17.9655L21.0381 17.9609C21.0382 17.961 21.0359 17.9613 21.0352 17.9613Z" fill="#50AF69"/>
<path d="M20.9063 15.8828C20.8376 15.8872 20.7576 15.9172 20.681 15.9554C20.6863 15.9188 20.6892 15.8817 20.6879 15.8441C20.6879 15.8441 20.4919 15.904 20.3895 16.0112C20.3895 16.0112 20.3055 15.9078 20.1249 15.8751C20.1249 15.8751 20.1178 15.9281 20.1249 16.0074C19.9717 15.9593 19.8623 15.9817 19.8623 15.9817C19.8837 16.7975 20.5402 16.7993 20.5695 16.7989C20.9618 16.3598 20.9063 15.8828 20.9063 15.8828Z" fill="#50AF69"/>
<path d="M20.5692 16.7991C20.5681 16.8002 20.5674 16.8013 20.5663 16.8024L20.5718 16.7991C20.5719 16.7991 20.5698 16.799 20.5692 16.7991Z" fill="#50AF69"/>
<path d="M20.9827 15.0478C20.9239 15.0337 20.849 15.0381 20.7748 15.0504C20.7887 15.0211 20.8008 14.9907 20.8092 14.9588C20.8092 14.9588 20.6293 14.9584 20.5156 15.0218C20.5156 15.0218 20.4719 14.9132 20.329 14.8392C20.329 14.8392 20.3092 14.8818 20.2946 14.9503C20.1786 14.8703 20.081 14.8609 20.081 14.8609C19.8879 15.5507 20.4381 15.7221 20.4627 15.7293C20.9057 15.4622 20.9827 15.0478 20.9827 15.0478Z" fill="#50AF69"/>
<path d="M20.4629 15.7294C20.4618 15.7301 20.4608 15.7308 20.4597 15.7314L20.4652 15.7301C20.4652 15.7301 20.4634 15.7295 20.4629 15.7294Z" fill="#50AF69"/>
<path d="M20.547 14.0323C20.547 14.0323 20.3595 14.5236 20.6505 14.8082C20.6505 14.8082 21.0298 14.6961 21.2173 14.3017L21.0577 14.2715L20.9758 14.0258L20.7042 14.1466L20.547 14.0323Z" fill="#50AF69"/>
<path d="M21.0754 13.2424C21.0754 13.2424 20.7815 13.6786 21.0004 14.0216C21.0004 14.0216 21.3953 13.9983 21.6673 13.6566L21.5187 13.5912L21.4946 13.3333L21.2028 13.3893L21.0754 13.2424Z" fill="#50AF69"/>
<path d="M24.0198 19.5215V19.3146C25.9021 19.3146 27.4336 17.783 27.4336 15.9008C27.4336 15.0967 27.1486 14.3158 26.631 13.7019L26.7891 13.5686C27.3381 14.2198 27.6404 15.048 27.6404 15.9008C27.6404 17.8973 26.0162 19.5215 24.0198 19.5215Z" fill="#50AF69"/>
<path d="M25.3444 18.4525C25.3896 18.5297 25.412 18.6356 25.4218 18.7431C25.4626 18.7137 25.506 18.6863 25.553 18.6634C25.553 18.6634 25.6242 18.914 25.5685 19.0945C25.5685 19.0945 25.7572 19.1179 25.9305 19.2917C25.9305 19.2917 25.8707 19.3339 25.7683 19.3778C25.9403 19.5121 25.9934 19.6448 25.9934 19.6448C24.9781 20.1525 24.4915 19.4444 24.4703 19.4126C24.7191 18.703 25.3444 18.4525 25.3444 18.4525Z" fill="#50AF69"/>
<path d="M24.4704 19.4129C24.4698 19.4146 24.469 19.4161 24.4684 19.418V19.4099C24.4684 19.4099 24.4699 19.4121 24.4704 19.4129Z" fill="#50AF69"/>
<path d="M26.2821 17.7758C26.3484 17.8244 26.4059 17.9055 26.4536 17.9926C26.4773 17.9528 26.5037 17.9139 26.5351 17.8773C26.5351 17.8773 26.6868 18.0626 26.7059 18.2352C26.7059 18.2352 26.8735 18.186 27.083 18.2691C27.083 18.2691 27.0481 18.3265 26.9778 18.4011C27.1719 18.4514 27.2652 18.5439 27.2652 18.5439C26.5949 19.3431 25.9258 18.9241 25.8963 18.905C25.8464 18.2155 26.2821 17.7758 26.2821 17.7758Z" fill="#50AF69"/>
<path d="M25.8962 18.9049C25.8963 18.9067 25.8962 18.9082 25.8964 18.91L25.8934 18.9031C25.8934 18.9031 25.8955 18.9044 25.8962 18.9049Z" fill="#50AF69"/>
<path d="M26.8636 16.891C26.9359 16.9063 27.0134 16.9517 27.0847 17.0054C27.0895 16.9639 27.0968 16.9222 27.109 16.8805C27.109 16.8805 27.3022 16.9765 27.3818 17.1112C27.3818 17.1112 27.5012 17.0086 27.7041 16.9993C27.7041 16.9993 27.6968 17.0594 27.6665 17.1467C27.8445 17.116 27.9555 17.1574 27.9555 17.1574C27.7011 18.0623 26.9962 17.966 26.9648 17.9613C26.6687 17.4138 26.8636 16.891 26.8636 16.891Z" fill="#50AF69"/>
<path d="M26.9653 17.9613C26.9661 17.9627 26.9665 17.9641 26.9674 17.9655L26.9624 17.9609C26.9623 17.961 26.9646 17.9613 26.9653 17.9613Z" fill="#50AF69"/>
<path d="M27.0939 15.8828C27.1626 15.8872 27.2425 15.9172 27.3191 15.9554C27.3139 15.9188 27.311 15.8817 27.3123 15.8441C27.3123 15.8441 27.5082 15.904 27.6107 16.0112C27.6107 16.0112 27.6947 15.9078 27.8752 15.8751C27.8752 15.8751 27.8824 15.9281 27.8752 16.0074C28.0284 15.9593 28.1378 15.9817 28.1378 15.9817C28.1165 16.7975 27.4599 16.7993 27.4307 16.7989C27.0384 16.3598 27.0939 15.8828 27.0939 15.8828Z" fill="#50AF69"/>
<path d="M27.4308 16.7991C27.4318 16.8002 27.4326 16.8013 27.4336 16.8024L27.4281 16.7991C27.4281 16.7991 27.4302 16.799 27.4308 16.7991Z" fill="#50AF69"/>
<path d="M27.0178 15.0478C27.0766 15.0337 27.1515 15.0381 27.2256 15.0504C27.2118 15.0211 27.1997 14.9907 27.1912 14.9588C27.1912 14.9588 27.3711 14.9584 27.4849 15.0218C27.4849 15.0218 27.5285 14.9132 27.6715 14.8392C27.6715 14.8392 27.6913 14.8818 27.7058 14.9503C27.8219 14.8703 27.9195 14.8609 27.9195 14.8609C28.1126 15.5507 27.5624 15.7221 27.5377 15.7293C27.0948 15.4622 27.0178 15.0478 27.0178 15.0478Z" fill="#50AF69"/>
<path d="M27.5375 15.7294C27.5387 15.7301 27.5396 15.7308 27.5407 15.7314L27.5353 15.7301C27.5353 15.7301 27.5371 15.7295 27.5375 15.7294Z" fill="#50AF69"/>
<path d="M27.4533 14.0323C27.4533 14.0323 27.6409 14.5236 27.3499 14.8082C27.3499 14.8082 26.9706 14.6961 26.7831 14.3017L26.9426 14.2715L27.0246 14.0258L27.2962 14.1466L27.4533 14.0323Z" fill="#50AF69"/>
<path d="M26.925 13.2424C26.925 13.2424 27.2189 13.6786 27 14.0216C27 14.0216 26.6051 13.9983 26.3331 13.6566L26.4817 13.5912L26.5058 13.3333L26.7977 13.3893L26.925 13.2424Z" fill="#50AF69"/>
<path d="M23.9998 17.345L23.6799 17.8248C23.6253 17.9067 23.6361 18.0158 23.7058 18.0855L23.9998 18.3795L24.2938 18.0855C24.3635 18.0158 24.3742 17.9067 24.3197 17.8248L23.9998 17.345Z" fill="#41479B"/>
<path d="M24.136 17.8248L23.9997 17.345L23.8634 17.8248C23.8402 17.9067 23.8447 18.0158 23.8744 18.0855L23.9997 18.3795L24.125 18.0855C24.1547 18.0158 24.1594 17.9067 24.136 17.8248Z" fill="white"/>
<path d="M24.0003 13.0518V11.7587C24.0003 11.7587 23.509 12.4655 23.5865 13.5" fill="#41479B"/>
<path d="M21.7965 13.0561C21.0857 14.5988 21.8148 15.8682 21.9678 16.1072C21.9718 16.1136 22.9828 14.4782 22.9828 14.4782L21.7965 13.0561Z" fill="#41479B"/>
<path d="M22.5446 15.1857C22.4325 14.8365 22.4162 14.4287 22.5509 13.9608L22.111 13.4335C21.7496 14.4074 21.8991 15.1265 22.2609 15.6425C22.3497 15.4997 22.4483 15.3409 22.5446 15.1857Z" fill="white"/>
<path d="M22.9657 14.5644C22.9348 14.5644 22.9044 14.5506 22.8839 14.5243L21.5867 12.8564C21.5515 12.8113 21.5597 12.7464 21.6048 12.7114C21.6501 12.6762 21.7149 12.6845 21.7499 12.7296L23.0471 14.3975C23.0823 14.4426 23.0741 14.5075 23.029 14.5425C23.0102 14.5573 22.9878 14.5644 22.9657 14.5644Z" fill="#FFE15A"/>
<path d="M20.8965 14.6592C20.4827 18.7972 23.7931 17.7627 24 17.3489L21.931 16.3145L22.3448 15.4869L20.8965 14.6592Z" fill="#41479B"/>
<path d="M21.8969 15.1355L21.3203 14.7896C21.1905 17.2484 22.5036 17.6579 23.4721 17.5359C22.6869 17.4305 21.9024 16.8507 21.8969 15.1355Z" fill="white"/>
<path d="M22.3447 15.5901C22.326 15.5901 22.307 15.5851 22.29 15.5744L20.6349 14.5401C20.5865 14.5099 20.5718 14.446 20.6021 14.3977C20.6323 14.349 20.696 14.3344 20.7447 14.3648L22.3998 15.3991C22.4481 15.4294 22.4629 15.4932 22.4326 15.5415C22.4129 15.573 22.3791 15.5901 22.3447 15.5901Z" fill="#FFE15A"/>
<path d="M26.2036 13.0522C26.9144 14.5949 26.1853 15.8643 26.0323 16.1033C26.0283 16.1097 25.0173 14.4743 25.0173 14.4743L26.2036 13.0522Z" fill="#41479B"/>
<path d="M25.4552 15.1816C25.5673 14.8323 25.5835 14.4245 25.4489 13.9566L25.8888 13.4294C26.2502 14.4033 26.1006 15.1223 25.7389 15.6383C25.6501 15.4956 25.5514 15.3367 25.4552 15.1816Z" fill="white"/>
<path d="M25.0341 14.5604C25.012 14.5604 24.9895 14.5534 24.9707 14.5386C24.9256 14.5036 24.9175 14.4386 24.9526 14.3936L26.2498 12.7257C26.285 12.6806 26.3499 12.6725 26.395 12.7075C26.4401 12.7424 26.4482 12.8075 26.4131 12.8525L25.1159 14.5204C25.0955 14.5467 25.0649 14.5604 25.0341 14.5604Z" fill="#FFE15A"/>
<path d="M27.1033 14.6552C27.5171 18.7932 24.2068 17.7586 23.9999 17.3449L26.0689 16.3105L25.6551 15.4828L27.1033 14.6552Z" fill="#41479B"/>
<path d="M26.1032 15.1313L26.6799 14.7854C26.8096 17.2443 25.4965 17.6538 24.528 17.5317C25.3132 17.4263 26.0977 16.8467 26.1032 15.1313Z" fill="white"/>
<path d="M25.6554 15.5861C25.6209 15.5861 25.5872 15.5689 25.5675 15.5374C25.5372 15.4891 25.552 15.4252 25.6003 15.3949L27.2554 14.3607C27.304 14.3301 27.3677 14.3449 27.398 14.3936C27.4283 14.4419 27.4135 14.5057 27.3652 14.536L25.7101 15.5703C25.693 15.581 25.6741 15.5861 25.6554 15.5861Z" fill="#FFE15A"/>
<path d="M24.0001 15.6896C24.4572 15.6896 24.8277 15.3191 24.8277 14.862C24.8277 14.4049 24.4572 14.0344 24.0001 14.0344C23.543 14.0344 23.1725 14.4049 23.1725 14.862C23.1725 15.3191 23.543 15.6896 24.0001 15.6896Z" fill="#FFE6E6"/>
<path d="M24 15.2757C24.2286 15.2757 24.4138 15.0905 24.4138 14.8619C24.4138 14.6334 24.2286 14.4481 24 14.4481C23.7715 14.4481 23.5862 14.6334 23.5862 14.8619C23.5862 15.0905 23.7715 15.2757 24 15.2757Z" fill="white"/>
<path d="M24 16.207C23.9428 16.207 23.8966 16.1607 23.8966 16.1035V14.8622C23.8966 14.805 23.9428 14.7588 24 14.7588C24.0572 14.7588 24.1034 14.805 24.1034 14.8622V16.1035C24.1034 16.1607 24.0572 16.207 24 16.207Z" fill="#FFE15A"/>
<path d="M26.8274 17.3275H21.2842L21.9308 16.0972H26.086L26.8274 17.3275Z" fill="#5AA0E6"/>
<path d="M24.1683 16.3276H25.6099L25.1615 15.8792C25.1404 15.8581 25.1146 15.8422 25.0864 15.8328L24.9303 15.7808C24.8741 15.762 24.8123 15.7704 24.763 15.8032L24.2646 16.1354L24.1683 16.3276Z" fill="#FFB750"/>
<path d="M23.6782 16.4053H25.3988L24.8636 15.8701C24.8385 15.8449 24.8077 15.8259 24.7739 15.8147L24.5876 15.7526C24.5205 15.7303 24.4467 15.74 24.3878 15.7794L23.793 16.1761L23.6782 16.4053Z" fill="#FFC455"/>
<path d="M23.0795 16.4913H25.1573L24.511 15.845C24.4806 15.8146 24.4436 15.7917 24.4027 15.778L24.1777 15.703C24.0966 15.676 24.0076 15.688 23.9365 15.7353L23.2182 16.2142L23.0795 16.4913Z" fill="#FFCD55"/>
<path d="M22.4871 16.569H24.8661L24.126 15.829C24.0911 15.7941 24.0488 15.7679 24.002 15.7523L23.7444 15.6664C23.6515 15.6355 23.5495 15.6492 23.4681 15.7034L22.6455 16.2518L22.4871 16.569Z" fill="#FFD25A"/>
<path d="M21.5171 16.7242H24.6205L23.6551 15.7589C23.6098 15.7135 23.5544 15.6792 23.4933 15.6589L23.1573 15.5469C23.0362 15.5066 22.9032 15.5243 22.797 15.5952L21.724 16.3104L21.5171 16.7242Z" fill="#FFE15A"/>
<path d="M24.2234 15.0476H23.7761L23.8792 14.6157H24.0346C24.0849 14.6157 24.1287 14.6503 24.1404 14.6993L24.2234 15.0476Z" fill="#FF4B55"/>
<path d="M24.1976 15.1171H23.796C23.7631 15.1171 23.7366 15.0905 23.7366 15.0576V15.0378C23.7366 15.0049 23.7633 14.9783 23.796 14.9783H24.1976C24.2305 14.9783 24.2571 15.0051 24.2571 15.0378V15.0576C24.2571 15.0904 24.2304 15.1171 24.1976 15.1171Z" fill="#FF4B55"/>
<path d="M23.932 14.8123L23.8316 14.7869C23.8013 14.7792 23.7882 14.7436 23.8063 14.7181L23.8789 14.6157L23.932 14.8123Z" fill="#FF4B55"/>
<path d="M23.484 13.7994C23.4791 13.8374 23.4741 13.8754 23.4692 13.9134C23.63 13.8158 23.8074 13.7573 24.0001 13.7573C24.1925 13.7575 24.37 13.8156 24.5309 13.9134C24.526 13.8753 24.521 13.8374 24.5162 13.7994C24.3562 13.716 24.1841 13.668 24.0001 13.6682C23.8161 13.668 23.644 13.7159 23.484 13.7994Z" fill="#41479B"/>
<path d="M23.49 13.7499C23.4852 13.7878 23.4802 13.8259 23.4753 13.8639C23.6343 13.7661 23.8095 13.7075 23.9997 13.7072C24.1898 13.7074 24.365 13.766 24.524 13.8639C24.5191 13.8258 24.5142 13.7878 24.5093 13.7499C24.3511 13.6658 24.1812 13.6181 23.9996 13.618C23.8181 13.618 23.6482 13.6659 23.49 13.7499Z" fill="#5AA0E6"/>
<path d="M23.4964 13.7039C23.4915 13.7419 23.4865 13.78 23.4817 13.8179C23.6391 13.7199 23.8123 13.6608 24.0001 13.6609C24.188 13.6609 24.3611 13.7199 24.5185 13.8179C24.5137 13.78 24.5087 13.7419 24.5038 13.7039C24.3474 13.6199 24.1795 13.5717 24 13.5717C23.8208 13.5716 23.6529 13.6198 23.4964 13.7039Z" fill="#9BC800"/>
<path d="M23.503 13.6516C23.4981 13.6897 23.4932 13.7277 23.4883 13.7656C23.6439 13.6673 23.8147 13.608 24.0001 13.608C24.1853 13.6082 24.3562 13.6671 24.5119 13.7656C24.507 13.7277 24.502 13.6896 24.4971 13.6516C24.3425 13.5673 24.1771 13.5189 24.0002 13.5188C23.8231 13.519 23.6576 13.5673 23.503 13.6516Z" fill="#FFE14E"/>
<path d="M23.5098 13.6002C23.505 13.6381 23.5 13.6762 23.4951 13.7142C23.649 13.6155 23.8173 13.5562 24.0001 13.5561C24.183 13.5563 24.3514 13.6154 24.5052 13.7142C24.5003 13.6762 24.4953 13.6381 24.4905 13.6002C24.3377 13.5155 24.1745 13.467 24.0001 13.4669C23.8258 13.467 23.6625 13.5154 23.5098 13.6002Z" fill="#FFB14E"/>
<path d="M23.5124 13.5783C23.509 13.6049 23.5056 13.6316 23.5022 13.6582C23.654 13.5594 23.8201 13.4995 24.0001 13.4995C24.1801 13.4994 24.3461 13.5592 24.498 13.6582C24.4946 13.6316 24.4912 13.6049 24.4878 13.5783C24.3359 13.4935 24.1736 13.4449 24.0002 13.4447C23.8267 13.4445 23.6643 13.4935 23.5124 13.5783Z" fill="#FF4B55"/>
<path d="M26.8964 17.4484H21.1033C21.0651 17.4484 21.0301 17.4274 21.0121 17.3938C20.9941 17.36 20.9961 17.3192 21.0172 17.2876L23.9138 12.9428C23.9522 12.8854 24.0476 12.8854 24.086 12.9428L26.9825 17.2876C27.0036 17.3194 27.0057 17.3601 26.9877 17.3938C26.9696 17.4274 26.9345 17.4484 26.8964 17.4484ZM21.2965 17.2414H26.7032L23.9998 13.1867L21.2965 17.2414Z" fill="#FFE15A"/>
<path d="M24 12.069C23.9428 12.069 23.8966 12.0228 23.8966 11.9656V11.5518C23.8966 11.4946 23.9428 11.4484 24 11.4484C24.0572 11.4484 24.1034 11.4946 24.1034 11.5518V11.9656C24.1034 12.0228 24.0572 12.069 24 12.069Z" fill="#FFE15A"/>
<path d="M24.2065 12.069H23.7927C23.7355 12.069 23.6893 12.0228 23.6893 11.9656C23.6893 11.9084 23.7355 11.8622 23.7927 11.8622H24.2065C24.2637 11.8622 24.3099 11.9084 24.3099 11.9656C24.3099 12.0228 24.2637 12.069 24.2065 12.069Z" fill="#FFE15A"/>
<path d="M23.9999 19.5173C23.9925 19.5173 23.9848 19.5164 23.9775 19.5149C23.8762 19.4922 23.5383 19.4112 23.4387 19.3125C23.3121 19.1868 23.3115 18.9818 23.4369 18.8551C23.4978 18.7939 23.5788 18.76 23.6652 18.7598H23.6663C23.7523 18.7598 23.8331 18.793 23.8941 18.8537C23.9938 18.9527 24.0773 19.2897 24.1006 19.3907C24.1085 19.4253 24.0982 19.4617 24.0732 19.4869C24.0537 19.5065 24.0272 19.5173 23.9999 19.5173ZM23.6663 18.9665C23.6388 18.9756 23.6057 18.9788 23.5836 19.0008C23.5384 19.0462 23.5387 19.1201 23.5844 19.1655C23.6094 19.1899 23.7213 19.2323 23.8553 19.2704C23.8161 19.1368 23.7731 19.0254 23.7483 19.0003L23.8212 18.927L23.7483 19.0003C23.7263 18.9784 23.6973 18.9665 23.6663 18.9665Z" fill="#41479B"/>
<path d="M23.9999 19.5172C23.9726 19.5172 23.9461 19.5064 23.9265 19.4866C23.9016 19.4614 23.8912 19.425 23.8991 19.3905C23.9224 19.2894 24.006 18.9525 24.1056 18.8535C24.1669 18.7926 24.2399 18.7651 24.3345 18.7595C24.4209 18.7597 24.5019 18.7936 24.5627 18.8549C24.6884 18.9816 24.6876 19.1866 24.5611 19.3121C24.4614 19.4111 24.1235 19.4921 24.0222 19.5148C24.015 19.5164 24.0073 19.5172 23.9999 19.5172ZM24.1786 18.9269L24.2515 19.0002C24.2267 19.0252 24.1837 19.1368 24.1445 19.2703C24.2786 19.2321 24.3904 19.1899 24.4155 19.1652C24.4609 19.1201 24.4613 19.0462 24.4161 19.0007C24.3943 18.9787 24.3651 18.9664 24.334 18.9664H24.3336C24.3027 18.9664 24.2736 18.9783 24.2517 19.0002L24.1786 18.9269ZM24.1786 18.9269H24.1807H24.1786Z" fill="#41479B"/>
<path d="M23.5863 20.138C23.5291 20.138 23.4828 20.0918 23.4828 20.0346C23.4828 19.5623 23.9346 19.331 23.9538 19.3213C24.0052 19.2957 24.0668 19.3167 24.0924 19.3674C24.1181 19.4183 24.0976 19.4803 24.0467 19.5062C24.0431 19.5081 23.6898 19.6915 23.6898 20.0345C23.6898 20.0918 23.6434 20.138 23.5863 20.138Z" fill="#41479B"/>
<path d="M24.4137 20.138C24.3565 20.138 24.3103 20.0918 24.3103 20.0346C24.3103 19.6916 23.957 19.508 23.9534 19.5063C23.9025 19.4805 23.8821 19.4184 23.9077 19.3675C23.9335 19.3168 23.995 19.2958 24.0463 19.3215C24.0655 19.3312 24.5173 19.5623 24.5173 20.0347C24.5171 20.0918 24.4709 20.138 24.4137 20.138Z" fill="#41479B"/>
</g>
<defs>
<clipPath id="clip0_11_867">
<rect width="48" height="32" fill="white"/>
</clipPath>
</defs>
</svg>
