<svg width="48" height="32" viewBox="0 0 48 32" fill="none" xmlns="http://www.w3.org/2000/svg">
<g clip-path="url(#clip0_11_2153)">
<path d="M0.827623 0.275848H47.1724C47.6294 0.275848 48 0.646441 48 1.10347V15.9999H0V1.10338C0 0.646347 0.370593 0.275848 0.827623 0.275848Z" fill="#FF4B55"/>
<path d="M47.1723 31.724H0.827623C0.370593 31.724 0 31.3534 0 30.8964V15.9999H47.9999V30.8965C47.9999 31.3535 47.6293 31.724 47.1723 31.724Z" fill="#41479B"/>
<path d="M0.305249 31.524L23.2122 16.516C23.584 16.2723 23.584 15.7273 23.2122 15.4839L0.305249 0.475922C0.122906 0.627703 0 0.847639 0 1.10339V30.8964C0 31.1523 0.122906 31.3722 0.305249 31.524Z" fill="white"/>
<path d="M8.48458 15.4045C9.91977 15.4045 11.0832 14.2411 11.0832 12.8059C11.0832 11.3707 9.91977 10.2072 8.48458 10.2072C7.04938 10.2072 5.88593 11.3707 5.88593 12.8059C5.88593 14.2411 7.04938 15.4045 8.48458 15.4045Z" fill="#FFE15A"/>
<path d="M11.6614 15.213C11.6717 15.5283 11.706 15.8536 11.7391 16.168C11.869 17.4021 11.9812 18.468 10.796 18.8814C10.5159 18.9791 10.1341 19.0339 9.76511 19.0868C9.23533 19.1627 8.76096 19.2306 8.48505 19.4228C8.20915 19.2307 7.73487 19.1627 7.20499 19.0868C6.83599 19.0339 6.45415 18.979 6.17412 18.8814C4.98893 18.468 5.10115 17.4021 5.231 16.168C5.26409 15.8536 5.29831 15.5283 5.30871 15.213C5.34556 14.0957 5.10996 13.0009 4.9445 12.382C5.22021 12.4952 5.60243 12.5973 6.07109 12.589C6.27303 12.585 6.49981 12.5562 6.7398 12.5259C7.28768 12.456 7.90858 12.3775 8.40555 12.5739L8.48524 12.6093L8.56493 12.5739C9.0618 12.3775 9.6828 12.456 10.2307 12.5259C10.4707 12.5562 10.6975 12.585 10.8994 12.589C11.368 12.5973 11.7504 12.4951 12.026 12.382C11.86 13.0008 11.6245 14.0957 11.6614 15.213Z" fill="#8CD7FF"/>
<path d="M12.0942 15.1986C12.042 13.6148 12.5824 12.0259 12.5879 12.01L12.2473 11.7709C12.2429 11.7745 11.7307 12.1718 10.9075 12.156C10.7287 12.1526 10.5131 12.1252 10.2849 12.0961C9.71177 12.0235 9.06527 11.9413 8.48496 12.1417C7.90465 11.9414 7.25824 12.0236 6.68505 12.0961C6.45687 12.1251 6.24124 12.1525 6.06237 12.156C5.23924 12.1718 4.72709 11.7744 4.72259 11.7709L4.382 12.01C4.38734 12.0259 4.9279 13.6148 4.87568 15.1986C4.86584 15.4985 4.83246 15.8158 4.80003 16.1226C4.66981 17.3607 4.52215 18.764 6.03124 19.2905C6.35102 19.4019 6.75508 19.4512 7.1433 19.5155C8.30889 19.7087 8.48486 20.0064 8.48486 20.0064C8.48486 20.0064 8.66083 19.7086 9.82642 19.5155C10.2146 19.4512 10.6187 19.4019 10.9385 19.2905C12.4477 18.7641 12.3001 17.3607 12.1697 16.1226C12.1375 15.8157 12.1041 15.4985 12.0942 15.1986ZM11.6614 15.213C11.6717 15.5283 11.706 15.8536 11.7391 16.168C11.8689 17.402 11.9812 18.468 10.796 18.8814C10.5159 18.9791 10.1341 19.0338 9.76511 19.0867C9.23533 19.1627 8.76096 19.2305 8.48505 19.4228C8.20915 19.2306 7.73486 19.1627 7.20499 19.0867C6.83599 19.0338 6.45415 18.979 6.17412 18.8814C4.98893 18.468 5.10115 17.402 5.23099 16.168C5.26409 15.8536 5.29831 15.5283 5.30871 15.213C5.34556 14.0957 5.10996 13.0009 4.9445 12.382C5.22021 12.4952 5.60243 12.5973 6.07109 12.589C6.27302 12.585 6.4998 12.5562 6.7398 12.5258C7.28768 12.456 7.90858 12.3774 8.40555 12.5738L8.48524 12.6093L8.56493 12.5738C9.0618 12.3774 9.6828 12.456 10.2307 12.5258C10.4707 12.5562 10.6975 12.585 10.8994 12.589C11.368 12.5973 11.7504 12.4951 12.026 12.382C11.86 13.0008 11.6245 14.0957 11.6614 15.213Z" fill="#FF4B55"/>
<path d="M10.7182 17.8753V16.9208H10.8818V16.6391H10.4817V15.6588H10.8818L9.05202 14.3625V13.8749H9.30655L8.48493 13.2929L7.66349 13.8749H7.91783V14.3625L6.08802 15.6588H6.48824V16.6391H6.08802V16.9208H6.25171V17.8753H6.01265V18.2874H10.9574V17.8753H10.7182Z" fill="white"/>
<path d="M6.11184 13.9684C6.05353 14.1066 6.06347 14.253 6.12544 14.3607C6.246 14.33 6.35775 14.235 6.41616 14.0969C6.47447 13.9587 6.46453 13.8123 6.40256 13.7046C6.28209 13.7353 6.17025 13.8303 6.11184 13.9684Z" fill="#41AA5A"/>
<path d="M6.39562 14.0119C6.43377 14.1569 6.53118 14.2668 6.64602 14.3142C6.72271 14.2163 6.75318 14.0728 6.71502 13.9278C6.67687 13.7827 6.57946 13.6729 6.46462 13.6254C6.38802 13.7232 6.35746 13.8668 6.39562 14.0119Z" fill="#41AA5A"/>
<path d="M6.83587 13.7708C6.97649 13.823 7.12227 13.8068 7.22727 13.74C7.19136 13.621 7.09152 13.5133 6.95099 13.4611C6.81037 13.4089 6.66459 13.4251 6.55959 13.4919C6.59549 13.6108 6.69524 13.7184 6.83587 13.7708Z" fill="#41AA5A"/>
<path d="M6.9678 13.5233C7.10505 13.4629 7.19852 13.3496 7.22739 13.2287C7.11864 13.1683 6.97221 13.1605 6.83496 13.2208C6.69771 13.2812 6.60433 13.3944 6.57536 13.5154C6.68393 13.5759 6.83046 13.5836 6.9678 13.5233Z" fill="#41AA5A"/>
<path d="M6.04504 13.6483C6.16739 13.5615 6.2361 13.432 6.24014 13.3075C6.12154 13.2702 5.97642 13.2921 5.85407 13.3788C5.73173 13.4655 5.66301 13.5952 5.65898 13.7196C5.77757 13.757 5.92279 13.7351 6.04504 13.6483Z" fill="#41AA5A"/>
<path d="M5.94288 13.4671C6.13113 13.5749 6.33278 13.6042 6.48278 13.5609C6.44416 13.4096 6.31694 13.2505 6.12869 13.1426C5.94044 13.0348 5.73878 13.0056 5.58878 13.0489C5.62741 13.2002 5.75472 13.3593 5.94288 13.4671Z" fill="#41AA5A"/>
<path d="M6.73704 13.6882C6.73704 13.615 6.67882 13.5562 6.60626 13.5535C6.60354 13.4809 6.54485 13.4227 6.47154 13.4227C6.39823 13.4227 6.33954 13.4809 6.33682 13.5535C6.26426 13.5562 6.20604 13.6149 6.20604 13.6882C6.20604 13.7613 6.26426 13.8201 6.33682 13.8229C6.33954 13.8954 6.39823 13.9537 6.47154 13.9537C6.54485 13.9537 6.60354 13.8954 6.60626 13.8229C6.67882 13.8201 6.73704 13.7613 6.73704 13.6882Z" fill="#FFE15A"/>
<path d="M6.47139 13.7678C6.5154 13.7678 6.55108 13.7321 6.55108 13.6881C6.55108 13.6441 6.5154 13.6084 6.47139 13.6084C6.42738 13.6084 6.3917 13.6441 6.3917 13.6881C6.3917 13.7321 6.42738 13.7678 6.47139 13.7678Z" fill="white"/>
<path d="M6.31308 13.5539C6.31308 13.4938 6.26517 13.4454 6.20564 13.4432C6.20339 13.3836 6.15502 13.3358 6.09492 13.3358C6.03474 13.3358 5.98636 13.3837 5.98421 13.4432C5.92458 13.4455 5.87677 13.4938 5.87677 13.5539C5.87677 13.6141 5.92468 13.6625 5.98421 13.6647C5.98646 13.7243 6.03483 13.7721 6.09492 13.7721C6.15511 13.7721 6.20349 13.7242 6.20564 13.6647C6.26517 13.6624 6.31308 13.6141 6.31308 13.5539Z" fill="#FFE15A"/>
<path d="M6.09466 13.6185C6.1308 13.6185 6.1601 13.5892 6.1601 13.5531C6.1601 13.5169 6.1308 13.4876 6.09466 13.4876C6.05852 13.4876 6.02922 13.5169 6.02922 13.5531C6.02922 13.5892 6.05852 13.6185 6.09466 13.6185Z" fill="white"/>
<path d="M6.71981 13.3661C6.71981 13.3228 6.68522 13.288 6.64237 13.2864C6.64068 13.2434 6.606 13.2089 6.56259 13.2089C6.51919 13.2089 6.4844 13.2435 6.48281 13.2864C6.43987 13.288 6.40537 13.3227 6.40537 13.3661C6.40537 13.4095 6.43997 13.4443 6.48281 13.4459C6.4845 13.4889 6.51919 13.5234 6.56259 13.5234C6.606 13.5234 6.64078 13.4888 6.64237 13.4459C6.68531 13.4443 6.71981 13.4095 6.71981 13.3661Z" fill="#FFE15A"/>
<path d="M6.56242 13.4137C6.58847 13.4137 6.60958 13.3926 6.60958 13.3665C6.60958 13.3405 6.58847 13.3194 6.56242 13.3194C6.53638 13.3194 6.51527 13.3405 6.51527 13.3665C6.51527 13.3926 6.53638 13.4137 6.56242 13.4137Z" fill="white"/>
<path d="M6.42117 13.2306C6.42117 13.1873 6.38658 13.1524 6.34373 13.1508C6.34205 13.1079 6.30736 13.0734 6.26395 13.0734C6.22064 13.0734 6.18577 13.108 6.18417 13.1508C6.14124 13.1525 6.10674 13.1872 6.10674 13.2306C6.10674 13.274 6.14133 13.3088 6.18417 13.3104C6.18586 13.3533 6.22055 13.3878 6.26395 13.3878C6.30727 13.3878 6.34214 13.3532 6.34373 13.3104C6.38667 13.3088 6.42117 13.2739 6.42117 13.2306Z" fill="#FFE15A"/>
<path d="M6.26376 13.2778C6.28981 13.2778 6.31092 13.2566 6.31092 13.2306C6.31092 13.2046 6.28981 13.1834 6.26376 13.1834C6.23772 13.1834 6.21661 13.2046 6.21661 13.2306C6.21661 13.2566 6.23772 13.2778 6.26376 13.2778Z" fill="white"/>
<path d="M9.88156 14.4208H11.3835C11.2873 14.2006 11.0986 14.0302 10.8646 13.9608C10.8817 13.8515 10.8922 13.7301 10.8922 13.5999C10.8922 13.1462 10.776 12.7785 10.6326 12.7785C10.4892 12.7785 10.373 13.1463 10.373 13.5999C10.373 13.73 10.3834 13.8515 10.4006 13.9608C10.1665 14.0302 9.97765 14.2006 9.88156 14.4208Z" fill="white"/>
<path d="M8.48511 21.793C5.32068 21.793 2.74612 19.2187 2.74612 16.054H3.82893C3.82893 18.6215 5.91768 20.7101 8.48502 20.7101C11.0524 20.7101 13.1411 18.6215 13.1411 16.054H14.2241C14.2241 19.2187 11.6497 21.793 8.48511 21.793Z" fill="#FFE15A"/>
<path d="M10.612 10.9261H9.67609C9.77002 10.9261 9.84624 10.85 9.84624 10.756C9.84624 10.6619 9.77012 10.5858 9.67609 10.5858H8.485C8.39106 10.5858 8.31484 10.6619 8.31484 10.756C8.31484 10.85 8.39096 10.9261 8.485 10.9261H6.35809C6.21709 10.9261 6.10291 11.0404 6.10291 11.1813C6.10291 11.3222 6.21719 11.4365 6.35809 11.4365H7.12375C7.02981 11.4365 6.95369 11.5126 6.95369 11.6067C6.95369 11.7006 7.02981 11.7768 7.12384 11.7768H8.65524C8.74918 11.7768 8.8254 11.7007 8.8254 11.6067C8.8254 11.5127 8.74928 11.4365 8.65534 11.4365H10.6121C10.7531 11.4365 10.8673 11.3222 10.8673 11.1813C10.8673 11.0404 10.753 10.9261 10.612 10.9261Z" fill="#C87878"/>
</g>
<defs>
<clipPath id="clip0_11_2153">
<rect width="48" height="32" fill="white"/>
</clipPath>
</defs>
</svg>
