<svg width="48" height="32" viewBox="0 0 48 32" fill="none" xmlns="http://www.w3.org/2000/svg">
<g clip-path="url(#clip0_11_1051)">
<path d="M47.9999 10.7588H0V1.10362C0 0.646594 0.370593 0.276001 0.827623 0.276001H47.1724C47.6294 0.276001 48 0.646594 48 1.10362L47.9999 10.7588Z" fill="#FF4B55"/>
<path d="M47.1723 31.7242H0.827623C0.370593 31.7242 0 31.3536 0 30.8966V21.2415H47.9999V30.8966C47.9999 31.3537 47.6293 31.7242 47.1723 31.7242Z" fill="#464655"/>
<path d="M47.9999 10.7584H0V21.2406H47.9999V10.7584Z" fill="white"/>
<path d="M14.0652 12.9356L14.7552 15.0045L16.936 15.0214C17.2182 15.0235 17.3353 15.3838 17.1082 15.5516L15.3538 16.8472L16.0117 18.9265C16.0968 19.1957 15.7903 19.4184 15.5607 19.2543L13.7864 17.9861L12.0122 19.2543C11.7824 19.4184 11.4761 19.1957 11.5612 18.9265L12.219 16.8472L10.4647 15.5516C10.2375 15.3839 10.3546 15.0235 10.6369 15.0214L12.8177 15.0045L13.5077 12.9356C13.597 12.6678 13.9758 12.6678 14.0652 12.9356Z" fill="#73AF00"/>
<path d="M34.4918 12.9356L35.1818 15.0045L37.3627 15.0214C37.6449 15.0235 37.762 15.3838 37.5349 15.5516L35.7805 16.8472L36.4384 18.9265C36.5235 19.1957 36.217 19.4184 35.9873 19.2543L34.2131 17.9861L32.4389 19.2543C32.2091 19.4184 31.9027 19.1957 31.9879 18.9265L32.6457 16.8472L30.8914 15.5516C30.6642 15.3839 30.7813 15.0235 31.0636 15.0214L33.2444 15.0045L33.9344 12.9356C34.0237 12.6678 34.4025 12.6678 34.4918 12.9356Z" fill="#73AF00"/>
</g>
<defs>
<clipPath id="clip0_11_1051">
<rect width="48" height="32" fill="white"/>
</clipPath>
</defs>
</svg>
