<svg width="48" height="32" viewBox="0 0 48 32" fill="none" xmlns="http://www.w3.org/2000/svg">
<g clip-path="url(#clip0_11_3425)">
<path d="M0 25.931H47.9999V30.8966C47.9999 31.3536 47.6293 31.7242 47.1723 31.7242H0.827623C0.370593 31.7242 0 31.3536 0 30.8966V25.931Z" fill="#4173CD"/>
<path d="M0.827623 0.27597H47.1724C47.6294 0.27597 48 0.646563 48 1.10359V6.06915H0V1.1035C0 0.646469 0.370593 0.27597 0.827623 0.27597Z" fill="#4173CD"/>
<path d="M47.9999 6.06898H0V25.9308H47.9999V6.06898Z" fill="#FF4B55"/>
<path d="M47.9999 5.24124H0V6.89639H47.9999V5.24124Z" fill="#FFE15A"/>
<path d="M47.9999 25.103H0V26.7581H47.9999V25.103Z" fill="#FFE15A"/>
<path d="M42.0842 16.7985H5.8815C5.63579 16.7985 5.43666 16.5994 5.43666 16.3537V16.213C5.43666 15.9673 5.63579 15.7681 5.8815 15.7681H42.0842C42.3299 15.7681 42.5291 15.9673 42.5291 16.213V16.3537C42.5291 16.5993 42.3299 16.7985 42.0842 16.7985Z" fill="#FFE15A"/>
<path d="M35.059 14.738L36.862 13.9652L38.6651 14.738L36.862 15.5107L35.059 14.738Z" fill="white"/>
<path d="M35.5027 14.4086H9.04289C8.8611 14.4086 8.71373 14.5559 8.71373 14.7378C8.71373 14.9196 8.86101 15.067 9.04289 15.067H35.5026C35.6844 15.067 35.8318 14.9196 35.8318 14.7378C35.8318 14.556 35.6844 14.4086 35.5027 14.4086Z" fill="#FFE15A"/>
<path d="M36.9336 12.9348L38.7367 12.162L40.5398 12.9348L38.7367 13.7076L36.9336 12.9348Z" fill="white"/>
<path d="M37.3772 12.6057H10.9174C10.7356 12.6057 10.5883 12.753 10.5883 12.9349C10.5883 13.1166 10.7356 13.264 10.9174 13.264H37.3772C37.559 13.264 37.7063 13.1166 37.7063 12.9349C37.7063 12.7531 37.5591 12.6057 37.3772 12.6057Z" fill="#FFE15A"/>
<path d="M23.9826 9.58621C19.4068 9.58621 15.4148 12.1774 13.2766 16.0259C15.4147 19.8743 19.4068 22.4656 23.9826 22.4656C28.5583 22.4656 32.5504 19.8744 34.6885 16.0259C32.5505 12.1774 28.5582 9.58621 23.9826 9.58621Z" fill="white"/>
<path d="M13.2767 16.0257C15.4148 19.8742 19.4069 22.4654 23.9827 22.4654C24.7467 22.4654 25.4926 22.387 26.2182 22.2487C25.6643 21.0326 23.716 21.0347 23.5963 20.5765C23.4675 20.0828 25.1847 20.1901 25.4853 19.7822C25.7859 19.3744 23.854 19.2026 23.7681 18.7948C23.6822 18.3869 24.5409 18.1079 24.6912 17.464C24.8414 16.82 25.1848 16.6269 25.4424 16.2405C25.7 15.8542 25.0131 15.7254 24.8413 14.4374C24.6696 13.1495 23.6607 12.9777 23.1671 11.9261C22.6733 10.8743 23.4676 10.1015 23.9828 9.58634C19.4069 9.58606 15.4148 12.1772 13.2767 16.0257Z" fill="#464655"/>
<path d="M17.7997 13.7077H17.2845V15.7684H17.7997V13.7077Z" fill="white"/>
<path d="M18.831 13.7077H18.3158V15.7684H18.831V13.7077Z" fill="white"/>
<path d="M19.8611 13.7077H19.3459V15.7684H19.8611V13.7077Z" fill="white"/>
<path d="M20.8916 13.7077H20.3764V15.7684H20.8916V13.7077Z" fill="white"/>
<path d="M21.9217 13.7077H21.4065V15.7684H21.9217V13.7077Z" fill="white"/>
<path d="M22.9522 13.7077H22.4371V15.7684H22.9522V13.7077Z" fill="white"/>
<path d="M17.7997 16.7987H17.2845V18.8594H17.7997V16.7987Z" fill="white"/>
<path d="M18.831 16.7987H18.3158V18.8594H18.831V16.7987Z" fill="white"/>
<path d="M19.8611 16.7987H19.3459V18.8594H19.8611V16.7987Z" fill="white"/>
<path d="M20.8916 16.7987H20.3764V18.8594H20.8916V16.7987Z" fill="white"/>
<path d="M21.9217 16.7987H21.4065V18.8594H21.9217V16.7987Z" fill="white"/>
<path d="M22.9522 16.7987H22.4371V18.8594H22.9522V16.7987Z" fill="white"/>
<path d="M25.5278 13.7077H25.0126V15.7684H25.5278V13.7077Z" fill="#464655"/>
<path d="M26.5579 13.7077H26.0427V15.7684H26.5579V13.7077Z" fill="#464655"/>
<path d="M27.5884 13.7077H27.0733V15.7684H27.5884V13.7077Z" fill="#464655"/>
<path d="M28.6185 13.7077H28.1034V15.7684H28.6185V13.7077Z" fill="#464655"/>
<path d="M29.6491 13.7077H29.1339V15.7684H29.6491V13.7077Z" fill="#464655"/>
<path d="M30.6792 13.7077H30.164V15.7684H30.6792V13.7077Z" fill="#464655"/>
<path d="M25.5278 16.7987H25.0126V18.8594H25.5278V16.7987Z" fill="#464655"/>
<path d="M26.5579 16.7987H26.0427V18.8594H26.5579V16.7987Z" fill="#464655"/>
<path d="M27.5884 16.7987H27.0733V18.8594H27.5884V16.7987Z" fill="#464655"/>
<path d="M28.6185 16.7987H28.1034V18.8594H28.6185V16.7987Z" fill="#464655"/>
<path d="M29.6491 16.7987H29.1339V18.8594H29.6491V16.7987Z" fill="#464655"/>
<path d="M30.6792 16.7987H30.164V18.8594H30.6792V16.7987Z" fill="#464655"/>
<path d="M39.8796 15.6878C39.467 16.6462 38.2929 16.759 38.9435 19.2021L39.2767 18.8639C39.2767 18.8639 39.6258 19.7848 40.4667 20.4049C40.4667 20.4049 41.498 19.5404 41.5774 18.1686L42.0057 18.3566C42.0057 18.3563 41.7995 15.857 39.8796 15.6878Z" fill="#245DBD"/>
<path d="M41.4028 17.6514C41.3698 17.6514 41.3371 17.6361 41.3123 17.6062C40.9082 17.1188 40.3935 16.9625 40.3886 16.9609C40.3206 16.9409 40.279 16.8592 40.2959 16.7788C40.3127 16.6989 40.3816 16.649 40.4492 16.6689C40.473 16.676 41.037 16.8457 41.4932 17.396C41.5423 17.4547 41.5415 17.5504 41.4918 17.6086C41.4671 17.6374 41.4351 17.6514 41.4028 17.6514Z" fill="#FF4B55"/>
<path d="M41.1121 18.7886C41.0741 18.7886 41.0364 18.7686 41.0114 18.7298C40.7117 18.2682 40.3717 18.0168 40.3683 18.0145C40.3084 17.9711 40.2902 17.8783 40.3269 17.8072C40.3638 17.7368 40.4419 17.715 40.5018 17.7585C40.5174 17.7696 40.885 18.0421 41.2128 18.5466C41.2554 18.6124 41.245 18.7069 41.1895 18.7575C41.1665 18.7785 41.1391 18.7886 41.1121 18.7886Z" fill="#FF4B55"/>
<path d="M40.4463 20.0539C40.4392 20.0539 40.432 20.0533 40.4245 20.0516C40.3556 20.0375 40.3089 19.9599 40.3208 19.8783C40.3708 19.5342 40.3289 18.9698 40.2602 18.6785C40.2414 18.5987 40.2808 18.5158 40.3482 18.4929C40.4164 18.4712 40.4859 18.5176 40.5046 18.5975C40.5823 18.9264 40.6276 19.5402 40.571 19.9289C40.5605 20.0023 40.5068 20.0539 40.4463 20.0539Z" fill="#FF4B55"/>
<path d="M39.5531 18.6656C39.5169 18.6656 39.481 18.6474 39.456 18.6122C39.4109 18.5488 39.4176 18.4536 39.4711 18.4002C39.4742 18.3973 39.7982 18.0683 39.8829 17.6133C39.898 17.5323 39.9652 17.4812 40.0341 17.4988C40.1025 17.5164 40.146 17.5969 40.1309 17.678C40.0272 18.2347 39.6507 18.6147 39.6345 18.6306C39.6106 18.6539 39.5819 18.6656 39.5531 18.6656Z" fill="#FF4B55"/>
<path d="M39.2008 17.7037C39.1581 17.7037 39.1165 17.6785 39.0925 17.632C39.0558 17.5616 39.0744 17.4688 39.1342 17.4253C39.139 17.4217 39.5993 17.0829 39.7421 16.713C39.7711 16.6367 39.847 16.6031 39.9104 16.6384C39.9741 16.6731 40.0022 16.7623 39.9731 16.8375C39.7979 17.2914 39.2885 17.6656 39.2671 17.6814C39.2461 17.6967 39.2233 17.7037 39.2008 17.7037Z" fill="#FF4B55"/>
<path d="M7.71423 16.0104C7.36932 16.8117 6.38748 16.9062 6.93142 18.949L7.21004 18.6661C7.21004 18.6661 7.50189 19.4361 8.2051 19.9547C8.2051 19.9547 9.06741 19.2318 9.13379 18.0847L9.49201 18.2418C9.49201 18.2419 9.3196 16.1519 7.71423 16.0104Z" fill="#245DBD"/>
<path d="M8.98802 17.6526C8.96036 17.6526 8.93308 17.6399 8.91236 17.6147C8.57449 17.2071 8.14417 17.0765 8.13995 17.075C8.08314 17.0583 8.04826 16.9901 8.06251 16.9228C8.07658 16.8559 8.13423 16.8142 8.19076 16.8309C8.21064 16.8368 8.6822 16.9787 9.06367 17.4389C9.10474 17.488 9.10408 17.5679 9.06245 17.6166C9.04174 17.6408 9.01492 17.6526 8.98802 17.6526Z" fill="#FF4B55"/>
<path d="M8.74499 18.6032C8.71321 18.6032 8.6818 18.5865 8.6608 18.5541C8.41012 18.1681 8.12596 17.9579 8.12306 17.9559C8.07309 17.9197 8.05781 17.842 8.08837 17.7826C8.11931 17.7236 8.18456 17.7055 8.23452 17.7418C8.24756 17.7511 8.55496 17.979 8.82908 18.4009C8.8648 18.4559 8.85608 18.5349 8.80968 18.5771C8.79037 18.5948 8.76749 18.6032 8.74499 18.6032Z" fill="#FF4B55"/>
<path d="M8.18783 19.6616C8.18183 19.6616 8.17583 19.6611 8.16965 19.6597C8.11199 19.6479 8.07299 19.583 8.08293 19.5148C8.12483 19.227 8.08977 18.7551 8.0323 18.5116C8.01655 18.4448 8.04946 18.3756 8.1059 18.3564C8.1629 18.3383 8.22093 18.3771 8.23668 18.4438C8.30155 18.7188 8.33952 19.232 8.29227 19.5571C8.28336 19.6183 8.23836 19.6616 8.18783 19.6616Z" fill="#FF4B55"/>
<path d="M7.44137 18.5006C7.41109 18.5006 7.38109 18.4854 7.36009 18.4559C7.32231 18.4028 7.32793 18.3232 7.37275 18.2786C7.37547 18.2762 7.6464 18.0012 7.717 17.6206C7.72965 17.5528 7.78581 17.5102 7.84337 17.5248C7.90056 17.5395 7.93694 17.6068 7.92428 17.6746C7.83756 18.1402 7.52265 18.4579 7.50925 18.4712C7.48947 18.4908 7.46547 18.5006 7.44137 18.5006Z" fill="#FF4B55"/>
<path d="M7.14654 17.6962C7.11082 17.6962 7.07613 17.6751 7.05588 17.6363C7.02513 17.5773 7.04079 17.4997 7.09076 17.4634C7.0947 17.4605 7.47963 17.1771 7.59907 16.8677C7.62325 16.8039 7.68682 16.7758 7.73988 16.8054C7.79313 16.8343 7.81657 16.909 7.79228 16.9718C7.64566 17.3514 7.21994 17.6641 7.20194 17.6774C7.18451 17.6903 7.16538 17.6962 7.14654 17.6962Z" fill="#FF4B55"/>
</g>
<defs>
<clipPath id="clip0_11_3425">
<rect width="48" height="32" fill="white"/>
</clipPath>
</defs>
</svg>
