<svg width="48" height="32" viewBox="0 0 48 32" fill="none" xmlns="http://www.w3.org/2000/svg">
<g clip-path="url(#clip0_11_4407)">
<path d="M47.1723 31.7242H0.827623C0.370593 31.7242 0 31.3536 0 30.8966V1.10362C0 0.646594 0.370593 0.276001 0.827623 0.276001H47.1724C47.6294 0.276001 48 0.646594 48 1.10362V30.8966C47.9999 31.3537 47.6293 31.7242 47.1723 31.7242Z" fill="#41479B"/>
<path d="M23.1723 0.276001H21.7349L14.0689 5.29846V0.276001H9.93101V5.29846L2.26509 0.276001H0.827623C0.370593 0.276001 0 0.646594 0 1.10362V1.76006L6.57702 6.06908H0V10.207H6.57702L0 14.5161V15.1725C0 15.6295 0.370593 16.0001 0.827623 16.0001H2.26509L9.93101 10.9776V16.0001H14.0689V10.9776L21.7348 16.0001H23.1722C23.6293 16.0001 23.9999 15.6295 23.9999 15.1725V14.516L17.4229 10.207H23.9999V6.06908H17.4228L23.9999 1.76006V1.10362C23.9999 0.646594 23.6295 0.276001 23.1723 0.276001Z" fill="white"/>
<path d="M23.9999 6.89671H13.2413V0.276001H10.7585V6.89671H0V9.37939H10.7585V16.0001H13.2413V9.37939H23.9999V6.89671Z" fill="#FF4B55"/>
<path d="M9.10339 6.06891L0.394405 0.41571C0.162656 0.562429 0 0.808803 0 1.10346V1.1464L7.58333 6.06891H9.10339Z" fill="#FF4B55"/>
<path d="M15.5891 6.06908L23.8742 0.691032C23.7302 0.447376 23.4761 0.276001 23.1725 0.276001H22.9935L14.0691 6.06908H15.5891Z" fill="#FF4B55"/>
<path d="M8.38813 10.2068L0.118927 15.5746C0.26152 15.8242 0.51952 15.9999 0.827582 15.9999H0.983675L9.90819 10.2068H8.38813Z" fill="#FF4B55"/>
<path d="M23.9867 15.2375L16.2368 10.207H14.7169L23.5174 15.9195C23.7812 15.7972 23.9619 15.5408 23.9867 15.2375Z" fill="#FF4B55"/>
<path d="M32.2567 11.3102C32.1568 11.3102 32.0759 11.3911 32.0759 11.491V14.5634C32.0759 20.7086 36.4136 21.7929 36.4136 21.7929C36.4136 21.7929 40.7513 20.7085 40.7513 14.5634V11.491C40.7513 11.3911 40.6704 11.3102 40.5706 11.3102H32.2567Z" fill="#FFE15A"/>
<path d="M40.2996 11.7621V14.5634C40.2996 19.7901 37.0688 21.1084 36.4138 21.3218C35.7551 21.107 32.5278 19.7872 32.5278 14.5634V11.7621H40.2996ZM40.5706 11.3102H32.2567C32.1568 11.3102 32.0759 11.3911 32.0759 11.491V14.5634C32.0759 20.7086 36.4136 21.7929 36.4136 21.7929C36.4136 21.7929 40.7513 20.7085 40.7513 14.5634V11.491C40.7513 11.3911 40.6704 11.3102 40.5706 11.3102Z" fill="white"/>
<path d="M36.899 17.0349H35.9744C35.9744 17.0349 35.2287 17.7806 35.0577 19.4186C35.0522 19.4708 35.0733 19.5237 35.1147 19.5562C35.2715 19.6791 35.7121 19.963 36.4367 19.963C37.1613 19.963 37.6018 19.6791 37.7586 19.5562C37.8 19.5239 37.821 19.4709 37.8156 19.4186C37.6447 17.7806 36.899 17.0349 36.899 17.0349Z" fill="#73AF00"/>
<path d="M36.8987 16.8808H35.9741V16.1103C35.9741 15.8561 36.1821 15.6481 36.4364 15.6481C36.6906 15.6481 36.8986 15.8561 36.8986 16.1103V16.8808H36.8987Z" fill="#FF4B55"/>
<path d="M36.8988 17.1891H35.9741C35.889 17.1891 35.82 17.1201 35.82 17.035C35.82 16.9499 35.889 16.8809 35.9741 16.8809H36.8988C36.9839 16.8809 37.0529 16.9499 37.0529 17.035C37.0528 17.1201 36.9838 17.1891 36.8988 17.1891Z" fill="#FF4B55"/>
<path d="M39.9808 13.7816C39.9535 13.7816 39.5515 13.7834 39.1332 13.8554V13.6144C39.4861 13.4533 39.832 13.37 39.8379 13.3686C39.8792 13.3589 39.905 13.3174 39.8953 13.276C39.8854 13.2346 39.8441 13.2088 39.8026 13.2186C39.7794 13.2239 39.4688 13.2987 39.1304 13.4459C39.1248 13.3536 39.0928 13.2688 39.0407 13.1989C39.3169 12.9852 39.5521 12.8493 39.5565 12.8469C39.5935 12.8258 39.6064 12.7788 39.5854 12.7418C39.5642 12.7048 39.5172 12.6919 39.4803 12.7129C39.4617 12.7236 39.2149 12.8659 38.9284 13.0897C38.8547 13.04 38.7661 13.011 38.6708 13.011C38.5717 13.011 38.4802 13.043 38.4049 13.0963C38.484 12.6997 38.6463 12.528 38.6486 12.5259C38.6784 12.4958 38.6783 12.4471 38.6483 12.4172C38.6182 12.3871 38.5695 12.3871 38.5394 12.4172C38.5302 12.4264 38.3805 12.581 38.2856 12.9284C38.1907 12.5809 38.041 12.4263 38.0318 12.4172C38.0019 12.3873 37.9535 12.3873 37.9232 12.4171C37.8931 12.4469 37.8929 12.4957 37.9225 12.526C37.9246 12.5281 38.0871 12.6999 38.1661 13.0963C38.0909 13.0431 37.9994 13.0111 37.9003 13.0111C37.805 13.0111 37.7163 13.0402 37.6426 13.0898C37.3562 12.8659 37.1095 12.7237 37.0907 12.713C37.0537 12.6919 37.0066 12.7048 36.9856 12.7419C36.9646 12.7789 36.9775 12.8259 37.0145 12.847C37.0188 12.8494 37.2541 12.9852 37.5304 13.1989C37.4783 13.2689 37.4463 13.3537 37.4407 13.446C37.1024 13.2987 36.7917 13.224 36.7684 13.2187C36.7268 13.2088 36.6856 13.2347 36.6758 13.2761C36.6661 13.3175 36.6918 13.359 36.7332 13.3687C36.7391 13.37 37.0849 13.4534 37.4379 13.6145V13.8554C37.0197 13.7834 36.6177 13.7817 36.5903 13.7817C36.5477 13.7817 36.5132 13.8161 36.5132 13.8587C36.5132 13.9013 36.5476 13.9358 36.5903 13.9358C36.597 13.9358 37.0182 13.9375 37.4379 14.0119V14.2612C37.2067 14.2543 36.9488 14.2866 36.7099 14.4062C36.6719 14.4253 36.6565 14.4715 36.6755 14.5095C36.6891 14.5365 36.7163 14.5522 36.7445 14.5522C36.7561 14.5522 36.7678 14.5496 36.7788 14.544C36.9916 14.4378 37.2259 14.4101 37.4378 14.4172V15.3706C37.4378 15.487 37.4262 15.604 37.4035 15.7183L37.2853 16.3093C37.2769 16.3511 37.304 16.3916 37.3456 16.3999C37.3507 16.4009 37.3558 16.4015 37.3608 16.4015C37.3968 16.4015 37.429 16.3763 37.4364 16.3395L37.5546 15.7485C37.5795 15.6243 37.592 15.4973 37.592 15.3707V14.4287C37.7076 14.4417 37.8114 14.4625 37.8949 14.4834L37.9537 15.2465C37.961 15.3417 38.0086 15.4238 38.0781 15.4796L37.8282 15.8544C37.6943 16.0553 37.8382 16.3243 38.0796 16.3243H38.4913C38.7326 16.3243 38.8766 16.0552 38.7427 15.8544L38.4928 15.4796C38.5623 15.4238 38.6099 15.3416 38.6172 15.2465L38.6759 14.4834C38.7593 14.4625 38.8632 14.4417 38.9788 14.4287V15.3706C38.9788 15.4972 38.9913 15.6242 39.0162 15.7484L39.1344 16.3394C39.1417 16.3761 39.1739 16.4014 39.2099 16.4014C39.2149 16.4014 39.22 16.401 39.2251 16.3998C39.2669 16.3915 39.2939 16.3509 39.2855 16.3092L39.1673 15.7182C39.1445 15.604 39.133 15.4871 39.133 15.3705V14.4169C39.3449 14.4098 39.5793 14.4375 39.7919 14.5438C39.803 14.5492 39.8147 14.5519 39.8263 14.5519C39.8545 14.5519 39.8817 14.5363 39.8953 14.5093C39.9143 14.4712 39.8989 14.425 39.8609 14.4059C39.6221 14.2866 39.3642 14.2542 39.1329 14.261V14.0116C39.5526 13.9372 39.9738 13.9355 39.9805 13.9355C40.0231 13.9355 40.0575 13.9009 40.0575 13.8584C40.0578 13.816 40.0233 13.7816 39.9808 13.7816ZM38.979 13.8849C38.887 13.9048 38.7963 13.9286 38.7109 13.957C38.7093 13.9266 38.7049 13.8972 38.6973 13.8687C38.7827 13.8027 38.8787 13.7428 38.9791 13.6897V13.8849H38.979ZM38.979 13.4733V13.516C38.857 13.5766 38.7368 13.6469 38.6292 13.7267C38.6069 13.6962 38.5811 13.6687 38.5515 13.6451C38.6667 13.5174 38.7948 13.3991 38.9209 13.2947C38.9573 13.3451 38.979 13.4066 38.979 13.4733ZM38.6709 13.1651C38.7168 13.1651 38.76 13.1758 38.7992 13.1939C38.6661 13.3058 38.5311 13.433 38.4103 13.571C38.3945 13.5661 38.379 13.5613 38.3625 13.5583V13.5502C38.3625 13.5151 38.3638 13.4819 38.365 13.4488C38.3778 13.2905 38.5093 13.1651 38.6709 13.1651ZM37.9004 13.1651C38.062 13.1651 38.1934 13.2904 38.2061 13.4488C38.2073 13.4819 38.2085 13.5151 38.2085 13.5503V13.5584C38.1921 13.5614 38.1765 13.5662 38.1608 13.5711C38.04 13.4331 37.905 13.3059 37.7718 13.194C37.8112 13.1759 37.8544 13.1651 37.9004 13.1651ZM37.5922 13.4733C37.5922 13.4065 37.6141 13.3451 37.6503 13.2945C37.7764 13.3989 37.9045 13.5173 38.0197 13.6449C37.9901 13.6685 37.9644 13.6961 37.942 13.7266C37.8344 13.6469 37.7143 13.5765 37.5921 13.5159L37.5922 13.4733ZM37.5922 13.6898C37.6925 13.7429 37.7885 13.8028 37.874 13.8688C37.8663 13.8973 37.8619 13.9267 37.8604 13.957C37.7748 13.9286 37.6844 13.9048 37.5923 13.8849V13.6898H37.5922ZM37.5922 14.2719V14.043C37.6888 14.0649 37.782 14.0913 37.8674 14.1231L37.8825 14.3204C37.7987 14.3009 37.7003 14.2831 37.5922 14.2719ZM38.979 14.272C38.871 14.2832 38.7724 14.301 38.6887 14.3205L38.7039 14.1232C38.7893 14.0914 38.8826 14.0651 38.979 14.0431V14.272Z" fill="#D35A10"/>
<path d="M35.1125 15.8619H34.7663L33.4436 14.6862C33.299 14.5579 33.2379 14.3598 33.2848 14.1722L33.6536 12.6969C33.6862 12.5663 33.8488 12.5213 33.9439 12.6165L34.5425 13.2151C34.5749 13.2475 34.6189 13.2658 34.6648 13.2658H35.1123V15.862L35.1125 15.8619Z" fill="#FFA033"/>
<path d="M34.8645 12.9108L34.6522 13.8668C34.6137 14.04 34.6202 14.2204 34.6712 14.3905L35.1126 15.8619H35.4587L35.9001 14.3905C35.9511 14.2204 35.9577 14.0401 35.9191 13.8668L35.7068 12.9108C35.6629 12.7137 35.4881 12.5734 35.286 12.5734H35.2851C35.0831 12.5733 34.9082 12.7137 34.8645 12.9108Z" fill="#FF9480"/>
<path d="M35.2854 12.9197C35.1898 12.9197 35.1123 12.9971 35.1123 13.0927V15.862H35.4585V13.0927C35.4585 12.9971 35.3809 12.9197 35.2854 12.9197Z" fill="#FFA0E4"/>
</g>
<defs>
<clipPath id="clip0_11_4407">
<rect width="48" height="32" fill="white"/>
</clipPath>
</defs>
</svg>
