<svg width="48" height="32" viewBox="0 0 48 32" fill="none" xmlns="http://www.w3.org/2000/svg">
<g clip-path="url(#clip0_11_1753)">
<path d="M47.9999 6.56562H0V1.10347C0 0.646441 0.370593 0.275848 0.827623 0.275848H47.1724C47.6294 0.275848 48 0.646441 48 1.10347L47.9999 6.56562Z" fill="#73AF00"/>
<path d="M47.9999 12.8557H0V19.1453H47.9999V12.8557Z" fill="#73AF00"/>
<path d="M47.9999 6.56604H0V12.8557H47.9999V6.56604Z" fill="#FFE15A"/>
<path d="M47.1723 31.7242H0.827623C0.370593 31.7242 0 31.3536 0 30.8965V25.4345H47.9999V30.8965C47.9999 31.3537 47.6293 31.7242 47.1723 31.7242Z" fill="#73AF00"/>
<path d="M47.9999 19.1453H0V25.435H47.9999V19.1453Z" fill="#FFE15A"/>
<path d="M18.2069 19.1449H0.827623C0.370593 19.1449 0 18.7743 0 18.3172V1.10347C0 0.646441 0.370593 0.275848 0.827623 0.275848H18.2069C18.6639 0.275848 19.0345 0.646441 19.0345 1.10347V18.3172C19.0344 18.7743 18.6639 19.1449 18.2069 19.1449Z" fill="#FF4B55"/>
<path d="M9.31267 4.71605L8.11661 8.30216L4.33643 8.33141C4.12925 8.3331 4.04328 8.59748 4.21006 8.72057L7.25112 10.9663L6.11084 14.5706C6.0484 14.7682 6.2734 14.9316 6.44187 14.8111L9.51742 12.6129L12.593 14.8111C12.7616 14.9317 12.9866 14.7682 12.924 14.5706L11.7837 10.9663L14.8248 8.72066C14.9916 8.59757 14.9056 8.33301 14.6984 8.33151L10.9182 8.30226L9.72189 4.71614C9.65627 4.51936 9.3782 4.51936 9.31267 4.71605Z" fill="white"/>
</g>
<defs>
<clipPath id="clip0_11_1753">
<rect width="48" height="32" fill="white"/>
</clipPath>
</defs>
</svg>
