<svg width="48" height="32" viewBox="0 0 48 32" fill="none" xmlns="http://www.w3.org/2000/svg">
<g clip-path="url(#clip0_11_4629)">
<path d="M47.175 31.7221H0.825C0.365625 31.7221 0 31.3471 0 30.8971V1.10332C0 0.643945 0.375 0.27832 0.825 0.27832H47.1656C47.625 0.27832 47.9906 0.65332 47.9906 1.10332V30.8971C48 31.3564 47.625 31.7221 47.175 31.7221Z" fill="white"/>
<path d="M47.175 31.7221H0.825C0.365625 31.7221 0 31.3471 0 30.8971V26.7627H48V30.8971C48 31.3564 47.625 31.7221 47.175 31.7221Z" fill="#FF4B55"/>
<path d="M0.825 0.27832H47.1656C47.625 0.27832 47.9906 0.65332 47.9906 1.10332V5.23769H0V1.10332C0 0.643945 0.375 0.27832 0.825 0.27832Z" fill="#FF4B55"/>
<path d="M48 10.2061H0V21.7936H48V10.2061Z" fill="#41479B"/>
</g>
<defs>
<clipPath id="clip0_11_4629">
<rect width="48" height="32" fill="white"/>
</clipPath>
</defs>
</svg>
