<svg width="48" height="32" viewBox="0 0 48 32" fill="none" xmlns="http://www.w3.org/2000/svg">
<g clip-path="url(#clip0_11_3943)">
<path d="M0 21.2411H47.9999V30.8962C47.9999 31.3533 47.6293 31.7239 47.1723 31.7239H0.827623C0.370593 31.7239 0 31.3533 0 30.8962V21.2411Z" fill="#73AF00"/>
<path d="M0.827623 0.27597H47.1724C47.6294 0.27597 48 0.646563 48 1.10359V10.7587H0V1.1035C0 0.646469 0.370593 0.27597 0.827623 0.27597Z" fill="#FF4B55"/>
<path d="M47.9999 10.7585H0V21.2407H47.9999V10.7585Z" fill="white"/>
<path d="M21.2874 18.9562C21.6315 18.7829 21.8328 18.4971 21.9405 18.2909C22.5569 18.6936 23.0851 18.5569 23.3604 18.4281C23.6289 18.3022 23.8501 18.097 23.9977 17.8879C24.1453 18.097 24.3665 18.3022 24.635 18.4281C24.9101 18.5569 25.4383 18.6934 26.0548 18.2909C26.1624 18.4971 26.3637 18.7828 26.7079 18.9562C26.9062 19.0562 27.1249 19.1063 27.3622 19.1063C27.6059 19.1063 27.8692 19.0536 28.1504 18.9482L28.0138 18.5839C27.5665 18.7516 27.187 18.7607 26.8865 18.6107C26.4657 18.401 26.3253 17.9385 26.3242 17.9346L26.2421 17.6475L26.0127 17.8386C25.6079 18.1757 25.1888 18.2584 24.8 18.0757C24.4052 17.8909 24.1921 17.5167 24.1921 17.4045V15.7257C24.2763 15.5406 24.462 15.4109 24.6783 15.4109C24.7526 15.4109 24.8261 15.427 24.8966 15.4588L25.1374 15.5675L25.101 15.3057C25.0247 14.7558 24.5502 14.3411 23.9976 14.3411C23.4448 14.3411 22.9704 14.7558 22.8941 15.3057L22.8578 15.5675L23.0985 15.4588C23.1689 15.427 23.2425 15.4109 23.3169 15.4109C23.5331 15.4109 23.7189 15.5406 23.803 15.7257V17.4045C23.803 17.5167 23.59 17.8909 23.1952 18.0757C22.8066 18.2583 22.3872 18.1759 21.9824 17.8386L21.7547 17.6499L21.671 17.9339C21.6697 17.9385 21.5291 18.401 21.1084 18.6107C20.8075 18.7608 20.4282 18.7518 19.981 18.5839L19.8445 18.9482C20.1256 19.0536 20.389 19.1063 20.6327 19.1063C20.8704 19.1062 21.089 19.0563 21.2874 18.9562ZM23.3169 15.1191C23.2936 15.1191 23.2704 15.12 23.2473 15.1221C23.3775 14.8318 23.6687 14.6328 23.9976 14.6328C24.3263 14.6328 24.6176 14.8318 24.7478 15.1221C24.4454 15.0954 24.1593 15.2432 23.9976 15.4773C23.8483 15.2609 23.5989 15.1191 23.3169 15.1191Z" fill="#FFCD5A"/>
<path d="M20.6295 20.1931L20.7528 20.5621C21.5797 20.2861 22.7626 20.1277 23.9976 20.1277C25.2327 20.1277 26.4155 20.2861 27.2425 20.5621L27.3658 20.1931C26.5007 19.9042 25.2729 19.7386 23.9976 19.7386C22.7224 19.7386 21.4946 19.9042 20.6295 20.1931Z" fill="#FFCD5A"/>
<path d="M23.9978 19.3495C24.2006 19.3502 24.3792 19.2296 24.5002 19.0673C24.4197 19.0177 24.3123 18.9886 24.1906 18.9735C24.1907 18.9691 24.1922 18.9651 24.1922 18.9606C24.1922 18.7938 24.1135 18.6498 23.9978 18.5716C23.882 18.6498 23.8033 18.7938 23.8033 18.9606C23.8033 18.965 23.8047 18.969 23.8049 18.9735C23.6833 18.9886 23.5759 19.0176 23.4954 19.0673C23.6162 19.2296 23.7949 19.35 23.9978 19.3495Z" fill="#FFCD5A"/>
<path d="M22.2126 19.5333C22.4113 19.4934 22.5624 19.3396 22.6484 19.1564C22.5597 19.1237 22.4486 19.1168 22.3265 19.1264C22.3257 19.1221 22.3263 19.1177 22.3254 19.1133C22.2921 18.95 22.1862 18.8246 22.0571 18.7711C21.9593 18.871 21.9109 19.0278 21.9443 19.1912C21.9452 19.1956 21.9474 19.1992 21.9483 19.2035C21.8323 19.2426 21.7327 19.2925 21.6639 19.3574C21.8149 19.4922 22.0139 19.5745 22.2126 19.5333Z" fill="#FFCD5A"/>
<path d="M25.9387 18.771C25.8096 18.8245 25.7036 18.9499 25.6704 19.1132C25.6694 19.1176 25.6701 19.1218 25.6692 19.1262C25.5472 19.1167 25.4361 19.1236 25.3473 19.1562C25.4334 19.3395 25.5844 19.4933 25.7831 19.5332C25.9818 19.5744 26.1808 19.4921 26.3319 19.3572C26.263 19.2924 26.1636 19.2424 26.0475 19.2033C26.0485 19.199 26.0507 19.1953 26.0515 19.1909C26.0848 19.0277 26.0363 18.8709 25.9387 18.771Z" fill="#FFCD5A"/>
<path d="M23.9457 11.6078L23.8146 12.0007L23.4005 12.0039C23.3469 12.0043 23.3247 12.0727 23.3678 12.1046L23.7009 12.3506L23.576 12.7455C23.5599 12.7966 23.618 12.8389 23.6617 12.8077L23.9986 12.5669L24.3356 12.8077C24.3793 12.8389 24.4374 12.7967 24.4213 12.7455L24.2963 12.3506L24.6294 12.1046C24.6725 12.0727 24.6503 12.0044 24.5967 12.0039L24.1826 12.0007L24.0515 11.6078C24.0345 11.5569 23.9626 11.5569 23.9457 11.6078Z" fill="#FFCD5A"/>
<path d="M21.5752 12.2561L21.4442 12.649L21.0301 12.6522C20.9765 12.6525 20.9542 12.721 20.9974 12.7529L21.3305 12.9989L21.2055 13.3937C21.1894 13.4448 21.2475 13.4871 21.2912 13.456L21.6281 13.2151L21.9651 13.456C22.0087 13.4871 22.0669 13.4449 22.0507 13.3937L21.9258 12.9989L22.2589 12.7529C22.302 12.721 22.2798 12.6526 22.2261 12.6522L21.8121 12.649L21.681 12.2561C21.6641 12.2052 21.5922 12.2052 21.5752 12.2561Z" fill="#FFCD5A"/>
<path d="M19.8329 14.0065L19.7018 14.3994L19.2877 14.4026C19.2341 14.403 19.2119 14.4714 19.255 14.5033L19.5881 14.7493L19.4632 15.1441C19.4471 15.1952 19.5052 15.2375 19.5489 15.2064L19.8858 14.9656L20.2228 15.2064C20.2665 15.2375 20.3246 15.1953 20.3085 15.1441L20.1836 14.7493L20.5167 14.5033C20.5598 14.4714 20.5376 14.4031 20.484 14.4026L20.0699 14.3994L19.9388 14.0065C19.9217 13.9557 19.8498 13.9557 19.8329 14.0065Z" fill="#FFCD5A"/>
<path d="M19.1927 16.373L19.0617 16.7659L18.6476 16.7691C18.594 16.7694 18.5717 16.8379 18.6149 16.8697L18.9479 17.1157L18.823 17.5106C18.8069 17.5617 18.865 17.604 18.9087 17.5729L19.2456 17.332L19.5825 17.5729C19.6262 17.604 19.6843 17.5618 19.6682 17.5106L19.5433 17.1157L19.8763 16.8697C19.9195 16.8379 19.8973 16.7695 19.8436 16.7691L19.4295 16.7659L19.2985 16.373C19.2816 16.3221 19.2097 16.3221 19.1927 16.373Z" fill="#FFCD5A"/>
<path d="M26.4246 12.2561L26.5557 12.649L26.9698 12.6522C27.0234 12.6525 27.0456 12.721 27.0025 12.7529L26.6694 12.9989L26.7944 13.3937C26.8105 13.4448 26.7524 13.4871 26.7087 13.456L26.3718 13.2151L26.0348 13.456C25.9911 13.4871 25.933 13.4449 25.9491 13.3937L26.0741 12.9989L25.741 12.7529C25.6979 12.721 25.7201 12.6526 25.7737 12.6522L26.1878 12.649L26.3189 12.2561C26.3358 12.2052 26.4077 12.2052 26.4246 12.2561Z" fill="#FFCD5A"/>
<path d="M28.1666 14.0065L28.2976 14.3994L28.7117 14.4026C28.7653 14.403 28.7876 14.4714 28.7444 14.5033L28.4113 14.7493L28.5363 15.1441C28.5524 15.1952 28.4943 15.2375 28.4506 15.2064L28.1137 14.9656L27.7767 15.2064C27.7331 15.2375 27.6749 15.1953 27.6911 15.1441L27.816 14.7493L27.4829 14.5033C27.4398 14.4714 27.462 14.4031 27.5156 14.4026L27.9297 14.3994L28.0608 14.0065C28.0777 13.9557 28.1496 13.9557 28.1666 14.0065Z" fill="#FFCD5A"/>
<path d="M28.8071 16.373L28.9381 16.7659L29.3522 16.7691C29.4058 16.7694 29.428 16.8379 29.3849 16.8697L29.0518 17.1157L29.1767 17.5106C29.1928 17.5617 29.1347 17.604 29.091 17.5729L28.7541 17.332L28.4172 17.5729C28.3735 17.604 28.3153 17.5618 28.3315 17.5106L28.4563 17.1157L28.1233 16.8697C28.0801 16.8379 28.1023 16.7695 28.156 16.7691L28.5701 16.7659L28.7011 16.373C28.7182 16.3221 28.7901 16.3221 28.8071 16.373Z" fill="#FFCD5A"/>
</g>
<defs>
<clipPath id="clip0_11_3943">
<rect width="48" height="32" fill="white"/>
</clipPath>
</defs>
</svg>
