<svg width="48" height="32" viewBox="0 0 48 32" fill="none" xmlns="http://www.w3.org/2000/svg">
<g clip-path="url(#clip0_11_4603)">
<path d="M47.1723 31.7242H0.827623C0.370593 31.7242 0 31.3536 0 30.8966V1.10362C0 0.646594 0.370593 0.276001 0.827623 0.276001H47.1724C47.6294 0.276001 48 0.646594 48 1.10362V30.8966C47.9999 31.3537 47.6293 31.7242 47.1723 31.7242Z" fill="#41479B"/>
<path d="M44.6897 26.7589H11.5864C11.1293 26.7589 10.7587 26.3883 10.7587 25.9313C10.7587 25.4742 11.1293 25.1036 11.5864 25.1036H44.6897L45.5173 25.9313L44.6897 26.7589Z" fill="#FFE15A"/>
<path d="M45.1033 24.276H11.5862C11.5862 24.276 24.8276 9.37952 37.2414 6.06921C37.2414 6.06921 33.1034 16.8278 43.0344 23.4485H45.1034C45.332 23.4485 45.5172 23.6337 45.5172 23.8623C45.5171 24.0906 45.332 24.276 45.1033 24.276Z" fill="#FFE15A"/>
<path d="M10.1403 19.4847L10.4613 20.4476L11.4763 20.4555C11.6076 20.4565 11.6622 20.6242 11.5564 20.7022L10.74 21.3051L11.0462 22.2729C11.0858 22.3982 10.9431 22.5019 10.8362 22.4254L10.0105 21.8352L9.18475 22.4254C9.07788 22.5018 8.93519 22.3982 8.97485 22.2729L9.28103 21.3051L8.46457 20.7022C8.35882 20.6241 8.41338 20.4564 8.54472 20.4555L9.55966 20.4476L9.88075 19.4847C9.92228 19.36 10.0986 19.36 10.1403 19.4847Z" fill="white"/>
<path d="M10.1157 6.24706L10.3761 7.02818L11.1995 7.03456C11.3062 7.0354 11.3503 7.17143 11.2646 7.23472L10.6022 7.7239L10.8506 8.50896C10.8827 8.61068 10.7669 8.69468 10.6803 8.63271L10.0104 8.15384L9.34043 8.63271C9.25371 8.69468 9.13803 8.61059 9.17018 8.50896L9.41853 7.7239L8.75618 7.23472C8.6704 7.17143 8.71456 7.0354 8.82124 7.03456L9.64465 7.02818L9.90509 6.24706C9.93893 6.146 10.082 6.146 10.1157 6.24706Z" fill="white"/>
<path d="M3.87746 11.0809L4.1379 11.8621L4.9613 11.8684C5.06799 11.8693 5.11215 12.0053 5.02636 12.0686L4.36402 12.5578L4.61237 13.3428C4.64452 13.4446 4.52874 13.5286 4.44212 13.4666L3.77218 12.9877L3.10224 13.4666C3.01552 13.5286 2.89984 13.4445 2.93199 13.3428L3.18034 12.5578L2.51799 12.0686C2.43221 12.0053 2.47637 11.8693 2.58306 11.8684L3.40646 11.8621L3.6669 11.0809C3.70074 10.9798 3.8438 10.9798 3.87746 11.0809Z" fill="white"/>
<path d="M14.5772 10.7512L14.7776 11.3523L15.4112 11.3572C15.4933 11.3578 15.5273 11.4625 15.4613 11.5112L14.9515 11.8876L15.1427 12.4917C15.1674 12.5699 15.0783 12.6347 15.0116 12.5869L14.4962 12.2185L13.9807 12.5869C13.914 12.6346 13.8249 12.5699 13.8497 12.4917L14.0408 11.8876L13.531 11.5112C13.465 11.4625 13.499 11.3578 13.5811 11.3572L14.2147 11.3523L14.4152 10.7512C14.4411 10.6733 14.5512 10.6733 14.5772 10.7512Z" fill="white"/>
</g>
<defs>
<clipPath id="clip0_11_4603">
<rect width="48" height="32" fill="white"/>
</clipPath>
</defs>
</svg>
