<svg width="48" height="32" viewBox="0 0 48 32" fill="none" xmlns="http://www.w3.org/2000/svg">
<g clip-path="url(#clip0_11_3127)">
<path d="M47.1723 0.27597H0.827623C0.370593 0.27597 0 0.646469 0 1.1035V30.8965C0 31.3536 0.370593 31.7242 0.827623 31.7242H47.1724C47.6294 31.7242 48 31.3536 48 30.8965V1.1035C47.9999 0.646469 47.6293 0.27597 47.1723 0.27597Z" fill="#FF4B55"/>
<path d="M0.327656 31.5391L26.9402 16.514C27.3404 16.288 27.3404 15.7118 26.9402 15.486L0.327656 0.460807C0.133125 0.612213 0 0.837868 0 1.10337V30.8964C0 31.162 0.133218 31.3877 0.327656 31.5391Z" fill="#FFE15A"/>
<path d="M0.256968 31.4915L18.3443 16.5692C18.7022 16.274 18.7022 15.7258 18.3443 15.4305L0.256968 0.508262C0.0998435 0.659011 0 0.868448 0 1.10329V30.8963C0 31.1313 0.0998435 31.3408 0.256968 31.4915Z" fill="#464655"/>
<path d="M5.16851 12.1136L5.24735 15.0922L2.45464 16.1311C2.1868 16.2307 2.19992 16.6139 2.47395 16.695L5.33116 17.5404L5.45623 20.5175C5.46823 20.803 5.83666 20.9089 5.99848 20.6734L7.6855 18.2172L10.5555 19.0182C10.8306 19.0951 11.0453 18.7773 10.8713 18.5507L9.05659 16.1872L10.7053 13.7053C10.8633 13.4673 10.6276 13.165 10.3582 13.2605L7.54985 14.2559L5.69885 11.921C5.5212 11.697 5.16091 11.828 5.16851 12.1136Z" fill="white"/>
</g>
<defs>
<clipPath id="clip0_11_3127">
<rect width="48" height="32" fill="white"/>
</clipPath>
</defs>
</svg>
