<svg width="48" height="32" viewBox="0 0 48 32" fill="none" xmlns="http://www.w3.org/2000/svg">
<g clip-path="url(#clip0_11_4512)">
<path d="M47.1723 31.7238H0.827623C0.370593 31.7238 0 31.3532 0 30.8962V1.10326C0 0.646227 0.370593 0.275635 0.827623 0.275635H47.1724C47.6294 0.275635 48 0.646227 48 1.10326V30.8962C47.9999 31.3534 47.6293 31.7238 47.1723 31.7238Z" fill="#73AF00"/>
<path d="M14.8967 0.276062H6.62051V31.7244H14.8967V0.276062Z" fill="#FF4B55"/>
<path d="M14.0689 3.86174L12.4138 5.24108H9.10339L7.44824 3.86174V2.4824L9.10339 1.10315H12.4138L14.0689 2.4824V3.86174Z" fill="white"/>
<path d="M14.0689 15.4479L12.4138 16.8273H9.10339L7.44824 15.4479V14.0687L9.10339 12.6893H12.4138L14.0689 14.0687V15.4479Z" fill="#73AF00"/>
<path d="M14.0689 9.65483L12.4138 11.0342H9.10339L7.44824 9.65483V8.27558L9.10339 6.89624H12.4138L14.0689 8.27558V9.65483Z" fill="#73AF00"/>
<path d="M14.0689 21.2411L12.4138 22.6204H9.10339L7.44824 21.2411V19.8619L9.10339 18.4825H12.4138L14.0689 19.8619V21.2411Z" fill="#73AF00"/>
<path d="M6.62062 4.41339L8.27577 6.06854L6.62062 7.7237V4.41339Z" fill="#FFB400"/>
<path d="M14.8963 7.7237L13.2411 6.06854L14.8963 4.41339V7.7237Z" fill="#FFB400"/>
<path d="M6.62062 10.2065L8.27577 11.8616L6.62062 13.5168V10.2065Z" fill="#FFB400"/>
<path d="M14.8963 13.5168L13.2411 11.8616L14.8963 10.2065V13.5168Z" fill="#FFB400"/>
<path d="M6.62062 15.9996L8.27577 17.6548L6.62062 19.31V15.9996Z" fill="#FFB400"/>
<path d="M14.8963 19.31L13.2411 17.6548L14.8963 15.9996V19.31Z" fill="#FFB400"/>
<path d="M6.62062 21.7927L8.27577 23.4479L6.62062 25.103V21.7927Z" fill="#FFB400"/>
<path d="M14.8963 25.103L13.2411 23.4479L14.8963 21.7927V25.103Z" fill="#FFB400"/>
<path d="M6.62062 0.275635H8.27577L6.62062 1.93079V0.275635Z" fill="#FFB400"/>
<path d="M14.8963 1.93079L13.2411 0.275635H14.8963V1.93079Z" fill="#FFB400"/>
<path d="M11.1719 6.89661H10.3443V11.0347H11.1719V6.89661Z" fill="#FFB400"/>
<path d="M12.4133 8.55139H9.10301V9.37901H12.4133V8.55139Z" fill="#FF4B55"/>
<path d="M13.2413 7.58586L12.4137 6.89624V11.0342L13.2413 10.3445V7.58586Z" fill="#FFB400"/>
<path d="M8.27597 10.3445L9.1035 11.0342V6.89636L8.27597 7.58589V10.3445Z" fill="#FFB400"/>
<path d="M10.7585 1.10315H9.10349L7.44824 2.4824V3.17211H10.7585V1.10315Z" fill="#FFB400"/>
<path d="M10.7585 5.24121H12.4137L14.0689 3.86186V3.17224H10.7585V5.24121Z" fill="#FFB400"/>
<path d="M10.7585 4.41331L9.10336 3.17685L10.7585 1.93054L12.4138 3.17685L10.7585 4.41331Z" fill="#FF4B55"/>
<path d="M10.7585 4.41315L12.4137 3.17669L12.4073 3.17181H10.7585V4.41315Z" fill="#73AF00"/>
<path d="M10.7585 3.17198V1.93054L9.10986 3.17198H10.7585Z" fill="#73AF00"/>
<path d="M12.4133 13.5171H9.10301V15.9999H12.4133V13.5171Z" fill="#FF4B55"/>
<path d="M13.2411 14.3441H12.4135V15.1717H13.2411V14.3441Z" fill="#FFB400"/>
<path d="M11.1719 14.3441H10.3443V15.1717H11.1719V14.3441Z" fill="white"/>
<path d="M11.1719 19.3099H10.3443V20.1375H11.1719V19.3099Z" fill="#FF4B55"/>
<path d="M12.4141 20.1377H11.5865V20.9653H12.4141V20.1377Z" fill="#FFB400"/>
<path d="M9.93064 20.1377H9.10301V20.9653H9.93064V20.1377Z" fill="#FFB400"/>
<path d="M11.1719 20.9647H10.3443V21.7923H11.1719V20.9647Z" fill="#FF4B55"/>
<path d="M9.10384 14.3441H8.27621V15.1717H9.10384V14.3441Z" fill="#FFB400"/>
<path d="M14.0689 27.0342L12.4138 28.4135H9.10339L7.44824 27.0342V25.655L9.10339 24.2756H12.4138L14.0689 25.655V27.0342Z" fill="white"/>
<path d="M10.7585 24.2756H9.10349L7.44824 25.6549V26.3445H10.7585V24.2756Z" fill="#FFB400"/>
<path d="M10.7585 28.4136H12.4137L14.0689 27.0343V26.3447H10.7585V28.4136Z" fill="#FFB400"/>
<path d="M12.4138 26.7581L10.7585 27.5857L9.10336 26.7581V25.9306L10.7585 25.103L12.4138 25.9306V26.7581Z" fill="#FF4B55"/>
<path d="M26.2511 4.78198C26.163 4.73867 26.0832 4.85333 26.1547 4.92073C27.0913 5.80451 27.6831 7.04567 27.6831 8.43007C27.6831 11.1495 25.4973 13.3312 22.8094 13.3312C22.3133 13.3312 21.8355 13.2539 21.3847 13.113C21.2914 13.0838 21.2309 13.2091 21.3113 13.2649C22.0971 13.8112 23.0443 14.1377 24.0783 14.1377C26.8016 14.1377 29.027 11.9557 29.027 9.19685C29.027 7.25791 27.8889 5.5872 26.2511 4.78198Z" fill="white"/>
<path d="M19.5162 7.97505L19.3138 8.54777L19.7901 8.92473C19.8517 8.97358 19.8158 9.07276 19.7372 9.0707L19.13 9.05504L18.9187 9.62448C18.8913 9.69826 18.7858 9.6947 18.7635 9.61932L18.5907 9.03704L17.9838 9.01201C17.9051 9.00883 17.876 8.90739 17.9407 8.86286L18.4412 8.51861L18.2774 7.93361C18.2562 7.85786 18.3436 7.79871 18.406 7.84661L18.8881 8.21617L19.3939 7.87961C19.4591 7.83602 19.5424 7.9009 19.5162 7.97505Z" fill="white"/>
<path d="M21.9758 9.21724L21.7734 9.78996L22.2496 10.1669C22.3113 10.2158 22.2754 10.315 22.1967 10.3129L21.5895 10.2972L21.3782 10.8667C21.3508 10.9405 21.2454 10.9369 21.223 10.8615L21.0503 10.2792L20.4433 10.2542C20.3647 10.251 20.3355 10.1496 20.4003 10.1051L20.9007 9.7608L20.737 9.1758C20.7158 9.10005 20.8031 9.0409 20.8656 9.0888L21.3476 9.45837L21.8534 9.1218C21.9188 9.0783 22.0019 9.14318 21.9758 9.21724Z" fill="white"/>
<path d="M21.9506 6.65828L21.7482 7.23099L22.2244 7.60796C22.2861 7.6568 22.2502 7.75599 22.1716 7.75393L21.5643 7.73827L21.353 8.3077C21.3257 8.38148 21.2202 8.37792 21.1979 8.30255L21.0251 7.72027L20.4182 7.69524C20.3395 7.69205 20.3104 7.59062 20.3751 7.54608L20.8756 7.20184L20.7118 6.61684C20.6906 6.54109 20.778 6.48194 20.8404 6.52984L21.3225 6.8994L21.8283 6.56284C21.8936 6.51934 21.9768 6.58422 21.9506 6.65828Z" fill="white"/>
<path d="M22.0348 4.18861L21.8324 4.76133L22.3087 5.13829C22.3703 5.18714 22.3344 5.28633 22.2558 5.28426L21.6486 5.26861L21.4373 5.83804C21.4099 5.91182 21.3044 5.90826 21.2821 5.83288L21.1093 5.25061L20.5024 5.22557C20.4237 5.22239 20.3946 5.12095 20.4593 5.07642L20.9598 4.73217L20.796 4.14718C20.7748 4.07143 20.8622 4.01227 20.9246 4.06018L21.4067 4.42974L21.9125 4.09318C21.9777 4.04958 22.061 4.11446 22.0348 4.18861Z" fill="white"/>
<path d="M24.4446 5.4308L24.2422 6.00352L24.7184 6.38049C24.7801 6.42933 24.7442 6.52852 24.6656 6.52646L24.0583 6.5108L23.847 7.08024C23.8197 7.15402 23.7142 7.15046 23.6919 7.07509L23.5191 6.4928L22.9122 6.46777C22.8335 6.46458 22.8043 6.36315 22.8691 6.31862L23.3696 5.97437L23.2058 5.38936C23.1846 5.31361 23.272 5.25446 23.3344 5.30236L23.8165 5.67193L24.3222 5.33536C24.3875 5.29177 24.4707 5.35665 24.4446 5.4308Z" fill="white"/>
</g>
<defs>
<clipPath id="clip0_11_4512">
<rect width="48" height="32" fill="white"/>
</clipPath>
</defs>
</svg>
