<svg width="48" height="32" viewBox="0 0 48 32" fill="none" xmlns="http://www.w3.org/2000/svg">
<g clip-path="url(#clip0_11_1438)">
<path d="M47.1723 31.7242H0.827623C0.370593 31.7242 0 31.3536 0 30.8965V1.1035C0 0.646472 0.370593 0.275879 0.827623 0.275879H47.1724C47.6294 0.275879 48 0.646472 48 1.1035V30.8965C47.9999 31.3537 47.6293 31.7242 47.1723 31.7242Z" fill="#FF4B55"/>
<path d="M24.0937 7.72424C28.661 7.72424 32.3629 11.4362 32.3629 16.0001C32.3629 20.5772 28.661 24.276 24.0937 24.276C19.5165 24.276 15.8112 20.5772 15.8112 16.0001C15.8112 11.4362 19.5165 7.72424 24.0937 7.72424Z" fill="white"/>
<path d="M25.5979 20.6375C23.036 20.6375 20.958 18.5596 20.958 16.0006C20.958 13.4478 23.036 11.3698 25.5979 11.3698C26.4693 11.3698 27.2836 11.6139 27.9796 12.0356C28.0839 12.0988 28.1936 11.9623 28.1067 11.8767C27.0625 10.8479 25.6327 10.2107 24.0534 10.2107C20.8472 10.2107 18.251 12.8068 18.251 16.0008C18.251 19.2009 20.8471 21.7968 24.0534 21.7968C25.632 21.7968 27.0612 21.1601 28.1052 20.1316C28.1921 20.046 28.0824 19.9095 27.9781 19.9726C27.2823 20.3939 26.4686 20.6375 25.5979 20.6375Z" fill="#FF4B55"/>
<path d="M25.1739 12.7552L26.453 14.492L28.5104 13.844C28.7767 13.7601 28.9966 14.0635 28.834 14.2904L27.5776 16.0436L28.8296 17.8C28.9917 18.0274 28.771 18.3303 28.5048 18.2457L26.4491 17.5925L25.1655 19.3259C24.9993 19.5504 24.6431 19.4341 24.6413 19.1548L24.6273 16.9979L22.5821 16.3129C22.3172 16.2242 22.3178 15.8495 22.5828 15.7615L24.6299 15.0817L24.6493 12.9248C24.6518 12.6456 25.0083 12.5303 25.1739 12.7552Z" fill="#FF4B55"/>
</g>
<defs>
<clipPath id="clip0_11_1438">
<rect width="48" height="32" fill="white"/>
</clipPath>
</defs>
</svg>
