<svg width="48" height="32" viewBox="0 0 48 32" fill="none" xmlns="http://www.w3.org/2000/svg">
<g clip-path="url(#clip0_11_3900)">
<path d="M47.1723 31.7242H0.827623C0.370593 31.7242 0 31.3536 0 30.8965V1.10359C0 0.646563 0.370593 0.27597 0.827623 0.27597H47.1724C47.6294 0.27597 48 0.646563 48 1.10359V30.8965C47.9999 31.3537 47.6293 31.7242 47.1723 31.7242Z" fill="#FF4B55"/>
<path d="M18.2068 16.0001H0.827623C0.370593 16.0001 0 15.6295 0 15.1724V1.10359C0 0.646563 0.370593 0.27597 0.827623 0.27597H18.2069C18.6639 0.27597 19.0345 0.646563 19.0345 1.10359V15.1725C19.0344 15.6297 18.6638 16.0001 18.2068 16.0001Z" fill="white"/>
<path d="M15.724 6.06881H11.5861V1.93088H7.44818V6.06881H3.31026V10.2067H7.44818V14.3447H11.5861V10.2067H15.724V6.06881Z" fill="#FF4B55"/>
</g>
<defs>
<clipPath id="clip0_11_3900">
<rect width="48" height="32" fill="white"/>
</clipPath>
</defs>
</svg>
