<svg width="48" height="32" viewBox="0 0 48 32" fill="none" xmlns="http://www.w3.org/2000/svg">
<g clip-path="url(#clip0_11_4314)">
<path d="M47.1723 31.7243H0.827623C0.370593 31.7243 0 31.3537 0 30.8967V1.10362C0 0.646594 0.370593 0.276001 0.827623 0.276001H47.1724C47.6294 0.276001 48 0.646594 48 1.10362V30.8967C47.9999 31.3538 47.6293 31.7243 47.1723 31.7243Z" fill="#FF4B55"/>
<path d="M23.7632 13.164L25.0604 14.861L27.0859 14.183C27.1992 14.1451 27.2956 14.2732 27.2277 14.3715L26.0147 16.1295L27.2855 17.8465C27.3565 17.9425 27.2645 18.0736 27.1501 18.0395L25.1031 17.4291L23.863 19.1682C23.7937 19.2654 23.6404 19.2184 23.6375 19.0991L23.5854 16.9637L21.5482 16.3216C21.4343 16.2857 21.4316 16.1255 21.5443 16.0859L23.5591 15.3765L23.5401 13.2406C23.539 13.1212 23.6907 13.0692 23.7632 13.164Z" fill="white"/>
<path d="M16.5895 22.6244C12.9338 22.6244 9.96827 19.6588 9.96827 15.9998C9.96827 12.3475 12.9339 9.37523 16.5895 9.37523C17.9497 9.37523 19.2039 9.79354 20.2492 10.5015C20.4093 10.6099 20.592 10.3996 20.458 10.2603C18.8958 8.6361 16.6848 7.64526 14.2332 7.72898C10.0214 7.8727 6.53468 11.2496 6.26552 15.4552C5.95737 20.2723 9.77167 24.2757 14.5207 24.2757C16.86 24.2757 18.9624 23.2977 20.4637 21.734C20.5964 21.5959 20.4133 21.3887 20.2548 21.4961C19.2083 22.2057 17.952 22.6244 16.5895 22.6244Z" fill="white"/>
</g>
<defs>
<clipPath id="clip0_11_4314">
<rect width="48" height="32" fill="white"/>
</clipPath>
</defs>
</svg>
