<svg width="48" height="32" viewBox="0 0 48 32" fill="none" xmlns="http://www.w3.org/2000/svg">
<g clip-path="url(#clip0_11_3779)">
<path d="M47.1723 31.7243H0.827623C0.370593 31.7243 0 31.3537 0 30.8966V1.10359C0 0.646563 0.370593 0.27597 0.827623 0.27597H47.1724C47.6294 0.27597 48 0.646563 48 1.10359V30.8966C47.9999 31.3538 47.6293 31.7243 47.1723 31.7243Z" fill="#FF4B55"/>
<path d="M0.827531 0.276093C0.60375 0.276093 0.402375 0.366748 0.253407 0.511029L33.931 31.7243H36.4137L2.48268 0.276093H0.827531Z" fill="white"/>
<path d="M14.069 0.276093H11.5862L45.5172 31.7243H47.1723C47.3961 31.7243 47.5975 31.6336 47.7465 31.4893L14.069 0.276093Z" fill="white"/>
<path d="M2.48286 0.276093L36.4138 31.7243H45.5172L11.5862 0.276093H2.48286Z" fill="#464655"/>
</g>
<defs>
<clipPath id="clip0_11_3779">
<rect width="48" height="32" fill="white"/>
</clipPath>
</defs>
</svg>
