<svg width="48" height="32" viewBox="0 0 48 32" fill="none" xmlns="http://www.w3.org/2000/svg">
<g clip-path="url(#clip0_11_4382)">
<path d="M47.1723 31.7242H0.827623C0.370593 31.7242 0 31.3536 0 30.8966V1.10362C0 0.646594 0.370593 0.276001 0.827623 0.276001H47.1724C47.6294 0.276001 48 0.646594 48 1.10362V30.8966C47.9999 31.3537 47.6293 31.7242 47.1723 31.7242Z" fill="#3CC8FF"/>
<path d="M23.1723 16.0001H0.827623C0.370593 16.0001 0 15.6295 0 15.1725V1.10362C0 0.646594 0.370593 0.276001 0.827623 0.276001H23.1723C23.6294 0.276001 24 0.646594 24 1.10362V15.1726C23.9999 15.6297 23.6295 16.0001 23.1723 16.0001Z" fill="#41479B"/>
<path d="M23.1723 0.276001H21.7349L14.0689 5.29846V0.276001H9.93101V5.29846L2.26509 0.276001H0.827623C0.370593 0.276001 0 0.646594 0 1.10362V1.76006L6.57702 6.06908H0V10.207H6.57702L0 14.5161V15.1725C0 15.6295 0.370593 16.0001 0.827623 16.0001H2.26509L9.93101 10.9776V16.0001H14.0689V10.9776L21.7348 16.0001H23.1722C23.6293 16.0001 23.9999 15.6295 23.9999 15.1725V14.516L17.4229 10.207H23.9999V6.06908H17.4228L23.9999 1.76006V1.10362C23.9999 0.646594 23.6295 0.276001 23.1723 0.276001Z" fill="white"/>
<path d="M23.9999 6.89671H13.2413V0.276001H10.7585V6.89671H0V9.37939H10.7585V16.0001H13.2413V9.37939H23.9999V6.89671Z" fill="#FF4B55"/>
<path d="M9.10339 6.06891L0.394405 0.41571C0.162656 0.562429 0 0.808803 0 1.10346V1.1464L7.58333 6.06891H9.10339Z" fill="#FF4B55"/>
<path d="M15.5891 6.06908L23.8742 0.691032C23.7302 0.447376 23.4761 0.276001 23.1725 0.276001H22.9935L14.0691 6.06908H15.5891Z" fill="#FF4B55"/>
<path d="M8.38813 10.2068L0.118929 15.5746C0.261522 15.8242 0.519522 15.9999 0.827584 15.9999H0.983677L9.90819 10.2068H8.38813Z" fill="#FF4B55"/>
<path d="M23.9867 15.2375L16.2368 10.207H14.7169L23.5174 15.9195C23.7812 15.7972 23.9619 15.5408 23.9867 15.2375Z" fill="#FF4B55"/>
<path d="M26.6561 26.0106L27.059 27.2185L28.3322 27.2283C28.497 27.2295 28.5653 27.44 28.4328 27.5379L27.4085 28.2942L27.7926 29.5081C27.8424 29.6653 27.6635 29.7953 27.5293 29.6994L26.4934 28.959L25.4576 29.6994C25.3235 29.7953 25.1446 29.6653 25.1943 29.5081L25.5784 28.2942L24.5541 27.5379C24.4215 27.4399 24.4899 27.2296 24.6547 27.2283L25.928 27.2185L26.3308 26.0106C26.3826 25.8542 26.6039 25.8542 26.6561 26.0106Z" fill="#FFE15A"/>
<path d="M38.3746 16.8971L38.7774 18.1049L40.0507 18.1148C40.2155 18.116 40.2838 18.3265 40.1512 18.4243L39.127 19.1806L39.5111 20.3946C39.5609 20.5517 39.3819 20.6817 39.2478 20.5858L38.2119 19.8455L37.1761 20.5858C37.042 20.6817 36.8631 20.5517 36.9127 20.3946L37.2968 19.1806L36.2726 18.4243C36.14 18.3264 36.2084 18.1161 36.3732 18.1148L37.6464 18.1049L38.0493 16.8971C38.1013 16.7407 38.3225 16.7407 38.3746 16.8971Z" fill="#FFE15A"/>
<path d="M43.9003 13.5105L44.3031 14.7184L45.5763 14.7283C45.7411 14.7295 45.8095 14.9399 45.6769 15.0378L44.6527 15.7941L45.0368 17.0081C45.0866 17.1652 44.9076 17.2952 44.7735 17.1993L43.7376 16.459L42.7018 17.1993C42.5677 17.2952 42.3887 17.1652 42.4384 17.0081L42.8225 15.7941L41.7983 15.0378C41.6656 14.9398 41.7341 14.7296 41.8989 14.7283L43.1721 14.7184L43.5749 13.5105C43.6269 13.3541 43.8481 13.3541 43.9003 13.5105Z" fill="#FFE15A"/>
<path d="M42.5821 1.89035L42.9849 3.09823L44.2581 3.10807C44.4229 3.10929 44.4913 3.31976 44.3587 3.41763L43.3345 4.17391L43.7186 5.38788C43.7684 5.545 43.5894 5.67504 43.4552 5.57913L42.4194 4.83879L41.3836 5.57913C41.2495 5.67504 41.0705 5.545 41.1202 5.38788L41.5043 4.17391L40.4801 3.41763C40.3474 3.31966 40.4159 3.10938 40.5807 3.10807L41.8539 3.09823L42.2567 1.89035C42.3087 1.73398 42.5298 1.73398 42.5821 1.89035Z" fill="#FFE15A"/>
<path d="M31.5549 29.029L31.1521 27.8212L29.8789 27.8113C29.7141 27.8101 29.6457 27.5996 29.7783 27.5017L30.8025 26.7455L30.4184 25.5315C30.3686 25.3744 30.5476 25.2444 30.6818 25.3403L31.7176 26.0806L32.7534 25.3403C32.8875 25.2444 33.0665 25.3744 33.0168 25.5315L32.6327 26.7455L33.6569 27.5017C33.7896 27.5997 33.7211 27.81 33.5563 27.8113L32.2831 27.8212L31.8803 29.029C31.8282 29.1854 31.6071 29.1854 31.5549 29.029Z" fill="#FFE15A"/>
<path d="M35.3631 25.6113L34.9602 24.4034L33.687 24.3936C33.5222 24.3924 33.4539 24.1819 33.5864 24.084L34.6106 23.3278L34.2265 22.1138C34.1768 21.9567 34.3557 21.8266 34.4899 21.9225L35.5257 22.6629L36.5616 21.9225C36.6956 21.8266 36.8746 21.9567 36.8249 22.1138L36.4408 23.3278L37.465 24.084C37.5977 24.182 37.5293 24.3923 37.3644 24.3936L36.0912 24.4034L35.6884 25.6113C35.6364 25.7678 35.4152 25.7678 35.3631 25.6113Z" fill="#FFE15A"/>
<path d="M38.7899 10.7053L38.3871 9.49743L37.1139 9.48759C36.9491 9.48637 36.8807 9.2759 37.0133 9.17803L38.0375 8.42175L37.6534 7.20778C37.6036 7.05065 37.7826 6.92062 37.9167 7.01653L38.9526 7.75687L39.9884 7.01653C40.1225 6.92062 40.3015 7.05065 40.2518 7.20778L39.8677 8.42175L40.8919 9.17803C41.0246 9.276 40.9561 9.48628 40.7913 9.48759L39.5181 9.49743L39.1152 10.7053C39.0634 10.8616 38.8421 10.8616 38.7899 10.7053Z" fill="#FFE15A"/>
<path d="M34.8354 11.9746L34.4325 10.7668L33.1593 10.7569C32.9945 10.7557 32.9262 10.5452 33.0587 10.4474L34.0829 9.69109L33.6989 8.47713C33.6491 8.32 33.828 8.18997 33.9622 8.28588L34.998 9.02622L36.0339 8.28588C36.1679 8.18997 36.3469 8.32 36.2972 8.47713L35.9131 9.69109L36.9373 10.4474C37.07 10.5453 37.0015 10.7556 36.8367 10.7569L35.5635 10.7668L35.1607 11.9746C35.1087 12.131 34.8875 12.131 34.8354 11.9746Z" fill="#FFE15A"/>
<path d="M32.3032 21.8355L31.9004 20.6277L30.6272 20.6178C30.4624 20.6166 30.394 20.4061 30.5266 20.3083L31.5508 19.552L31.1667 18.338C31.1169 18.1809 31.2959 18.0509 31.43 18.1468L32.4659 18.8871L33.5017 18.1468C33.6358 18.0509 33.8148 18.1809 33.7651 18.338L33.381 19.552L34.4052 20.3083C34.5379 20.4062 34.4694 20.6165 34.3046 20.6178L33.0314 20.6277L32.6285 21.8355C32.5766 21.9919 32.3554 21.9919 32.3032 21.8355Z" fill="#FFE15A"/>
</g>
<defs>
<clipPath id="clip0_11_4382">
<rect width="48" height="32" fill="white"/>
</clipPath>
</defs>
</svg>
