<svg width="48" height="32" viewBox="0 0 48 32" fill="none" xmlns="http://www.w3.org/2000/svg">
<g clip-path="url(#clip0_11_4075)">
<path d="M47.1723 31.7243H0.827623C0.370593 31.7243 0 31.3537 0 30.8966V1.10359C0 0.646563 0.370593 0.27597 0.827623 0.27597H47.1724C47.6294 0.27597 48 0.646563 48 1.10359V30.8966C47.9999 31.3538 47.6293 31.7243 47.1723 31.7243Z" fill="#FF4B55"/>
<path d="M0.827623 0.276093H23.1724C23.6295 0.276093 24 0.646686 24 1.10372V15.1727C24 15.6297 23.6295 16.0003 23.1724 16.0003H0.827623C0.370593 16.0002 0 15.6296 0 15.1726V1.10362C0 0.646591 0.370593 0.276093 0.827623 0.276093Z" fill="#41479B"/>
<path d="M9.03771 8.13804C9.03771 7.32035 9.36902 6.5801 9.90471 6.04413L7.42278 5.33417C7.27868 5.29301 7.17546 5.47188 7.28309 5.57604L9.14037 7.37182L6.63406 7.99844C6.48875 8.03473 6.48875 8.24135 6.63406 8.27773L9.14037 8.90435L7.28309 10.7001C7.17537 10.8043 7.27868 10.9832 7.42278 10.942L9.90471 10.232C9.36902 9.69598 9.03771 8.95573 9.03771 8.13804Z" fill="white"/>
<path d="M9.90581 6.043C10.4418 5.50731 11.182 5.176 11.9997 5.176C12.8174 5.176 13.5576 5.50731 14.0936 6.043L14.8036 3.56106C14.8447 3.41697 14.6659 3.31375 14.5617 3.42138L12.7659 5.27856L12.1393 2.77225C12.103 2.62694 11.8964 2.62694 11.86 2.77225L11.2334 5.27856L9.43763 3.42138C9.33347 3.31366 9.1546 3.41697 9.19575 3.56106L9.90581 6.043Z" fill="white"/>
<path d="M14.0936 10.2334C13.5577 10.7691 12.8174 11.1004 11.9997 11.1004C11.1821 11.1004 10.4418 10.7691 9.90583 10.2334L9.19587 12.7153C9.15471 12.8594 9.33359 12.9626 9.43774 12.855L11.2335 10.9978L11.8601 13.5041C11.8964 13.6494 12.103 13.6494 12.1394 13.5041L12.766 10.9978L14.5618 12.855C14.666 12.9627 14.8449 12.8594 14.8037 12.7153L14.0936 10.2334Z" fill="white"/>
<path d="M17.3657 7.99832L14.8594 7.3717L16.7166 5.57592C16.8243 5.47176 16.721 5.29289 16.5769 5.33404L14.095 6.04401C14.6307 6.57998 14.962 7.32023 14.962 8.13792C14.962 8.95561 14.6307 9.69586 14.095 10.2318L16.5769 10.9418C16.721 10.9829 16.8242 10.8041 16.7166 10.6999L14.8594 8.90414L17.3657 8.27751C17.5111 8.24132 17.5111 8.03479 17.3657 7.99832Z" fill="white"/>
<path d="M12.0001 10.497C13.3028 10.497 14.3589 9.44092 14.3589 8.13823C14.3589 6.83553 13.3028 5.77948 12.0001 5.77948C10.6974 5.77948 9.64137 6.83553 9.64137 8.13823C9.64137 9.44092 10.6974 10.497 12.0001 10.497Z" fill="white"/>
</g>
<defs>
<clipPath id="clip0_11_4075">
<rect width="48" height="32" fill="white"/>
</clipPath>
</defs>
</svg>
