<svg width="48" height="32" viewBox="0 0 48 32" fill="none" xmlns="http://www.w3.org/2000/svg">
<g clip-path="url(#clip0_11_745)">
<path d="M0 24.276V1.1035C0 0.646472 0.370594 0.275879 0.827625 0.275879H36.4138L0 24.276Z" fill="#73AF00"/>
<path d="M48.0001 7.724V30.8964C48.0001 31.3534 47.6295 31.724 47.1724 31.724H11.5862L48.0001 7.724Z" fill="#4173CD"/>
<path d="M48 8.19091V1.1035C48 0.646472 47.6294 0.275879 47.1724 0.275879H35.9193L0 23.8093V30.8966C0 31.3536 0.370594 31.7242 0.827625 31.7242H12.0807L48 8.19091Z" fill="#FFE15A"/>
<path d="M48 5.22325V1.1035C48 0.646472 47.6294 0.275879 47.1724 0.275879H40.4488L0 26.7769V30.8967C0 31.3537 0.370594 31.7243 0.827625 31.7243H7.55119L48 5.22325Z" fill="#464655"/>
</g>
<defs>
<clipPath id="clip0_11_745">
<rect width="48" height="32" fill="white"/>
</clipPath>
</defs>
</svg>
