<svg width="48" height="32" viewBox="0 0 48 32" fill="none" xmlns="http://www.w3.org/2000/svg">
<g clip-path="url(#clip0_11_799)">
<path d="M47.9999 5.51746H0V1.10362C0 0.646594 0.370593 0.276001 0.827623 0.276001H47.1724C47.6294 0.276001 48 0.646594 48 1.10362L47.9999 5.51746Z" fill="#464655"/>
<path d="M47.9999 5.51794H0V10.7593H47.9999V5.51794Z" fill="#FFE15A"/>
<path d="M47.9999 10.7584H0V15.9998H47.9999V10.7584Z" fill="#FF4B55"/>
<path d="M47.9999 16.0001H0V21.2414H47.9999V16.0001Z" fill="#464655"/>
<path d="M47.9999 21.2415H0V26.4829H47.9999V21.2415Z" fill="#FFE15A"/>
<path d="M47.1723 31.7242H0.827623C0.370593 31.7242 0 31.3537 0 30.8966V26.4828H47.9999V30.8966C47.9999 31.3537 47.6293 31.7242 47.1723 31.7242Z" fill="#FF4B55"/>
<path d="M23.9998 20.9657C26.7422 20.9657 28.9653 18.7426 28.9653 16.0002C28.9653 13.2578 26.7422 11.0346 23.9998 11.0346C21.2574 11.0346 19.0342 13.2578 19.0342 16.0002C19.0342 18.7426 21.2574 20.9657 23.9998 20.9657Z" fill="white"/>
<path d="M24.2992 12.977L24.7883 12.7814C24.8592 12.753 24.8935 12.6717 24.8621 12.6022C24.7524 12.359 24.4585 11.8558 23.8999 11.8406C23.5462 11.831 23.2818 11.9107 23.1325 11.9723C23.0563 12.0037 23.0256 12.0944 23.0673 12.1656L23.3624 12.6698L24.2992 12.977Z" fill="#FF4B55"/>
<path d="M23.9003 11.8403C23.8596 11.8391 23.8229 11.8415 23.7846 11.8426L23.7313 12.6235L24.0154 12.7808L24.6298 12.2248C24.4681 12.0292 24.2309 11.8492 23.9003 11.8403Z" fill="#FFE15A"/>
<path d="M26.0042 17.5688L23.7928 14.9888C23.7928 14.4548 23.9857 14.0187 24.0924 13.8182C24.3968 13.6823 24.5932 13.3475 24.5114 12.978C24.4521 12.7092 24.2351 12.49 23.9668 12.4287C23.484 12.3183 23.0557 12.682 23.0557 13.1458C23.0557 13.1633 23.0596 13.1797 23.0608 13.1968C22.5838 13.3226 22.4951 13.476 22.4951 13.476C22.4951 13.476 22.8078 13.3929 23.0791 13.3218C23.0845 13.3439 23.0918 13.3652 23.0992 13.3866L22.5641 13.5683L23.1484 13.4972C23.2132 13.6159 23.3094 13.7145 23.4256 13.7828C22.9889 14.1345 22.3184 14.7955 22.3184 15.5418C22.3184 16.2241 22.8238 16.6788 23.4604 16.981C23.6829 17.0868 23.8874 17.2262 24.0556 17.4062L24.0619 17.4129L24.1172 18.26C23.6606 18.26 23.1164 18.26 22.8712 18.26C22.4105 18.26 22.2839 18.5594 22.2839 19.0547L22.5027 18.7437L22.6869 19.0893L22.71 18.6976L22.9058 18.9509C22.9058 18.9509 22.9039 18.62 23.1535 18.5766C23.2859 18.5535 23.7448 18.5247 24.1346 18.5247L24.2172 19.787C23.6886 19.7845 23.0902 20.0335 23.0902 20.0335C23.2745 19.9989 23.7238 20.0681 23.7238 20.0681L23.6489 20.2869C24.1672 20.0047 25.1175 19.9989 25.1175 19.9989C25.1175 19.9989 24.9102 19.8576 24.4265 19.8022L24.4376 18.5246H25.198L25.3132 18.2252C25.3132 18.2252 24.9208 17.7046 24.9208 17.429C25.5292 17.5445 26.0042 17.5688 26.0042 17.5688ZM24.4399 18.2599L24.4437 17.8217C24.672 18.0664 24.8526 18.2599 24.8526 18.2599C24.8526 18.2599 24.682 18.2599 24.4399 18.2599Z" fill="#464655"/>
<path d="M26.0039 17.9373C25.8197 17.2001 25.012 16.9735 24.1611 16.463C23.2397 15.9101 23.7924 14.9886 23.7924 14.9886C23.7924 14.9886 26.8792 15.8947 27.1096 17.2C27.2889 18.2166 26.5567 18.8586 26.1882 19.0429L26.3206 18.6742H25.6353C25.6353 18.6742 26.3609 18.1099 26.3724 17.5685L26.0039 17.9373Z" fill="#696E7D"/>
<path d="M27.1098 17.2C26.9557 16.3273 25.526 15.6337 24.5946 15.2693C24.2964 15.2361 24.0345 15.7372 24.8523 16.2785C25.9524 17.0068 26.0041 17.9372 26.0041 17.9372L26.3727 17.5685C26.3613 18.1098 25.6356 18.6743 25.6356 18.6743H26.3209L26.1885 19.0429C26.5569 18.8586 27.2891 18.2167 27.1098 17.2Z" fill="#FFFCFF"/>
<path d="M27.1097 17.2C27.0076 16.6217 26.3449 16.1226 25.6385 15.7453C25.2983 15.6436 25.0019 15.6566 25.0019 15.6566C25.2092 15.7834 25.3013 16.1058 25.3013 16.1058C25.1516 16.0136 24.8176 16.0597 24.8176 16.0597C24.9105 16.1394 24.9985 16.3018 25.0574 16.4264C25.9583 17.1266 26.004 17.9373 26.004 17.9373L26.3726 17.5686C26.3612 18.1099 25.6355 18.6744 25.6355 18.6744H26.3208L26.1884 19.043C26.5569 18.8586 27.289 18.2167 27.1097 17.2Z" fill="#FF4B55"/>
<path d="M23.4929 13.1998C23.5608 13.1998 23.6159 13.1448 23.6159 13.0769C23.6159 13.009 23.5608 12.954 23.4929 12.954C23.4251 12.954 23.37 13.009 23.37 13.0769C23.37 13.1448 23.4251 13.1998 23.4929 13.1998Z" fill="white"/>
<path d="M23.1707 13.545C23.1707 13.545 22.9019 13.8599 23.0785 13.952C23.2552 14.0442 23.4255 13.7824 23.4255 13.7824L23.1707 13.545Z" fill="#FF4B55"/>
</g>
<defs>
<clipPath id="clip0_11_799">
<rect width="48" height="32" fill="white"/>
</clipPath>
</defs>
</svg>
