<svg width="48" height="32" viewBox="0 0 48 32" fill="none" xmlns="http://www.w3.org/2000/svg">
<g clip-path="url(#clip0_11_2061)">
<path d="M47.1723 0.275848H0.827623C0.370593 0.275848 0 0.646347 0 1.10338V30.8964C0 31.3534 0.370593 31.724 0.827623 31.724H47.1724C47.6294 31.724 48 31.3534 48 30.8964V1.10338C47.9999 0.646347 47.6293 0.275848 47.1723 0.275848Z" fill="#82AFFF"/>
<path d="M23.9293 22.155C28.1389 22.155 31.5635 18.7301 31.5635 14.5209C31.5635 10.3116 28.1388 6.88672 23.9293 6.88672C19.7199 6.88672 16.2952 10.3116 16.2952 14.5209C16.2952 18.7301 19.7198 22.155 23.9293 22.155ZM24.8003 7.68519L25.4564 7.4434C26.3824 7.64309 27.2434 8.01837 28.0013 8.53569C27.9361 8.52912 27.7639 8.5115 27.7342 8.50156C27.6974 8.48937 27.6406 8.73537 27.6406 8.73537L27.9417 8.85519L28.0239 8.55275C28.3366 8.7679 28.6286 9.00987 28.9034 9.27031L28.4607 9.713H28.3825L28.3189 9.46315L28.0767 9.02787L27.2214 8.71953L26.6297 9.00584L26.9654 9.73268C26.1382 9.20628 25.1676 8.89006 24.1251 8.85434V7.84128L24.7279 8.03159L24.4773 7.58984L24.1251 7.74059V7.28825C24.3867 7.29528 24.6443 7.31666 24.8982 7.35097L24.6022 7.44969L24.8003 7.68519ZM28.7618 13.273L28.9059 13.2119L28.9421 12.8573C29.0965 13.3215 29.1857 13.8141 29.2045 14.325H27.8768L27.9257 14.113L28.3009 14.0803L28.6115 13.5515L28.6027 13.4523L28.2846 13.8601L28.0903 13.9078L27.9665 13.7622L28.1122 13.5147L27.7952 13.2809L27.5105 13.5306C27.4338 13.2538 27.3294 12.9887 27.1943 12.7418L27.3487 12.6856L27.4725 12.6117L27.4715 12.4661L27.5509 12.3673L27.505 12.3391C27.471 12.3552 27.2939 12.4067 27.2939 12.4067L27.2325 12.606L27.1444 12.6596C27.0145 12.4361 26.8617 12.228 26.6897 12.0371L27.4218 11.305L27.4281 11.3153L27.6064 11.2081L27.5787 11.1478L27.7963 10.9302C28.2869 11.4582 28.67 12.0852 28.9132 12.7789L28.7309 12.5081L28.637 12.5431L28.7618 13.273ZM27.7966 18.1113L27.4006 17.7153L27.2512 17.3191L27.1743 17.489L27.0211 17.3358L27.1781 16.8544L27.0764 16.5051L27.0692 16.506C27.1768 16.3364 27.2739 16.1596 27.3532 15.973L27.355 15.9728C27.3796 15.9728 27.4692 15.8586 27.4692 15.8586L27.6895 15.8831L28.2587 15.6581L28.0401 15.4509L27.9114 15.3359L27.8116 15.1329L27.6332 14.8223C27.636 14.7874 27.6368 14.7521 27.6385 14.7169H29.2045C29.1563 16.0258 28.6316 17.2125 27.7966 18.1113ZM20.1978 17.8608L20.3938 17.5182L19.9719 16.0435L19.6392 15.2223L19.9409 15.0917L20.0225 14.847L20.2263 14.8411C20.2975 15.6699 20.6423 16.4198 21.1689 17.0044L20.3043 17.869L20.1978 17.8608ZM20.6688 14.2456L20.6646 14.3252H20.6114C20.6132 14.2951 20.6135 14.2646 20.616 14.2346L20.6688 14.2456ZM25.6946 17.3367L25.6276 17.3004L24.7737 17.6306L24.3311 17.4602L24.1251 17.5171V17.2357L24.3382 17.1714L24.4674 17.2025L24.7393 17.3089L24.5754 17.0091L24.9267 17.3036L25.0953 17.3421L25.044 17.1174L25.1583 16.746L25.5565 16.5031L25.5911 16.7267L25.1053 16.9907L25.1985 17.1766L25.7036 17.0746L25.7116 17.3266C25.706 17.3299 25.7001 17.3331 25.6946 17.3367ZM23.6819 15.8661L23.6667 15.8335L23.5751 15.8387C23.4571 15.8068 23.3462 15.7601 23.2431 15.6998L23.5839 15.6584L23.7336 15.2566V15.8712C23.7165 15.8689 23.6987 15.8692 23.6819 15.8661ZM22.2508 15.0279L21.9179 14.9766L22.0877 14.7166H22.1874C22.1994 14.8239 22.2204 14.9273 22.2508 15.0279ZM24.125 13.6734L24.2168 13.7012L24.3322 13.8412L24.125 14.0484V13.6734ZM24.7424 16.1616L24.5835 16.3476L24.3187 16.4793L24.2299 16.3237L24.1765 16.6331L24.1252 16.6531V16.2628C24.1622 16.2587 24.2003 16.258 24.2367 16.2516L24.3635 16.4105L24.4687 16.2795L24.4605 16.192C24.5189 16.1733 24.5786 16.1578 24.6342 16.1334L24.7424 16.1616ZM24.6233 14.1038L24.6191 14.3156L24.6114 14.3252H24.4017L24.6233 14.1038ZM24.749 14.8329L25.0024 14.8248L25.1406 14.9399L25.0946 15.0229L24.9011 14.9123L24.7952 14.9951L24.8484 15.154L24.8462 15.1609L24.4019 14.7166H24.6979L24.749 14.8329ZM24.5814 15.4497L24.3393 15.4237L24.1683 15.8669C24.1542 15.8694 24.1393 15.8693 24.1252 15.8712V14.9934L24.5814 15.4497ZM23.3246 14.3251L23.3076 14.2538L23.1376 14.3251H23.0624L23.0873 14.2219L23.1971 14.1156L23.11 14.0958L23.0194 14.2245L22.9253 14.2676L22.9363 14.3253H22.8375L22.897 14.094L23.071 13.9397L23.4567 14.3254H23.3246V14.3251ZM22.5983 14.7167L22.6384 14.764L22.6655 14.7167H22.8055L22.6234 14.9137C22.6041 14.8496 22.5887 14.7844 22.579 14.7167H22.5983ZM22.8149 15.3126L23.068 14.8755L23.0018 14.8164L23.1133 14.7588L23.1273 14.7166H23.3054L23.2646 14.7386L23.2476 14.7972L23.3855 14.7879L23.2828 14.8905L23.1785 14.9126L23.1568 15.0166L22.8357 15.3377C22.8291 15.3289 22.8213 15.3214 22.8149 15.3126ZM23.7336 13.2113L23.6605 13.2L23.7171 13.4349L23.7337 13.4478V14.0484L23.4047 13.7194L23.6356 13.5946L23.427 13.2491C23.5242 13.2106 23.6272 13.1859 23.7337 13.1704L23.7336 13.2113ZM20.6438 14.7167L20.6398 14.7911L20.6234 14.8905C20.6172 14.8332 20.615 14.7747 20.6115 14.7166L20.6438 14.7167ZM20.8353 15.1815L21.0789 15.4263L21.2787 15.2872L21.7493 15.6821L22.2555 15.7711L22.3971 15.3729C22.4448 15.4582 22.4984 15.5386 22.5592 15.6146L22.1243 16.0495L22.1942 15.8712L21.9353 15.8291L22.0182 16.1332L22.0305 16.1434L21.4458 16.728C21.0648 16.2997 20.7899 15.7751 20.6701 15.193L20.8353 15.1815ZM22.8357 15.8912C23.0885 16.0933 23.3954 16.2249 23.7336 16.2628V16.7156L23.7292 16.7262L23.7336 16.7248V17.0635L23.6196 17.0863L23.5535 17.5113L23.7336 17.4904V17.6252L23.4484 17.704L23.3534 17.7956C22.7337 17.6867 22.1739 17.4066 21.7224 17.0049L22.8357 15.8912ZM26.1378 17.5063L26.4251 17.5673L26.7076 17.576L26.863 17.7313L26.3883 17.7141L26.0825 17.5478C26.1013 17.5343 26.1193 17.5201 26.1378 17.5063ZM26.4131 16.7278L26.3274 16.6421L26.5017 16.6288C26.4737 16.6631 26.4425 16.6946 26.4131 16.7278ZM26.862 12.9511C26.7288 12.953 26.5997 12.9549 26.5882 12.9549C26.5636 12.9549 26.3718 13.1188 26.3718 13.1188L26.2252 13.3087L26.181 13.077L26.2849 12.8404L26.2048 12.7671L25.846 12.9955L25.7698 12.957L26.0501 12.6767L26.1118 12.6971L26.2905 12.6551L26.1997 12.5273L26.413 12.3139C26.5857 12.5082 26.7381 12.7206 26.862 12.9511ZM25.8122 12.3612L25.7951 12.3064L25.6788 12.3247L25.6066 12.4645L25.2874 12.4959C25.3107 12.5427 25.4101 12.7367 25.4191 12.7542L25.023 13.1502C24.9388 13.0829 24.8489 13.0241 24.7531 12.9729L24.8021 12.9465L24.7439 12.7498L24.7043 12.6773L24.5276 12.8705C24.3997 12.8239 24.265 12.7944 24.1253 12.7786V11.2029C24.8952 11.248 25.5943 11.5546 26.1365 12.037L25.8122 12.3612ZM23.7336 12.7789C23.6072 12.7932 23.4855 12.8195 23.3686 12.8591L23.4272 12.723L23.1219 12.963L23.1224 12.964C23.0203 13.0171 22.925 13.0792 22.8357 13.1506L21.7224 12.0372C22.2645 11.5549 22.9636 11.2482 23.7336 11.2032V12.7789ZM22.4961 13.3646L21.9698 13.4566L21.9882 13.2567L21.5519 13.1061L20.8543 13.252C20.9979 12.9054 21.1999 12.5901 21.4454 12.3139L22.4961 13.3646ZM20.8066 13.3821L21.0257 13.4279L20.7631 13.5006C20.7761 13.4603 20.7921 13.4217 20.8066 13.3821ZM20.2199 14.3251H20.186L20.2216 14.2922C20.221 14.3032 20.2206 14.3141 20.2199 14.3251ZM20.6374 18.0896L21.4456 17.2814C21.8867 17.6786 22.4218 17.9711 23.0146 18.1217L22.7363 18.3899L23.3354 19.1816L23.7336 19.2037V19.7964C22.688 19.7579 21.7194 19.4178 20.9136 18.8555L21.043 18.7715L20.6374 18.0896ZM24.125 19.2251L24.6298 19.2529L24.6427 19.3687L24.9498 19.7052C24.6819 19.7579 24.4057 19.786 24.125 19.7963V19.2251ZM27.3319 18.2001L27.5199 18.3881C27.43 18.4715 27.3396 18.5543 27.2441 18.6316L27.3319 18.2001ZM27.5198 10.6537L27.4051 10.7683L27.2692 10.4713L27.0221 10.3399C27.0221 10.3399 26.7919 10.1368 26.6721 10.0118C26.9764 10.1976 27.26 10.4123 27.5198 10.6537ZM26.6188 9.97925L26.7918 10.5844L27.1959 10.9362L27.2116 10.9619L26.413 11.7605C25.7993 11.2077 25.0028 10.8576 24.125 10.8117V9.24565C25.0337 9.27912 25.8828 9.54181 26.6188 9.97925ZM23.7336 10.8117C22.8558 10.8577 22.0594 11.2077 21.4456 11.7605L20.3388 10.6537C21.2377 9.81856 22.4245 9.29393 23.7336 9.24565V10.8117ZM21.1688 12.0372C20.7493 12.503 20.4451 13.0731 20.3029 13.7054L19.9588 14.3251H18.6539C18.7022 13.016 19.2268 11.8292 20.0619 10.9304L21.1688 12.0372ZM19.7702 14.7167L19.3984 15.5158L18.8725 15.3202L18.7738 15.6702C18.7049 15.3616 18.666 15.0427 18.654 14.7165H19.7701L19.7702 14.7167ZM19.3783 18.6806L19.439 18.7344L18.6786 19.4948C18.1536 18.9408 17.7173 18.3045 17.3869 17.6069L17.5891 17.7251L18.9379 18.9251L19.3783 18.6806ZM19.7323 18.9944L19.9165 19.1576L20.5137 19.0442C21.4164 19.7275 22.5266 20.1462 23.7336 20.1878V21.7538C21.8848 21.704 20.2095 20.9605 18.9553 19.7717L19.7323 18.9944ZM24.125 20.1877C24.4568 20.1763 24.7826 20.1417 25.0976 20.0755L25.134 20.3167L26.067 21.0047L27.1176 20.4219L27.4192 19.7861L27.3994 19.3927L27.5978 18.9273L27.5494 18.8894C27.6352 18.8183 27.7151 18.7407 27.7964 18.6648L27.977 18.8452L28.0319 19.1861L28.2369 19.105L28.9035 19.7716C27.6492 20.9605 25.9738 21.7039 24.1252 21.7537V20.1877H24.125ZM28.3303 18.645L28.2929 18.1993L28.2428 18.2016C29.0508 17.256 29.5506 16.0439 29.5961 14.7166H31.1621C31.1124 16.5653 30.3689 18.2405 29.1803 19.4948L28.3303 18.645ZM29.596 14.3251C29.5621 13.3373 29.2757 12.4147 28.7978 11.6165L29.4634 12.2391L29.9975 11.7804L29.1777 10.5447L28.6367 10.1287L28.6381 10.0888L29.1801 9.54687C30.3688 10.8012 31.1122 12.4765 31.162 14.325H29.596V14.3251ZM23.7336 8.85415C22.3166 8.90281 21.0322 9.47122 20.0622 10.377L18.9553 9.27022C20.2095 8.08137 21.8849 7.33794 23.7336 7.28816V8.85415ZM19.7853 10.6539C18.8796 11.6239 18.3113 12.9082 18.2625 14.3251H16.6965C16.7463 12.4765 17.4898 10.8012 18.6784 9.54697L19.7853 10.6539ZM18.2625 14.7167C18.2825 15.2987 18.3896 15.8578 18.5728 16.3829L18.5137 16.5926L16.9837 16.559C16.8111 15.9721 16.7138 15.3546 16.6966 14.7168L18.2625 14.7167Z" fill="white"/>
<path d="M18.6554 23.5905L20.0688 23.3617C20.1951 23.3413 20.2476 23.1886 20.16 23.0953C19.8201 22.7321 19.1444 21.9798 18.7532 21.3395C18.2149 20.4586 17.2671 19.7325 17.2671 19.7325C17.2671 19.7325 17.4483 22.1551 19.2752 22.9871C19.2752 22.9871 17.4645 22.5302 16.3063 22.2204C15.1481 21.9104 14.8312 21.5694 14.8312 21.5694C14.8312 21.5694 15.7356 23.8842 18.6554 23.5905Z" fill="white"/>
<path d="M17.2526 20.8827C17.2037 20.2791 16.7625 18.736 15.9309 17.4604C15.9309 17.4604 15.932 20.5605 17.0327 21.6106C17.0327 21.6106 15.4746 20.116 14.5448 19.4308C13.6742 18.7895 13.2887 18.0606 13.2887 18.0606C13.2887 18.0606 13.5226 20.0196 14.7894 20.9967C15.6458 21.6574 17.5462 22.1223 17.5462 22.1223C17.5462 22.1223 17.3016 21.4862 17.2526 20.8827Z" fill="white"/>
<path d="M14.2672 18.5663L15.2191 19.3896C15.3184 19.4755 15.4731 19.4077 15.4752 19.2764C15.4803 18.9453 15.5006 18.4427 15.5722 18.1258C15.6864 17.6201 15.8276 15.9781 15.2513 14.7846C15.2513 14.7846 14.5546 16.9236 15.0991 18.7049C15.0991 18.7049 14.2439 17.3451 13.37 16.3151C12.9133 15.7768 12.7324 15.1421 12.7324 15.1421C12.7324 15.1421 12.7175 17.2777 14.2672 18.5663Z" fill="white"/>
<path d="M14.0061 16.4592C14.0808 16.5598 14.2356 16.5385 14.2782 16.4209C14.4034 16.0756 14.6462 15.4547 14.9688 14.8635C15.556 13.7869 15.2851 12.5198 15.2851 12.5198C15.2851 12.5198 14.3423 14.1357 14.0691 15.9315C14.0512 15.8515 14.0317 15.7659 14.0084 15.6681C13.7496 14.5804 12.7432 11.8673 12.7432 11.8673C12.7432 11.8673 12.3892 13.3572 12.8316 14.5373C13.059 15.1428 13.6942 16.0383 14.0061 16.4592Z" fill="white"/>
<path d="M13.8121 14.0771C13.8406 14.1853 13.9921 14.1881 14.0244 14.0808C14.1145 13.7818 14.3018 13.3695 14.6916 12.9711C15.4257 12.2208 15.9823 11.1791 16.2667 10.2481C16.2667 10.2481 14.7005 11.5048 14.2066 12.3521C14.2066 12.3521 14.2555 11.1869 14.088 10.3448C13.9452 9.62705 14.2486 8.93555 14.2486 8.93555C14.2486 8.93555 13.2561 9.88814 13.4028 11.6335C13.4953 12.7318 13.6846 13.5909 13.8121 14.0771Z" fill="white"/>
<path d="M14.8039 11.0853C15.101 10.813 15.6213 10.349 16.123 10.0676C16.7891 9.69388 17.3159 8.48845 17.432 8.22023C17.432 8.22023 15.5761 9.73907 15.0708 10.2266C15.0708 10.2266 15.3767 8.8686 15.5725 8.28135C15.7682 7.6941 15.7438 7.49835 15.9151 7.25366C15.9151 7.25366 15.022 8.03666 14.7772 8.66057C14.5761 9.17338 14.6146 10.339 14.5873 10.9825C14.5822 11.0991 14.718 11.1641 14.8039 11.0853Z" fill="white"/>
<path d="M16.6815 8.35485C17.2035 7.93073 18.0354 6.69098 18.0354 6.69098C17.8293 6.80873 16.9914 7.09879 16.2901 7.81654C15.5886 8.53429 15.4418 9.51294 15.4418 9.51294C15.4418 9.51294 16.1595 8.77898 16.6815 8.35485Z" fill="white"/>
<path d="M28.5348 23.9493C27.0014 23.6475 25.6883 23.4273 24.1491 23.8277C24.0733 23.8474 24.0024 23.8701 23.9295 23.8915C23.8565 23.8702 23.7857 23.8475 23.7099 23.8277C22.1708 23.4274 20.8576 23.6475 19.3242 23.9493C17.9422 24.2213 16.6189 23.986 16.6189 23.986C16.6189 23.986 17.5789 24.9608 19.7648 24.9608C20.7184 24.9608 21.9168 24.1581 22.673 24.1153C22.8592 24.1047 23.0431 24.1161 23.2253 24.1364C21.6015 24.7988 20.852 25.8033 20.8373 25.8227C20.7721 25.9087 20.7889 26.0315 20.8749 26.0964C20.9103 26.1235 20.9518 26.1366 20.9931 26.1366C21.0521 26.1366 21.1106 26.1097 21.1491 26.0593C21.2088 25.9808 22.4082 24.74 23.9295 24.2815C25.4508 24.74 26.6503 25.9807 26.7099 26.0593C26.7483 26.1098 26.8069 26.1366 26.8659 26.1366C26.9072 26.1366 26.9487 26.1235 26.9841 26.0964C27.0701 26.0315 27.0869 25.9086 27.0217 25.8227C27.007 25.8033 26.2575 24.7988 24.6337 24.1364C24.8159 24.1162 24.9998 24.1048 25.186 24.1153C25.9422 24.1581 27.1407 24.9608 28.0942 24.9608C30.2801 24.9608 31.2401 23.986 31.2401 23.986C31.2401 23.986 29.9168 24.2213 28.5348 23.9493Z" fill="white"/>
<path d="M28.5837 22.9871C30.4107 22.1551 30.5918 19.7325 30.5918 19.7325C30.5918 19.7325 29.6439 20.4586 29.1057 21.3395C28.7145 21.9797 28.0387 22.7321 27.6989 23.0952C27.6115 23.1886 27.6638 23.3412 27.7901 23.3617L29.2035 23.5905C32.1234 23.8841 33.0276 21.5693 33.0276 21.5693C33.0276 21.5693 32.7106 21.9104 31.5525 22.2203C30.3943 22.5302 28.5837 22.9871 28.5837 22.9871Z" fill="white"/>
<path d="M33.3139 19.4309C32.3841 20.1161 30.826 21.6107 30.826 21.6107C31.9268 20.5606 31.9277 17.4605 31.9277 17.4605C31.0962 18.7361 30.655 20.2793 30.606 20.8828C30.5571 21.4864 30.3124 22.1226 30.3124 22.1226C30.3124 22.1226 32.2127 21.6577 33.0692 20.997C34.3361 20.0198 34.57 18.0609 34.57 18.0609C34.57 18.0609 34.1845 18.7894 33.3139 19.4309Z" fill="white"/>
<path d="M32.7597 18.705C33.3041 16.9237 32.6075 14.7847 32.6075 14.7847C32.0312 15.9783 32.1724 17.6204 32.2866 18.1259C32.3582 18.4428 32.3785 18.9453 32.3836 19.2765C32.3857 19.4078 32.5404 19.4756 32.6397 19.3897L33.5916 18.5664C35.1413 17.2777 35.1264 15.1424 35.1264 15.1424C35.1264 15.1424 34.9456 15.777 34.4888 16.3154C33.6149 17.3451 32.7597 18.705 32.7597 18.705Z" fill="white"/>
<path d="M33.7896 15.9315C33.5163 14.1358 32.5736 12.5198 32.5736 12.5198C32.5736 12.5198 32.3028 13.7869 32.8899 14.8635C33.2123 15.4547 33.4552 16.0756 33.5805 16.4209C33.6231 16.5387 33.7779 16.5598 33.8525 16.4593C34.1645 16.0383 34.7997 15.1429 35.0269 14.5372C35.4693 13.3572 35.1153 11.8672 35.1153 11.8672C35.1153 11.8672 34.1089 14.5803 33.8501 15.668C33.8269 15.7659 33.8074 15.8514 33.7896 15.9315Z" fill="white"/>
<path d="M33.7707 10.3449C33.6033 11.1869 33.652 12.3522 33.652 12.3522C33.1581 11.5048 31.5919 10.2482 31.5919 10.2482C31.8764 11.1792 32.433 12.2208 33.167 12.9712C33.5569 13.3695 33.7442 13.7818 33.8343 14.0809C33.8665 14.1881 34.0181 14.1853 34.0465 14.0771C34.1742 13.591 34.3634 12.7317 34.4557 11.6336C34.6025 9.88813 33.61 8.93564 33.61 8.93564C33.61 8.93564 33.9135 9.62723 33.7707 10.3449Z" fill="white"/>
<path d="M32.7881 10.2267C32.2829 9.73906 30.4269 8.22031 30.4269 8.22031C30.5432 8.48853 31.0699 9.69406 31.736 10.0677C32.2376 10.349 32.7579 10.813 33.055 11.0854C33.1409 11.1642 33.2767 11.0992 33.2718 10.9827C33.2444 10.3393 33.2829 9.17356 33.0818 8.66075C32.8371 8.03685 31.944 7.25385 31.944 7.25385C32.1153 7.49853 32.0908 7.69428 32.2866 8.28153C32.4822 8.86869 32.7881 10.2267 32.7881 10.2267Z" fill="white"/>
<path d="M31.1772 8.35485C31.6992 8.77898 32.417 9.51294 32.417 9.51294C32.417 9.51294 32.2701 8.5342 31.5687 7.81654C30.8674 7.09879 30.0294 6.80873 29.8234 6.69098C29.8234 6.69098 30.6552 7.93073 31.1772 8.35485Z" fill="white"/>
<path d="M27.9791 12.3897L27.6463 12.6088L28.0013 12.6643L28.3891 13.0932L28.6063 12.9534L28.3458 12.4206L27.9791 12.3897Z" fill="white"/>
<path d="M28.504 14.2168L28.6272 14.264L28.9392 13.426L28.8535 13.3097L28.7189 13.377L28.5049 14.1356L28.504 14.2168Z" fill="white"/>
<path d="M25.3729 12.7959L25.275 12.6919L25.0548 12.9732L25.1095 13.0584L25.3729 12.7959Z" fill="white"/>
<path d="M27.6271 12.1414L27.6866 11.95L27.4896 11.9899L27.434 12.0057L27.3755 12.0839L27.5885 12.3308L27.6747 12.2574L27.6271 12.1414Z" fill="white"/>
<path d="M23.6723 16.6252L23.6754 16.5061L23.5255 16.7231L23.5684 16.7964L23.6723 16.6252Z" fill="white"/>
</g>
<defs>
<clipPath id="clip0_11_2061">
<rect width="48" height="32" fill="white"/>
</clipPath>
</defs>
</svg>
