<svg width="48" height="32" viewBox="0 0 48 32" fill="none" xmlns="http://www.w3.org/2000/svg">
<g clip-path="url(#clip0_11_4450)">
<path d="M47.1723 31.7243H0.827623C0.370593 31.7243 0 31.3537 0 30.8967V1.10362C0 0.646594 0.370593 0.276001 0.827623 0.276001H47.1724C47.6294 0.276001 48 0.646594 48 1.10362V30.8967C47.9999 31.3538 47.6293 31.7243 47.1723 31.7243Z" fill="white"/>
<path d="M47.9999 2.69521H0V1.10362C0 0.646593 0.370593 0.276001 0.827623 0.276001H47.1724C47.6294 0.276001 48 0.646593 48 1.10362L47.9999 2.69521Z" fill="#FF4B55"/>
<path d="M47.9999 9.95251H0V12.3716H47.9999V9.95251Z" fill="#FF4B55"/>
<path d="M47.9999 5.11395H0V7.53307H47.9999V5.11395Z" fill="#FF4B55"/>
<path d="M47.9999 17.21H0.827623C0.370593 17.21 0 16.8394 0 16.3824V14.7908H47.9999V17.21Z" fill="#FF4B55"/>
<path d="M47.9999 24.4678H0V26.8869H47.9999V24.4678Z" fill="#FF4B55"/>
<path d="M47.1723 31.7242H0.827623C0.370593 31.7242 0 31.3536 0 30.8966V29.3051H47.9999V30.8967C47.9999 31.3537 47.6293 31.7242 47.1723 31.7242Z" fill="#FF4B55"/>
<path d="M47.9999 19.6292H0V22.0483H47.9999V19.6292Z" fill="#FF4B55"/>
<path d="M21.5172 0.276062H0.827623C0.370593 0.276062 0 0.646561 0 1.10359V16.382C0 16.839 0.370593 17.2096 0.827623 17.2096H21.5173C21.9743 17.2096 22.3449 16.839 22.3449 16.382V1.10359C22.3448 0.646561 21.9742 0.276062 21.5172 0.276062Z" fill="#41479B"/>
<path d="M2.32415 2.17555L2.50733 2.72492L3.08642 2.72933C3.16142 2.72998 3.19246 2.82561 3.13217 2.87014L2.66633 3.2142L2.84108 3.76629C2.86377 3.83773 2.7823 3.89698 2.72127 3.85329L2.25018 3.51664L1.77908 3.85339C1.71805 3.89698 1.63677 3.83782 1.65927 3.76639L1.83402 3.21429L1.36818 2.87023C1.3079 2.82561 1.33893 2.73008 1.41393 2.72942L1.99302 2.72501L2.17621 2.17564C2.19983 2.10439 2.30033 2.10439 2.32415 2.17555Z" fill="white"/>
<path d="M2.32415 5.04932L2.50733 5.59869L3.08642 5.6031C3.16142 5.60375 3.19246 5.69938 3.13217 5.74391L2.66633 6.08797L2.84108 6.64006C2.86377 6.7115 2.7823 6.77075 2.72127 6.72706L2.25018 6.39041L1.77908 6.72716C1.71805 6.77075 1.63677 6.71159 1.65927 6.64016L1.83402 6.08807L1.36818 5.744C1.3079 5.69938 1.33893 5.60385 1.41393 5.60319L1.99302 5.59878L2.17621 5.04941C2.19983 4.97826 2.30033 4.97826 2.32415 5.04932Z" fill="white"/>
<path d="M2.32415 7.92285L2.50733 8.47223L3.08642 8.47664C3.16142 8.47729 3.19246 8.57292 3.13217 8.61745L2.66633 8.96151L2.84108 9.51361C2.86377 9.58505 2.7823 9.6443 2.72127 9.60061L2.25018 9.26395L1.77908 9.6007C1.71805 9.6443 1.63677 9.58514 1.65927 9.5137L1.83402 8.96161L1.36818 8.61754C1.3079 8.57292 1.33893 8.47739 1.41393 8.47673L1.99302 8.47232L2.17621 7.92295C2.19983 7.85179 2.30033 7.85179 2.32415 7.92285Z" fill="white"/>
<path d="M2.32415 10.7972L2.50733 11.3466L3.08642 11.351C3.16142 11.3516 3.19246 11.4473 3.13217 11.4918L2.66633 11.8358L2.84108 12.3879C2.86377 12.4594 2.7823 12.5186 2.72127 12.4749L2.25018 12.1383L1.77908 12.475C1.71805 12.5186 1.63677 12.4595 1.65927 12.388L1.83402 11.8359L1.36818 11.4919C1.3079 11.4473 1.33893 11.3517 1.41393 11.3511L1.99302 11.3467L2.17621 10.7973C2.19983 10.726 2.30033 10.726 2.32415 10.7972Z" fill="white"/>
<path d="M2.32415 13.6709L2.50733 14.2203L3.08642 14.2247C3.16142 14.2254 3.19246 14.321 3.13217 14.3655L2.66633 14.7096L2.84108 15.2617C2.86377 15.3331 2.7823 15.3924 2.72127 15.3487L2.25018 15.012L1.77908 15.3488C1.71805 15.3924 1.63677 15.3332 1.65927 15.2618L1.83402 14.7097L1.36818 14.3656C1.3079 14.321 1.33893 14.2255 1.41393 14.2248L1.99302 14.2204L2.17621 13.671C2.19983 13.5997 2.30033 13.5997 2.32415 13.6709Z" fill="white"/>
<path d="M4.55477 3.58436L4.73795 4.13374L5.31705 4.13814C5.39205 4.1388 5.42308 4.23442 5.3628 4.27896L4.89695 4.62302L5.0717 5.17511C5.09439 5.24655 5.01292 5.3058 4.95189 5.26211L4.4808 4.92536L4.00971 5.26211C3.94868 5.3057 3.86739 5.24655 3.88989 5.17511L4.06464 4.62302L3.5988 4.27896C3.53852 4.23433 3.56955 4.1388 3.64455 4.13814L4.22364 4.13374L4.40683 3.58436C4.43036 3.5133 4.53105 3.5133 4.55477 3.58436Z" fill="white"/>
<path d="M4.55477 6.45821L4.73795 7.00758L5.31705 7.01199C5.39205 7.01265 5.42308 7.10827 5.3628 7.1528L4.89695 7.49686L5.0717 8.04895C5.09439 8.12039 5.01292 8.17963 4.95189 8.13595L4.4808 7.7992L4.00971 8.13595C3.94868 8.17954 3.86739 8.12048 3.88989 8.04895L4.06464 7.49686L3.5988 7.1528C3.53852 7.10818 3.56955 7.01265 3.64455 7.01199L4.22364 7.00758L4.40683 6.45821C4.43036 6.38706 4.53105 6.38706 4.55477 6.45821Z" fill="white"/>
<path d="M4.55477 9.33224L4.73795 9.88161L5.31705 9.88602C5.39205 9.88667 5.42308 9.9823 5.3628 10.0268L4.89695 10.3709L5.0717 10.923C5.09439 10.9944 5.01292 11.0537 4.95189 11.01L4.4808 10.6732L4.00971 11.01C3.94868 11.0536 3.86739 10.9944 3.88989 10.923L4.06464 10.3709L3.5988 10.0268C3.53852 9.9822 3.56955 9.88667 3.64455 9.88602L4.22364 9.88161L4.40683 9.33224C4.43036 9.26108 4.53105 9.26108 4.55477 9.33224Z" fill="white"/>
<path d="M4.55477 12.206L4.73795 12.7554L5.31705 12.7598C5.39205 12.7604 5.42308 12.8561 5.3628 12.9006L4.89695 13.2447L5.0717 13.7968C5.09439 13.8682 5.01292 13.9274 4.95189 13.8838L4.4808 13.547L4.00971 13.8838C3.94868 13.9273 3.86739 13.8682 3.88989 13.7968L4.06464 13.2447L3.5988 12.9006C3.53852 12.856 3.56955 12.7604 3.64455 12.7598L4.22364 12.7554L4.40683 12.206C4.43036 12.1349 4.53105 12.1349 4.55477 12.206Z" fill="white"/>
<path d="M6.78539 2.17544L6.96858 2.72481L7.54767 2.72922C7.62267 2.72987 7.65371 2.8255 7.59342 2.87003L7.12758 3.21409L7.30233 3.76618C7.32502 3.83762 7.24355 3.89687 7.18252 3.85318L6.71142 3.51643L6.24033 3.85318C6.1793 3.89677 6.09802 3.83762 6.12052 3.76618L6.29527 3.21409L5.82942 2.87003C5.76914 2.8254 5.80017 2.72987 5.87517 2.72922L6.45427 2.72481L6.63745 2.17544C6.66108 2.10428 6.76167 2.10428 6.78539 2.17544Z" fill="white"/>
<path d="M6.78539 5.04921L6.96858 5.59858L7.54767 5.60299C7.62267 5.60364 7.65371 5.69927 7.59342 5.7438L7.12758 6.08786L7.30233 6.63995C7.32502 6.71139 7.24355 6.77064 7.18252 6.72695L6.71142 6.3902L6.24033 6.72695C6.1793 6.77055 6.09802 6.71139 6.12052 6.63995L6.29527 6.08786L5.82942 5.7438C5.76914 5.69917 5.80017 5.60364 5.87517 5.60299L6.45427 5.59858L6.63745 5.04921C6.66108 4.97815 6.76167 4.97815 6.78539 5.04921Z" fill="white"/>
<path d="M6.78539 7.92317L6.96858 8.47255L7.54767 8.47696C7.62267 8.47761 7.65371 8.57324 7.59342 8.61777L7.12758 8.96183L7.30233 9.51393C7.32502 9.58537 7.24355 9.64462 7.18252 9.60093L6.71142 9.26418L6.24033 9.60093C6.1793 9.64452 6.09802 9.58537 6.12052 9.51393L6.29527 8.96183L5.82942 8.61777C5.76914 8.57314 5.80017 8.47761 5.87517 8.47696L6.45427 8.47255L6.63745 7.92317C6.66108 7.85211 6.76167 7.85211 6.78539 7.92317Z" fill="white"/>
<path d="M6.78539 10.7971L6.96858 11.3465L7.54767 11.3509C7.62267 11.3515 7.65371 11.4471 7.59342 11.4917L7.12758 11.8357L7.30233 12.3878C7.32502 12.4593 7.24355 12.5185 7.18252 12.4748L6.71142 12.1381L6.24033 12.4748C6.1793 12.5184 6.09802 12.4593 6.12052 12.3878L6.29527 11.8357L5.82942 11.4917C5.76914 11.447 5.80017 11.3515 5.87517 11.3509L6.45427 11.3465L6.63745 10.7971C6.66108 10.7259 6.76167 10.7259 6.78539 10.7971Z" fill="white"/>
<path d="M6.78539 13.6708L6.96858 14.2202L7.54767 14.2246C7.62267 14.2252 7.65371 14.3209 7.59342 14.3654L7.12758 14.7095L7.30233 15.2616C7.32502 15.333 7.24355 15.3922 7.18252 15.3486L6.71142 15.0118L6.24033 15.3486C6.1793 15.3922 6.09802 15.333 6.12052 15.2616L6.29527 14.7095L5.82942 14.3654C5.76914 14.3208 5.80017 14.2252 5.87517 14.2246L6.45427 14.2202L6.63745 13.6708C6.66108 13.5996 6.76167 13.5996 6.78539 13.6708Z" fill="white"/>
<path d="M9.01613 3.58436L9.19932 4.13374L9.77841 4.13814C9.85341 4.1388 9.88444 4.23442 9.82416 4.27896L9.35832 4.62302L9.53307 5.17511C9.55576 5.24655 9.47429 5.3058 9.41326 5.26211L8.94216 4.92536L8.47107 5.26211C8.41004 5.3057 8.32876 5.24655 8.35126 5.17511L8.52601 4.62302L8.06017 4.27896C7.99988 4.23433 8.03092 4.1388 8.10592 4.13814L8.68501 4.13374L8.8682 3.58436C8.89173 3.5133 8.99241 3.5133 9.01613 3.58436Z" fill="white"/>
<path d="M9.01613 6.45821L9.19932 7.00758L9.77841 7.01199C9.85341 7.01265 9.88444 7.10827 9.82416 7.1528L9.35832 7.49686L9.53307 8.04895C9.55576 8.12039 9.47429 8.17963 9.41326 8.13595L8.94216 7.7992L8.47107 8.13595C8.41004 8.17954 8.32876 8.12048 8.35126 8.04895L8.52601 7.49686L8.06017 7.1528C7.99988 7.10818 8.03092 7.01265 8.10592 7.01199L8.68501 7.00758L8.8682 6.45821C8.89173 6.38706 8.99241 6.38706 9.01613 6.45821Z" fill="white"/>
<path d="M9.01613 9.33224L9.19932 9.88161L9.77841 9.88602C9.85341 9.88667 9.88444 9.9823 9.82416 10.0268L9.35832 10.3709L9.53307 10.923C9.55576 10.9944 9.47429 11.0537 9.41326 11.01L8.94216 10.6732L8.47107 11.01C8.41004 11.0536 8.32876 10.9944 8.35126 10.923L8.52601 10.3709L8.06017 10.0268C7.99988 9.9822 8.03092 9.88667 8.10592 9.88602L8.68501 9.88161L8.8682 9.33224C8.89173 9.26108 8.99241 9.26108 9.01613 9.33224Z" fill="white"/>
<path d="M9.01613 12.206L9.19932 12.7554L9.77841 12.7598C9.85341 12.7604 9.88444 12.8561 9.82416 12.9006L9.35832 13.2447L9.53307 13.7968C9.55576 13.8682 9.47429 13.9274 9.41326 13.8838L8.94216 13.547L8.47107 13.8838C8.41004 13.9273 8.32876 13.8682 8.35126 13.7968L8.52601 13.2447L8.06017 12.9006C7.99988 12.856 8.03092 12.7604 8.10592 12.7598L8.68501 12.7554L8.8682 12.206C8.89173 12.1349 8.99241 12.1349 9.01613 12.206Z" fill="white"/>
<path d="M11.2467 2.17544L11.4299 2.72481L12.009 2.72922C12.084 2.72987 12.115 2.8255 12.0548 2.87003L11.5889 3.21409L11.7637 3.76618C11.7864 3.83762 11.7049 3.89687 11.6439 3.85318L11.1727 3.51643L10.7016 3.85318C10.6405 3.89677 10.5593 3.83762 10.5818 3.76618L10.7565 3.21409L10.2907 2.87003C10.2304 2.8254 10.2614 2.72987 10.3364 2.72922L10.9155 2.72481L11.0987 2.17544C11.1224 2.10428 11.223 2.10428 11.2467 2.17544Z" fill="white"/>
<path d="M11.2467 5.04921L11.4299 5.59858L12.009 5.60299C12.084 5.60364 12.115 5.69927 12.0548 5.7438L11.5889 6.08786L11.7637 6.63995C11.7864 6.71139 11.7049 6.77064 11.6439 6.72695L11.1727 6.3902L10.7016 6.72695C10.6405 6.77055 10.5593 6.71139 10.5818 6.63995L10.7565 6.08786L10.2907 5.7438C10.2304 5.69917 10.2614 5.60364 10.3364 5.60299L10.9155 5.59858L11.0987 5.04921C11.1224 4.97815 11.223 4.97815 11.2467 5.04921Z" fill="white"/>
<path d="M11.2467 7.92317L11.4299 8.47255L12.009 8.47696C12.084 8.47761 12.115 8.57324 12.0548 8.61777L11.5889 8.96183L11.7637 9.51393C11.7864 9.58537 11.7049 9.64462 11.6439 9.60093L11.1727 9.26418L10.7016 9.60093C10.6405 9.64452 10.5593 9.58537 10.5818 9.51393L10.7565 8.96183L10.2907 8.61777C10.2304 8.57314 10.2614 8.47761 10.3364 8.47696L10.9155 8.47255L11.0987 7.92317C11.1224 7.85211 11.223 7.85211 11.2467 7.92317Z" fill="white"/>
<path d="M11.2467 10.7971L11.4299 11.3465L12.009 11.3509C12.084 11.3515 12.115 11.4471 12.0548 11.4917L11.5889 11.8357L11.7637 12.3878C11.7864 12.4593 11.7049 12.5185 11.6439 12.4748L11.1727 12.1381L10.7016 12.4748C10.6405 12.5184 10.5593 12.4593 10.5818 12.3878L10.7565 11.8357L10.2907 11.4917C10.2304 11.447 10.2614 11.3515 10.3364 11.3509L10.9155 11.3465L11.0987 10.7971C11.1224 10.7259 11.223 10.7259 11.2467 10.7971Z" fill="white"/>
<path d="M11.2467 13.6708L11.4299 14.2202L12.009 14.2246C12.084 14.2252 12.115 14.3209 12.0548 14.3654L11.5889 14.7095L11.7637 15.2616C11.7864 15.333 11.7049 15.3922 11.6439 15.3486L11.1727 15.0118L10.7016 15.3486C10.6405 15.3922 10.5593 15.333 10.5818 15.2616L10.7565 14.7095L10.2907 14.3654C10.2304 14.3208 10.2614 14.2252 10.3364 14.2246L10.9155 14.2202L11.0987 13.6708C11.1224 13.5996 11.223 13.5996 11.2467 13.6708Z" fill="white"/>
<path d="M13.4773 3.58436L13.6605 4.13374L14.2396 4.13814C14.3146 4.1388 14.3457 4.23442 14.2854 4.27896L13.8195 4.62302L13.9943 5.17511C14.017 5.24655 13.9355 5.3058 13.8745 5.26211L13.4034 4.92536L12.9323 5.26211C12.8713 5.3057 12.79 5.24655 12.8125 5.17511L12.9872 4.62302L12.5214 4.27896C12.4611 4.23433 12.4921 4.1388 12.5671 4.13814L13.1462 4.13374L13.3294 3.58436C13.3531 3.5133 13.4536 3.5133 13.4773 3.58436Z" fill="white"/>
<path d="M13.4773 6.45821L13.6605 7.00758L14.2396 7.01199C14.3146 7.01265 14.3457 7.10827 14.2854 7.1528L13.8195 7.49686L13.9943 8.04895C14.017 8.12039 13.9355 8.17963 13.8745 8.13595L13.4034 7.7992L12.9323 8.13595C12.8713 8.17954 12.79 8.12048 12.8125 8.04895L12.9872 7.49686L12.5214 7.1528C12.4611 7.10818 12.4921 7.01265 12.5671 7.01199L13.1462 7.00758L13.3294 6.45821C13.3531 6.38706 13.4536 6.38706 13.4773 6.45821Z" fill="white"/>
<path d="M13.4773 9.33224L13.6605 9.88161L14.2396 9.88602C14.3146 9.88667 14.3457 9.9823 14.2854 10.0268L13.8195 10.3709L13.9943 10.923C14.017 10.9944 13.9355 11.0537 13.8745 11.01L13.4034 10.6732L12.9323 11.01C12.8713 11.0536 12.79 10.9944 12.8125 10.923L12.9872 10.3709L12.5214 10.0268C12.4611 9.9822 12.4921 9.88667 12.5671 9.88602L13.1462 9.88161L13.3294 9.33224C13.3531 9.26108 13.4536 9.26108 13.4773 9.33224Z" fill="white"/>
<path d="M13.4773 12.206L13.6605 12.7554L14.2396 12.7598C14.3146 12.7604 14.3457 12.8561 14.2854 12.9006L13.8195 13.2447L13.9943 13.7968C14.017 13.8682 13.9355 13.9274 13.8745 13.8838L13.4034 13.547L12.9323 13.8838C12.8713 13.9273 12.79 13.8682 12.8125 13.7968L12.9872 13.2447L12.5214 12.9006C12.4611 12.856 12.4921 12.7604 12.5671 12.7598L13.1462 12.7554L13.3294 12.206C13.3531 12.1349 13.4536 12.1349 13.4773 12.206Z" fill="white"/>
<path d="M15.7077 2.17544L15.8909 2.72481L16.4699 2.72922C16.5449 2.72987 16.576 2.8255 16.5157 2.87003L16.0499 3.21409L16.2246 3.76618C16.2473 3.83762 16.1658 3.89687 16.1048 3.85318L15.6337 3.51643L15.1626 3.85318C15.1016 3.89677 15.0203 3.83762 15.0428 3.76618L15.2175 3.21409L14.7517 2.87003C14.6914 2.8254 14.7224 2.72987 14.7974 2.72922L15.3765 2.72481L15.5597 2.17544C15.5833 2.10428 15.6839 2.10428 15.7077 2.17544Z" fill="white"/>
<path d="M15.7077 5.04921L15.8909 5.59858L16.4699 5.60299C16.5449 5.60364 16.576 5.69927 16.5157 5.7438L16.0499 6.08786L16.2246 6.63995C16.2473 6.71139 16.1658 6.77064 16.1048 6.72695L15.6337 6.3902L15.1626 6.72695C15.1016 6.77055 15.0203 6.71139 15.0428 6.63995L15.2175 6.08786L14.7517 5.7438C14.6914 5.69917 14.7224 5.60364 14.7974 5.60299L15.3765 5.59858L15.5597 5.04921C15.5833 4.97815 15.6839 4.97815 15.7077 5.04921Z" fill="white"/>
<path d="M15.7077 7.92317L15.8909 8.47255L16.4699 8.47696C16.5449 8.47761 16.576 8.57324 16.5157 8.61777L16.0499 8.96183L16.2246 9.51393C16.2473 9.58537 16.1658 9.64462 16.1048 9.60093L15.6337 9.26418L15.1626 9.60093C15.1016 9.64452 15.0203 9.58537 15.0428 9.51393L15.2175 8.96183L14.7517 8.61777C14.6914 8.57314 14.7224 8.47761 14.7974 8.47696L15.3765 8.47255L15.5597 7.92317C15.5833 7.85211 15.6839 7.85211 15.7077 7.92317Z" fill="white"/>
<path d="M15.7077 10.7971L15.8909 11.3465L16.4699 11.3509C16.5449 11.3515 16.576 11.4471 16.5157 11.4917L16.0499 11.8357L16.2246 12.3878C16.2473 12.4593 16.1658 12.5185 16.1048 12.4748L15.6337 12.1381L15.1626 12.4748C15.1016 12.5184 15.0203 12.4593 15.0428 12.3878L15.2175 11.8357L14.7517 11.4917C14.6914 11.447 14.7224 11.3515 14.7974 11.3509L15.3765 11.3465L15.5597 10.7971C15.5833 10.7259 15.6839 10.7259 15.7077 10.7971Z" fill="white"/>
<path d="M15.7077 13.6708L15.8909 14.2202L16.4699 14.2246C16.5449 14.2252 16.576 14.3209 16.5157 14.3654L16.0499 14.7095L16.2246 15.2616C16.2473 15.333 16.1658 15.3922 16.1048 15.3486L15.6337 15.0118L15.1626 15.3486C15.1016 15.3922 15.0203 15.333 15.0428 15.2616L15.2175 14.7095L14.7517 14.3654C14.6914 14.3208 14.7224 14.2252 14.7974 14.2246L15.3765 14.2202L15.5597 13.6708C15.5833 13.5996 15.6839 13.5996 15.7077 13.6708Z" fill="white"/>
<path d="M17.9383 3.58436L18.1215 4.13374L18.7006 4.13814C18.7756 4.1388 18.8066 4.23442 18.7463 4.27896L18.2805 4.62302L18.4552 5.17511C18.4779 5.24655 18.3964 5.3058 18.3354 5.26211L17.8643 4.92536L17.3932 5.26211C17.3322 5.3057 17.2509 5.24655 17.2734 5.17511L17.4482 4.62302L16.9823 4.27896C16.922 4.23433 16.9531 4.1388 17.0281 4.13814L17.6072 4.13374L17.7903 3.58436C17.814 3.5133 17.9147 3.5133 17.9383 3.58436Z" fill="white"/>
<path d="M17.9383 6.45821L18.1215 7.00758L18.7006 7.01199C18.7756 7.01265 18.8066 7.10827 18.7463 7.1528L18.2805 7.49686L18.4552 8.04895C18.4779 8.12039 18.3964 8.17963 18.3354 8.13595L17.8643 7.7992L17.3932 8.13595C17.3322 8.17954 17.2509 8.12048 17.2734 8.04895L17.4482 7.49686L16.9823 7.1528C16.922 7.10818 16.9531 7.01265 17.0281 7.01199L17.6072 7.00758L17.7903 6.45821C17.814 6.38706 17.9147 6.38706 17.9383 6.45821Z" fill="white"/>
<path d="M17.9383 9.33224L18.1215 9.88161L18.7006 9.88602C18.7756 9.88667 18.8066 9.9823 18.7463 10.0268L18.2805 10.3709L18.4552 10.923C18.4779 10.9944 18.3964 11.0537 18.3354 11.01L17.8643 10.6732L17.3932 11.01C17.3322 11.0536 17.2509 10.9944 17.2734 10.923L17.4482 10.3709L16.9823 10.0268C16.922 9.9822 16.9531 9.88667 17.0281 9.88602L17.6072 9.88161L17.7903 9.33224C17.814 9.26108 17.9147 9.26108 17.9383 9.33224Z" fill="white"/>
<path d="M17.9383 12.206L18.1215 12.7554L18.7006 12.7598C18.7756 12.7604 18.8066 12.8561 18.7463 12.9006L18.2805 13.2447L18.4552 13.7968C18.4779 13.8682 18.3964 13.9274 18.3354 13.8838L17.8643 13.547L17.3932 13.8838C17.3322 13.9273 17.2509 13.8682 17.2734 13.7968L17.4482 13.2447L16.9823 12.9006C16.922 12.856 16.9531 12.7604 17.0281 12.7598L17.6072 12.7554L17.7903 12.206C17.814 12.1349 17.9147 12.1349 17.9383 12.206Z" fill="white"/>
<path d="M20.169 2.17544L20.3522 2.72481L20.9313 2.72922C21.0063 2.72987 21.0373 2.8255 20.977 2.87003L20.5112 3.21409L20.6859 3.76618C20.7086 3.83762 20.6272 3.89687 20.5661 3.85318L20.095 3.51643L19.6239 3.85318C19.5629 3.89677 19.4816 3.83762 19.5041 3.76618L19.6789 3.21409L19.213 2.87003C19.1527 2.8254 19.1838 2.72987 19.2588 2.72922L19.8379 2.72481L20.0211 2.17544C20.0447 2.10428 20.1452 2.10428 20.169 2.17544Z" fill="white"/>
<path d="M20.169 5.04921L20.3522 5.59858L20.9313 5.60299C21.0063 5.60364 21.0373 5.69927 20.977 5.7438L20.5112 6.08786L20.6859 6.63995C20.7086 6.71139 20.6272 6.77064 20.5661 6.72695L20.095 6.3902L19.6239 6.72695C19.5629 6.77055 19.4816 6.71139 19.5041 6.63995L19.6789 6.08786L19.213 5.7438C19.1527 5.69917 19.1838 5.60364 19.2588 5.60299L19.8379 5.59858L20.0211 5.04921C20.0447 4.97815 20.1452 4.97815 20.169 5.04921Z" fill="white"/>
<path d="M20.169 7.92317L20.3522 8.47255L20.9313 8.47696C21.0063 8.47761 21.0373 8.57324 20.977 8.61777L20.5112 8.96183L20.6859 9.51393C20.7086 9.58537 20.6272 9.64462 20.5661 9.60093L20.095 9.26418L19.6239 9.60093C19.5629 9.64452 19.4816 9.58537 19.5041 9.51393L19.6789 8.96183L19.213 8.61777C19.1527 8.57314 19.1838 8.47761 19.2588 8.47696L19.8379 8.47255L20.0211 7.92317C20.0447 7.85211 20.1452 7.85211 20.169 7.92317Z" fill="white"/>
<path d="M20.169 10.7971L20.3522 11.3465L20.9313 11.3509C21.0063 11.3515 21.0373 11.4471 20.977 11.4917L20.5112 11.8357L20.6859 12.3878C20.7086 12.4593 20.6272 12.5185 20.5661 12.4748L20.095 12.1381L19.6239 12.4748C19.5629 12.5184 19.4816 12.4593 19.5041 12.3878L19.6789 11.8357L19.213 11.4917C19.1527 11.447 19.1838 11.3515 19.2588 11.3509L19.8379 11.3465L20.0211 10.7971C20.0447 10.7259 20.1452 10.7259 20.169 10.7971Z" fill="white"/>
<path d="M20.169 13.6708L20.3522 14.2202L20.9313 14.2246C21.0063 14.2252 21.0373 14.3209 20.977 14.3654L20.5112 14.7095L20.6859 15.2616C20.7086 15.333 20.6272 15.3922 20.5661 15.3486L20.095 15.0118L19.6239 15.3486C19.5629 15.3922 19.4816 15.333 19.5041 15.2616L19.6789 14.7095L19.213 14.3654C19.1527 14.3208 19.1838 14.2252 19.2588 14.2246L19.8379 14.2202L20.0211 13.6708C20.0447 13.5996 20.1452 13.5996 20.169 13.6708Z" fill="white"/>
</g>
<defs>
<clipPath id="clip0_11_4450">
<rect width="48" height="32" fill="white"/>
</clipPath>
</defs>
</svg>
