<svg width="48" height="32" viewBox="0 0 48 32" fill="none" xmlns="http://www.w3.org/2000/svg">
<g clip-path="url(#clip0_11_2111)">
<path d="M47.1723 0.275848H0.827623C0.370593 0.275848 0 0.646347 0 1.10338V30.8964C0 31.3534 0.370593 31.724 0.827623 31.724H47.1724C47.6294 31.724 48 31.3534 48 30.8964V1.10338C47.9999 0.646347 47.6293 0.275848 47.1723 0.275848Z" fill="white"/>
<path d="M48 3.77029H17.3795V7.26435H48V3.77029Z" fill="#4173CD"/>
<path d="M47.9999 7.26434H0V10.7584H47.9999V7.26434Z" fill="white"/>
<path d="M48 10.7584H17.3795V14.2524H48V10.7584Z" fill="#4173CD"/>
<path d="M47.9999 14.2525H0V17.7465H47.9999V14.2525Z" fill="white"/>
<path d="M47.9999 17.7476H0V21.2416H47.9999V17.7476Z" fill="#4173CD"/>
<path d="M47.9999 21.2415H0V24.7356H47.9999V21.2415Z" fill="white"/>
<path d="M47.9999 24.7356H0V28.2296H47.9999V24.7356Z" fill="#4173CD"/>
<path d="M5.99768 2.46643L7.38209 8.87264L9.54836 7.97527L5.99768 2.46643Z" fill="#FFE15A"/>
<path d="M5.99768 2.46643L8.46517 8.42395L7.38208 8.87264L5.99768 2.46643Z" fill="#FFCD5A"/>
<path d="M11.3816 15.4646L9.99706 9.05835L7.83078 9.95572L11.3816 15.4646Z" fill="#FFE15A"/>
<path d="M11.3816 15.4646L8.914 9.50704L9.99709 9.05835L11.3816 15.4646Z" fill="#FFCD5A"/>
<path d="M15.1888 6.27359L8.78265 7.65799L9.67993 9.82427L15.1888 6.27359Z" fill="#FFE15A"/>
<path d="M15.1888 6.27359L9.23125 8.74109L8.78265 7.65799L15.1888 6.27359Z" fill="#FFCD5A"/>
<path d="M2.1907 11.6574L8.59682 10.273L7.69944 8.10669L2.1907 11.6574Z" fill="#FFE15A"/>
<path d="M2.1907 11.6573L8.14813 9.18985L8.59682 10.2729L2.1907 11.6573Z" fill="#FFCD5A"/>
<path d="M11.3816 2.46643L7.83078 7.97527L9.99706 8.87264L11.3816 2.46643Z" fill="#FFE15A"/>
<path d="M11.3816 2.46643L8.91397 8.42395L7.83078 7.97526L11.3816 2.46643Z" fill="#FFCD5A"/>
<path d="M5.99768 15.4646L9.54836 9.95572L7.38209 9.05835L5.99768 15.4646Z" fill="#FFE15A"/>
<path d="M5.99768 15.4645L8.46518 9.50702L9.54836 9.95571L5.99768 15.4645Z" fill="#FFCD5A"/>
<path d="M15.1888 11.6574L9.67993 8.10669L8.78265 10.273L15.1888 11.6574Z" fill="#FFE15A"/>
<path d="M15.1886 11.6574L9.23111 9.18988L9.6798 8.10669L15.1886 11.6574Z" fill="#FFCD5A"/>
<path d="M2.1907 6.27359L7.69944 9.82427L8.59682 7.65799L2.1907 6.27359Z" fill="#FFE15A"/>
<path d="M2.1907 6.27359L8.14813 8.74109L7.69944 9.82427L2.1907 6.27359Z" fill="#FFCD5A"/>
<path d="M8.6896 1.931L7.51717 8.37921H9.86194L8.6896 1.931Z" fill="#FFE15A"/>
<path d="M8.6896 1.931V8.37921H7.51717L8.6896 1.931Z" fill="#FFCD5A"/>
<path d="M8.6896 16L9.86194 9.55176H7.51717L8.6896 16Z" fill="#FFE15A"/>
<path d="M8.68973 16V9.55176H9.86207L8.68973 16Z" fill="#FFCD5A"/>
<path d="M15.724 8.96553L9.27579 7.79309V10.1379L15.724 8.96553Z" fill="#FFE15A"/>
<path d="M15.724 8.96553H9.27579V7.79309L15.724 8.96553Z" fill="#FFCD5A"/>
<path d="M1.65512 8.96553L8.10333 10.1379V7.79309L1.65512 8.96553Z" fill="#FFE15A"/>
<path d="M1.65512 8.96552H8.10333V10.1379L1.65512 8.96552Z" fill="#FFCD5A"/>
<path d="M13.6637 3.99136L8.27505 7.72196L9.93312 9.38002L13.6637 3.99136Z" fill="#FFE15A"/>
<path d="M13.6637 3.99136L9.10409 8.55099L8.27505 7.72196L13.6637 3.99136Z" fill="#FFCD5A"/>
<path d="M3.71553 13.9396L9.10409 10.209L7.44603 8.55096L3.71553 13.9396Z" fill="#FFE15A"/>
<path d="M3.71553 13.9396L8.27506 9.38L9.10409 10.209L3.71553 13.9396Z" fill="#FFCD5A"/>
<path d="M13.6637 13.9396L9.93312 8.55096L8.27505 10.209L13.6637 13.9396Z" fill="#FFE15A"/>
<path d="M13.6637 13.9396L9.10406 9.37999L9.9331 8.55096L13.6637 13.9396Z" fill="#FFCD5A"/>
<path d="M3.71553 3.99136L7.44603 9.38002L9.10409 7.72196L3.71553 3.99136Z" fill="#FFE15A"/>
<path d="M3.71553 3.99136L8.27506 8.55099L7.44603 9.38002L3.71553 3.99136Z" fill="#FFCD5A"/>
<path d="M8.68973 11.3106C9.98466 11.3106 11.0344 10.2608 11.0344 8.9659C11.0344 7.67097 9.98466 6.62122 8.68973 6.62122C7.3948 6.62122 6.34505 7.67097 6.34505 8.9659C6.34505 10.2608 7.3948 11.3106 8.68973 11.3106Z" fill="#FFE15A"/>
</g>
<defs>
<clipPath id="clip0_11_2111">
<rect width="48" height="32" fill="white"/>
</clipPath>
</defs>
</svg>
