<svg width="48" height="32" viewBox="0 0 48 32" fill="none" xmlns="http://www.w3.org/2000/svg">
<g clip-path="url(#clip0_11_3876)">
<path d="M47.9999 10.7588H0V1.10359C0 0.646563 0.370593 0.27597 0.827623 0.27597H47.1724C47.6294 0.27597 48 0.646563 48 1.10359L47.9999 10.7588Z" fill="#82AFFF"/>
<path d="M47.1723 31.724H0.827623C0.370593 31.724 0 31.3534 0 30.8963V21.2412H47.9999V30.8963C47.9999 31.3535 47.6293 31.724 47.1723 31.724Z" fill="#73AF00"/>
<path d="M47.9999 10.7587H0V21.2408H47.9999V10.7587Z" fill="white"/>
<path d="M47.9999 9.82742H0V11.1345H47.9999V9.82742Z" fill="#FF4B55"/>
<path d="M47.9999 20.8646H0V22.1717H47.9999V20.8646Z" fill="#FF4B55"/>
<path d="M10.6396 8.13185C8.9454 8.13185 7.57206 6.76179 7.57206 5.07363C7.57206 3.37929 8.9453 2.00305 10.6396 2.00305C10.6462 2.00305 10.6526 2.00305 10.659 2.00314C10.7587 2.00445 10.7937 1.87198 10.7057 1.82483C10.184 1.54517 9.58861 1.38692 8.95562 1.39152C6.92837 1.40595 5.28166 3.08586 5.30322 5.1131C5.32441 7.11944 6.96465 8.74347 8.98215 8.74347C9.60643 8.74347 10.1935 8.5855 10.7087 8.30969C10.7964 8.26272 10.761 8.13025 10.6616 8.13166C10.6541 8.13185 10.6469 8.13185 10.6396 8.13185Z" fill="white"/>
<path d="M13.0415 7.28624L12.9046 7.69705L12.4715 7.70033C12.4155 7.7007 12.3922 7.77233 12.4373 7.80561L12.7857 8.06286L12.655 8.47573C12.6381 8.52917 12.699 8.57342 12.7446 8.5408L13.0969 8.28898L13.4493 8.5408C13.4949 8.57342 13.5557 8.52917 13.5389 8.47573L13.4082 8.06286L13.7565 7.80561C13.8016 7.77233 13.7783 7.7007 13.7223 7.70033L13.2892 7.69705L13.1523 7.28624C13.1345 7.23308 13.0593 7.23308 13.0415 7.28624Z" fill="white"/>
<path d="M16.0925 7.28624L15.9555 7.69705L15.5225 7.70033C15.4664 7.7007 15.4432 7.77233 15.4882 7.80561L15.8365 8.06286L15.7058 8.47573C15.689 8.52917 15.7498 8.57342 15.7955 8.5408L16.1478 8.28898L16.5001 8.5408C16.5458 8.57342 16.6065 8.52917 16.5897 8.47573L16.459 8.06286L16.8073 7.80561C16.8524 7.77233 16.8292 7.7007 16.7731 7.70033L16.3401 7.69705L16.2031 7.28624C16.1854 7.23308 16.1101 7.23308 16.0925 7.28624Z" fill="white"/>
<path d="M19.1433 7.28624L19.0063 7.69705L18.5733 7.70033C18.5172 7.7007 18.494 7.77233 18.539 7.80561L18.8874 8.06286L18.7567 8.47573C18.7399 8.52917 18.8007 8.57342 18.8464 8.5408L19.1987 8.28898L19.551 8.5408C19.5966 8.57342 19.6574 8.52917 19.6406 8.47573L19.5099 8.06286L19.8582 7.80561C19.9033 7.77233 19.88 7.7007 19.824 7.70033L19.3909 7.69705L19.254 7.28624C19.2363 7.23308 19.161 7.23308 19.1433 7.28624Z" fill="white"/>
<path d="M22.1941 7.28624L22.0571 7.69705L21.6241 7.70033C21.568 7.7007 21.5448 7.77233 21.5899 7.80561L21.9382 8.06286L21.8075 8.47573C21.7906 8.52917 21.8514 8.57342 21.8971 8.5408L22.2494 8.28898L22.6017 8.5408C22.6474 8.57342 22.7081 8.52917 22.6913 8.47573L22.5607 8.06286L22.9089 7.80561C22.954 7.77233 22.9308 7.7007 22.8747 7.70033L22.4417 7.69705L22.3047 7.28624C22.2871 7.23308 22.2118 7.23308 22.1941 7.28624Z" fill="white"/>
<path d="M25.245 7.28624L25.1081 7.69705L24.675 7.70033C24.619 7.7007 24.5957 7.77233 24.6408 7.80561L24.9892 8.06286L24.8585 8.47573C24.8416 8.52917 24.9025 8.57342 24.9481 8.5408L25.3004 8.28898L25.6528 8.5408C25.6984 8.57342 25.7592 8.52917 25.7424 8.47573L25.6117 8.06286L25.9601 7.80561C26.0052 7.77233 25.9819 7.7007 25.9259 7.70033L25.4928 7.69705L25.3559 7.28624C25.338 7.23308 25.2628 7.23308 25.245 7.28624Z" fill="white"/>
<path d="M16.0925 4.4389L15.9555 4.84972L15.5225 4.853C15.4664 4.85337 15.4432 4.925 15.4882 4.95828L15.8365 5.21553L15.7058 5.62841C15.689 5.68184 15.7498 5.72609 15.7955 5.69347L16.1478 5.44166L16.5001 5.69347C16.5458 5.72609 16.6065 5.68184 16.5897 5.62841L16.459 5.21553L16.8073 4.95828C16.8524 4.925 16.8292 4.85337 16.7731 4.853L16.3401 4.84972L16.2031 4.4389C16.1854 4.38556 16.1101 4.38556 16.0925 4.4389Z" fill="white"/>
<path d="M19.1433 4.4389L19.0063 4.84972L18.5733 4.853C18.5172 4.85337 18.494 4.925 18.539 4.95828L18.8874 5.21553L18.7567 5.62841C18.7399 5.68184 18.8007 5.72609 18.8464 5.69347L19.1987 5.44166L19.551 5.69347C19.5966 5.72609 19.6574 5.68184 19.6406 5.62841L19.5099 5.21553L19.8582 4.95828C19.9033 4.925 19.88 4.85337 19.824 4.853L19.3909 4.84972L19.254 4.4389C19.2363 4.38556 19.161 4.38556 19.1433 4.4389Z" fill="white"/>
<path d="M22.1941 4.4389L22.0571 4.84972L21.6241 4.853C21.568 4.85337 21.5448 4.925 21.5899 4.95828L21.9382 5.21553L21.8075 5.62841C21.7906 5.68184 21.8514 5.72609 21.8971 5.69347L22.2494 5.44166L22.6017 5.69347C22.6474 5.72609 22.7081 5.68184 22.6913 5.62841L22.5607 5.21553L22.9089 4.95828C22.954 4.925 22.9308 4.85337 22.8747 4.853L22.4417 4.84972L22.3047 4.4389C22.2871 4.38556 22.2118 4.38556 22.1941 4.4389Z" fill="white"/>
<path d="M25.245 4.4389L25.1081 4.84972L24.675 4.853C24.619 4.85337 24.5957 4.925 24.6408 4.95828L24.9892 5.21553L24.8585 5.62841C24.8416 5.68184 24.9025 5.72609 24.9481 5.69347L25.3004 5.44166L25.6528 5.69347C25.6984 5.72609 25.7592 5.68184 25.7424 5.62841L25.6117 5.21553L25.9601 4.95828C26.0052 4.925 25.9819 4.85337 25.9259 4.853L25.4928 4.84972L25.3559 4.4389C25.338 4.38556 25.2628 4.38556 25.245 4.4389Z" fill="white"/>
<path d="M19.1433 7.28624L19.0063 7.69705L18.5733 7.70033C18.5172 7.7007 18.494 7.77233 18.539 7.80561L18.8874 8.06286L18.7567 8.47573C18.7399 8.52917 18.8007 8.57342 18.8464 8.5408L19.1987 8.28898L19.551 8.5408C19.5966 8.57342 19.6574 8.52917 19.6406 8.47573L19.5099 8.06286L19.8582 7.80561C19.9033 7.77233 19.88 7.7007 19.824 7.70033L19.3909 7.69705L19.254 7.28624C19.2363 7.23308 19.161 7.23308 19.1433 7.28624Z" fill="white"/>
<path d="M19.1433 1.59141L19.0063 2.00222L18.5733 2.0055C18.5172 2.00588 18.494 2.0775 18.539 2.11079L18.8874 2.36803L18.7567 2.78091C18.7399 2.83435 18.8007 2.8786 18.8464 2.84597L19.1987 2.59416L19.551 2.84597C19.5966 2.8786 19.6574 2.83435 19.6406 2.78091L19.5099 2.36803L19.8582 2.11079C19.9033 2.0775 19.88 2.00588 19.824 2.0055L19.3909 2.00222L19.254 1.59141C19.2363 1.53826 19.161 1.53826 19.1433 1.59141Z" fill="white"/>
<path d="M22.1941 7.28624L22.0571 7.69705L21.6241 7.70033C21.568 7.7007 21.5448 7.77233 21.5899 7.80561L21.9382 8.06286L21.8075 8.47573C21.7906 8.52917 21.8514 8.57342 21.8971 8.5408L22.2494 8.28898L22.6017 8.5408C22.6474 8.57342 22.7081 8.52917 22.6913 8.47573L22.5607 8.06286L22.9089 7.80561C22.954 7.77233 22.9308 7.7007 22.8747 7.70033L22.4417 7.69705L22.3047 7.28624C22.2871 7.23308 22.2118 7.23308 22.1941 7.28624Z" fill="white"/>
<path d="M25.245 7.28624L25.1081 7.69705L24.675 7.70033C24.619 7.7007 24.5957 7.77233 24.6408 7.80561L24.9892 8.06286L24.8585 8.47573C24.8416 8.52917 24.9025 8.57342 24.9481 8.5408L25.3004 8.28898L25.6528 8.5408C25.6984 8.57342 25.7592 8.52917 25.7424 8.47573L25.6117 8.06286L25.9601 7.80561C26.0052 7.77233 25.9819 7.7007 25.9259 7.70033L25.4928 7.69705L25.3559 7.28624C25.338 7.23308 25.2628 7.23308 25.245 7.28624Z" fill="white"/>
<path d="M22.1941 1.59141L22.0571 2.00222L21.6241 2.0055C21.568 2.00588 21.5448 2.0775 21.5899 2.11079L21.9382 2.36803L21.8075 2.78091C21.7906 2.83435 21.8514 2.8786 21.8971 2.84597L22.2494 2.59416L22.6017 2.84597C22.6474 2.8786 22.7081 2.83435 22.6913 2.78091L22.5607 2.36803L22.9089 2.11079C22.954 2.0775 22.9308 2.00588 22.8747 2.0055L22.4417 2.00222L22.3047 1.59141C22.2871 1.53826 22.2118 1.53826 22.1941 1.59141Z" fill="white"/>
<path d="M25.245 1.59141L25.1081 2.00222L24.675 2.0055C24.619 2.00588 24.5957 2.0775 24.6408 2.11079L24.9892 2.36803L24.8585 2.78091C24.8416 2.83435 24.9025 2.8786 24.9481 2.84597L25.3004 2.59416L25.6528 2.84597C25.6984 2.8786 25.7592 2.83435 25.7424 2.78091L25.6117 2.36803L25.9601 2.11079C26.0052 2.0775 25.9819 2.00588 25.9259 2.0055L25.4928 2.00222L25.3559 1.59141C25.338 1.53826 25.2628 1.53826 25.245 1.59141Z" fill="white"/>
</g>
<defs>
<clipPath id="clip0_11_3876">
<rect width="48" height="32" fill="white"/>
</clipPath>
</defs>
</svg>
