<svg width="48" height="32" viewBox="0 0 48 32" fill="none" xmlns="http://www.w3.org/2000/svg">
<g clip-path="url(#clip0_11_4679)">
<path d="M37.2414 0.276062H10.7589V31.7244H37.2414V0.276062Z" fill="#FFE15A"/>
<path d="M47.1721 31.7238H37.2412V0.275635H47.1722C47.6292 0.275635 47.9998 0.646227 47.9998 1.10326V30.8962C47.9997 31.3533 47.6291 31.7238 47.1721 31.7238Z" fill="#73AF00"/>
<path d="M0.827623 0.275635H10.7586V31.7238H0.827623C0.370593 31.7238 0 31.3532 0 30.8962V1.10326C0 0.646227 0.370593 0.275635 0.827623 0.275635Z" fill="#4173CD"/>
<path d="M17.9891 15.5756L20.6736 20.9448L23.3582 15.5756L20.6736 10.2065L17.9891 15.5756Z" fill="#73AF00"/>
<path d="M24.6412 15.5756L27.3259 20.9448L30.0104 15.5756L27.3259 10.2065L24.6412 15.5756Z" fill="#73AF00"/>
<path d="M21.3151 22.0305L23.9996 27.3995L26.6842 22.0305L23.9996 16.6613L21.3151 22.0305Z" fill="#73AF00"/>
</g>
<defs>
<clipPath id="clip0_11_4679">
<rect width="48" height="32" fill="white"/>
</clipPath>
</defs>
</svg>
