<svg width="48" height="32" viewBox="0 0 48 32" fill="none" xmlns="http://www.w3.org/2000/svg">
<g clip-path="url(#clip0_11_3112)">
<path d="M47.9999 10.7588H0V1.10359C0 0.646563 0.370593 0.27597 0.827623 0.27597H47.1724C47.6294 0.27597 48 0.646563 48 1.10359L47.9999 10.7588Z" fill="#FFE15A"/>
<path d="M47.1723 31.7242H0.827623C0.370593 31.7242 0 31.3536 0 30.8966V21.2415H47.9999V30.8966C47.9999 31.3537 47.6293 31.7242 47.1723 31.7242Z" fill="#FF4B55"/>
<path d="M47.9999 10.7584H0V21.2406H47.9999V10.7584Z" fill="#41479B"/>
<path d="M16.7005 18.0154L16.9079 18.6372L17.5633 18.6423C17.6482 18.6429 17.6834 18.7512 17.6152 18.8017L17.0879 19.191L17.2856 19.816C17.3112 19.8969 17.2191 19.9639 17.15 19.9145L16.6167 19.5333L16.0835 19.9145C16.0145 19.9638 15.9223 19.8968 15.9478 19.816L16.1456 19.191L15.6183 18.8017C15.5501 18.7513 15.5852 18.6429 15.6701 18.6423L16.3256 18.6372L16.5329 18.0154C16.5598 17.9349 16.6737 17.9349 16.7005 18.0154Z" fill="white"/>
<path d="M17.974 16.0359L17.8629 16.6819L18.4381 16.9962C18.5125 17.0368 18.4924 17.149 18.4084 17.1611L17.7596 17.255L17.6385 17.8992C17.6228 17.9825 17.5101 17.9981 17.4725 17.9219L17.1827 17.3339L16.5326 17.4178C16.4484 17.4287 16.3988 17.3262 16.4596 17.2669L16.9293 16.8096L16.6486 16.2173C16.6123 16.1406 16.6945 16.0617 16.7696 16.1013L17.3496 16.4066L17.8263 15.9566C17.888 15.8984 17.9883 15.9522 17.974 16.0359Z" fill="white"/>
<path d="M19.5855 14.3035L19.2778 14.8823L19.7259 15.3607C19.7839 15.4226 19.7297 15.5228 19.6461 15.508L19.0004 15.3942L18.6838 15.9683C18.6428 16.0425 18.5308 16.022 18.519 15.938L18.4277 15.2889L17.7839 15.1651C17.7006 15.1491 17.6856 15.0362 17.7619 14.999L18.351 14.7116L18.2697 14.0611C18.2591 13.9769 18.3619 13.9278 18.4208 13.9888L18.8763 14.4602L19.4697 14.182C19.5468 14.146 19.6253 14.2285 19.5855 14.3035Z" fill="white"/>
<path d="M21.5248 13.2283L21.0726 13.7029L21.3752 14.2843C21.4144 14.3596 21.3352 14.4415 21.2586 14.4047L20.6676 14.1211L20.2079 14.5886C20.1485 14.6491 20.0461 14.599 20.0574 14.5149L20.1444 13.8651L19.5578 13.5724C19.4818 13.5345 19.4978 13.4218 19.5812 13.4065L20.226 13.2884L20.3231 12.6402C20.3356 12.5563 20.4478 12.5366 20.4881 12.6113L20.7996 13.188L21.4462 13.08C21.5301 13.0663 21.5833 13.1669 21.5248 13.2283Z" fill="white"/>
<path d="M23.7539 12.7303L23.1911 13.0663L23.3268 13.7076C23.3444 13.7907 23.2461 13.8483 23.1823 13.7924L22.6889 13.361L22.1208 13.6882C22.0472 13.7306 21.9621 13.655 21.9956 13.5769L22.2535 12.9742L21.7667 12.5352C21.7037 12.4783 21.7494 12.374 21.8339 12.3817L22.4867 12.4407L22.7539 11.8421C22.7885 11.7646 22.9019 11.7757 22.9207 11.8584L23.0664 12.4975L23.7182 12.5666C23.8023 12.5757 23.8269 12.6868 23.7539 12.7303Z" fill="white"/>
<path d="M31.2992 18.0154L31.0918 18.6372L30.4364 18.6423C30.3516 18.6429 30.3164 18.7512 30.3846 18.8017L30.9118 19.191L30.7141 19.816C30.6885 19.8969 30.7807 19.9639 30.8498 19.9145L31.383 19.5333L31.9163 19.9145C31.9853 19.9638 32.0774 19.8968 32.0519 19.816L31.8542 19.191L32.3815 18.8017C32.4497 18.7513 32.4146 18.6429 32.3296 18.6423L31.6742 18.6372L31.4668 18.0154C31.4399 17.9349 31.326 17.9349 31.2992 18.0154Z" fill="white"/>
<path d="M30.0257 16.0359L30.1368 16.6819L29.5615 16.9962C29.4871 17.0368 29.5072 17.149 29.5913 17.1611L30.24 17.255L30.3611 17.8992C30.3769 17.9825 30.4897 17.9981 30.5272 17.9219L30.8169 17.3339L31.4671 17.4178C31.5513 17.4287 31.6009 17.3262 31.54 17.2669L31.0704 16.8096L31.351 16.2173C31.3873 16.1406 31.3052 16.0617 31.2301 16.1013L30.6501 16.4066L30.1733 15.9566C30.1117 15.8984 30.0113 15.9522 30.0257 16.0359Z" fill="white"/>
<path d="M28.4143 14.3035L28.7219 14.8823L28.2739 15.3607C28.2159 15.4226 28.2701 15.5228 28.3537 15.508L28.9994 15.3942L29.3159 15.9683C29.3569 16.0425 29.469 16.022 29.4808 15.938L29.5721 15.2889L30.2159 15.1651C30.2992 15.1491 30.3142 15.0362 30.2379 14.999L29.6488 14.7116L29.73 14.0611C29.7406 13.9769 29.6379 13.9278 29.5789 13.9888L29.1235 14.4602L28.53 14.182C28.453 14.146 28.3745 14.2285 28.4143 14.3035Z" fill="white"/>
<path d="M26.4752 13.2283L26.9274 13.7029L26.6248 14.2843C26.5856 14.3596 26.6649 14.4415 26.7414 14.4047L27.3324 14.1211L27.7921 14.5886C27.8515 14.6491 27.9539 14.599 27.9426 14.5149L27.8556 13.8651L28.4422 13.5724C28.5181 13.5345 28.5022 13.4218 28.4187 13.4065L27.7739 13.2884L27.6769 12.6402C27.6643 12.5563 27.5521 12.5366 27.5118 12.6113L27.2004 13.188L26.5538 13.08C26.4699 13.0663 26.4167 13.1669 26.4752 13.2283Z" fill="white"/>
<path d="M24.2462 12.7303L24.8091 13.0663L24.6733 13.7076C24.6557 13.7907 24.754 13.8483 24.8179 13.7924L25.3113 13.361L25.8793 13.6882C25.9529 13.7306 26.038 13.655 26.0046 13.5769L25.7467 12.9742L26.2334 12.5352C26.2964 12.4783 26.2507 12.374 26.1663 12.3817L25.5134 12.4407L25.2462 11.8421C25.2116 11.7646 25.0983 11.7757 25.0794 11.8584L24.9338 12.4975L24.2819 12.5666C24.1978 12.5757 24.1733 12.6868 24.2462 12.7303Z" fill="white"/>
</g>
<defs>
<clipPath id="clip0_11_3112">
<rect width="48" height="32" fill="white"/>
</clipPath>
</defs>
</svg>
