<svg width="48" height="32" viewBox="0 0 48 32" fill="none" xmlns="http://www.w3.org/2000/svg">
<g clip-path="url(#clip0_11_2615)">
<path d="M47.1723 31.7241H0.827623C0.370593 31.7241 0 31.3535 0 30.8964V1.10349C0 0.646456 0.370593 0.275864 0.827623 0.275864H47.1724C47.6294 0.275864 48 0.646456 48 1.10349V30.8964C47.9999 31.3536 47.6293 31.7241 47.1723 31.7241Z" fill="#41479B"/>
<path d="M23.1723 0.275864H21.7349L14.0689 5.29832V0.275864H9.93101V5.29832L2.26509 0.275864H0.827623C0.370593 0.275864 0 0.646456 0 1.10349V1.75992L6.57702 6.06895H0V10.2069H6.57702L0 14.516V15.1723C0 15.6294 0.370593 16 0.827623 16H2.26509L9.93101 10.9775V16H14.0689V10.9775L21.7348 16H23.1722C23.6293 16 23.9999 15.6294 23.9999 15.1723V14.5159L17.4229 10.2069H23.9999V6.06895H17.4228L23.9999 1.75992V1.10349C23.9999 0.646456 23.6295 0.275864 23.1723 0.275864Z" fill="white"/>
<path d="M23.9999 6.89657H13.2413V0.275864H10.7585V6.89657H0V9.37925H10.7585V16H13.2413V9.37925H23.9999V6.89657Z" fill="#FF4B55"/>
<path d="M9.10339 6.06899L0.394405 0.415787C0.162656 0.562505 0 0.808879 0 1.10353V1.14647L7.58333 6.06899H9.10339Z" fill="#FF4B55"/>
<path d="M15.5892 6.06894L23.8742 0.690894C23.7302 0.447238 23.4761 0.275864 23.1725 0.275864H22.9935L14.0691 6.06894H15.5892Z" fill="#FF4B55"/>
<path d="M8.38813 10.2068L0.118927 15.5746C0.26152 15.8242 0.51952 15.9999 0.827582 15.9999H0.983675L9.90819 10.2068H8.38813Z" fill="#FF4B55"/>
<path d="M23.9867 15.2375L16.2368 10.207H14.7169L23.5174 15.9195C23.7812 15.7972 23.9619 15.5408 23.9867 15.2375Z" fill="#FF4B55"/>
<path d="M36.3514 8.04282H30.933C30.933 8.04282 30.933 15.0548 30.933 17.9234C30.933 20.1545 36.3514 22.3856 36.3514 22.3856C36.3514 22.3856 41.7698 20.1545 41.7698 17.9234C41.7698 15.0547 41.7698 8.04282 41.7698 8.04282H36.3514Z" fill="#73AF00"/>
<path d="M33.1794 15.582C33.1794 15.582 33.149 15.4771 33.176 15.3823C33.2031 15.2875 33.1335 15.2006 33.1185 15.1184C33.0779 14.8951 33.2673 14.8375 33.2775 14.638C33.2775 14.638 33.4127 14.7768 33.3621 14.9088C33.3113 15.0408 33.4365 15.061 33.4197 15.1862C33.4028 15.3113 33.264 15.4433 33.2775 15.555L33.1794 15.582Z" fill="#FF4B55"/>
<path d="M35.3096 15.3699C35.1988 15.2316 35.0047 15.3806 34.8626 15.489C34.8428 15.5042 34.826 15.5158 34.8085 15.5286L34.2842 14.7543C34.2989 14.7322 34.3095 14.7071 34.3095 14.6786C34.3095 14.6015 34.2471 14.5389 34.1699 14.5389C34.0926 14.5389 34.0302 14.6014 34.0302 14.6786C34.0302 14.7072 34.0409 14.7323 34.0555 14.7543L33.5146 15.5529H33.1317C33.1317 15.5529 33.1158 15.791 33.5339 15.8199C33.5879 15.9015 33.6647 15.9665 33.7568 16.0032C33.7136 16.0103 33.6787 16.0436 33.6787 16.0889V16.1449C33.6787 16.1484 33.6821 16.1505 33.6824 16.154H34.6566C34.657 16.1506 34.6604 16.1485 34.6604 16.1449V16.0889C34.6604 16.0432 34.6249 16.009 34.5809 16.0028C34.744 15.9371 34.8585 15.7846 34.8778 15.6034C34.893 15.5921 34.9072 15.5818 34.9237 15.5694C35.0265 15.4904 35.1814 15.3702 35.2308 15.4331C35.2431 15.4485 35.2419 15.457 35.2414 15.4601C35.2358 15.4967 35.1577 15.5492 35.095 15.5913C34.9963 15.6576 34.8942 15.7264 34.8861 15.8239C34.8838 15.8517 34.9043 15.8758 34.932 15.8784C34.9334 15.8784 34.935 15.8784 34.9363 15.8784C34.9622 15.8784 34.9843 15.8585 34.9864 15.8324C34.9904 15.783 35.0795 15.7232 35.1511 15.6752C35.2423 15.6136 35.3285 15.5559 35.3409 15.4758C35.3466 15.4389 35.336 15.4035 35.3096 15.3699ZM34.4134 15.5529C34.3845 15.4429 34.3165 15.3371 34.2314 15.2989C34.2764 15.2757 34.3082 15.2301 34.3082 15.176C34.3082 15.0989 34.2458 15.0363 34.1685 15.0363C34.0915 15.0363 34.0289 15.0987 34.0289 15.176C34.0289 15.2301 34.0605 15.2757 34.1056 15.2989C34.0206 15.337 33.9524 15.4428 33.9237 15.5529H33.6363L34.1382 14.8118C34.1486 14.8143 34.1587 14.8182 34.1699 14.8182C34.1812 14.8182 34.1912 14.8143 34.2017 14.8118L34.7036 15.5529H34.4134Z" fill="#FFE15A"/>
<path d="M36.0063 10.8582C36.0063 10.8582 35.5016 10.7089 35.2759 12.4751C35.2759 12.4751 34.0408 14.0455 34.001 14.1384C33.9611 14.2314 33.9977 14.8987 34.1305 14.8456C34.2634 14.7924 34.5024 14.4837 34.4891 14.2579C34.4758 14.032 34.5777 13.9061 34.6783 13.7931C34.8675 13.5806 35.9333 12.6178 35.9732 12.4053C36.0129 12.1929 36.0063 10.8582 36.0063 10.8582Z" fill="#FFC8B9"/>
<path d="M36.7898 10.523C36.7898 10.523 37.57 10.4201 37.7991 11.2169C37.7991 11.2169 37.1583 11.5689 37.238 12.027C37.3177 12.4852 37.2281 14.5769 37.2281 14.5769C36.0029 14.9753 35.3555 14.4773 35.3555 14.4773C35.3555 14.4773 35.6742 13.292 35.6245 12.3259C35.6245 12.3259 35.3356 12.1068 35.4054 11.8578C35.4751 11.6088 35.6544 11.3299 35.7142 11.1208C35.774 10.9116 35.9333 10.5629 36.3218 10.533C36.71 10.503 36.7898 10.523 36.7898 10.523Z" fill="white"/>
<path d="M35.5811 14.2448C35.5811 14.2448 34.9702 16.5557 35.1828 19.703C35.1828 19.703 37.0885 19.9553 38.1245 19.5768C38.1245 19.5768 37.5866 15.8119 37.0686 14.3377L35.5811 14.2448Z" fill="white"/>
<path d="M35.9398 9.16179V10.1191C35.9398 10.2242 36.025 10.3094 36.1301 10.3094H36.1472C36.2215 10.3094 36.2819 10.3697 36.2819 10.4441V10.6729C36.2819 10.6729 36.4102 11.008 36.9092 10.6159V9.16891L35.9398 9.16179Z" fill="#FFC8B9"/>
<path d="M35.8271 8.96577C35.7961 9.04312 35.8288 9.25293 36.0195 9.23802C36.2579 9.21936 36.5458 9.21805 36.6105 9.48205C36.6707 9.72739 36.6305 10.3402 36.8961 10.3802C37.1618 10.42 37.4629 10.2435 37.4572 9.71614C37.4522 9.25133 37.1484 8.69521 36.7234 8.77987C36.7234 8.77987 36.3465 8.51587 36.1258 8.81306C36.1259 8.81306 35.8935 8.79984 35.8271 8.96577Z" fill="#8C5A28"/>
<path d="M37.799 11.2169C37.799 11.2169 38.0709 13.0079 38.0579 13.1558C38.0447 13.3085 37.0951 14.776 37.1482 14.9355C37.2014 15.0948 37.2544 15.3074 36.9623 15.387C36.6702 15.4667 36.7001 15.0002 36.7797 14.7612C36.8594 14.5221 37.5267 13.2489 37.5267 13.1028C37.5267 12.9568 37.1481 12.0138 37.2411 11.6419C37.3342 11.2699 37.799 11.2169 37.799 11.2169Z" fill="#FFC8B9"/>
<path d="M31.9841 9.93078C31.9841 9.93078 31.9537 9.82588 31.9807 9.7311C32.0078 9.63632 31.9382 9.54941 31.9233 9.46719C31.8827 9.24388 32.0721 9.18632 32.0823 8.98682C32.0823 8.98682 32.2176 9.12557 32.1669 9.25757C32.1162 9.38957 32.2414 9.40982 32.2245 9.53497C32.2076 9.66013 32.0688 9.79213 32.0824 9.90378L31.9841 9.93078Z" fill="#FF4B55"/>
<path d="M34.1144 9.71872C34.0037 9.58035 33.8095 9.72941 33.6674 9.83779C33.6476 9.85297 33.6308 9.8646 33.6133 9.87735L33.089 9.10307C33.1038 9.08094 33.1144 9.05591 33.1144 9.02741C33.1144 8.95026 33.0519 8.88773 32.9747 8.88773C32.8974 8.88773 32.835 8.95016 32.835 9.02741C32.835 9.05601 32.8457 9.08104 32.8603 9.10307L32.3194 9.90172H31.9365C31.9365 9.90172 31.9206 10.1398 32.3388 10.1686C32.3927 10.2503 32.4695 10.3153 32.5616 10.352C32.5184 10.359 32.4835 10.3924 32.4835 10.4377V10.4937C32.4835 10.4972 32.4869 10.4993 32.4873 10.5028H33.4614C33.4618 10.4994 33.4652 10.4973 33.4652 10.4937V10.4377C33.4652 10.3919 33.4297 10.3578 33.3858 10.3515C33.5488 10.2859 33.6633 10.1334 33.6827 9.95216C33.6978 9.94091 33.712 9.9306 33.7285 9.91813C33.8314 9.83919 33.9862 9.719 34.0356 9.78191C34.0479 9.79729 34.0467 9.80582 34.0462 9.80891C34.0406 9.84547 33.9625 9.89797 33.8998 9.94007C33.8011 10.0063 33.699 10.0752 33.6909 10.1727C33.6886 10.2005 33.7091 10.2246 33.7368 10.2271C33.7383 10.2271 33.7399 10.2271 33.7411 10.2271C33.767 10.2271 33.7891 10.2072 33.7912 10.1811C33.7953 10.1317 33.8843 10.0719 33.9559 10.0239C34.0472 9.96229 34.1333 9.90454 34.1457 9.82447C34.1514 9.78763 34.1408 9.75219 34.1144 9.71872ZM33.2182 9.90172C33.1894 9.79166 33.1213 9.68591 33.0363 9.64766C33.0813 9.62451 33.113 9.57885 33.113 9.52476C33.113 9.44769 33.0506 9.38507 32.9734 9.38507C32.8963 9.38507 32.8337 9.44751 32.8337 9.52476C32.8337 9.57885 32.8654 9.62451 32.9104 9.64766C32.8254 9.68582 32.7573 9.79157 32.7285 9.90172H32.4411L32.943 9.16063C32.9534 9.16307 32.9634 9.16701 32.9748 9.16701C32.986 9.16701 32.996 9.16307 33.0065 9.16063L33.5084 9.90172H33.2182Z" fill="#FFE15A"/>
<path d="M31.9841 11.8146C31.9841 11.8146 31.9537 11.7097 31.9807 11.6149C32.0078 11.5201 31.9382 11.4332 31.9233 11.351C31.8827 11.1277 32.0722 11.0701 32.0823 10.8706C32.0823 10.8706 32.2176 11.0094 32.1669 11.1414C32.1161 11.2734 32.2414 11.2936 32.2245 11.4188C32.2076 11.5439 32.0688 11.6759 32.0824 11.7876L31.9841 11.8146Z" fill="#FF4B55"/>
<path d="M34.1144 11.6025C34.0037 11.4642 33.8095 11.6132 33.6674 11.7216C33.6476 11.7368 33.6308 11.7484 33.6133 11.7612L33.089 10.9869C33.1038 10.9648 33.1144 10.9397 33.1144 10.9112C33.1144 10.8341 33.0519 10.7715 32.9747 10.7715C32.8974 10.7715 32.835 10.834 32.835 10.9112C32.835 10.9398 32.8457 10.9649 32.8603 10.9869L32.3194 11.7855H31.9365C31.9365 11.7855 31.9206 12.0236 32.3388 12.0525C32.3927 12.1341 32.4695 12.1991 32.5616 12.2358C32.5184 12.2429 32.4835 12.2762 32.4835 12.3215V12.3775C32.4835 12.381 32.4869 12.3831 32.4873 12.3866H33.4614C33.4618 12.3832 33.4652 12.3811 33.4652 12.3775V12.3215C33.4652 12.2758 33.4297 12.2416 33.3858 12.2354C33.5488 12.1697 33.6633 12.0172 33.6827 11.836C33.6978 11.8247 33.712 11.8144 33.7285 11.802C33.8314 11.723 33.9862 11.6028 34.0356 11.6657C34.0479 11.6811 34.0467 11.6896 34.0462 11.6927C34.0406 11.7293 33.9625 11.7818 33.8998 11.8239C33.8011 11.8902 33.699 11.959 33.6909 12.0565C33.6886 12.0843 33.7091 12.1084 33.7368 12.111C33.7383 12.111 33.7399 12.111 33.7411 12.111C33.767 12.111 33.7891 12.0911 33.7912 12.065C33.7953 12.0156 33.8843 11.9558 33.9559 11.9078C34.0472 11.8462 34.1333 11.7885 34.1457 11.7084C34.1514 11.6713 34.1408 11.6359 34.1144 11.6025ZM33.2182 11.7855C33.1894 11.6754 33.1213 11.5696 33.0363 11.5314C33.0813 11.5082 33.113 11.4626 33.113 11.4085C33.113 11.3314 33.0506 11.2688 32.9734 11.2688C32.8963 11.2688 32.8337 11.3312 32.8337 11.4085C32.8337 11.4626 32.8654 11.5082 32.9104 11.5314C32.8254 11.5695 32.7573 11.6753 32.7285 11.7855H32.4411L32.943 11.0444C32.9534 11.0468 32.9634 11.0507 32.9748 11.0507C32.986 11.0507 32.996 11.0468 33.0065 11.0444L33.5084 11.7855H33.2182Z" fill="#FFE15A"/>
<path d="M31.9841 13.6983C31.9841 13.6983 31.9537 13.5934 31.9807 13.4986C32.0078 13.4038 31.9382 13.3169 31.9233 13.2347C31.8827 13.0114 32.0721 12.9538 32.0823 12.7543C32.0823 12.7543 32.2176 12.8931 32.1669 13.0251C32.1162 13.1571 32.2414 13.1773 32.2245 13.3025C32.2076 13.4276 32.0688 13.5596 32.0824 13.6713L31.9841 13.6983Z" fill="#FF4B55"/>
<path d="M34.1144 13.4862C34.0037 13.3479 33.8095 13.4969 33.6674 13.6053C33.6476 13.6205 33.6308 13.6321 33.6133 13.6449L33.089 12.8706C33.1038 12.8485 33.1144 12.8234 33.1144 12.7949C33.1144 12.7178 33.0519 12.6552 32.9747 12.6552C32.8974 12.6552 32.835 12.7177 32.835 12.7949C32.835 12.8235 32.8457 12.8486 32.8603 12.8706L32.3194 13.6692H31.9365C31.9365 13.6692 31.9206 13.9073 32.3388 13.9361C32.3927 14.0178 32.4695 14.0828 32.5616 14.1195C32.5184 14.1266 32.4835 14.1599 32.4835 14.2052V14.2612C32.4835 14.2647 32.4869 14.2668 32.4873 14.2703H33.4614C33.4618 14.2669 33.4652 14.2648 33.4652 14.2612V14.2052C33.4652 14.1595 33.4297 14.1253 33.3858 14.1191C33.5488 14.0534 33.6633 13.9009 33.6827 13.7197C33.6978 13.7084 33.712 13.6981 33.7285 13.6856C33.8314 13.6067 33.9862 13.4865 34.0356 13.5494C34.0479 13.5648 34.0467 13.5733 34.0462 13.5764C34.0406 13.613 33.9625 13.6655 33.8998 13.7076C33.8011 13.7739 33.699 13.8427 33.6909 13.9402C33.6886 13.968 33.7091 13.9921 33.7368 13.9946C33.7383 13.9946 33.7399 13.9946 33.7411 13.9946C33.767 13.9946 33.7891 13.9747 33.7912 13.9486C33.7953 13.8992 33.8843 13.8394 33.9559 13.7914C34.0472 13.7298 34.1333 13.6721 34.1457 13.592C34.1514 13.5551 34.1408 13.5197 34.1144 13.4862ZM33.2182 13.6691C33.1894 13.5591 33.1213 13.4533 33.0363 13.4151C33.0813 13.3919 33.113 13.3463 33.113 13.2922C33.113 13.2151 33.0506 13.1525 32.9734 13.1525C32.8963 13.1525 32.8337 13.2149 32.8337 13.2922C32.8337 13.3463 32.8654 13.3919 32.9104 13.4151C32.8254 13.4532 32.7573 13.559 32.7285 13.6691H32.4411L32.943 12.9281C32.9534 12.9305 32.9634 12.9344 32.9748 12.9344C32.986 12.9344 32.996 12.9305 33.0065 12.9281L33.5084 13.6691H33.2182Z" fill="#FFE15A"/>
<path d="M31.9841 17.4658C31.9841 17.4658 31.9537 17.3609 31.9807 17.2661C32.0078 17.1713 31.9382 17.0844 31.9233 17.0022C31.8827 16.7789 32.0721 16.7213 32.0823 16.5218C32.0823 16.5218 32.2176 16.6606 32.1669 16.7926C32.1163 16.9246 32.2414 16.9448 32.2245 17.07C32.2076 17.1951 32.0688 17.3271 32.0824 17.4388L31.9841 17.4658Z" fill="#FF4B55"/>
<path d="M34.1144 17.2538C34.0037 17.1154 33.8095 17.2644 33.6674 17.3728C33.6476 17.388 33.6308 17.3996 33.6133 17.4124L33.089 16.6381C33.1038 16.616 33.1144 16.5909 33.1144 16.5624C33.1144 16.4853 33.0519 16.4228 32.9747 16.4228C32.8974 16.4228 32.835 16.4853 32.835 16.5624C32.835 16.591 32.8457 16.6161 32.8603 16.6381L32.3194 17.4368H31.9365C31.9365 17.4368 31.9206 17.6748 32.3388 17.7037C32.3927 17.7853 32.4695 17.8503 32.5616 17.887C32.5184 17.8941 32.4835 17.9274 32.4835 17.9727V18.0287C32.4835 18.0323 32.4869 18.0343 32.4873 18.0378H33.4614C33.4618 18.0344 33.4652 18.0324 33.4652 18.0287V17.9727C33.4652 17.927 33.4297 17.8929 33.3858 17.8866C33.5488 17.8209 33.6633 17.6684 33.6827 17.4872C33.6978 17.4759 33.712 17.4657 33.7285 17.4532C33.8314 17.3742 33.9862 17.254 34.0356 17.3169C34.0479 17.3323 34.0467 17.3409 34.0462 17.3439C34.0406 17.3805 33.9625 17.433 33.8998 17.4751C33.8011 17.5414 33.699 17.6102 33.6909 17.7077C33.6886 17.7355 33.7091 17.7596 33.7368 17.7623C33.7383 17.7623 33.7399 17.7623 33.7411 17.7623C33.767 17.7623 33.7891 17.7423 33.7912 17.7162C33.7953 17.6668 33.8843 17.607 33.9559 17.559C34.0472 17.4974 34.1333 17.4397 34.1457 17.3596C34.1514 17.3226 34.1408 17.2871 34.1144 17.2538ZM33.2182 17.4368C33.1894 17.3267 33.1213 17.2209 33.0363 17.1827C33.0813 17.1595 33.113 17.1139 33.113 17.0598C33.113 16.9827 33.0506 16.9201 32.9734 16.9201C32.8963 16.9201 32.8337 16.9825 32.8337 17.0598C32.8337 17.1139 32.8654 17.1595 32.9104 17.1827C32.8254 17.2209 32.7573 17.3266 32.7285 17.4368H32.4411L32.943 16.6957C32.9534 16.6981 32.9634 16.702 32.9748 16.702C32.986 16.702 32.996 16.6981 33.0065 16.6957L33.5084 17.4368H33.2182Z" fill="#FFE15A"/>
<path d="M31.9841 19.3496C31.9841 19.3496 31.9537 19.2447 31.9807 19.15C32.0078 19.0552 31.9382 18.9683 31.9233 18.886C31.8827 18.6627 32.0722 18.6052 32.0823 18.4057C32.0823 18.4057 32.2176 18.5444 32.1669 18.6764C32.1161 18.8084 32.2414 18.8287 32.2245 18.9538C32.2075 19.079 32.0688 19.211 32.0824 19.3226L31.9841 19.3496Z" fill="#FF4B55"/>
<path d="M34.1144 19.1375C34.0037 18.9991 33.8095 19.1481 33.6674 19.2565C33.6476 19.2717 33.6308 19.2833 33.6133 19.296L33.089 18.5218C33.1038 18.4997 33.1144 18.4746 33.1144 18.4461C33.1144 18.369 33.0519 18.3065 32.9747 18.3065C32.8974 18.3065 32.835 18.369 32.835 18.4461C32.835 18.4747 32.8457 18.4998 32.8603 18.5218L32.3194 19.3205H31.9365C31.9365 19.3205 31.9206 19.5585 32.3388 19.5874C32.3927 19.669 32.4695 19.734 32.5616 19.7707C32.5184 19.7778 32.4835 19.8111 32.4835 19.8564V19.9124C32.4835 19.916 32.4869 19.918 32.4873 19.9215H33.4614C33.4618 19.9181 33.4652 19.916 33.4652 19.9124V19.8564C33.4652 19.8107 33.4297 19.7765 33.3858 19.7703C33.5488 19.7046 33.6633 19.5521 33.6827 19.3709C33.6978 19.3596 33.712 19.3493 33.7285 19.3369C33.8314 19.2579 33.9862 19.1377 34.0356 19.2006C34.0479 19.216 34.0467 19.2245 34.0462 19.2276C34.0406 19.2642 33.9625 19.3167 33.8998 19.3588C33.8011 19.4251 33.699 19.4939 33.6909 19.5914C33.6886 19.6192 33.7091 19.6433 33.7368 19.646C33.7383 19.646 33.7399 19.646 33.7411 19.646C33.767 19.646 33.7891 19.626 33.7912 19.5999C33.7953 19.5505 33.8843 19.4907 33.9559 19.4427C34.0472 19.3811 34.1333 19.3234 34.1457 19.2433C34.1514 19.2063 34.1408 19.1709 34.1144 19.1375ZM33.2182 19.3204C33.1894 19.2103 33.1213 19.1046 33.0363 19.0663C33.0813 19.0431 33.113 18.9975 33.113 18.9434C33.113 18.8663 33.0506 18.8037 32.9734 18.8037C32.8963 18.8037 32.8337 18.8661 32.8337 18.9434C32.8337 18.9975 32.8654 19.0431 32.9104 19.0663C32.8254 19.1045 32.7573 19.2102 32.7285 19.3204H32.4411L32.943 18.5793C32.9534 18.5817 32.9634 18.5856 32.9748 18.5856C32.986 18.5856 32.996 18.5817 33.0065 18.5793L33.5084 19.3204H33.2182Z" fill="#FFE15A"/>
<path d="M38.5378 9.93078C38.5378 9.93078 38.5074 9.82588 38.5344 9.7311C38.5615 9.63632 38.4918 9.54941 38.4769 9.46719C38.4364 9.24388 38.6258 9.18632 38.6359 8.98682C38.6359 8.98682 38.7712 9.12557 38.7206 9.25757C38.6698 9.38957 38.795 9.40982 38.7782 9.53497C38.7613 9.66013 38.6224 9.79213 38.636 9.90378L38.5378 9.93078Z" fill="#FF4B55"/>
<path d="M40.6684 9.71872C40.5577 9.58035 40.3635 9.72941 40.2214 9.83779C40.2016 9.85297 40.1848 9.8646 40.1673 9.87735L39.643 9.10307C39.6577 9.08094 39.6683 9.05591 39.6683 9.02741C39.6683 8.95026 39.6059 8.88773 39.5287 8.88773C39.4514 8.88773 39.389 8.95016 39.389 9.02741C39.389 9.05601 39.3997 9.08104 39.4143 9.10307L38.8734 9.90172H38.4905C38.4905 9.90172 38.4746 10.1398 38.8927 10.1686C38.9467 10.2503 39.0235 10.3153 39.1156 10.352C39.0724 10.359 39.0375 10.3924 39.0375 10.4377V10.4937C39.0375 10.4972 39.0409 10.4993 39.0412 10.5028H40.0154C40.0158 10.4994 40.0192 10.4973 40.0192 10.4937V10.4377C40.0192 10.3919 39.9837 10.3578 39.9397 10.3515C40.1028 10.2859 40.2173 10.1334 40.2367 9.95216C40.2518 9.94091 40.266 9.9306 40.2825 9.91813C40.3853 9.83919 40.5402 9.719 40.5896 9.78191C40.6019 9.79729 40.6007 9.80582 40.6002 9.80891C40.5946 9.84547 40.5165 9.89797 40.4538 9.94007C40.3551 10.0063 40.253 10.0752 40.2449 10.1727C40.2426 10.2005 40.2631 10.2246 40.2908 10.2271C40.2922 10.2271 40.2938 10.2271 40.2951 10.2271C40.321 10.2271 40.3431 10.2072 40.3452 10.1811C40.3492 10.1317 40.4383 10.0719 40.5099 10.0239C40.6012 9.96229 40.6873 9.90454 40.6997 9.82447C40.7054 9.78763 40.695 9.75219 40.6684 9.71872ZM39.7723 9.90172C39.7434 9.79166 39.6754 9.68591 39.5903 9.64766C39.6353 9.62451 39.6671 9.57885 39.6671 9.52476C39.6671 9.44769 39.6046 9.38507 39.5274 9.38507C39.4504 9.38507 39.3877 9.44751 39.3877 9.52476C39.3877 9.57885 39.4194 9.62451 39.4645 9.64766C39.3795 9.68582 39.3113 9.79157 39.2826 9.90172H38.9952L39.4971 9.16063C39.5075 9.16307 39.5175 9.16701 39.5288 9.16701C39.5401 9.16701 39.5501 9.16307 39.5606 9.16063L40.0625 9.90172H39.7723Z" fill="#FFE15A"/>
<path d="M38.5378 11.8146C38.5378 11.8146 38.5074 11.7097 38.5344 11.6149C38.5615 11.5201 38.4918 11.4332 38.4769 11.351C38.4364 11.1277 38.6258 11.0701 38.6359 10.8706C38.6359 10.8706 38.7712 11.0094 38.7206 11.1414C38.6698 11.2734 38.795 11.2936 38.7782 11.4188C38.7613 11.5439 38.6224 11.6759 38.636 11.7876L38.5378 11.8146Z" fill="#FF4B55"/>
<path d="M40.6684 11.6025C40.5577 11.4642 40.3635 11.6132 40.2214 11.7216C40.2016 11.7368 40.1848 11.7484 40.1673 11.7612L39.643 10.9869C39.6577 10.9648 39.6683 10.9397 39.6683 10.9112C39.6683 10.8341 39.6059 10.7715 39.5287 10.7715C39.4514 10.7715 39.389 10.834 39.389 10.9112C39.389 10.9398 39.3997 10.9649 39.4143 10.9869L38.8734 11.7855H38.4905C38.4905 11.7855 38.4746 12.0236 38.8927 12.0525C38.9467 12.1341 39.0235 12.1991 39.1156 12.2358C39.0724 12.2429 39.0375 12.2762 39.0375 12.3215V12.3775C39.0375 12.381 39.0409 12.3831 39.0412 12.3866H40.0154C40.0158 12.3832 40.0192 12.3811 40.0192 12.3775V12.3215C40.0192 12.2758 39.9837 12.2416 39.9397 12.2354C40.1028 12.1697 40.2173 12.0172 40.2367 11.836C40.2518 11.8247 40.266 11.8144 40.2825 11.802C40.3853 11.723 40.5402 11.6028 40.5896 11.6657C40.6019 11.6811 40.6007 11.6896 40.6002 11.6927C40.5946 11.7293 40.5165 11.7818 40.4538 11.8239C40.3551 11.8902 40.253 11.959 40.2449 12.0565C40.2426 12.0843 40.2631 12.1084 40.2908 12.111C40.2922 12.111 40.2938 12.111 40.2951 12.111C40.321 12.111 40.3431 12.0911 40.3452 12.065C40.3492 12.0156 40.4383 11.9558 40.5099 11.9078C40.6012 11.8462 40.6873 11.7885 40.6997 11.7084C40.7054 11.6713 40.695 11.6359 40.6684 11.6025ZM39.7723 11.7855C39.7434 11.6754 39.6754 11.5696 39.5903 11.5314C39.6353 11.5082 39.6671 11.4626 39.6671 11.4085C39.6671 11.3314 39.6046 11.2688 39.5274 11.2688C39.4504 11.2688 39.3877 11.3312 39.3877 11.4085C39.3877 11.4626 39.4194 11.5082 39.4645 11.5314C39.3795 11.5695 39.3113 11.6753 39.2826 11.7855H38.9952L39.4971 11.0444C39.5075 11.0468 39.5175 11.0507 39.5288 11.0507C39.5401 11.0507 39.5501 11.0468 39.5606 11.0444L40.0625 11.7855H39.7723Z" fill="#FFE15A"/>
<path d="M38.5378 13.6983C38.5378 13.6983 38.5074 13.5934 38.5344 13.4986C38.5615 13.4038 38.4918 13.3169 38.4769 13.2347C38.4364 13.0114 38.6258 12.9538 38.6359 12.7543C38.6359 12.7543 38.7712 12.8931 38.7206 13.0251C38.6698 13.1571 38.795 13.1773 38.7782 13.3025C38.7613 13.4276 38.6224 13.5596 38.636 13.6713L38.5378 13.6983Z" fill="#FF4B55"/>
<path d="M40.6684 13.4862C40.5577 13.3479 40.3635 13.4969 40.2214 13.6053C40.2016 13.6205 40.1848 13.6321 40.1673 13.6449L39.643 12.8706C39.6577 12.8485 39.6683 12.8234 39.6683 12.7949C39.6683 12.7178 39.6059 12.6552 39.5287 12.6552C39.4514 12.6552 39.389 12.7177 39.389 12.7949C39.389 12.8235 39.3997 12.8486 39.4143 12.8706L38.8734 13.6692H38.4905C38.4905 13.6692 38.4746 13.9073 38.8927 13.9361C38.9467 14.0178 39.0235 14.0828 39.1156 14.1195C39.0724 14.1266 39.0375 14.1599 39.0375 14.2052V14.2612C39.0375 14.2647 39.0409 14.2668 39.0412 14.2703H40.0154C40.0158 14.2669 40.0192 14.2648 40.0192 14.2612V14.2052C40.0192 14.1595 39.9837 14.1253 39.9397 14.1191C40.1028 14.0534 40.2173 13.9009 40.2367 13.7197C40.2518 13.7084 40.266 13.6981 40.2825 13.6856C40.3853 13.6067 40.5402 13.4865 40.5896 13.5494C40.6019 13.5648 40.6007 13.5733 40.6002 13.5764C40.5946 13.613 40.5165 13.6655 40.4538 13.7076C40.3551 13.7739 40.253 13.8427 40.2449 13.9402C40.2426 13.968 40.2631 13.9921 40.2908 13.9946C40.2922 13.9946 40.2938 13.9946 40.2951 13.9946C40.321 13.9946 40.3431 13.9747 40.3452 13.9486C40.3492 13.8992 40.4383 13.8394 40.5099 13.7914C40.6012 13.7298 40.6873 13.6721 40.6997 13.592C40.7054 13.5551 40.695 13.5197 40.6684 13.4862ZM39.7723 13.6691C39.7434 13.5591 39.6754 13.4533 39.5903 13.4151C39.6353 13.3919 39.6671 13.3463 39.6671 13.2922C39.6671 13.2151 39.6046 13.1525 39.5274 13.1525C39.4504 13.1525 39.3877 13.2149 39.3877 13.2922C39.3877 13.3463 39.4194 13.3919 39.4645 13.4151C39.3795 13.4532 39.3113 13.559 39.2826 13.6691H38.9952L39.4971 12.9281C39.5075 12.9305 39.5175 12.9344 39.5288 12.9344C39.5401 12.9344 39.5501 12.9305 39.5606 12.9281L40.0625 13.6691H39.7723Z" fill="#FFE15A"/>
<path d="M38.5378 15.582C38.5378 15.582 38.5074 15.4771 38.5344 15.3823C38.5615 15.2875 38.4918 15.2006 38.4769 15.1184C38.4364 14.8951 38.6258 14.8375 38.6359 14.638C38.6359 14.638 38.7712 14.7768 38.7206 14.9088C38.6698 15.0408 38.795 15.061 38.7782 15.1862C38.7613 15.3113 38.6224 15.4433 38.636 15.555L38.5378 15.582Z" fill="#FF4B55"/>
<path d="M40.6684 15.3699C40.5577 15.2316 40.3635 15.3806 40.2214 15.489C40.2016 15.5042 40.1848 15.5158 40.1673 15.5286L39.643 14.7543C39.6577 14.7322 39.6683 14.7071 39.6683 14.6786C39.6683 14.6015 39.6059 14.5389 39.5287 14.5389C39.4514 14.5389 39.389 14.6014 39.389 14.6786C39.389 14.7072 39.3997 14.7323 39.4143 14.7543L38.8734 15.5529H38.4905C38.4905 15.5529 38.4746 15.791 38.8927 15.8199C38.9467 15.9015 39.0235 15.9665 39.1156 16.0032C39.0724 16.0103 39.0375 16.0436 39.0375 16.0889V16.1449C39.0375 16.1484 39.0409 16.1505 39.0412 16.154H40.0154C40.0158 16.1506 40.0192 16.1485 40.0192 16.1449V16.0889C40.0192 16.0432 39.9837 16.009 39.9397 16.0028C40.1028 15.9371 40.2173 15.7846 40.2367 15.6034C40.2518 15.5921 40.266 15.5818 40.2825 15.5694C40.3853 15.4904 40.5402 15.3702 40.5896 15.4331C40.6019 15.4485 40.6007 15.457 40.6002 15.4601C40.5946 15.4967 40.5165 15.5492 40.4538 15.5913C40.3551 15.6576 40.253 15.7264 40.2449 15.8239C40.2426 15.8517 40.2631 15.8758 40.2908 15.8784C40.2922 15.8784 40.2938 15.8784 40.2951 15.8784C40.321 15.8784 40.3431 15.8585 40.3452 15.8324C40.3492 15.783 40.4383 15.7232 40.5099 15.6752C40.6012 15.6136 40.6873 15.5559 40.6997 15.4758C40.7054 15.4389 40.695 15.4035 40.6684 15.3699ZM39.7723 15.5529C39.7434 15.4429 39.6754 15.3371 39.5903 15.2989C39.6353 15.2757 39.6671 15.2301 39.6671 15.176C39.6671 15.0989 39.6046 15.0363 39.5274 15.0363C39.4504 15.0363 39.3877 15.0987 39.3877 15.176C39.3877 15.2301 39.4194 15.2757 39.4645 15.2989C39.3795 15.337 39.3113 15.4428 39.2826 15.5529H38.9952L39.4971 14.8118C39.5075 14.8143 39.5175 14.8182 39.5288 14.8182C39.5401 14.8182 39.5501 14.8143 39.5606 14.8118L40.0625 15.5529H39.7723Z" fill="#FFE15A"/>
<path d="M38.5378 17.4658C38.5378 17.4658 38.5074 17.3609 38.5344 17.2661C38.5615 17.1713 38.4918 17.0844 38.4769 17.0022C38.4364 16.7789 38.6258 16.7213 38.6359 16.5218C38.6359 16.5218 38.7712 16.6606 38.7206 16.7926C38.6698 16.9246 38.795 16.9448 38.7782 17.07C38.7613 17.1951 38.6224 17.3271 38.636 17.4388L38.5378 17.4658Z" fill="#FF4B55"/>
<path d="M40.6684 17.2538C40.5577 17.1154 40.3635 17.2644 40.2214 17.3728C40.2016 17.388 40.1848 17.3996 40.1673 17.4124L39.643 16.6381C39.6577 16.616 39.6683 16.5909 39.6683 16.5624C39.6683 16.4853 39.6059 16.4228 39.5287 16.4228C39.4514 16.4228 39.389 16.4853 39.389 16.5624C39.389 16.591 39.3997 16.6161 39.4143 16.6381L38.8734 17.4368H38.4905C38.4905 17.4368 38.4746 17.6748 38.8927 17.7037C38.9467 17.7853 39.0235 17.8503 39.1156 17.887C39.0724 17.8941 39.0375 17.9274 39.0375 17.9727V18.0287C39.0375 18.0323 39.0409 18.0343 39.0412 18.0378H40.0154C40.0158 18.0344 40.0192 18.0324 40.0192 18.0287V17.9727C40.0192 17.927 39.9837 17.8929 39.9397 17.8866C40.1028 17.8209 40.2173 17.6684 40.2367 17.4872C40.2518 17.4759 40.266 17.4657 40.2825 17.4532C40.3853 17.3742 40.5402 17.254 40.5896 17.3169C40.6019 17.3323 40.6007 17.3409 40.6002 17.3439C40.5946 17.3805 40.5165 17.433 40.4538 17.4751C40.3551 17.5414 40.253 17.6102 40.2449 17.7077C40.2426 17.7355 40.2631 17.7596 40.2908 17.7623C40.2922 17.7623 40.2938 17.7623 40.2951 17.7623C40.321 17.7623 40.3431 17.7423 40.3452 17.7162C40.3492 17.6668 40.4383 17.607 40.5099 17.559C40.6012 17.4974 40.6873 17.4397 40.6997 17.3596C40.7054 17.3226 40.695 17.2871 40.6684 17.2538ZM39.7723 17.4368C39.7434 17.3267 39.6754 17.2209 39.5903 17.1827C39.6353 17.1595 39.6671 17.1139 39.6671 17.0598C39.6671 16.9827 39.6046 16.9201 39.5274 16.9201C39.4504 16.9201 39.3877 16.9825 39.3877 17.0598C39.3877 17.1139 39.4194 17.1595 39.4645 17.1827C39.3795 17.2209 39.3113 17.3266 39.2826 17.4368H38.9952L39.4971 16.6957C39.5075 16.6981 39.5175 16.702 39.5288 16.702C39.5401 16.702 39.5501 16.6981 39.5606 16.6957L40.0625 17.4368H39.7723Z" fill="#FFE15A"/>
<path d="M38.5378 19.3496C38.5378 19.3496 38.5074 19.2447 38.5344 19.15C38.5615 19.0552 38.4918 18.9683 38.4769 18.886C38.4364 18.6627 38.6258 18.6052 38.6359 18.4057C38.6359 18.4057 38.7712 18.5444 38.7206 18.6764C38.6698 18.8084 38.795 18.8287 38.7782 18.9538C38.7612 19.079 38.6224 19.211 38.636 19.3226L38.5378 19.3496Z" fill="#FF4B55"/>
<path d="M40.6684 19.1375C40.5577 18.9991 40.3635 19.1481 40.2214 19.2565C40.2016 19.2717 40.1848 19.2833 40.1673 19.296L39.643 18.5218C39.6577 18.4997 39.6683 18.4746 39.6683 18.4461C39.6683 18.369 39.6059 18.3065 39.5287 18.3065C39.4514 18.3065 39.389 18.369 39.389 18.4461C39.389 18.4747 39.3997 18.4998 39.4143 18.5218L38.8734 19.3205H38.4905C38.4905 19.3205 38.4746 19.5585 38.8927 19.5874C38.9467 19.669 39.0235 19.734 39.1156 19.7707C39.0724 19.7778 39.0375 19.8111 39.0375 19.8564V19.9124C39.0375 19.916 39.0409 19.918 39.0412 19.9215H40.0154C40.0158 19.9181 40.0192 19.916 40.0192 19.9124V19.8564C40.0192 19.8107 39.9837 19.7765 39.9397 19.7703C40.1028 19.7046 40.2173 19.5521 40.2367 19.3709C40.2518 19.3596 40.266 19.3493 40.2825 19.3369C40.3853 19.2579 40.5402 19.1377 40.5896 19.2006C40.6019 19.216 40.6007 19.2245 40.6002 19.2276C40.5946 19.2642 40.5165 19.3167 40.4538 19.3588C40.3551 19.4251 40.253 19.4939 40.2449 19.5914C40.2426 19.6192 40.2631 19.6433 40.2908 19.646C40.2922 19.646 40.2938 19.646 40.2951 19.646C40.321 19.646 40.3431 19.626 40.3452 19.5999C40.3492 19.5505 40.4383 19.4907 40.5099 19.4427C40.6012 19.3811 40.6873 19.3234 40.6997 19.2433C40.7054 19.2063 40.695 19.1709 40.6684 19.1375ZM39.7723 19.3204C39.7434 19.2103 39.6754 19.1046 39.5903 19.0663C39.6353 19.0431 39.6671 18.9975 39.6671 18.9434C39.6671 18.8663 39.6046 18.8037 39.5274 18.8037C39.4504 18.8037 39.3877 18.8661 39.3877 18.9434C39.3877 18.9975 39.4194 19.0431 39.4645 19.0663C39.3795 19.1045 39.3113 19.2102 39.2826 19.3204H38.9952L39.4971 18.5793C39.5075 18.5817 39.5175 18.5856 39.5288 18.5856C39.5401 18.5856 39.5501 18.5817 39.5606 18.5793L40.0625 19.3204H39.7723Z" fill="#FFE15A"/>
<path d="M41.7701 8.04284C41.7701 8.04284 41.7701 15.0549 41.7701 17.9234C41.7701 20.1545 36.3517 22.3856 36.3517 22.3856C36.3517 22.3856 30.9334 20.1546 30.9334 17.9234C30.9334 15.0548 30.9334 8.04284 30.9334 8.04284H36.3517H41.7701ZM42.0889 7.72409H41.7701H36.3517H30.9334H30.6146V8.04284V17.9234C30.6146 18.9667 31.577 20.0901 33.475 21.2624C34.8361 22.1031 36.1741 22.6572 36.2303 22.6804L36.3516 22.7303L36.473 22.6804C36.5292 22.6572 37.8672 22.1031 39.2283 21.2624C41.1263 20.0901 42.0887 18.9667 42.0887 17.9234V8.04284L42.0889 7.72409Z" fill="white"/>
<path d="M42.1348 19.6808L43.5796 20.6773C41.9014 22.8301 39.2865 24.2184 36.3515 24.2184C33.4167 24.2184 30.8017 22.83 29.1234 20.6773L30.5683 19.6808C31.9275 21.3766 34.0142 22.4654 36.3514 22.4654C38.6889 22.4653 40.7756 21.3765 42.1348 19.6808ZM42.0716 19.25L41.8861 19.4813C40.5286 21.1751 38.5113 22.1466 36.3517 22.1466C34.1921 22.1466 32.1748 21.1751 30.8173 19.4813L30.6319 19.25L30.3877 19.4183L28.9429 20.4148L28.6647 20.6066L28.8725 20.8731C30.6877 23.2014 33.4139 24.537 36.3518 24.537C39.2897 24.537 42.016 23.2016 43.8312 20.8731L44.0389 20.6066L43.7608 20.4148L42.3159 19.4183L42.0716 19.25Z" fill="white"/>
<path d="M36.3516 24.2184C39.2865 24.2184 41.9014 22.8299 43.5797 20.6773L42.1349 19.6808C40.7757 21.3766 38.689 22.4654 36.3517 22.4654C34.0145 22.4654 31.9278 21.3766 30.5686 19.6808L29.1237 20.6773C30.8018 22.83 33.4168 24.2184 36.3516 24.2184Z" fill="#FFE15A"/>
</g>
<defs>
<clipPath id="clip0_11_2615">
<rect width="48" height="32" fill="white"/>
</clipPath>
</defs>
</svg>
