<svg width="48" height="32" viewBox="0 0 48 32" fill="none" xmlns="http://www.w3.org/2000/svg">
<g clip-path="url(#clip0_11_4289)">
<path d="M47.1723 31.7242H0.827623C0.370593 31.7242 0 31.3536 0 30.8966V1.10362C0 0.646594 0.370593 0.276001 0.827623 0.276001H47.1724C47.6294 0.276001 48 0.646594 48 1.10362V30.8966C47.9999 31.3537 47.6293 31.7242 47.1723 31.7242Z" fill="white"/>
<path d="M37.4115 19.1882L37.7136 20.2477L38.7633 17.1281L35.8517 18.6633L36.9461 18.792L33.4516 22.898L33.4213 22.811L36.2123 17.0319L36.772 17.9812L37.0003 14.6976L34.5705 16.9178L35.6619 16.7662L32.8709 22.5452L32.7838 22.5755L33.8273 17.2857L34.6084 18.0628L34.0004 14.828L32.2098 17.5898L33.2276 17.1674L32.1026 22.8711L31.7353 23.6317L31.3396 23.8971L31.1768 24.7222L29.7929 26.3483L30.8733 26.2613L30.6773 27.2551L31.0594 26.999L31.0963 27.4574L31.7528 26.6861L32.3563 27.5862L32.7695 25.4914L33.3147 24.8509L33.2764 24.3759L33.6437 23.6154L37.4115 19.1882Z" fill="#4173CD"/>
<path d="M12.2735 16.0872C12.3922 15.5535 12.3186 15.0536 12.1154 14.7458C11.8007 14.9385 11.5222 15.3601 11.4035 15.8937C11.3486 16.1409 11.3388 16.3786 11.3601 16.5956L10.7068 15.6214C10.9729 15.4045 11.2019 15.033 11.3059 14.5657C11.4245 14.0321 11.351 13.5321 11.1477 13.2243C10.833 13.4171 10.5546 13.8387 10.4359 14.3723C10.3727 14.6564 10.3672 14.9284 10.4037 15.1696L9.96196 14.511C9.98408 14.1766 9.88133 13.7698 9.63486 13.3822C9.34152 12.9209 8.93596 12.6194 8.57455 12.5455C8.4884 12.9043 8.58955 13.3993 8.8829 13.8605C9.13218 14.2525 9.46152 14.5193 9.77699 14.6389L10.1818 15.3109C9.97874 15.1756 9.73011 15.0652 9.44586 15.002C8.91224 14.8833 8.41227 14.9569 8.10449 15.1602C8.29724 15.4748 8.71883 15.7533 9.25246 15.872C9.7198 15.976 10.1534 15.926 10.4627 15.7769L11.068 16.7817C10.8804 16.6705 10.661 16.5786 10.4138 16.5236C9.88021 16.4049 9.38024 16.4785 9.07246 16.6817C9.26521 16.9963 9.6868 17.2749 10.2204 17.3936C10.6677 17.4931 11.0842 17.4515 11.3909 17.3175L11.9482 18.2426C11.7759 18.1496 11.5841 18.0699 11.3668 18.0216C10.8332 17.9029 10.3332 17.9765 10.0254 18.1797C10.2182 18.4944 10.6398 18.7729 11.1734 18.8916C11.6011 18.9866 12.002 18.9541 12.3048 18.8344L12.8423 19.7266C12.6879 19.6511 12.5216 19.5848 12.3347 19.5432C11.801 19.4246 11.3011 19.4981 10.9933 19.7014C11.186 20.016 11.6076 20.2945 12.1413 20.4132C12.5489 20.5039 12.9352 20.481 13.233 20.3751L13.7226 21.1877C13.5879 21.1283 13.4448 21.0763 13.2877 21.0414C12.7541 20.9227 12.2541 20.9963 11.9464 21.1995C12.1391 21.5141 12.5607 21.7927 13.0943 21.9114C13.4831 21.9978 13.852 21.9801 14.1437 21.8865L15.6988 24.4677L16.3593 24.0475L14.6805 21.5449C14.8888 21.3202 15.0613 20.9937 15.1477 20.605C15.2664 20.0713 15.1928 19.5714 14.9896 19.2636C14.6749 19.4563 14.3964 19.8779 14.2777 20.4115C14.2428 20.5685 14.2292 20.7202 14.2259 20.8673L13.6975 20.0795C13.9196 19.8547 14.1042 19.5145 14.1948 19.1068C14.3134 18.5732 14.2399 18.0732 14.0366 17.7655C13.7219 17.9582 13.4434 18.3798 13.3248 18.9134C13.2831 19.1004 13.2728 19.2791 13.2757 19.4508L12.6956 18.5859C12.9324 18.3622 13.1318 18.013 13.227 17.5855C13.3457 17.0518 13.2721 16.5519 13.0688 16.2441C12.7541 16.4368 12.4757 16.8584 12.357 17.3921C12.3087 17.6093 12.2996 17.8168 12.3108 18.0122L11.7091 17.1153C11.96 16.894 12.1741 16.5343 12.2735 16.0872Z" fill="#73AF00"/>
<path d="M19.0344 16.0001L18.2068 11.0346H18.0787C17.3275 11.0346 16.7969 10.2986 17.0345 9.58583L17.0372 9.57786C17.2271 9.00823 16.9255 8.39164 16.3593 8.19186L4.99619 4.18144C4.35213 3.95409 3.74547 4.60181 4.01453 5.22965L5.24678 8.10486C5.60134 8.93202 6.21578 9.62108 6.99709 10.0676L10.1492 11.8688C11.0909 12.4069 12.1565 12.6899 13.241 12.6899H13.2412L13.524 13.2553C14.3652 14.9374 16.0845 16.0001 17.9654 16.0001H19.0344Z" fill="#FFE15A"/>
<path d="M28.9653 16L29.7929 11.0346H29.921C30.6722 11.0346 31.2028 10.2985 30.9652 9.58575L30.9625 9.57778C30.7726 9.00815 31.0742 8.39156 31.6404 8.19178L42.9989 4.18285C43.6447 3.95485 44.253 4.60444 43.9832 5.23397L42.7529 8.10469C42.3983 8.93184 41.7839 9.6209 41.0026 10.0674L37.8504 11.8686C36.9088 12.4067 35.8432 12.6897 34.7587 12.6897H34.7584L34.4756 13.2551C33.6345 14.9374 31.9152 16 30.0344 16H28.9653Z" fill="#FFE15A"/>
<path d="M27.3103 10.2068L25.2574 5.41682C24.9966 4.8082 24.3982 4.4137 23.7361 4.4137H23.1723L22.3447 5.24132H21.5171L20.6895 6.06894H21.8444C22.1371 6.06894 22.3346 6.36829 22.2193 6.63754L20.6895 10.2069H27.3103V10.2068Z" fill="#FFE15A"/>
<path d="M21.5172 18.4827L19.8621 15.9999L18.3463 17.5157C17.7104 18.1516 17.2313 18.9269 16.9469 19.78L16.5518 20.9654L15.7241 21.793H14.6485C14.2933 21.793 13.9686 21.9937 13.8098 22.3113L13.5764 22.778C13.4225 23.0859 13.6464 23.4481 13.9905 23.4481H15.7241L16.276 22.3446L18.9144 21.0254C18.994 20.9856 19.0665 20.9332 19.1294 20.8703L21.5172 18.4827Z" fill="#FFE15A"/>
<path d="M26.4827 18.4827L28.1378 15.9999L29.6536 17.5157C30.2895 18.1516 30.7686 18.9269 31.053 19.78L31.4481 20.9654L32.2757 21.793H33.3514C33.7065 21.793 34.0313 21.9937 34.1901 22.3113L34.4235 22.778C34.5774 23.0859 34.3535 23.4481 34.0094 23.4481H32.2757L31.724 22.3446L29.0856 21.0254C29.006 20.9856 28.9335 20.9332 28.8706 20.8703L26.4827 18.4827Z" fill="#FFE15A"/>
<path d="M21.5172 19.3102L19.5059 22.6623C19.2346 23.1145 19.3332 23.6971 19.7383 24.0346L22.7926 26.5798C23.4919 27.1627 24.5077 27.1627 25.207 26.5798L28.2613 24.0346C28.6665 23.6969 28.7651 23.1145 28.4937 22.6623L26.4826 19.3102H21.5172Z" fill="#FFE15A"/>
<path d="M23.9998 9.37933C23.9998 9.37933 21.517 10.207 18.2067 9.37933C18.2067 9.37933 18.2067 11.0345 18.2067 12.6896C18.2067 14.3448 19.0343 19.3103 23.9998 20.9655C28.9653 19.3103 29.7929 14.3448 29.7929 12.6896C29.7929 11.0345 29.7929 9.37933 29.7929 9.37933C26.4826 10.207 23.9998 9.37933 23.9998 9.37933Z" fill="white"/>
<path d="M23.9998 9.37933C23.9998 9.37933 21.517 10.207 18.2067 9.37933C18.2067 9.37933 18.2067 11.0345 18.2067 12.6896H29.7929C29.7929 11.0345 29.7929 9.37933 29.7929 9.37933C26.4826 10.207 23.9998 9.37933 23.9998 9.37933Z" fill="#41479B"/>
<path d="M19.9373 17.984V12.6897H19.0345V16.3735C19.269 16.9124 19.5637 17.458 19.9373 17.984Z" fill="#FF4B55"/>
<path d="M21.7429 12.6897H20.8401V19.042C21.1135 19.3128 21.4123 19.5707 21.7429 19.8107V12.6897Z" fill="#FF4B55"/>
<path d="M28.0626 17.984C28.4362 17.4579 28.7309 16.9123 28.9654 16.3734V12.6897H28.0626V17.984Z" fill="#FF4B55"/>
<path d="M23.5485 12.6897H22.6457V20.3708C22.9284 20.5232 23.2298 20.6619 23.5485 20.7879V12.6897Z" fill="#FF4B55"/>
<path d="M27.1598 12.6897H26.257V19.8107C26.5876 19.5707 26.8864 19.3129 27.1598 19.0421V12.6897Z" fill="#FF4B55"/>
<path d="M25.3542 20.3708V12.6897H24.4514V20.7879C24.7702 20.6619 25.0715 20.5232 25.3542 20.3708Z" fill="#FF4B55"/>
<path d="M15.2985 22.4669L14.7108 22.8284L15.6982 24.4675L16.3587 24.0474L15.2985 22.4669Z" fill="#73AF00"/>
<path d="M33.6225 23.6589L33.1033 22.6205H32.152L32.1027 22.8709L31.7353 23.6315L31.3396 23.8969L31.1768 24.722L29.7929 26.3481L30.8733 26.2611L30.6773 27.2549L31.0594 26.9988L31.0963 27.4572L31.7528 26.6859L32.3563 27.586L32.7695 25.4912L33.3146 24.8507L33.2764 24.3757L33.6225 23.6589Z" fill="#4173CD"/>
<path d="M7.92116 12.6897H5.79304L5.98401 13.2627L4.72898 17.6552L3.47395 13.2627L3.66502 12.6897H1.5369L2.10989 13.4537L3.85599 19.565L3.66502 20.1379H5.79304L5.60208 19.565L7.34817 13.4537L7.92116 12.6897Z" fill="#4173CD"/>
<path d="M43.98 13.2217L44.3348 12.6897H43.98H42.5614H42.2067L42.5614 13.2217V19.606L42.2067 20.1379H42.5614H43.98H44.3348L43.98 19.606V13.2217Z" fill="#4173CD"/>
</g>
<defs>
<clipPath id="clip0_11_4289">
<rect width="48" height="32" fill="white"/>
</clipPath>
</defs>
</svg>
