<svg width="48" height="32" viewBox="0 0 48 32" fill="none" xmlns="http://www.w3.org/2000/svg">
<g clip-path="url(#clip0_11_4379)">
<path d="M47.1723 31.7243H0.827623C0.370593 31.7243 0 31.3537 0 30.8967V1.10362C0 0.646594 0.370593 0.276001 0.827623 0.276001H47.1724C47.6294 0.276001 48 0.646594 48 1.10362V30.8967C47.9999 31.3538 47.6293 31.7243 47.1723 31.7243Z" fill="#FF4B55"/>
<path d="M24.386 6.62217L26.5994 13.2587L33.5951 13.3129C33.9862 13.3159 34.1484 13.8151 33.8338 14.0475L28.206 18.2034L30.3163 24.8734C30.4343 25.2463 30.0096 25.555 29.6913 25.3274L23.9999 21.2593L18.3083 25.3274C17.9901 25.5549 17.5654 25.2463 17.6834 24.8734L19.7936 18.2034L14.1659 14.0475C13.8512 13.8152 14.0134 13.3159 14.4046 13.3129L21.4003 13.2587L23.6136 6.62217C23.7375 6.25111 24.2623 6.25111 24.386 6.62217Z" fill="#FFE15A"/>
</g>
<defs>
<clipPath id="clip0_11_4379">
<rect width="48" height="32" fill="white"/>
</clipPath>
</defs>
</svg>
