<svg width="48" height="32" viewBox="0 0 48 32" fill="none" xmlns="http://www.w3.org/2000/svg">
<g clip-path="url(#clip0_11_3848)">
<path d="M47.1723 31.7242H0.827623C0.370593 31.7242 0 31.3536 0 30.8965V1.10359C0 0.646563 0.370593 0.27597 0.827623 0.27597H47.1724C47.6294 0.27597 48 0.646563 48 1.10359V30.8965C47.9999 31.3537 47.6293 31.7242 47.1723 31.7242Z" fill="#464655"/>
<path d="M47.9999 15.1724H23.3853L0 2.2699V4.16074L21.4591 16L0 27.8393V29.7303L23.3853 16.8277H47.9999V15.1724Z" fill="#FFE15A"/>
<path d="M0.331024 31.5415C0.470805 31.6492 0.637586 31.7241 0.827617 31.7241H47.1724C47.6294 31.7241 48 31.3535 48 30.8965V18.4828H23.9999L0.331024 31.5415Z" fill="#73AF00"/>
<path d="M47.1723 0.27597H0.827617C0.637586 0.27597 0.470711 0.35097 0.331024 0.458689L23.9999 13.5173H47.9997V1.10359C47.9999 0.646563 47.6293 0.27597 47.1723 0.27597Z" fill="#FF4B55"/>
<path d="M7.16744 11.3582C4.80448 10.6148 3.02051 12.3318 2.6128 13.2155C2.26751 13.9643 1.62608 17.3562 4.82351 17.897C8.02075 18.4379 7.98475 15.4209 7.98475 15.4209C7.84057 15.9017 7.58201 17.272 5.27407 17.272C4.40839 17.272 3.16461 15.9858 3.39898 14.5675C3.61957 13.2329 4.81179 12.5502 5.71291 12.5121C6.56623 12.4761 8.5556 13.0651 8.5556 15.4872C8.5556 18.2096 5.74966 18.5162 5.74966 18.5162V20.1601C8.19213 19.9207 9.57438 18.5677 9.94019 16.4005C10.3047 14.243 9.57006 12.1141 7.16744 11.3582Z" fill="#FFE15A"/>
<path d="M4.55109 15.3952C4.49531 15.4659 4.46568 15.554 4.46418 15.6441L4.45725 16.0862L4.37118 16.2363C4.34015 16.2905 4.35853 16.3597 4.41253 16.3912C4.46718 16.4231 4.53731 16.4044 4.56872 16.3494L4.65693 16.195L5.01 16.0672C5.11696 16.0284 5.20293 15.948 5.24943 15.8442C5.34168 15.6383 5.53977 15.2601 5.86077 14.8655C6.18177 15.2601 6.37987 15.6383 6.47212 15.8442C6.51852 15.948 6.60449 16.0284 6.71146 16.0672L7.06461 16.195L7.15283 16.3494C7.18414 16.4044 7.25446 16.4231 7.30902 16.3912C7.36302 16.3596 7.38139 16.2905 7.35036 16.2363L7.2643 16.0862L7.25736 15.6441C7.25596 15.554 7.22624 15.4659 7.17046 15.3952C6.87468 15.0195 6.56005 14.7241 6.25002 14.4628C6.4978 14.2299 6.77793 14.0077 7.13071 13.836C7.21236 13.7963 7.25502 13.7047 7.23393 13.6163C7.20514 13.4958 7.07333 13.4325 6.96102 13.485C6.72458 13.5952 6.31799 13.8122 5.86068 14.1457C5.40328 13.8123 4.99678 13.5953 4.76034 13.485C4.64803 13.4327 4.51622 13.496 4.48743 13.6163C4.46643 13.7047 4.50909 13.7963 4.59056 13.836C4.94343 14.0077 5.22356 14.23 5.47134 14.4628C5.16149 14.7241 4.84687 15.0196 4.55109 15.3952Z" fill="#FFE15A"/>
</g>
<defs>
<clipPath id="clip0_11_3848">
<rect width="48" height="32" fill="white"/>
</clipPath>
</defs>
</svg>
