<svg width="48" height="32" viewBox="0 0 48 32" fill="none" xmlns="http://www.w3.org/2000/svg">
<g clip-path="url(#clip0_11_4834)">
<path d="M47.1723 31.7238H0.827623C0.370593 31.7238 0 31.3532 0 30.8962V1.10314C0 0.646105 0.370593 0.275513 0.827623 0.275513H47.1724C47.6294 0.275513 48 0.646105 48 1.10314V30.8962C47.9999 31.3533 47.6293 31.7238 47.1723 31.7238Z" fill="#FF4B55"/>
<path d="M0.827623 0.275635H23.1724C23.6295 0.275635 24 0.646228 24 1.10326V15.1722C24 15.6292 23.6295 15.9998 23.1724 15.9998H0.827623C0.370593 15.9997 0 15.6291 0 15.1721V1.10316C0 0.646134 0.370593 0.275635 0.827623 0.275635Z" fill="#41479B"/>
<path d="M11.7903 10.5242L11.4104 11.6634L10.2095 11.6727C10.0541 11.6739 9.98959 11.8724 10.1147 11.9646L11.0807 12.678L10.7185 13.8228C10.6716 13.9711 10.8404 14.0937 10.9668 14.0032L11.9438 13.305L12.9208 14.0032C13.0473 14.0936 13.216 13.9711 13.1691 13.8228L12.807 12.678L13.773 11.9646C13.898 11.8723 13.8336 11.6738 13.6781 11.6727L12.4772 11.6634L12.0973 10.5242C12.0481 10.3767 11.8396 10.3767 11.7903 10.5242Z" fill="white"/>
<path d="M11.8198 1.6423L11.5125 2.56386L10.5412 2.57146C10.4153 2.57239 10.3632 2.73289 10.4644 2.80761L11.2458 3.38464L10.9528 4.31079C10.9148 4.4307 11.0514 4.52989 11.1537 4.45676L11.9439 3.89192L12.7342 4.45676C12.8364 4.52989 12.973 4.4307 12.9351 4.31079L12.6421 3.38464L13.4235 2.80761C13.5247 2.73289 13.4725 2.57239 13.3467 2.57146L12.3754 2.56386L12.0681 1.6423C12.0283 1.52296 11.8597 1.52296 11.8198 1.6423Z" fill="white"/>
<path d="M16.7336 4.38377L16.4262 5.30533L15.4549 5.31292C15.3291 5.31386 15.277 5.47436 15.3781 5.54908L16.1595 6.12611L15.8666 7.05226C15.8286 7.17217 15.9652 7.27135 16.0675 7.19823L16.8577 6.63339L17.6479 7.19823C17.7502 7.27135 17.8868 7.17217 17.8488 7.05226L17.5558 6.12611L18.3372 5.54908C18.4384 5.47436 18.3863 5.31386 18.2604 5.31292L17.2891 5.30533L16.9818 4.38377C16.9421 4.26433 16.7734 4.26433 16.7336 4.38377Z" fill="white"/>
<path d="M7.00956 5.46982L6.70225 6.39138L5.73091 6.39897C5.6051 6.39991 5.55297 6.56041 5.65413 6.63513L6.43553 7.21216L6.14256 8.13831C6.1046 8.25822 6.24119 8.3574 6.34347 8.28428L7.13369 7.71944L7.9239 8.28428C8.02619 8.3574 8.16278 8.25822 8.12481 8.13831L7.83184 7.21216L8.61325 6.63513C8.7144 6.56041 8.66228 6.39991 8.53647 6.39897L7.56512 6.39138L7.25781 5.46982C7.21806 5.35047 7.04931 5.35047 7.00956 5.46982Z" fill="white"/>
<path d="M14.6155 8.47776L14.4429 8.99508L13.8977 8.9993C13.8271 8.99986 13.7978 9.08995 13.8546 9.13195L14.2933 9.45586L14.1288 9.9758C14.1076 10.0431 14.1842 10.0988 14.2416 10.0577L14.6853 9.74067L15.1289 10.0577C15.1862 10.0988 15.2629 10.0431 15.2417 9.9758L15.0772 9.45586L15.5159 9.13195C15.5727 9.09005 15.5434 8.99995 15.4728 8.9993L14.9276 8.99508L14.755 8.47776C14.7326 8.41073 14.6378 8.41073 14.6155 8.47776Z" fill="white"/>
</g>
<defs>
<clipPath id="clip0_11_4834">
<rect width="48" height="32" fill="white"/>
</clipPath>
</defs>
</svg>
