<svg width="48" height="32" viewBox="0 0 48 32" fill="none" xmlns="http://www.w3.org/2000/svg">
<g clip-path="url(#clip0_11_1535)">
<path d="M47.1723 31.7242H0.827623C0.370593 31.7242 0 31.3536 0 30.8965V1.1035C0 0.646472 0.370593 0.275879 0.827623 0.275879H47.1724C47.6294 0.275879 48 0.646472 48 1.1035V30.8965C47.9999 31.3537 47.6293 31.7242 47.1723 31.7242Z" fill="#41479B"/>
<path d="M25.0605 10.9828C24.5821 10.8923 24.0002 10.2846 24.2071 9.9484C24.414 9.61221 24.026 8.86221 23.5605 9.12078C23.0949 9.37943 22.7846 9.68975 22.3449 9.79315C21.9052 9.89656 21.5432 10.2328 21.8794 10.5432C22.2155 10.8535 22.7328 11.4742 22.2414 12.1208C21.7501 12.7674 21.9052 12.3277 21.3104 12.6121C20.7155 12.8966 20.3017 13.4655 20.4828 13.8018C20.6638 14.138 20.8189 14.2674 20.3017 14.5001C19.7845 14.7327 19.5517 14.5777 19.1379 14.6811C18.7241 14.7845 17.7155 15.3018 17.4051 15.7414C17.0948 16.1811 16.4224 15.7673 16.1379 15.7155C15.8535 15.6638 15.2845 15.8707 15.1551 16.2069C15.0259 16.543 15.2586 16.8535 15.75 17.0086C16.2413 17.1638 16.4482 17.1896 16.2156 17.6035C15.9829 18.0173 16.1379 18.819 16.5259 19.0517C16.9138 19.2845 17.6638 20.0086 17.6638 20.5C17.6638 20.9913 17.5604 21.7155 18.2845 21.8189C19.0086 21.9223 20.1207 22.2327 20.5086 22.9051C20.8966 23.5775 21 23.9654 21.0776 24.3792C21.1552 24.793 21.2328 25.1292 21.4655 25.5948C21.6983 26.0604 21.8535 26.862 21.6207 27.043C21.3879 27.2241 21.2069 27.3533 21.3879 27.7025C21.5689 28.0516 21.6078 28.1809 21.9439 27.9869C22.2801 27.7929 22.2801 27.9998 22.4612 27.961C22.6422 27.9222 23.4698 27.6248 23.3146 27.224C23.1594 26.8231 22.8232 25.905 23.3016 25.4266C23.78 24.9482 24.4266 24.8706 24.8404 24.5473C25.2543 24.2241 25.9396 24.1723 26.4697 23.6551C26.9999 23.1379 27.5688 23.4482 27.6594 23.8103C27.75 24.1723 27.8922 24.8706 28.306 24.8576C28.7198 24.8447 28.8103 24.8447 28.8879 24.3404C28.9655 23.8361 29.612 22.7111 29.8707 22.8534C30.1293 22.9956 30.362 22.8792 30.375 22.6594C30.3879 22.4395 30.8792 22.2456 31.0861 22.556C31.2931 22.8663 31.7456 23.112 31.7327 22.7241C31.7198 22.3361 31.1896 22.3879 31.1767 21.9611C31.1638 21.5344 31.6035 21.2629 31.9914 21.0819C32.3793 20.9008 32.1465 20.4353 32.263 20.1767C32.3793 19.918 33.013 19.5948 33.0389 19.3361C33.0647 19.0775 32.8837 18.9741 33.1552 18.9094C33.4268 18.8447 33.763 18.7284 33.569 18.431C33.375 18.1336 33.4397 17.9138 33.6466 17.7715C33.8535 17.6293 33.9506 16.9542 33.6488 16.8665C33.3469 16.7788 32.8018 17.032 32.6655 17.1975C32.5291 17.3631 31.9742 16.6523 31.7113 16.477C31.4484 16.3017 29.7542 16.4088 29.7932 16.1168C29.8322 15.8247 30.5432 14.7586 30.2329 14.5905C29.9226 14.4224 29.4312 14.1767 29.0303 14.0474C28.6294 13.9181 28.72 14.3577 28.5002 14.0086C28.2803 13.6595 28.2028 12.4181 27.9571 12.4181C27.7113 12.4181 27.5303 12.9353 27.4269 12.7413C27.3235 12.5473 27.4657 11.2025 26.8967 11.1766C26.3278 11.1507 26.3148 11.4869 25.9916 11.2413C25.6683 10.9958 25.7146 11.1065 25.0605 10.9828Z" fill="#FF9B55"/>
<path d="M21.5472 3.62636L21.1175 4.91448L19.7596 4.92508C19.6852 4.92574 19.6543 5.0207 19.7143 5.06486L20.8065 5.87148L20.3969 7.16617C20.3745 7.23714 20.4553 7.29592 20.5159 7.25251L21.6206 6.46286L22.7253 7.25251C22.7859 7.29573 22.8667 7.23714 22.8443 7.16617L22.4347 5.87148L23.527 5.06486C23.5869 5.0207 23.556 4.92564 23.4816 4.92508L22.1237 4.91448L21.6941 3.62636C21.6706 3.55586 21.5707 3.55586 21.5472 3.62636Z" fill="white"/>
<path d="M26.3316 3.62636L25.9019 4.91448L24.544 4.92508C24.4696 4.92574 24.4388 5.0207 24.4987 5.06486L25.5909 5.87148L25.1813 7.16617C25.1589 7.23714 25.2397 7.29592 25.3003 7.25251L26.4051 6.46286L27.5098 7.25251C27.5704 7.29573 27.6512 7.23714 27.6288 7.16617L27.2192 5.87148L28.3115 5.06486C28.3714 5.0207 28.3404 4.92564 28.2661 4.92508L26.9082 4.91448L26.4786 3.62636C26.4549 3.55586 26.355 3.55586 26.3316 3.62636Z" fill="white"/>
<path d="M16.8275 4.41519L16.3979 5.70331L15.04 5.71391C14.9656 5.71456 14.9347 5.80953 14.9946 5.85369L16.0869 6.66031L15.6773 7.955C15.6549 8.02596 15.7356 8.08474 15.7963 8.04134L16.901 7.25168L18.0058 8.04134C18.0663 8.08456 18.1471 8.02596 18.1247 7.955L17.7151 6.66031L18.8074 5.85369C18.8673 5.80953 18.8365 5.71447 18.762 5.71391L17.4042 5.70331L16.9745 4.41519C16.951 4.3446 16.8511 4.3446 16.8275 4.41519Z" fill="white"/>
<path d="M12.3618 6.03823L11.9321 7.32635L10.5742 7.33694C10.4998 7.3376 10.469 7.43257 10.5289 7.47672L11.6211 8.28334L11.2116 9.57802C11.1891 9.64899 11.2699 9.70777 11.3305 9.66437L12.4353 8.87471L13.54 9.66437C13.6006 9.70759 13.6814 9.64899 13.659 9.57802L13.2494 8.28334L14.3417 7.47672C14.4016 7.43257 14.3707 7.3375 14.2963 7.33694L12.9384 7.32635L12.5088 6.03823C12.4852 5.96773 12.3853 5.96773 12.3618 6.03823Z" fill="white"/>
<path d="M31.1854 4.41519L31.6151 5.70331L32.973 5.71391C33.0474 5.71456 33.0782 5.80953 33.0183 5.85369L31.9261 6.66031L32.3356 7.955C32.358 8.02596 32.2773 8.08474 32.2167 8.04134L31.1119 7.25168L30.0072 8.04134C29.9466 8.08456 29.8658 8.02596 29.8882 7.955L30.2978 6.66031L29.2055 5.85369C29.1456 5.80953 29.1765 5.71447 29.2509 5.71391L30.6087 5.70331L31.0383 4.41519C31.062 4.3446 31.1619 4.3446 31.1854 4.41519Z" fill="white"/>
<path d="M35.6514 6.03823L36.0811 7.32635L37.4389 7.33694C37.5134 7.3376 37.5442 7.43257 37.4843 7.47672L36.392 8.28334L36.8016 9.57802C36.824 9.64899 36.7433 9.70777 36.6826 9.66437L35.5779 8.87471L34.4732 9.66437C34.4126 9.70759 34.3318 9.64899 34.3542 9.57802L34.7638 8.28334L33.6715 7.47672C33.6116 7.43257 33.6425 7.3375 33.7169 7.33694L35.0747 7.32635L35.5044 6.03823C35.5279 5.96773 35.6279 5.96773 35.6514 6.03823Z" fill="white"/>
</g>
<defs>
<clipPath id="clip0_11_1535">
<rect width="48" height="32" fill="white"/>
</clipPath>
</defs>
</svg>
