<svg width="48" height="32" viewBox="0 0 48 32" fill="none" xmlns="http://www.w3.org/2000/svg">
<g clip-path="url(#clip0_11_4059)">
<path d="M0 6.06909V25.9312L13.2413 16.0001L0 6.06909Z" fill="#464655"/>
<path d="M6.62064 0.275973L21.5172 11.8622H47.9999V1.1035C47.9999 0.646472 47.6293 0.275879 47.1723 0.275879H6.62064V0.275973Z" fill="#FF4B55"/>
<path d="M6.62064 31.7239L21.5172 20.1378H47.9999V30.8964C47.9999 31.3534 47.6293 31.724 47.1723 31.724H6.62064V31.7239Z" fill="#41479B"/>
<path d="M5.33334 0.276001H0.827625C0.370594 0.276001 0 0.646501 0 1.10353V4.49822L14.5288 16.0001L0 27.5023V30.8966C0 31.3537 0.370594 31.7243 0.827625 31.7243H5.33287L21.0138 19.3104H48V12.6898H21.0139L5.33334 0.276001Z" fill="#73AF00"/>
<path d="M7.99983 0.276001H5.3332L21.0137 12.6898H47.9999V11.0346H21.5896L7.99983 0.276001Z" fill="white"/>
<path d="M0 4.49811V6.60917L11.8622 16L0 25.3912V27.5022L14.5288 16L0 4.49811Z" fill="#FFE15A"/>
<path d="M21.014 19.3102L5.33307 31.7241H7.99979L21.5898 20.9655H48.0002V19.3102H21.014Z" fill="white"/>
</g>
<defs>
<clipPath id="clip0_11_4059">
<rect width="48" height="32" fill="white"/>
</clipPath>
</defs>
</svg>
