<svg width="48" height="32" viewBox="0 0 48 32" fill="none" xmlns="http://www.w3.org/2000/svg">
<g clip-path="url(#clip0_11_1150)">
<path d="M47.1721 0.275879H0.82762C0.370592 0.275879 0 0.646376 0 1.1034V30.8963C0 31.3534 0.370592 31.7239 0.82762 31.7239H47.1722C47.6292 31.7239 47.9998 31.3534 47.9998 30.8963V1.1034C47.9997 0.646376 47.6291 0.275879 47.1721 0.275879Z" fill="#73AF00"/>
<path d="M36.4135 11.0341H30.6204V31.7236H36.4135V11.0341Z" fill="#FF4B55"/>
<path d="M42.2063 11.0341H36.4133V31.7236H42.2063V11.0341Z" fill="#464655"/>
<path d="M48.0002 11.0341H42.207V31.7236H48.0002V11.0341Z" fill="#FF9B55"/>
<path d="M46.5892 4.08044C46.6072 4.04416 46.5986 4.00028 46.5682 3.97347C46.5376 3.94657 46.493 3.94375 46.4594 3.96607C46.292 4.07716 46.1233 4.17813 45.9559 4.26972C46.4946 3.8245 46.5701 3.43788 46.575 3.40975C46.581 3.37441 46.5653 3.33878 46.5352 3.31938C46.5049 3.29978 46.4661 3.30035 46.4364 3.3205C45.8545 3.71519 45.2721 3.99691 44.77 4.19519C45.4443 3.7691 45.7116 3.33438 45.7279 3.30691C45.749 3.27166 45.7433 3.22656 45.7142 3.1976C45.6852 3.16853 45.6401 3.16319 45.6048 3.18428C45.0664 3.50885 44.4287 3.76469 43.8193 3.96185C43.9002 3.83697 43.9578 3.69672 43.9061 3.61788C43.858 3.54485 43.7702 3.54485 43.6449 3.61816C43.3912 3.76685 41.4689 4.25688 40.7239 4.43941C39.9647 4.30225 39.3357 4.49678 39.1396 4.56869C39.0874 4.50653 39.0636 4.44635 39.0536 4.39928C39.0373 4.32269 39.0492 4.24488 39.0854 4.19097C39.1444 4.10313 39.2665 4.09469 39.3742 4.08728C39.4211 4.0841 39.4629 4.08119 39.4995 4.072C39.5229 4.07894 39.5516 4.09244 39.5511 4.10294C39.549 4.14382 39.5747 4.18075 39.6137 4.19303C39.6528 4.20522 39.6949 4.18966 39.7166 4.15488C39.722 4.14607 39.8487 3.93878 39.7506 3.76225C39.6793 3.63391 39.5155 3.56641 39.2637 3.56153C39.1604 3.48944 38.7699 3.25469 38.2888 3.4361C37.8015 3.61994 37.5852 4.12038 37.5136 4.33188C37.1344 4.27919 35.3933 4.0135 34.4467 3.45785C34.4007 3.43694 34.2436 3.37525 34.1559 3.45888C34.102 3.50997 34.0957 3.58928 34.137 3.69475C34.1589 3.75063 34.1925 3.80519 34.2372 3.85882C33.7305 3.62622 33.0474 3.30138 32.5311 3.01253C32.4503 2.97513 32.3038 2.92431 32.2281 3.00353C32.1808 3.05341 32.1814 3.12578 32.2303 3.21897C32.2406 3.23866 32.2508 3.2606 32.2619 3.28469C32.3121 3.39297 32.3806 3.54063 32.5481 3.71106C32.4229 3.64272 32.3101 3.57241 32.2198 3.5021C31.7666 3.1495 31.7052 3.115 31.624 3.16975C31.554 3.21681 31.5766 3.29641 31.6005 3.38069L31.6068 3.40291C31.6265 3.47294 31.6587 3.58581 31.7467 3.72194C31.6765 3.67413 31.6161 3.66438 31.5686 3.69756C31.5403 3.71716 31.4976 3.76591 31.5304 3.87335C31.6093 4.13032 32.1539 4.80691 33.19 5.00613C33.0858 5.02132 32.9762 5.03257 32.8706 5.03472C32.8305 5.03557 32.7957 5.06304 32.7856 5.10194C32.7757 5.14085 32.7929 5.18182 32.8277 5.20179C32.8467 5.21266 33.2129 5.4176 33.8843 5.40035C33.7839 5.42566 33.67 5.44516 33.544 5.45266C33.5048 5.455 33.4717 5.48257 33.4623 5.52063C33.453 5.55869 33.4695 5.59844 33.503 5.61869C33.523 5.63079 33.9126 5.85991 34.5159 5.82607L34.4633 5.85841C34.433 5.87707 34.4166 5.91166 34.4215 5.94682C34.4264 5.98197 34.4515 6.01104 34.4856 6.02079C34.5045 6.02613 34.8445 6.12082 35.268 6.07601L35.1936 6.12897C35.1637 6.15026 35.1497 6.18766 35.1585 6.22319C35.1674 6.25882 35.1968 6.28554 35.2332 6.2906C35.2409 6.29172 35.2956 6.29876 35.3834 6.29876C35.4412 6.29876 35.5134 6.29557 35.5957 6.28554C35.5938 6.30691 35.5964 6.32819 35.6034 6.34938C35.6458 6.47697 35.8336 6.50782 35.8962 6.50866C35.9 6.50876 35.9038 6.50876 35.9075 6.50876C35.9832 6.50876 36.0631 6.49807 36.1446 6.48185C36.2752 6.60382 36.5136 6.59266 36.7449 6.53885C36.7312 6.55966 36.7208 6.58047 36.7142 6.60101C36.7009 6.64329 36.711 6.68641 36.7413 6.7166C36.7708 6.74576 36.8417 6.81635 37.4882 6.63448C37.4855 6.63654 37.4829 6.6386 37.4802 6.64066C37.3942 6.70722 37.3996 6.77594 37.4106 6.81101C37.4503 6.93813 37.7355 7.0196 38.253 7.05429C38.2644 7.3421 38.1845 7.65466 38.1836 7.65813C38.1746 7.69254 38.1869 7.7291 38.2149 7.75113C38.2428 7.77298 38.2812 7.77635 38.3127 7.75957C38.3426 7.74344 38.3724 7.72263 38.4005 7.70023L38.3981 7.79538C38.3971 7.82998 38.4162 7.86194 38.4469 7.87751C38.4599 7.88407 38.4737 7.88726 38.4876 7.88726C38.4912 7.88726 38.4945 7.88604 38.4979 7.88557C38.4883 7.96666 38.4554 8.06351 38.3515 8.08629C38.3043 8.0966 38.2543 8.10166 38.2059 8.10663C37.9856 8.12923 37.7359 8.15482 37.6965 8.65966C37.6935 8.69754 37.7147 8.73326 37.7495 8.74863C37.7842 8.76382 37.8248 8.75576 37.851 8.7282L37.9469 8.6262C38.0033 8.64007 38.0932 8.65432 38.1895 8.63876C38.1653 8.75557 38.1724 8.89938 38.2893 9.02135C38.3146 9.0477 38.3535 9.05604 38.3874 9.04245C38.4213 9.02876 38.4435 8.99585 38.4435 8.95938V8.8947C38.4991 8.88176 38.5729 8.85476 38.6427 8.79926C38.6835 8.88748 38.7615 8.99098 38.91 9.07835C38.9241 9.0866 38.9399 9.09063 38.9554 9.09063C38.976 9.09063 38.9963 9.0836 39.0126 9.06992C39.0417 9.04582 39.0525 9.00598 39.0395 8.97035L38.9927 8.84173C39.0254 8.80957 39.0677 8.76354 39.1048 8.71441C39.123 8.74104 39.1538 8.75632 39.1866 8.75313C39.2206 8.74985 39.2499 8.72745 39.2619 8.69538L39.2948 8.60773C39.3142 8.60238 39.3328 8.59592 39.3505 8.5887C39.3725 8.78267 39.5217 8.9441 39.5307 8.95366C39.5478 8.97185 39.5715 8.98188 39.5959 8.98188C39.6031 8.98188 39.6105 8.98104 39.6178 8.97917C39.6494 8.9712 39.674 8.94692 39.6825 8.91551L39.7324 8.72932C39.8646 8.66229 39.8775 8.54107 39.8856 8.46551C39.8872 8.4507 39.8895 8.43016 39.8898 8.41976C39.9415 8.44517 40.051 8.56817 40.1336 8.69576C40.15 8.72107 40.1782 8.73663 40.2084 8.73673C40.2391 8.73457 40.2668 8.72182 40.2836 8.6966C40.2836 8.6966 40.3535 8.59067 40.3875 8.52888C40.5319 8.26685 40.3132 8.10991 40.2081 8.03454C40.1823 8.01598 40.147 7.99066 40.1413 7.98363C40.1215 7.93563 40.1284 7.89091 40.1415 7.85623C40.2291 7.9166 40.3287 7.96751 40.4391 7.99348C40.446 7.99516 40.4528 7.99582 40.4595 7.99582C40.4883 7.99582 40.5159 7.98185 40.5329 7.95757C40.5539 7.92757 40.5545 7.88773 40.5345 7.85716C40.5325 7.85407 40.3678 7.60076 40.2616 7.28923C40.433 7.38982 40.6651 7.51123 40.7854 7.51123C40.868 7.51123 40.8995 7.45985 40.9094 7.43782C40.9151 7.42488 40.9254 7.40144 40.9172 7.35757C41.0765 7.44363 41.2562 7.51038 41.3928 7.47513C41.4331 7.46482 41.5277 7.44035 41.5421 7.35551C41.5493 7.31257 41.5349 7.27779 41.5032 7.24357C41.6511 7.27948 41.8106 7.29738 41.967 7.27666C42.0975 7.25951 42.136 7.19623 42.1452 7.14607C42.1511 7.11401 42.1616 7.05241 42.0452 6.93597C42.27 6.92369 42.4706 6.87457 42.4871 6.73901C42.4885 6.72682 42.4862 6.71576 42.4852 6.70432C43.2075 6.62557 43.757 6.17388 43.7813 6.15354C43.7883 6.14763 43.7931 6.14032 43.7979 6.13291C44.2351 6.07826 44.7318 5.97954 45.1339 5.79879C45.8927 5.45763 46.277 4.99703 46.2082 4.82988C46.1882 4.78122 46.1309 4.74607 46.0601 4.7725C46.0402 4.77991 46 4.79622 45.9473 4.8176C46.3966 4.45263 46.5724 4.11419 46.5892 4.08044Z" fill="#FF9B55"/>
<path d="M46.5891 4.08056C46.6071 4.04428 46.5985 4.00041 46.5681 3.9736C46.5376 3.94669 46.493 3.94388 46.4593 3.96619C46.292 4.07738 46.1231 4.17825 45.9559 4.26985C46.4946 3.82463 46.5701 3.438 46.5749 3.40988C46.581 3.37453 46.5652 3.33881 46.5351 3.3195C46.5049 3.29991 46.4661 3.30038 46.4363 3.32063C45.8544 3.71531 45.2721 3.99703 44.7699 4.19531C45.4444 3.76922 45.7116 3.3346 45.7279 3.30713C45.749 3.27188 45.7432 3.22678 45.7142 3.19772C45.6851 3.16866 45.64 3.16332 45.6048 3.1845C45.0664 3.50907 44.4287 3.76491 43.8192 3.96216C43.9001 3.83728 43.9578 3.69703 43.906 3.61819C43.8579 3.54507 43.7702 3.54506 43.6448 3.61847C43.3911 3.76716 41.4688 4.25719 40.724 4.43972C39.9648 4.30257 39.3357 4.4971 39.1397 4.569C39.0876 4.50685 39.0636 4.44666 39.0535 4.39969C39.0372 4.3231 39.0491 4.24528 39.0853 4.19138C39.1444 4.10353 39.2664 4.09519 39.3741 4.08769C39.4209 4.0845 39.4627 4.0816 39.4994 4.0725C39.5228 4.07935 39.5515 4.09294 39.5511 4.10335C39.549 4.14422 39.5748 4.18116 39.6138 4.19344C39.6529 4.20563 39.695 4.19007 39.7167 4.15528C39.7222 4.14657 39.8487 3.93919 39.7507 3.76266C39.6794 3.63432 39.5157 3.56682 39.2637 3.56194C39.1603 3.48985 38.7699 3.2551 38.2888 3.4365C37.8016 3.62025 37.5852 4.12078 37.5137 4.33228C37.1345 4.2796 35.3933 4.01391 34.4467 3.45825C34.4008 3.43735 34.2438 3.37585 34.1559 3.45928C34.102 3.51038 34.0957 3.58969 34.137 3.69516C34.1589 3.75103 34.1926 3.8056 34.2372 3.85922C33.7305 3.62663 33.0475 3.30178 32.5311 3.01294C32.4503 2.97553 32.3037 2.92463 32.2281 3.00394C32.1808 3.05381 32.1814 3.12628 32.2303 3.21938C32.2406 3.23906 32.2507 3.261 32.2619 3.2851C32.3121 3.39338 32.3806 3.54103 32.5481 3.71166C32.4231 3.64332 32.3102 3.573 32.2198 3.50269C31.7666 3.1501 31.7051 3.1156 31.624 3.17035C31.5541 3.2175 31.5767 3.297 31.6006 3.38128L31.6069 3.4035C31.6266 3.47353 31.6586 3.58641 31.7467 3.72253C31.6765 3.67472 31.6161 3.66497 31.5686 3.69816C31.5403 3.71756 31.4976 3.7665 31.5306 3.87394C31.6093 4.13091 32.154 4.80732 33.1901 5.00672C33.086 5.02191 32.9765 5.03316 32.8707 5.03531C32.8305 5.03616 32.7957 5.06363 32.7858 5.10253C32.7758 5.14144 32.793 5.18231 32.8279 5.20238C32.8468 5.21325 33.213 5.41819 33.8844 5.40075C33.784 5.42606 33.6701 5.44566 33.544 5.45306C33.5049 5.45531 33.4717 5.48297 33.4624 5.52103C33.453 5.5591 33.4695 5.59885 33.5032 5.6191C33.5231 5.63119 33.9127 5.86041 34.516 5.82647L34.4634 5.85881C34.4332 5.87747 34.4167 5.91207 34.4216 5.94722C34.4265 5.98238 34.4517 6.01144 34.4857 6.02119C34.5046 6.02653 34.8446 6.12113 35.2682 6.07641L35.1937 6.12938C35.1638 6.15066 35.1499 6.18806 35.1587 6.22369C35.1674 6.25931 35.1969 6.28603 35.2333 6.291C35.241 6.29213 35.2958 6.29925 35.3836 6.29925C35.4414 6.29925 35.5136 6.29607 35.5959 6.28603C35.5941 6.30741 35.5966 6.32878 35.6036 6.34988C35.646 6.47747 35.8339 6.50832 35.8964 6.50916C35.9002 6.50916 35.904 6.50916 35.9077 6.50916C35.9834 6.50916 36.0632 6.49847 36.1448 6.48225C36.2754 6.60422 36.5138 6.59307 36.7451 6.53925C36.7314 6.56007 36.721 6.58088 36.7144 6.6015C36.7011 6.64378 36.7112 6.68691 36.7415 6.7171C36.771 6.74625 36.8419 6.81675 37.4885 6.63497C37.4857 6.63713 37.4831 6.6391 37.4804 6.64125C37.3944 6.70782 37.3999 6.77653 37.4108 6.8116C37.4505 6.93872 37.7357 7.02019 38.2532 7.05488C38.2646 7.34269 38.1846 7.65525 38.1838 7.65872C38.1748 7.69313 38.1871 7.72969 38.2151 7.75172C38.2431 7.77357 38.2814 7.77694 38.3129 7.76016C38.3429 7.74403 38.3726 7.72322 38.4007 7.70082L38.3983 7.79588C38.3974 7.83047 38.4164 7.86244 38.4472 7.878C38.4602 7.88457 38.474 7.88775 38.4879 7.88775C38.4915 7.88775 38.4948 7.88644 38.4982 7.88597C38.4886 7.96706 38.4557 8.06391 38.3516 8.08669C38.3045 8.097 38.2545 8.10207 38.206 8.10703C37.9857 8.12963 37.7361 8.15522 37.6966 8.66016C37.6937 8.69803 37.7149 8.73357 37.7496 8.74903C37.7842 8.76413 37.8249 8.75616 37.851 8.7286L37.9469 8.6266C38.0032 8.64047 38.0933 8.65463 38.1895 8.63916C38.1653 8.75597 38.1725 8.89978 38.2894 9.02175C38.3147 9.0481 38.3535 9.05644 38.3874 9.04285C38.4214 9.02916 38.4435 8.99625 38.4435 8.95978V8.8951C38.4991 8.88216 38.5729 8.85516 38.6426 8.79966C38.6835 8.88788 38.7615 8.99147 38.91 9.07875C38.9241 9.087 38.9398 9.09113 38.9554 9.09113C38.9758 9.09113 38.9962 9.0841 39.0126 9.07041C39.0417 9.04632 39.0525 9.00647 39.0396 8.97103L38.9928 8.84232C39.0254 8.81016 39.0679 8.76422 39.1048 8.7151C39.1231 8.74172 39.1538 8.757 39.1866 8.75382C39.2208 8.75053 39.2499 8.72813 39.262 8.69607L39.2949 8.60841C39.3143 8.60307 39.3329 8.5966 39.3506 8.58938C39.3726 8.78335 39.5218 8.94478 39.5308 8.95435C39.548 8.97263 39.5717 8.98257 39.596 8.98257C39.6033 8.98257 39.6106 8.98172 39.6178 8.97985C39.6494 8.97188 39.6741 8.9476 39.6825 8.91619L39.7324 8.73C39.8646 8.66307 39.8775 8.54175 39.8856 8.46619C39.8871 8.45138 39.8894 8.43085 39.8898 8.42044C39.9414 8.44585 40.0509 8.56885 40.1335 8.69644C40.1499 8.72175 40.1782 8.73732 40.2083 8.73741C40.2391 8.73525 40.2667 8.72241 40.2835 8.69719C40.2835 8.69719 40.3535 8.59135 40.3875 8.52947C40.5319 8.26744 40.3131 8.1105 40.2081 8.03513C40.1823 8.01657 40.1469 7.99125 40.1412 7.98422C40.1215 7.93622 40.1284 7.8915 40.1413 7.85682C40.229 7.91719 40.3286 7.9681 40.439 7.99406C40.4458 7.99575 40.4526 7.99641 40.4594 7.99641C40.4882 7.99641 40.5157 7.98244 40.5327 7.95816C40.5538 7.92816 40.5544 7.88832 40.5343 7.85775C40.5323 7.85466 40.3676 7.60135 40.2615 7.28982C40.4331 7.39022 40.6649 7.51182 40.7853 7.51182C40.8679 7.51182 40.8994 7.46044 40.9091 7.43841C40.9149 7.42547 40.9251 7.40203 40.917 7.35816C41.0764 7.44432 41.256 7.51097 41.3926 7.47572C41.4329 7.46532 41.5275 7.44085 41.5418 7.3561C41.5491 7.31307 41.5346 7.27847 41.5029 7.24416C41.6509 7.28007 41.8103 7.29797 41.9667 7.27725C42.0971 7.26 42.1356 7.19681 42.1449 7.14666C42.1508 7.1146 42.1613 7.053 42.045 6.93656C42.2697 6.92428 42.4703 6.87516 42.4868 6.7396C42.4884 6.72741 42.4861 6.71635 42.485 6.70491C43.2072 6.62616 43.7568 6.17447 43.7811 6.15413C43.7881 6.14822 43.7929 6.14091 43.7976 6.1335C44.2349 6.07894 44.7316 5.98022 45.1337 5.79947C45.8925 5.45831 46.2768 4.99772 46.208 4.83056C46.188 4.78191 46.1306 4.74666 46.0598 4.77319C46.0401 4.7806 45.9997 4.79691 45.9471 4.81838C46.3966 4.45275 46.5724 4.11431 46.5891 4.08056ZM45.2702 3.57216C44.9404 3.89485 44.319 4.35891 43.2942 4.62816C43.2853 4.6305 43.2776 4.6351 43.2702 4.63978C43.0548 4.623 42.7823 4.58372 42.5435 4.49447C43.3008 4.32272 44.3647 4.02685 45.2702 3.57216ZM40.7102 4.61916C40.7228 4.62141 40.7356 4.62113 40.748 4.61813C40.8546 4.59207 43.3213 3.9871 43.7173 3.78281C43.6713 3.87356 43.5829 4.00069 43.5105 4.05375C43.5084 4.05516 43.5075 4.0575 43.5056 4.0591C42.4434 4.37438 41.542 4.50731 41.5272 4.50938C41.4783 4.51641 41.4442 4.56178 41.4513 4.61072C41.4583 4.65966 41.5035 4.6936 41.5526 4.68666C41.5608 4.68544 41.8345 4.64522 42.2548 4.55747C42.4724 4.68225 42.7399 4.75107 42.9834 4.78828C42.6196 4.81903 42.2828 4.80141 42.2773 4.80113C42.2349 4.79953 42.1936 4.82906 42.1847 4.87247C42.1758 4.91588 42.1999 4.95938 42.2416 4.97457L42.5803 5.09869C42.1041 5.20003 41.6449 5.10488 41.6394 5.10375C41.6027 5.0956 41.5653 5.11163 41.5452 5.14303C41.5251 5.17444 41.5266 5.21513 41.549 5.24494C41.6136 5.33119 41.7961 5.42185 41.9553 5.48869C41.3005 5.61263 40.85 5.21128 40.8287 5.19197C40.7923 5.15878 40.7359 5.16113 40.7026 5.19731C40.6692 5.2335 40.6712 5.28975 40.707 5.32341C41.2242 5.80744 42.1881 6.0136 42.6208 6.08457C42.5568 6.12244 42.4795 6.15816 42.3986 6.1726C42.0666 6.23156 41.2999 5.86688 40.7604 5.57185L40.3284 5.32256C40.2861 5.298 40.2318 5.31225 40.2067 5.35425C40.1816 5.39635 40.195 5.45081 40.2367 5.47641C40.2575 5.48916 40.4269 5.59285 40.6676 5.72513L41.719 6.33197C41.3964 6.37181 41.0561 6.29963 41.0519 6.29869C41.0493 6.29813 41.0468 6.29888 41.0442 6.2986C40.7981 6.12553 40.401 5.83416 39.8047 5.33972C39.7087 4.99716 39.5289 4.84669 39.3038 4.70372C39.5584 4.62563 40.095 4.50375 40.7102 4.61916ZM41.3601 6.51797C41.3595 6.51816 41.3591 6.51863 41.3585 6.51882C41.3585 6.51882 41.3576 6.51816 41.3572 6.51788C41.3583 6.51788 41.3592 6.51797 41.3601 6.51797ZM35.5268 6.11185L35.7317 5.96606C35.7681 5.94019 35.7799 5.89135 35.7592 5.85178C35.7385 5.81203 35.6916 5.79394 35.6497 5.80875C35.3113 5.9296 34.9687 5.91731 34.7542 5.88975L34.9914 5.74378C35.0292 5.72053 35.0443 5.6731 35.0268 5.63222C35.0094 5.59144 34.9648 5.5696 34.9217 5.58085C34.49 5.69419 34.1304 5.64713 33.895 5.58216C34.2692 5.49478 34.4864 5.32922 34.4979 5.32041C34.5306 5.2951 34.5417 5.25057 34.5247 5.21278C34.5077 5.1751 34.4672 5.15438 34.4265 5.1616C33.9333 5.2545 33.5525 5.22385 33.2967 5.17097C33.5609 5.12663 33.7709 5.06353 33.7839 5.0596C33.7855 5.05922 33.7866 5.05791 33.788 5.05744C33.7941 5.05528 33.7991 5.05182 33.8046 5.04853C33.8091 5.04563 33.8137 5.04328 33.8177 5.03972C33.822 5.03578 33.825 5.0311 33.8286 5.02641C33.8319 5.02181 33.8355 5.01769 33.8379 5.01263C33.8402 5.00775 33.8412 5.00241 33.8427 4.99725C33.8444 4.99116 33.8461 4.98544 33.8466 4.97906C33.8466 4.97766 33.8474 4.97635 33.8474 4.97485C33.8474 4.97016 33.8455 4.96603 33.8448 4.96153C33.8441 4.95713 33.8449 4.95263 33.8436 4.94813C33.8432 4.94672 33.842 4.94578 33.8415 4.94438C33.8393 4.93838 33.836 4.93331 33.8327 4.92797C33.8298 4.92328 33.8274 4.91841 33.8238 4.91438C33.8199 4.91016 33.8153 4.90716 33.8107 4.90369C33.8061 4.90013 33.8018 4.89647 33.7966 4.89394C33.7918 4.89169 33.7865 4.89066 33.7813 4.88925C33.7752 4.88747 33.7694 4.88569 33.763 4.88531C33.7614 4.88522 33.7603 4.88438 33.7588 4.88438C32.6084 4.8736 31.9735 4.26844 31.7702 3.95963C32.1286 4.20938 32.5995 4.42135 32.9424 4.54303H32.9427C33.3988 4.71919 33.9673 4.83141 33.9914 4.8361C34.0398 4.84547 34.087 4.81406 34.0965 4.76541C34.1061 4.71685 34.0744 4.66978 34.0258 4.66031C34.02 4.65919 33.4467 4.54613 33.0048 4.37503C32.0517 4.00622 31.8586 3.60675 31.7942 3.405C31.8972 3.47822 32.0356 3.58594 32.1097 3.6436C32.6676 4.07747 33.9657 4.48781 34.0207 4.50516C34.0678 4.52006 34.1174 4.49419 34.1327 4.4475C34.1479 4.40081 34.1228 4.35066 34.0764 4.33481C32.7342 3.8776 32.5326 3.44288 32.4244 3.20944C32.415 3.18919 32.4062 3.17025 32.3975 3.15263C32.4156 3.15825 32.4344 3.16519 32.4497 3.17203C33.1938 3.58838 34.2874 4.08141 34.7007 4.26441C34.6264 4.30022 34.5484 4.33013 34.4967 4.33303C34.4623 4.335 34.4318 4.35647 34.4188 4.38863C34.4057 4.4206 34.4122 4.45725 34.4354 4.48275C34.4409 4.48875 34.5286 4.58278 34.699 4.61963L34.5781 4.69847C34.5498 4.71703 34.5342 4.75003 34.5381 4.78369C34.542 4.81744 34.5645 4.84603 34.5964 4.85766C34.6046 4.86066 34.7428 4.90932 34.9254 4.92853L34.8247 5.00194C34.7991 5.0206 34.7855 5.05135 34.7885 5.08285C34.7915 5.11435 34.8109 5.14191 34.8396 5.15541C34.8513 5.16085 34.9889 5.22338 35.2098 5.21297L35.2022 5.21822C35.1731 5.23866 35.1589 5.27438 35.1658 5.30925C35.1727 5.34413 35.1999 5.3715 35.2347 5.3791C35.2484 5.382 35.4175 5.41678 35.6602 5.38922L35.605 5.42597C35.5757 5.44538 35.5606 5.48053 35.5663 5.51522C35.5721 5.55 35.5977 5.57813 35.6319 5.58713C35.658 5.59388 36.0499 5.69138 36.5642 5.52825C36.4564 5.59922 36.3559 5.65069 36.2728 5.66935C36.2349 5.67797 36.2068 5.70994 36.2033 5.74866C36.1998 5.78738 36.2217 5.82394 36.2574 5.83922C36.2598 5.84025 36.2686 5.84363 36.2803 5.84785C36.0055 6.02972 35.7246 6.09291 35.5268 6.11185ZM35.0935 4.48725C35.0762 4.44722 35.0327 4.42528 34.9901 4.43588C34.8864 4.46119 34.8025 4.45866 34.7378 4.44497C34.844 4.39772 34.9346 4.34138 34.9507 4.33116C34.9573 4.32703 34.9628 4.32207 34.9679 4.31672C35.1273 4.38085 35.3081 4.44244 35.511 4.50131L35.1672 4.75219C35.0521 4.76438 34.9379 4.75341 34.8469 4.7371L35.0602 4.59797C35.0968 4.57388 35.1109 4.52719 35.0935 4.48725ZM35.8982 6.32991C35.8642 6.32953 35.8013 6.3121 35.778 6.2955C35.7839 6.28613 35.7988 6.26766 35.8319 6.24141C36.0433 6.18722 36.2861 6.08447 36.5188 5.89463C36.7629 5.91235 37.1468 5.85431 37.5381 5.46122C37.5525 5.48738 37.5677 5.51391 37.5852 5.54091C37.5428 5.57288 36.5318 6.33553 35.8982 6.32991ZM36.5968 5.71838C36.8864 5.5441 37.2104 5.241 37.4125 5.03841C37.4156 5.11247 37.43 5.1975 37.4621 5.29078C37.4552 5.29491 37.448 5.29866 37.4421 5.30485C37.1211 5.64338 36.8088 5.7181 36.5968 5.71838ZM38.2791 6.87769C37.9842 6.85753 37.7097 6.81169 37.6094 6.76744C37.8533 6.57703 37.9233 6.49303 37.9306 6.48375C37.9552 6.45291 37.9567 6.4095 37.9343 6.37697C37.9117 6.34435 37.8705 6.33028 37.8331 6.34266C37.5117 6.44653 37.1362 6.54788 36.9508 6.57394C37.0359 6.49753 37.1874 6.40097 37.3241 6.33253C37.368 6.3106 37.3861 6.25744 37.3647 6.21338C37.3433 6.16922 37.2905 6.15066 37.246 6.17138C37.0023 6.28603 36.6533 6.40153 36.435 6.39975C37.0294 6.18572 37.6354 5.72794 37.693 5.68378C37.7388 5.73825 37.7892 5.79366 37.85 5.85C38.3848 6.34725 38.3262 6.73744 38.2791 6.87769ZM38.4266 7.42378C38.4217 7.42969 38.4152 7.43747 38.407 7.44647C38.4264 7.31391 38.4403 7.1476 38.4276 6.98944C38.4769 6.88116 38.5766 6.56016 38.3184 6.13435C38.4887 6.1591 38.8795 6.24103 39.0486 6.48703C39.0711 6.51966 39.0934 6.55585 39.1154 6.59335L39.1152 6.59363C39.1069 6.61341 38.9375 7.02357 38.9916 7.53628C38.9519 7.4896 38.9141 7.43241 38.8887 7.36538C38.8767 7.33397 38.8483 7.31175 38.8147 7.30819C38.7816 7.30463 38.7486 7.31991 38.7301 7.34803C38.6923 7.40532 38.6377 7.48388 38.5834 7.55541L38.5852 7.48303C38.5863 7.44488 38.5629 7.41028 38.5271 7.39688C38.4915 7.38347 38.451 7.39416 38.4266 7.42378ZM39.004 8.53856C38.9862 8.59191 38.8907 8.69494 38.8286 8.75091C38.8265 8.75288 38.8243 8.75503 38.8223 8.75719C38.7756 8.67985 38.7772 8.61863 38.7773 8.61525C38.7804 8.57335 38.754 8.535 38.7138 8.52281C38.6735 8.51072 38.6302 8.52825 38.6098 8.56481C38.5279 8.71106 38.3841 8.72607 38.3577 8.72775C38.3623 8.61985 38.4246 8.52178 38.4286 8.51578C38.4533 8.4781 38.4462 8.42785 38.4119 8.3986C38.3778 8.36935 38.3271 8.36991 38.2936 8.40019C38.1621 8.51916 37.9534 8.44219 37.9515 8.44153C37.9429 8.43825 37.9341 8.43628 37.9251 8.43563C37.983 8.30982 38.0841 8.2995 38.2239 8.28525C38.2773 8.27982 38.3325 8.2741 38.3896 8.26153C38.6652 8.20125 38.6977 7.89657 38.6764 7.74385C38.6757 7.73963 38.6735 7.73616 38.6722 7.73222C38.7154 7.67916 38.7584 7.62103 38.7941 7.57088C38.8116 7.5976 38.8303 7.62169 38.8491 7.64447C38.8497 7.70981 38.8534 7.91128 38.8761 8.01731C38.8941 8.1015 38.9556 8.15822 39.0147 8.1946C39.005 8.21363 38.9967 8.23369 38.9915 8.25544C38.9704 8.34216 38.9883 8.4375 39.0151 8.51925C39.011 8.52572 39.0064 8.53135 39.004 8.53856ZM39.0512 7.98C39.0426 7.94007 39.0372 7.87725 39.0337 7.81406C39.0588 7.83132 39.0764 7.84172 39.0789 7.84303C39.1101 7.86028 39.1487 7.85766 39.177 7.83581C39.2052 7.81406 39.218 7.7776 39.2093 7.7431C39.1147 7.36481 39.1781 7.01091 39.2306 6.81703C39.3848 7.15594 39.4955 7.57416 39.4572 7.84997C39.4513 7.89216 39.4761 7.93266 39.5162 7.94682C39.5245 7.94972 39.5331 7.95066 39.5416 7.95103C39.5407 7.96041 39.5397 7.97035 39.5386 7.97906C39.4479 7.97625 39.2987 7.99013 39.154 8.06541C39.1126 8.04797 39.059 8.01628 39.0512 7.98ZM40.2306 8.44294C40.2234 8.45588 40.2146 8.47078 40.2052 8.48616C40.0984 8.3446 39.9516 8.199 39.8259 8.24644C39.7247 8.28507 39.7143 8.38247 39.7073 8.44706C39.6991 8.52497 39.6932 8.55741 39.6282 8.57972C39.6 8.58938 39.5784 8.61244 39.5707 8.64113L39.5606 8.67835C39.5265 8.60316 39.5084 8.51241 39.5593 8.43507C39.5854 8.39541 39.5759 8.34244 39.5377 8.31413C39.4996 8.28591 39.4459 8.29228 39.4155 8.32875C39.4146 8.32969 39.3336 8.42513 39.2156 8.44191C39.2034 8.44369 39.1919 8.44791 39.1817 8.4541C39.1645 8.39935 39.1547 8.34206 39.1655 8.29772C39.1719 8.27128 39.1851 8.25328 39.2077 8.2395C39.3871 8.13094 39.5964 8.16178 39.5982 8.16216C39.6455 8.17003 39.689 8.14013 39.6996 8.09428C39.7045 8.07385 39.7429 7.89919 39.7148 7.75294L39.8307 7.55832C39.8723 7.61157 39.9287 7.67691 39.9977 7.74122C39.9596 7.81097 39.9225 7.92366 39.9755 8.05219C39.9967 8.10394 40.0462 8.13938 40.1035 8.18035C40.2496 8.28525 40.2883 8.33794 40.2306 8.44294ZM39.9008 7.34785C39.8844 7.32094 39.8518 7.30641 39.8239 7.30482C39.7925 7.30491 39.7635 7.3215 39.7473 7.3485L39.6309 7.54406C39.5818 7.14806 39.3952 6.675 39.1962 6.38541C38.9375 6.009 38.2976 5.93766 38.177 5.93813C38.1183 5.86688 38.0527 5.79403 37.9718 5.71885C37.4407 5.22516 37.6154 4.83056 37.6238 4.81219C37.6246 4.8106 37.6244 4.809 37.6251 4.80741C37.6274 4.8016 37.6284 4.79578 37.6295 4.78978C37.6305 4.78435 37.6318 4.779 37.6318 4.77347C37.6318 4.76775 37.6305 4.7625 37.6296 4.75688C37.6284 4.75116 37.6276 4.74563 37.6255 4.7401C37.6235 4.73513 37.6205 4.73091 37.6175 4.72622C37.6142 4.72088 37.611 4.71563 37.6064 4.71113C37.6052 4.70991 37.6047 4.70822 37.6034 4.707C37.6002 4.7041 37.5963 4.70297 37.5927 4.70063C37.5891 4.69819 37.5865 4.69472 37.5825 4.69275C37.5808 4.69191 37.5791 4.6921 37.5774 4.69144C37.5716 4.6891 37.5658 4.68788 37.5597 4.68675C37.5541 4.68572 37.5488 4.68441 37.5434 4.68441C37.5377 4.68441 37.5324 4.68563 37.5268 4.68666C37.521 4.68769 37.5155 4.68853 37.51 4.69069C37.5051 4.69266 37.5007 4.69575 37.4961 4.69866C37.4907 4.70203 37.4855 4.70522 37.481 4.70972C37.4797 4.71094 37.4781 4.7115 37.4769 4.71272L37.4768 4.71281C36.8691 5.37666 36.2331 5.4556 35.9036 5.44172L36.2858 5.18681C36.3609 5.14481 36.4368 5.09485 36.5121 5.03569C36.55 5.00588 36.5575 4.95169 36.5294 4.91278C36.5012 4.87369 36.4472 4.86413 36.4072 4.89085L36.1973 5.03072C35.9385 5.17435 35.6884 5.21297 35.5136 5.21841L35.7127 5.07882C35.8657 5.00485 36.0327 4.89375 36.2086 4.73007C36.243 4.698 36.2468 4.64475 36.2172 4.60819C36.1878 4.57163 36.135 4.56431 36.0962 4.59113L35.6214 4.92394C35.3959 5.03016 35.2112 5.04319 35.0871 5.03185L35.766 4.53628C35.7939 4.51594 35.8076 4.48135 35.8011 4.44741C35.7948 4.41347 35.7695 4.38628 35.7362 4.37738C34.6296 4.08281 34.3636 3.78216 34.3036 3.62906C34.2983 3.61566 34.2949 3.60488 34.2928 3.59644C34.3151 3.59981 34.345 3.60825 34.3643 3.61641C35.4486 4.25353 37.4797 4.50872 37.5656 4.51941C37.6099 4.52381 37.6509 4.49719 37.6627 4.45444C37.6934 4.34419 37.8705 3.78506 38.3517 3.60347C38.8056 3.43256 39.1629 3.70903 39.1777 3.72056C39.1937 3.73331 39.2134 3.74025 39.2337 3.74025C39.4266 3.74025 39.5544 3.77869 39.5936 3.84863C39.6062 3.87103 39.6098 3.89672 39.6085 3.92241C39.5772 3.90647 39.5427 3.89578 39.5087 3.89072C39.4933 3.88838 39.4776 3.89016 39.4631 3.89578C39.4455 3.90263 39.401 3.90572 39.3618 3.90844C39.2355 3.91716 39.0446 3.93028 38.9366 4.09088C38.8729 4.18566 38.8517 4.31166 38.8784 4.43653C38.8951 4.51444 38.9368 4.61625 39.032 4.71563C39.0413 4.73419 39.0562 4.74769 39.074 4.75594C39.1066 4.78491 39.143 4.8135 39.1864 4.84069C39.3977 4.97278 39.5527 5.09475 39.6351 5.39372C39.6358 5.40431 39.6385 5.41435 39.6428 5.424C39.6766 5.559 39.6967 5.72785 39.7012 5.9476C39.7023 5.99644 39.7422 6.03535 39.7907 6.03535C39.7907 6.03535 39.792 6.03535 39.7926 6.03535C39.8421 6.03432 39.8813 5.99335 39.8804 5.94394C39.8778 5.82085 39.8697 5.71275 39.8576 5.61478C40.5246 6.15966 40.9185 6.43041 41.116 6.56588C41.1439 6.585 41.1703 6.6031 41.1934 6.61931C40.9924 6.6376 40.6741 6.45413 40.4252 6.26438C40.3433 6.1905 40.266 6.12947 40.2241 6.09741C40.186 6.06825 40.1317 6.07425 40.101 6.1111C40.0702 6.14785 40.0739 6.20231 40.1092 6.23466C40.1319 6.25538 40.2041 6.31997 40.3056 6.39844C40.4228 6.50503 40.5134 6.60563 40.5418 6.66356C40.4024 6.63422 40.02 6.40678 39.709 6.18478C39.6707 6.15741 39.6179 6.16444 39.5879 6.20063C39.558 6.23691 39.5612 6.29025 39.5952 6.3226C39.8099 6.52641 39.9421 6.7126 40.0262 7.1116C40.0741 7.33922 40.1669 7.55522 40.2461 7.71178C40.0373 7.56928 39.9027 7.35085 39.9008 7.34785ZM41.9433 7.0995C41.4693 7.16175 40.9329 6.80044 40.9276 6.79678C40.8893 6.77072 40.8375 6.77794 40.8082 6.81366C40.7786 6.84928 40.7811 6.90141 40.8139 6.93403C40.9691 7.08928 41.1275 7.19475 41.243 7.27163C41.2597 7.28278 41.2777 7.29478 41.295 7.3066C41.1227 7.29797 40.8232 7.10372 40.6581 6.96853C40.622 6.93882 40.5688 6.94219 40.5364 6.97631C40.5041 7.01035 40.5036 7.0636 40.5352 7.09819C40.6021 7.17141 40.6655 7.25325 40.7039 7.31307C40.573 7.26525 40.3522 7.13963 40.1928 7.03763C40.1559 6.87422 40.1106 6.74128 40.0547 6.6286C40.5749 6.93844 40.6625 6.83391 40.6954 6.79453C40.7145 6.77156 40.736 6.7321 40.7294 6.67397C40.7294 6.67369 40.7294 6.67332 40.7294 6.67332C40.9417 6.78075 41.1694 6.84413 41.344 6.76247C41.3623 6.75385 41.3886 6.74025 41.4097 6.7186C41.7321 6.89869 41.9007 7.0335 41.952 7.09819C41.9492 7.09856 41.9463 7.09903 41.9433 7.0995ZM41.8216 6.75919C41.7227 6.69207 41.596 6.61482 41.4295 6.52444C41.4261 6.52257 41.4223 6.52247 41.4187 6.52116C41.4481 6.52228 41.4781 6.52313 41.5089 6.52313C41.595 6.52313 41.6856 6.51722 41.7756 6.5041C41.7825 6.5085 41.7891 6.51338 41.7973 6.516C42.0747 6.60319 42.2417 6.66947 42.2951 6.71382C42.2238 6.74475 42.019 6.76491 41.8216 6.75919ZM42.3493 6.53606C42.3493 6.53606 42.3483 6.53635 42.3477 6.53635C42.2757 6.49444 42.1733 6.45328 42.043 6.40838C42.0477 6.399 42.0513 6.38897 42.0523 6.3781C42.0545 6.35597 42.0483 6.33432 42.0359 6.31697C42.1881 6.35335 42.3241 6.36769 42.4302 6.34885C42.5638 6.32503 42.6848 6.25922 42.7725 6.20006H42.7726C42.8625 6.20006 43.1178 6.19688 43.4449 6.16997C43.2087 6.31594 42.806 6.51619 42.3493 6.53606ZM45.9613 5.00588C45.8394 5.15916 45.5627 5.41003 45.0601 5.63597C44.3737 5.9446 43.3601 6.0061 42.9377 6.018C42.937 6.01125 42.9363 6.0046 42.9339 5.99803C42.9228 5.96513 42.8935 5.94169 42.8589 5.93775C42.851 5.93691 42.3975 5.88413 41.8931 5.73207C42.1955 5.76066 42.4808 5.77481 42.7478 5.77481C43.5019 5.77481 44.1178 5.66972 44.6187 5.51222C44.6213 5.51185 44.6239 5.51241 44.6265 5.51185C44.9025 5.43957 45.5602 5.17013 45.9135 5.02547C45.9303 5.01844 45.9461 5.01197 45.9613 5.00588ZM45.4836 4.92028C44.901 5.28094 43.8849 5.66625 42.2777 5.58019C42.3089 5.5651 42.3294 5.53378 42.3287 5.49844C42.3279 5.46066 42.3036 5.42747 42.2678 5.41538C42.1959 5.3911 42.1105 5.35894 42.0275 5.32416C42.2735 5.33138 42.5937 5.30841 42.8981 5.19113C42.9329 5.17772 42.9558 5.14416 42.9554 5.10685C42.9551 5.06953 42.9317 5.03625 42.8966 5.0235L42.7796 4.98066C43.0765 4.96828 43.4406 4.92938 43.6944 4.8225C43.7345 4.80563 43.7565 4.7626 43.747 4.72031C43.7465 4.71816 43.7451 4.71638 43.7446 4.71422C44.2809 4.57988 45.2685 4.26985 46.2879 3.63113C46.0684 3.996 45.4306 4.67447 43.6251 5.10113C43.5784 5.11219 43.5486 5.15813 43.5578 5.20528C43.567 5.25253 43.6118 5.28347 43.6592 5.27672C43.6726 5.27466 44.9 5.08191 46.1672 4.35656C46.017 4.52353 45.7952 4.72744 45.4836 4.92028Z" fill="#464655"/>
</g>
<defs>
<clipPath id="clip0_11_1150">
<rect width="48" height="32" fill="white"/>
</clipPath>
</defs>
</svg>
