<svg width="48" height="32" viewBox="0 0 48 32" fill="none" xmlns="http://www.w3.org/2000/svg">
<g clip-path="url(#clip0_11_830)">
<path d="M47.9999 4.76877H0V1.10362C0 0.646594 0.370593 0.276001 0.827623 0.276001H47.1724C47.6294 0.276001 48 0.646594 48 1.10362L47.9999 4.76877Z" fill="#73AF00"/>
<path d="M47.9999 4.76886H0V9.26163H47.9999V4.76886Z" fill="#FFE15A"/>
<path d="M47.9999 9.26123H0V13.754H47.9999V9.26123Z" fill="#FF4B55"/>
<path d="M0 27.2315H47.9999V30.8966C47.9999 31.3536 47.6293 31.7242 47.1723 31.7242H0.827623C0.370593 31.7242 0 31.3536 0 30.8966V27.2315Z" fill="#73AF00"/>
<path d="M47.9999 22.7387H0V27.2315H47.9999V22.7387Z" fill="#FFE15A"/>
<path d="M47.9999 18.2463H0V22.7391H47.9999V18.2463Z" fill="#FF4B55"/>
<path d="M47.9998 13.7537H18.3578L1.3332 0.275879H0.82751C0.613948 0.275879 0.423542 0.362129 0.27673 0.495066V31.505C0.423542 31.6378 0.613948 31.7241 0.82751 31.7241H1.33329L18.3578 18.2462H47.9998V13.7537Z" fill="#464655"/>
<path d="M0.276843 31.5049L19.862 16L0.276843 0.495117C0.109406 0.646617 0 0.859991 0 1.10346V30.8965C0 31.1401 0.109406 31.3534 0.276843 31.5049Z" fill="white"/>
<path d="M8.06839 9.94836L9.81241 13.4821L13.712 14.0488L10.8902 16.7993L11.5563 20.6832L8.06839 18.8494L4.58042 20.6832L5.24661 16.7993L2.42474 14.0488L6.32445 13.4821L8.06839 9.94836Z" fill="#FF4B55"/>
<path d="M12.5933 16.4503L7.95864 12.8625C7.41639 11.5918 6.64567 10.7723 5.99139 10.7723C5.43555 10.7723 5.16377 11.2874 5.08596 11.597C4.68565 11.7823 4.59171 12.1512 4.58777 12.1673C4.58121 12.1937 4.58749 12.2218 4.60418 12.2432C4.62105 12.2646 4.64674 12.2771 4.67402 12.2771L4.75699 12.2756C5.12937 12.2669 5.7498 12.2506 5.90843 13.4336C6.00743 14.1722 5.86043 15.4953 5.39308 16.4925C5.06646 17.1893 5.17437 17.7527 5.17915 17.7763C5.18805 17.8208 5.2294 17.85 5.27552 17.8472C5.28265 17.8465 5.2999 17.8458 5.32183 17.845L5.69683 19.9651C5.70443 20.0075 5.74108 20.0384 5.78421 20.0384H11.3795C11.4204 20.0384 11.4561 20.0104 11.4657 19.9706L12.0908 17.4034C12.0909 17.4026 12.0918 17.4023 12.092 17.4015C12.0923 17.4001 12.0919 17.3987 12.0922 17.3973L12.2907 16.5819C12.4376 16.5992 12.525 16.6083 12.5299 16.6089C12.5723 16.6144 12.6068 16.5902 12.6213 16.5535C12.6358 16.5169 12.6247 16.4747 12.5933 16.4503Z" fill="#FFE15A"/>
<path d="M12.5933 16.4503L7.95864 12.8625C7.41639 11.5918 6.64567 10.7723 5.99139 10.7723C5.43555 10.7723 5.16377 11.2874 5.08596 11.597C4.68565 11.7823 4.59171 12.1512 4.58777 12.1673C4.58121 12.1937 4.58749 12.2218 4.60418 12.2432C4.62105 12.2646 4.64674 12.2771 4.67402 12.2771L4.75699 12.2756C5.12937 12.2669 5.7498 12.2506 5.90843 13.4336C6.00743 14.1722 5.86043 15.4953 5.39308 16.4925C5.06646 17.1893 5.17437 17.7527 5.17915 17.7763C5.18805 17.8208 5.2294 17.85 5.27552 17.8472C5.28265 17.8465 5.2999 17.8458 5.32183 17.845L5.69683 19.9651C5.70443 20.0075 5.74108 20.0384 5.78421 20.0384H11.3795C11.4204 20.0384 11.4561 20.0104 11.4657 19.9706L12.0908 17.4034C12.0909 17.4026 12.0918 17.4023 12.092 17.4015C12.0923 17.4001 12.0919 17.3987 12.0922 17.3973L12.2907 16.5819C12.4376 16.5992 12.525 16.6083 12.5299 16.6089C12.5723 16.6144 12.6068 16.5902 12.6213 16.5535C12.6358 16.5169 12.6247 16.4747 12.5933 16.4503ZM5.55368 16.5681C5.97668 15.6658 6.20477 14.3081 6.08439 13.4101C5.91264 12.1293 5.19377 12.0891 4.80555 12.0969C4.86059 11.9899 4.97496 11.8328 5.19593 11.7427C5.2233 11.7316 5.24327 11.7073 5.24927 11.6783C5.25546 11.6486 5.40658 10.95 5.99121 10.95C6.56861 10.95 7.29714 11.7552 7.80414 12.9533C7.81005 12.9673 7.81951 12.9796 7.83151 12.9889L12.2331 16.3962C11.4573 16.3021 9.43013 16.0228 8.22939 15.5497C7.60173 15.3025 7.45867 14.9262 7.33248 14.5943C7.31514 14.5483 7.26358 14.5256 7.21783 14.5429C7.17198 14.5603 7.14892 14.6117 7.16645 14.6576C7.29189 14.9874 7.46373 15.4392 8.16433 15.7152C8.30711 15.7715 8.46123 15.825 8.62332 15.8758C8.59511 15.9614 8.41548 16.3976 7.61908 16.6838C6.9737 16.9157 6.51442 17.3066 6.45171 17.6598C6.21583 17.6589 6.00536 17.6592 5.82855 17.6604V17.404C5.82855 17.2091 6.01624 16.927 6.21489 16.6283C6.49174 16.212 6.80552 15.7402 6.80552 15.2575C6.80552 15.2085 6.76567 15.1687 6.71664 15.1687C6.66761 15.1687 6.62777 15.2085 6.62777 15.2575C6.62777 15.6865 6.32974 16.1346 6.06686 16.5298C5.84355 16.8655 5.6508 17.1555 5.6508 17.4039V17.6618C5.51674 17.6632 5.41165 17.665 5.34312 17.6669C5.32727 17.4998 5.31818 17.0704 5.55368 16.5681ZM9.07595 16.0055C8.9732 16.291 8.66908 16.3877 8.44361 16.4186C8.68801 16.2014 8.77051 16.0005 8.79367 15.927C8.88573 15.9542 8.98023 15.9802 9.07595 16.0055ZM9.24714 16.0496C9.34492 16.0742 9.44354 16.0978 9.5432 16.1207C9.45254 16.3051 9.21029 16.3956 8.94554 16.4335C9.07679 16.3502 9.18798 16.2274 9.24714 16.0496ZM11.758 18.0193C10.8577 17.7419 8.25929 17.671 6.63086 17.6605C6.68599 17.4588 6.94155 17.1939 7.3743 16.9815C7.3787 16.9823 7.38273 16.9842 7.38733 16.9842C9.81826 16.9929 11.5103 17.3534 11.898 17.4443L11.758 18.0193ZM11.6434 18.49L11.2883 18.0939C11.4576 18.1233 11.6018 18.1561 11.7159 18.1926L11.6434 18.49ZM7.04927 18.5527L7.22195 18.7152C7.1688 18.7149 7.11639 18.7143 7.06202 18.714C7.05733 18.6619 7.05339 18.6067 7.04927 18.5527ZM11.5372 18.9263L11.0859 18.4318C11.0562 18.3992 11.0071 18.3932 10.971 18.418L10.4411 18.7727L10.0424 18.3357C10.0116 18.3018 9.95926 18.2973 9.92279 18.3251L9.44382 18.6924L9.0092 18.2633C8.97657 18.231 8.92445 18.229 8.88957 18.2585L8.42167 18.652L7.9833 18.2453C7.95011 18.2145 7.89864 18.2139 7.86433 18.2436L7.40702 18.6455L7.03099 18.2917C7.02442 18.1861 7.01861 18.0774 7.01355 17.9655L7.3502 18.2961C7.38302 18.3284 7.43523 18.3298 7.4703 18.3L7.9412 17.8946L8.37142 18.3183C8.40386 18.3503 8.45551 18.3523 8.49067 18.3233L8.96307 17.9296L9.41635 18.3566C9.44832 18.3866 9.49707 18.3891 9.53129 18.3625L10.0054 17.9988L10.402 18.454C10.432 18.4884 10.4833 18.4943 10.5206 18.4678L11.048 18.0921L11.5722 18.6769C11.5785 18.6838 11.5864 18.6881 11.5941 18.6926L11.5372 18.9263ZM11.2706 18.8977C11.1293 18.8798 10.9318 18.8587 10.6644 18.837L11.0064 18.6081L11.2706 18.8977ZM10.2312 18.8061C10.0529 18.7948 9.85295 18.784 9.62963 18.7737L9.9662 18.5157L10.2312 18.8061ZM9.25773 18.7582C9.05448 18.7505 8.83351 18.7435 8.59614 18.7375L8.94207 18.4465L9.25773 18.7582ZM8.24401 18.7293C8.03926 18.7251 7.82167 18.7216 7.59283 18.7189L7.92161 18.4301L8.24401 18.7293ZM7.1433 17.8441C7.32761 17.8465 7.51961 17.8498 7.71601 17.854L7.4162 18.112L7.1433 17.8441ZM8.16414 17.8647C8.35501 17.87 8.54786 17.8765 8.74032 17.8837L8.43864 18.135L8.16414 17.8647ZM9.19426 17.9033C9.39807 17.9131 9.59926 17.9241 9.79435 17.9366L9.4832 18.1753L9.19426 17.9033ZM10.214 17.9675C10.4332 17.9853 10.6405 18.0055 10.8314 18.0282L10.4831 18.2764L10.214 17.9675ZM5.50136 17.8414C5.76827 17.8375 6.24668 17.8353 6.83027 17.8405C6.86355 18.6847 6.93733 19.3628 7.04936 19.8609H5.85864L5.50136 17.8414ZM11.3097 19.8609H7.23114C7.1688 19.5939 7.11827 19.2694 7.07955 18.8918C10.0505 18.9114 11.1791 19.0588 11.4612 19.1049C11.4696 19.1131 11.4788 19.1198 11.4892 19.1239L11.3097 19.8609ZM11.94 17.2718C11.5644 17.1839 10.0142 16.855 7.77798 16.812C7.93558 16.7492 8.06992 16.6812 8.18308 16.6109C8.23595 16.6176 8.39167 16.6347 8.58686 16.6347C8.99214 16.6347 9.56148 16.558 9.7187 16.16C10.6418 16.362 11.5879 16.4947 12.1133 16.5603L11.94 17.2718Z" fill="#464655"/>
<path d="M6.2431 11.5569C6.2431 11.3937 6.11035 11.2609 5.94704 11.2609C5.78382 11.2609 5.65098 11.3936 5.65098 11.5569C5.65098 11.7201 5.78373 11.853 5.94704 11.853C6.11026 11.853 6.2431 11.7201 6.2431 11.5569ZM5.94704 11.6753C5.8817 11.6753 5.82863 11.6223 5.82863 11.5569C5.82863 11.4916 5.8817 11.4385 5.94704 11.4385C6.01238 11.4385 6.06545 11.4916 6.06545 11.5569C6.06545 11.6223 6.01238 11.6753 5.94704 11.6753Z" fill="#464655"/>
<path d="M8.42899 17.0614C8.26839 17.0614 8.13789 17.192 8.13789 17.3525C8.13789 17.513 8.26849 17.6436 8.42899 17.6436C8.58949 17.6436 8.72017 17.513 8.72017 17.3525C8.72017 17.192 8.58949 17.0614 8.42899 17.0614ZM8.42899 17.466C8.36636 17.466 8.31555 17.4151 8.31555 17.3526C8.31555 17.2901 8.36646 17.2392 8.42899 17.2392C8.49161 17.2392 8.54261 17.2901 8.54261 17.3526C8.54261 17.4151 8.49152 17.466 8.42899 17.466Z" fill="#464655"/>
<path d="M9.29906 17.111C9.13847 17.111 9.00787 17.2417 9.00787 17.4022C9.00787 17.5627 9.13856 17.6933 9.29906 17.6933C9.45965 17.6933 9.59015 17.5627 9.59015 17.4022C9.59015 17.2417 9.45965 17.111 9.29906 17.111ZM9.29906 17.5157C9.23644 17.5157 9.18544 17.4647 9.18544 17.4022C9.18544 17.3396 9.23644 17.2886 9.29906 17.2886C9.36169 17.2886 9.4125 17.3396 9.4125 17.4022C9.41259 17.4647 9.36169 17.5157 9.29906 17.5157Z" fill="#464655"/>
</g>
<defs>
<clipPath id="clip0_11_830">
<rect width="48" height="32" fill="white"/>
</clipPath>
</defs>
</svg>
